<?xml version="1.0" encoding="UTF-8"?>
<svg width="237pt" version="1.1" xmlns="http://www.w3.org/2000/svg" height="237pt" viewBox="0 0 237 237" xmlns:xlink="http://www.w3.org/1999/xlink">
 <defs>
  <clipPath id="Clip0">
   <path d="M0 0 L236 0 L236 236.25 L0 236.25 L0 0 Z" transform="translate(0, 0)"/>
  </clipPath>
 </defs>
 <g id="Background">
  <g id="Ebene_1" clip-path="url(#Clip0)">
   <path style="fill:#e2001a; fill-rule:nonzero;stroke:none;" d="M0 118.125 C0 52.8731 52.84 0 118 0 C183.183 0 236 52.8731 236 118.125 C236 183.354 183.183 236.25 118 236.25 C52.84 236.25 0 183.354 0 118.125 Z" transform="translate(0, 0)"/>
   <path style="fill:#ffffff; fill-rule:nonzero;stroke:none;" d="M0 113.399 C0 50.77 50.7133 0 113.279 0 C175.838 0 226.557 50.77 226.557 113.399 C226.557 176.028 175.838 226.797 113.279 226.797 C50.7133 226.797 0 176.028 0 113.399 Z" transform="translate(4.72125, 4.72625)"/>
   <path style="fill:#e2001a; fill-rule:nonzero;stroke:none;" d="M0 108.672 C0 48.6412 48.6156 0 108.557 0 C168.522 0 217.115 48.6412 217.115 108.672 C217.115 168.678 168.522 217.345 108.557 217.345 C48.6156 217.345 0 168.678 0 108.672 Z" transform="translate(9.4425, 9.4525)"/>
   <path style="fill:#ffffff; fill-rule:nonzero;stroke:none;" d="M0 74.4182 C0 33.3121 33.2977 0 74.3395 0 C115.405 0 148.679 33.3117 148.679 74.4182 C148.679 115.525 115.405 148.836 74.3395 148.836 C33.2981 148.836 0 115.525 0 74.4182 Z" transform="translate(43.6604, 43.7067)"/>
   <path style="fill:#e2001a; fill-rule:nonzero;stroke:none;" d="M0 69.6948 C0 31.2071 31.1758 0 69.621 0 C108.09 0 139.243 31.2071 139.243 69.6948 C139.243 108.183 108.09 139.39 69.621 139.39 C31.1758 139.39 0 108.183 0 69.6948 Z" transform="translate(48.3787, 48.43)"/>
   <path style="fill:#ffffff; fill-rule:nonzero;stroke:none;" d="M8.59274 12.0492 C7.29266 9.59358 5.94585 7.15806 4.46107 4.77175 C6.96325 6.16586 9.34409 7.44146 11.6553 8.62438 Z M10.4532 15.3809 L15.059 10.276 L18.1216 11.6935 C18.6648 11.9306 19.1385 12.1681 19.4679 12.4745 C19.7047 12.6886 19.9416 12.9721 20.1326 13.3018 L24.5648 8.38771 C22.4901 8.41107 20.8143 7.67896 19.023 6.92432 L2.66397 0 L0 2.979 L7.83593 19.6567 C8.5406 21.0972 9.10726 22.9167 9.558 25.0684 L13.7822 20.3421 C13.4066 20.1773 13.0484 19.9631 12.7653 19.6797 C12.4129 19.3733 12.0373 18.8524 11.6849 18.0973 L10.4532 15.3809 Z" transform="translate(42.6697, 46.2816)"/>
   <path style="fill:#ffffff; fill-rule:nonzero;stroke:none;" d="M9.79442 11.0086 C12.6493 10.514 14.7525 11.315 15.7407 13.1808 C16.8039 15.191 16.2148 17.1749 14.0708 18.309 C13.9723 18.3783 13.8798 18.4275 13.7585 18.4738 Z M9.58634 10.5833 L6.23483 4.298 C8.47683 3.28246 10.1526 3.70779 11.0482 5.40872 C11.9443 7.0633 11.4702 9.02423 9.58634 10.5833 Z M3.32818 2.50191 L0 4.27504 C1.44477 5.50431 2.52512 7.04035 3.49622 8.88274 L8.4251 18.1441 C9.39624 19.9865 10.0546 21.7333 10.2685 23.625 L15.4868 20.8367 C20.133 18.3783 21.6178 14.4592 20.0171 11.4569 C19.023 9.56813 17.0875 8.62229 14.042 8.33889 C15.1053 6.09452 15.2266 4.1565 14.4002 2.5975 C13.5738 1.01512 11.7074 0 9.48835 0.0697063 C7.98024 0.0926632 6.41993 0.873624 4.55905 1.86579 C4.13125 2.0795 3.73263 2.29071 3.32818 2.50191 Z" transform="translate(58.8328, 30.1473)"/>
   <path style="fill:#ffffff; fill-rule:nonzero;stroke:none;" d="M6.39117 24.5704 L18.0065 21.0242 L18.3817 16.3242 C16.8736 17.6461 14.9147 18.6149 12.4354 19.3729 C11.8692 19.5378 11.2801 19.6797 10.6905 19.8442 L8.87001 13.8427 C8.99134 13.7964 9.10684 13.7501 9.25151 13.7242 C10.6154 13.3018 11.8463 13.2296 12.9095 13.6086 L13.9669 9.11982 L7.9744 10.9623 L6.20607 5.17454 C8.11866 4.65362 9.71934 4.48875 11.1353 4.69996 L11.8692 0 L0 3.6385 C1.17875 5.10192 1.93595 6.80285 2.54847 8.81306 L5.6169 18.8524 C6.22941 20.8367 6.53585 22.6792 6.39117 24.5704 Z" transform="translate(78.0001, 20.3192)"/>
   <path style="fill:#ffffff; fill-rule:nonzero;stroke:none;" d="M6.68015 11.6706 L5.76116 2.99946 C8.40176 3.14096 9.88741 4.37021 10.1009 6.47309 C10.3615 8.8819 9.13643 10.7711 6.68015 11.6706 Z M6.72642 12.1189 C11.4939 18.3085 14.7529 21.2617 15.9317 21.1431 L19.6589 20.7412 C16.1227 17.7651 13.4066 14.6467 11.5169 11.4798 C13.9036 9.97006 15.0127 7.98327 14.7758 5.78771 C14.5849 3.96825 13.5217 2.36041 11.6612 1.27558 C9.62724 0.069289 7.55242 0 4.8134 0.283417 L0 0.77804 C0.8727 2.47854 1.30008 4.27504 1.53733 6.35455 L2.6181 16.7963 C2.832 18.8758 2.80865 20.7416 2.2887 22.5606 L8.68574 21.8982 C7.81301 20.2236 7.38565 18.4016 7.17758 16.3246 L6.72642 12.1189 Z" transform="translate(97.8207, 17.0597)"/>
   <path style="fill:#ffffff; fill-rule:nonzero;stroke:none;" d="M0 21.7826 L4.8134 22.2772 C7.46026 22.5606 9.70226 22.3035 11.4239 21.5918 C15.3187 19.9635 17.8438 16.7036 18.2429 12.9002 C18.6936 8.64565 16.8965 4.93746 13.3077 2.57454 C11.401 1.34821 9.15857 0.732125 6.35033 0.425333 L2.28787 0 C2.80782 1.81946 2.83117 3.68483 2.61727 5.76434 L1.53692 16.2061 C1.30008 18.286 0.872283 20.105 0 21.7826 Z M5.78408 19.4196 L7.40816 3.87308 C11.5398 4.98379 13.8744 8.4808 13.4295 12.6398 C13.025 16.6314 10.1934 19.2548 5.78408 19.4196 Z" transform="translate(118.59, 16.1134)"/>
   <path style="fill:#ffffff; fill-rule:nonzero;stroke:none;" d="M0 20.9557 L11.6153 24.4986 L14.539 20.8371 C12.5572 21.0742 10.3844 20.7675 7.90517 20.0099 C7.33892 19.845 6.77226 19.6309 6.20607 19.4196 L8.04942 13.4179 C8.16492 13.4671 8.28626 13.49 8.4251 13.5364 C9.81776 13.9617 10.8577 14.5778 11.5169 15.4744 L14.9147 12.3793 L8.92215 10.5369 L10.6905 4.77217 C12.5572 5.38535 13.9728 6.16628 15.036 7.13506 L18.2433 3.6385 L6.39701 0 C6.54126 1.88875 6.22941 3.73116 5.6169 5.71506 L2.54847 15.7578 C1.93595 17.7655 1.185 19.466 0 20.9557 Z" transform="translate(138.624, 19.8934)"/>
   <path style="fill:#ffffff; fill-rule:nonzero;stroke:none;" d="M0 18.7831 L10.4073 25.0421 L14.1579 22.1846 C12.1757 21.9475 10.1242 21.1202 7.90517 19.7753 C7.40816 19.4919 6.91699 19.1363 6.39701 18.8065 L9.62724 13.4212 C9.74857 13.5138 9.8411 13.5627 9.97999 13.6324 C11.2108 14.3875 12.0831 15.2406 12.5051 16.2787 L16.5446 14.0802 L11.1879 10.8437 L14.2797 5.66917 C15.9554 6.73354 17.1342 7.82128 17.9373 9.00128 L21.9013 6.40378 L11.2801 0 C10.974 1.86829 10.2168 3.59217 9.13018 5.36235 L3.72722 14.3633 C2.66397 16.1593 1.50815 17.6261 0 18.7831 Z" transform="translate(154.273, 27.5473)"/>
   <path style="fill:#ffffff; fill-rule:nonzero;stroke:none;" d="M13.5683 10.6329 L10.0779 23.6254 C9.81776 24.6406 9.53466 25.5864 9.08975 26.46 L12.3199 30.3356 C13.2389 29.0112 14.3481 27.8078 15.6715 26.72 L24.3105 19.4426 C25.9112 18.0948 27.4715 17.0797 29.2627 16.4895 L25.5126 11.9774 C24.5936 13.6549 23.3398 15.049 21.762 16.371 L14.3251 22.6069 L18.197 8.26917 C18.5264 6.99357 19.0463 5.99892 19.7514 5.14825 L15.458 0 L14.7529 4.46579 L4.95808 12.6861 C3.37488 14.0339 1.7971 15.0257 0 15.6163 L3.75598 20.1284 C4.67497 18.4509 5.92292 17.0801 7.50657 15.7352 " transform="translate(169.234, 39.0293)"/>
   <path style="fill:#ffffff; fill-rule:nonzero;stroke:none;" d="M23.1088 12.8046 L21.7624 0 C20.0867 0.873624 18.2662 1.29854 16.1918 1.51267 L5.76116 2.62046 C3.7097 2.83458 1.84338 2.81163 0 2.29071 L0.687568 8.69452 C2.36333 7.795 4.17795 7.39264 6.23525 7.15848 L10.1763 6.75649 C10.2456 7.01694 10.2689 7.27744 10.2918 7.53747 C10.4595 9.02423 10.2689 10.3487 9.70226 11.5754 L13.9265 13.1603 L13.2156 6.42673 L19.0693 5.81065 C19.2603 7.98577 19.1677 9.75598 18.6473 11.2223 " transform="translate(16.6367, 126.559)"/>
   <path style="fill:#ffffff; fill-rule:nonzero;stroke:none;" d="M8.02067 19.8216 C7.10167 19.1592 6.39117 18.2856 5.77867 17.1519 C4.5995 14.9305 4.45523 12.6632 5.25832 10.3232 C6.08474 8.0325 7.38482 6.42715 9.32075 5.38577 C11.4414 4.25167 13.6605 3.80337 15.9025 4.04046 C16.5379 4.79554 17.012 5.4809 17.3414 6.14333 C18.4047 8.12726 18.7341 10.3721 18.4047 12.1911 C17.8613 15.0027 16.3298 16.9637 13.6372 18.3808 C11.7016 19.4196 9.789 19.8909 8.02067 19.8216 Z M1.60072 16.7729 C3.51332 20.4114 7.19467 22.8207 10.9969 23.0811 C13.0947 23.2226 15.1228 22.7743 17.0817 21.7333 C19.8669 20.2465 21.7566 17.93 22.5134 15.049 C23.2418 12.2374 22.8891 9.35357 21.4731 6.68431 C19.9128 3.75704 17.4165 1.70092 14.3481 0.803918 C11.632 0 8.8004 0.260042 6.27526 1.60491 C3.32235 3.16391 1.2709 5.90583 0.589166 9.14235 C0 11.8125 0.375682 14.4822 1.60072 16.7729 Z" transform="translate(24.0045, 145.553)"/>
   <path style="fill:#ffffff; fill-rule:nonzero;stroke:none;" d="M9.48876 20.1543 C8.44849 19.6797 7.57617 18.9943 6.74976 18.0256 C5.14905 16.0905 4.50777 13.8924 4.83717 11.4364 C5.14947 9.02715 6.09099 7.18476 7.76674 5.76476 C9.60426 4.22871 11.6845 3.30917 13.9269 3.07167 C14.7071 3.68775 15.3196 4.25459 15.7645 4.82142 C17.2322 6.54527 18.0065 8.67111 18.0527 10.5135 C18.1278 13.3744 17.0187 15.6159 14.7071 17.5768 C13.0079 18.9943 11.2338 19.8475 9.48876 20.1543 Z M2.57182 18.4997 C5.21826 21.664 9.29824 23.2489 13.0776 22.7284 C15.1753 22.4221 17.065 21.5718 18.7637 20.1309 C21.1733 18.0977 22.5372 15.451 22.6814 12.4749 C22.7969 9.56813 21.8554 6.80577 19.9191 4.51212 C17.7984 1.96096 14.9147 0.474169 11.7308 0.237085 C8.89918 0 6.1831 0.85025 3.9874 2.69559 C1.43893 4.84479 1.42109e-14 7.93941 1.42109e-14 11.2686 C0 13.9876 0.89605 16.5158 2.57182 18.4997 Z" transform="translate(39.9303, 168.562)"/>
   <path style="fill:#ffffff; fill-rule:nonzero;stroke:none;" d="M0 20.906 L5.49557 24.2148 C5.80159 22.3231 6.55882 20.6226 7.62207 18.8524 L14.4177 7.53455 C15.9779 8.5267 17.0587 9.70669 17.8155 11.1267 L21.5427 8.31548 L7.71418 0 L4.07955 3.51704 C6.39701 3.61262 8.49433 4.13312 10.4995 5.1712 L3.70387 16.4895 C2.64103 18.2856 1.48522 19.749 0 20.906 Z" transform="translate(62.2823, 183.071)"/>
   <path style="fill:#ffffff; fill-rule:nonzero;stroke:none;" d="M8.56899 11.694 C10.9265 13.3481 11.8513 15.4051 11.2329 17.4124 C10.5512 19.6104 8.75951 20.5792 6.41951 19.8679 C6.32699 19.845 6.21149 19.8216 6.09015 19.7753 Z M8.70783 11.2223 L10.788 4.41946 C13.0993 5.26973 13.9719 6.75649 13.4057 8.59893 C12.8624 10.4184 11.1403 11.4594 8.70783 11.2223 Z M9.98499 1.08733 L6.39659 0 C6.54085 1.89167 6.23483 3.71113 5.61649 5.7184 L2.55388 15.7578 C1.93553 17.7417 1.18417 19.4456 0 20.9323 L5.64566 22.6562 C10.6671 24.1923 14.4927 22.4913 15.4868 19.2314 C16.0993 17.1749 15.3888 15.1442 13.4528 12.8046 C15.7932 11.9778 17.2318 10.7018 17.7521 9.00128 C18.2662 7.3008 17.6771 5.27015 16.0763 3.7345 C14.9668 2.67013 13.3373 2.12625 11.3088 1.49013 C10.8806 1.37075 10.4357 1.22925 9.98499 1.08733 Z" transform="translate(79.3414, 192.046)"/>
   <path style="fill:#ffffff; fill-rule:nonzero;stroke:none;" d="M9.96243 12.3079 C11.1875 9.82899 12.3429 7.30122 13.4066 4.70079 C13.7589 7.53538 14.1404 10.2076 14.539 12.7821 Z M8.35591 15.7816 L15.1978 16.4904 L15.8624 19.8221 C15.9779 20.4123 16.0763 20.9327 16.0242 21.381 C15.9779 21.6874 15.8854 22.0431 15.7411 22.3962 L22.3287 23.0815 C21.0745 21.4504 20.6758 19.6309 20.2251 17.7421 L16.2148 0.425333 L12.2507 0 L3.37488 16.1831 C2.62352 17.5773 1.49105 19.1363 0 20.7416 L6.30443 21.404 C6.20607 20.9787 6.1831 20.5767 6.23483 20.1748 C6.28109 19.7265 6.48917 19.0899 6.8936 18.3816 L8.35591 15.7816 Z" transform="translate(97.867, 197.905)"/>
   <path style="fill:#ffffff; fill-rule:nonzero;stroke:none;" d="M2.28828 22.4684 L14.042 21.2162 L15.1515 16.1138 C12.6035 17.4124 10.0779 18.2626 7.40816 18.6416 L6.0676 5.76476 C5.85374 3.71113 5.87708 1.84283 6.39701 0 L0 0.685793 C0.8727 2.36333 1.30008 4.18238 1.53108 6.26229 L2.61727 16.704 C2.83158 18.7573 2.80823 20.626 2.28828 22.4684 Z" transform="translate(124.183, 197.362)"/>
   <path style="fill:#ffffff; fill-rule:nonzero;stroke:none;" d="M6.39701 22.8211 L17.7 19.3704 L17.7926 14.1266 C15.5506 15.8997 13.2389 17.2216 10.6905 18.0948 L6.91699 5.71548 C6.30443 3.73116 5.99258 1.88875 6.13683 0 L0 1.88875 C1.17875 3.35216 1.93595 5.07938 2.54847 7.0633 L5.6169 17.1027 C6.22941 19.087 6.56466 20.9294 6.39701 22.8211 Z" transform="translate(139.144, 193.631)"/>
   <path style="fill:#ffffff; fill-rule:nonzero;stroke:none;" d="M13.0713 4.17946 L9.558 0 C7.80717 0.708333 6.32199 1.58196 5.11987 2.57412 C2.71025 4.60437 1.17875 7.20479 0.612516 10.1813 C0 13.5598 0.918566 16.9612 3.25313 19.7494 C5.47218 22.4191 8.28042 23.6713 11.6553 23.5298 C13.9899 23.4113 16.1393 22.5147 18.1216 20.8371 C19.9128 19.3475 21.2825 17.6006 22.2766 15.5904 L19.5605 11.3383 C19.6068 13.9388 18.8325 15.8041 16.9891 17.3402 C13.7301 20.1025 9.58092 19.6079 6.53543 15.969 C3.51332 12.3793 3.70387 8.33889 6.67432 5.83402 C8.30376 4.48917 10.4069 3.94529 13.0713 4.17946 Z" transform="translate(165.674, 175.487)"/>
   <path style="fill:#ffffff; fill-rule:nonzero;stroke:none;" d="M17.4636 18.3119 L24.5944 8.8623 L21.5953 4.58433 C20.8151 7.32625 19.7056 9.7589 18.1741 11.9569 L7.85932 4.18238 C6.18351 2.93017 4.86593 1.63121 3.8719 0 L0 5.15117 C1.82045 5.64872 3.44993 6.56869 5.09693 7.82087 L13.4762 14.1525 C15.1523 15.4051 16.4754 16.7036 17.4636 18.3119 Z" transform="translate(177.681, 167.452)"/>
   <path style="fill:#ffffff; fill-rule:nonzero;stroke:none;" d="M23.7451 13.369 L25.6752 14.2915 L27.9693 9.59107 C26.0797 9.44958 24.3113 8.83351 22.445 7.9369 L13.0025 3.32921 C11.1416 2.40925 9.58134 1.39413 8.31001 0 L5.47843 5.76184 C7.36226 5.92961 9.13601 6.5194 10.9969 7.43937 L20.9823 12.3071 C21.3347 14.2915 21.2192 15.8504 20.6008 17.1027 C19.4913 19.3934 17.6303 19.5119 14.5623 18.0251 L7.52991 14.5744 C5.64024 13.6779 4.10873 12.6365 2.83158 11.2194 L0 17.0071 C1.88967 17.1486 3.658 17.7646 5.52474 18.6612 L12.0602 21.8519 C14.21 22.9133 16.0476 23.7636 18.4802 23.3153 C20.6758 22.9133 22.352 21.5914 23.2935 19.6538 C24.1671 17.8348 24.3576 15.6626 23.7451 13.369 Z" transform="translate(186.343, 144.515)"/>
   <path style="fill:#ffffff; fill-rule:nonzero;stroke:none;" d="M11.072 8.71747 C12.2507 6.07402 14.0653 4.77217 16.1689 5.00967 C18.4343 5.24673 19.7514 6.82872 19.4917 9.23837 C19.4917 9.35691 19.4683 9.47545 19.4683 9.59399 Z M10.5979 8.64816 L3.51915 7.91646 C3.91777 5.48131 5.19492 4.34725 7.13085 4.538 C8.99176 4.74921 10.3611 6.21557 10.5979 8.64816 Z M0.404452 9.33354 L0 13.0647 C1.84338 12.5701 3.70387 12.5238 5.76116 12.7583 L16.2148 13.8457 C18.2662 14.0569 20.0863 14.4818 21.762 15.3583 L22.3746 9.4984 C22.9408 4.25459 20.5312 0.826875 17.1333 0.474169 C15.0127 0.260042 13.1459 1.32442 11.2333 3.68775 C9.96201 1.56192 8.4251 0.379002 6.67974 0.190753 C4.91138 0 3.02213 0.968792 1.84297 2.86046 C1.01655 4.13604 0.779717 5.85994 0.542883 7.96277 C0.497018 8.41107 0.450735 8.8623 0.404452 9.33354 Z" transform="translate(196.208, 127.479)"/>
   <path style="fill:#ffffff; fill-rule:nonzero;stroke:none;" d="M83.5706 82.5258 L83.5706 0.00459143 L62.1816 0.00459143 C62.1165 0.00208702 62.0409 0 61.9549 0 C61.347 0.00125221 60.1962 0.0868195 58.8255 0.680369 C57.4704 1.25889 55.9315 2.38796 54.7416 4.19365 L0 81.5918 C0.104657 81.9042 0.208898 82.216 0.318558 82.5258 L0.311053 82.5258 C9.20983 107.779 33.2547 125.877 61.5298 125.877 C89.7759 125.877 113.826 107.756 122.749 82.5258 L83.5706 82.5258 Z M7.08875 82.5258 L59.9617 7.76955 L59.993 7.72152 C60.5332 6.91639 60.9891 6.65255 61.3444 6.4877 C61.522 6.41046 61.6773 6.37082 61.7893 6.35038 C61.8554 6.3387 61.9013 6.33452 61.9273 6.33286 L61.9539 6.33536 L77.246 6.33536 L77.246 82.5253 L7.08875 82.5253 L7.08875 82.5258 Z" transform="translate(56.4703, 57.2167)"/>
   <path style="fill:#e2001a; fill-rule:nonzero;stroke:none;" d="M2.5714 4.72625 L2.5714 12.1915 C2.5714 13.7505 2.3575 15.1217 1.86048 16.4202 L6.32157 16.4202 C5.80159 15.1217 5.63983 13.7505 5.63983 12.1915 L5.63983 0 L0 4.72625 " transform="translate(93.7183, 151.41)"/>
   <path style="fill:#e2001a; fill-rule:nonzero;stroke:none;" d="M5.19533 2.52779 C6.61092 2.52779 7.5991 3.49658 7.5991 4.84479 C7.5991 6.33411 6.58799 7.41893 5.1257 7.41893 C3.75598 7.41893 2.83742 6.45015 2.83742 4.98629 C2.83742 3.52246 3.80227 2.52779 5.19533 2.52779 Z M0.878535 16.4198 L5.64608 16.4198 C5.59393 16.2549 5.57059 16.1134 5.57059 15.9252 C5.57059 14.8608 6.39701 13.7993 7.3681 12.1681 C9.02051 9.45209 10.575 7.32625 10.575 4.82142 C10.575 1.96096 8.54685 0 5.24118 0 C2.19572 0 0 2.12875 0 5.12821 C0 7.82128 1.84338 9.66372 4.43813 9.66372 C4.7446 9.66372 5.07983 9.61736 5.45509 9.49881 L3.40365 13.0188 C2.83742 13.9871 1.98807 15.1213 0.878535 16.4198 Z" transform="translate(105.772, 151.411)"/>
   <path style="fill:#e2001a; fill-rule:nonzero;stroke:none;" d="M6.20607 13.7509 C4.55363 13.7509 3.46703 11.79 3.46703 8.10515 C3.46703 4.63442 4.484 2.78909 6.1831 2.78909 C7.88183 2.78909 8.87001 4.53884 8.87001 7.96319 C8.87001 11.8125 7.90517 13.7509 6.20607 13.7509 Z M12.3662 8.26958 C12.3662 5.056 11.3722 2.64675 9.558 1.20629 C8.56399 0.428256 7.45442 0 6.27567 0 C4.74418 0 3.28232 0.685375 2.17278 1.91463 C0.756784 3.49658 0 5.69503 0 8.3414 C0 10.774 0.658799 12.8071 1.88967 14.4359 C2.97043 15.83 4.48442 16.5846 6.13725 16.5846 C7.7146 16.5846 9.22901 15.8529 10.3382 14.5081 C11.7074 12.8539 12.3662 10.7974 12.3662 8.26958 Z" transform="translate(118.543, 151.41)"/>
   <path style="fill:#e2001a; fill-rule:nonzero;stroke:none;" d="M7.7434 6.66089 L10.9965 0 L0.306049 0 L0.306049 3.66146 C0.947334 2.85754 2.69273 2.57412 5.71485 2.57412 C6.02133 2.57412 6.35033 2.57412 6.70308 2.57412 L3.99282 8.15062 C6.41993 8.41107 7.69709 9.44917 7.69709 11.1267 C7.69709 12.9691 6.63384 14.1262 4.95808 14.1262 C3.37488 14.1262 2.26535 13.2296 1.75123 11.4565 L0 14.8115 C1.39265 15.8989 3.06842 16.4427 5.02772 16.4427 C8.66235 16.4427 10.9043 14.3399 10.9043 11.196 C10.9039 9.09354 9.86407 7.62973 7.7434 6.66089 Z" transform="translate(132.441, 151.579)"/>
   <path style="fill:#ffffff; fill-rule:nonzero;stroke:none;" d="M11.7771 0 L0 0 C0.63545 1.62829 0.84935 3.30583 0.84935 5.22086 L0.84935 14.8119 C0.84935 16.7266 0.63545 18.4275 0 20.0329 L5.87708 20.0329 C5.23534 18.4275 5.0273 16.727 5.0273 14.8119 L5.0273 11.1964 C5.25874 11.1731 5.49557 11.1731 5.7324 11.1731 C7.10209 11.1731 8.30376 11.4565 9.36701 12.0955 L11.2104 8.38479 L5.0273 8.38479 L5.0273 3.022 C7.00951 3.04537 8.61025 3.30541 9.88699 3.9215 " transform="translate(145.495, 93.32)"/>
   <path style="fill:#ffffff; fill-rule:nonzero;stroke:none;" d="M16.0242 5.79063 L16.0242 0.78096 C14.3718 0.260042 12.8112 0 11.3956 0 C8.51767 0 5.92292 0.92246 3.7735 2.67263 C1.34095 4.67992 0 7.58378 0 10.9159 C0 14.0832 1.22503 16.6343 3.68093 18.4997 C5.37965 19.7983 7.40816 20.4377 9.79483 20.4377 C11.9155 20.4377 13.8977 20.0124 15.7874 19.1855 L16.3537 14.6241 C14.8918 16.4694 13.2389 17.3197 11.0432 17.3197 C7.1484 17.3197 4.5307 14.5315 4.5307 10.2071 C4.5307 5.90625 7.0329 3.19021 10.5692 3.19021 C12.5051 3.19021 14.3022 4.06383 16.0242 5.79063 Z" transform="translate(158.687, 93.1522)"/>
   <path style="fill:#ffffff; fill-rule:nonzero;stroke:none;" d="M0 17.1164 C0.00250177 7.66603 7.65416 0.00208702 17.0954 0 L17.0954 0 C26.5575 0.000417403 34.1796 7.66936 34.1967 17.1164 L34.1967 17.1164 C34.1792 26.5627 26.5575 34.2321 17.0954 34.2325 L17.0954 34.2325 C7.65416 34.2304 0.00250177 26.566 0 17.1164 L0 17.1164 Z" transform="translate(97.3621, 86.22)"/>
   <path style="fill:#e2001a; fill-rule:nonzero;stroke:none;" d="M5.83785 5.97473 L9.89033 2.02065 L8.07985 0 C5.64399 0.052593 3.35278 0.693725 1.34512 1.79233 L0 4.0534 L5.83785 5.97473 Z" transform="translate(106.054, 88.5783)"/>
   <path style="fill:#e2001a; fill-rule:nonzero;stroke:none;" d="M5.64941 5.33732 L3.45077 0 L0.933159 0.75007 C0.331067 2.36041 0 4.10265 0 5.92252 C0 6.53192 0.0412792 7.13173 0.112997 7.72235 L1.9397 9.93376 L5.64941 5.33732 Z" transform="translate(99.7104, 97.4135)"/>
   <path style="fill:#e2001a; fill-rule:nonzero;stroke:none;" d="M5.13571 0 L0 1.33193 L0.333152 3.2691 C2.20864 4.72917 4.44356 5.74515 6.88359 6.16086 L9.49335 4.66573 L5.13571 0 Z" transform="translate(105.085, 111.727)"/>
   <path style="fill:#e2001a; fill-rule:nonzero;stroke:none;" d="M6.16434 2.80328 L5.24993 0 L0.450318 2.30365 L0 8.51793 L2.36542 8.77421 C4.07663 7.13924 5.39341 5.09733 6.16434 2.80328 Z" transform="translate(122.276, 105.245)"/>
   <path style="fill:#e2001a; fill-rule:nonzero;stroke:none;" d="M0.701326 5.31729 L6.46916 7.68647 L7.39607 5.75809 C6.33699 3.50117 4.725 1.55775 2.73193 0.101012 L0 0 L0.701326 5.31729 Z" transform="translate(120.419, 91.3031)"/>
   <path style="fill:#e2001a; fill-rule:nonzero;stroke:none;" d="M0 6.62877 L4.79756 12.3372 L5.10277 12.2215 L11.1808 9.91875 L11.6995 2.33996 L4.26885 0 L0 6.62877 Z" transform="translate(108.2, 97.0729)"/>
  </g>
 </g>
</svg>
