<?xml version="1.0" encoding="UTF-8"?>
<svg version="1.0" viewBox="0 0 300 291.62" xml:space="preserve" xmlns="http://www.w3.org/2000/svg" xmlns:cc="http://creativecommons.org/ns#" xmlns:dc="http://purl.org/dc/elements/1.1/" xmlns:rdf="http://www.w3.org/1999/02/22-rdf-syntax-ns#"><metadata><rdf:RDF><cc:Work rdf:about=""><dc:format>image/svg+xml</dc:format><dc:type rdf:resource="http://purl.org/dc/dcmitype/StillImage"/><dc:title/></cc:Work></rdf:RDF></metadata><defs><clipPath id="c"><path d="m484.72 468.15h68.032v-70h-68.032v70z"/></clipPath><clipPath id="b"><path d="m0 841h595v-841h-595v841z"/></clipPath><clipPath id="a"><path d="m0.36 841.68h595.44v-841.68h-595.44v841.68z"/></clipPath></defs><g transform="matrix(.50398 0 0 -.50398 -6.1497 418.13)"><g transform="matrix(9.9621 0 0 9.9621 -4852.5 -3778.3)"><g clip-path="url(#c)"><g clip-path="url(#b)"><g clip-path="url(#a)"><path d="m518.17 404.86 8.43 4.324c9.083 0.194 14.809 5.296 14.809 5.296 6.455 5.141 3.858 14.922 3.858 14.922l2.412 1.934c-4.46 2.019-1.391 5.485-1.391 5.485-6.892 1.273-4.888 8.216-4.888 8.216 1.554 6.421 5.392 11.068 5.392 11.068l-2.134 2.813c-9.072-2.27-13.791 3.229-13.791 3.229h-4.522s-2.331-1.99-8.175-2.017c-5.178-0.024-8.327 2.017-8.327 2.017h-4.467s-4.693-5.454-13.777-3.229l-2.119-2.813s3.815-4.365 5.45-11.209c0 0 2.044-6.493-4.845-8.075 0 0 3.331-2.518-1.362-5.485l2.422-1.934s-2.589-10.532 3.936-15.062c0 0 5.753-5.191 14.838-5.339l8.251-4.141"/><path d="m518.05 459.56c-4.996-0.079-8.508 1.964-8.508 1.964h-4.084s-4.819-5.336-13.555-3.274l-1.589-2.121s4.072-5.192 5.43-11.581c0 0 1.413-6.219-4.683-8.073 0 0 1.825-2.378-0.619-4.554h27.608v27.639" fill="#f3f3f3" fill-rule="evenodd"/><path d="m545.71 431.92h-27.664v-26.191l8.238 4.051c8.552 0.188 14.185 4.898 14.185 4.898 6.686 5.04 3.996 14.953 3.996 14.953l2.205 1.637c-0.547 0.237-0.873 0.548-0.96 0.652" fill="#f3f3f3" fill-rule="evenodd"/><path d="m545.71 431.92c-2.078 1.958-0.405 4.554-0.405 4.554-6.608 1.617-4.602 8.684-4.602 8.684 1.421 6.338 5.14 10.911 5.14 10.911l-1.646 2.136c-8.891-1.929-13.774 3.318-13.774 3.318h-4.015s-2.78-1.971-8.303-1.965c-0.02 0-0.039 1e-3 -0.059 1e-3v-27.639h27.664" fill="#808080" fill-rule="evenodd"/><path d="m490.44 431.92c-0.225-0.2-0.485-0.398-0.787-0.593l2.162-1.696s-2.566-10.559 3.706-14.733c0 0 6.022-5.156 14.575-5.3l7.952-3.869v26.191h-27.608" fill="#808080" fill-rule="evenodd"/><path d="m516.5 445.51c-0.75 0.223-0.883 0.291-2.342 1.229-1.459 0.939-1.486 1.531-2.219 1.599-0.734 0.068-1.732-0.337-2.472-0.311-0.741 0.026-1.759 0.124-1.759 0.124s-0.53 0.553-1.105 0.831c-0.574 0.278-1.237 0.699-1.237 0.699s-0.479 0.309-0.662 0.581-0.533 0.531-0.533 0.531 0.134-0.067 0.372-2e-3 0.279 0.188 0.279 0.188l1.855-1.554s-0.851 1.187-0.577 1.22c0.147 0.017 0.202-0.14 0.334-0.035-0.382-0.302 0.907-0.399 0.91-0.43-0.041 0.507 0.4 0.918-0.426 2.437-0.825 1.518-1.21 2.35-1.21 2.35l4.461 3.339-5.601-2.349s-0.607 1.088-0.939 1.083-0.615-1.344-0.615-1.344-2.369-1.571-2.488-3.744c-0.12-2.174 0.557-3.344 1.228-5.651s-1.501-5.462-3.752-6.443c-2.252-0.981-0.898-0.424-1.673-0.608-0.775-0.185-1.489-0.75-1.835-1.969s-0.269-1.755-0.269-1.755l0.329 0.114s-0.058-0.858 0.055-1.552 0.738-1.416 0.738-1.416l0.048 0.165s0.124-0.131 0.26-0.308 0.451-0.277 0.451-0.277 1e-3 0.13 0.011 0.193 0.129-0.219 0.671-0.448c0.541-0.229 0.853-0.35 0.853-0.35l0.963-1.436s1.183-1.605 1.001-2.333c-0.182-0.727-0.254-0.909-0.254-0.909l1.951-0.594s0.039 0.362-0.356 0.977-0.452 0.647-0.452 0.647-0.349 1.02-0.775 1.575c-0.425 0.555-0.706 1.736-0.706 1.736s0.783 0.357 1.096 0.127c0.297-0.219 0.944 0.328 0.944 0.328s0.841-0.045 1.022-0.577c0.181-0.533 0.835-0.456 0.392-6e-3 -0.443 0.449-1.343 1.765-1.343 1.765l0.015 0.214-0.704 0.128 1.201 1.259s1.547-0.911 1.772-1.93c0.225-1.018-0.506-2.189-0.627-2.797s1.029-1.034 1.029-1.034 0.854-0.721 1.068-1.302c0.214-0.583 0.032-0.81 0.032-0.81l1.848-0.336s-0.06 0.51-0.547 0.947c-0.487 0.436-1.055 1.256-1.055 1.256s-1.13 1.053-1.037 1.992c0.093 0.938 1.801 2.887 1.465 3.361s-1.417 2.322-1.417 2.322-0.933 1.495-0.395 2.374c0.539 0.88 2.822 0.421 3.978 2.666s1.172 3.219 1.433 3.672c0.261 0.452 1.748 1.441 2.079 1.316 0.331-0.126 0.909-1.013 0.82-1.431-0.09-0.418-0.538-1.379-1.217-1.603-0.678-0.225-1.243-0.513-1.243-0.513l0.584-1.605s0.469 0.088 0.744 0.495c0.273 0.406-0.158 0.55 0.769 1.532 0.928 0.983 1.602 1.056 1.634 1.376s-0.258 0.568-0.611 1.437c-0.353 0.868-0.186 0.881-0.186 0.881s0.602-0.24 1.42-0.672c0.819-0.431 1.471-0.615 1.632-1.274 0.16-0.659-0.162-0.731-0.162-0.731l1.734-0.272s0.069 1.422-0.68 1.645zm-19.299-10.004c-0.127 0.136-0.311 0.122-0.311 0.122l0.058 0.098s-0.349 0.654-0.388 0.788c-0.033 0.116-0.083 0.623-0.083 0.623l0.124-1e-3s-0.012 1.014 0.04 1.123c0.126 0.259 0.833 0.152 0.833 0.152s-0.184-0.987 0.197-1.686c0.381-0.7 0.935-2.234 0.935-2.234s-1.035 0.623-1.405 1.015"/><path d="m503.42 438.39s-0.098-1.351 0.616-2.415 0.927-1.406 1.056-2.125c0.13-0.719-1.028-2.594-1.102-3.297-0.075-0.704 0.661-1.511 1.007-1.921 0.346-0.411 0.761-1.03 0.761-1.03s0.438-0.231 0.686-0.733c0.249-0.501 0.145-0.373 0.145-0.373l-1.021 0.207s-0.511 1.288-1.095 1.763-0.984 0.809-1.111 1.288c-0.128 0.48 0.47 1.849 0.543 2.791 0.072 0.943-2.155 2.239-2.155 2.239s0.4 0.296 0.63 1.188c0.23 0.893 0.17 0.904 0.317 1.42s0.723 0.998 0.723 0.998z" fill="#ccc" stroke="#000" stroke-width=".06"/><path d="m505.55 454.82s0.851-1.315 1.6-2.538c0.888-1.452 0.808-1.33 0.851-1.946-2e-3 0.037-0.576-0.832-0.576-0.832s-0.138 0.341-0.2 0.385c-0.246 0.178-0.57 0.547-0.626 0.5-0.085-0.073-0.038 0.012-0.15-0.027-0.285-0.098 0.438-0.42 0.476-0.683 0.033-0.237 0.3-0.166 0.275-0.197-0.113-0.145-0.451-0.276-0.451-0.276l-0.35 0.473-1.177 1.262s-0.447-0.048-0.769 0.021c-0.639 0.138-0.514-0.232-0.514-0.232s0.2 0.333 0.7-0.519c0.501-0.851 0.475-0.759 0.475-0.759s0.764-0.139 1.456-0.46c0.691-0.322 1.157-0.884 1.157-0.884s1.142-0.099 2.054-0.092c0.912 8e-3 1.574 0.257 2.065 0.103 0.492-0.155 2.33-1.554 3.447-2.061 1.116-0.507 1.085-0.567 1.351-1.093 0.264-0.526 0.065-0.859 0.065-0.859l-1.156 0.145s0.157 1.054-0.304 1.294c-0.838 0.434-1.473 0.724-1.473 0.724l-1.33 0.659s-3e-3 0.67-0.834 0.777c-0.619 0.134-1.113 0.019-1.867-0.035-0.754-0.053-1.938 0.18-1.938 0.18l1.887-0.371s1.701 0.12 2.197 0.039c0.293-0.047 0.714-1.499 0.796-1.703 0.234-0.586 0.504-0.83 0.462-1.214-0.043-0.383-0.886-0.729-1.23-1.058-0.344-0.328-0.788-1.138-0.788-1.138s-0.163-0.362-0.409-0.599c-0.379-0.367-0.389-0.103-0.389-0.103l-0.403 1.072s0.595 0.196 1.154 0.594c0.727 0.52 0.866 0.864 1.034 1.507s-0.898 1.706-0.898 1.706c-0.227 0.063-1.632-0.801-2.031-1.467-0.2-0.333-0.496-1.409-0.978-2.385-0.482-0.977-0.472-1.446-1.401-2.19-0.93-0.743-3.225-1.238-3.786-1.505-0.562-0.268-0.84-2.455-1.076-3.259s-1.094-1.865-1.768-2.438c-0.673-0.572-1.192-1.586-1.192-1.586s0.562 0.652 0.757 0.891c0.195 0.24 0.717 0.644 0.717 0.644l0.659-0.141-0.055-0.207 0.442-0.581 1.015-1.249s-0.107-0.653-0.411 0.14c-0.215 0.563-1.078 0.87-1.078 0.87s-0.516-0.638-0.891-0.512c-0.98 0.33-1.094-0.235-1.094-0.235s0.073-0.687 0.378-1.351c0.304-0.663 0.438-0.601 0.603-0.978 0.166-0.378 0.437-0.992 0.437-0.992s0.323-0.428 0.571-0.93c0.248-0.501 0.191-0.599 0.191-0.599l-1.77 0.561s0.224 0.48 0.271 1.015c0.047 0.534-0.408 1.291-0.894 2.357-0.758 1.05-0.777 1.184-0.764 1.768 0.014 0.584 1.028 1.464 1.083 2.171 0.054 0.707-0.339 1.083-0.92 2.079-0.58 0.996-0.547 2.076-0.547 2.076s-0.391 0.137-0.884 0.031c-0.404-0.087-0.266-1.234-0.266-1.234s-0.196 0.075-0.195-0.051c0.01-0.697 0.151-1.092 0.151-1.092l0.326-0.407-0.191-0.03 1.942-1.396s0.184-0.142-0.016-0.475-0.423-0.684-0.751-1.167c-0.328-0.484-0.196-0.812-0.196-0.812l-1.487 0.77-0.088-0.158-0.643 0.544-0.058-0.155s-0.179 0.374-0.563 1.232c-0.211 0.473-0.157 1.679-0.157 1.679s-0.15-0.14-0.137 0.047c0.027 0.412 0.137 1.214 0.514 1.862 0.548 0.943 0.973 1.257 1.698 1.516 0.726 0.259 2.233 0.745 3.493 1.733 2.163 1.822 2.683 2.387 2.369 4.826-0.315 2.44-1.68 3.963-1.614 6.398 0.065 2.436 2.209 3.691 2.209 3.691s0.319 0.977 0.49 1.011 1.295-1.561 1.295-1.561l4.799 2.643-4.178-3.174z" fill="#ccc" stroke="#000" stroke-width=".06"/><path d="m504.59 454.07 0.13 0.12s0.349 0.042 0.577-0.251c0.229-0.293 0.254-0.917 0.254-0.917s-0.202 0.399-0.388 0.711-0.573 0.337-0.573 0.337z" stroke="#000" stroke-width=".107"/><path d="m537.54 434.49s0.553 1.535 0.934 2.234c0.382 0.699 0.198 1.687 0.198 1.687s0.707 0.107 0.832-0.153c0.053-0.109 0.041-1.122 0.041-1.122l0.124 1e-3s-0.051-0.507-0.084-0.624c-0.038-0.133-0.387-0.787-0.387-0.787l0.057-0.098s-0.183 0.013-0.31-0.122c-0.37-0.393-1.405-1.016-1.405-1.016zm-18.575 9.375 1.735 0.272s-0.323 0.071-0.162 0.731c0.16 0.659 0.813 0.842 1.631 1.274 0.819 0.431 1.421 0.671 1.421 0.671s0.167-0.013-0.186-0.881c-0.354-0.868-0.644-1.117-0.612-1.436 0.033-0.32 0.707-0.393 1.634-1.376 0.928-0.983 0.497-1.126 0.77-1.533 0.274-0.406 0.744-0.495 0.744-0.495l0.584 1.606s-0.565 0.288-1.244 0.512c-0.678 0.224-1.126 1.185-1.216 1.604-0.089 0.418 0.488 1.305 0.819 1.43 0.331 0.126 1.819-0.864 2.079-1.316 0.261-0.452 0.277-1.427 1.434-3.672 1.156-2.244 3.439-1.785 3.977-2.665s-0.394-2.375-0.394-2.375-1.082-1.848-1.417-2.321c-0.336-0.474 1.372-2.423 1.465-3.362 0.092-0.939-1.037-1.992-1.037-1.992s-0.569-0.82-1.055-1.256c-0.487-0.436-0.548-0.947-0.548-0.947l1.848 0.336s-0.182 0.228 0.032 0.81c0.215 0.582 1.068 1.302 1.068 1.302s1.151 0.426 1.03 1.035c-0.121 0.608-0.852 1.778-0.627 2.797 0.225 1.018 1.771 1.929 1.771 1.929l1.201-1.258-0.703-0.128 0.015-0.215s-0.901-1.315-1.344-1.765c-0.442-0.45 0.211-0.527 0.392 6e-3 0.182 0.533 1.023 0.577 1.023 0.577s0.647-0.546 0.943-0.328c0.314 0.231 1.097-0.126 1.097-0.126s-0.281-1.181-0.707-1.737c-0.425-0.555-0.774-1.574-0.774-1.574s-0.057-0.032-0.452-0.647c-0.396-0.615-0.356-0.978-0.356-0.978l1.95 0.594s-0.072 0.183-0.254 0.91 1.002 2.333 1.002 2.333l0.963 1.435s0.311 0.122 0.853 0.351c0.541 0.228 0.66 0.511 0.671 0.447 0.01-0.063 0.011-0.193 0.011-0.193s0.314 0.101 0.451 0.278c0.136 0.176 0.259 0.307 0.259 0.307l0.048-0.165s0.626 0.722 0.739 1.416c0.113 0.695 0.054 1.553 0.054 1.553l0.33-0.114s0.077 0.535-0.269 1.754-1.06 1.784-1.835 1.969c-0.776 0.185 0.578-0.372-1.673 0.608-2.252 0.981-4.424 4.137-3.753 6.444s1.348 3.477 1.229 5.65c-0.12 2.173-2.488 3.744-2.488 3.744s-0.284 1.34-0.615 1.344c-0.332 5e-3 -0.939-1.083-0.939-1.083l-5.601 2.349 4.461-3.338s-0.385-0.832-1.211-2.351c-0.825-1.519-0.385-1.929-0.425-2.436 2e-3 0.03 1.291 0.128 0.909 0.429 0.133-0.104 0.188 0.053 0.334 0.035 0.275-0.033-0.576-1.219-0.576-1.219l1.854 1.553s0.041-0.122 0.28-0.188c0.238-0.065 0.372 3e-3 0.372 3e-3s-0.351-0.26-0.533-0.532c-0.183-0.272-0.662-0.581-0.662-0.581s-0.663-0.42-1.238-0.698c-0.574-0.279-1.104-0.831-1.104-0.831s-1.018-0.099-1.759-0.124c-0.74-0.027-1.738 0.378-2.472 0.31s-0.76-0.659-2.219-1.598-1.593-1.007-2.342-1.23c-0.75-0.223-0.681-1.644-0.681-1.644"/><path d="m532.72 438.38s0.099-1.351-0.615-2.415-0.927-1.407-1.056-2.126c-0.13-0.718 1.027-2.593 1.102-3.297 0.075-0.703-0.661-1.51-1.008-1.921-0.345-0.411-0.761-1.029-0.761-1.029s-0.437-0.232-0.685-0.733c-0.249-0.502-0.146-0.374-0.146-0.374l1.021 0.207s0.512 1.288 1.095 1.763c0.584 0.476 0.984 0.81 1.112 1.289s-0.47 1.848-0.543 2.791c-0.073 0.942 2.155 2.238 2.155 2.238s-0.4 0.296-0.631 1.189c-0.229 0.892-0.169 0.903-0.316 1.42-0.148 0.516-0.724 0.998-0.724 0.998z" fill="#ccc" stroke="#000" stroke-width=".06"/><path d="m530.59 454.82s-0.851-1.314-1.6-2.538c-0.888-1.452-0.852-1.945-0.852-1.945l0.576-0.833s0.139 0.341 0.201 0.386c0.245 0.178 0.57 0.546 0.626 0.499 0.085-0.073 0.038 0.013 0.15-0.026 0.285-0.098-0.438-0.421-0.476-0.684-0.034-0.237-0.3-0.165-0.275-0.197 0.112-0.144 0.45-0.276 0.45-0.276l0.351 0.473 1.177 1.262s0.447-0.048 0.769 0.022c0.639 0.138 0.514-0.233 0.514-0.233s-0.175 0.316-0.701-0.518c-0.444-0.705-0.475-0.76-0.475-0.76s-0.763-0.139-1.455-0.46-1.157-0.884-1.157-0.884-1.143-0.099-2.054-0.091c-0.912 8e-3 -1.574 0.257-2.066 0.102-0.491-0.154-2.33-1.553-3.446-2.06s-1.086-0.567-1.351-1.093-0.065-0.859-0.065-0.859l1.155 0.145s-0.157 1.054 0.304 1.293c0.839 0.435 1.474 0.724 1.474 0.724l1.329 0.659s3e-3 0.67 0.834 0.777c0.619 0.135 1.114 0.02 1.868-0.034 0.753-0.053 1.938 0.179 1.938 0.179l-1.888-0.371s-1.7 0.121-2.196 0.04c-0.294-0.048-0.715-1.499-0.796-1.704-0.235-0.585-0.505-0.83-0.462-1.213 0.042-0.384 0.886-0.73 1.23-1.058 0.343-0.329 0.787-1.139 0.787-1.139s0.163-0.361 0.409-0.599c0.38-0.366 0.39-0.103 0.39-0.103l0.402 1.073s-0.595 0.195-1.153 0.594c-0.727 0.519-0.867 0.863-1.035 1.506s0.898 1.706 0.898 1.706c0.228 0.063 1.632-0.8 2.032-1.466 0.199-0.333 0.496-1.409 0.978-2.386s0.471-1.446 1.401-2.189c0.929-0.744 3.225-1.239 3.786-1.506s0.839-2.454 1.076-3.258c0.236-0.805 1.093-1.865 1.767-2.438s1.193-1.586 1.193-1.586-0.562 0.651-0.757 0.891c-0.195 0.239-0.717 0.644-0.717 0.644l-0.659-0.142 0.054-0.207-0.442-0.58-1.015-1.249s0.108-0.654 0.412 0.14c0.215 0.562 1.077 0.869 1.077 0.869s0.516-0.638 0.891-0.511c0.98 0.33 1.094-0.236 1.094-0.236s-0.073-0.687-0.377-1.35c-0.304-0.664-0.439-0.601-0.604-0.979s-0.437-0.992-0.437-0.992-0.322-0.428-0.57-0.929c-0.249-0.502-0.191-0.6-0.191-0.6l1.77 0.561s-0.225 0.481-0.271 1.015c-0.047 0.535 0.407 1.291 0.894 2.357 0.758 1.05 0.777 1.184 0.763 1.768-0.013 0.584-1.028 1.464-1.082 2.171-0.055 0.707 0.339 1.083 0.919 2.079 0.581 0.997 0.547 2.077 0.547 2.077s0.392 0.136 0.885 0.03c0.404-0.086 0.265-1.233 0.265-1.233s0.197 0.074 0.195-0.052c-9e-3 -0.696-0.151-1.092-0.151-1.092l-0.326-0.406 0.192-0.031-1.943-1.396s-0.183-0.142 0.017-0.475c0.199-0.333 0.423-0.683 0.751-1.167 0.328-0.483 0.195-0.811 0.195-0.811l1.487 0.77 0.089-0.158 0.643 0.544 0.058-0.156s0.179 0.374 0.562 1.232c0.212 0.473 0.158 1.68 0.158 1.68s0.149-0.141 0.137 0.047c-0.027 0.411-0.137 1.213-0.514 1.861-0.549 0.943-0.973 1.257-1.698 1.516-0.726 0.259-2.234 0.746-3.493 1.733-2.163 1.823-2.683 2.387-2.369 4.827 0.314 2.439 1.68 3.962 1.614 6.398s-2.209 3.691-2.209 3.691-0.32 0.976-0.491 1.01-1.294-1.56-1.294-1.56l-4.799 2.642 4.178-3.174z" fill="#ccc" stroke="#000" stroke-width=".06"/><path d="m531.55 454.07-0.129 0.121s-0.35 0.042-0.578-0.252c-0.228-0.293-0.253-0.917-0.253-0.917s0.201 0.399 0.387 0.712c0.187 0.312 0.573 0.336 0.573 0.336z" stroke="#000" stroke-width=".107"/><path d="m528.73 426.28c-0.551-0.547-1.058-0.956-1.519-1.227-0.804-0.479-1.682-0.717-2.635-0.717-0.527 0-1.015 0.086-1.469 0.25-0.682 0.247-1.283 0.675-1.799 1.293-0.049 0.058-0.092 0.122-0.138 0.183-0.765 1.007-1.153 2.321-1.153 3.948 0 0.027 2e-3 0.052 2e-3 0.079l-0.031 1.754c0.058-0.037 0.111-0.074 0.168-0.111 0.18 1.078 0.54 1.98 1.089 2.696 0.293 0.383 0.617 0.695 0.97 0.941-0.127 0.359-0.269 0.686-0.427 0.983-0.838-0.334-1.577-0.852-2.211-1.565-1.133-1.278-1.7-2.858-1.7-4.74 0-0.017 1e-3 -0.035 1e-3 -0.053l-0.27 0.177 0.117-0.538c0.065-0.158 0.078-0.53 0.19-0.852 0.112-0.323 0.189-0.654 0.189-0.711 0-0.031 9e-3 -0.046 0.024-0.05 0.256-0.969 0.708-1.826 1.359-2.57 0.381-0.436 0.811-0.793 1.281-1.086 0.503-0.314 1.057-0.545 1.661-0.695 0.55-0.136 1.136-0.211 1.769-0.211 1.205 0 2.323 0.346 3.354 1.038 0.606 0.409 1.112 0.884 1.52 1.426l-0.342 0.358z" fill="#007ac1" fill-rule="evenodd" stroke="#000" stroke-width=".12"/><path d="m524.41 436.03c1.277 0 2.293-0.497 3.048-1.491 0.396-0.529 0.717-1.225 0.962-2.087h0.423l-0.171 4.343h-0.386c-0.06-0.214-0.168-0.371-0.324-0.472s-0.321-0.151-0.495-0.151c-0.084 0-0.476 0.104-1.178 0.312-0.701 0.207-1.384 0.311-2.05 0.311-0.475 0-0.927-0.042-1.357-0.124l0.089-0.905c0.442 0.174 0.921 0.264 1.439 0.264z" fill="#007ac1" fill-rule="evenodd" stroke="#000" stroke-width=".12"/><path d="m516.55 438.39-1.705 4.075h-0.432l-4.607-11.386c-0.69-1.707-1.178-2.753-1.462-3.138s-0.71-0.612-1.279-0.68v-0.419h4.381v0.419c-0.518 0.046-0.87 0.114-1.057 0.204-0.302 0.151-0.453 0.423-0.453 0.816 0 0.196 0.055 0.462 0.167 0.799 0.111 0.336 0.455 1.263 1.03 2.781h3.979c-0.299 0.243-0.562 0.486-0.776 0.731-0.059 0.069-0.112 0.139-0.166 0.21h-2.648l2.525 6.389 1.399-3.495s0.382-0.692 0.604-0.964c0.384-0.478 0.979-0.978 1.786-1.498l1.195-0.773-2.481 5.929z" fill="#007ac1" fill-rule="evenodd" stroke="#000" stroke-width=".12"/><path d="m522.84 429.44c-0.528 0.698-1.427 1.463-2.686 2.293-0.057 0.037-1.131 0.735-1.131 0.735l-1.195 0.773c-0.807 0.52-1.361 1.056-1.786 1.498-0.245 0.256-0.604 0.964-0.604 0.964l-1.068 2.666c-0.721-0.835-1.086-1.859-1.086-3.076 0-0.899 0.295-1.727 0.878-2.484 0.054-0.071 0.107-0.141 0.166-0.21 0.214-0.245 0.477-0.488 0.776-0.731 0.223-0.181 0.464-0.361 0.734-0.54l1.768-1.156 0.33-0.216c1.207-0.789 1.998-1.381 2.374-1.775 0.37-0.399 0.619-0.843 0.751-1.332 0.068-0.25 0.102-0.513 0.107-0.786 0.046-0.061 0.089-0.125 0.138-0.183 0.516-0.618 1.117-1.046 1.799-1.293 0.365 0.661 0.55 1.405 0.55 2.234 0 1.007-0.272 1.88-0.815 2.619z" fill="#ccc" fill-rule="evenodd" stroke="#000" stroke-width=".12"/><path d="m520.32 423.81c-0.572-0.521-1.249-0.781-2.032-0.781-1.447 0-2.658 0.6-3.633 1.8-0.559 0.688-1.047 1.611-1.462 2.77h-0.564l0.731-5.489h0.54c0.032 0.21 0.098 0.407 0.198 0.592 0.099 0.184 0.293 0.277 0.581 0.277 0.12 0 0.594-0.151 1.421-0.453s1.62-0.453 2.38-0.453c1.51 0 2.751 0.453 3.722 1.359 0.082 0.076 0.155 0.156 0.229 0.235-0.604 0.15-1.158 0.381-1.661 0.695-0.123-0.203-0.271-0.389-0.45-0.552z" fill="#ccc" fill-rule="evenodd" stroke="#000" stroke-width=".12"/><path d="m517.98 438.79c0.863 0 1.736-0.328 2.62-0.982 0.466-0.346 0.863-0.835 1.194-1.458 0.158-0.297 0.3-0.624 0.427-0.983 0.112-0.317 0.214-0.655 0.303-1.021h0.587l-0.539 5.488h-0.504c-0.064-0.276-0.154-0.49-0.27-0.642-0.116-0.15-0.325-0.226-0.629-0.226-0.112 0-0.561 0.145-1.349 0.434-0.787 0.29-1.46 0.434-2.02 0.434-0.637 0-1.213-0.098-1.732-0.288l0.482-1.152c0.424 0.26 0.899 0.396 1.43 0.396z" fill="#ccc" fill-rule="evenodd" stroke="#000" stroke-width=".12"/><path d="m510.25 451.9c0.04-0.427 0.054-0.783 0.111-1.16-0.076-0.031-0.149-0.054-0.224-0.089-0.073-0.036-0.143-0.081-0.215-0.121l-0.133 3.998c0.064 0.019 0.121 0.041 0.182 0.07 0.06 0.028 0.113 0.06 0.169 0.097l2.751-2.76c-0.138-0.054-0.274-0.102-0.408-0.166s-0.258-0.14-0.387-0.214c-0.262 0.309-0.502 0.593-0.768 0.859l-1.078-0.514zm0.843 0.759-0.901 0.936 0.055-1.339 0.846 0.403"/><path d="m515.69 456.26c0.072 4e-3 0.145 3e-3 0.215 0.018 0.07 0.014 0.141 0.046 0.209 0.071 0.422-1.375 0.753-2.491 1.12-3.497-0.141-0.019-0.279-0.031-0.418-0.061-0.14-0.029-0.262-0.07-0.399-0.11-0.198 0.824-0.449 1.603-0.677 2.393-0.227-0.88-0.449-1.758-0.648-2.643-0.067-3e-3 -0.128-0.011-0.19-0.04-0.456 0.655-1.003 1.384-1.538 2.126 0.06-0.945 0.119-1.689 0.243-2.425-0.082-6e-3 -0.16-6e-3 -0.24-0.022-0.079-0.017-0.146-0.047-0.224-0.075-0.02 1.09-0.091 2.337-0.173 3.696 0.072 4e-3 0.139 2e-3 0.209 0.016 0.07 0.015 0.137 0.045 0.205 0.071 0.514-0.747 1.063-1.48 1.612-2.22 0.218 0.819 0.486 1.729 0.694 2.702"/><path d="m517.64 456.41c0.127-8e-3 0.254-0.022 0.381-0.019 0.127 2e-3 0.254 0.021 0.38 0.033l0.069-3.658c-0.127 8e-3 -0.255 0.021-0.382 0.019-0.127-3e-3 -0.253-0.022-0.38-0.035l-0.068 3.66"/><path d="m521.26 456.2c-0.018-0.074-0.04-0.152-0.047-0.226s0-0.155 3e-3 -0.231c-0.304 0.076-0.644 0.154-1.161 0.198l-0.109-1.141 0.526-0.056c0.227-0.024 0.437-0.025 0.626-0.018-0.017-0.073-0.04-0.151-0.047-0.226-7e-3 -0.074 1e-3 -0.155 4e-3 -0.23-0.185 0.046-0.39 0.089-0.618 0.113l-0.526 0.055-0.129-1.348c0.517-0.049 0.863-0.059 1.175-0.049-0.017-0.073-0.039-0.151-0.046-0.225-8e-3 -0.075 0-0.156 3e-3 -0.232l-1.927 0.204 0.346 3.615 1.927-0.203"/><path d="m522.37 456.02 0.482-0.15c0.468-1.008 0.975-2.011 1.43-3.048l0.675 2.394c0.061-0.03 0.127-0.056 0.191-0.076 0.063-0.02 0.133-0.036 0.199-0.045l-0.99-3.51-0.413 0.134c-0.378 0.836-0.727 1.628-1.106 2.408l-0.367 0.749-0.698-2.476c-0.062 0.024-0.127 0.056-0.191 0.076-0.063 0.019-0.134 0.03-0.199 0.045l0.987 3.499"/><path d="m527.62 453.16c0.033 0.301-0.06 0.555-0.317 0.694-0.357 0.193-0.592 0.074-0.725-0.196-0.314-0.64 1.117-1.264 0.585-2.35-0.298-0.607-1.009-0.774-1.709-0.396-0.248 0.135-0.484 0.34-0.627 0.597 0.152 0.17 0.3 0.342 0.427 0.532l0.085-0.047c-0.092-0.363 0.056-0.69 0.368-0.858 0.28-0.152 0.609-0.12 0.77 0.207 0.372 0.759-1.108 1.211-0.548 2.354 0.268 0.545 0.845 0.803 1.532 0.432 0.325-0.176 0.551-0.461 0.602-0.614-0.129-0.122-0.251-0.254-0.375-0.391l-0.068 0.036"/><path d="m505.47 420.5c-0.09 0.106-0.176 0.215-0.273 0.312-0.097 0.098-0.206 0.183-0.311 0.272l2.545 2.805 1.483-1.483c-0.059-0.05-0.126-0.099-0.178-0.157-0.052-0.057-0.096-0.13-0.14-0.196-0.212 0.266-0.439 0.548-0.848 0.957l-0.798-0.879 0.413-0.413c0.152-0.151 0.323-0.291 0.505-0.434-0.06-0.049-0.127-0.099-0.179-0.156s-0.096-0.13-0.14-0.196c-0.149 0.18-0.286 0.357-0.442 0.512l-0.409 0.409-1.228-1.353"/><path d="m508.82 417.74c-1.027 0.629-1.367 1.687-0.752 2.795 0.538 0.971 1.648 1.345 2.806 0.637 1.324-0.811 1.171-2.031 0.755-2.79-0.523-0.955-1.67-1.338-2.809-0.642zm-0.06 2.182c-0.352-0.635-0.451-1.476 0.246-1.903 0.716-0.438 1.454 0.118 1.903 0.928 0.35 0.629 0.471 1.522-0.226 1.949-0.646 0.395-1.316 0.119-1.923-0.974"/><path d="m513.67 415.68c-1.157 0.29-1.774 1.2-1.49 2.447 0.249 1.094 1.209 1.788 2.512 1.461 1.492-0.374 1.68-1.589 1.491-2.442-0.239-1.073-1.231-1.788-2.513-1.466zm-0.658 2.07c-0.162-0.714-0.026-1.55 0.759-1.747 0.806-0.203 1.36 0.553 1.567 1.465 0.162 0.709 0.033 1.601-0.752 1.798-0.727 0.183-1.293-0.285-1.574-1.516"/><path d="m518.46 415.21c-0.135 0.011-0.269 0.027-0.404 0.026-0.134 0-0.269-0.018-0.403-0.03l-0.018 3.474c-0.382-2e-3 -0.721-0.044-1.001-0.085 0.011 0.079 0.026 0.159 0.026 0.243 0 0.079-0.017 0.158-0.028 0.238l2.771 0.015c-0.011-0.079-0.026-0.158-0.026-0.237 0-0.085 0.017-0.164 0.028-0.243-0.317 0.038-0.635 0.075-0.963 0.074l0.018-3.475"/><path d="m519.87 419.15 1.358 0.303c0.531 0.119 1.085 0.046 1.216-0.601 0.105-0.519-0.25-0.91-0.684-1.076l0.01-0.05c0.398 0.048 0.993-0.015 1.132-0.7 0.154-0.763-0.433-1.229-1.054-1.368l-1.216-0.271-0.762 3.763zm1.119-1.448c0.226 0.05 0.43 0.073 0.577 0.273 0.134 0.18 0.153 0.41 0.11 0.625-0.081 0.398-0.34 0.565-0.688 0.488-0.084-0.019-0.162-0.042-0.264-0.082l0.265-1.304zm0.368-1.818 0.263 0.058c0.289 0.065 0.567 0.404 0.474 0.863-0.123 0.608-0.487 0.746-1.041 0.576l0.304-1.497"/><path d="m524.28 417.66c0.045-0.452 0.065-0.829 0.129-1.227-0.081-0.033-0.159-0.059-0.236-0.097-0.078-0.038-0.152-0.086-0.228-0.13l-0.178 4.231c0.067 0.021 0.128 0.044 0.191 0.076 0.064 0.03 0.12 0.064 0.179 0.104l2.938-2.893c-0.146-0.059-0.289-0.11-0.43-0.179-0.142-0.069-0.271-0.151-0.408-0.231-0.281 0.324-0.537 0.622-0.821 0.901l-1.136-0.555zm0.885 0.813-0.963 0.98 0.071-1.417 0.892 0.437"/><path d="m528.33 419.21c0.376 0.293 0.673 0.574 0.944 0.835 0.036-0.07 0.072-0.148 0.116-0.212 0.045-0.063 0.106-0.121 0.16-0.178l-1.636-1.276-2.185 3.087c0.114 0.075 0.231 0.145 0.339 0.23 0.108 0.084 0.206 0.182 0.308 0.275l1.954-2.761"/><path d="m530.64 421.34c0.321 0.357 0.567 0.688 0.791 0.995 0.047-0.063 0.095-0.133 0.15-0.187 0.055-0.055 0.124-0.101 0.186-0.147l-1.4-1.557-2.664 2.642c0.1 0.095 0.204 0.186 0.297 0.289 0.092 0.103 0.173 0.217 0.257 0.327l2.383-2.362"/><path d="m536.46 422.74 0.478 0.322c-0.024-0.229-0.165-0.619-0.172-0.856 0.28 0 0.656-0.185 0.803-0.43-0.318 0.025-0.68 0-0.816-0.398-0.062-0.171 5e-3 -0.423 0.034-0.622 0 0-0.165-0.094-0.204-0.051-0.043 0.046-0.092 0.31-0.102 0.316-0.135 0.108-0.253 0.214-0.477 0.077l-0.393-0.547c-0.039 0.335-0.127 0.699 0.113 0.994-0.06 0.053-0.187 0.114-0.187 0.114-0.233 0.106-0.546 0.241-0.772 0.387 0.216 0.121 0.428 0.184 0.603 0.455 0.369 0.694 0.332 1.517 0.122 2.301 0.389-0.604 0.667-1.425 0.97-2.062z" fill="#ccc" stroke="#000" stroke-width=".042"/><path d="m536.99 419.5c0.342 0 0.71 0.516 1.021 0.711l0.126-0.161c-0.35-0.286-1.144-1.094-1.672-1.919 0.109-0.073 0.314-0.079 0.454-0.013l-0.026-0.476c-1.376-0.482-2.399-1.105-3.256-2.574l0.145-0.162c0.487 0.32 1.044 0.412 1.604 0.412 0.259 0.272 0.258 0.592 0.211 0.895 0.194-0.164 0.402-0.449 0.402-0.449 0.147 0.335 0.624 0.77 0.92 0.966-0.053-0.172-0.156-0.422-0.232-0.757-0.023-0.041 0.364 0.065 0.387 8e-3 0.56 9e-3 1.11 0.085 1.646-0.299-0.529-0.049-1.427-0.027-1.878-0.37 0.016-0.319 0.103-0.661 0.219-0.923-0.373 0.033-0.755 0.151-0.926 0.551-0.287-0.138-0.394-0.505-0.846-0.622 0.016 0.179 0.208 0.528 0.092 0.675-0.21 0.098-0.585-0.046-0.834-0.087-0.925-0.261-1.709-0.67-2.533-1.2-0.074 0.146-0.183 0.535-0.146 0.642 0.709 0.414 0.928 0.567 1.326 0.95 0.836 0.898 1.556 1.643 2.197 2.296 0.7 0.707 1.4 1.599 1.361 2.669l0.165 0.03 0.073-0.793z" fill="#ccc" stroke="#000" stroke-width=".042"/><path d="m540.42 419c0.858 0.335 1.305 0.151 1.839-0.114-0.637 8e-3 -0.981-0.143-1.839-0.556-0.171-0.236-0.097-0.553 0.012-0.822-0.412-0.065-0.789 0.112-1.054 0.431-0.287-0.431-0.663-0.598-0.919-0.696 0.301 0.316 0.408 0.765 0.233 1.071-0.436 8e-3 -0.8-0.215-1.189-0.313 0.025 0.13-0.041 0.291 0.052 0.341 0.218 0.115 0.725 0.1 0.943 0.238 0.116-0.033 0.258 0.036 0.281 0.142-0.062 0.18-0.106 0.521-0.233 0.745 0.603-0.05 0.552-0.34 0.778-0.561 0.223 0.357 0.321 0.653 0.962 0.868 0 0 0.025-0.676 0.134-0.774z" fill="#ccc" stroke="#000" stroke-width=".042"/><path d="m532.47 417.88c0.233-0.107 0.621 0.212 0.824 0.293-0.093-0.302-0.485-0.837-0.738-0.969 0-0.265 0.126-0.613 0.165-1-0.223 0.265-0.387 0.42-0.612 0.428-0.179-0.343-0.272-0.726-0.288-1.135h-0.342c0.046 0.319 0.183 0.758 0.097 1.011-0.216 0.237-0.573-0.092-0.799-0.141 0.078 0.204 0.107 0.623 0.262 0.755-0.132 0.359-0.315 0.934-0.247 1.23 0.165-0.041 0.442-0.472 0.706-0.432 0.193 0.835 0.572 1.57 1.165 2.06-0.292-0.368-0.659-1.782-0.193-2.1z" fill="#ccc" stroke="#000" stroke-width=".042"/><path d="m531.21 413.84c0.165-0.051 0.292 0.082 0.292 0.082l0.097-0.5c-0.214-0.439-1.174-0.669-1.55-0.974-1.026-0.486-2.051-0.653-3.349-0.71-0.257-0.172-1.172-0.309-1.468-0.48-0.715-0.277-1.182-1.202-1.516-1.888-0.292-0.163-1.085-0.753-1.302-0.888 0.029 1.102 1.302 2.337 1.836 2.837 1.148 0.99 4.608 0.756 6.105 1.929 0.369 0.204 0.845 1.429 0.913 1.776l0.224 0.112c0.136 0.021-0.107-0.816-0.282-1.296z" fill="#ccc" stroke="#000" stroke-width=".042"/><path d="m541.89 420.89-0.084-0.608c-0.246 0.026-0.516 0.354-0.673 0.511l-0.74-0.743c0.058 0.453 0.064 0.628-0.054 0.826-0.133 0.157-0.403 0.15-0.56 0.117l-0.278-0.038-0.52-0.12c-0.252-0.041-0.369-0.561-0.644-0.198 0.424 0.717 0.941 1.351 1.422 2.093 0.28 0.52 0.777 1.032 0.313 1.511-0.377 0.143-0.495 0.225-1.25-0.109 0.383 0.752 0.556 0.999 1.037 1.206-0.275 0.484-0.446 1.068-0.375 1.474 1.404-0.145 1.529 0.418 1.902 0.789 1.011 1.443 0.922 1.732 1.215 2.669 0.102-0.099 0.177-0.552 0.189-0.727 0.147-1.189 0.159-1.896-0.069-3.035-0.102-0.321-0.137-0.443 0.069-0.841 0.204-0.231 0.808-0.087 0.911-0.108-0.157-0.309-0.491-0.567-0.841-0.807-0.259-0.165-0.53-0.099-0.797-0.264-0.013-0.549 0.216-1.402-0.11-1.779-0.243 0.47-0.726 1.004-1.166 1.021-0.709-0.897-1.068-1.782-1.767-2.656l0.448 0.116c0.389 0.05 0.579 0.208 1.003 0.2 0.094 0.181 0.01 0.402-0.049 0.701 0.196-0.066 0.363 0.01 0.671-0.382 0.055 0.281 0.283 0.47 0.526 0.594l0.04-0.635c1.132-0.17 1.697 0.018 2.208 0.266-0.229-0.275-1.442-0.959-1.977-1.044z" fill="#ccc" stroke="#000" stroke-width=".042"/><path d="m499.8 422.98-0.477 0.322c0.023-0.228 0.164-0.62 0.172-0.856-0.28 0-0.656-0.185-0.804-0.43 0.319 0.025 0.681 0 0.816-0.398 0.063-0.172-4e-3 -0.424-0.034-0.622 0 0 0.165-0.094 0.205-0.051 0.042 0.046 0.091 0.31 0.102 0.316 0.134 0.108 0.252 0.214 0.476 0.076l0.394-0.546c0.038 0.335 0.126 0.699-0.113 0.994 0.059 0.053 0.187 0.114 0.187 0.114 0.233 0.106 0.546 0.241 0.771 0.388-0.215 0.12-0.427 0.183-0.602 0.454-0.37 0.694-0.333 1.517-0.123 2.301-0.389-0.604-0.667-1.425-0.97-2.062z" fill="#ccc" stroke="#000" stroke-width=".042"/><path d="m499.27 419.74c-0.342 0-0.709 0.516-1.02 0.712l-0.126-0.162c0.349-0.286 1.144-1.094 1.671-1.919-0.108-0.073-0.313-0.078-0.453-0.013l0.026-0.476c1.376-0.482 2.399-1.104 3.256-2.574l-0.146-0.162c-0.486 0.32-1.044 0.412-1.604 0.412-0.259 0.272-0.257 0.593-0.21 0.895-0.195-0.164-0.402-0.449-0.402-0.449-0.148 0.334-0.625 0.77-0.92 0.966 0.053-0.172 0.155-0.422 0.232-0.757 0.023-0.041-0.364 0.065-0.388 8e-3 -0.56 8e-3 -1.109 0.085-1.646-0.299 0.529-0.049 1.427-0.027 1.878-0.37-0.015-0.319-0.102-0.661-0.219-0.923 0.373 0.033 0.756 0.151 0.927 0.551 0.287-0.137 0.394-0.505 0.845-0.622-0.015 0.179-0.208 0.528-0.091 0.675 0.21 0.099 0.585-0.046 0.833-0.087 0.926-0.261 1.71-0.67 2.534-1.2 0.074 0.146 0.182 0.534 0.146 0.643-0.71 0.413-0.929 0.566-1.327 0.949-0.836 0.898-1.555 1.643-2.197 2.296-0.7 0.708-1.399 1.599-1.361 2.669l-0.165 0.03-0.073-0.793z" fill="#ccc" stroke="#000" stroke-width=".042"/><path d="m495.84 419.24c-0.857 0.335-1.304 0.151-1.839-0.114 0.638 8e-3 0.982-0.143 1.839-0.556 0.171-0.236 0.098-0.553-0.011-0.822 0.412-0.065 0.789 0.112 1.053 0.431 0.288-0.431 0.663-0.599 0.92-0.696-0.302 0.316-0.409 0.765-0.233 1.071 0.435 9e-3 0.8-0.215 1.188-0.313-0.025 0.13 0.042 0.291-0.051 0.341-0.218 0.115-0.725 0.1-0.943 0.238-0.117-0.033-0.259 0.036-0.282 0.142 0.062 0.18 0.107 0.521 0.233 0.745-0.602-0.051-0.552-0.34-0.777-0.561-0.224 0.357-0.321 0.653-0.962 0.868 0 0-0.026-0.676-0.135-0.774z" fill="#ccc" stroke="#000" stroke-width=".042"/><path d="m503.79 418.12c-0.233-0.106-0.62 0.213-0.824 0.294 0.093-0.302 0.486-0.836 0.739-0.969 0-0.265-0.127-0.613-0.166-1 0.224 0.265 0.387 0.42 0.613 0.428 0.179-0.343 0.272-0.726 0.287-1.135h0.343c-0.047 0.319-0.183 0.758-0.098 1.011 0.216 0.237 0.574-0.092 0.8-0.141-0.078 0.204-0.107 0.622-0.263 0.755 0.132 0.359 0.316 0.934 0.248 1.23-0.165-0.041-0.443-0.473-0.707-0.432-0.192 0.835-0.571 1.57-1.164 2.06 0.291-0.368 0.659-1.782 0.192-2.101z" fill="#ccc" stroke="#000" stroke-width=".042"/><path d="m505.05 414.08c-0.165-0.051-0.292 0.082-0.292 0.082l-0.097-0.5c0.213-0.439 1.174-0.669 1.549-0.974 1.027-0.486 2.051-0.653 3.35-0.71 0.256-0.172 1.172-0.309 1.467-0.48 0.716-0.277 1.182-1.202 1.517-1.888 0.291-0.163 1.084-0.753 1.302-0.888-0.029 1.102-1.302 2.337-1.837 2.837-1.147 0.99-4.607 0.756-6.104 1.929-0.369 0.204-0.846 1.429-0.913 1.776l-0.224 0.112c-0.136 0.021 0.107-0.816 0.282-1.296z" fill="#ccc" stroke="#000" stroke-width=".042"/><path d="m492.39 422.17c0.511-0.248 1.076-0.436 2.209-0.266l0.039 0.635c0.244-0.124 0.471-0.313 0.526-0.594 0.308 0.392 0.475 0.315 0.672 0.382-0.059-0.299-0.144-0.52-0.05-0.701 0.425 8e-3 0.614-0.15 1.004-0.2l0.448-0.116c-0.7 0.874-1.059 1.759-1.767 2.656-0.44-0.017-0.923-0.551-1.167-1.021-0.326 0.378-0.097 1.229-0.11 1.779-0.267 0.165-0.538 0.099-0.797 0.264-0.349 0.24-0.683 0.498-0.84 0.807 0.103 0.021 0.707-0.123 0.911 0.109 0.206 0.397 0.171 0.519 0.068 0.841-0.227 1.138-0.215 1.844-0.068 3.034 0.012 0.175 0.086 0.628 0.188 0.727 0.293-0.937 0.204-1.226 1.216-2.669 0.373-0.371 0.497-0.934 1.901-0.789 0.072-0.406-0.1-0.99-0.375-1.474 0.482-0.207 0.655-0.454 1.038-1.206-0.756 0.335-0.874 0.252-1.251 0.109-0.463-0.478 0.034-0.991 0.313-1.511 0.481-0.742 0.999-1.375 1.423-2.093-0.275-0.363-0.393 0.157-0.644 0.198l-0.521 0.12-0.277 0.038c-0.157 0.033-0.427 0.04-0.561-0.117-0.118-0.197-0.112-0.373-0.053-0.826l-0.74 0.743c-0.157-0.157-0.427-0.485-0.674-0.511l-0.083 0.608c-0.535 0.085-1.749 0.769-1.978 1.044z" fill="#ccc" stroke="#000" stroke-width=".042"/><path d="m527.46 411.9c0.557 0.014 1.042-0.236 1.6-0.551 0.561-0.31 1.043-0.38 1.599-0.328-0.615-0.209-1.148-0.212-1.766-0.011-0.617 0.201-1.15 0.201-1.766-9e-3 -0.615-0.209-1.148-0.22-1.766-0.019-0.617 0.201-1.15 0.209-1.766 0-3e-3 0.689-7e-3 1.348-0.01 2.038 0.604 0.204 1.128 0.206 1.734 8e-3 0.606-0.199 1.13-0.219 1.734-0.016 0.604 0.205 1.127 0.254 1.734 0.059 0.606-0.197 1.13-0.265 1.734-0.067-0.035-0.025-0.64-0.405-1.369-0.355-0.73 0.058-1.434-0.055-1.686-0.196-0.501-0.29-1.053-0.465-1.083-0.62 0.376-0.041 0.702 0.04 1.077 0.067z" fill="#fec35a" fill-rule="evenodd" stroke="#000" stroke-width=".085"/><path d="m508.78 412.25c-0.557 0.011-1.04-0.242-1.597-0.559-0.559-0.313-1.041-0.386-1.598-0.336 0.617-0.207 1.15-0.207 1.766-3e-3 0.617 0.204 1.15 0.207 1.767 1e-3 0.616-0.207 1.149-0.215 1.766-0.011 0.616 0.204 1.149 0.215 1.766 9e-3v2.039c-0.605 0.201-1.129 0.2-1.734-2e-3s-1.129-0.224-1.734-0.025c-0.606 0.202-1.129 0.249-1.734 0.051-0.605-0.201-1.129-0.271-1.734-0.076 0.034-0.025 0.641-0.402 1.371-0.349 0.729 0.063 1.433-0.047 1.686-0.187 0.503-0.287 1.056-0.459 1.087-0.614-0.376-0.043-0.702 0.037-1.078 0.062z" fill="#fec35a" fill-rule="evenodd" stroke="#000" stroke-width=".085"/><path d="m512.69 411.26v2.032l-1.637-0.424v-1.608h1.637z" fill-rule="evenodd" stroke="#000" stroke-width=".085"/><path d="m525.14 410.96 0.016 1.86-1.654 0.172v-2.032h1.638z" fill-rule="evenodd" stroke="#000" stroke-width=".085"/><path d="m525.26 410.61v2.23c-0.652-0.12-1.275-0.225-1.927-0.224-0.651 2e-3 -0.429 0.082-1.081 0.203s-1.274 0.226-1.926 0.226c-0.652-1e-3 -1.275-0.107-1.926-0.228-0.652-0.121-1.275-0.226-1.927-0.228-0.651 0-1.274 0.105-1.926 0.226s-0.991 0.254-1.642 0.257c-0.652 0-1.275-0.103-1.926-0.224v-2.23c0.651 0.12 1.274 0.224 1.926 0.224 0.651-3e-3 0.99-0.135 1.642-0.256 0.652-0.122 1.275-0.226 1.926-0.227 0.652 2e-3 1.275 0.107 1.927 0.229 0.651 0.121 1.274 0.226 1.926 0.228 0.652-1e-3 1.274-0.105 1.926-0.227 0.652-0.121 0.43-0.201 1.081-0.203 0.652-1e-3 1.275 0.103 1.927 0.224z" fill="#fec35a" stroke="#000" stroke-width=".085"/><path d="m516.56 411.88c-0.074-0.05-0.133-0.083-0.198-0.116-0.019 0.031-0.042 0.057-0.069 0.081v0.014c0.171 0.064 0.327 0.151 0.487 0.247 5e-3 -3e-3 9e-3 -5e-3 0.014-7e-3v-1.153c-0.04-1e-3 -0.077 0-0.117-4e-3s-0.077-0.012-0.117-0.019v0.957"/><path d="m517.3 411.14c0.042-0.024 0.093-0.052 0.149-0.042 0.219 0.041 0.284 0.323 0.294 0.498v0.017c-4e-3 2e-3 -8e-3 1e-3 -0.012 3e-3 -0.052-0.065-0.126-0.109-0.201-0.121-0.188-0.03-0.331 0.063-0.334 0.257 1e-3 0.126 0.023 0.203 0.114 0.311 0.073 0.08 0.163 0.121 0.262 0.138 0.127 0.022 0.243 7e-3 0.324-0.081 0.068-0.08 0.094-0.199 0.095-0.313-1e-3 -0.164-0.036-0.346-0.129-0.502-0.09-0.148-0.247-0.253-0.405-0.282-0.034-6e-3 -0.064-8e-3 -0.096-2e-3 -0.025 9e-3 -0.029-5e-3 -0.036 0.021-0.01 0.03-0.022 0.056-0.037 0.084 4e-3 4e-3 8e-3 9e-3 0.012 0.014zm0.296 0.989c-0.118-0.024-0.155-0.191-0.149-0.279 0-0.085 0.016-0.265 0.151-0.246 0.118 0.025 0.141 0.176 0.142 0.268 0 0.098-6e-3 0.277-0.144 0.257"/><path d="m518.94 411.9c-1e-3 -0.172-0.011-0.353-0.126-0.511-0.075-0.097-0.167-0.152-0.278-0.171-0.146-0.025-0.243 7e-3 -0.316 0.122-0.073 0.116-0.088 0.237-0.088 0.384 0 0.116 0.022 0.296 0.081 0.407 0.077 0.14 0.183 0.22 0.329 0.246 0.32 0.05 0.396-0.209 0.398-0.477zm-0.402-0.606c0.125 0.026 0.15 0.206 0.151 0.532-1e-3 0.371-0.032 0.492-0.147 0.475-0.136-0.028-0.159-0.208-0.16-0.552 1e-3 -0.312 0.013-0.476 0.156-0.455"/><path d="m519.38 412.31c-0.073-0.051-0.132-0.087-0.198-0.125-0.019 0.031-0.042 0.055-0.069 0.076v0.013c0.172 0.08 0.328 0.17 0.487 0.262 5e-3 -3e-3 9e-3 -6e-3 0.014-8e-3v-1.153c-0.039 0-0.077 2e-3 -0.117-1e-3 -0.039-5e-3 -0.077-0.013-0.117-0.021v0.957"/></g></g></g></g></g></svg>
