<?xml version="1.0" encoding="UTF-8"?>
<!DOCTYPE svg  PUBLIC '-//W3C//DTD SVG 1.1//EN'  'http://www.w3.org/Graphics/SVG/1.1/DTD/svg11.dtd'>
<svg width="199px" height="107px" clip-rule="evenodd" fill-rule="evenodd" image-rendering="optimizeQuality" shape-rendering="geometricPrecision" text-rendering="geometricPrecision" version="1.1" viewBox="0 0 1.99e7 10684211" xml:space="preserve" xmlns="http://www.w3.org/2000/svg">
 <defs>
  <style type="text/css">
   <![CDATA[
    .fil0 {fill:#0096A6}
    .fil1 {fill:#FFC200}
    .fil3 {fill:#FEFEFE;fill-rule:nonzero}
    .fil2 {fill:#0096A6;fill-rule:nonzero}
   ]]>
  </style>
 </defs>
 
  
  <path class="fil0" d="m12187118-20c1138250 0 2133628 599070 2673903 1492062 273327 451770 423154 1035158 423154 1597890 0 366419-94366 694231-216602 993607-141788 347275-351036 688460-595020 962911-380568 428069-805930 567966-1501336 584393 187796-86704 737016-469222 998512-994940 155469-25591 349354-47243 552215-142673 113778-53521 379463-274123 578632-614631 66128-188194 111838-400547 124057-602701-129539-350429-301216-781801-545688-993746-54228-408935-82356-746160-84446-1049317-237765-306390-539011-564722-881918-758270-275516 22626-729514 108176-1035467 228671-403114-130255-789224-270441-1325161-267854-155071 58725-292480 131479-468735 232621 104535-90465 240830-166802 363006-253725l21980-192413c-571608 171080-1056640 493510-1418761 914564 140574-21621 300898 24974 327086 2915 104296-87908 161041-155260 317435-229308-121251 91649-301067 270192-243397 381065 152315 292898 270381 623099 310430 871222-263377 272779-572632 584453-790130 860775-29581 179040 7144 459252 105808 659536-143579-198622-210542-390249-285714-624303-109589-131042-290858-359971-399781-551966-34029 180523-51730 366299-51730 555598 0 667874 239009 1333519 638103 1883635-434148-521848-694550-1187244-694550-1912062 0-1675102 1.39e6 -3033556 3104111-3033556zm-1439178 2229317c252183 65282 487053 148006 699067 253327 99132 49243 209925 130942 281993 335265 109550 310430 205398 582901 288809 878804 74496 264262-227358 536146-493838 804249 284510-147598 503231-343972 712549-585558 444427-91649 867700-91659 1248685-49382 158703 190493 278640 406836 380956 634939-58824-243407-167011-476267-338618-776060 63501-338618 129012-636104 204592-959459 63113-270013 423303-388776 726629-465590-328579-12885-532046 102256-768996 98764-237516-145837-482078-383304-768936-578483-61153-263377-136434-526753-253984-790139 35850 253974 48765 500903 28218 754877-139509 59561-366319 224392-526027 336350-223517 156703-361424 291465-433352 270381-265098-77700-540434-116425-987746-162285z"/>
  <path class="fil1" d="m3126569 5442391c1398910 1155185 3245591 1658725 4912007 1773030 1546509 106087 3119703-84983 4554871-692878 1720574-728778 3207890-2057899 2827899-3846809 488684 955091 126076 2054745-537519 2780727-1507952 1649710-4172115 2236919-6337543 2108813-2.1e6 -124226-4285395-864904-5419715-2122882z"/>
  <path class="fil1" d="m0 10597954c1690873-328758 3094540-498425 4453451-624502 2051690-190363 3821586-212104 5438362-213965 1283232-1473 2540752 24567 3902241 94067 2055580 104953 3916589 302092 6105947 723256-2658789-773155-6665754-1022522-9985253-1022522-3310166 0-7068002 228213-9914747 1043665z"/>
  <polygon class="fil2" points="4753344 10677644 4566334 10677644 4566334 10253783 5203751 10253783 5203751 10319294 4753344 10319294 4753344 10435132 5107753 10435132 5107753 10498733 4753344 10498733"/>
  <path class="fil2" d="m5692226 10684220c-133837 0-238203-21203-312778-63391-74625-42288-111679-94435-111679-156543 0-61690 39561-113311 118723-154752 79381-41551 184005-62327 313793-62327 131061 0 234412 20776 310530 62327 76127 41442 114186 93381 114186 155698 0 65401-39571 118286-118465 158563-79152 40288-183737 60426-314311 60426zm1532-61581c65511 0 120713-11353 166075-34138 45382-22786 68078-64018 68078-123897 0-48646-18905-86814-56227-114375-37303-27661-95530-41442-174175-41442-155767 0-233397 52685-233397 158036 0 51093 19691 89888 59511 116276 39561 26387 96266 39541 170135 39541z"/>
  <path class="fil2" d="m6665396 10684220c-133837 0-238193-21203-312778-63391-74625-42288-111679-94435-111679-156543 0-61690 39561-113311 118723-154752 79391-41551 184015-62327 313793-62327 131071 0 234422 20776 310530 62327 76127 41442 114196 93381 114196 155698 0 65401-39571 118286-118475 158563-79152 40288-183737 60426-314311 60426zm1532-61581c65521 0 120713-11353 166085-34138 45372-22786 68068-64018 68068-123897 0-48646-18895-86814-56218-114375-37313-27661-95540-41442-174185-41442-155757 0-233397 52685-233397 158036 0 51093 19691 89888 59521 116276 39551 26387 96256 39541 170125 39541z"/>
  <polygon class="fil2" points="7631262 10677644 7436182 10677644 7436182 10319294 7168259 10319294 7168259 10253783 7899206 10253783 7899206 10319294 7631262 10319294"/>
  <path class="fil2" d="m7979592 10677644v-423860h392955c66536 0 121470 2856 165339 8696 43850 5831 81898 17910 113669 36347 32019 18447 48148 40069 48148 64874 0 23412-16388 43770-48646 61053-32507 17273-77391 28288-134584 33064 71073 5194 124504 17273 161061 36357 36536 18965 54685 41551 54685 67610 0 32755-25462 60207-76366 82476-51173 22248-129549 33382-235407 33382h-440855zm172165-245904h221547c45382 0 81152-5721 107370-17064 26467-11443 39561-25970 39561-43561 0-19403-15124-33701-45113-42924-29999-9224-65292-13880-105599-13880h-217766v117430zm0 182204h234900c49651 0 88983-5403 117718-16427 28716-10925 43084-25761 43084-44417 0-17801-14627-32328-43840-43770-29253-11343-68058-17064-116206-17064h-235656v121679z"/>
  <path class="fil2" d="m9689270 10677644h-194095l-80655-100903h-387632l-78894 100903h-155031l334489-423860h223577l338240 423860zm-323385-162056-146962-189090-146922 189090h293883z"/>
  <polygon class="fil2" points="1.04e7 10677644 9.78e6 10677644 9.78e6 10253783 9971283 10253783 9971283 10608431 1.04e7 10608431"/>
  <polygon class="fil2" points="11169293 10677644 10549020 10677644 10549020 10253783 1.074e7 10253783 1.074e7 10608431 11169293 10608431"/>
  <path class="fil2" d="m12214292 1.053e7 168364 7841c-10836 42397-49909 77381-117211 104724-67023 27452-155250 41233-264640 41233-91988 0-166603-9761-224094-29253-57441-19393-101550-45790-132564-79172-31004-33293-46387-70068-46387-110246 0-64546 36298-117112 109161-157608 72834-40487 173140-60735 300679-60735 99818 0 182990 13044 249546 38905 66267 25860 108127 62854 125509 111082l-168364 7522c-31014-64028-99560-95928-205418-95928-67799 0-120753 13253-158295 39850-37561 26616-56466 65192-56466 115649 0 51412 20179 90087 60486 116266 40347 26288 93789 39332 160314 39332 53203 0 98316-8806 135857-26397 37313-17602 58496-38576 63521-63063z"/>
  <polygon class="fil2" points="13131761 10677644 12511468 10677644 12511468 10253783 12702757 10253783 12702757 10608431 13131761 10608431"/>
  <path class="fil2" d="m13985979 10253783v272292c0 36885-9821 65292-29741 85112-19651 19920-57710 36984-113918 51412-56476 14418-125290 21621-206433 21621-82167 0-149738-6259-202652-18656-52954-12408-91003-29472-114186-51093-23184-21621-34795-49292-34795-82784v-277904h185508v272292c0 37303 18417 61799 55730 73451 37034 11761 80386 17602 129549 17602 56705 0 101818-6269 135857-18865 34009-12517 50894-36566 50894-72187v-272292h144185z"/>
  <path class="fil2" d="m14178014 10677644v-423860h392955c66526 0 121460 2856 165329 8696 43850 5831 81908 17910 113669 36347 32019 18447 48148 40069 48148 64874 0 23412-16378 43770-48636 61053-32517 17273-77401 28288-134594 33064 71073 5194 124504 17273 161061 36357 36536 18965 54675 41551 54675 67610 0 32755-25452 60207-76356 82476-51173 22248-129549 33382-235407 33382h-440845zm172165-245904h221537c45372 0 81152-5721 107370-17064 26467-11443 39551-25970 39551-43561 0-19403-15104-33701-45103-42924-29999-9224-65292-13880-105599-13880h-217756v117430zm0 182204h234890c49660 0 88983-5403 117718-16427 28726-10925 43074-25761 43074-44417 0-17801-14617-32328-43830-43770-29253-11343-68058-17064-116206-17064h-235646v121679z"/>
  <path class="fil2" d="m10026386 9396392 140544-198224h1328027l155897 220631c251198 6627 502356 14746 753424 24437l-1036193-1398612c-107798-145509-304052-218204-532444-224283-256033-6836-442775 66983-562981 231328l-985538 1347359c209239-1841 418437-2736 627626-2736l111639 100zm763553-1078162c3025-4298 5731-9791 9353-15582 3622-5771 8378-10726 12428-15154 3960-4338 8079-6726 11811-7154 3741 428 7851 2816 11811 7154 4050 4428 8716 9263 12447 15154 3731 5900 6398 11413 9333 15582l356618 507858h-780398l356598-507858z"/>
  <path class="fil2" d="m15971710 9698514 351673-500346h1320972l606990 830755c301565 56267 602184 118684 900127 188712l-1633989-2173010c-108823-144733-304072-218213-532444-224283-256014-6826-442556 67163-562981 231328l-1045397 1425079c5781-35780 8826-75272 8826-118793v-1.52e6h-710052v1114092c0 4547-60 10159-1244 16845-1184 6676-4975 12716-10567 17681-6139 5473-15582 8567-29243 8418-14895-189-28149-5373-39800-14736-11263-9055-21203-19204-31094-28208l-940653-855312c-214472-194990-458645-312490-764409-277416-254422 29183-421054 135240-421054 348111v1277083c228671 8955 457272 19204 685754 30785v-978204c0-16437 4388-28268 11184-35362 6796-7114 14318-12049 22397-13472 8e3 -1403 14358-1970 18656-1692 13005 876 26139 5761 37939 14746 12189 9283 23154 19253 32964 28208l1065595 974682c33153 30308 73590 61819 119022 92654 278709 20825 557349 44019 835710 69939l448 30 10577 1005 3353 299 7681 716 6239 587 4786 448 9134 866 1900 179 11025 1035 1005 100c216542 20447 432885 42536 648969 66446zm979786-1380284c3025-4298 5721-9801 9343-15582 3612-5771 8398-10726 12428-15154 3970-4328 8089-6726 11821-7154 3741 428 7851 2826 11811 7154 4030 4428 8716 9263 12447 15154 3731 5900 6398 11413 9333 15582l356608 507858h-780398l356608-507858z"/>
  <path class="fil2" d="m4684261 9618297h25552c556523-52576 1114171-93630 1671560-125838 201179-11622 402428-22089 603756-31452 90416-89878 122276-206851 118574-337285-8686-306092-222412-415820-537549-472257l-1160140-207746c-33890-6060-79152-12985-112584-20636-71043-16219-121519-31074-116325-115450 1473-23850 24009-47999 49800-56506 42656-14089 93789-10099 138066-10099h1609452 34944 1068083v1179742c232462-6388 464963-11452 697475-15283v-1164458h1127325v-403065h-2892883-34944-1698465c-226382 0-471779 746-658372 151170-92535 74605-142166 180821-143708 325753-1532 144016 52098 253874 144484 332808 76555 65401 182135 109599 313455 134365l1339011 252740c48735 9184 122226 31243 124405 99003 1811 56178-46626 99371-121231 98674l-1885704-17621-853282-1163185c-120425-164165-306967-238133-562981-231328-228362 6070-424308 79053-532444 224283l-1621810 2177816c298838-70108 599677-133439 901510-190980l593428-833293h1320972l348429 495729c234323-26626 468963-51014 703793-73341l-1652-2259zm-1678684-1300067c-3025-4298-5721-9801-9343-15582-3612-5771-8398-10726-12428-15154-3960-4328-8079-6726-11811-7154-3751 428-7851 2826-11821 7154-4030 4428-8706 9263-12438 15154-3731 5900-6408 11413-9333 15582l-356618 507858h780398l-356608-507858z"/>
  <path class="fil3" d="m3005577 8318230c-3025-4298-5721-9801-9343-15582-3612-5771-8398-10726-12428-15154-3960-4328-8079-6726-11811-7154-3751 428-7851 2826-11821 7154-4030 4428-8706 9263-12438 15154-3731 5900-6408 11413-9333 15582l-356618 507858h780398l-356608-507858z"/>
 
</svg>
