<?xml version="1.0" encoding="UTF-8"?>
<!DOCTYPE svg  PUBLIC '-//W3C//DTD SVG 1.1//EN'  'http://www.w3.org/Graphics/SVG/1.1/DTD/svg11.dtd'>
<svg enable-background="new 0 0 262 328" version="1.1" viewBox="0 0 262 328" xml:space="preserve" xmlns="http://www.w3.org/2000/svg">
	<path d="m194.15 192.77c0 35.886-30.457 65.109-62.706 65.109-32.247 0-61.442-29.224-61.442-65.109 0-35.886 29.195-64.846 61.443-64.846s62.705 28.959 62.705 64.846z" fill="#fff"/>
<g fill="#441678">
	<polygon points="85.255 166.44 85.271 207.42 92.495 207.54 92.487 190.47 103.12 190.47 103.12 183.64 92.616 183.64 92.612 173.01 101.28 173 103.91 177.6 108.24 174.05 103.64 166.44"/>
	<polygon points="171.02 183.22 181.91 166.4 174.16 166.41 164.19 182.04 164.18 166.02 156.96 165.89 156.98 206.86 164.33 206.86 164.32 193.2 166.95 190.18 176.02 206.2 184.03 206.19"/>
</g>
<g fill="#441678">
	<path d="m131.54 124.11c-38.429 0-69.583 31.138-69.583 69.548s31.154 69.548 69.583 69.548c38.43 0 69.583-31.138 69.583-69.548s-31.153-69.548-69.583-69.548zm-0.823 43.357l10.698 43.698h-20.417l9.719-43.698zm-30.125 61.812s-0.5 2.719-0.938 3.219-0.906 2.281-4.469 2.5-6.906-3.719-7.719-4.75-5.625-6.563-9.688-16.719-3.5-20.313-3.531-20.531 0.438-10.438 4-18.5 7.563-14.563 13.25-20.313 15.375-12.813 24.063-15.375c0 0 4.953-1.775 4.953 1.375 0 0.141-0.245 2.745-0.349 2.771 0 0-3.292 15.917-4 18.458s-13.354 58.021-13.354 58.021l-2.218 9.844zm42.448 20.51c-0.792 0.292-7.021 1.084-10.479 1.084s-9.875-0.624-13.708-1.396-5.062-3.48-4.458-7.188 3.698-18.041 3.698-18.041h27.219s2.94 9.719 3.375 11.469c0.438 1.761 1.312 5.614 1.333 6.531s1.171 4.536-6.98 7.541zm33.563-20.791c-5.021 6.813-8.292 4.688-8.771 4.479-3.664-1.597-5.229-6.458-5.334-6.854-0.15-0.57-23.667-83.625-23.667-83.625-2.604-6.563 5.479-5.313 6.667-5 14.44 3.8 21.75 10.438 28.5 17s13.688 21.625 14.625 33.188-1.812 22.271-4.146 27.417-2.853 6.583-7.874 13.395z"/>
	<path d="m131.56 69.925c-68.311 0-123.69 55.375-123.69 123.68s55.376 123.68 123.69 123.68 123.69-55.374 123.69-123.68c-1e-3 -68.308-55.378-123.68-123.69-123.68zm-65.033 125.58c0-36.778 27.541-66.686 64.427-66.686 36.887 0 65.487 30.408 65.487 67.186s-28.014 63.212-64.901 63.212-65.013-26.934-65.013-63.712z"/>
</g>
<g fill="#fff">
	<path d="m131.56 120.73c-40.243 0-72.868 32.62-72.868 72.86 0 40.238 32.625 72.858 72.868 72.858 40.244 0 72.866-32.62 72.866-72.858 0-40.24-32.622-72.86-72.866-72.86zm0.194 142.27c-38.43 0-69.584-31.062-69.584-69.378s31.154-69.378 69.584-69.378 69.583 31.062 69.583 69.378-31.153 69.378-69.583 69.378z"/>
	<path d="m131.56 78.75c-63.431 0-114.85 51.428-114.85 114.87s51.421 114.87 114.85 114.87c63.43 0 114.85-51.428 114.85-114.87s-51.421-114.87-114.85-114.87zm0.021 224.38c-60.525 0-109.59-49.05-109.59-109.56s49.067-109.55 109.59-109.55 109.59 49.05 109.59 109.56-49.065 109.55-109.59 109.55z"/>
</g>
<g fill="#fff">
	<path d="m30.77 185.44v1.767h2.592v15.08h2.964v-19.3h-1.667c-1.086 0.925-2.434 1.716-3.889 2.453z"/>
	<path d="m46.271 182.99c-3.279 0-4.656 1.796-4.656 5.802v2.269c0 2.794 1.586 3.901 3.492 3.901 1.323 0 1.851-0.422 2.698-1.267v4.456c0 1.238-0.555 1.818-1.534 1.818s-1.401-0.58-1.401-1.818v-0.977h-2.86v1.16c0 2.426 1.669 4.273 4.261 4.221 3.281 0 4.658-1.637 4.658-5.221v-9.123c1e-3 -3.587-1.377-5.221-4.658-5.221zm1.535 8.517c-0.396 0.315-1.111 0.869-1.692 0.869-0.821 0-1.377-0.58-1.377-1.818v-3.164c0-1.237 0.556-1.819 1.535-1.819s1.534 0.582 1.534 1.819v4.113z"/>
	<path d="m213.47 185.7v1.768h2.59v15.08h2.966v-19.301h-1.67c-1.084 0.922-2.431 1.713-3.886 2.453z"/>
	<path d="m229.08 183.25c-1.088 0.922-2.439 1.713-3.895 2.453v1.768h2.596v15.08h2.966v-19.301h-1.667z"/>
</g>
<g fill="#fff">
	<polygon points="64.968 151.58 56.967 146.67 59.559 142.44 56.857 140.78 54.268 145.02 49.618 142.17 53.081 136.5 50.38 134.85 44.981 143.68 63.035 154.74"/>
	<path d="m75.4 138.12c2.405-2.583 2.418-5.524-0.234-8.015l-11.546-10.847-2.527 2.714 11.654 10.947c1.133 1.065 1.261 2.047 0.344 3.031-0.917 0.985-1.901 0.923-3.034-0.142l-11.654-10.947-2.526 2.713 11.546 10.847c2.653 2.491 5.573 2.281 7.977-0.301z"/>
	<path d="m86.057 122.29c0.726 1.034 0.409 2.089-0.637 2.835-0.972 0.693-2.285 0.331-3.639-1.337l-2.583 2.455c1.945 2.509 5.104 3.576 7.9 1.582 2.821-2.012 3.652-4.985 1.643-7.846-3.309-4.71-10.433-1.759-12.51-4.715-0.759-1.081-0.663-2.088 0.309-2.781 0.681-0.486 1.788-0.626 2.956 0.778l2.65-2.359c-1.99-2.261-4.681-2.975-7.138-1.224-2.966 2.116-3.571 4.892-1.629 7.656 3.495 4.975 10.264 1.519 12.678 4.956z"/>
	<path d="m100.14 114.62c0.515 1.155 3e-3 2.132-1.163 2.664-1.086 0.494-2.304-0.115-3.313-2.014l-2.999 1.915c1.429 2.841 4.32 4.497 7.441 3.076 3.148-1.435 4.529-4.197 3.105-7.396-2.345-5.267-9.889-3.737-11.361-7.042-0.538-1.21-0.253-2.181 0.833-2.676 0.759-0.346 1.87-0.27 2.748 1.335l3.046-1.809c-1.518-2.605-4.02-3.825-6.761-2.576-3.31 1.509-4.432 4.121-3.056 7.211 2.476 5.563 9.768 3.47 11.48 7.312z"/>
	<path d="m115.76 103.17c1.587-1.094 1.925-3.139 1.528-4.922-0.786-3.539-2.933-5.099-6.789-4.205l-5.336 1.237 4.618 20.77 5.683-1.317c4.09-0.947 5.051-3.892 4.29-7.316-0.594-2.675-1.987-3.865-3.994-4.247zm-6.348-5.789l1.363-0.316c1.595-0.37 2.573 0.462 3.001 2.39 0.384 1.726-0.455 2.889-1.818 3.205l-1.305 0.302-1.241-5.581zm4.82 14.553l-1.507 0.35-1.421-6.387 1.16-0.268c2.147-0.498 3.195 0.379 3.668 2.507 0.468 2.099 0.015 3.355-1.9 3.798z"/>
	<path d="m132.92 91.402l-4.575 0.115-3.577 21.411 3.565-0.09 0.57-4.739 4.04-0.103 0.736 4.706 3.566-0.09-4.325-21.21zm-3.537 13.495l1.294-9.187 0.059-1e-3 1.617 9.113-2.97 0.075z"/>
	<polygon points="148.28 92.599 144.65 92.013 141.14 113.06 150.49 114.57 151.01 111.42 145.3 110.5"/>
	<polygon points="164.43 115.76 158.96 113.86 164.98 96.724 161.51 95.516 154.43 115.67 163.37 118.77"/>
	<polygon points="173.99 115.72 176.3 114.32 176.35 114.35 174.01 124.46 177.26 126.32 180.02 112.46 187.42 107.53 184.23 105.7 176.96 110.64 176.91 110.61 180.83 103.76 177.64 101.93 167.04 120.47 170.23 122.3"/>
	<polygon points="187.05 134.58 189.11 132.14 184.71 128.39 196.44 114.52 193.64 112.14 179.85 128.44"/>
	<path d="m193.2 142.16c2.167 2.754 5.06 3.183 7.926 0.9l12.477-9.942-2.275-2.895-12.594 10.035c-1.226 0.976-2.212 0.964-3.037-0.086-0.825-1.051-0.611-2.02 0.613-2.995l12.596-10.035-2.276-2.894-12.479 9.942c-2.867 2.283-3.115 5.215-0.951 7.97z"/>
	<path d="m221.21 146.47l-2.367-4.935-19.126 9.37 2.522 5.256c1.813 3.782 4.878 4.035 8.029 2.491 2.465-1.207 3.313-2.848 3.244-4.901 1.408 1.298 3.464 1.151 5.105 0.347 3.259-1.597 4.302-4.06 2.593-7.628zm-12.429 8.804c-1.935 0.948-3.249 0.797-4.099-0.973l-0.668-1.395 5.88-2.88 0.515 1.072c0.951 1.985 0.331 3.216-1.628 4.176zm7.898-4.333c-1.59 0.779-2.898 0.228-3.504-1.032l-0.578-1.207 5.14-2.518 0.605 1.261c0.706 1.475 0.112 2.626-1.663 3.496z"/>
	<path d="m63.411 235.54l-19.986 7.979 1.929 3.033 4.309-1.957 2.185 3.438-3.602 3.068 1.928 3.033 15.711-14.701-2.474-3.893zm-9.182 10.342l-1.607-2.529 8.451-3.631 0.031 0.051-6.875 6.109z"/>
	<path d="m75.66 251.31l-11.586 10.98c-1.126 1.068-2.111 1.135-3.038 0.156s-0.806-1.959 0.32-3.027l11.586-10.98-2.554-2.695-11.479 10.879c-2.636 2.498-2.599 5.434-0.169 8 2.429 2.566 5.357 2.762 7.994 0.264l11.479-10.879-2.553-2.698z"/>
	<path d="m87.771 267.25c1.458-2.629 1.229-5.414-1.237-7.166-2.979-2.113-5.789-1.773-7.735 0.977-3.504 4.949 2.006 10.225-0.415 13.645-0.727 1.027-1.824 1.074-2.875 0.33-0.976-0.693-1.075-2.057 0.038-3.889l-3.168-1.639c-1.706 2.67-1.652 6.012 1.156 8.006 2.832 2.01 5.903 1.818 7.917-1.027 3.318-4.686-1.837-10.463 0.245-13.404 0.761-1.076 1.739-1.316 2.715-0.623 0.684 0.484 1.185 1.486 0.258 3.057l3.101 1.733z"/>
	<polygon points="103.25 269.56 93.375 264.94 92.041 267.81 95.294 269.34 87.707 285.65 91.069 287.22 98.659 270.9 101.91 272.43"/>
	<path d="m111.9 272.13l-5.05-1.27-5.118 20.537 3.599 0.904 2.098-8.418c0.639 0.16 1.4 0.322 1.878 0.381l0.435 9.146 3.657 0.92-0.73-10.068c1.354-0.234 2.993-1.242 3.816-4.541 1.09-4.378-0.551-6.575-4.585-7.591zm0.985 6.687c-0.61 2.445-1.512 2.975-3.457 2.484l-1.276-0.32 1.573-6.314 1.277 0.322c1.944 0.489 2.493 1.381 1.883 3.828z"/>
	<polygon points="122.15 295.37 125.84 295.66 127.44 274.55 123.74 274.26"/>
	<path d="m135.91 274.56l-2.146 21.434 3.576-0.301 0.253-4.73 4.053-0.342 1.06 4.621 3.576-0.303-5.781-20.766-4.591 0.387zm1.948 13.199l0.68-9.182 0.059-6e-3 2.242 8.938-2.981 0.25z"/>
	<polygon points="169.4 265.18 173.1 278.33 173.04 278.35 165.18 267.1 162.4 268.35 165.77 281.65 165.72 281.67 158.07 270.32 154.91 271.75 167.4 289.35 170.23 288.07 166.73 274.29 166.79 274.26 175.03 285.9 177.86 284.62 172.56 263.76"/>
		<rect transform="matrix(-.5804 -.8144 .8144 -.5804 71.649 573.85)" x="173.08" y="266.61" width="21.192" height="3.707"/>
	<polygon points="199.02 265.4 194.68 260.95 198.1 257.61 195.89 255.34 192.47 258.68 188.66 254.77 193.1 250.43 190.89 248.16 183.79 255.09 198.59 270.26 205.99 263.04 203.77 260.77"/>
	<polygon points="198.72 237.81 208.67 244.74 208.63 244.79 196.11 241.57 194.15 244.39 211.54 256.5 213.45 253.75 202.59 246.19 202.62 246.14 216.18 249.82 218.02 247.17 200.63 235.06"/>
</g>
<g fill="#AE9A64">
	<polygon points="87.436 5.177 94.036 25.491 115.4 25.491 98.116 38.046 104.72 58.362 87.436 45.808 70.153 58.362 76.756 38.046 59.477 25.491 80.834 25.491"/>
	<polygon points="173.94 5.177 180.54 25.491 201.9 25.491 184.62 38.046 191.22 58.362 173.94 45.808 156.66 58.362 163.26 38.046 145.98 25.491 167.34 25.491"/>
</g>
</svg>
