<svg xmlns="http://www.w3.org/2000/svg" xmlns:xlink="http://www.w3.org/1999/xlink" width="82.855" height="89.53" viewBox="0 0 21.922 23.688" xmlns:v="https://vecta.io/nano"><style><![CDATA[.Ay{stroke-width:.5}.Az{fill:#ffe500}.BA{fill:#fbba00}]]></style><defs><linearGradient gradientUnits="userSpaceOnUse" y2="199.98" x2="284.43" y1="115.78" x1="284.43" id="A"><stop stop-color="#ffe500" offset="0"/><stop stop-color="#fbba00" offset="1"/></linearGradient><linearGradient gradientUnits="userSpaceOnUse" y2="123.98" x2="284.33" y1="220.49" x1="284.33" id="B"><stop stop-color="#ffe500" offset="0"/><stop stop-color="#ffe100" offset=".3"/><stop stop-color="#fdd400" offset=".61"/><stop stop-color="#fcc000" offset=".93"/><stop stop-color="#fbba00" offset="1"/></linearGradient><path id="C" d="M317.4 243.1c0 14.4-5.45 29.84-23.1 47.36S250.6 320 250.6 320l-8.32 14.47 1-.48c63.5-30.08 79.86-62.38 82.4-84.18a55.93 55.93 0 0 0 .37-6.45 57.18 57.18 0 0 0-21.42-44.25l-13.08.8s25.84 16.62 25.84 43.18z"/></defs><g transform="matrix(.056364 0 0 .056364 .026458 .026458)"><path d="M379 23.66L374.25 0l-22.1 9.72c-42.2 18.57-81.62 22.38-127.8 22.38-49.82 0-88.13-6.88-128.08-23L75.14.6 70 22.78c-4 17.4-5.63 33.85-7.2 49.75l-.68 6.87v.32c-.36 5-.55 11.08-.55 18 0 34.86 4.9 91 12.82 120.93 21.6 84.12 71.25 153.27 139.9 194.68l9.92 6 10-5.88c54.54-32.13 99.34-86.87 126.14-154.14C389.14 187 395.6 105.55 379 23.66zM357.56 258.2C331 324.84 286.66 379.06 232.7 410.85l-8.44 5-8.4-5.06c-68-41-117.2-109.5-138.55-192.88C69.55 188.6 64.6 133.45 64.6 97.75c0-6.7.18-12.73.54-17.77v-.25l.68-6.88C67.4 57 69 40.67 73 23.45L77.28 4.7l17.85 7.2c40.33 16.27 79 23.2 129.2 23.2 46.57 0 86.34-3.85 129-22.63l18.7-8.22 4 20c16.52 81.32 10.1 162.2-18.47 233.94z" fill="#1d1d1b"/><g class="Az"><path d="M147.12 36.23a379.67 379.67 0 0 0 77.21 7.12c14 0 46.13.06 79-6.46 33.6-6.74 62.7-21 62.7-21l6.06-11.7-18.7 8.22c-42.7 18.78-82.45 22.63-129 22.63-50.23 0-88.87-6.94-129.2-23.2L77.28 4.7l5.86 11.24s30.86 13.64 63.98 20.3z"/><path d="M316.35 318.93c15.57-23.76 29.67-48.66 43.5-91.88 7.18-22.45 16.93-65.9 16.93-111.72 0-41.13-4-65.87-10.68-98.87l-.1-.53-6 11.58c33.5 165.67-35.5 310.17-135.65 369.17l-.05 9.46c46.7-26.14 77.48-64.96 92.06-87.2z"/><path d="M222.7 405.3c-18.8-11-59.32-37.8-93.4-89.3-18.8-28.67-30.5-55.27-40.44-87.13-10.9-35-16.05-90.7-16.05-128.1 0-32.22 5.28-65.08 10.28-84.7l.06-.14L77.28 4.7 73 23.45C69 40.67 67.4 57 65.83 72.82l-.68 6.88v.25c-.36 5-.54 11.06-.54 17.77 0 35.7 5 90.85 12.72 120.16 21.36 83.38 70.56 151.88 138.55 192.88l8.4 5.06.05-9.67z"/></g><g class="BA"><path d="M303.3 36.9c-32.84 6.52-65 6.46-79 6.46a379.67 379.67 0 0 1-77.21-7.12c-33.08-6.66-64-20.3-64-20.3l5.9 11.2c46 18.55 87.67 24.4 135.36 24.4s90.23-4 135.64-24l6-11.58s-29.12 14.2-62.7 20.94z"/><path d="M366.1 16.46c6.68 33 10.68 57.74 10.68 98.87 0 45.8-9.75 89.28-16.93 111.72-13.82 43.2-27.92 68.1-43.5 91.88-14.58 22.25-45.35 61.07-92.06 87.2l-.05 9.68 8.44-5c54-31.8 98.32-86 124.88-152.66 28.58-71.73 35-152.62 18.54-233.93l-4-20-6.1 11.7s0 .17.1.52z"/><path d="M89 27.14l-5.86-11.2-.06.14c-5 19.6-10.28 52.47-10.28 84.7 0 37.4 5.16 93.15 16.05 128.1 9.93 31.85 21.65 58.46 40.44 87.13 34.08 51.5 74.6 78.26 93.4 89.3l1.6.86v-9.47c-61.34-37-109.8-99.62-131.13-182.94C84.62 181.33 79.3 112 81.52 81.14c1.8-17.8 3.2-35.48 7.48-54z"/></g><path d="M224.34 51.54c-47.68 0-89.34-5.86-135.34-24.4-4.26 18.52-5.66 36.2-7.46 54-2.24 30.86 3.1 100.2 11.7 132.6 21.3 83.32 69.77 145.94 131.1 182.94z" fill="#e40428"/><path d="M224.34 396.68C324.5 337.68 393.5 193.18 360 27.52c-45.4 20-88 24-135.64 24z" fill="#143a84"/><path d="M224.3 92.93H288v-26.4h-63.7zm0 268.54q7.7 5.15 15.83 9.94l8.55 5v-31l-2.87-1.63-5.16-3 4.75-2.25c65.57-31.05 82.52-65 85.2-88.1a61 61 0 0 0 .41-7 61.78 61.78 0 0 0-19.22-44.49c14.4-15.68 19.72-31.8 19.72-45.37a46.8 46.8 0 0 0-3.25-17.49c-6.3-15.57-20.74-25.24-37.72-25.24h-53.22v35.95h-13v26.37h13v165.56a221.47 221.47 0 0 1-13-8.87zm64.3-224.37c8.2 0 14 4.65 15.62 12.43a22.24 22.24 0 0 1 .43 4.4c0 14.08-12.28 33-40.8 47.1v-27.9h22v-26.4h-22v-9.66zm2 80.14c8.8 8.15 13.3 17.15 13.3 26.85q0 1.6-.16 3.24c-1.7 16.94-16.73 35.46-39.9 49.7l-.05-64.95c6.8-3.5 18.08-9.6 26.8-14.83z" fill="#0e2356"/><path d="M224.3 66.53h-38.65v80.27c-12.36.24-32 2.1-46.3 16.37-11 11-16.6 27.33-16.6 48.52 0 28 11.52 58 33.3 86.82 17.5 23.15 40.87 44.68 68.25 63v-31.7c-40.07-29.4-75.23-74.9-75.23-117.9 0-13.33 3.26-23.3 9.68-29.67 7.9-7.8 19.26-9 26.9-9.16v117.1h26.4V173.13h12.15l.13-26.37h-12.3V92.93h12.2z" fill="#af0d1c"/><path d="M198.87 79.77h75.9L283 71.5h-92.4v213.74l8.23-8.25.04-197.22z" class="Az"/><g class="BA"><path d="M243.76 348.32l-.36-.2a233.31 233.31 0 0 1-69.49-60.45c-19.48-25.7-29.78-51.88-29.78-75.73 0-14.7 3.75-25.87 11.15-33.2 10.94-10.84 26.9-10.68 34.56-10.6h.8l8.26-8.18h-10c-13.55 0-27.95 1.9-39.3 12.28-8.28 7.56-13.82 21.56-13.64 39.56.25 25.36 11.06 53.3 30.47 79 18.1 24 44 46.75 68.34 61.7l1.23.75z"/><path d="M243.75 348.32l-7.8 4.96 7.8 14.5z"/></g><g class="Az"><path d="M190.62 151.72c-10.7 0-32.83 0-47.75 15-10 10-15.14 25.18-15.14 45 0 26.87 11.17 55.85 32.3 83.82 20.4 27 49 51.75 82.65 71.63l1.07.63-7.76-14.52-1.23-.75c-24.35-14.95-50.25-37.7-68.34-61.7-19.4-25.74-30.22-53.7-30.47-79-.18-18 5.36-32 13.64-39.56 11.37-10.4 25.77-12.28 39.3-12.28h10z"/><path d="M198.88 159.96l73.7-.02 8.25-8.2-90.22-.01"/></g><g class="BA"><path d="M198.87 159.94v117l-8.23 8.25h16.47V168.13h73.77v-16.4l-8.25 8.22zm8.23-8.2h0V88H283V71.5l-8.24 8.23h-75.9v80.2zM289.66 124s-12.1 0 1.26 0 27.17 11.2 27.17 29-12 35.5-26.3 47c-11.78 9.48-31.4 18.73-41.2 20.5l8.26 8.56c6.65-3.34 22.25-11.67 32.3-17.94l13.5-11.94c16.1-15.8 21.93-32.15 21.93-45.62a41.8 41.8 0 0 0-2.9-15.63 35 35 0 0 0-33.12-22.14H242.3l8.34 8.22z"/><path d="M250.62 159.94l-.01 160.1 8.3-14.43V159.94z"/><path d="M258.9 151.72v-19.58l-8.26-8.14-.01 35.94z"/><use xlink:href="#C"/></g><path d="M304.64 199.16c16.1-15.8 21.93-32.15 21.93-45.62a41.8 41.8 0 0 0-2.9-15.63 35 35 0 0 0-33.12-22.14H242.3l8.34 8.22h39s-12.1 0 1.26 0 27.17 11.2 27.17 29-12 35.47-26.27 47" fill="url(#A)"/><g class="BA"><path d="M291.57 200.17c-11.8 9.42-31.24 18.57-41 20.32l8.26 8.56c6.65-3.34 22.25-11.67 32.3-17.94z"/><use xlink:href="#C"/></g><path d="M294.3 290.46c17.64-17.52 23.1-33 23.1-47.36 0-26.56-25.83-43.12-25.83-43.12l-.4 11.13c11.76 9.73 17.73 20.78 17.73 32.92q0 1.9-.2 3.8c-2 20.3-21.07 42.34-49.78 57.78l-8.3 14.4s26.05-12 43.7-29.54z" class="Az"/><path d="M318.08 153c0-17.8-13.8-29-27.17-29h-40.26l8.26 8.15h29.7c10.6 0 18.44 6.3 20.48 16.4a27.82 27.82 0 0 1 .54 5.51c0 17.27-15.05 39.43-50.74 54.74l-8.3 11.7c9.8-1.76 29.42-11 41.2-20.5 14.3-11.5 26.3-29.2 26.3-47z" fill="url(#B)"/><g class="Az"><path d="M242.3 168.18v166.34L250.6 320V159.94z"/><path d="M250.62 159.94V124l-8.34-8.22s0-8.2 0 44.16z"/></g><path d="M130.5 157.16v-.06c-1.37-13.93-10.26-30.7-19.64-40.1l-8.48-8.68c-5.5-5.43-14.1-10-21.36-13-.26 34.47 4.74 90.3 12.2 118.38l1 3.68a59 59 0 0 0 36.59-54.52c0-1.83-.1-3.64-.26-5.43a1.52 1.52 0 0 0-.04-.27z" fill="#af0d1c"/><path d="M72.84 106.56a57.86 57.86 0 0 0-8.15.6c.75 35.4 5.5 83.9 12.6 110.73l.88 3.3a57.13 57.13 0 0 0 8.1-1.33c-8.63-33.07-13-79.33-13.44-113.3z" class="BA"/><path d="M86.3 219.85a57 57 0 0 0 7.9-2.5l-1-3.6c-6.65-25.08-11.34-72.24-12.1-106.6a57.91 57.91 0 0 0-8.18-.59h-.1c.48 33.98 4.84 80.24 13.48 113.3z" fill="#f39200"/><circle r="57.44" cy="149.98" cx="58.94" class="Az"/><g fill="none"><path d="M84.08 98.33c5.83 9 6.4 14.25 6.4 25.76A57.44 57.44 0 0 1 33 181.52c-11.5 0-18.4-4.22-27.38-10.05m.08.07c9 5.87 15.9 10.12 27.42 10.14a57.31 57.31 0 0 0 57.52-57.55c0-11.5-.64-16.8-6.5-25.78" stroke="#ffe500" class="Ay"/><path d="M5.72 171.6c9 5.9 15.9 10.18 27.45 10.24a57.25 57.25 0 0 0 57.6-57.66c-.06-11.52-.72-16.84-6.6-25.8m-78.4 73.3c9 5.94 15.94 10.25 27.5 10.33a57.19 57.19 0 0 0 57.68-57.78c-.08-11.52-.8-16.87-6.72-25.82" stroke="#ffe400" class="Ay"/><path d="M5.8 171.73c8.95 6 16 10.32 27.52 10.42a57.14 57.14 0 0 0 57.76-57.89c-.1-11.52-.87-16.9-6.83-25.84M5.82 171.8c8.94 6 16 10.4 27.55 10.5a57.09 57.09 0 0 0 56.31-43.88 57.52 57.52 0 0 0 1.54-14.13c-.14-11.53-1-16.94-6.94-25.86" stroke="#ffe300" class="Ay"/><g stroke="#ffe200" class="Ay"><path d="M5.86 171.86c8.93 6.06 16 10.45 27.6 10.6a57 57 0 0 0 56.42-44 57.48 57.48 0 0 0 1.51-14.16c-.17-11.53-1-17-7-25.88"/><path d="M5.9 171.92c8.92 6.1 16 10.52 27.62 10.7a57 57 0 0 0 56.54-44 57.46 57.46 0 0 0 1.47-14.2c-.2-11.53-1.1-17-7.16-25.9"/></g><g stroke="#ffe100" class="Ay"><path d="M5.92 172c8.9 6.13 16 10.6 27.66 10.8a56.94 56.94 0 0 0 56.65-44.11 57.45 57.45 0 0 0 1.44-14.23c-.23-11.54-1.2-17.05-7.27-25.92"/><path d="M6 172.05c8.9 6.17 16.06 10.66 27.7 10.9a56.89 56.89 0 0 0 56.77-44.19 57.9 57.9 0 0 0 1.41-14.27c-.28-11.54-1.27-17.1-7.38-25.94"/></g><g stroke="#ffe000" class="Ay"><path d="M6 172.12c8.9 6.2 16.08 10.72 27.73 11a56.84 56.84 0 0 0 56.87-44.29 58 58 0 0 0 1.4-14.31c-.3-11.54-1.35-17.12-7.48-26"/><path d="M6 172.18c8.88 6.25 16.1 10.8 27.76 11.07a57.51 57.51 0 0 0 11.63-.87 56.93 56.93 0 0 0 45.37-43.47 58 58 0 0 0 1.34-14.34c-.34-11.54-1.42-17.16-7.6-26"/></g><path d="M6.06 172.24c8.87 6.28 16.12 10.86 27.8 11.16a57.5 57.5 0 0 0 11.66-.85A56.88 56.88 0 0 0 91 139a58 58 0 0 0 1.31-14.37c-.37-11.55-1.5-17.2-7.7-26M6.1 172.3c8.86 6.32 16.14 10.93 27.83 11.26a57.43 57.43 0 0 0 11.69-.83 56.84 56.84 0 0 0 45.54-43.67 58 58 0 0 0 1.27-14.41c-.4-11.55-1.58-17.23-7.8-26" stroke="#ffdf00" class="Ay"/><path d="M6.13 172.37c8.85 6.36 16.16 11 27.86 11.35a57.45 57.45 0 0 0 11.71-.81 56.8 56.8 0 0 0 45.63-43.77 58 58 0 0 0 1.24-14.44c-.43-11.55-1.66-17.26-7.92-26.05m-78.5 73.8c8.84 6.4 16.18 11.06 27.9 11.44a57.43 57.43 0 0 0 11.74-.79 56.75 56.75 0 0 0 45.71-43.87 58.09 58.09 0 0 0 1.21-14.48c-.46-11.56-1.74-17.3-8-26.07" stroke="#ffde00" class="Ay"/><g stroke="#fd0" class="Ay"><path d="M6.2 172.5c8.8 6.44 16.2 11.13 27.93 11.5a57.38 57.38 0 0 0 11.77-.77 56.71 56.71 0 0 0 45.8-44 58.11 58.11 0 0 0 1.17-14.52c-.5-11.56-1.82-17.34-8.14-26.1"/><path d="M6.23 172.57c8.82 6.47 16.22 11.2 28 11.63a57.42 57.42 0 0 0 11.8-.74 56.67 56.67 0 0 0 45.89-44.07A58.14 58.14 0 0 0 93 124.83c-.52-11.56-1.9-17.37-8.25-26.1"/></g><g stroke="#ffdc00" class="Ay"><path d="M6.26 172.63c8.8 6.5 16.24 11.26 28 11.72a57.34 57.34 0 0 0 11.83-.72 56.63 56.63 0 0 0 46-44.17 58.13 58.13 0 0 0 1.11-14.59c-.55-11.56-2-17.4-8.36-26.13"/><path d="M6.3 172.7c8.8 6.55 16.27 11.33 28 11.8a57.32 57.32 0 0 0 11.86-.7 56.6 56.6 0 0 0 46.06-44.27 58.16 58.16 0 0 0 1.07-14.62c-.58-11.57-2.05-17.44-8.47-26.16"/></g><path d="M6.33 172.76c8.8 6.6 16.3 11.4 28.07 11.9a57.35 57.35 0 0 0 11.88-.67 56.56 56.56 0 0 0 46.14-44.37 58.18 58.18 0 0 0 1-14.66c-.6-11.57-2.13-17.48-8.58-26.18M6.36 172.82c8.78 6.62 16.3 11.47 28.1 12a57.34 57.34 0 0 0 11.92-.66 56.53 56.53 0 0 0 46.23-44.46 58.19 58.19 0 0 0 1-14.69c-.64-11.57-2.2-17.5-8.7-26.2M6.4 172.9c8.77 6.66 16.33 11.53 28.13 12.1a57.3 57.3 0 0 0 11.94-.64 56.49 56.49 0 0 0 46.32-44.57 58.21 58.21 0 0 0 1-14.73c-.67-11.58-2.3-17.55-8.8-26.22" stroke="#ffdb00" class="Ay"/><g stroke="#ffda00" class="Ay"><path d="M6.43 173c8.76 6.7 16.35 11.6 28.17 12.18a57.28 57.28 0 0 0 12-.61A56.46 56.46 0 0 0 93 139.86a58.21 58.21 0 0 0 .94-14.76c-.7-11.58-2.37-17.58-8.9-26.24"/><path d="M6.46 173c8.75 6.74 16.37 11.67 28.2 12.28a57.27 57.27 0 0 0 12-.59 56.43 56.43 0 0 0 46.49-44.77 58.23 58.23 0 0 0 .91-14.8c-.73-11.58-2.44-17.62-9-26.26"/></g><path d="M6.5 173.08c8.74 6.77 16.4 11.7 28.24 12.37a57.77 57.77 0 0 0 12-.57A56.4 56.4 0 0 0 93.34 140a58.23 58.23 0 0 0 .87-14.83c-.76-11.58-2.52-17.65-9.13-26.28M6.53 173.15c8.73 6.8 16.4 11.78 28.27 12.46a57.79 57.79 0 0 0 12.06-.55 56.37 56.37 0 0 0 46.66-45 58.28 58.28 0 0 0 .84-14.87c-.8-11.6-2.6-17.7-9.24-26.3" stroke="#ffd900" class="Ay"/><path d="M6.56 173.2c8.72 6.85 16.43 11.85 28.3 12.56a57.8 57.8 0 0 0 12.13-.53 56.34 56.34 0 0 0 46.7-45.07 58.3 58.3 0 0 0 .81-14.9c-.82-11.6-2.68-17.73-9.35-26.32M6.6 173.27c8.7 6.9 16.45 11.9 28.34 12.65a57.79 57.79 0 0 0 12.12-.51 56.31 56.31 0 0 0 46.83-45.17 58.3 58.3 0 0 0 .77-14.94c-.85-11.6-2.76-17.76-9.45-26.34" stroke="#ffd800" class="Ay"/><path d="M6.63 173.34c8.7 6.93 16.47 12 28.37 12.74a57.76 57.76 0 0 0 12.15-.48 56.28 56.28 0 0 0 46.92-45.27 58.29 58.29 0 0 0 .74-15c-.88-11.6-2.84-17.8-9.56-26.37M6.66 173.4c8.7 7 16.5 12 28.4 12.83a57.77 57.77 0 0 0 12.18-.46 56.26 56.26 0 0 0 47-45.37 58.3 58.3 0 0 0 .71-15C94 113.8 92 107.57 85.3 99" stroke="gold" class="Ay"/><path d="M6.7 173.47c8.68 7 16.52 12.1 28.44 12.93a57.76 57.76 0 0 0 12.2-.44 56.23 56.23 0 0 0 47.09-45.47 58.31 58.31 0 0 0 .67-15c-.94-11.6-3-17.87-9.78-26.4m-78.6 74.44c8.67 7 16.54 12.18 28.48 13a57.75 57.75 0 0 0 12.23-.42 56.21 56.21 0 0 0 47.18-45.56 58.32 58.32 0 0 0 .64-15.08c-1-11.6-3.07-17.9-9.9-26.43" stroke="#ffd600" class="Ay"/><path d="M6.76 173.6c8.66 7.08 16.56 12.25 28.5 13.1a57.77 57.77 0 0 0 12.26-.4 56.19 56.19 0 0 0 47.27-45.66 58.32 58.32 0 0 0 .61-15.11c-1-11.6-3.15-17.94-10-26.45M6.8 173.66c8.65 7.12 16.58 12.3 28.54 13.2a57.76 57.76 0 0 0 12.29-.38A56.16 56.16 0 0 0 95 140.73a58.32 58.32 0 0 0 .58-15.15c-1-11.6-3.23-18-10.1-26.47" stroke="#ffd500" class="Ay"/><path d="M6.83 173.73c8.64 7.15 16.6 12.38 28.58 13.3a57.72 57.72 0 0 0 12.32-.35 56.14 56.14 0 0 0 47.44-45.86 58.31 58.31 0 0 0 .54-15.18c-1.06-11.6-3.3-18-10.22-26.5M6.86 173.8c8.63 7.2 16.62 12.45 28.6 13.4a57.78 57.78 0 0 0 12.35-.33 56.12 56.12 0 0 0 47.52-46 58.34 58.34 0 0 0 .51-15.22c-1.1-11.62-3.4-18-10.33-26.5" stroke="#ffd400" class="Ay"/><path d="M6.9 173.85c8.62 7.23 16.64 12.5 28.65 13.48a57.72 57.72 0 0 0 12.37-.33 56.1 56.1 0 0 0 47.61-46 58.38 58.38 0 0 0 .47-15.29c-1.12-11.62-3.46-18.08-10.44-26.53M6.93 173.92c8.6 7.27 16.66 12.58 28.68 13.58a57.71 57.71 0 0 0 12.39-.29A56.08 56.08 0 0 0 95.72 141a58.36 58.36 0 0 0 .44-15.29C95 114.13 92.6 107.64 85.6 99.2" stroke="#ffd300" class="Ay"/><g stroke="#ffd200" class="Ay"><path d="M7 174c8.6 7.3 16.68 12.65 28.72 13.67a57.74 57.74 0 0 0 12.44-.27 56.07 56.07 0 0 0 47.74-46.28 58.35 58.35 0 0 0 .41-15.33c-1.18-11.62-3.62-18.15-10.66-26.58"/><path d="M7 174c8.6 7.34 16.7 12.7 28.75 13.76a57.73 57.73 0 0 0 12.46-.24 56 56 0 0 0 47.87-46.32 58.35 58.35 0 0 0 .37-15.36c-1.2-11.63-3.7-18.2-10.77-26.6"/></g><path d="M7 174.1c8.58 7.38 16.72 12.78 28.78 13.85a57.72 57.72 0 0 0 12.49-.22 56 56 0 0 0 48-46.46 58.35 58.35 0 0 0 .34-15.4c-1.24-11.63-3.78-18.22-10.88-26.62" stroke="#ffd100" class="Ay"/><path d="M7.07 174.18c8.57 7.42 16.74 12.85 28.82 13.95a57.71 57.71 0 0 0 12.52-.2 56 56 0 0 0 48-46.56 58.37 58.37 0 0 0 .31-15.43c-1.27-11.63-3.86-18.26-11-26.64M7.1 174.24c8.56 7.46 16.76 12.92 28.85 14a57.71 57.71 0 0 0 12.55-.18 56 56 0 0 0 48.13-46.66 58.37 58.37 0 0 0 .27-15.4c-1.3-11.64-3.94-18.3-11.1-26.66" stroke="#ffd000" class="Ay"/><path d="M7.13 174.3c8.55 7.5 16.8 13 28.9 14.13a57.69 57.69 0 0 0 12.58-.16 56 56 0 0 0 48.21-46.76 58.36 58.36 0 0 0 .24-15.5c-1.33-11.64-4-18.33-11.2-26.68m-78.7 75.04c8.54 7.53 16.8 13 28.92 14.23a57.68 57.68 0 0 0 12.61-.14A56 56 0 0 0 97 141.6a58.36 58.36 0 0 0 .21-15.54c-1.36-11.64-4.1-18.36-11.3-26.7" stroke="#ffcf00" class="Ay"/><path d="M7.2 174.43c8.53 7.57 16.83 13.12 29 14.32a57.71 57.71 0 0 0 12.64-.11 56 56 0 0 0 48.39-47 58.37 58.37 0 0 0 .18-15.57c-1.4-11.6-4.23-18.37-11.48-26.7M7.23 174.5c8.52 7.6 16.85 13.18 29 14.4a57.67 57.67 0 0 0 12.67-.09 56 56 0 0 0 48.47-47.06 58.35 58.35 0 0 0 .14-15.61C96.1 114.5 93.25 107.7 86 99.4" stroke="#ffce00" class="Ay"/><g stroke="#ffcd00" class="Ay"><path d="M7.27 174.56c8.5 7.64 16.87 13.25 29 14.5A57.69 57.69 0 0 0 49 189a55.94 55.94 0 0 0 48.56-47.16 58.35 58.35 0 0 0 .11-15.64C96.2 114.54 93.32 107.72 86 99.43"/><path d="M7.3 174.63c8.5 7.68 16.9 13.32 29.06 14.6a57.62 57.62 0 0 0 12.72 0 55.93 55.93 0 0 0 48.64-47.26 58.35 58.35 0 0 0 .08-15.68c-1.47-11.65-4.4-18.5-11.75-26.8"/></g><path d="M7.33 174.7c8.5 7.72 16.9 13.38 29.1 14.7a57.65 57.65 0 0 0 12.75 0A55.92 55.92 0 0 0 97.91 142a58.33 58.33 0 0 0 0-15.71c-1.5-11.65-4.48-18.54-11.86-26.8M7.37 174.75c8.48 7.76 16.93 13.45 29.12 14.78a57.68 57.68 0 0 0 12.78 0 55.91 55.91 0 0 0 48.82-47.46 58.33 58.33 0 0 0 0-15.75c-1.53-11.66-4.56-18.58-12-26.83" stroke="#fc0" class="Ay"/><path d="M7.4 174.82c8.47 7.8 17 13.52 29.16 14.88a57.63 57.63 0 0 0 12.81 0 55.9 55.9 0 0 0 48.9-47.56 58.32 58.32 0 0 0 0-15.78c-1.56-11.66-4.64-18.6-12.08-26.85M7.44 174.88c8.46 7.83 17 13.6 29.2 15a57.62 57.62 0 0 0 12.84 0 55.89 55.89 0 0 0 49-47.66 58.32 58.32 0 0 0-.06-15.82c-1.6-11.66-4.72-18.65-12.2-26.87" stroke="#ffcb00" class="Ay"/><path d="M7.47 174.95c8.45 7.87 17 13.65 29.23 15.06a57.62 57.62 0 0 0 12.87.06 55.89 55.89 0 0 0 49.08-47.76 58.3 58.3 0 0 0-.09-15.85c-1.62-11.67-4.8-18.68-12.3-26.9M7.5 175c8.44 7.9 17 13.72 29.26 15.15a57.61 57.61 0 0 0 12.9.08 55.88 55.88 0 0 0 49.16-47.86 58.28 58.28 0 0 0-.12-15.89c-1.65-11.67-4.88-18.72-12.4-26.9" stroke="#ffca00" class="Ay"/><path d="M7.54 175.08c8.43 7.95 17 13.8 29.3 15.25a57.61 57.61 0 0 0 12.93.1 55.88 55.88 0 0 0 49.25-48 58.3 58.3 0 0 0-.16-15.92c-1.67-11.67-5-18.75-12.52-26.93" stroke="#fec900" class="Ay"/><g stroke="#fec800" class="Ay"><path d="M7.57 175.14c8.42 8 17.05 13.86 29.33 15.34a57.6 57.6 0 0 0 13 .12 55.87 55.87 0 0 0 49.33-48.06 58.28 58.28 0 0 0-.19-16c-1.7-11.67-5-18.8-12.63-27"/><path d="M7.6 175.2c8.4 8 17.08 13.92 29.36 15.43a57.6 57.6 0 0 0 13 .15 55.87 55.87 0 0 0 49.42-48.16 58.28 58.28 0 0 0-.22-16C97.42 115 94 107.8 86.4 99.65"/></g><g stroke="#fec700" class="Ay"><path d="M7.64 175.27c8.4 8.06 17.1 14 29.4 15.53A57.56 57.56 0 0 0 50 191a55.86 55.86 0 0 0 49.55-48.3 58.29 58.29 0 0 0-.26-16c-1.76-11.68-5.2-18.86-12.85-27"/><path d="M7.67 175.33c8.4 8.1 17.12 14.06 29.43 15.62a57.59 57.59 0 0 0 13 .19 55.86 55.86 0 0 0 49.59-48.36 58.27 58.27 0 0 0-.29-16.07c-1.8-11.68-5.27-18.9-13-27"/></g><path d="M7.7 175.4c8.38 8.14 17.14 14.12 29.47 15.7a57.56 57.56 0 0 0 13.07.21 55.86 55.86 0 0 0 49.68-48.46 58.26 58.26 0 0 0-.32-16.1c-1.82-11.68-5.35-18.93-13.06-27m-78.8 75.7c8.37 8.17 17.16 14.2 29.5 15.8a57.55 57.55 0 0 0 13.1.23 55.86 55.86 0 0 0 49.77-48.56 58.24 58.24 0 0 0-.36-16.14c-1.85-11.7-5.43-19-13.17-27.06" stroke="#fec600" class="Ay"/><path d="M7.77 175.53c8.36 8.2 17.18 14.26 29.53 15.9a57.57 57.57 0 0 0 13.13.25A55.85 55.85 0 0 0 100.29 143a58.23 58.23 0 0 0-.39-16.17c-1.87-11.7-5.5-19-13.28-27.08" stroke="#fec500" class="Ay"/><path d="M7.8 175.6c8.35 8.25 17.2 14.33 29.57 16a57.54 57.54 0 0 0 13.16.28 55.86 55.86 0 0 0 49.94-48.76 58.23 58.23 0 0 0-.42-16.21c-1.9-11.7-5.58-19-13.4-27.1" stroke="#fdc500" class="Ay"/><path d="M7.84 175.66c8.34 8.3 17.22 14.4 29.6 16.08a57.54 57.54 0 0 0 13.19.3 55.85 55.85 0 0 0 50-48.86 58.22 58.22 0 0 0-.46-16.24c-1.93-11.7-5.66-19.07-13.5-27.12m-78.8 75.9C16.2 184 25.1 190.18 37.5 191.9a57.54 57.54 0 0 0 13.21.32 55.86 55.86 0 0 0 50.11-49 58.22 58.22 0 0 0-.49-16.28c-2-11.7-5.74-19.1-13.6-27.14" stroke="#fdc400" class="Ay"/><path d="M7.9 175.78c8.32 8.36 17.26 14.53 29.67 16.27a57.53 57.53 0 0 0 13.24.34A55.86 55.86 0 0 0 101 143.34a58.21 58.21 0 0 0-.52-16.31c-2-11.7-5.82-19.14-13.72-27.16M7.94 175.85c8.3 8.4 17.28 14.6 29.7 16.36a57.53 57.53 0 0 0 13.27.36 55.86 55.86 0 0 0 50.28-49.16 58.19 58.19 0 0 0-.56-16.35c-2-11.7-5.9-19.18-13.83-27.2" stroke="#fdc300" class="Ay"/><path d="M8 175.9c8.3 8.44 17.3 14.66 29.74 16.45a57.5 57.5 0 0 0 13.3.38 55.86 55.86 0 0 0 50.37-49.26 58.18 58.18 0 0 0-.59-16.38c-2-11.7-6-19.2-13.94-27.2" stroke="#fdc200" class="Ay"/><g stroke="#fdc100" class="Ay"><path d="M8 176c8.3 8.48 17.32 14.73 29.77 16.55a57.53 57.53 0 0 0 13.33.41 55.86 55.86 0 0 0 50.45-49.36 58.17 58.17 0 0 0-.62-16.42c-2.07-11.7-6.05-19.25-14-27.23"/><path d="M8 176c8.28 8.5 17.35 14.8 29.8 16.64a57.49 57.49 0 0 0 13.36.43 55.87 55.87 0 0 0 50.54-49.46 58.15 58.15 0 0 0-.66-16.45C99 115.5 95 107.9 86.93 100"/></g><path d="M8.07 176.1c8.27 8.55 17.37 14.86 29.84 16.73a57.47 57.47 0 0 0 13.39.45 55.87 55.87 0 0 0 50.63-49.56 58.13 58.13 0 0 0-.69-16.49C99.1 115.53 95 107.92 87 100" stroke="#fdc000" class="Ay"/><path d="M8.1 176.17c8.26 8.6 17.4 14.93 29.9 16.83a57.48 57.48 0 0 0 13.42.47 55.88 55.88 0 0 0 50.71-49.66 58.11 58.11 0 0 0-.72-16.52c-2.18-11.72-6.3-19.36-14.4-27.3" stroke="#fcc000" class="Ay"/><path d="M8.14 176.24c8.25 8.63 17.4 15 29.9 16.92a57.47 57.47 0 0 0 13.45.49 55.88 55.88 0 0 0 50.8-49.75 58.12 58.12 0 0 0-.76-16.56c-2.2-11.72-6.37-19.4-14.5-27.3M8.17 176.3c8.24 8.67 17.43 15.07 29.94 17a57.46 57.46 0 0 0 13.47.51 55.88 55.88 0 0 0 50.9-49.81 58.09 58.09 0 0 0-.79-16.6c-2.2-11.73-6.45-19.43-14.6-27.33" stroke="#fcbf00" class="Ay"/><path d="M8.2 176.36c8.23 8.7 17.45 15.13 30 17.1a57.47 57.47 0 0 0 13.5.54 55.89 55.89 0 0 0 51-50 58.1 58.1 0 0 0-.82-16.63c-2.3-11.68-6.58-19.37-14.76-27.3M8.24 176.43c8.22 8.74 17.47 15.2 30 17.2a57.44 57.44 0 0 0 13.53.56 55.9 55.9 0 0 0 51.06-50.05 58.06 58.06 0 0 0-.86-16.67c-2.27-11.73-6.6-19.5-14.82-27.38" stroke="#fcbe00" class="Ay"/><path d="M8.28 176.5c8.2 8.78 17.5 15.27 30 17.3a57.44 57.44 0 0 0 13.56.58A55.9 55.9 0 0 0 103 144.21a58.06 58.06 0 0 0-.89-16.7c-2.3-11.73-6.68-19.53-14.92-27.4M8.3 176.56c8.2 8.82 17.5 15.34 30.08 17.38a57.44 57.44 0 0 0 13.59.6 55.91 55.91 0 0 0 51.23-50.25 58.05 58.05 0 0 0-.92-16.74c-2.33-11.74-6.76-19.57-15-27.42" stroke="#fcbd00" class="Ay"/><path d="M8.34 176.62c8.2 8.85 17.53 15.4 30.12 17.47a57.41 57.41 0 0 0 13.62.62 55.92 55.92 0 0 0 51.32-50.35 58 58 0 0 0-1-16.77c-2.35-11.74-6.84-19.6-15.14-27.44" stroke="#fcbc00" class="Ay"/><path d="M8.38 176.7c8.18 8.9 17.55 15.47 30.15 17.57a57.45 57.45 0 0 0 13.65.65 55.93 55.93 0 0 0 51.4-50.45 58 58 0 0 0-1-16.81c-2.38-11.75-6.9-19.65-15.25-27.47" stroke="#fcbb00" class="Ay"/><path d="M8.4 176.75c8.17 8.93 17.57 15.54 30.18 17.66a57.4 57.4 0 0 0 13.68.67 55.94 55.94 0 0 0 51.49-50.55 58 58 0 0 0-1-16.84c-2.4-11.75-7-19.68-15.36-27.48" stroke="#fbbb00" class="Ay"/><path d="M8.44 176.8c8.16 9 17.6 15.6 30.22 17.75a57.4 57.4 0 0 0 13.71.69 56 56 0 0 0 51.58-50.65 58 58 0 0 0-1.06-16.88c-2.44-11.7-7.1-19.7-15.47-27.5M8.48 176.88c8.15 9 17.6 15.67 30.25 17.85a57.43 57.43 0 0 0 13.73.71 56 56 0 0 0 51.66-50.75 58 58 0 0 0-1.12-16.92C100.57 116 95.88 108 87.46 100.25" stroke="#fbba00" class="Ay"/><path d="M8.5 176.94c8.14 9 17.64 15.74 30.3 17.94a57.41 57.41 0 0 0 13.76.73 56 56 0 0 0 51.75-50.85 58 58 0 0 0-1.12-16.95c-2.5-11.75-7.2-19.8-15.7-27.54M8.54 177c8.13 9.08 17.66 15.8 30.32 18a57.41 57.41 0 0 0 13.79.75 56 56 0 0 0 51.83-51 58 58 0 0 0-1.16-17C100.8 116.1 96 108 87.54 100.3" stroke="#fbb900" class="Ay"/><path d="M8.58 177.07c8.12 9.12 17.68 15.88 30.35 18.12a57.39 57.39 0 0 0 13.82.78 56 56 0 0 0 51.92-51.05 57.94 57.94 0 0 0-1.19-17c-2.55-11.76-7.4-19.85-15.9-27.6" stroke="#fbb800" class="Ay"/><path d="M8.6 177.14c8.1 9.16 17.7 15.94 30.4 18.22a57.39 57.39 0 0 0 13.85.8 56 56 0 0 0 52-51.15 57.94 57.94 0 0 0-1.22-17.05c-2.58-11.76-7.47-19.9-16-27.6M8.65 177.2c8.1 9.2 17.72 16 30.42 18.3a57.4 57.4 0 0 0 13.88.82A56 56 0 0 0 105 145.08a57.92 57.92 0 0 0-1.22-17.08c-2.6-11.77-7.55-19.92-16.13-27.63" stroke="#fbb700" class="Ay"/><path d="M8.68 177.27c8.1 9.23 17.74 16.08 30.46 18.4a57.38 57.38 0 0 0 13.91.84 56 56 0 0 0 52.18-51.35 57.9 57.9 0 0 0-1.3-17.16 48.79 48.79 0 0 0-16.23-27.62m-79 76.95c8.08 9.27 17.76 16.15 30.5 18.5a57.36 57.36 0 0 0 13.94.86 56 56 0 0 0 52.27-51.45 57.89 57.89 0 0 0-1.32-17.16 48.92 48.92 0 0 0-16.35-27.67" stroke="#fab600" class="Ay"/><g stroke="#fab500" class="Ay"><path d="M8.75 177.4c8.07 9.3 17.78 16.22 30.52 18.6a57.37 57.37 0 0 0 14 .88 56.05 56.05 0 0 0 52.35-51.55 57.88 57.88 0 0 0-1.35-17.19 49.06 49.06 0 0 0-16.46-27.69"/><path d="M8.78 177.46c8.06 9.35 17.8 16.28 30.56 18.68a57.35 57.35 0 0 0 14 .91 56.06 56.06 0 0 0 52.44-51.65 57.86 57.86 0 0 0-1.39-17.23 49.2 49.2 0 0 0-16.57-27.71"/></g><path d="M8.8 177.52c8.05 9.38 17.82 16.35 30.6 18.77a57.35 57.35 0 0 0 14 .93 56.08 56.08 0 0 0 52.6-51.75 57.87 57.87 0 0 0-1.42-17.26 49.33 49.33 0 0 0-16.67-27.73" stroke="#fab400" class="Ay"/><path d="M8.85 177.6c8 9.42 17.84 16.42 30.63 18.87a57.36 57.36 0 0 0 14.05.95 56.09 56.09 0 0 0 52.61-51.85 57.85 57.85 0 0 0-1.46-17.3A49.47 49.47 0 0 0 87.9 100.5M8.88 177.65c8 9.46 17.86 16.5 30.66 19a57.34 57.34 0 0 0 14.08 1 56.11 56.11 0 0 0 52.7-52 57.83 57.83 0 0 0-1.49-17.34 49.61 49.61 0 0 0-16.89-27.78" stroke="#fab300" class="Ay"/><path d="M8.9 177.72c8 9.5 17.88 16.55 30.7 19.05a57.35 57.35 0 0 0 14.11 1 56.12 56.12 0 0 0 52.78-52 57.81 57.81 0 0 0-1.5-17.43 49.74 49.74 0 0 0-17-27.8" stroke="#fab200" class="Ay"/><path d="M8.95 177.78c8 9.54 17.9 16.62 30.73 19.14a57.33 57.33 0 0 0 14.14 1 56.14 56.14 0 0 0 52.87-52.15 57.8 57.8 0 0 0-1.55-17.41A49.88 49.88 0 0 0 88 100.57" stroke="#f9b200" class="Ay"/><g stroke="#f9b100" class="Ay"><path d="M9 177.84c8 9.57 17.92 16.7 30.76 19.24a57.34 57.34 0 0 0 14.17 1 56.16 56.16 0 0 0 53-52.25 57.78 57.78 0 0 0-1.59-17.44 50 50 0 0 0-17.22-27.84"/><path d="M9 177.9c8 9.6 17.95 16.76 30.8 19.33A57.31 57.31 0 0 0 54 198.3a56.17 56.17 0 0 0 53-52.35 57.79 57.79 0 0 0-1.62-17.48 50.16 50.16 0 0 0-17.28-27.86"/></g><path d="M9 178c8 9.65 18 16.83 30.83 19.42a57.34 57.34 0 0 0 14.23 1.08 56.19 56.19 0 0 0 53.17-52.5 57.75 57.75 0 0 0-1.65-17.51 50.29 50.29 0 0 0-17.44-27.88" stroke="#f9b000" class="Ay"/><g stroke="#f9af00" class="Ay"><path d="M9.08 178c8 9.7 18 16.9 30.87 19.52a57.29 57.29 0 0 0 14.25 1.1 56.21 56.21 0 0 0 53.21-52.55 57.74 57.74 0 0 0-1.69-17.55 50.44 50.44 0 0 0-17.55-27.9"/><path d="M9.12 178.1c8 9.72 18 17 30.9 19.6a57.33 57.33 0 0 0 14.28 1.12 56.22 56.22 0 0 0 53.3-52.65 57.74 57.74 0 0 0-1.72-17.58 50.58 50.58 0 0 0-17.66-27.92"/></g><path d="M9.15 178.17c8 9.76 18 17 30.93 19.7A57.32 57.32 0 0 0 54.4 199a56.24 56.24 0 0 0 53.39-52.75 57.71 57.71 0 0 0-1.79-17.6 50.72 50.72 0 0 0-17.74-27.95M9.18 178.23c7.94 9.8 18 17.1 31 19.8a57.31 57.31 0 0 0 14.34 1.17A56.26 56.26 0 0 0 108 146.34a57.7 57.7 0 0 0-1.79-17.65 50.86 50.86 0 0 0-17.88-28" stroke="#f9ae00" class="Ay"/><path d="M9.22 178.3c7.93 9.84 18.07 17.16 31 19.9a57.31 57.31 0 0 0 14.37 1.19 56.28 56.28 0 0 0 53.56-52.95 57.7 57.7 0 0 0-1.82-17.69 51 51 0 0 0-18-28" stroke="#f9ad00" class="Ay"/><path d="M9.25 178.36c7.92 9.88 18.1 17.23 31 20a57.32 57.32 0 0 0 14.4 1.21 56.3 56.3 0 0 0 53.64-53 57.7 57.7 0 0 0-1.85-17.72 51.14 51.14 0 0 0-18.1-28M9.28 178.42c7.9 9.9 18.1 17.3 31.07 20.07a57.31 57.31 0 0 0 14.43 1.23 56.32 56.32 0 0 0 53.73-53.15 57.69 57.69 0 0 0-1.89-17.76 51.28 51.28 0 0 0-18.21-28" stroke="#f8ac00" class="Ay"/><path d="M9.32 178.5c7.9 10 18.13 17.37 31.1 20.17a57.3 57.3 0 0 0 14.46 1.25 56.34 56.34 0 0 0 53.82-53.25 57.66 57.66 0 0 0-1.92-17.79 51.42 51.42 0 0 0-18.32-28m-79.1 77.67c7.9 10 18.15 17.44 31.14 20.26A57.3 57.3 0 0 0 55 200.09a56.36 56.36 0 0 0 53.9-53.35 57.66 57.66 0 0 0-2-17.83 51.56 51.56 0 0 0-18.4-28.07" stroke="#f8ab00" class="Ay"/><path d="M9.38 178.62c7.88 10 18.17 17.5 31.17 20.35a57.29 57.29 0 0 0 14.51 1.3 56.38 56.38 0 0 0 54-53.45 57.65 57.65 0 0 0-2-17.86 51.71 51.71 0 0 0-18.53-28.09m-79.1 77.8c7.87 10.06 18.2 17.57 31.2 20.44a57.31 57.31 0 0 0 14.54 1.32 56.4 56.4 0 0 0 54.07-53.55 57.62 57.62 0 0 0-2-17.9 51.85 51.85 0 0 0-18.64-28.11" stroke="#f8aa00" class="Ay"/><path d="M9.45 178.75c7.86 10.1 18.2 17.64 31.24 20.54a57.32 57.32 0 0 0 14.57 1.34A56.42 56.42 0 0 0 109.43 147a57.61 57.61 0 0 0-2.06-18 52 52 0 0 0-18.75-28.13" stroke="#f8a900" class="Ay"/><path d="M9.5 178.8c7.85 10.14 18.23 17.73 31.28 20.63a56.41 56.41 0 0 0 68.85-52.38 57.6 57.6 0 0 0-2.09-18 52.13 52.13 0 0 0-18.86-28.16" stroke="#f8a800" class="Ay"/><path d="M9.52 178.87c7.84 10.18 18.25 17.8 31.3 20.72a56.44 56.44 0 0 0 69-52.46 57.57 57.57 0 0 0-2.12-18A52.28 52.28 0 0 0 88.7 101" stroke="#f7a800" class="Ay"/><g stroke="#f7a700" class="Ay"><path d="M9.55 178.94c7.83 10.22 18.27 17.87 31.34 20.82A56.46 56.46 0 0 0 110 147.21a57.57 57.57 0 0 0-2.15-18A52.42 52.42 0 0 0 88.74 101"/><path d="M9.6 179c7.82 10.25 18.3 17.94 31.38 20.9a56.48 56.48 0 0 0 69.19-52.62 57.57 57.57 0 0 0-2.16-18.07A52.57 52.57 0 0 0 88.78 101"/></g><path d="M9.62 179.07c7.8 10.3 18.3 18 31.4 21a56.51 56.51 0 0 0 69.31-52.7 57.57 57.57 0 0 0-2.22-18.11A52.71 52.71 0 0 0 88.82 101" stroke="#f7a600" class="Ay"/><g stroke="#f7a500" class="Ay"><path d="M9.65 179.13c7.8 10.33 18.35 18.07 31.45 21.1a56.53 56.53 0 0 0 69.42-52.77 57.54 57.54 0 0 0-2.25-18.15A52.86 52.86 0 0 0 88.86 101"/><path d="M9.7 179.2c7.8 10.37 18.35 18.14 31.48 21.2a56.56 56.56 0 0 0 69.54-52.85 57.55 57.55 0 0 0-2.29-18.18 53 53 0 0 0-19.52-28.29"/></g><path d="M9.72 179.26c7.78 10.4 18.37 18.2 31.52 21.28a56.58 56.58 0 0 0 69.65-52.93 57.53 57.53 0 0 0-2.32-18.22 53.14 53.14 0 0 0-19.63-28.3m-79.2 78.24c7.77 10.44 18.4 18.27 31.55 21.37a56.61 56.61 0 0 0 69.77-53 57.5 57.5 0 0 0-2.35-18.25A53.29 53.29 0 0 0 89 101.11" stroke="#f7a400" class="Ay"/><path d="M9.8 179.4c7.76 10.48 18.4 18.34 31.58 21.46a56.64 56.64 0 0 0 69.88-53.09 57.51 57.51 0 0 0-2.39-18.29A53.44 53.44 0 0 0 89 101.14" stroke="#f6a300" class="Ay"/><path d="M9.82 179.45C17.58 190 28.26 197.86 41.44 201a56.66 56.66 0 0 0 70-53.16 57.49 57.49 0 0 0-2.44-18.31 53.58 53.58 0 0 0-20-28.37M9.86 179.52C17.6 190.07 28.3 198 41.5 201.17a56.69 56.69 0 0 0 70.11-53.24 57.47 57.47 0 0 0-2.45-18.36 53.73 53.73 0 0 0-20.07-28.39" stroke="#f6a200" class="Ay"/><path d="M9.9 179.58c7.73 10.6 18.48 18.54 31.7 21.74A56.72 56.72 0 0 0 111.8 148a57.47 57.47 0 0 0-2.49-18.39 53.88 53.88 0 0 0-20.18-28.41" stroke="#f6a100" class="Ay"/><g stroke="#f6a000" class="Ay"><path d="M9.92 179.65c7.72 10.63 18.5 18.6 31.72 21.84a56.74 56.74 0 0 0 70.36-53.4 57.47 57.47 0 0 0-2.52-18.43 54 54 0 0 0-20.29-28.43"/><path d="M10 179.7c7.7 10.67 18.52 18.68 31.75 21.93a56.77 56.77 0 0 0 70.46-53.48 57.45 57.45 0 0 0-2.55-18.46 54.17 54.17 0 0 0-20.39-28.45"/></g><path d="M10 179.78c7.7 10.7 18.54 18.74 31.8 22a56.8 56.8 0 0 0 70.57-53.55 57.44 57.44 0 0 0-2.59-18.5 54.31 54.31 0 0 0-20.5-28.47" stroke="#f69f00" class="Ay"/><path d="M10 179.84A55.63 55.63 0 0 0 41.85 202a56.83 56.83 0 0 0 70.69-53.63 57.43 57.43 0 0 0-2.62-18.53A54.47 54.47 0 0 0 89.3 101.3" stroke="#f59f00" class="Ay"/><path d="M10.06 179.9a55.71 55.71 0 0 0 31.86 22.21 56.85 56.85 0 0 0 70.8-53.71 57.43 57.43 0 0 0-2.65-18.57 54.61 54.61 0 0 0-20.72-28.51" stroke="#f59e00" class="Ay"/><g stroke="#f59d00" class="Ay"><path d="M10.1 180A55.81 55.81 0 0 0 42 202.27a56.88 56.88 0 0 0 70.92-53.79 57.42 57.42 0 0 0-2.69-18.6 54.76 54.76 0 0 0-20.83-28.53"/><path d="M10.12 180A55.9 55.9 0 0 0 42 202.43a56.88 56.88 0 0 0 68.31-72.51 54.91 54.91 0 0 0-20.94-28.55"/></g><path d="M10.16 180.1a56 56 0 0 0 32 22.49A56.91 56.91 0 0 0 110.51 130a55.06 55.06 0 0 0-21.05-28.58M10.2 180.16a56.08 56.08 0 0 0 32 22.58A56.94 56.94 0 0 0 110.66 130a55.21 55.21 0 0 0-21.16-28.6" stroke="#f59c00" class="Ay"/><path d="M10.23 180.23a56.17 56.17 0 0 0 32 22.67 57 57 0 0 0 68.56-72.85 55.36 55.36 0 0 0-21.27-28.62M10.26 180.3a56.26 56.26 0 0 0 32.06 22.76 57 57 0 0 0 68.64-73 55.51 55.51 0 0 0-21.38-28.64" stroke="#f59b00" class="Ay"/><path d="M10.3 180.36a56.35 56.35 0 0 0 32.1 22.86 57 57 0 0 0 68.72-73.07 55.66 55.66 0 0 0-21.49-28.66" stroke="#f59a00" class="Ay"/><path d="M10.33 180.42a56.45 56.45 0 0 0 32.13 22.95 57.07 57.07 0 0 0 68.81-73.19 55.65 55.65 0 0 0-21.6-28.68m-79.3 78.98a56.54 56.54 0 0 0 32.16 23 57.1 57.1 0 0 0 68.89-73.3 55.82 55.82 0 0 0-21.71-28.7" stroke="#f49900" class="Ay"/><g stroke="#f49800" class="Ay"><path d="M10.4 180.55a56.63 56.63 0 0 0 32.2 23.14 57.13 57.13 0 0 0 69-73.41 56 56 0 0 0-21.82-28.72"/><path d="M10.43 180.6a57.05 57.05 0 0 0 101.28-50.3 56.15 56.15 0 0 0-21.93-28.74"/></g><path d="M10.46 180.68a57.1 57.1 0 0 0 101.4-50.32 56.3 56.3 0 0 0-22-28.77" stroke="#f49700" class="Ay"/><path d="M10.5 180.74A57.14 57.14 0 0 0 112 130.4a56.47 56.47 0 0 0-22.14-28.79m-79.33 79.2a57.17 57.17 0 1 0 79.37-79.17" stroke="#f49600" class="Ay"/><path d="M10.56 180.87a57.21 57.21 0 1 0 79.38-79.21M10.6 180.94A57.26 57.26 0 1 0 90 101.69" stroke="#f49500" class="Ay"/><path d="M10.63 181A57.3 57.3 0 1 0 90 101.71" stroke="#f39400" class="Ay"/><path d="M10.66 181.06a57.34 57.34 0 1 0 79.4-79.33m-79.36 79.4a57.39 57.39 0 1 0 79.4-79.38" stroke="#f39300" class="Ay"/><path d="M10.73 181.2a57.43 57.43 0 1 0 79.42-79.42" stroke="#f39200" class="Ay"/><g stroke="#1d1d1b" stroke-width="3"><circle r="57.44" cy="149.98" cx="58.94"/><g stroke-linecap="round"><path d="M116.12 144.48c-1.68-10.67-21.18-14.48-29.3 2 7.92 17.93 3.67 40.18-21.46 60.24"/><path d="M58.94 150c6.06-7.8 15-14.15 27.9-3.48m-61.26-43.3c-8.4 6.8-2 25.6 16.4 24.35 11.56-15.82 33-23.26 62.9-11.53M58.94 150c-9.8-1.35-19.74-5.9-17-22.42m-6.84 74.68c10.08 3.88 23.13-11.1 12.9-26.38-19.48-2.1-36.63-16.88-41.44-48.7"/><path d="M58.94 150c3.73 9.15 4.77 20-10.94 25.9"/></g></g></g></g></svg>