<?xml version="1.0" encoding="UTF-8"?>
<svg width="79.705px" height="62.308px" enable-background="new 0 0 283.5 222.1" version="1.1" viewBox="0 0 283.5 222.1" xml:space="preserve" xmlns="http://www.w3.org/2000/svg" xmlns:xlink="http://www.w3.org/1999/xlink">
<style type="text/css">
	.st0{clip-path:url(#t);}
	.st1{clip-path:url(#o);enable-background:new    ;}
	.st2{clip-path:url(#i);}
	.st3{clip-path:url(#f);}
	.st4{clip-path:url(#e);fill:#FFFFFF;}
	.st5{clip-path:url(#d);}
	.st6{clip-path:url(#c);fill:#F3E305;}
	.st7{clip-path:url(#b);}
	.st8{clip-path:url(#a);fill:#E22726;}
	.st9{clip-path:url(#v);}
	.st10{clip-path:url(#u);fill:#1B181C;}
</style>
		<defs>
			<polyline id="s" points="0 0.1 283.5 0.1 283.5 221.9 0 221.9"/>
		</defs>
		<clipPath id="t">
			<use xlink:href="#s"/>
		</clipPath>
		<g class="st0">
			<defs>
				<rect id="r" x="-302.1" y="-40" width="1666.1" height="16750"/>
			</defs>
			<clipPath id="o">
				<use xlink:href="#r"/>
			</clipPath>
			<g class="st1">
					<defs>
						<rect id="q" width="284.3" height="222.1"/>
					</defs>
					<clipPath id="i">
						<use xlink:href="#q"/>
					</clipPath>
					<g class="st2">
						<defs>
							<path id="p" d="m81.2 12.2c1.5-1.6 4.8-4.8 11-4.6 3.9-1.8 8.3-1.1 9.9-0.1 0 0 2.8-0.1 4.6 0.8 11-3.7 22.8-5.7 35-5.7s24 2 35 5.7c1.8-0.9 4.6-0.8 4.6-0.8 1.6-1 6.1-1.7 9.9 0.1 6.2-0.2 9.5 3 11 4.6 0.9-2.4 2.3-4.4 5.8-5.6 1.2-6.4 9.7-9.3 21.5-3.4 5.3-4.8 13.1 0.3 15.6 7.2 3.9-1 10.1 2.6 9.7 14.2 4 0.2 5.5 4.3 4.4 11.1 2.4-0.5 13.9-2.6 22.2 7.8 4 5 1.7 11.4-2.5 14.5-0.3 0.8-2 7.7-7.3 10.6-0.3 3.5 5.8 11.1 8.2 16 6.5 14 3.3 37.7-20.8 41.8 1.1 1 3.5 4.3 4.3 7.1 1 3.6 0.3 7.1-1.6 10-2 3.3-9.4 7.9-11.3 10.2 3.4 2 7.4 6.2 5.6 14l-6.9 30.6c-1.1 5-4.5 9.2-9.9 10.3-2.8 0.6-5.7 0-7.4-0.5-12-3.2-20.7-0.7-34 3.6-6.9 2.2-14.5 4.7-23.4 6.6-9.2 2-19.8 3.4-32.6 3.4-12.9 0-23.5-1.4-32.6-3.4-9-1.9-16.5-4.4-23.4-6.6-13.3-4.3-22-6.7-34-3.6-1.7 0.5-4.6 1-7.4 0.5-5.5-1.1-8.8-5.3-9.9-10.3l-6.9-30.6c-1.8-7.8 2.2-12 5.6-14-1.8-2.3-9.3-6.9-11.3-10.2-1.8-3-2.6-6.4-1.6-10 0.8-2.8 3.3-6.1 4.3-7.1-24.1-4-27.3-27.7-20.8-41.7 2.3-5 8.5-12.5 8.2-16-5.3-2.8-7.1-9.8-7.3-10.6-4.3-3.2-6.6-9.5-2.7-14.5 8.3-10.5 19.8-8.3 22.2-7.8-1.1-6.7 0.4-10.8 4.4-11.1-0.4-11.6 5.8-15.2 9.7-14.2 2.5-6.9 10.3-12 15.6-7.2 11.9-5.9 20.3-3 21.5 3.4 3.5 1.2 5 3.2 5.8 5.5"/>
						</defs>
						<clipPath id="f">
							<use xlink:href="#p"/>
						</clipPath>
						<g class="st3">
							<defs>
								<rect id="n" width="284.3" height="222.1"/>
							</defs>
							<clipPath id="e">
								<use xlink:href="#n"/>
							</clipPath>
							<rect class="st4" x="-22.2" y="-22.2" width="327.9" height="266.2"/>
						</g>
					</g>
			</g>
		</g>
		<defs>
			<path id="m" d="m111.5 205.7c-8.5-1.8-15.7-4.2-22.3-6.3-12.9-4.2-24.2-7.6-39.1-4.2-3 0.7-4.1 0.7-4.8-2.3l-6.2-27.6c-0.6-2.6 0.2-3.1 2.7-3.7 18.4-3.9 33.5-1.2 48.7 2.6 8 2 15.9 4.3 24.2 6.1 8.4 1.8 17.3 3.2 26.9 3.2 9.7 0 18.5-1.3 26.9-3.2 8.3-1.8 16.2-4.1 24.2-6.1 15.2-3.9 30.4-6.6 48.7-2.6 2.5 0.6 3.2 1.1 2.7 3.7l-6.2 27.6c-0.7 3.1-1.7 3.1-4.8 2.3-14.9-3.5-26.2 0-39.1 4.2-6.6 2.1-13.8 4.5-22.3 6.3s-18.3 3.1-30.2 3.1c-11.7 0-21.5-1.3-30-3.1m-0.3-158.1l-0.8-0.5 0.2-0.9c0.5-2.4 0.2-4.6-3.5-4.7h-0.9l-2.8-8.9 0.8-0.6c2.6-1.8 2-4.1-1.5-5.3l-0.9-0.3v-0.9c0-1.5 0.9-2.3 1.5-2.9 0.2-0.1 0.3-0.3 0.5-0.4s0.3-0.3 0.5-0.5c0.3-0.3 0.6-0.7 0.9-1.3l0.2-0.4 0.4-0.2c11.1-4.4 23.3-6.7 36-6.7s24.8 2.4 36 6.7l0.4 0.2 0.2 0.4c0.3 0.5 0.6 0.9 0.9 1.3l0.5 0.5c0.2 0.2 0.3 0.3 0.5 0.4 0.6 0.6 1.5 1.4 1.5 2.9v0.9l-0.9 0.3c-3.5 1.2-4.1 3.5-1.5 5.3l0.8 0.6-2.8 8.9h-0.9c-3.7 0.1-4.1 2.3-3.5 4.7l0.2 0.9-0.8 0.5c-1.1 0.7-2.1 3.4-1.5 5.3l1 2.9-2.8-1.3c-8.2-3.9-17.5-6.2-27.3-6.2s-19 2.2-27.3 6.2l-2.8 1.3 1-2.9c0.6-2-0.4-4.7-1.5-5.3"/>
		</defs>
		<clipPath id="d">
			<use xlink:href="#m"/>
		</clipPath>
		<g class="st5">
			<defs>
				<rect id="l" x="-302.1" y="-41.3" width="1666.1" height="16750"/>
			</defs>
			<clipPath id="c">
				<use xlink:href="#l"/>
			</clipPath>
			<rect class="st6" x="16.8" y="-9.1" width="249.9" height="240.2"/>
		</g>
		<defs>
			<path id="k" d="m243.9 73.4l-0.3 0.3c-1 1.1-3 2.1-4.8 2.1h-1.5l0.1 1.5c0.6 6.3 4.4 14.8 8.2 19.2 3.9 4.5 5.9 9.3 5.7 13.7l-0.1 1.2 1.2 0.1c7.4 0.7 12.5-2.8 14.4-7.8 2.8-7.6-2.7-15.8-6.4-21.4-4.9-7.3-4.1-15.7-3-20.9l0.2-0.9-0.7-0.5c-1.5-1-2.3-2.7-2.3-4.6 0-2.1 0.5-4.4 2.7-6.6s4.7-2.5 8.1-2.5c1.7 0 6 1.9 7.2 3.7v0.2c0 0.1-0.1 0.2-0.4 0.4-1.4 0.8-2.2 2-2.8 3.3-0.5 1.1-0.8 2.4-1.3 3.6-0.8 2.1-1.8 3.6-5.2 3.6h-1l-0.3 1c-0.5 1.7-0.7 3.5-0.8 5.3-0.2 5.4 1.2 9.1 3.2 12.4 0.7 1.1 1.8 2.7 2.9 4.5 1.1 1.7 2.2 3.7 3.1 5.6 4.8 10.3 1.6 22.9-10.1 26.5-1.9 0.6-6.1 1.2-10.5 0.4l-0.7-0.1-0.5 0.6c-0.3 0.3-0.5 0.6-0.8 0.9-0.4 0.4-1 0.9-1.6 1.4l-0.3 0.2-0.1 0.4c-1 3.3-0.7 7.1 2.6 10.9 1.3 1.5 2.5 2.7 3.3 3.8 0.9 1.1 1.3 1.8 1.5 2.4 0.2 0.8 0.1 1.8-3.1 4.1-8.1 5.8-11.4 10.8-13.2 14.3-0.8 1.6-1.3 2.9-1.8 3.8-0.4 0.6-0.6 0.7-1 0.7-1.6-0.1-3.9-0.3-5.7-1.1l-1.1-0.4-0.6 1c-1 1.7-5.2 2.1-6.9 1l-0.6-0.4-0.6 0.2c-3.4 1.3-5.8 1.1-7.2 0.7-0.7-0.2-1.2-0.5-1.5-0.7-0.1-0.1-0.3-0.2-0.3-0.2-6.1-0.5-6.6-6.7-3.9-10.1 0.6-0.7 2.4-3 6.3-3 2.6 0 15-7.7 15-11.8 0-0.9-0.6-1.6-1.1-2-0.5-0.5-1.2-0.9-1.9-1.3-1.4-0.8-3.3-1.8-5.1-3-3.7-2.4-6.9-5.5-6.9-9.9 0-3.6 1-9.8 11.2-9.8h1.3v-1.3c0-7.3-7.4-14.6-11-17.3-1.6-1.2-3.4-3.2-4.6-5.8l-0.2-0.5-0.5-0.2c-3.8-1.3-7.1-5.6-10.3-10.5-1.6-2.5-3-5-4.4-7.2s-2.7-4.3-4.1-5.7l-0.4-0.4h-0.6c-1.7 0-3.8-0.6-5.6-1.3l-0.7-0.3-0.6 0.4c-3.2 2.2-6.8 0.8-6.9-1.1l-0.1-1.2h-1.2c-1.8 0-2.6-1.1-2.7-2.8-0.1-1.9 0.8-3.7 1.7-4.2l0.8-0.5-0.2-0.9c-0.5-2.3-1.4-9.1 18-0.6 0.5 0.2 1.1 0.5 1.7 0.8l2.5 1.2-0.6-2.7c-0.8-3.4-2.3-6.6-5.5-9.3l-0.7-0.6-0.8 0.4c-1.3 0.6-2.2 0.5-3.3 0-0.6-0.3-1.3-0.7-2-1.3-0.8-0.6-1.7-1.2-2.7-1.9-2.7-1.9-2.1-4.2 1.4-5.4l0.9-0.3v-0.9c0-0.7-0.2-1.3-0.6-1.8-0.2-0.2-0.3-0.4-0.5-0.6l-0.5-0.5c-0.2-0.1-0.3-0.3-0.5-0.5l-0.5-0.5c-0.3-0.4-0.6-0.8-0.9-1.4-1-2 1.3-4.3 4.1-3.1l1.8-1s0.1-0.1 0.3-0.1c0.4-0.2 1.1-0.3 1.8-0.2 1.7 0 2.9 0.6 3.1 0.9h2.2c-0.1 0-0.1 0.1-0.2 0.2 0 0 0.1 0 0.3-0.1 0.3 0 0.7 0 1.3 0.2 1.1 0.5 2.8 1.8 4.1 5.1l0.4 1.1 1.1-0.3c1-0.3 2-0.5 2.9-0.6 0.6-0.1 2.9-0.2 3.4-0.3 0.6-0.1 1.2-0.4 1.6-0.7s0.7-0.7 1-0.9l0.4-0.4 0.4-0.4c0.2-0.2 0.5-0.4 0.7-0.5 0.1 0 0.8-0.2 2-0.3l1.5-0.2-0.4-1.4c-0.1-0.4-0.2-0.9-0.3-1.4 0-0.2-0.1-0.4-0.1-0.6v-0.2c0.1-0.2 0.3-0.5 1.3-0.8s2.1-0.5 2.8-0.7c0.4-0.1 0.9-0.3 1.3-0.4 0.4-0.2 0.9-0.4 1.3-0.7 0.9-0.7 1.4-1.8 0.8-3.1 0.3 0 0.6 0.1 1.1 0.2 0.9 0.2 1.9 0.4 2.7 0.8 0.4 0.1 0.7 0.3 0.9 0.4 0.1 0 0.1 0.1 0.1 0.1 0 0.1 0 0.2-0.1 0.4-0.1 0.3-1.5 2.8-1.5 2.8s2.7-0.3 3-0.3c0.4 0 0.8 0 1.3 0.1 0.7 0.1 1.3 0.3 1.9 0.3 0.6 0.1 1.3 0.2 1.9 0 0.8-0.2 1.5-0.7 1.7-1.7 0.1-0.5 0.1-1 0-1.6 0.5 0.1 1.2 0.3 1.9 0.6 2.2 1 3 2.3 2.7 3.2-0.3 0.7-1.3 1.4-1.3 1.4l-1.5 1 1.6 1.2c0.1 0.1 0.2 0.1 0.3 0.3 0.3 0.3 0.6 0.7 0.9 1.2 0.9 1.7 2.9 1.1 3.7 0.7 0.8-0.5 1.7-1.4 2-2.6 1 1.1 2 2.9 2.1 4.2 0.1 1.1-0.2 2.4-0.7 2.8-0.2 0.1-1.2 0.3-1.4 0.3l-1.9 0.2s1 1.9 1.1 2.3 0.2 1.1 0.2 1.9c-0.1 2.2 2 2.6 3.1 2.4 0.9-0.1 1.8-0.6 2.6-1.4 0.1 0.2 0.2 0.3 0.3 0.6 0.6 1.4 0.9 3.3 0.5 4.7-0.2 0.8-1.4 1.9-1.7 2h-0.5c-0.2 0-0.5 0-0.7-0.1-0.3 0-0.6-0.1-0.8-0.1-1.2 0.1-1.5 0.8-1.4 1.6 0 0.3 0.1 0.6 0.1 0.9s0 0.6-0.1 1.2c-0.3 4 3.1 4 5.4 2.8 0.1 0.6 0.2 1.3 0.1 2.1 0 1.1-0.2 2.2-0.6 3s-0.8 1.1-1.2 1.2c-0.9 0.2-1.3 0-1.4-0.1-1.7-0.9-2.2-0.3-2.4 0.7 0 0.2-0.1 0.3-0.1 0.6-0.1 0.2-0.2 0.5-0.3 0.9-1 2-0.1 3.6 1.7 4 0.8 0.2 1.8 0.1 2.7-0.2 0 0.5-0.1 1.2-0.3 1.9-0.6 2.1-1.7 3.4-3.2 3.2 0 0-0.1 0-0.2-0.1-0.2-0.1-0.3-0.2-0.5-0.3-0.2-0.2-0.5-0.3-0.7-0.5-0.3-0.2-0.7-0.3-1.2-0.3-0.4 0-1.2 0.3-1.5 1.3-0.1 0.4-0.2 0.8-0.2 1.2-0.1 0.9-0.1 2 0.1 3.1s0.4 2.3 1 3.3c0.5 1 1.5 2 3 2 0.6-0.3 0.7-0.2 0.8-0.2m-179.8-62c-0.5 1.2-0.1 2.3 0.9 3 0.4 0.3 0.9 0.5 1.3 0.7s0.8 0.3 1.3 0.4c0.7 0.2 1.8 0.4 2.8 0.7s1.2 0.6 1.3 0.8v0.2c0 0.2 0 0.4-0.1 0.6-0.1 0.5-0.2 1-0.3 1.4l-0.4 1.4 1.5 0.2c1.2 0.2 1.9 0.3 2 0.3 0.3 0.1 0.5 0.3 0.7 0.5 0.1 0.1 0.3 0.2 0.4 0.4l0.4 0.4c0.3 0.3 0.6 0.6 1 0.9s0.9 0.6 1.6 0.7c0.5 0.1 2.8 0.2 3.4 0.3 0.9 0.1 1.9 0.3 2.9 0.6l1.1 0.3 0.4-1.1c1.4-3.3 3-4.7 4.1-5.1 0.6-0.2 1-0.3 1.3-0.2 0.1 0 0.2 0 0.3 0.1 0-0.1-0.1-0.1-0.2-0.2h2.2c0.2-0.3 1.4-0.9 3.1-0.9 0.8 0 1.4 0.1 1.8 0.2 0.2 0.1 0.3 0.2 0.3 0.2 4.7-0.3 6.9 2 5.9 4-0.3 0.6-0.6 1-0.9 1.4-0.2 0.2-0.3 0.4-0.5 0.5l-0.5 0.5c-0.2 0.2-0.4 0.3-0.5 0.5-0.2 0.2-0.4 0.4-0.5 0.6-0.3 0.5-0.6 1.1-0.6 1.8v0.9l0.9 0.3c3.5 1.3 4.1 3.6 1.4 5.4-1 0.7-1.9 1.3-2.7 1.9s-1.4 1-2 1.3c-1.1 0.6-2 0.7-3.3 0l-0.8-0.4-0.7 0.6c-3.2 2.8-4.7 5.9-5.5 9.3l-0.6 2.7 2.5-1.2c0.6-0.3 1.1-0.5 1.7-0.8 19.5-8.5 18.5-1.6 18 0.6l-0.2 0.9 0.8 0.5c0.9 0.5 1.7 2.3 1.7 4.2-0.1 1.7-0.8 2.8-2.7 2.8h-1.1l-0.1 1.2c-0.2 1.9-3.7 3.3-6.9 1.1l-0.6-0.4-0.7 0.3c-1.8 0.7-3.9 1.3-5.6 1.3h-0.6l-0.4 0.4c-1.4 1.4-2.7 3.5-4.1 5.7s-2.8 4.8-4.4 7.2c-3.2 5-6.5 9.2-10.3 10.5l-0.5 0.2-0.2 0.5c-1.2 2.6-3 4.6-4.6 5.8-3.6 2.8-11 10.1-11 17.3v1.3h1.3c10.1 0 11.2 6.2 11.2 9.8 0 4.5-3.2 7.5-6.9 9.9-1.9 1.2-3.7 2.2-5.1 3-0.7 0.4-1.4 0.9-1.9 1.3s-1.1 1.1-1.1 2c0 4.1 12.4 11.8 15 11.8 3.8 0 5.7 2.2 6.3 3 2.7 3.4 2.2 9.6-2.9 9.6h-0.5l-0.5 0.5c-0.1 0.1-0.2 0.1-0.3 0.2-0.3 0.2-0.8 0.5-1.5 0.7-1.4 0.4-3.7 0.6-7.2-0.7l-0.6-0.2-0.6 0.4c-1.7 1.1-5.9 0.8-6.9-1l-0.6-1-1.1 0.4c-1.7 0.7-4.1 1-5.7 1.1-0.4 0-0.7-0.1-1-0.7-0.5-0.9-1-2.2-1.8-3.8-1.8-3.5-5.1-8.5-13.2-14.3-3.2-2.3-3.3-3.3-3.1-4.1 0.2-0.6 0.6-1.3 1.5-2.4s2-2.3 3.3-3.8c3.3-3.8 3.7-7.7 2.6-10.9l-0.1-0.4-0.3-0.2c-0.6-0.5-1.1-1-1.6-1.4-0.3-0.3-0.6-0.6-0.8-0.9l-0.5-0.6-0.7 0.1c-4.4 0.8-8.6 0.2-10.5-0.4-11.7-3.2-14.9-15.9-10.1-26.1 0.9-1.9 2-3.8 3.1-5.6s2.2-3.4 2.9-4.5c2-3.3 3.4-7 3.2-12.4-0.1-1.8-0.3-3.6-0.8-5.3l-0.3-1h-1c-3.3 0-4.4-1.5-5.2-3.6-0.5-1.2-0.8-2.5-1.3-3.6-0.5-1.2-1.3-2.5-2.8-3.3-0.3-0.2-0.4-0.3-0.4-0.4v-0.2c1.2-1.9 5.5-3.7 7.2-3.7 3.5 0 5.9 0.3 8.1 2.5 2.1 2.1 2.7 4.4 2.7 6.6 0 1.9-0.8 3.6-2.3 4.6l-0.7 0.5 0.2 0.9c1.1 5.3 1.9 13.6-3 20.9-3.7 5.6-9.2 13.8-6.4 21.4 1.8 5 7 8.5 14.4 7.8l1.2-0.1 0.1-1.3c-0.2-4.4 1.8-9.2 5.7-13.7 3.8-4.4 7.6-12.9 8.2-19.2l0.1-1.5h-1.5c-1.8 0.1-3.8-1-4.8-2.1l-0.3-0.3h0.4c1.5 0 2.4-1 3-2 0.5-1 0.8-2.2 1-3.3 0.2-0.9 0.2-2.1 0.1-2.9 0-0.4-0.1-0.9-0.2-1.2-0.3-1-1.1-1.3-1.5-1.3-0.5 0-0.9 0.2-1.2 0.3-0.2 0.1-0.5 0.3-0.7 0.5-0.2 0.1-0.3 0.2-0.5 0.3-0.1 0.1-0.2 0.1-0.2 0.1-1.5 0.1-2.6-1.1-3.2-3.2-0.2-0.7-0.3-1.4-0.3-1.9 0.9 0.3 1.9 0.4 2.7 0.2 1.8-0.4 2.7-1.9 1.7-4-0.2-0.4-0.3-0.6-0.3-0.9-0.1-0.2-0.1-0.4-0.1-0.6-0.2-1-0.7-1.6-2.4-0.7-0.1 0.1-0.5 0.2-1.4 0.1-0.4-0.1-0.8-0.4-1.2-1.2s-0.6-1.9-0.6-3c0-0.8 0-1.5 0.1-2.1 2.2 1.2 5.7 1.2 5.4-2.8 0-0.5-0.1-0.9-0.1-1.2s0-0.5 0.1-0.9c0.1-0.8-0.2-1.5-1.4-1.6-0.2 0-0.5 0-0.8 0.1h-0.8-0.5c-0.4-0.1-1.5-1.2-1.7-2-0.4-1.4-0.1-3.3 0.5-4.7l0.3-0.6c0.7 0.8 1.7 1.2 2.6 1.4 1.1 0.2 3.2-0.2 3.1-2.4 0-0.9 0.1-1.5 0.2-1.9 0.1-0.3 1.1-2.3 1.1-2.3l-1.9-0.2c-0.2 0-1.2-0.2-1.4-0.3-0.5-0.4-0.8-1.7-0.7-2.8 0.1-1.3 1.1-3.1 2.1-4.1 0.3 1.2 1.2 2.1 2 2.5 0.8 0.5 2.8 1.1 3.7-0.7 0.3-0.6 0.6-1 0.9-1.2l0.3-0.3c0-2.2-1-2.9-1.2-3.7-0.3-0.9 0.5-2.2 2.7-3.2 0.7-0.3 1.4-0.5 1.9-0.6-0.1 0.6-0.1 1.1 0 1.6 0.2 1 0.9 1.5 1.7 1.7 0.6 0.1 1.4 0.1 1.9 0 0.6-0.1 1.2-0.2 1.9-0.3 0.5-0.1 1-0.1 1.3-0.1s3 0.3 3 0.3-1.3-2.4-1.5-2.8c-0.1-0.2-0.1-0.3-0.1-0.4h0.1c0.3-0.2 0.6-0.3 0.9-0.4 0.8-0.3 1.8-0.6 2.7-0.8 0.6-0.2 1-0.3 1.2-0.3"/>
		</defs>
		<clipPath id="b">
			<use xlink:href="#k"/>
		</clipPath>
		<g class="st7">
			<defs>
				<rect id="j" x="-302.1" y="-39.1" width="1666.1" height="16750"/>
			</defs>
			<clipPath id="a">
				<use xlink:href="#j"/>
			</clipPath>
			<rect class="st8" x="-11.7" y="-10.8" width="306.9" height="194.5"/>
		</g>
		<defs>
			<path id="h" d="m16.1 56.1c0.9 2.4 1.5 3.1 6 3 0.8 2.5 1.3 5.5 1.3 7.3 0.2 5.7-1.2 9.6-3.3 13.1-0.7 1.1-1.8 2.7-2.9 4.5-1.1 1.7-2.2 3.6-3 5.4-4.6 9.8-1.4 21.5 9.4 24.9 1.6 0.5 5.1 1 8.9 0.5-0.6-1-1-2.1-1.2-3.2-7.9 0.8-13.8-2.8-15.9-8.5-1.6-4.2-0.8-8.5 0.8-12.3 1.5-3.8 3.8-7.3 5.7-10.2 4.6-6.9 4-15.1 2.4-22 1.5-0.8 3.1-1.4 3.1-4.2 0-2-0.4-4-2.3-5.7-4.1-3.9-10.6-1.4-12.9 0.3 1.3 0.9 2 2.2 2.5 3.3 0.6 1.2 0.9 2.5 1.4 3.8zm53.6 24.8c0.8 0.8 1.9 1.3 3.4 1.3 3.4 0 6.8-3.2 10.4-8.8 1.8-2.6 3.4-5.5 4.9-8s3.1-5 4.7-6.7l0.8-0.9c3 0.4 7.6-1.7 7.6-1.7l1.2 0.8c1 0.7 2.4 0.9 3.5 0.8 0.9-0.1 1.2-0.6 1.3-1.3 0.2-1.4-1-2.4-1.8-2.8-1.6-0.8-0.4-3.1 1.1-2.4 0 0 1.8 0.7 3 3.2 1.3 0.1 1.4-0.6 1.5-1.4 0.2-1.6-0.8-4.3-5-4.3-1.7 0.1-1.9-2.5-0.2-2.6 0 0 1.8-0.1 3 0.4 0.2-1.2-0.3-1.8-0.8-2-1.5-0.6-5.6-0.6-15.4 3.7-2.2 1-6.8 3.8-11.3 5.4 1 1.2 2.5 1.8 4 0.6 2.4-1.9 1.9 8-1.8 8.6-1.4 0.2-2.4-0.6-2.4-0.6s-0.2 1.2-0.5 1.9c-0.8 1.6-0.5 3.5 2.1 3.3 0 3.1-2.7 7.4-7.2 5.8-3.2-1.1-1.9-5.9-5.4-5.3-0.1 0-0.5 1.7-0.3 3.9 0.5 6.5 3.1 5 3.3 5.7 0.5 1.5-1.4 3-3.7 3.4zm2.8 3.9c-3.5-0.2-5.4-2-6.4-4.3-1.9-0.7-3.4-2.4-3.7-5.5-0.3-2.9 1.4-6.7-1.6-6.7-0.5 0-1 2.3-1.3 3.4-1.5 7 1.9 5.1 0.6 6.6-2.2 2.5-9.6 2-8.8-5.3 0.2-2.1 2.3-6 0.1-6-1.5 0-1.3 5.6-4 8-0.2 7.4-4.9 17.1-8.6 21.3-6.3 7.2-7.2 14.7-2.1 19.8 0.7 0.7 1.8 1.6 2.8 2.5 1.1 1 2.4 2.1 3.4 3.4 2.1 2.7 3.7 6.7 0.1 10.6-0.9 0.9-1.6 1.8-2.3 2.6-1.6 1.8-0.5 2.4 0.9 3.4 6 4.2 9.5 7.9 11.9 11.2 1.2 1.6 2 3.1 2.7 4.5 0.6 1.3 1.2 2.5 1.7 3.6 0.4 0.7 3.5 1.8 5.8 0 0.1-1.5-0.5-3.1-1.4-4.4-1-1.5 1.2-3.1 2.3-1.6 1.2 1.7 2.2 4.4 1.9 6.6 2.5 0.9 4.6 0.8 6.3-0.2 0.3-2.6-0.4-4.4-1.3-5.6-1.1-1.5 1.1-3.1 2.2-1.7 1.2 1.6 2 4 2 6.2 1.5-0.2 2-1.1 2.2-2.3 0.3-1.8-0.4-4-1.2-5-0.5-0.6-2-2.4-5.1-2.4-2.9 0-16.4-8-16.4-13.2 0-1.6 1.1-2.6 1.6-3.1 0.6-0.6 1.4-1.1 2.1-1.5 1.4-0.8 3.2-1.8 5.1-3 3.7-2.4 6.3-5 6.3-8.7 0-3.2-1-7.6-7.6-8.2-1.4-0.1-6.2-0.6-9.3 1-1.6 0.8-3.1-1.2-1.6-2.2 0 0 1.7-1.2 6-1.7 0-8 7.9-15.7 11.6-18.4 0.9-0.8 2.1-2.1 3.1-3.7zm-33 37.4c0.1 2.8-0.9 5.8-3.5 8.8-1.3 1.5-2.5 2.7-3.3 3.8-1.6 2-1.7 2.3 1.4 4.6 8.3 6 11.7 11 13.6 14.8 1.2 2.5 1.6 3.9 2.1 3.9 1-0.1 2-0.2 3.2-0.5 0.6-0.1 1.1-0.3 1.5-0.5-1.9-4.1-4.7-9.3-14.3-16-5.3-3.7-2.7-6.1 1-10.1 2.9-3.3 0.9-6.3-1.7-8.8zm44-81h-8.5v-6.6s6.8 0 8.8-0.2c0.5-0.1 1.3-0.1 2.3 0.1 0.1 0 0.5 0 0.5-0.2 0.2-1.2 0.1-3.8 0.1-3.8s1.5-1.5 1.5-4.1c-2.3-0.9-4.7-1.6-6.5-1.8-0.7-0.1-2.9-0.2-3.4-0.3-0.9-0.1-1.5-0.5-2-0.8-0.4-0.3-1.6-1.9-2.3-2.1-5-1.2-10.5-0.6-11.8-0.4-1.7 0.4-2.1 1.9-2.1 1.9-0.9 0-3 0-3.8 0.2-1 0.2-1.4 0.3-1.4 0.9 0 1.2 2.9 3 2.9 3s-0.6 3.5-1.7 6.5c-0.2 0.7-0.2 1.2 0.3 2.5 0.8 1.8 2.7 2.8 5.3 3.2 1.9 0.3 4.3 3.3 5.5 3.8 0.7 0.3 5.3 0.2 7 0.2 3.5-0.1 7.1-0.4 8.3-0.7 0.5 0 0.8-0.8 1-1.3zm-7.3 4.4c-4.2 0.2-8.9 0.3-10.1-0.3-2.4-1.3-3.7-3.3-4.9-3.6-2.7-0.5-5.8-1.6-7.1-4.6-1.5-3.5 0-4.3 1-8.9-3.4-2.6-3.2-5-1.5-6.5 0.7-0.6 3-1 5.1-1 0.6-2.4 6.7-2.5 11.2-2.2 0.1-0.4 0.2-0.8 0.3-1.1 0.2-0.6 0.2-0.8-0.8-1-2.1-0.4-3.3-0.8-4.8-1.6-1.3-0.7-2-2-1.8-2.7 0.3-0.7-1.9 0-2.2 0.4-0.4 0.7 1.5 3.5 1.5 3.5s-2.6-0.2-4.2-0.1c-2.3 0.1-3.7 0.7-5.3 0.5-1.9-0.2-3-1.7-2.9-2.8 0.1-0.7-2.5 1.2-2.4 1.9 0.1 0.6 0.9 1.6 3.1 3-3.7 2.2-2.8 4.8-6 4.9-0.9 0-3.5-0.7-3.7-2-0.2-0.8-1.9 2.2-0.9 3.8 0.5 0.8 1.1 0.7 3.8 0.9-1.1 2.1-1.2 3.1-1.2 4.9 0 1.7-0.5 2.3-1.9 3.1-0.9 0.6-3.1 0.9-4.4-0.4-0.4-0.4-0.7 2.4-0.4 3.2s0.8 1.2 2.1 1.2c2-0.1 3.1-0.5 3.1-0.1-0.1 1.1-0.1 2.8 0.1 5.6 0.2 3.1-3.2 4.5-5.5 3.3-0.6-0.3 0 3.7 1.1 3.8 2.1 0.2 4-1.7 4.1-1.1 0.5 3.2 1.2 3.5 1.4 5.1 0.5 3.6-3.1 4.6-4.3 4-0.9-0.4 0.3 3.5 2.1 2.8 0.6-0.3 1.5-1 2.3-1 1.3 0 2.1 0.5 2.7 2.2 0.3 0.9 0.4 2.8 0.1 4.7-0.2 1.2-0.4 2.4-1.1 3.6-0.4 0.7-1.1 1.4-1.8 1.6-1.2 0.3 2 1.8 3.6 0.8 1.3-0.7 2.2-5.6 2.5-6.2 0.8-1.9 2.1-2.5 3.2-2.5 1.6 0 2.9 1 3.3 2.5 0.3 1 0.1 2.1-0.1 2.7-0.1 0.7-0.8 3.1-0.9 3.5-0.9 4.3 3.8 4.4 3.3 3.9-0.7-0.8-0.6-3.3 0-6 0.1-0.6 0.7-2.8 1.2-3.7 0.8-1.3 1.9-1.7 2.6-1.7 3.7 0 4.3 2.9 4.3 4.6 0 0.7-0.2 3.7-0.2 4.3 0 5 6.4 3.7 5.3 3.2-1.3-0.6-2-2.5-2.4-6.2-0.3-3 0.5-6.1 0.8-6.2 2.6-0.8 5.2-0.9 6.8 2.3 0.4 0.8 0.8 2.2 1.3 2.6 1.1 0.9 3.2 0 3.7-1.4-2.4-0.7-2.5-4.1-1.4-6.3 0.5-1 0.9-2.4 1.2-4 0.4 0.4 2.6 2 3.7 1.7 0.8-0.3 1.7-3.8 0.8-3.3-1.9 1-4.1-1.3-4.9-2.4-0.4-0.6-1.4-1.8-1.5-4.2-0.1-1.6-0.3-3.6-2.1-5zm11.2 2.4c0.6-4.3 2.1-8.5 6.3-12.1l1.3-1.2 1.6 0.8c0.9 0.4 1.3 0.4 2.1 0 0.5-0.3 1.1-0.6 1.9-1.2s1.7-1.3 2.8-1.9c2-1.3 1.2-2.3-1-3.1l-1.9-0.7v-1.5c0-2.4 1.1-3.4 2-4.2 0.2-0.2 2-1.6 1.7-2.6-0.3-1.2-2.8-0.8-2.8-0.8-1.1 0.3-2 2-2.4 2.8-0.7 1.7-3.3 0.6-2.5-1.1 0 0 0.7-1.6 1.7-2.7-0.1-0.6-2.3-0.4-3 0.1-0.6 0.8-1.1 2-1.3 2.7-0.3 1.8-3 1.3-2.7-0.5 0 0 0.2-0.8 0.6-1.6-1.3-0.1-2.8 1.5-4.1 4.4 1 0.3 1.9 0.7 2.8 1 0.5 2.4 0 4.8-1.4 6.5 0 2.5 0.2 6.1-2.7 5.7-0.6-0.1-1.7-0.2-2.3-0.2-2.1 0.3-5.2 0.2-6.7 0.2v1.9h8.6c0.9 0.9-0.6 5.6-3 6.1-0.7 0.1-2 0.3-3.6 0.4 1.2 1.9 1.3 4.3 1.5 5.7 2.3-0.8 4.5-1.9 6.5-2.9zm108.7 0c2 1 4.1 2.2 6.5 3.1 0.1-1.4 0.3-3.8 1.5-5.7-1.6-0.1-2.9-0.3-3.6-0.4-2.4-0.4-3.9-5.1-3-6.1h8.6v-1.9c-1.5 0-4.6 0-6.7-0.2-0.6-0.1-1.7 0.1-2.3 0.2-2.8 0.4-2.7-3.2-2.7-5.7-1.4-1.7-1.8-4.2-1.4-6.5 0.9-0.4 1.8-0.7 2.8-1-1.3-2.9-2.8-4.5-4.1-4.4 0.4 0.8 0.6 1.6 0.6 1.6 0.3 1.8-2.4 2.3-2.7 0.5-0.1-0.7-0.6-1.9-1.3-2.7-0.7-0.5-3-0.7-3-0.1 1 1.1 1.7 2.7 1.7 2.7 0.7 1.7-1.8 2.7-2.5 1.1-0.3-0.8-1.2-2.5-2.4-2.8 0 0-2.5-0.4-2.8 0.8-0.3 1 1.6 2.5 1.7 2.6 1 0.8 2 1.9 2 4.2v1.5l-1.9 0.7c-2.2 0.7-3 1.7-1 3.1 1 0.7 1.9 1.4 2.8 1.9 0.8 0.6 1.4 1 1.9 1.2 0.8 0.4 1.2 0.4 2.1 0l1.6-0.8 1.3 1.2c4.2 3.4 5.7 7.6 6.3 11.9zm11.1-2.4c-1.8 1.4-1.9 3.5-2 5.1-0.1 2.3-1.1 3.6-1.5 4.2-0.8 1.1-3.1 3.4-4.9 2.4-0.9-0.5 0 3 0.8 3.3 1.1 0.4 3.3-1.3 3.7-1.7 0.3 1.6 0.7 3 1.2 4 1.1 2.2 1 5.6-1.3 6.5 0.5 1.4 2.6 2.3 3.7 1.4 0.5-0.4 0.9-1.8 1.3-2.6 1.6-3.2 4.2-3.1 6.8-2.3 0.2 0.1 1.1 3.1 0.8 6.2-0.4 3.7-1.2 5.7-2.4 6.2-1.1 0.5 5.3 1.8 5.3-3.2 0-0.6-0.2-3.6-0.2-4.3 0-1.7 0.5-4.6 4.3-4.6 0.7 0 1.8 0.4 2.6 1.7 0.5 0.8 1 3 1.2 3.7 0.6 2.7 0.7 5.2 0 6-0.5 0.5 4.2 0.4 3.3-3.9-0.1-0.4-0.8-2.9-0.9-3.5s-0.3-1.7-0.1-2.7c0.4-1.5 1.7-2.5 3.3-2.5 1.1 0 2.4 0.6 3.2 2.5 0.3 0.7 1.2 5.5 2.5 6.2 1.6 0.9 4.8-0.5 3.6-0.8-0.7-0.2-1.4-0.9-1.8-1.6-0.6-1.2-0.9-2.4-1.1-3.6-0.3-1.9-0.1-3.8 0.1-4.7 0.5-1.7 1.4-2.2 2.7-2.2 0.8 0 1.7 0.8 2.3 1 1.8 0.7 3-3.2 2.1-2.8-1.3 0.5-4.8-0.4-4.3-4 0.2-1.5 0.9-1.9 1.4-5.1 0.1-0.5 2 1.3 4.1 1.1 1.1-0.1 1.7-4.1 1.1-3.8-2.3 1.2-5.7-0.2-5.5-3.3 0.2-2.9 0.1-4.6 0.1-5.6 0-0.4 1.1 0 3.1 0.1 1.3 0 1.8-0.4 2.1-1.2s0-3.6-0.4-3.2c-1.4 1.3-3.5 1-4.4 0.4-1.3-0.8-1.9-1.4-1.9-3.1 0-1.8-0.2-2.8-1.2-4.9 2.7-0.2 3.2-0.1 3.8-0.9 1-1.5-0.7-4.6-0.9-3.8-0.3 1.4-2.8 2.1-3.7 2-3.2-0.1-2.3-2.7-6-4.9 2.1-1.4 3-2.4 3.1-3 0.1-0.8-2.5-2.6-2.4-1.9 0.1 1.1-0.9 2.6-2.9 2.8-1.6 0.2-3-0.4-5.3-0.5-1.6-0.1-4.2 0.1-4.2 0.1s1.9-2.8 1.5-3.5c-0.2-0.4-2.4-1.2-2.2-0.4 0.2 0.7-0.5 2-1.8 2.7-1.5 0.8-2.7 1.2-4.8 1.6-1 0.2-1 0.4-0.8 1 0.1 0.3 0.2 0.7 0.3 1.1 4.5-0.3 10.6-0.2 11.2 2.2 2.1 0 4.4 0.4 5.1 1 1.7 1.4 1.8 3.9-1.5 6.5 0.9 4.7 2.5 5.4 1 8.9-1.3 3-4.3 4.1-7.1 4.6-1.2 0.2-2.5 2.3-4.9 3.6-1.3 0.2-6.1 0.2-10.3 0zm-7.3-4.4c0.2 0.5 0.6 1.3 1 1.4 1.2 0.3 4.8 0.5 8.3 0.7 1.8 0.1 6.3 0.1 7-0.2 1.2-0.5 3.6-3.5 5.5-3.8 2.6-0.4 4.5-1.4 5.3-3.2 0.6-1.3 0.6-1.9 0.3-2.5-1.1-3-1.7-6.5-1.7-6.5s3-1.9 2.9-3c0-0.7-0.4-0.7-1.4-0.9-0.9-0.2-2.9-0.2-3.8-0.2 0 0-0.4-1.6-2.1-1.9-1.3-0.3-6.8-0.8-11.8 0.3-0.6 0.1-1.9 1.8-2.3 2.1-0.5 0.4-1.2 0.7-2 0.8-0.5 0.1-2.8 0.3-3.4 0.3-1.8 0.2-4.2 0.9-6.5 1.8 0 2.6 1.5 4.1 1.5 4.1s-0.1 2.6 0.1 3.8c0 0.2 0.3 0.3 0.5 0.2 1-0.2 1.8-0.1 2.3-0.1 2 0.2 8.8 0.2 8.8 0.2v6.6h-8.5zm44.1 81c-2.6 2.6-4.6 5.6-1.7 8.7 3.7 4 6.3 6.4 1 10.1-9.7 6.7-12.4 12-14.3 16 0.4 0.2 0.9 0.3 1.5 0.5 1.2 0.3 2.3 0.4 3.2 0.5 0.5 0 0.8-1.4 2.1-3.9 1.9-3.7 5.3-8.8 13.6-14.8 3.1-2.2 2.9-2.6 1.4-4.6-0.9-1.1-2-2.3-3.3-3.8-2.6-2.9-3.6-5.9-3.5-8.7zm-33-37.4c1 1.6 2.2 2.8 3.3 3.6 3.6 2.8 11.5 10.4 11.6 18.4 4.3 0.4 6 1.7 6 1.7 1.5 1.1 0 3.1-1.6 2.2-3.1-1.6-7.9-1.1-9.3-1-6.6 0.6-7.6 5-7.6 8.2 0 3.7 2.6 6.4 6.3 8.7 1.9 1.2 3.7 2.2 5.1 3 0.7 0.4 1.5 0.9 2.1 1.5 0.5 0.5 1.6 1.5 1.6 3.1 0 5.3-13.5 13.2-16.4 13.2-3.2 0-4.6 1.8-5.1 2.4-0.8 1-1.5 3.2-1.2 5 0.2 1.1 0.7 2.1 2.2 2.3 0-2.2 0.7-4.6 2-6.2 1.1-1.5 3.3 0.2 2.2 1.7-0.9 1.1-1.6 3-1.3 5.6 1.7 1 3.8 1.1 6.3 0.2-0.3-2.1 0.7-4.9 1.9-6.6 1-1.5 3.3 0.1 2.3 1.6-0.9 1.2-1.5 2.9-1.4 4.4 2.2 1.8 5.4 0.7 5.8 0 0.6-1.1 1.1-2.3 1.7-3.6 0.7-1.4 1.6-2.9 2.7-4.5 2.4-3.3 5.9-7 11.9-11.2 1.4-1 2.5-1.6 0.9-3.4-0.7-0.8-1.5-1.6-2.3-2.6-3.6-3.9-2-8 0.1-10.6 1-1.3 2.3-2.5 3.4-3.4 1-0.9 2.1-1.7 2.8-2.5 5.1-5 4.2-12.5-2.1-19.8-3.7-4.2-8.4-13.9-8.6-21.3-2.7-2.3-2.5-8-4-8-2.1 0-0.1 3.9 0.1 6 0.8 7.3-6.6 7.8-8.8 5.3-1.3-1.5 2.1 0.3 0.6-6.6-0.2-1.1-0.8-3.4-1.3-3.4-3 0-1.3 3.8-1.6 6.7-0.3 3.1-1.9 4.8-3.7 5.5-1.2 2.5-3.1 4.3-6.6 4.4zm2.8-3.9c-2.3-0.4-4.2-1.8-3.9-3.4 0.1-0.7 2.7 0.8 3.3-5.7 0.2-2.2-0.2-3.9-0.3-3.9-3.5-0.6-2.2 4.2-5.4 5.3-4.5 1.6-7.2-2.7-7.2-5.8 2.6 0.1 2.9-1.8 2.1-3.3-0.3-0.7-0.5-1.9-0.5-1.9s-1.1 0.8-2.4 0.6c-3.7-0.5-4.2-10.5-1.8-8.6 1.5 1.2 3 0.5 4-0.6-4.4-1.7-9.1-4.5-11.3-5.4-9.8-4.3-13.9-4.3-15.4-3.7-0.5 0.2-1 0.8-0.8 2 1.2-0.5 3-0.4 3-0.4 1.7 0.1 1.6 2.7-0.2 2.6-4.2 0-5.1 2.8-5 4.3 0.1 0.8 0.2 1.5 1.5 1.4 1.2-2.4 3-3.2 3-3.2 1.6-0.8 2.7 1.6 1.1 2.4-0.8 0.4-2 1.4-1.8 2.8 0.1 0.6 0.4 1.1 1.3 1.3 1.1 0.2 2.5-0.1 3.5-0.8l1.2-0.8s4.6 2.1 7.6 1.7l0.8 0.9c1.6 1.7 3.2 4.2 4.7 6.7s3.1 5.3 4.9 8c3.7 5.5 7.1 8.8 10.4 8.8 1.7-0.1 2.8-0.6 3.6-1.3zm53.6-24.8c0.5-1.2 0.8-2.5 1.3-3.7 0.5-1.1 1.2-2.4 2.5-3.3-2.3-1.7-8.8-4.2-12.9-0.3-1.8 1.7-2.3 3.7-2.3 5.7 0 2.8 1.6 3.4 3.1 4.2-1.6 6.9-2.2 15 2.4 22 1.9 2.9 4.2 6.4 5.7 10.2s2.3 8.1 0.8 12.3c-2.1 5.7-7.9 9.4-15.9 8.5-0.3 1.1-0.7 2.2-1.2 3.2 3.8 0.5 7.3 0 8.9-0.5 10.8-3.4 13.9-15.1 9.4-24.9-0.9-1.8-2-3.7-3-5.4-1.1-1.8-2.2-3.4-2.9-4.5-2.1-3.5-3.6-7.4-3.3-13.1 0.1-1.9 0.5-4.8 1.3-7.3 4.5 0 5.1-0.7 6.1-3.1zm-125.7 152.7c11.8 0 21.5-1.3 29.9-3.1 8.5-1.8 15.6-4.2 22.2-6.3 12.9-4.2 24.6-7.8 39.8-4.2 2.7 0.7 2.7 0.7 3.2-1.3l6.2-27.6c0.4-1.6 0.4-1.6-1.7-2.1-18.1-3.9-33-1.2-48.1 2.6-8 2-15.9 4.3-24.2 6.2-8.5 1.9-17.5 3.2-27.2 3.2-9.8 0-18.7-1.3-27.2-3.2-8.3-1.8-16.2-4.1-24.2-6.2-15.2-3.8-30.1-6.5-48.1-2.6-2 0.5-2 0.5-1.7 2.1l6.2 27.6c0.4 2 0.5 2 3.2 1.3 15.3-3.6 26.9 0 39.8 4.2 6.6 2.1 13.7 4.5 22.2 6.3 8.2 1.8 17.9 3.1 29.7 3.1zm-31.5-40.8c-19.5-11-32.7-31.8-32.7-55.7 0-21.4 10.5-40.3 26.7-51.9-1-0.2-2.1-0.6-3-1.2-1.8 0.7-4.1 1.4-6 1.4-4.9 5.1-10.7 20.6-19 23.7-1.3 2.8-3.2 5-5 6.4-3.6 2.8-10.5 9.7-10.5 16.3 11.2 0 12.5 7.1 12.5 11.1 0 10.4-15.1 13.6-15.1 16.3 0 3 11.4 10.5 13.7 10.5 4.5 0 6.6 2.6 7.3 3.5 2.3 2.9 3.2 10.2-2.1 11.5 11.2 1.9 21.9 5.3 33.2 8.1zm95.8-55.7c0 23.9-13.2 44.7-32.7 55.7 11.3-2.7 22-6.1 33.3-8.1-5.3-1.3-4.4-8.6-2.1-11.5 0.7-0.9 2.9-3.5 7.3-3.5 2.3 0 13.7-7.5 13.7-10.5 0-2.7-15.1-5.9-15.1-16.3 0-3.9 1.3-11.1 12.5-11.1 0-6.6-6.9-13.5-10.5-16.3-1.8-1.4-3.7-3.6-5-6.4-8.4-3.1-14.1-18.6-19-23.7-1.9 0-4.2-0.7-6-1.4-0.9 0.6-1.9 1-3 1.2 16.1 11.6 26.6 30.5 26.6 51.9zm-122.6 0c0 32 26.1 58 58.3 58s58.3-26 58.3-58-26.1-58-58.3-58-58.3 25.9-58.3 58zm98.6-75.5l-1.6 5.1c2.8 0.6 6.4 1.7 11.1 3.8 0.6 0.2 1.1 0.5 1.7 0.8-0.7-3.2-2.1-6.1-5-8.6-2.5 1.1-4.1 0.4-6.2-1.1zm-78.9 5.1l-1.6-5.1c-2.1 1.5-3.8 2.2-6.1 1-2.9 2.5-4.3 5.4-5 8.6 0.6-0.3 1.2-0.6 1.7-0.8 4.6-2 8.2-3.2 11-3.7zm74.1-19.5c-11-4.3-23-6.7-35.5-6.7s-24.5 2.4-35.5 6.7c-1.4 2.5-3.2 2.7-3.2 4.4 3.7 1.3 5.9 4.8 1.8 7.6l2.3 7.1c5 0.2 5.4 3.6 4.8 6.3 1.8 1.1 2.8 4.4 2 6.8 8.4-4 17.9-6.3 27.8-6.3 10 0 19.4 2.3 27.8 6.3-0.8-2.4 0.3-5.8 2-6.8-0.6-2.7-0.2-6.1 4.8-6.3l2.3-7.1c-4-2.8-1.9-6.3 1.8-7.6 0.1-1.7-1.8-1.9-3.2-4.4zm-71.1-4.2c11.1-4.2 23.1-6.4 35.7-6.4s24.6 2.3 35.7 6.4c1.3-1.4 3.8-1.8 5.5-1 0.3-2.2 6.4-1.8 7.6-0.1 0.6-0.9 4.9-1.4 7.9 5.7 1.1-0.3 2.1-0.5 3.1-0.6 0.6-0.1 2.8-0.2 3.4-0.3 1.5-0.2 2.1-2.1 3.8-2.8 0.3-0.1 1.1-0.3 2.3-0.4-0.2-0.9-0.6-2.3-0.4-2.9 0.5-1.8 3.5-1.9 4.9-2.4 1.6-0.5 3.5-1.1 2.5-2.7-1.9-3 6.5-0.8 7.4 0.5 0.5 0.8-0.4 2.3-0.4 2.3s1.1-0.1 2.2 0.1c2.8 0.4 4.9 1.3 3.8-2.2-0.7-2.3 8.8 0.8 7.3 4.9-0.4 1.2-1.8 2.1-1.8 2.1s0.9 0.6 1.7 2c0.7 1.3 3.3-0.2 3.3-1.9 0-3.5 4.4 1.3 4.7 4.7 0.1 1.2-0.1 3.1-1.2 4-0.5 0.4-2 0.6-2 0.6s0.7 1.1 0.6 3.1c-0.1 1.8 3.1 1.3 4-0.7 0.8-1.6 3.5 3.7 2.5 7.3-0.3 1.1-1.8 2.6-2.7 2.9-1 0.2-2.4-0.3-2.4 0.1 0.1 0.8 0.1 1.2 0 2.3-0.2 2.5 2.3 2.9 4.2 1 1.5-1.4 2.4 8.6-1.6 9.2-2.4 0.4-2.7-0.8-2.8-0.4s-0.1 0.8-0.6 1.7c-1.3 2.7 2.1 2.5 3.8 1.6 1.5-0.8 0.9 8.5-4.1 8.1-1-0.1-1.6-1.1-2.5-1.1-0.8 0-0.9 8.2 2.3 8.2 4.7 0-0.5 5.3-4.9 5 0.5 6.1 4.2 14.3 7.9 18.5 4 4.6 6.3 9.8 6.1 14.6 7 0.7 11.6-2.5 13.2-6.9 2.5-6.9-2.4-14.5-6.2-20.2-5.2-7.8-4.3-16.6-3.1-21.9-1.9-1.3-2.8-3.4-2.8-5.6 0-2.4 0.5-5.1 3-7.5 6.3-5.9 15.9-0.9 17.4 1.4 0.5 0.7 0.3 1.8-0.8 2.4-4.3 2.3-1.7 10.7-9.9 10.7-0.5 1.6-0.7 3.3-0.8 5-0.2 5.2 1.1 8.6 3 11.7 1.4 2.2 4.3 6.4 6 10.2 5 10.7 1.7 24.3-10.9 28.3-2.1 0.7-6.6 1.3-11.3 0.4-0.3 0.3-0.6 0.7-0.9 1-0.4 0.4-0.9 0.8-1.4 1.3-1 2.9-0.8 6.3 2.3 9.9 5.3 6.1 7.8 7.7 1.5 12.2-12.2 8.7-13.1 15.3-14.8 17.9 2.6 0.4 5.2 0.9 7.9 1.5 1.3 0.3 4 1 3.1 4.9l-6.9 30.7c-1 4.5-4.4 3.4-6 3-29.7-7.8-44 13.3-92.5 13.3s-62.8-21.1-92.5-13.3c-1.6 0.4-5 1.5-6-3l-6.9-30.7c-0.9-3.9 1.8-4.6 3.1-4.9 2.7-0.6 5.3-1.1 7.9-1.5-1.7-2.6-2.6-9.2-14.8-17.9-6.3-4.5-3.8-6.1 1.5-12.2 3.1-3.6 3.3-7 2.3-9.9-0.5-0.4-1-0.9-1.4-1.3-0.3-0.3-0.6-0.7-0.9-1-4.7 0.8-9.2 0.2-11.3-0.4-12.6-4-15.9-17.6-10.9-28.3 1.8-3.8 4.7-7.9 6.1-10.2 1.9-3.1 3.2-6.5 3-11.7-0.1-1.7-0.3-3.4-0.8-5-8.2 0-5.6-8.4-9.9-10.7-1.1-0.6-1.3-1.6-0.8-2.4 1.5-2.3 11.1-7.3 17.4-1.4 2.5 2.3 3 5.1 3 7.5 0 2.3-0.9 4.4-2.8 5.6 1.1 5.4 2 14.1-3.1 21.9-3.8 5.8-8.8 13.4-6.2 20.2 1.6 4.4 6.2 7.6 13.2 6.9-0.2-4.8 2-9.9 6.1-14.6 3.7-4.2 7.3-12.4 7.9-18.5-4.4 0.3-9.6-5-4.9-5 3.2 0 3.1-8.2 2.3-8.2s-1.5 1-2.5 1.1c-5.1 0.4-5.7-8.9-4.1-8.1 1.7 0.9 5.1 1.1 3.8-1.6-0.8-0.9-0.8-1.3-0.9-1.7-0.1-0.5-0.4 0.8-2.8 0.4-4-0.7-3.1-10.6-1.6-9.2 1.9 1.8 4.4 1.5 4.2-1-0.1-1.1-0.1-1.4 0-2.3 0-0.4-1.4 0.1-2.4-0.1s-2.4-1.7-2.7-2.9c-1-3.5 1.7-8.9 2.5-7.3 0.9 1.9 4 2.4 4 0.7-0.1-2 0.6-3.1 0.6-3.1s-1.5-0.2-2-0.6c-1.1-0.9-1.3-2.8-1.2-4 0.3-3.4 4.7-8.2 4.7-4.7 0 1.7 2.6 3.2 3.3 1.9 0.7-1.4 1.7-2 1.7-2s-1.4-0.9-1.8-2.1c-1.5-4.1 8-7.2 7.3-4.9-1.1 3.5 1 2.6 3.8 2.2 1.1-0.2 2.2-0.1 2.2-0.1s-0.8-1.5-0.4-2.3c0.8-1.4 9.2-3.6 7.4-0.5-1 1.6 0.9 2.2 2.5 2.7 1.4 0.5 4.4 0.6 4.9 2.4 0.2 0.6-0.2 2.1-0.4 2.9 1.2 0.1 2 0.3 2.3 0.4 1.7 0.7 2.3 2.6 3.8 2.8 0.5 0.1 2.7 0.2 3.4 0.3 1 0.1 2 0.3 3.1 0.6 3-7.1 7.3-6.6 7.9-5.7 1.2-1.8 7.3-2.2 7.6 0.1 1.5-0.7 4-0.3 5.3 1zm52.8 17.4l4.5 1.2 1.2-4.3c0.3-1 0.6-2.1 1-3.1h-0.1c-0.9 1-1.6 1.8-2.5 2.7l-4.1 3.5zm6.2 9.2l-3.7-1 1.1-4.3-8.2-2.2 0.7-2.5 9.9-8.7 4.8 1.3-2.8 10.2 2.2 0.6-0.8 2.8-2.2-0.6-1 4.4zm-19.6-6.1c2 0.1 3.1-2.1 3.4-6.2 0.2-4.1-0.7-6.4-2.7-6.5-1.8-0.1-3.1 2-3.3 6.1-0.3 4.3 0.8 6.5 2.6 6.6zm-0.2 2.9c-4.6-0.2-6.7-4.3-6.4-9.6 0.3-5.4 2.9-9.2 7.5-9 4.8 0.2 6.7 4.4 6.4 9.5-0.3 5.6-2.7 9.3-7.5 9.1zm-16.7-14.7c-1.7 0.2-2.7 1.8-2.4 3.7 0.2 1.6 1.4 2.8 3.3 2.6 1.4-0.2 2.2-0.9 2.6-1.7 0.1-0.2 0.1-0.5 0.1-0.9-0.3-2.1-1.4-4.1-3.6-3.7zm-2.9 16.1l-0.4-3c0.5 0 1-0.1 1.9-0.3 1.4-0.3 2.7-0.9 3.7-1.8 1.1-1 1.8-2.4 1.9-3.9h-0.1c-0.8 1.1-2 1.8-3.7 2-3.2 0.4-6.1-1.4-6.6-4.8-0.5-3.5 2-6.8 6-7.4 4.6-0.6 7.4 2.5 8 6.7 0.5 3.7-0.3 6.6-2 8.6-1.5 1.8-3.8 3-6.6 3.4-0.8 0.4-1.6 0.5-2.1 0.5zm-6.4 1.8l-4.3-13.8h-0.1l-2.8 2.6-1.5-2.6 3.9-3.5 3.1-0.9 5.3 17.2-3.6 1zm-48.6-20.2c-0.1 0-0.9 0.7-1.3 1.5 0.5-0.1 1.7-0.5 2.8-0.9-0.4-0.2-0.9-0.6-1.5-0.6zm4.1 1.4s-5.6 2.2-6.6 1.3c-1.2-1.1 1.3-4 2.3-4 2.6-0.1 4.3 2.7 4.3 2.7zm133.9 0s1.7-2.7 4.2-2.7c1 0 3.5 2.9 2.3 4-1 0.8-6.5-1.3-6.5-1.3zm4-1.4c-0.6 0-1.1 0.3-1.6 0.7 1.1 0.4 2.3 0.7 2.8 0.9-0.2-0.9-1-1.6-1.2-1.6zm-1.4 164.3v-10.5c0-1.9-0.1-3.4-0.1-4.8h3.9l0.2 2.3h0.1c0.6-1 2.3-2.6 5-2.6 3 0 5.8 1.9 5.8 6.8v8.9h-4.5v-8.3c0-2.2-0.8-3.7-2.9-3.7-1.6 0-2.5 1.1-2.9 2.1-0.1 0.3-0.2 0.8-0.2 1.2v8.8h-4.4zm-153.9 0.3l-0.7-21.1 4.5-0.2 0.6 17.3 9.2-0.3 0.1 3.7-13.7 0.6zm30.6-3.3l-10.3-2.4c-0.4 2.2 1.5 3.7 3.9 4.3 1.8 0.4 3.1 0.5 4.6 0.3l-0.1 3.1c-1.7 0.3-3.6 0.2-5.9-0.3-5.2-1.2-7.5-4.9-6.4-9.5 0.9-3.7 4.3-7.4 9.6-6.2 5.2 1.2 6 5.7 5.2 9-0.2 0.8-0.4 1.4-0.6 1.7zm-9.6-5.4l6.4 1.5c0.3-1 0.2-3.3-2.3-3.9-2.3-0.6-3.7 1.1-4.1 2.4zm14.4-2.4l4.6 1.7-0.3 7.8c0 1.4-0.2 2.6-0.3 3.8h0.1c0.7-1 1.4-2 2.2-3.1l4.8-6.2 4.5 1.6-11 12.3-4.3-1.5-0.3-16.4zm29.6 17.7l-10.4-2c-0.3 2.2 1.6 3.7 4 4.2 1.8 0.3 3.2 0.4 4.6 0.2v3.1c-1.7 0.3-3.6 0.3-5.9-0.1-5.2-1-7.7-4.6-6.8-9.3 0.7-3.7 4-7.6 9.4-6.5 5.2 1 6.2 5.5 5.5 8.8 0 0.6-0.2 1.3-0.4 1.6zm-9.9-5.1l6.5 1.3c0.2-1.1 0.1-3.4-2.4-3.8-2.3-0.5-3.6 1.2-4.1 2.5zm14.3 12.2l0.9-10.2c0.2-2.3 0.3-3.7 0.3-5.1l3.9 0.3-0.1 3h0.1c1-2.2 3-3.1 4.7-3 0.4 0 0.6 0.1 1 0.2l-0.4 4.2c-0.4-0.1-0.8-0.2-1.3-0.3-2-0.2-3.3 0.8-3.7 2.4-0.1 0.3-0.1 0.7-0.2 1l-0.7 7.8-4.5-0.3zm18.8-21.9l0.5 13.6h0.1c0.4-0.6 0.8-1.3 1.2-1.8l3.5-4.9 5.5-0.2-5.7 6.4 7.2 8.9-5.6 0.2-4.6-6.3-1.3 1.6 0.2 4.9-4.5 0.2-0.8-22.3 4.3-0.3zm28.2 3.3l2 10.3c0.4 1.9 0.7 3.5 1 4.7l-3.8 0.7-0.7-2.3h-0.1c-0.4 1.1-1.6 3.1-4.5 3.6-2.9 0.6-5.9-0.7-6.8-5.6l-1.7-8.7 4.4-0.9 1.6 8c0.5 2.4 1.6 3.7 3.5 3.3 1.5-0.3 2.2-1.5 2.4-2.5 0.1-0.3 0.1-0.7 0-1.1l-1.7-8.9 4.4-0.6zm7 12.4l-0.1-3.3c1 0.3 3 0.4 4.4 0 1.6-0.5 2.1-1.2 1.8-2-0.3-0.9-0.9-1.1-2.9-1.2-3.4 0-5.1-1.3-5.6-3.1-0.8-2.7 1-5.4 4.7-6.5 1.8-0.5 3.5-0.5 4.5-0.3l0.1 3.2c-0.8-0.2-2.3-0.3-3.6 0.1-1.2 0.4-1.8 1.1-1.6 1.9s1.1 1 3.2 1.1c3.1 0.1 4.8 1.1 5.5 3.3 0.8 2.7-0.8 5.3-5.1 6.6-2.1 0.4-4 0.5-5.3 0.2zm26.9-13.3l-10.4 2c0.6 2.2 2.9 2.8 5.3 2.3 1.8-0.3 3.1-0.8 4.3-1.5l1.2 2.8c-1.4 0.9-3.2 1.7-5.5 2.1-5.2 1-8.9-1.4-9.8-6.1-0.7-3.7 0.9-8.5 6.3-9.6 5.2-1 7.8 2.8 8.4 6.1 0.2 0.8 0.2 1.5 0.2 1.9zm-11-1.1l6.5-1.3c-0.2-1.1-1.2-3.2-3.7-2.7-2.4 0.6-2.9 2.7-2.8 4zm-58.8-114.9h7.5c0.8 0 1.5-0.7 1.5-1.5s-0.7-1.5-1.5-1.5h-7.5v3zm0 7.2h7.7c0.9 0 1.7-0.8 1.7-1.7s-0.8-1.7-1.7-1.7h-7.7v3.4zm12-5.5c1 1 1.6 2.4 1.6 3.9 0 3-2.4 5.4-5.4 5.4h-12.5v-17.8h12.3c2.9 0 5.2 2.3 5.2 5.2 0 1.3-0.5 2.4-1.2 3.3zm2.9 30.6h-4.6l-1.4-3h-10l-1.4 3h-4.6l9-17.8h4.2l8.8 17.8zm-11.1-13.3l-3.2 6.5h6.3l-3.1-6.5zm6.1 17.1h5.1l-9.1 11.6v6.2h-4.3v-6.2l-9.1-11.6h5.1l6.1 8.1 6.2-8.1zm23.9 0v3.8h-12v3h11.5v3.8h-11.5v3.4h12v3.8h-16.2v-17.8h16.2zm13.5 11.1h-3.2v6.8h-4.3v-17.8h10.9c3.1 0 5.5 2.5 5.5 5.5 0 2.5-1.7 4.6-4 5.3l5.3 7h-5.1l-5.1-6.8zm3-7.3h-6.2v3.4h6.2c0.9 0 1.7-0.8 1.7-1.7s-0.8-1.6-1.7-1.7zm-55.7 14.1h-4.6l-1.4-3h-10l-1.4 3h-4.6l9-17.8h4.2l8.8 17.8zm-11.1-13.3l-3.2 6.5h6.3l-3.1-6.5zm-27.1 2.2h7.5c0.8 0 1.5-0.7 1.5-1.5s-0.7-1.5-1.5-1.5h-7.5v3zm0 7.3h7.7c0.9 0 1.7-0.8 1.7-1.7s-0.8-1.7-1.7-1.7h-7.7v3.4zm12-5.5c1 1 1.6 2.4 1.6 3.9 0 3-2.4 5.4-5.4 5.4h-12.5v-17.9h12.3c2.9 0 5.2 2.3 5.2 5.2 0 1.3-0.4 2.5-1.2 3.4zm43.5 13.1v3.8h-12v3h11.5v3.8h-11.5v3.4h12v3.8h-16.2v-17.8h16.2zm-3 27.6c0-0.9-0.8-1.7-1.7-1.7h-7.3v3.4h7.3c1 0 1.7-0.7 1.7-1.7zm-13.2 12.3v-17.8h12c3.1 0 5.5 2.5 5.5 5.5 0 2.3-1.4 4.3-3.5 5.1l5.4 7.2h-5.1l-5.1-6.8h-4.9v6.8h-4.3z"/>
		</defs>
		<clipPath id="v">
			<use xlink:href="#h"/>
		</clipPath>
		<g class="st9">
			<defs>
				<rect id="g" x="-302.1" y="-40" width="1666.1" height="16750"/>
			</defs>
			<clipPath id="u">
				<use xlink:href="#g"/>
			</clipPath>
			<rect class="st10" x="-13" y="-13" width="309.5" height="248"/>
		</g>
</svg>
