<svg xmlns="http://www.w3.org/2000/svg" width="185.82" height="219.594" viewBox="0 0 49.165 58.101" xmlns:v="https://vecta.io/nano"><path d="M47.208 10.577L36.561 2.718l-.444-.317-.444.444h0c-.19.19-3.866 3.676-10.647 3.676h-.063 0 0-.063c-3.486 0-6.211-.951-7.985-1.901-.887-.444-1.584-.951-2.028-1.267-.253-.19-.38-.317-.507-.444l-.127-.127h0 0l-.38-.444-.444.317L2.592 10.45l-.253.19v.317.19c0 16.731 5.514 27.822 11.027 34.73 5.514 6.971 11.027 9.696 11.091 9.696l.317.127.317-.127c.063 0 5.64-2.725 11.217-9.633s11.154-18.062 11.154-34.856v-.317z" fill="#103f79"/><g fill="#f3b229"><path d="M24.456 55.066S2.655 44.419 2.718 11.274l10.71-7.795s3.866 3.929 11.154 3.929h.063c7.288 0 11.154-3.866 11.154-3.866l10.647 7.859c-.127 33.145-21.991 43.665-21.991 43.665zM47.715 9.563L37.131 1.704 35.547.563l-1.394 1.331h0c-.063.127-3.359 3.232-9.506 3.232h-.063c-6.147 0-9.443-3.169-9.57-3.296h0L13.682.5l-1.584 1.141L1.451 9.436.5 10.133v1.141C.437 45.496 22.555 56.65 23.442 57.094l.444.254.57.254.57-.254.444-.19c.951-.444 23.068-11.534 23.195-45.693v-1.141zM24.583 44.165l.317.951h1.014l-.824.634.317.951-.824-.507-.824.57.317-.951-.824-.634h1.014zm5.133.57l.317.951h1.014l-.824.634.317.951-.824-.507-.824.57.317-.951-.824-.634h1.014zm-10.267 0l.317.951h1.014l-.824.634.317.951-.824-.507-.824.57.317-.951-.824-.634h1.014zm2.789 2.345l.317.951h1.014l-.824.634.317.951-.824-.57-.824.634.317-.951-.824-.634h1.014zm4.69 0l.317.951h1.014l-.824.634.317.951-.824-.57-.824.57.317-.951-.824-.634h1.014zm-2.345 2.472l.317.951h1.014l-.824.634.317.951-.824-.507-.824.57.317-.951-.824-.634h1.014zm0-10.584l.317.951h1.014l-.824.634.317.951-.824-.57-.824.57.317-.951-.824-.634h1.014zm-4.817.254l.317.951h1.014l-.824.634.317.951-.824-.57-.887.634.317-.951-.824-.634h1.014zm9.696 0l.317.951h1.014l-.824.634.317.951-.824-.57-.824.57.317-.951-.824-.634h1.014zm-14.576.253l.317.951h1.014l-.824.634.317.951-.824-.57-.824.57.317-.951-.824-.634h1.014zm19.393 0l.317.951h1.014l-.824.634.317.951-.824-.57-.824.634.317-.951-.824-.634h1.014zM16.914 42.39l.317.951h1.014l-.824.634.317.951-.824-.57-.824.57.317-.951-.824-.634h1.014zm15.337 0l.317.951h1.014l-.824.634.317.951-.824-.57-.824.57.317-.951-.824-.634h1.014zm-5.133-.634l.317.951h1.014l-.824.634.317.951-.824-.57-.824.57.317-.951-.824-.634h1.014zm-5.07 0l.317.951h1.014l-.824.634.317.951-.824-.57-.824.57.317-.951-.824-.634h1.014zm-4.436-5.133l.317.951h1.014l-.824.634.317.951-.824-.57-.887.57.317-.951-.824-.634h1.014zm13.943 0l.317.951h1.014l-.824.634.317.951-.824-.57-.824.57.317-.951-.824-.634h1.014zm-18.632.253l.317.951h1.014l-.824.634.317.951-.824-.57-.824.57.317-.951-.824-.634h1.014zm23.322 0l.317.951h1.014l-.824.634.317.951-.824-.57-.824.57.317-.951-.824-.634h1.014zm-14.006-.824l.317.951h1.014l-.824.634.317.951-.824-.57-.824.634.317-.951-.824-.634h1.014zm4.69 0l.317.951h1.014l-.824.634.317.951-.824-.57-.824.57.317-.951-.824-.634h1.014zm11.281-2.345l.317.951h1.014l-.824.634.317.951-.824-.57-.824.57.317-.951-.824-.634h1.014zm-27.251 0l.317.951h1.014l-.824.634.317.951-.824-.57-.824.57.317-.951-.824-.634h1.014zm22.688 0l.317.951h1.014l-.824.634.317.951-.824-.57-.824.634.317-.951-.824-.634h1.014zm-18.125 0l.317.951h1.014l-.824.634.253.951-.824-.57-.824.57.317-.951-.824-.634h1.014zm4.5-.254l.317.951h1.014l-.824.634.253.951-.824-.57-.824.57.317-.951-.824-.634h1.014zm9.126 0l.317.951h1.014l-.824.634.317.951-.824-.57-.824.57.317-.951-.824-.634h1.014zm-4.563-.253l.317.951h1.014l-.824.634.317.951-.824-.507-.824.57.317-.951-.824-.634h1.014zm11.025-2.66l.317.951h1.014l-.824.634.317.951-.824-.57-.824.57.317-.951-.824-.634h1.014zm3.866 0l.317.951h1.014l-.824.634.317.951-.824-.57-.824.57.317-.951-.824-.634h1.014zm-29.786 0l.317.951h1.014l-.824.634.317.951-.824-.57-.824.57.317-.951-.824-.634h1.014zm21.484 0l.317.951h1.014l-.824.634.317.951-.824-.57-.824.57.317-.951-.824-.634h1.014zm-17.618 0l.317.951h1.014l-.824.634.253.951-.824-.57-.824.57.317-.951-.824-.634h1.014zm4.436 0l.317.951h1.014l-.824.634.317.951-.824-.57-.824.57.317-.951-.824-.634h1.014zm8.809 0l.317.951h1.014l-.824.634.317.951-.824-.57-.824.57.317-.951-.824-.634h1.014zm-4.436 0l.317.951h1.014l-.824.634.317.951-.824-.57-.824.57.317-.951-.824-.634h1.014z"/><path d="M9.753 26.864l.317.253 1.331.063.317-.317v-1.141h2.598v2.091l-1.521 1.521H8.612L7.091 27.75l.063-6.528 1.521-1.521h4.183l1.521 1.584-.063 2.155-2.598-.063v-1.204l-.253-.317H10.07l-.317.317zm10.013-1.965h1.204l-.634-1.521zm3.232-5.197v2.155h-.507l2.091 5.26h.634v2.155H21.54v-2.155h.317l-.127-.444h-2.535l-.253.444h.317v2.155h-3.676v-2.155h.57l2.155-5.26h-.444v-2.155zm8.049 2.472l-.317-.317h-1.267v1.394h1.267l.317-.317zm0 3.549l-.317-.317h-1.267v1.711h1.267l.317-.317zm2.535-.761v2.788l-1.458 1.521H26.42v-2.155h.57v-5.26h-.57v-2.155h5.704l1.458 1.521v2.472l-.634.634zm3.866.508v1.394l.317.253.697.063.317-.317v-5.007h-.824v-2.155h4.119l-.063 2.155h-.57v5.957l-1.521 1.521h-3.55l-1.584-1.584v-2.28zM18.435 12.668l.317 1.014h1.014l-.824.634.317 1.014-.824-.57-.824.57.317-1.014-.824-.634h1.014zm-4.119-.254l.317 1.014h1.014l-.824.634.317 1.014-.887-.634-.824.57.317-1.014-.824-.634h1.014zm-8.239 0l.317 1.014h1.014l-.824.634.253 1.014-.824-.634-.824.57.317-1.014-.824-.634h1.014zm4.119 0l.317 1.014h1.014l-.824.634.317 1.014-.824-.634-.824.57.317-1.014-.824-.634H9.88zm12.358.254l.317 1.014h1.014l-.824.634.317 1.014-.824-.57-.824.57.317-1.014-.824-.634h1.014zm4.056 0l.317 1.014h1.014l-.824.634.317 1.014-.824-.57-.824.57.317-1.014-.824-.634h1.014zm4.119 0l.317 1.014h1.014l-.824.634.317 1.014-.824-.57-.824.57.317-1.014-.824-.634h1.014zm4.119-.254l.317 1.014h1.014l-.824.634.317 1.014-.761-.634-.824.57.317-1.014-.824-.634h1.014zm8.239 0l.317 1.014h1.014l-.824.634.317 1.014-.824-.634-.824.634.254-1.014-.824-.634h1.014zm-4.119 0l.317 1.014H40.3l-.824.634.317 1.014-.824-.634-.824.57.317-1.014-.824-.634h1.014zm-25.54-6.528l.317 1.014h1.014l-.824.634.317 1.014-.824-.57-.824.57.317-1.014-.824-.634h1.014zm22.308 0l.317 1.014h1.014l-.824.634.317 1.014-.824-.57-.824.57.317-1.014-.824-.634h1.014zM9.119 9.056l.317 1.014h1.014l-.824.634.317 1.014-.824-.57-.824.57.317-1.014-.824-.634h1.014zm13.245.507l.317.951h1.014l-.824.634.317 1.014-.824-.57-.824.57.317-1.014-.824-.634h1.014zm4.436 0l.317.951h1.014l-.824.634.317 1.014-.824-.57-.824.57.317-1.014-.824-.634h1.014zm-13.245-.254l.317 1.014h1.014l-.824.634.317 1.014-.824-.57-.824.507.317-1.014-.824-.634h1.014zm4.373 0l.317 1.014h1.014l-.824.634.317 1.014-.824-.57-.824.507.317-1.014-.824-.634h1.014zm22.118-.253l.317 1.014h1.014l-.824.634.317 1.014-.824-.57-.824.57.317-1.014-.824-.634h1.014zm-8.809.253l.317.951h1.014l-.824.634.317 1.014-.824-.57-.887.57.317-1.014-.824-.634h1.014zm4.373 0l.317 1.014h1.014l-.824.634.317 1.014-.824-.57-.824.507.317-1.014-.824-.634h1.014zM18.625 15.9l.317.951h1.014l-.824.634.317 1.014-.824-.57-.824.57.317-1.014-.824-.634h1.014zm-3.993 0l.317 1.014h1.014l-.824.634.317 1.014-.824-.57-.824.507.317-1.014-.824-.634h1.014zm-3.993 0l.317 1.014h1.014l-.824.634.317 1.014-.824-.634-.824.57.317-1.014-.824-.634h1.014zm-3.993 0l.317 1.014h1.014l-.824.634.253 1.014-.824-.57-.824.57.317-1.014-.824-.634h1.014zm15.97 0l.317 1.014h1.014l-.824.634.317 1.014-.824-.57-.824.57.317-1.014-.824-.634h1.014zm3.929 0l.317 1.014h1.014l-.824.634.317 1.014-.824-.57-.824.57.317-1.014-.824-.634h1.014zm7.985 0l.317.951h1.014l-.824.634.317 1.014-.824-.57-.824.57.317-1.014-.824-.634h1.014zm3.993 0l.317 1.014h1.014l-.824.634.317 1.014-.824-.634-.824.57.317-1.014-.824-.634h1.014zm3.993 0l.317 1.014h1.014l-.824.634.317 1.014-.824-.57-.824.507.254-1.014-.824-.634h1.014zm-11.978 0l.317 1.014h1.014l-.824.634.317 1.014-.824-.57-.824.57.317-1.014-.824-.634h1.014z"/></g></svg>