<svg xmlns="http://www.w3.org/2000/svg" width="277.422" height="299.262"><style><![CDATA[.B{fill-rule:evenodd}.C{fill:#df0024}.D{fill:#c80024}]]></style><defs><clipPath id="A"><path d="M179.883 262.338c-.043.573-10.7 1.742-10.734 2.282-.125 1.8 2.628 28.764 2.628 28.764 48.55-25.8 86.883-61.927 116.527-63.563l-9.646-17.26c0-.294 3.38-22.98 4.35-25.11-48.32 19.49-62.827 48.8-103.127 74.888"/></clipPath><clipPath id="B"><path d="M-84-91.667h2019.267V2773.51H-84V-91.667z"/></clipPath><clipPath id="C"><path d="M22.535 212.56l-9.655 17.26c29.65 1.637 67.986 37.764 116.532 63.563l2.633-28.764c-.038-.54-10.7-1.71-10.733-2.282C81.006 236.25 66.5 206.938 18.18 187.45c.972 2.132 4.356 24.817 4.356 25.1"/></clipPath><clipPath id="D"><path d="M150.595 236.703c-42.346 0-74.152-22.776-93.222-43.96l-8.086 43.838c31.002 14.445 66.32 39.492 101.29 39.492 34.987 0 70.277-25.033 101.288-39.482l-8.052-43.848c-19.065 21.183-50.856 43.96-93.217 43.96"/></clipPath></defs><path d="M271.122 188.384c-.972 2.132-4.35 24.812-4.35 25.1l9.65 17.265c-29.65 1.632-67.98 37.754-116.527 63.558l-2.633-28.763c.034-.54 10.7-1.704 10.734-2.282 40.3-26.088 54.808-55.4 103.127-74.89" class="B C"/><g transform="translate(-11.888 .935)" class="B"><g clip-path="url(#A)" class="D"><path d="M247.993 195.253l8.048 43.848c-23.474 10.94-45.388 31.96-71.78 39.58.655-.578-2.744-5.304-2.176-6.147 1.482-2.2 1.747-4.216 1.872-6.026.058-.794.082-1.627.178-2.522.087-.766.226-1.598.5-2.513a13.4 13.4 0 0 1 1.093-2.382c.448-.78.9-1.468 1.333-2.142.967-1.535 1.94-3.335 2.03-5.978.068-1.94-.313-3.576-.977-4.9.563-.404 1.078-.818 1.497-1.155 1.357-1.097 3.066-2.97 2.35-5.218-.712-2.29-3.235-2.806-4.987-2.893-.54-.03-1.194-.058-1.892-.053-.082-.48-.202-.972-.375-1.463 27.618-7.427 49.018-24.172 63.284-40.027"/></g><g clip-path="url(#B)" class="C"><path d="M18.187 187.45c.972 2.132 4.35 24.812 4.35 25.1l-9.65 17.265c29.65 1.63 67.98 37.755 116.527 63.558l2.633-28.763c-.04-.54-10.7-1.704-10.734-2.282-40.3-26.088-54.808-55.4-103.128-74.89"/></g><g clip-path="url(#C)" class="D"><path d="M53.202 195.254l-8.048 43.848c23.474 10.94 45.388 31.96 71.78 39.58-.65-.578 2.743-5.304 2.175-6.147-1.477-2.2-1.747-4.216-1.872-6.026-.058-.794-.082-1.627-.178-2.522a13.32 13.32 0 0 0-.501-2.513c-.313-.924-.693-1.69-1.088-2.382-.452-.78-.915-1.468-1.338-2.142-.963-1.535-1.94-3.335-2.03-5.978-.067-1.94.313-3.576.977-4.9a31.12 31.12 0 0 1-1.492-1.155c-1.357-1.097-3.07-2.97-2.354-5.218.712-2.29 3.234-2.806 4.987-2.893a31.35 31.35 0 0 1 1.891-.053 8.86 8.86 0 0 1 .375-1.463c-27.618-7.427-49.013-24.172-63.284-40.027"/></g></g><path d="M133.413 130.25c0 2.926-2.373 5.304-5.3 5.304H23.566c-.915-5.877-1.386-11.898-1.386-18.03C22.18 56.68 68.72 6.72 128.104 1.357c.063-.005.13.005.197.034 2.84.1 5.112 2.435 5.112 5.3v123.56zm-25.423-14.844c2.926 0 5.294-2.373 5.294-5.304V92.06a5.3 5.3 0 0 0-5.294-5.285H47.897c-3.08 9-4.852 18.627-5.088 28.63h65.18zm0-48.777c2.926 0 5.294-2.373 5.294-5.304V25.52c-23.32 6.28-43.107 21.197-55.727 41.11h50.433zm56.14 43.473c0 2.93 2.373 5.304 5.3 5.304h19.595V12.287c7.143 3.427 13.88 7.562 20.13 12.317v85.723c.116 2.825 2.44 5.078 5.3 5.078h18.993c-.22-9.56-1.853-18.772-4.688-27.44V43.482c16.548 20.138 26.487 45.932 26.487 74.04a117.81 117.81 0 0 1-1.386 18.03H149.3a5.3 5.3 0 0 1-5.294-5.304L144.002 1c6.883.308 13.607 1.213 20.13 2.667V110.1zM58.22 177.854h75.22v14.848H71.87c17.19 15.956 37.96 24.198 61.543 25.426v15.922c-52.14-2.33-95.36-38.962-107.695-87.893h102.396a5.3 5.3 0 0 1 5.299 5.304V161h-85.51a100.59 100.59 0 0 0 10.291 16.966m193.505-31.8c-1.28 5.092-2.902 10.045-4.828 14.844h-88.033v55.25c17.164-3.49 32.744-11.35 45.523-22.377h22.45c-20.292 23.44-49.76 38.698-82.806 40.176v-82.6a5.3 5.3 0 0 1 5.299-5.304h102.396z" fill="#263c7e"/><g class="B"><path d="M112.625 263.5l7.18 4.977c.043.106-1.198 21.962-2.286 25.847-14.305-8.832-80.048-56.632-80.12-56.796-.043-.1 63.467 17.66 75.225 25.972m44.984 4.978c-.048.106 1.198 21.962 2.286 25.847 14.305-8.832 80-56.622 80.082-56.8.048-.1-82.368 30.944-82.368 30.944" fill="#88111e"/><path d="M231.928 193.68l8.048 43.848c-31.01 14.45-66.302 39.482-101.29 39.482-34.968 0-70.287-25.048-101.29-39.492l8.09-43.838c19.065 21.183 50.87 43.96 93.217 43.96 42.36 0 74.152-22.776 93.222-43.96" class="C"/></g><g clip-path="url(#D)" transform="translate(-11.888 .935)" class="D"><path d="M121.1 228.677c1.892-2.42 4.053-3.432 5.83-4.15l2.286-.924c.674-.303 1.333-.65 2.012-1.13a11.47 11.47 0 0 0 1.608-1.502l1.588-1.887c1.232-1.468 2.864-3.215 5.747-4.265 1.545-.56 3.018-.8 4.404-.775l.245-.64c.616-1.608 2.248-4.943 5.838-4.89 3.528.02 5.12 3.307 5.733 4.89l.24.64c1.38-.024 2.86.216 4.4.775 2.888 1.05 4.52 2.797 5.752 4.265l1.584 1.887a11.56 11.56 0 0 0 1.675 1.545 11.81 11.81 0 0 0 1.949 1.088l2.286.924c1.776.717 3.937 1.728 5.83 4.15 1.01 1.3 1.694 2.623 2.098 3.947l.684.034c1.71.09 5.395.602 6.46 4.043 1.063 3.355-1.555 5.887-2.878 6.96l-.534.433c.448 1.314.674 2.782.616 4.428-.106 3.066-1.256 5.16-2.277 6.782l-1.304 2.09c-.346.606-.683 1.28-.962 2.098-.23.785-.347 1.492-.424 2.16l-.173 2.464c-.13 1.906-.428 4.274-2.142 6.825-.92 1.363-1.973 2.42-3.105 3.215l.183.664c.438 1.65 1.093 5.31-1.853 7.39-2.864 2.05-6.08.337-7.514-.587l-.573-.38c-1.102.833-2.44 1.507-4.02 1.96-2.95.847-5.294.4-7.152-.067l-2.392-.597a11.51 11.51 0 0 0-2.296-.265c-.814.02-1.526.13-2.18.265l-2.397.597c-1.858.467-4.207.914-7.157.067-1.574-.452-2.912-1.126-4.014-1.96l-.573.38c-1.45.93-4.722 2.67-7.605.52-2.835-2.09-2.2-5.684-1.762-7.32l.183-.664c-1.136-.794-2.185-1.853-3.105-3.215-1.713-2.55-2.012-4.92-2.147-6.825l-.173-2.464c-.072-.688-.197-1.44-.453-2.262-.27-.77-.597-1.415-.93-1.997l-1.304-2.09c-1.02-1.622-2.17-3.716-2.277-6.782-.058-1.646.17-3.114.62-4.428l-.54-.433c-1.338-1.078-4-3.663-2.845-7.065 1.112-3.345 4.727-3.846 6.42-3.937l.688-.034c.404-1.324 1.088-2.647 2.098-3.947"/></g><path d="M108.395 235.164c.25-1.473.9-3.013 2.094-4.548 1.627-2.08 3.475-2.97 5.155-3.644l2.344-.948a12.73 12.73 0 0 0 2.281-1.29c.75-.558 1.343-1.14 1.877-1.728l1.632-1.944c1.165-1.386 2.57-2.87 5.06-3.774 1.82-.67 3.49-.804 4.972-.587l.635-1.78c.63-1.64 1.897-3.88 4.293-3.846 2.368.01 3.615 2.224 4.236 3.846l.63 1.78c1.487-.216 3.153-.082 4.977.587 2.484.905 3.894 2.387 5.054 3.774l1.627 1.935c.554.61 1.165 1.203 1.935 1.776.76.534 1.502.924 2.233 1.252l2.34.948c1.685.674 3.528 1.564 5.16 3.644 1.194 1.536 1.844 3.075 2.094 4.548l1.887.053c1.752.096 4.274.602 4.986 2.903.722 2.248-.99 4.1-2.35 5.213l-1.5 1.155c.67 1.338 1.05 2.965.982 4.91-.09 2.643-1.064 4.438-2.026 5.978l-1.338 2.142c-.395.688-.775 1.46-1.097 2.388a14.28 14.28 0 0 0-.496 2.508l-.178 2.522c-.125 1.805-.395 3.832-1.868 6.026-1.088 1.612-2.358 2.705-3.682 3.403l.534 1.8c.452 1.694.75 4.255-1.213 5.636-1.916 1.382-4.226.327-5.69-.62l-1.56-1.068c-1.07 1.05-2.498 1.91-4.366 2.45-2.546.727-4.553.356-6.315-.082l-2.45-.61c-.775-.164-1.627-.284-2.61-.303-.948.02-1.78.144-2.536.303l-2.46.61c-1.752.433-3.77.81-6.3.082-1.868-.54-3.297-1.4-4.366-2.45l-1.564 1.068c-1.473.958-3.812 2.017-5.732.587-1.91-1.396-1.612-3.923-1.165-5.603l.534-1.8c-1.328-.698-2.594-1.79-3.677-3.403-1.482-2.195-1.752-4.22-1.877-6.022l-.178-2.522c-.082-.79-.226-1.64-.515-2.575a13.28 13.28 0 0 0-1.073-2.325l-1.338-2.142c-.963-1.54-1.935-3.336-2.03-5.978-.067-1.944.318-3.57.982-4.91l-1.497-1.155c-1.367-1.107-3.105-3.003-2.33-5.275.736-2.248 3.23-2.744 4.967-2.84l1.887-.053" fill="#fff"/><g class="C"><path d="M114.698 243.352c-1.314-.385-2.34-.135-3.5.4-1.896.857-4.42-1.165-5.805-2.3-1.386-1.117-1.77-2.012-1.564-2.618.193-.6 1.025-1.102 2.8-1.194 1.78-.1 5.015-.25 6.05 1.56.626 1.097 1.3 1.906 2.594 2.363l-.578 1.8zm48.022 0c1.3-.385 2.334-.135 3.494.4 1.9.857 4.423-1.165 5.8-2.3 1.386-1.117 1.767-2.012 1.56-2.618-.188-.6-1.02-1.102-2.8-1.194-1.78-.1-5-.25-6.045 1.56-.63 1.097-1.3 1.906-2.594 2.363l.578 1.8zm-37.912 27.542c-.77 1.136-.847 2.18-.708 3.446.226 2.074-2.48 3.846-3.976 4.818s-2.46 1.06-2.974.674h.005c-.53-.366-.736-1.3-.274-3.032s1.3-4.847 3.35-5.27c1.242-.255 2.22-.655 3.056-1.738l1.52 1.102zm27.802 0c.77 1.136.847 2.18.707 3.446-.226 2.074 2.48 3.846 3.976 4.818s2.455 1.06 2.975.674h-.005c.525-.366.736-1.3.274-3.032s-1.3-4.847-3.355-5.27c-1.242-.255-2.22-.655-3.05-1.738l-1.52 1.102zm-14.842-45.67c-.043-1.367-.597-2.262-1.45-3.2-1.405-1.54-.255-4.568.38-6.228.645-1.67 1.367-2.306 2.012-2.3h-.005c.645-.005 1.367.63 2.007 2.3.645 1.66 1.8 4.688.385 6.228-.857.94-1.4 1.834-1.45 3.2h-1.882z"/><path d="M112.886 241.777s-6.315.876-6.08 7.533c.14 4.02 2.85 5.45 4.332 9.82v-.005c1.362 4.404.014 7.148 2.262 10.483 3.72 5.52 9.347 2.517 9.347 2.517h.005s-1.12 6.286 5.285 8.115c3.865 1.117 6.06-1.025 10.67-1.083 4.61.058 6.8 2.2 10.67 1.083 6.4-1.83 5.285-8.115 5.285-8.115s5.627 3.003 9.352-2.517c2.248-3.336.9-6.08 2.262-10.483v.005c1.483-4.37 4.192-5.8 4.332-9.82.23-6.657-6.084-7.533-6.084-7.533s4.592-4.423.49-9.67c-2.48-3.172-5.506-2.74-9.27-5.396v.005c-3.692-2.767-4.212-5.78-7.995-7.152-6.257-2.282-9.044 3.456-9.044 3.456s-2.787-5.737-9.05-3.456c-3.778 1.372-4.303 4.385-7.995 7.152l.005-.005c-3.77 2.657-6.796 2.224-9.275 5.396-4.1 5.246.49 9.67.49 9.67z"/></g><path d="M122.348 244.866s-4.067-.144-5.295 2.28c-.8 1.603-.55 4.4 1.3 5.77 1.174.876 1.8 1.752 2.272 3.13.424 1.386.433 2.46 0 3.856-.68 2.2.75 4.616 2.344 5.43 2.426 1.242 5.63-1.266 5.63-1.266l.024.024s-1.396 3.817.534 5.737c1.266 1.266 4 1.877 5.887.554 1.198-.837 2.224-1.165 3.672-1.2 1.45.024 2.48.35 3.672 1.2 1.877 1.323 4.62.712 5.9-.554 1.925-1.92.534-5.737.534-5.737l.02-.024s3.206 2.508 5.627 1.266c1.593-.814 3.028-3.23 2.35-5.43-.433-1.396-.424-2.47 0-3.856.472-1.377 1.102-2.253 2.267-3.13 1.843-1.372 2.103-4.168 1.295-5.77-1.227-2.426-5.3-2.28-5.3-2.28l-.005-.024s3.374-2.282 2.94-4.962c-.284-1.77-2.142-3.88-4.442-3.908-1.46-.024-2.48-.366-3.668-1.198h.005c-1.165-.87-1.8-1.738-2.272-3.124-.74-2.17-3.32-3.288-5.092-3.008-2.686.414-3.807 4.332-3.807 4.332h-.03s-1.12-3.918-3.807-4.332c-1.77-.28-4.35.837-5.092 3.008-.467 1.386-1.112 2.252-2.267 3.124-1.2.833-2.2 1.174-3.673 1.198-2.3.03-4.154 2.137-4.438 3.908-.433 2.686 2.94 4.962 2.94 4.962l-.01.024zm2.243.722s.3-.944-.876-2.262c-.88-.987-1.228-2.012-1.122-2.83.164-1.353 1.685-2.56 3.413-2.873 1.03-.178 1.843-.5 2.758-1.145l-.005.005a6.38 6.38 0 0 0 1.945-2.267c.828-1.55 2.45-2.628 3.788-2.363.8.154 1.675.8 2.344 1.945.9 1.5 1.882 1.53 1.882 1.53h-.02s.992-.02 1.882-1.53c.67-1.146 1.535-1.8 2.34-1.945 1.348-.265 2.97.814 3.793 2.36a6.37 6.37 0 0 0 1.94 2.272v-.005c.915.645 1.728.967 2.758 1.145 1.728.313 3.25 1.52 3.413 2.873.1.82-.24 1.844-1.12 2.83-1.17 1.32-.876 2.262-.876 2.262l-.005-.015s.323.934 2.04 1.314c1.3.284 2.17.9 2.57 1.627.66 1.194.144 3.066-1.073 4.337a6.37 6.37 0 0 0-1.56 2.546h.005c-.337 1.064-.385 1.94-.24 2.975.24 1.737-.438 3.557-1.68 4.14-.746.342-1.82.327-3.037-.197-1.612-.703-2.426-.14-2.426-.14l.014-.005s-.8.592-.616 2.35c.125 1.314-.197 2.344-.75 2.94-.938 1-2.878 1.088-4.457.323a6.31 6.31 0 0 0-2.902-.688 6.3 6.3 0 0 0-2.902.688c-1.58.765-3.523.68-4.452-.323-.563-.597-.88-1.627-.756-2.94.173-1.757-.62-2.35-.62-2.35l.014.005s-.8-.563-2.426.14c-1.208.525-2.3.54-3.032.197-1.242-.583-1.92-2.402-1.68-4.14a6.45 6.45 0 0 0-.236-2.975 6.37 6.37 0 0 0-1.559-2.546c-1.218-1.27-1.738-3.143-1.073-4.337.4-.717 1.275-1.343 2.57-1.627 1.718-.38 2.04-1.314 2.04-1.314l-.005.015zm6.98 2.277c-.36.972-1.762 1-1.742 2.002.034 1.603 1.275 1.56 1.627 2.657v-.005c.36 1.097-.674 1.8.245 3.1.573.818 1.723.02 2.585.592l.034.024c.8.64.4 1.978 1.357 2.276 1.535.472 1.882-.73 3.032-.73s1.492 1.203 3.032.73c.953-.298.55-1.636 1.362-2.276l.03-.024c.86-.573 2.012.226 2.58-.592.924-1.32-.106-2.012.245-3.1v.005c.356-1.097 1.598-1.054 1.627-2.657.02-1-1.377-1.03-1.742-2.002l-.01-.034c-.28-.996.837-1.843.236-2.637-.963-1.285-1.95-.52-2.878-1.2s-.505-1.843-2.02-2.363c-.948-.327-1.405.996-2.44 1.035h-.04c-1.035-.04-1.497-1.362-2.435-1.035-1.52.52-1.097 1.7-2.03 2.363h.005c-.934.68-1.9-.087-2.878 1.2-.602.794.515 1.64.23 2.637l-.01.034zm10.98 2.305a3.84 3.84 0 1 1-7.681 0 3.84 3.84 0 1 1 7.681-.001" fill="#fff"/><path d="M127.852 287.174c-.37.322-.727.635-1.458.93-.722.28-1.266.327-1.795.395v.712h1.526v6.84c-.014 1.2-.404 1.4-1.637 1.42v.655h5.266v-.655c-.467-.02-1.122-.053-1.415-.53-.16-.25-.173-.592-.173-.876v-8.9h-.313zm5.965 6.054c.842.452 2.18 1.174 2.18 2.512 0 .76-.496 1.666-1.584 1.666-1.064 0-1.733-.982-1.733-1.872 0-.453.14-.857.313-1.213.28-.544.558-.828.823-1.093m1.06-1.42c-.606-.356-1.993-1.18-1.993-2.368 0-.76.48-1.506 1.4-1.506.967 0 1.45.885 1.45 1.76 0 1.073-.592 1.786-.857 2.113m.842.47c.515-.293 1.665-.967 1.665-2.46 0-1.526-1.26-2.667-2.97-2.667-1.656 0-3.167 1.107-3.167 2.792 0 1.506 1.136 2.286 1.8 2.74-.62.236-1.3.5-1.77 1.295a2.49 2.49 0 0 0-.376 1.324c0 1.574 1.415 2.926 3.44 2.926 1.916 0 3.5-1.232 3.5-2.94 0-1.545-1.17-2.368-2.103-3.008m2.768-1.756h.712c.298-1.093.597-1.482 1.8-1.53l1.044-.014h1.848l-3.345 6.137c-.732 1.372-.977 1.853-.977 2.32 0 .535.5.828.977.828.67 0 .857-.486 1.107-1.15l.683-1.843 1.636-4.236 1.45-3.644h-5.343c-.063 0-.154 0-.217-.03s-.125-.116-.144-.24h-.65l-.592 3.403zm7.475 0h.712c.298-1.093.592-1.482 1.8-1.53l1.044-.014h1.853l-3.345 6.137c-.736 1.372-.982 1.853-.982 2.32 0 .535.5.828.982.828.67 0 .852-.486 1.102-1.15l.684-1.843 1.637-4.236 1.45-3.644h-5.343c-.063 0-.154 0-.216-.03s-.125-.116-.14-.24h-.655l-.592 3.403z" fill="#263c7e" class="B"/></svg>