<svg xmlns="http://www.w3.org/2000/svg" width="324" height="396" viewBox="0 0 323.8 396.2"><style>.a{fill:#E53223;}.b{fill:#FFF;}</style><path d="M291 60l-0.7-6.2h-34.8C250.4 23.3 223.9 0 191.9 0c-32 0-58.6 23.3-63.7 53.8h-94.7l-0.7 6.2c0 0.2-0.6 6-0.6 15.8 0 20.7 2.7 59.3 19.5 102.3 16.7 43 47.7 90.4 103.9 127.6h0c1.6 1.1 3.7 1.8 5.8 1.8 0.2 0 0.4 0 0.6 0 0.2 0 0.4 0 0.6 0 2 0 4.2-0.7 5.8-1.8l0 0c56.2-37.2 87.1-84.6 103.9-127.6 16.8-43 19.4-81.7 19.4-102.3C291.6 65.9 291 60.2 291 60z"/><path d="M277.8 75.8c0-3.2-0.1-5.9-0.2-8.1h-21.3c-1.6 34.2-29.9 61.5-64.5 61.5 -34.6 0-62.9-27.3-64.5-61.5H46.1c-0.1 2.2-0.2 4.9-0.2 8.1 0 19.4 2.6 56.5 18.5 97.3 15.8 40.5 44.7 84.9 97.4 120.3 8.2-5.5 15.8-11.2 22.8-17l-44-50.8 2.1-1.7 0.6-0.5 0.8-0.1 0.8 0c1.6 0 3.1 0.2 4.9 0.2 2.8 0 6.2-0.4 10.5-2.7 1.8-1 2.9-2.3 3.7-3.9 0.8-1.6 1.1-3.5 1.1-5.3 0-2-0.4-3.8-1-4.8 -0.9-1.9-3.3-3.4-5.7-4.2 -1.2-0.4-2.3-0.6-3.1-0.8l-0.9-0.1 -0.3 0 -0.1 0 -1.6-0.3 -0.9-0.2 -8.3-9.2 3.9-3.4 2.7-2.3 3.9-3.4 58.2 67.1c0.7-0.8 1.4-1.5 2-2.3l-57.9-66.8 3.9-3.4 57.4 66.2c0.7-0.8 1.3-1.6 2-2.4l-57-65.8 1.3-1.2c0 0 2 0.5 5.1 0.7l53.9 62.2c0.6-0.8 1.3-1.6 1.9-2.5l-51.8-59.8c1.8-0.2 3.8-0.5 5.9-1.1l49.1 56.7c0.6-0.8 1.2-1.7 1.8-2.5l-47.9-55.3c1.7-0.9 3-2.1 3.8-3.5l47.1 54.3c0.6-0.9 1.2-1.8 1.8-2.6l-47.5-54.8c0.9-3.1 0.6-6.1 0.4-7.4l50 57.7c0.6-0.9 1.1-1.8 1.7-2.7l-54.2-62.5v-7.9l57 65.7c0.6-1.1 1.2-2.1 1.8-3.2l-52.4-60.5 3.3-2.8 51.4 59.3c5.2-9.7 9.6-19.3 13.3-28.8C275.2 132.2 277.8 95.2 277.8 75.8z" class="a"/><path d="M203.5 128.1v24.8l21.4 24.7v-57.5C218.5 123.9 211.2 126.7 203.5 128.1z" class="b"/><path d="M170.5 211.5c0 0.9-0.1 1.8-0.2 2.7l36.2 41.8c0.7-0.7 1.4-1.5 2.1-2.2l-38.3-44.1C170.5 210.2 170.5 210.9 170.5 211.5z" class="b"/><path d="M166.6 222.4l34.1 39.4c0.7-0.7 1.4-1.4 2.2-2.2l-34.5-39.8C167.9 220.8 167.3 221.6 166.6 222.4z" class="b"/><path d="M194.5 142.6c-4.9-5-13.8-10.9-22.2-16.5 -9.7-3.1-18.5-8.4-25.6-15.4 -6.3 1-11.5 8.1-11.5 8.1l-26.5-0.7 -0.5 10.5c0 0-3.9-0.2-8 0 -4.1 0.2-4.3 5.9-4.3 5.9s-3.2-0.2-6.6 0.7c-3.4 0.9-3 6.2-3 6.2s-8.9 0.2-11.9 3.7c-3 3.4-3.4 10.5-0.5 14.6 3 4.1 19.9 28.3 24.2 37.9 4.3 9.6 5 42.1 5 42.1l0.3 0.8c15.2 18.7 34.2 36.7 58.3 52.9 8.2-5.5 15.8-11.2 22.8-17l-44-50.8 2.1-1.7 0.6-0.5 0.8-0.1 0.8 0c1.6 0 3.1 0.2 4.9 0.2 2.8 0 6.2-0.4 10.5-2.7 1.8-1 2.9-2.3 3.7-3.9 0.8-1.6 1.1-3.5 1.1-5.3 0-2-0.4-3.8-1-4.8 -0.9-1.9-3.3-3.4-5.7-4.2 -1.2-0.4-2.3-0.6-3.1-0.8l-0.9-0.1 -0.3 0 -0.1 0 -1.6-0.3 -0.9-0.2 -8.3-9.2 3.9-3.4 2.7-2.3 3.9-3.4 58.2 67.1c0.7-0.8 1.4-1.5 2-2.3l-57.9-66.8 3.9-3.4 57.4 66.2c0.7-0.8 1.3-1.6 2-2.4l-57-65.8 1.3-1.2c0 0 2 0.5 5.1 0.7l53.9 62.2c0.6-0.8 1.3-1.6 1.9-2.5l-51.8-59.8c1.8-0.2 3.8-0.5 5.9-1.1l49.1 56.7c0.6-0.8 1.2-1.7 1.8-2.5l-47.9-55.3c1.7-0.9 3-2.1 3.8-3.5l47.1 54.3c0.6-0.9 1.2-1.8 1.8-2.6l-47.5-54.8c0.9-3.1 0.6-6.1 0.4-7.4l50 57.7c0.6-0.9 1.1-1.8 1.7-2.7l-54.2-62.5v-7.9l57 65.7c0.6-1.1 1.2-2.1 1.8-3.2l-52.4-60.5L194.5 142.6z" class="b"/><path d="M159.6 226.8l35.2 40.7c0.7-0.7 1.5-1.4 2.2-2.1l-34.6-39.9C161.5 226 160.5 226.4 159.6 226.8z" class="b"/><path d="M256.4 67.6c-0.7 14.7-6.3 28.1-15.2 38.6v90.1l4.8 5.5c5.2-9.7 9.6-19.3 13.3-28.8 1.2-3 2.3-6.1 3.3-9.1V67.6H256.4z" class="b"/><path d="M150.2 228.5l38.5 44.4c0.8-0.7 1.5-1.3 2.3-2l-37-42.7C152.6 228.5 151.3 228.5 150.2 228.5z" class="b"/><path d="M154.8 196.4l0 0c0.1 0 2.3 0.2 5 1.1l-9.7-11.2 -2.7 2.3 7 7.8L154.8 196.4z" class="b"/><path d="M179 120.7l-13.6-20.3 -23-6.4c-4.3-7.2-7.1-15.5-7.8-24.3l15.1-19.2 -1.1-23.8c0.8-1 1.7-1.9 2.6-2.8 5.2-5.2 11.4-9.4 18.3-12.3l22.9 8.5 22.4-8.3c6.7 2.9 12.7 7 17.8 12.1 1 1 1.9 2 2.8 3l-1 24.4 14.9 18.7c-0.8 8.8-3.6 17.1-8 24.3l-23.5 6.6 -13.2 19.9c-4.1 0.9-8.3 1.4-12.6 1.4C187.4 122.1 183.1 121.6 179 120.7z" class="b"/><polygon points="217 58.2 192.4 40.3 167.8 58.2 177.2 87.1 207.6 87.1 "/><path d="M322.1 286.1l-15.3-8.9c3.6-8.4 6.5-17.4 8.9-25.8 4.6-16.3 7-29.9 7-29.9 0.2-1.4-0.4-2.8-1.6-3.6 -1.2-0.7-2.8-0.6-3.9 0.3L291 238.6l-18.7-32.2c-0.8-1.4-2.6-2.1-4.1-1.5 -1.6 0.5-2.5 2.1-2.3 3.8 0.2 1.7 0.4 3.5 0.4 5.4 0 11.2-4.1 25.9-8.3 37.6 -2.1 5.9-4.2 11-5.8 14.7 -0.8 1.8-1.4 3.3-1.9 4.3 -0.5 1-0.7 1.5-0.7 1.5 -0.8 1.6-0.2 3.6 1.4 4.5l13.3 7.3c-20 34.4-58.3 57.7-102.4 57.7 -44 0-82.4-23.3-102.4-57.7l13.3-7.3c1.6-0.9 2.2-2.9 1.4-4.5 0 0-0.2-0.5-0.7-1.5 -0.5-1-1.1-2.5-1.9-4.3 -1.6-3.7-3.7-8.8-5.8-14.7 -4.2-11.7-8.4-26.4-8.3-37.6 0-1.9 0.1-3.7 0.4-5.4 0.2-1.6-0.7-3.2-2.3-3.8 -1.6-0.5-3.3 0.1-4.1 1.5l-18.7 32.2 -26.2-20.5c-1.1-0.9-2.7-1-3.9-0.3 -1.2 0.7-1.9 2.2-1.6 3.6 0 0.1 2.4 13.7 7 29.9 2.4 8.4 5.3 17.5 8.9 25.8l-15.3 8.9c-1.5 0.9-2.1 2.7-1.5 4.3C25.7 352.4 88.5 396.2 161.9 396.2s136.2-43.8 161.6-105.8C324.2 288.8 323.6 287 322.1 286.1z"/><path d="M55.9 277.4l6.6-3.8 -10-3.8C53.6 272.4 54.7 274.9 55.9 277.4z" class="b"/><path d="M261.3 273.6l6.6 3.8c1.2-2.5 2.4-5 3.4-7.6L261.3 273.6z" class="b"/><path d="M45 260.9c0 0 0.1-0.1 0.1-0.1 0 0 0.1 0 0.1 0 0.2-0.1 0.3-0.1 0.5-0.2 0.1 0 0.1 0 0.2 0 0.2 0 0.4-0.1 0.6-0.1 0 0 0.1 0 0.1 0 0.5 0 0.9 0.1 1.3 0.2 0.1 0 0.1 0.1 0.2 0.1l16.2 6.2c-1.5-3.5-3.2-7.9-5-12.8 -3.6-10-7.2-22-8.3-33.1L36.8 245.6c-0.5 0.9-1.4 1.5-2.3 1.6 -1 0.2-2-0.1-2.8-0.7l-22-17.2c1.4 6.7 3.7 16.2 6.8 26.2 1.9 6.1 4.1 12.3 6.5 18.2l22-12.8C45 260.9 45 260.9 45 260.9z" class="b"/><path d="M275.7 260.7c0.1 0 0.1-0.1 0.2-0.1 0.4-0.2 0.9-0.2 1.3-0.2 0 0 0.1 0 0.1 0 0.2 0 0.4 0 0.6 0.1 0.1 0 0.1 0 0.2 0 0.2 0 0.3 0.1 0.5 0.2 0 0 0.1 0 0.1 0 0 0 0.1 0.1 0.1 0.1 0 0 0 0 0.1 0l22 12.8c2.4-5.8 4.6-12.1 6.5-18.2 3.1-10 5.4-19.6 6.8-26.2l-22 17.2c-0.8 0.6-1.8 0.9-2.8 0.7 -1-0.2-1.8-0.8-2.3-1.6l-14.3-24.5c-1.2 11.1-4.8 23.1-8.3 33.1 -1.8 4.9-3.5 9.3-5 12.8L275.7 260.7z" class="b"/><path d="M161.9 389.3c-69.5 0-129-40.8-154.1-98.8l37-21.6c17 46.5 63.1 79.6 117.1 79.6s100-33.2 117.1-79.6l37 21.6C290.9 348.5 231.4 389.3 161.9 389.3z" class="b"/><path d="M45.3 287.4l2.9 4.6 -18.1 24.6 -3-4.7 3.7-5 -6.3-9.8 -6.2 1.2 -3-4.7M40.4 293.8l-10.4 2 4.2 6.5L40.4 293.8z" class="a"/><polyline points="55.5 302.2 64.7 312.9 60.7 316.3 55 309.7 51.1 313.1 56.7 319.7 52.8 323.1 47.1 316.5 37.4 324.8 33.9 320.7 " class="a"/><path d="M82.2 335.1l-5.2 0.3c-0.2-3.8-1.5-6.7-4-8.7 -2.1-1.8-4.4-2.5-7-2.3 -2.6 0.2-4.8 1.4-6.6 3.4 -1.2 1.4-2 3-2.3 4.6 -0.3 1.6-0.2 3.3 0.4 4.9 0.6 1.6 1.6 3 3 4.2 1.2 1 2.5 1.7 3.8 2.1 1.4 0.4 3.2 0.5 5.4 0.4l0.3 5.3c-2.9 0.2-5.4 0-7.3-0.6 -1.9-0.6-3.8-1.7-5.7-3.2 -3.4-2.9-5.2-6.3-5.5-10.3 -0.3-4 0.9-7.6 3.8-10.9 1.8-2.2 4-3.7 6.4-4.5 2.4-0.9 5-1 7.6-0.5 2.7 0.5 5.1 1.7 7.2 3.5 1.8 1.5 3.2 3.4 4.2 5.5C81.7 330.4 82.2 332.7 82.2 335.1" class="a"/><path d="M82.7 362.3l12.3-25.7 4 1.9c2.3 1.1 4 2.1 4.9 2.9 1.3 1.1 2.2 2.5 2.6 4 0.4 1.5 0.2 3.1-0.5 4.6 -0.5 1-1.1 1.8-1.9 2.4 -0.8 0.6-1.8 1-3.1 1.3 1.2 1.5 1.9 2.9 2.1 4.4 0.2 1.5-0.1 2.9-0.8 4.4 -0.7 1.4-1.7 2.6-3 3.4 -1.3 0.8-2.7 1.3-4.2 1.3 -1.5 0-3.2-0.5-5.3-1.5M92.9 353.4l-3.2 6.6 1.2 0.6c2 1 3.5 1.4 4.5 1.2 1-0.2 1.7-0.8 2.1-1.7 0.5-1.1 0.5-2.2 0-3.2 -0.5-1-1.8-2-3.7-2.9L92.9 353.4zM97.6 343.6l-2.6 5.4 1.1 0.5c1.2 0.6 2.2 0.7 3 0.5 0.8-0.2 1.4-0.8 1.8-1.6 0.4-0.8 0.4-1.6 0.1-2.3 -0.3-0.7-1.1-1.4-2.2-1.9L97.6 343.6z" class="a"/><path d="M119.7 354.1c1.9 0.6 3.6 1.6 5 3 1.4 1.4 2.3 3.1 2.8 5 0.5 1.9 0.4 3.8-0.1 5.7s-1.5 3.5-3 4.9c-1.4 1.4-3.1 2.3-5 2.8 -1.9 0.5-3.9 0.4-5.8-0.2 -2.9-0.8-5.1-2.6-6.5-5.3 -1.5-2.7-1.8-5.5-0.9-8.4 0.9-3.2 2.9-5.4 5.8-6.9C114.5 353.6 117.1 353.4 119.7 354.1M118.4 358.9c-1.6-0.5-3.1-0.3-4.4 0.5 -1.4 0.8-2.3 2.1-2.8 3.8 -0.5 1.8-0.4 3.3 0.3 4.7 0.7 1.4 1.9 2.3 3.5 2.8 1.6 0.5 3.1 0.3 4.5-0.5 1.4-0.8 2.3-2.1 2.8-3.8 0.5-1.7 0.4-3.3-0.3-4.7C121.2 360.3 120 359.4 118.4 358.9" class="a"/><path d="M132.4 358l5.2 0.7 -1.3 10.1c-0.3 2-0.3 3.3-0.1 4.1 0.2 0.8 0.5 1.4 1.1 1.9 0.6 0.5 1.3 0.8 2.2 0.9 0.9 0.1 1.7 0 2.4-0.3 0.7-0.3 1.2-0.9 1.6-1.7 0.3-0.6 0.6-1.8 0.8-3.8l1.3-10.2 5.2 0.7 -1.1 8.9c-0.5 3.6-1.1 6.1-1.8 7.4 -0.9 1.5-2.1 2.7-3.6 3.4 -1.5 0.7-3.3 0.9-5.4 0.6 -2.3-0.3-4.1-1-5.4-2.3s-2.1-2.8-2.5-4.7c-0.3-1.3-0.2-3.6 0.3-7" class="a"/><path d="M153.9 360.4l4.6 0.1 -0.1 2.7c0.5-1 1.1-1.8 1.9-2.3 0.8-0.5 1.7-0.8 2.6-0.8 0.7 0 1.4 0.2 2.1 0.6l-1.7 4.5c-0.6-0.3-1.1-0.5-1.5-0.5 -0.8 0-1.5 0.5-2 1.5 -0.6 1-0.9 3-0.9 5.9v1l-0.2 8.5 -5.3-0.1" class="a"/><path d="M166.7 360.7l5.3-0.5 0.2 2.2c1.1-1.1 2.1-1.9 3.1-2.4 0.9-0.5 1.9-0.8 2.9-0.9 2.1-0.2 3.9 0.4 5.5 1.7 1.3 1.1 2.1 2.9 2.3 5.3l1.3 13.9 -5.3 0.5 -0.8-9.2c-0.2-2.5-0.5-4.2-0.8-4.9 -0.3-0.8-0.7-1.4-1.3-1.8 -0.6-0.4-1.3-0.5-2.1-0.5 -1.1 0.1-1.9 0.5-2.6 1.3 -0.7 0.8-1.1 1.8-1.3 3.1 -0.1 0.7 0 2.1 0.2 4.3l0.8 8.4 -5.3 0.5" class="a"/><path d="M211.7 365.1l-16.5 4.2c0.6 1.4 1.5 2.4 2.8 3 1.2 0.6 2.7 0.7 4.3 0.3 1.9-0.5 3.4-1.6 4.4-3.3l4.8 0.9c-0.7 1.8-1.7 3.2-3 4.4 -1.3 1.1-3 1.9-5.1 2.4 -3.2 0.8-6.1 0.5-8.6-1 -2.5-1.5-4.2-3.8-4.9-6.8 -0.8-3.1-0.4-6 1-8.5 1.5-2.6 3.8-4.2 6.8-5 3.2-0.8 6.1-0.5 8.6 1.1 2.5 1.6 4.2 4 5.1 7.4M205.5 362.3c-0.6-1-1.5-1.8-2.7-2.2 -1.2-0.5-2.4-0.5-3.8-0.2 -1.4 0.4-2.6 1.1-3.5 2.2 -0.5 0.7-1 1.7-1.2 3.1L205.5 362.3z" class="a"/><path d="M210 353.5l4.7-2.3 1.1 2.2c0.4-1.3 0.9-2.4 1.7-3.3 0.8-0.9 1.7-1.7 2.9-2.3 1.2-0.6 2.4-0.8 3.6-0.7 1.2 0.1 2.4 0.6 3.6 1.4 0.2-1.5 0.7-2.8 1.5-3.9 0.8-1.1 1.9-2 3.2-2.7 1.3-0.6 2.7-0.9 4-0.8 1.3 0.1 2.5 0.6 3.4 1.4 0.9 0.8 2 2.3 3.1 4.6l5.4 11.1 -4.7 2.3 -4.7-9.6c-1-2.1-2-3.5-2.9-3.9 -0.9-0.5-1.9-0.5-3 0 -0.8 0.4-1.4 1-1.9 1.8 -0.4 0.8-0.6 1.7-0.5 2.6 0.1 1 0.6 2.4 1.4 4.2l4.2 8.5 -4.7 2.3 -4.5-9.1c-0.8-1.7-1.5-2.8-2.2-3.5 -0.6-0.6-1.3-1-2-1.1 -0.7-0.1-1.4 0-2.1 0.3 -0.8 0.4-1.4 1-1.8 1.8 -0.4 0.8-0.6 1.7-0.5 2.7 0.1 1 0.6 2.4 1.5 4.2l4.1 8.4 -4.7 2.3" class="a"/><path d="M247.9 331.2c1.6-1.2 3.4-2 5.4-2.2 2-0.3 3.9-0.1 5.7 0.7 1.8 0.7 3.3 1.9 4.5 3.5 1.2 1.6 2 3.3 2.2 5.3 0.3 2 0 3.9-0.7 5.7 -0.8 1.8-2 3.3-3.6 4.6 -2.4 1.8-5.1 2.6-8.1 2.2 -3-0.4-5.5-1.8-7.3-4.2 -2-2.6-2.7-5.5-2.2-8.7C244.3 335.1 245.7 332.9 247.9 331.2M251 335.1c-1.3 1-2 2.3-2.2 3.9s0.3 3.1 1.4 4.5c1.1 1.5 2.5 2.3 4 2.5 1.6 0.2 3-0.2 4.3-1.2 1.3-1 2.1-2.3 2.2-3.9 0.2-1.6-0.3-3.1-1.4-4.5 -1.1-1.4-2.4-2.3-4-2.5C253.7 333.6 252.3 334 251 335.1" class="a"/><path d="M258.6 323.2l3.6-3.8 7.4 7c1.4 1.4 2.5 2.2 3.3 2.5 0.7 0.3 1.5 0.4 2.2 0.3 0.7-0.2 1.4-0.5 2-1.2 0.6-0.7 1-1.3 1.1-2.1 0.1-0.7 0-1.5-0.4-2.3 -0.3-0.6-1.2-1.6-2.6-2.9l-7.5-7.1 3.6-3.8 6.5 6.1c2.7 2.5 4.3 4.5 4.9 5.8 0.7 1.6 0.9 3.3 0.6 4.9 -0.3 1.6-1.2 3.2-2.7 4.8 -1.6 1.7-3.3 2.7-5 3 -1.7 0.3-3.5 0.1-5.2-0.8 -1.2-0.6-3-2-5.5-4.3" class="a"/><polyline points="268 301.1 271.2 296.9 277.4 301.6 279.3 299.1 282.9 301.8 281 304.3 294.1 314.3 291 318.5 277.8 308.5 276.2 310.7 272.6 307.9 274.2 305.8 " class="a"/><path d="M273.6 293.4l2.8-4.5 8.8 5.3c-0.2-1.4-0.3-2.6-0.1-3.7 0.2-1.1 0.5-2.1 1.1-3.1 1.1-1.8 2.6-2.9 4.6-3.4 1.7-0.4 3.6 0.1 5.7 1.3l11.9 7.2 -2.7 4.5 -7.9-4.8c-2.1-1.3-3.6-2-4.4-2.3 -0.9-0.2-1.6-0.2-2.3 0 -0.7 0.3-1.2 0.7-1.6 1.5 -0.6 0.9-0.7 1.9-0.5 2.9 0.2 1 0.8 2 1.7 2.9 0.5 0.5 1.6 1.3 3.6 2.4l7.2 4.4 -2.8 4.5" class="a"/></svg>