<svg xmlns="http://www.w3.org/2000/svg" height="85" width="85" xmlns:v="https://vecta.io/nano"><path d="M84.456 42.502C84.456 19.365 65.634.544 42.5.544S.543 19.365.543 42.502 19.364 84.456 42.5 84.456s41.957-18.82 41.957-41.954" stroke="#000" stroke-width="1.088" fill="#fff"/><path fill="#e30613" d="M70.09 63.504l-.5.535.903.846.476-.51c.29-.3.353-.724.052-1.004-.293-.275-.656-.162-.93.132m-52.49 2.566c-.693.67-.683 1.58-.113 2.17s1.48.628 2.17-.04c.698-.673.688-1.584.118-2.173s-1.478-.63-2.176.045m51.868-3.89c-.273-.255-.585-.123-.77.077l-.472.504.783.732.456-.49c.236-.252.25-.593.004-.824m10.22-19.702c.146-.254.272-.532.272-.842 0-.823-.652-1.468-1.512-1.468s-1.513.645-1.513 1.468c0 .867.71 1.462 1.45 1.462.063 0 .126-.007.2-.02l-.95 1.633h.772l1.29-2.233zm-3.81.835c0-.52-.265-.943-.683-1.184a1.06 1.06 0 0 0 .335-.791c0-.652-.513-1.17-1.184-1.17-.664 0-1.17.52-1.17 1.17 0 .323.12.596.33.785-.418.24-.683.67-.683 1.2 0 .816.664 1.45 1.524 1.45.874 0 1.532-.633 1.532-1.45m-4.2 19.37c-.436-.407-.99-.374-1.437-.074a1.09 1.09 0 0 0-.25-1.258c-.45-.423-1.173-.408-1.83.294l-1.17 1.25 3.454 3.232 1.207-1.292c.717-.766.535-1.675.026-2.15m-4.082 4.266l-2.004-2.296-.715.625 1.938 2.22c.468.536.338 1.042-.057 1.387s-.924.396-1.382-.13l-1.94-2.22-.715.625 2.004 2.296c.785.898 1.897.718 2.612.095s1.048-1.697.258-2.6m-3.427 5.015l-.45-.675-1.572 1.05-2.177-3.258-.79.526 2.628 3.933 2.36-1.578zm-4.958 1.517l-.876-.06c.026.712-.295 1.23-.86 1.482-.737.326-1.55.034-1.96-.893-.428-.965-.016-1.705.72-2.03.4-.18.896-.232 1.37.077l.352-.856c-.717-.376-1.473-.308-2.065-.045-1.117.495-1.895 1.8-1.23 3.29.624 1.406 1.992 1.8 3.136 1.292.855-.378 1.432-1.185 1.415-2.255m-7.845 4.563l-.16-.797-1.854.37-.768-3.84-.93.186.93 4.638 2.784-.557zm-4.967.932l-.045-.81-1.888.107-.222-3.912-.947.053.267 4.722 2.835-.16zM69.863 42.5c0-1.637-.14-3.227-.422-4.803-.08-.453-.243-.99-.243-.99l1.563-5.426c.335-1.163.467-1.484.283-1.783-.073-.12-.207-.31-.75-.453l-4.693-1.17-.145-.26c-4.9-7.528-13.37-12.517-22.997-12.517-9.667 0-18.18 5.03-23.058 12.612l-.095.175-4.694 1.17c-.542.143-.676.335-.75.453-.184.3-.05.62.283 1.784l1.563 5.426s-.14.48-.222.937c-.26 1.426-.43 3.193-.43 4.846 0 15.1 12.292 27.403 27.403 27.403S69.865 57.612 69.865 42.5M41.39 79.196l-1.354-4.892-.9-.09-2.315 4.52 1.022.105.502-1.026 1.737.176.286 1.105 1.023.105zm-6.612-5.69l-1.648-.46-1.27 4.556 1.704.475c1 .282 1.732-.3 1.92-.972.16-.575-.125-1.05-.598-1.308a1.09 1.09 0 0 0 1-.803c.167-.596-.18-1.23-1.107-1.488m-3.418-1.002L27.8 70.88l-.337.74 1.347.615-1.628 3.564.864.395 1.626-3.565 1.347.615.338-.74zm-6.537-3.6c-1.158-.738-2.623-.417-3.388.784-.76 1.195-.43 2.657.73 3.394s2.623.417 3.383-.778c.765-1.2.434-2.663-.724-3.4m-4.495-.03c1.023-.99 1.043-2.49.09-3.475s-2.453-1.017-3.476-.028-1.038 2.483-.084 3.47 2.454 1.017 3.47.033m-5.128-6.36l.925-.682 1.14 1.544.654-.483-1.703-2.308-3.807 2.808.564.765 1.573-1.16.91 1.233.654-.483-.91-1.233zm-4-19.2c0-.52-.266-.943-.683-1.184a1.06 1.06 0 0 0 .335-.791c0-.652-.513-1.17-1.184-1.17-.665 0-1.17.52-1.17 1.17 0 .323.12.596.328.785-.417.24-.683.67-.683 1.2 0 .817.665 1.45 1.526 1.45.873 0 1.532-.632 1.532-1.45M6.65 40.18l-.696.434v4.11h.696V40.18zm6.25-19.53l4.817 4.035 1.5-1.8c.896-1.07.586-2.262-.124-2.857-.608-.51-1.34-.424-1.912.006.233-.59.06-1.246-.423-1.65-.63-.528-1.586-.457-2.41.524l-1.46 1.743zm5.376-5.775l3.947 4.89.98-.793-1.56-1.933.453-.366 2.63 1.07 1.19-.96-2.98-1.153c.414-.765.247-1.55-.16-2.056-.63-.78-1.705-.957-2.686-.165l-1.814 1.465zm6.723-4.694l2.713 5.67 3.507-1.68-.466-.972-2.37 1.134-.656-1.37 1.835-.88-.466-.974-1.835.88-.66-1.378 2.3-1.1-.466-.974-3.437 1.646zm6.96-2.863l1.403 6.126 1.23-.282-.882-3.854 3.76 3.196 1.163-.266L37.23 6.11l-1.228.28.89 3.882-3.766-3.224-1.165.267zm7.97-.444l1.968.01-.03 5.206 1.262.007.028-5.206 1.968.01.005-1.08-5.196-.028-.005 1.08zm6.916 5.49l1.24.238.49-2.55 1.998.384.204-1.06L48.782 9l.288-1.5 2.504.48.204-1.06-3.743-.72-1.187 6.173zm7.553 2.432c1.682.705 3.53-.044 4.256-1.78.73-1.744-.03-3.586-1.714-4.29s-3.53.044-4.26 1.788c-.727 1.736.034 3.577 1.718 4.282m8.155-2.965l-3.79 5.015 1.006.76 1.496-1.98.466.35-.4 2.8 1.22.92.396-3.172c.842.218 1.563-.136 1.955-.654.604-.8.515-1.885-.49-2.646l-1.86-1.404zm6.07 5l-4.475 4.41 1.46 1.484c1.57 1.59 3.524 1.194 4.62.114 1.103-1.085 1.414-2.948-.04-4.424l-1.562-1.584zM82.935 42.5c0 22.293-18.137 40.43-40.43 40.43S2.078 64.79 2.078 42.5s18.137-40.43 40.428-40.43 40.43 18.137 40.43 40.43m-28.08-28.786c1.004.42 2.136-.007 2.63-1.187.498-1.19.008-2.295-.995-2.716s-2.137.006-2.634 1.195c-.495 1.18-.005 2.286 1 2.708m9 1.456c.27-.36.225-.836-.2-1.165l-.732-.552-.99 1.3.693.524c.442.334.95.264 1.24-.118m14.598 25.643a.79.79 0 0 0-.811.823c0 .442.317.823.81.823.487 0 .8-.38.8-.823 0-.45-.322-.823-.8-.823m-4.102 1.7c-.487 0-.816.36-.816.81 0 .442.328.803.816.803a.79.79 0 0 0 .83-.803c0-.45-.33-.81-.83-.81m0-.64a.5.5 0 0 0 .519-.525.5.5 0 0 0-.519-.525c-.303 0-.506.227-.506.525s.203.525.506.525m-5.057-19.868c.782-.77 1.02-1.904.128-2.81l-.677-.687-2.94 2.897.652.66c.912.925 2.047.717 2.837-.06m-47.46-7.568c-.282-.35-.756-.42-1.18-.078l-.714.575 1.032 1.28.676-.546c.432-.348.486-.858.186-1.23M9.66 42.516a.79.79 0 0 0-.817.811c0 .442.33.803.817.803a.79.79 0 0 0 .829-.803.79.79 0 0 0-.829-.811m24.367 33.562l-.706-.197-.332 1.19.67.187c.408.114.805-.022.915-.417.108-.388-.16-.656-.548-.765m-9.674-6.422c-.692-.44-1.585-.267-2.106.552-.517.813-.294 1.696.396 2.136s1.585.267 2.103-.546c.52-.82.3-1.702-.393-2.142M9.66 41.877c.3 0 .52-.227.52-.525s-.21-.525-.52-.525c-.304 0-.507.227-.507.525s.203.525.507.525m5.465-22.195l-.59.703 1.09.914.57-.68c.294-.35.288-.806-.056-1.094-.38-.32-.784-.12-1.016.158m19.362 54.584l-.665-.185-.288 1.03.644.18c.332.092.642-.052.732-.378.1-.36-.16-.574-.423-.648m4.27 2.697l1.087.11-.395-1.522-.692 1.41zm-20.464-54.64l-.594.7-1.26-1.055.625-.746c.344-.41.816-.588 1.226-.244.417.35.365.903.002 1.336"/><path fill="#140e0c" d="M21.518 28.28c4.566-6.716 12.267-11.135 20.983-11.135 8.775 0 16.523 4.482 21.077 11.276l.96-.402C59.81 20.91 51.656 16.132 42.5 16.132c-9.14 0-17.208 4.675-21.94 11.758l.958.39zm-4.957 9.458c-.28 1.54-.428 3.145-.428 4.764 0 14.538 11.828 26.366 26.367 26.366S68.866 57.04 68.866 42.502c0-1.626-.148-3.23-.432-4.776l-1.02.001c.29 1.53.44 3.162.44 4.775 0 13.98-11.373 25.355-25.353 25.355S17.146 56.482 17.146 42.502a25.37 25.37 0 0 1 .447-4.759l-1.032-.005z"/><path fill="#e8e4d9" d="M23.65 43.78v13.395l.464-.08v-13.28l-.464-.033zm.435-14.4v-3.086l-.464.425v2.487l.464.174zm14.524-5.01v3.34l.464-.24V25.1l-.464-.72zm0 35.502v6.937l.464.074v-6.62l-.464-.4zm.464-37.594v-4.16l-.464.1v3.806l.464.255zm-7.468 21.088v-.975l-.464.295v1.623l.464-.943zm0-10.92v-2.004l-.464-.546v2.347l.464.203zm-.464 19.95v11.772l.464.265v-12.79l-.464.754zm.464-25.56v-6.548l-.464.26v5.837l.464.45zm29.522 16.967v13.28l.464.08V43.78l-.464.033zm.493-14.596V26.73l-.464-.425v3.086l.464-.174zM46.17 25.1v2.38l.463.24v-3.34l-.463.72zm0 35.172v6.62l.463-.074v-6.937l-.463.4zm.463-38.24v-3.806l-.463-.1v4.16l.463-.255zM54.1 44.32v-1.623l-.464-.295v.975l.464.943zm0-12.067v-2.347l-.464.546v2.004l.464-.203zm-.464 19.4v12.79l.464-.265V52.407l-.464-.754zm0-24.806V20.3l.464.26v5.837l-.464.45z"/><path fill="#140e0c" d="M49.874 34.747l15.21-6.164-2.635 4.212-12.57 2.91-.005-.96zm.02 1.653l-.005.666h18.356l-5.932-3.237-12.42 2.57zM15.1 31.017l1.455 5.06 5.163-2.74-2.737-4.473-3.15.82c-.61.164-.8.254-.874.383-.096.146-.035.297.143.95m7.592 2.81l-5.933 3.23h18.358l-.006-.66-12.42-2.57zm-2.51 5.187c-.01.16.15.308.4.56l3.426 3.4 2.758-2.65-5.19-2.173-1.016.51c-.266.15-.362.247-.37.355m14.987-4.27l-15.21-6.164 2.634 4.212 12.572 2.91.005-.96zm-12.397 3.01l4.766 1.905 7.633-1.252-.017-.653H22.774zm5.185 2.726c.075-.03-3.06 2.82-3.06 2.82l2.257.128s.69.045 1.127-.055c.28-.062 1.14-.546 1.14-.546l5.757-3.115-.012-.675-7.207 1.443m21.92-1.443l-.013.675c-.001.026 5.757 3.115 5.757 3.115s.86.484 1.14.546c.436.1 1.126.055 1.126.055l2.258-.128-3.06-2.82c.077.03-7.207-1.443-7.207-1.443m14.604-.38l-1.017-.51-5.19 2.173 2.76 2.65 3.426-3.4c.24-.253.4-.4.39-.56-.006-.108-.102-.204-.368-.355m-8.52 12.52c-.096-.13-2.743-7.145-2.743-7.145-.45-1.122-.833-1.314-1.634-1.762l-1.82-1.16-.086.11 2.086 2.845.005 4.134 6.787 8.62c.93 1.154.96 1.538 2.307 1.538l.833-.384-1.57-.258-4.166-6.536m-26.852 0c-.096.128-4.166 6.536-4.166 6.536l-1.57.258.833.384c1.346 0 1.378-.384 2.307-1.538l6.776-8.62.016-4.134 2.085-2.845-.086-.11-1.817 1.16c-.8.45-1.186.64-1.635 1.762L29.11 51.18m40.892-21.124c-.085-.13-.266-.22-.875-.383l-3.15-.82c-.006-.033-2.737 4.473-2.737 4.473l5.163 2.74 1.455-5.06c.18-.653.238-.803.143-.95m-20.13 7.69l-.017.653 7.635 1.252 4.765-1.905H49.874zm-.193-4.065l4.855-5.263 3.124-3.797.17-1.033-.314-.288-.384 1.178-8.146 7.4a288.95 288.95 0 0 0 .696 1.803m-19.177-5.263l4.855 5.263.696-1.803-8.146-7.4-.385-1.178-.31.288.168 1.033 3.124 3.797zm5.046-7.042l.73.857 2.275 1.25 2.287 3.312-.648.895s-1.307.434-1.578.777c-.337.43-.408 2.09-.408 2.09l-1.008.58-1.202 3.553v5.625l.857.57-2.54 3.557v8.586l2.836 4.805 3.878 2.948 1.493 1.875L44 60.78l3.878-2.948 2.836-4.805v-8.586l-2.5-3.588.807-.54V34.69l-1.202-3.553-1-.58s-.07-1.662-.406-2.09c-.27-.343-1.578-.777-1.578-.777l-.612-.843 2.325-3.364 2.273-1.25.73-.857-1.12.353-2.403 1.345-2.32 3.282-1.147-.3-1.19.29-2.31-3.27-2.403-1.345-1.122-.353zM40.195 28l.35 1.607-1.567.604L40.195 28zm4.65 0l1.217 2.21-1.548-.625.33-1.586zm-2.336 6.343l4.706 2.05-1.57 3.525v-2.756l-3.137-1.603-4.448.496-.038-.142 4.486-1.57zM36.875 50.33l3.022 1.077h5.246l3.024-1.077.032.087-2.742 2.097h-5.872l-2.742-2.097.034-.087z"/><path fill="#fbb800" d="M49.035 54.292l-3.83 1.344h-5.354l-3.78-1.344 1.338 2.33 3.148 1.138-2.21-.053 3.01 2.288h2.34l3.01-2.288-2.21.053 3.147-1.138 1.387-2.33zM36.84 34.59l3.204-1.698h4.97l3.204 1.698-.352-.994-2.308-1.922 2.052.705-.225-.705-2.243-1.185h-5.225c-.032.096-2.243 1.185-2.243 1.185l-.225.705 2.052-.705-2.308 1.922-.35.994zM49.79 44.71l-.007-.01-4.512.553 3.43-1.896-1.353-1.893-1.947 1.3H39.66L37.764 41.5l-1.347 1.86 3.372 1.896-4.512-.553-.006.01v2.413l2.915 1.09h8.686l2.917-1.09V44.71z"/></svg>