<?xml version="1.0" encoding="UTF-8"?>
<!DOCTYPE svg  PUBLIC '-//W3C//DTD SVG 1.1//EN'  'http://www.w3.org/Graphics/SVG/1.1/DTD/svg11.dtd'>
<svg width="362.57px" height="408.81px" enable-background="new 0 0 362.568 408.81" version="1.1" viewBox="0 0 362.568 408.81" xml:space="preserve" xmlns="http://www.w3.org/2000/svg" xmlns:xlink="http://www.w3.org/1999/xlink">
	<defs>
		<rect id="b" x=".06" width="362.51" height="408.81"/>
	</defs>
	<clipPath id="a">
		<use overflow="visible" xlink:href="#b"/>
	</clipPath>
	<path d="m182.16 405.5c190.8-41.483 176.8-166.32 176.8-166.32v-235.8h-355.59l0.203 236.24c0 1e-3 -12.208 124.4 178.58 165.88" clip-path="url(#a)" clip-rule="evenodd" fill="#fff" fill-rule="evenodd"/>
	<path d="m182.16 402.04c187.08-40.994 173.48-162.19 173.44-162.54l-0.025-0.318v-232.41h-348.83l0.199 232.85v0.265c-0.028 0.348-11.895 121.15 175.22 162.15m180.18-162.9c0.582 6.272 9.574 128.57-179.47 169.67l-0.714-3.305-0.714 3.305c-193.65-42.103-181.28-168.99-181.24-169.45l-0.202-235.98-3e-3 -3.384h362.35v239.14z" clip-path="url(#a)" fill="#B5235A"/>
<path d="m256.81 151.55s-5.915-4.351-8.885-4.061c-2.972 0.29-9.827 2.741-9.827 2.741l2.602 8.464 10.618 1.661 5.492-8.805" clip-rule="evenodd" fill="#FCE52D" fill-rule="evenodd"/>
<path d="m256.81 151.55s-5.915-4.351-8.885-4.061c-2.972 0.29-9.827 2.741-9.827 2.741l2.602 8.464 10.618 1.661 5.492-8.805z" fill="none" stroke="#231F20" stroke-miterlimit="3.864" stroke-width="3.267"/>
<path d="m102.83 151.55s5.924-4.351 8.894-4.061c2.971 0.29 9.843 2.741 9.843 2.741l-2.601 8.464-10.634 1.661-5.502-8.805" clip-rule="evenodd" fill="#FCE52D" fill-rule="evenodd"/>
<path d="m102.83 151.55s5.924-4.351 8.894-4.061c2.971 0.29 9.843 2.741 9.843 2.741l-2.601 8.464-10.634 1.661-5.502-8.805z" fill="none" stroke="#231F20" stroke-miterlimit="3.864" stroke-width="3.267"/>
<path d="m180.97 131.15h-60.364s-0.386 6.248-0.386 53.816c0 47.57 60.75 83.271 60.75 83.271s60.758-35.701 60.758-83.271c0-47.568-0.386-53.816-0.386-53.816h-60.372" clip-rule="evenodd" fill="#B5235A" fill-rule="evenodd"/>
<line x1="169.34" x2="169.34" y1="141.61" y2="217.72" fill="none" stroke="#231F20" stroke-miterlimit="3.864" stroke-width="2.178"/>
<path d="m155.45 161.74s6.74-0.341 8.763-0.842c2.02-0.501 6.134-3.375 9-4.553 2.865-1.178 5.22-1.856 5.22-1.856s-0.334 13.712-0.159 15.066c0.159 1.352 0.159 5.906 0.159 5.906s-11.866-1.854-14.045-1.52c-2.198 0.334-7.593 1.52-7.593 1.52l-1.345-13.721" clip-rule="evenodd" fill="#DBDDE1" fill-rule="evenodd"/>
<line x1="146" x2="146" y1="142.08" y2="192.45" fill="none" stroke="#231F20" stroke-miterlimit="3.864" stroke-width="2.178"/>
<line x1="169.5" x2="181.48" y1="173.76" y2="205.42" fill="none" stroke="#231F20" stroke-miterlimit="3.864" stroke-width="2.178"/>
<path d="m155.45 161.74s6.74-0.341 8.763-0.842c2.02-0.501 6.134-3.375 9-4.553 2.865-1.178 5.22-1.856 5.22-1.856s-0.334 13.712-0.159 15.066c0.159 1.352 0.159 5.906 0.159 5.906s-11.866-1.854-14.045-1.52c-2.198 0.334-7.593 1.52-7.593 1.52l-1.345-13.721" fill="none" stroke="#231F20" stroke-miterlimit="3.864" stroke-width="2.178"/>
<path d="m131.62 167.12s-0.229 8.384-0.229 11.716c0 3.339 3.621 13.614 3.621 13.614s3.041-9.325 11.417-8.86c8.376 0.483 17.666 7.435 17.666 7.435s-5.475-14.519-5.475-21.233c0-6.716-0.721-13.14-0.721-13.14 0-1e-3 -7.655 0-12.894 1.662-5.238 1.669-13.385 8.806-13.385 8.806" clip-rule="evenodd" fill="#DBDDE1" fill-rule="evenodd"/>
<path d="m131.62 167.12s-0.229 8.384-0.229 11.716c0 3.339 3.621 13.614 3.621 13.614s3.041-9.325 11.417-8.86c8.376 0.483 17.666 7.435 17.666 7.435s-5.475-14.519-5.475-21.233c0-6.716-0.721-13.14-0.721-13.14s-7.655 0-12.894 1.662c-5.238 1.669-13.385 8.806-13.385 8.806" fill="none" stroke="#231F20" stroke-miterlimit="3.864" stroke-width="2.178"/>
<path d="m139.3 148.26s3.805-2.372 6.424-2.847c2.62-0.484 5.765-0.721 5.765-0.721l0.704 7.435s-3.138 0.474-6.24 1.187c-3.076 0.711-5.221 1.662-5.221 1.662l-1.432-6.716" clip-rule="evenodd" fill="#DBDDE1" fill-rule="evenodd"/>
<path d="m139.3 148.26s3.805-2.372 6.424-2.847c2.62-0.484 5.765-0.721 5.765-0.721l0.704 7.435s-3.138 0.474-6.24 1.187c-3.076 0.711-5.221 1.662-5.221 1.662l-1.432-6.716" fill="none" stroke="#231F20" stroke-miterlimit="3.864" stroke-width="2.178"/>
<path d="m179.86 176.45h61.862c4e-3 2.681 5e-3 5.516 5e-3 8.518 0 12.335-4.091 23.87-10.144 34.193h-51.723v-42.711" clip-rule="evenodd" fill="#DBDDE1" fill-rule="evenodd"/>
<polyline points="231.58 219.16 179.86 219.16 179.86 176.45 241.72 176.45" fill="none" stroke="#231F20" stroke-miterlimit="3.864" stroke-width="2.178"/>
<line x1="219.76" x2="219.76" y1="176.45" y2="218.21" fill="none" stroke="#231F20" stroke-miterlimit="3.864" stroke-width="2.178"/>
<line x1="189.19" x2="189.19" y1="176.45" y2="218.93" fill="none" stroke="#231F20" stroke-miterlimit="3.864" stroke-width="2.178"/>
<line x1="179.86" x2="236.92" y1="208.41" y2="208.41" fill="none" stroke="#231F20" stroke-miterlimit="3.864" stroke-width="2.178"/>
<line x1="179.86" x2="239.12" y1="202.17" y2="202.17" fill="none" stroke="#231F20" stroke-miterlimit="3.864" stroke-width="2.178"/>
<line x1="179.86" x2="240.74" y1="195.5" y2="195.5" fill="none" stroke="#231F20" stroke-miterlimit="3.864" stroke-width="2.178"/>
<line x1="179.86" x2="241.54" y1="189.54" y2="189.54" fill="none" stroke="#231F20" stroke-miterlimit="3.864" stroke-width="2.178"/>
<line x1="179.86" x2="241.72" y1="182.17" y2="182.17" fill="none" stroke="#231F20" stroke-miterlimit="3.864" stroke-width="2.178"/>
<line x1="197.52" x2="197.52" y1="211.3" y2="179.55" fill="none" stroke="#231F20" stroke-miterlimit="3.864" stroke-width="7.146"/>
<polyline points="193.96 179.55 201.09 179.55 201.09 211.3 193.96 211.3 193.96 179.55" fill="none" stroke="#231F20" stroke-miterlimit="3.864" stroke-width="1.089"/>
<line x1="208.4" x2="208.4" y1="205.58" y2="189.12" fill="none" stroke="#231F20" stroke-miterlimit="3.864" stroke-width="7.38"/>
<polyline points="204.71 189.12 212.09 189.12 212.09 205.58 204.71 205.58 204.71 189.12" fill="none" stroke="#231F20" stroke-miterlimit="3.864" stroke-width="1.089"/>
<line x1="228.57" x2="228.57" y1="210.83" y2="198.88" fill="none" stroke="#231F20" stroke-miterlimit="3.864" stroke-width="7.146"/>
<polyline points="225 198.88 232.14 198.88 232.14 210.83 225 210.83 225 198.88" fill="none" stroke="#231F20" stroke-miterlimit="3.864" stroke-width="1.089"/>
<line x1="228.44" x2="228.44" y1="189.59" y2="176.45" fill="none" stroke="#231F20" stroke-miterlimit="3.864" stroke-width="6.426"/>
<polyline points="225.23 176.45 231.65 176.45 231.65 189.59 225.23 189.59 225.23 176.45" fill="none" stroke="#231F20" stroke-miterlimit="3.864" stroke-width="1.089"/>
<rect x="179.86" y="161.89" width="22.237" height="14.563" fill="#DBDDE1"/>
<line x1="179.86" x2="202.09" y1="170.02" y2="170.02" fill="none" stroke="#231F20" stroke-miterlimit="3.864" stroke-width="2.178"/>
<line x1="179.86" x2="202.09" y1="163.55" y2="163.55" fill="none" stroke="#231F20" stroke-miterlimit="3.864" stroke-width="3.267"/>
<line x1="196.57" x2="196.57" y1="170.26" y2="176.45" fill="none" stroke="#231F20" stroke-miterlimit="3.864" stroke-width="3.267"/>
<line x1="190.62" x2="190.62" y1="170.26" y2="176.45" fill="none" stroke="#231F20" stroke-miterlimit="3.864" stroke-width="3.267"/>
<line x1="184.67" x2="184.67" y1="170.26" y2="176.45" fill="none" stroke="#231F20" stroke-miterlimit="3.864" stroke-width="3.267"/>
<path d="m181.04 164.15c0-1.118 0.904-2.022 2.029-2.022 1.107 0 2.021 0.904 2.021 2.022 0 1.125-0.914 2.021-2.021 2.021-1.125 0-2.029-0.896-2.029-2.021" clip-rule="evenodd" fill="#231F20" fill-rule="evenodd"/>
<path d="m188.47 164.15c0-1.118 0.914-2.022 2.021-2.022 1.125 0 2.03 0.904 2.03 2.022 0 1.125-0.905 2.021-2.03 2.021-1.107 0-2.021-0.896-2.021-2.021" clip-rule="evenodd" fill="#231F20" fill-rule="evenodd"/>
<path d="m195.91 164.15c0-1.118 0.896-2.022 2.014-2.022 1.125 0 2.029 0.904 2.029 2.022 0 1.125-0.904 2.021-2.029 2.021-1.117 0-2.014-0.896-2.014-2.021" clip-rule="evenodd" fill="#231F20" fill-rule="evenodd"/>
<polyline points="179.86 176.45 202.09 176.45 202.09 161.89 179.86 161.89 179.86 176.45" fill="none" stroke="#231F20" stroke-miterlimit="3.864" stroke-width="2.178"/>
<polyline points="179.86 161.4 191.09 149.22 202.09 161.65 179.86 161.4" clip-rule="evenodd" fill="#DBDDE1" fill-rule="evenodd"/>
<line x1="190.03" x2="190.03" y1="140.3" y2="149.68" fill="none" stroke="#231F20" stroke-miterlimit="3.864" stroke-width="2.178"/>
<polyline points="179.86 161.4 191.09 149.22 202.09 161.65 179.86 161.4" fill="none" stroke="#231F20" stroke-miterlimit="3.864" stroke-width="2.178"/>
<path d="m189.91 142.08s-4.079 0.712-4.992 1.073c-0.914 0.351-3.649 1.177-3.649 1.177v4.993s2.822-0.95 4.246-1.186c1.424-0.246 4.51-0.958 4.51-0.958l-0.115-5.099" clip-rule="evenodd" fill="#DBDDE1" fill-rule="evenodd"/>
<path d="m189.91 142.08s-4.079 0.712-4.992 1.073c-0.914 0.351-3.649 1.177-3.649 1.177v4.993s2.822-0.95 4.246-1.186c1.424-0.246 4.51-0.958 4.51-0.958l-0.115-5.099" fill="none" stroke="#231F20" stroke-miterlimit="3.864" stroke-width="2.178"/>
<path d="m220.16 176.45h21.555c-6e-3 -5.481-0.017-10.307-0.032-14.563h-21.522v14.563" clip-rule="evenodd" fill="#DBDDE1" fill-rule="evenodd"/>
<polyline points="241.69 161.89 220.16 161.89 220.16 176.45 241.72 176.45" fill="none" stroke="#231F20" stroke-miterlimit="3.864" stroke-width="2.178"/>
<polyline points="220.16 161.4 231.42 149.22 241.68 160.83 241.69 161.64 220.16 161.4" clip-rule="evenodd" fill="#DBDDE1" fill-rule="evenodd"/>
<line x1="230.34" x2="230.34" y1="140.3" y2="149.68" fill="none" stroke="#231F20" stroke-miterlimit="3.864" stroke-width="2.178"/>
<polyline points="241.69 161.64 220.16 161.4 231.42 149.22 241.68 160.83" fill="none" stroke="#231F20" stroke-miterlimit="3.864" stroke-width="2.178"/>
<path d="m230.22 142.08s-4.078 0.712-4.983 1.073c-0.923 0.351-3.646 1.177-3.646 1.177v4.993s2.812-0.95 4.235-1.186c1.425-0.246 4.518-0.958 4.518-0.958l-0.124-5.099" clip-rule="evenodd" fill="#DBDDE1" fill-rule="evenodd"/>
<line x1="220.25" x2="241.71" y1="169.32" y2="169.32" fill="none" stroke="#231F20" stroke-miterlimit="3.864" stroke-width="2.178"/>
<line x1="236.52" x2="236.52" y1="162.23" y2="176.34" fill="none" stroke="#231F20" stroke-miterlimit="3.864" stroke-width="2.178"/>
<line x1="230.93" x2="230.93" y1="162.23" y2="176.34" fill="none" stroke="#231F20" stroke-miterlimit="3.864" stroke-width="2.178"/>
<line x1="225.35" x2="225.35" y1="162.23" y2="176.34" fill="none" stroke="#231F20" stroke-miterlimit="3.864" stroke-width="2.178"/>
<path d="m230.22 142.08s-4.078 0.712-4.983 1.073c-0.922 0.351-3.646 1.177-3.646 1.177v4.993s2.812-0.95 4.235-1.186c1.425-0.246 4.518-0.958 4.518-0.958l-0.124-5.099" fill="none" stroke="#231F20" stroke-miterlimit="3.864" stroke-width="2.178"/>
<path d="m233.45 215.82h-63.838l-12.655-23.375h-25.559l8.376 16.955h3.103l15.029 27.409h60.712c5.559-6.278 10.77-13.327 14.832-20.989" clip-rule="evenodd" fill="#DBDDE1" fill-rule="evenodd"/>
<polyline points="233.45 215.82 169.61 215.82 156.95 192.45 131.4 192.45 139.77 209.4 142.87 209.4 157.9 236.81 218.62 236.81" fill="none" stroke="#231F20" stroke-miterlimit="3.864" stroke-width="2.178"/>
<line x1="150.93" x2="160.32" y1="192.45" y2="209.4" fill="none" stroke="#231F20" stroke-miterlimit="3.864" stroke-width="2.178"/>
<line x1="138.04" x2="147.41" y1="192.45" y2="209.4" fill="none" stroke="#231F20" stroke-miterlimit="3.864" stroke-width="2.178"/>
<line x1="144.98" x2="162.44" y1="192.45" y2="223.96" fill="none" stroke="#231F20" stroke-miterlimit="3.864" stroke-width="2.178"/>
<polyline points="144.95 192.45 162.44 223.96 228.58 223.96" fill="none" stroke="#231F20" stroke-miterlimit="3.864" stroke-width="2.178"/>
<line x1="135.51" x2="161.46" y1="200.78" y2="200.78" fill="none" stroke="#231F20" stroke-miterlimit="3.864" stroke-width="2.178"/>
<line x1="139.77" x2="166.13" y1="209.4" y2="209.4" fill="none" stroke="#231F20" stroke-miterlimit="3.864" stroke-width="2.178"/>
<path d="m182.23 252.82l-10.25 9.455c-8.355-5.957-21.09-16.106-31.841-29.203 3.098-2.187 7.795-4.726 12.05-3.877 7.155 1.44 8.105 2.619 10.952 1.916 2.866-0.722 6.012-1.916 9.106-1.67 3.085 0.228 7.136 0.95 8.798 1.67 1.66 0.703 1.185 21.709 1.185 21.709" clip-rule="evenodd" fill="#00A6E6" fill-rule="evenodd"/>
<path d="m140.14 233.08c3.098-2.187 7.795-4.726 12.05-3.877 7.155 1.44 8.105 2.619 10.952 1.916 2.866-0.722 6.012-1.916 9.106-1.67 3.085 0.228 7.136 0.95 8.798 1.67 1.66 0.703 1.186 21.709 1.186 21.709l-10.25 9.455" fill="none" stroke="#231F20" stroke-miterlimit="3.864" stroke-width="2.178"/>
<path d="m152.04 245.84c0.051 8e-3 0.103 0.016 0.153 0.026 7.155 1.424 8.105 2.619 10.952 1.916 2.866-0.722 6.012-1.916 9.106-1.67 3.085 0.245 7.136 0.948 8.798 1.67" fill="none" stroke="#231F20" stroke-miterlimit="3.864" stroke-width="2.178"/>
<path d="m145.45 239.15c2.174-0.869 4.519-1.347 6.743-0.897 7.155 1.422 8.105 2.618 10.952 1.897 2.866-0.703 6.012-1.897 9.106-1.652 3.085 0.229 7.136 0.949 8.798 1.652" fill="none" stroke="#231F20" stroke-miterlimit="3.864" stroke-width="2.178"/>
<path d="m180.81 228.25s-9.241 21.036-12.801 31.114c7.569 5.705 12.96 8.875 12.96 8.875s18.595-10.931 35.212-28.752l0.189-0.481-23.845-9.088-11.715-1.668" clip-rule="evenodd" fill="#00A652" fill-rule="evenodd"/>
<path d="m201.85 238.25s-4.798 6.239-5.273 7.893c-0.475 1.687-2.864 4.763-2.864 4.763" fill="none" stroke="#231F20" stroke-miterlimit="3.864" stroke-width="2.178"/>
<path d="m193.48 238.25s-4.289 6.959-5.01 8.383l-2.373 4.746" fill="none" stroke="#231F20" stroke-miterlimit="3.864" stroke-width="2.178"/>
<path d="m187.05 234.21s-5.045 8.383-6.241 11.002c-1.177 2.62-2.619 6.17-2.619 6.17" fill="none" stroke="#231F20" stroke-miterlimit="3.864" stroke-width="2.178"/>
<path d="m216.18 239.49l0.189-0.481-23.845-9.088-11.715-1.668s-9.241 21.036-12.801 31.114" fill="none" stroke="#231F20" stroke-miterlimit="3.864" stroke-width="2.178"/>
<path d="m228.93 223.44c-2.285-1.795-4.868-3.442-6.546-3.327-3.622 0.228-7.911 1.705-7.911 1.705s-4.764-1.951-7.382-1.705c-2.62 0.228-8.14 2.899-8.14 2.899s-4.474-2.371-10.951-1.194c-6.468 1.194-11.558 3.375-9.087 11.196 1.424 4.519 10.758 3.095 10.758 3.095 0-2e-3 -0.476 5.045 3.813 5.521 4.28 0.473 6.653-0.476 6.653-0.476s1.308 6.797 3.54 10.342c8.535-7.387 17.931-16.928 25.253-28.056" clip-rule="evenodd" fill="#00A652" fill-rule="evenodd"/>
<path d="m228.93 223.44c-2.285-1.795-4.868-3.442-6.546-3.327-3.622 0.228-7.911 1.705-7.911 1.705s-4.764-1.951-7.382-1.705c-2.62 0.228-8.14 2.899-8.14 2.899s-4.474-2.371-10.951-1.194c-6.468 1.194-11.558 3.375-9.087 11.196 1.424 4.519 10.758 3.095 10.758 3.095s-0.476 5.045 3.813 5.521c4.28 0.473 6.653-0.476 6.653-0.476s1.308 6.797 3.54 10.342" fill="none" stroke="#231F20" stroke-miterlimit="3.864" stroke-width="2.178"/>
<path d="m163.04 146s5.124-0.167 6.302-0.678c1.177-0.5 6.063-0.667 6.063-0.667v9s-7.303-0.175-8.99-0.175c-1.688 0-2.865-0.167-2.865-0.167l-0.51-7.313" clip-rule="evenodd" fill="#DBDDE1" fill-rule="evenodd"/>
<path d="m163.04 146s5.124-0.167 6.302-0.678c1.177-0.5 6.063-0.667 6.063-0.667v9s-7.303-0.175-8.99-0.175c-1.688 0-2.865-0.167-2.865-0.167l-0.51-7.313" fill="none" stroke="#231F20" stroke-miterlimit="3.864" stroke-width="2.178"/>
<path d="m180.97 131.15h-60.364s-0.386 6.248-0.386 53.816c0 47.57 60.75 83.271 60.75 83.271s60.758-35.701 60.758-83.271c0-47.568-0.386-53.816-0.386-53.816h-60.372z" fill="none" stroke="#231F20" stroke-miterlimit="3.864" stroke-width="8.712"/>
<path d="m75.109 87.522s2.716-5.177 5.309-4.632c2.584 0.545 5.168 4.773 5.168 4.773l-3.814 13.06-7.62-0.405 0.957-12.796" clip-rule="evenodd" fill="#FCE52D" fill-rule="evenodd"/>
<path d="m75.109 87.522s2.716-5.177 5.309-4.632c2.584 0.545 5.168 4.773 5.168 4.773l-3.814 13.06-7.62-0.405 0.957-12.796z" fill="none" stroke="#231F20" stroke-miterlimit="3.864" stroke-width="3.267"/>
<path d="m88.451 92.418s9.66-0.536 11.163-0.404c1.494 0.14 4.895 0.817 3.674 2.715-1.231 1.917-10.073 7.225-10.073 7.225h-8.991l4.227-9.536" clip-rule="evenodd" fill="#FCE52D" fill-rule="evenodd"/>
<path d="m88.451 92.418s9.66-0.536 11.163-0.404c1.494 0.14 4.895 0.817 3.674 2.715-1.231 1.917-10.073 7.225-10.073 7.225h-8.991l4.227-9.536z" fill="none" stroke="#231F20" stroke-miterlimit="3.864" stroke-width="3.267"/>
<path d="m80.076 98.429s6.372-19.301 8.235-23.019c1.864-3.726 5.696-13.921 9.413-12.761 3.727 1.16 0.501 11.865-1.133 16.031-1.635 4.157-8.842 21.587-8.842 21.587l-7.673-1.838" clip-rule="evenodd" fill="#DBDDE1" fill-rule="evenodd"/>
<path d="m80.076 98.429s6.372-19.301 8.235-23.019c1.864-3.726 5.696-13.921 9.413-12.761 3.727 1.16 0.501 11.865-1.133 16.031-1.635 4.157-8.842 21.587-8.842 21.587l-7.673-1.838z" fill="none" stroke="#231F20" stroke-miterlimit="3.864" stroke-width="3.267"/>
<path d="m78.88 96.592c-0.571-1.925-1.073-3.762-1.327-4.922-0.739-3.472-1.89-10.881-4.211-11.514-2.32-0.632-6.371 0.027-8.85 8.464-2.048 6.935-1.09 12.516-0.958 14.019 0.132 1.494 0.273 1.354 0.273 1.354s-2.145 0.219-4.22 2.048c-1.107 0.958-1.686 2.864-3.005 4.358-1.073 1.214-3.023 2.093-4.079 3.665-1.071 1.609-1.256 3.938-2.179 5.925-0.607 1.336-2.092 2.636-2.584 4.157-0.606 1.898-0.176 4.069-0.509 6.25-0.211 1.432-1.477 3.208-1.53 4.771-0.061 1.618 1.09 3.023 1.231 4.765 0.123 1.651-1.16 3.945-0.958 5.448 0.219 1.636 1.942 2.488 2.249 3.964 0.37 1.784-0.395 3.719 0.062 5.292 0.361 1.23 1.934 2.144 2.338 3.26 0.545 1.468 0.193 3.48 0.791 4.772 0.624 1.328 2.179 1.916 2.848 3.085 0.668 1.179 0.14 3.903 0.825 4.949 0.862 1.336 2.936 0.949 3.78 2.118 2.118 2.909 4.095 5.406 5.484 7.954 4.623 8.437 1.091 23-1.494 28.047-2.593 5.033-8.305 12.801-8.305 12.801s5.599-21.512 4.623-31.583c-2.04-21.244-12.929-21.112-18.783-20.839-5.853 0.28-10.617 9.263-11.161 14.019-0.546 4.772-0.405 15.116-1.091 17.972-0.685 2.867-3.814 10.215-3.814 10.215s5.581-2.987 6.802-3.946c1.231-0.951 2.603-2.865 2.603-2.865s0.535 5.043 0 7.082c-0.555 2.049-1.372 3.267-1.372 3.267s7.901-5.716 10.354-11.168c2.443-5.44-1.644-19.326 2.988-19.326 4.623 0 3.41 11.031 3.27 15.389-0.141 4.351-6.135 19.463-7.902 23.402-1.766 3.955-7.338 14.976-7.62 19.476-0.273 4.5 2.452 11.444 4.219 14.151 1.775 2.724 3.27 5.185 3.27 5.185s-5.995 4.078-5.713 9.651c0.263 5.591 3.814 7.488 3.814 7.488s5.713-7.752 6.935-7.894c1.221-0.123 5.844 0 5.844 0s-0.667 4.237 2.461 6.944c3.129 2.724 5.713 2.865 13.878-0.948 8.174-3.816 29.136-7.349 34.305-7.349h7.768s2.726 0.808 4.352 0.808c1.643 0 4.632-1.353 4.632-1.353s3.542 3.674 4.5 3.797c0.949 0.157 9.105-0.263 10.475-0.668 1.363-0.422 5.028-2.039 5.986-1.916 0.958 0.14-5.036-5.571-6.935-7.349-1.915-1.758-5.308-2.846-5.308-2.846s-0.826-3.13-3.55-4.5c-2.716-1.354-7.893-0.546-11.426 0.948-3.542 1.511-11.989 2.601-11.989 2.601s5.45-13.078 6.811-15.381c1.363-2.318 5.178-4.64 7.489-6.539 2.312-1.916 7.76-5.449 5.994-13.746-1.775-8.313-6.372-10.332-12.805-9.808-5.036 0.404-6.803 1.899-6.803 1.899l0.272-7.891s2.856-3.813 4.492-5.72c1.634-1.907 5.176-7.217 5.176-7.217s1.363 3.684 2.989 3.403c1.643-0.274 3.945-2.312 3.945-2.312s-3.392 3.481-3.129 7.084c0.423 5.582 5.31 2.998 5.31 2.998s5.713-8.043 6.539-12.261c0.816-4.22-1.231-13.333-1.776-17.825-0.545-4.491-0.545-14.027-2.039-16.62-1.494-2.585-6.943-5.986-6.943-5.986s-4.764 0.818-5.449 1.363c-0.686 0.545-2.303 1.09-2.303 1.09s-4.904-6.671-6.68-8.306c-1.766-1.635-7.207-5.449-7.753-6.257-0.544-0.818-0.949-3.684-0.949-3.684 1e-3 0 3.534-2.442 5.44-4.218 1.909-1.766 5.038-3.542 6.804-3.402 1.767 0.132 7.62 1.09 9.255 0.686s1.494-3.137 1.494-4.228c0-1.081-0.404-2.724-0.404-2.724s2.856-0.941 4.077-3.805c1.24-2.867 2.321-7.893-4.2-10.619-6.549-2.724-13.623-4.087-15.398-5.448-1.759-1.354-4.08-2.444-4.08-2.444 1e-3 0-4.631-2.18-6.811-2.32-2.171-0.132-5.581-0.95-7.075-1.635-1.494-0.677-3.577-1.002-3.577-1.002" clip-rule="evenodd" fill="#FCE52D" fill-rule="evenodd"/>
<path d="m101.11 259.59s-15.926-0.123-20.962 0.142c-5.037 0.264-8.569 1.229-8.569 1.229" fill="none" stroke="#231F20" stroke-miterlimit="3.864" stroke-width="3.267"/>
<path d="m118.93 218.07s0.282 9.95-2.031 11.444c-2.319 1.492-3.813 0.947-6.397 1.775-2.593 0.807-6.126 2.442-7.489 6.521-1.362 4.095-4.087 10.757-6.671 13.199-2.584 2.461-9.387 7.086-9.387 7.086" fill="none" stroke="#231F20" stroke-miterlimit="3.864" stroke-width="3.267"/>
<line x1="68.571" x2="60.678" y1="242.43" y2="247.62" fill="none" stroke="#231F20" stroke-miterlimit="3.864" stroke-width="3.267"/>
<path d="m101.25 216.17s-5.186 3.797-7.357 5.31c-2.18 1.493-7.62 2.18-12.524 4.481-4.905 2.321-8.578 8.176-11.303 13.483-2.716 5.308-7.488 17.42-7.488 17.42" fill="none" stroke="#231F20" stroke-miterlimit="3.864" stroke-width="3.267"/>
<path d="m51.696 271.44s2.302-3.533 4.078-4.765c1.776-1.229 3.674-2.863 3.674-2.863" fill="none" stroke="#231F20" stroke-miterlimit="3.864" stroke-width="3.267"/>
<path d="m54.825 220.79s-9.255 14.978-9.123 19.881c0.141 4.906 1.494 10.478 3.269 13.201 1.758 2.727 2.585 3.271 2.585 3.271" fill="none" stroke="#231F20" stroke-miterlimit="3.864" stroke-width="3.267"/>
<path d="m102.06 207.86s-2.584 1.774-3.674 2.312c-1.09 0.553-2.18 0.817-2.18 0.817" fill="none" stroke="#231F20" stroke-miterlimit="3.864" stroke-width="3.267"/>
<path d="m111.59 194.66s3.674-6.804 3.805-8.578c0.142-1.775-1.774-8.982-1.774-8.982s-6.662 4.358-7.62 4.763c-0.941 0.413-4.211 1.354-4.211 1.354s-0.14 6.67-0.412 7.769c-0.273 1.08-2.453 3.261-4.088 1.493-1.634-1.774-2.443-3.127-2.443-3.127l-0.545 6.397s-0.685 1.775-1.371 1.495c-0.668-0.272-4.623-4.22-4.623-4.22" fill="none" stroke="#231F20" stroke-miterlimit="3.864" stroke-width="3.267"/>
<path d="m57.813 172.68s2.865-0.888 4.764 0.333c1.916 1.221 5.73 3.402 8.718 4.36 2.989 0.948 8.71 2.179 8.71 2.179s-1.09-6.944-2.312-8.577c-1.23-1.644-7.628-6.267-7.628-6.267" fill="none" stroke="#231F20" stroke-miterlimit="3.864" stroke-width="3.267"/>
<path d="m120.58 118.15s-3.138 0.686-4.632 0.133c-1.494-0.536-2.452-1.908-2.452-1.908" fill="none" stroke="#231F20" stroke-miterlimit="3.864" stroke-width="3.267"/>
<path d="m115.94 123.86s-5.036-0.941-6.117-0.677c-1.09 0.272-3.27 0.958-3.27 0.958" fill="none" stroke="#231F20" stroke-miterlimit="3.864" stroke-width="3.267"/>
<line x1="108.74" x2="91.036" y1="156.13" y2="168.11" fill="none" stroke="#231F20" stroke-miterlimit="3.864" stroke-width="3.267"/>
<path d="m93.356 138.44s-10.354 1.088-13.887-2.726c-3.542-3.805-4.764-7.76-4.764-7.76s0.264 9.395 1.494 12.12c1.222 2.724 7.348 8.57 7.348 8.57" fill="none" stroke="#231F20" stroke-miterlimit="3.864" stroke-width="3.267"/>
<path d="m78.88 96.592c-0.571-1.925-1.073-3.762-1.327-4.922-0.739-3.472-1.89-10.881-4.211-11.514-2.32-0.632-6.371 0.027-8.85 8.464-2.048 6.935-1.09 12.516-0.958 14.019 0.132 1.494 0.273 1.354 0.273 1.354s-2.145 0.219-4.22 2.048c-1.107 0.958-1.686 2.864-3.005 4.358-1.073 1.214-3.023 2.093-4.079 3.665-1.071 1.609-1.256 3.938-2.179 5.925-0.607 1.336-2.092 2.636-2.584 4.157-0.606 1.898-0.176 4.069-0.509 6.25-0.211 1.432-1.477 3.208-1.53 4.771-0.061 1.618 1.09 3.023 1.231 4.765 0.123 1.651-1.16 3.945-0.958 5.448 0.219 1.636 1.942 2.488 2.249 3.964 0.37 1.784-0.395 3.719 0.062 5.292 0.361 1.23 1.934 2.144 2.338 3.26 0.545 1.468 0.193 3.48 0.791 4.772 0.624 1.328 2.179 1.916 2.848 3.085 0.668 1.179 0.14 3.903 0.825 4.949 0.862 1.336 2.936 0.949 3.78 2.118 2.118 2.909 4.095 5.406 5.484 7.954 4.623 8.437 1.091 23-1.494 28.047-2.593 5.033-8.305 12.801-8.305 12.801s5.599-21.512 4.623-31.583c-2.04-21.244-12.929-21.112-18.783-20.839-5.853 0.28-10.617 9.263-11.161 14.019-0.546 4.772-0.405 15.116-1.091 17.972-0.685 2.867-3.814 10.215-3.814 10.215s5.581-2.987 6.802-3.946c1.231-0.951 2.603-2.865 2.603-2.865s0.535 5.043 0 7.082c-0.555 2.049-1.372 3.267-1.372 3.267s7.901-5.716 10.354-11.168c2.443-5.44-1.644-19.326 2.988-19.326 4.623 0 3.41 11.031 3.27 15.389-0.141 4.351-6.135 19.463-7.902 23.402-1.766 3.955-7.338 14.976-7.62 19.476-0.273 4.5 2.452 11.444 4.219 14.151 1.775 2.724 3.27 5.185 3.27 5.185s-5.995 4.078-5.713 9.651c0.263 5.591 3.814 7.488 3.814 7.488s5.713-7.752 6.935-7.894c1.221-0.123 5.844 0 5.844 0s-0.667 4.237 2.461 6.944c3.129 2.724 5.713 2.865 13.878-0.948 8.174-3.816 29.136-7.349 34.305-7.349h7.768s2.726 0.808 4.352 0.808c1.643 0 4.632-1.353 4.632-1.353s3.542 3.674 4.5 3.797c0.949 0.157 9.105-0.263 10.475-0.668 1.363-0.422 5.028-2.039 5.986-1.916 0.958 0.14-5.036-5.572-6.935-7.349-1.915-1.758-5.308-2.846-5.308-2.846s-0.826-3.13-3.55-4.5c-2.716-1.354-7.893-0.546-11.426 0.948-3.542 1.511-11.989 2.601-11.989 2.601s5.45-13.078 6.811-15.381c1.363-2.318 5.178-4.64 7.489-6.539 2.312-1.916 7.76-5.449 5.994-13.746-1.775-8.313-6.372-10.332-12.805-9.808-5.036 0.404-6.803 1.899-6.803 1.899l0.272-7.891s2.856-3.813 4.492-5.72c1.634-1.907 5.176-7.217 5.176-7.217s1.363 3.684 2.989 3.403c1.643-0.274 3.945-2.312 3.945-2.312s-3.392 3.481-3.129 7.084c0.423 5.582 5.31 2.998 5.31 2.998s5.713-8.043 6.539-12.261c0.816-4.22-1.231-13.333-1.776-17.825-0.545-4.491-0.545-14.027-2.039-16.62-1.494-2.585-6.943-5.986-6.943-5.986s-4.764 0.818-5.449 1.363c-0.686 0.545-2.303 1.09-2.303 1.09s-4.904-6.671-6.68-8.306c-1.766-1.635-7.207-5.449-7.753-6.257-0.544-0.818-0.949-3.684-0.949-3.684s3.534-2.442 5.44-4.218c1.909-1.766 5.038-3.542 6.804-3.402 1.767 0.132 7.62 1.09 9.255 0.686s1.494-3.137 1.494-4.228c0-1.081-0.404-2.724-0.404-2.724s2.856-0.941 4.077-3.805c1.24-2.867 2.321-7.893-4.2-10.619-6.549-2.724-13.623-4.087-15.398-5.448-1.759-1.354-4.08-2.444-4.08-2.444s-4.631-2.18-6.811-2.32c-2.171-0.132-5.581-0.95-7.075-1.635-1.494-0.677-3.577-1.002-3.577-1.002z" fill="none" stroke="#231F20" stroke-miterlimit="3.864" stroke-width="3.267"/>
<path d="m83.266 109.64s3.27-1.354 5.519-2.515c2.251-1.169 6.329-2.25 6.329-2.25s-0.264 2.382-0.949 2.787c-0.686 0.413-2.382 1.291-2.382 1.291s0.747 1.574 0.817 2.119c0.07 0.536-0.202 1.282-0.202 1.282s-3.947-0.606-5.036-1.151c-1.09-0.544-4.096-1.563-4.096-1.563" clip-rule="evenodd" fill="#231F20" fill-rule="evenodd"/>
<path d="m132.54 272.56s-2.11-2.638-2.637-3.691c-0.527-1.073-1.318-2.514-1.318-2.514" fill="none" stroke="#231F20" stroke-miterlimit="3.864" stroke-width="3.267"/>
<path d="m54.139 165.67s5.168-5.045 5.994-5.853c0.818-0.818 2.04-2.594 2.04-2.594" fill="none" stroke="#231F20" stroke-miterlimit="3.864" stroke-width="3.267"/>
<path d="m50.729 158.18s4.359-4.087 5.731-5.035c1.353-0.95 4.078-3.684 4.078-3.684" fill="none" stroke="#231F20" stroke-miterlimit="3.864" stroke-width="3.267"/>
<path d="m48.427 149.73s4.078-3.532 5.572-4.49c1.512-0.949 4.905-3.402 4.905-3.402" fill="none" stroke="#231F20" stroke-miterlimit="3.864" stroke-width="3.267"/>
<path d="m46.933 139.93s4.887-2.997 6.53-3.675c1.626-0.685 5.036-2.311 5.036-2.311" fill="none" stroke="#231F20" stroke-miterlimit="3.864" stroke-width="3.267"/>
<path d="m47.337 130.54s2.311-1.634 5.572-2.319c3.27-0.678 5.863-1.091 5.863-1.091" fill="none" stroke="#231F20" stroke-miterlimit="3.864" stroke-width="3.267"/>
<path d="m50.466 120.06s5.581-0.273 7.348-0.273c1.775 0 4.227 0.273 4.227 0.273" fill="none" stroke="#231F20" stroke-miterlimit="3.864" stroke-width="3.267"/>
<path d="m56.46 110.66s4.895 0.816 6.943 1.503c2.039 0.677 4.078 1.897 4.078 1.897" fill="none" stroke="#231F20" stroke-miterlimit="3.864" stroke-width="3.267"/>
<path d="m63.948 103.72s2.179 3.137 3.269 4.088c1.09 0.948 3.393 2.584 3.393 2.584" fill="none" stroke="#231F20" stroke-miterlimit="3.864" stroke-width="3.267"/>
<path d="m286.39 87.522s-2.724-5.177-5.308-4.632c-2.594 0.545-5.178 4.773-5.178 4.773l3.814 13.06 7.629-0.405-0.957-12.796" clip-rule="evenodd" fill="#FCE52D" fill-rule="evenodd"/>
<path d="m286.39 87.522s-2.724-5.177-5.308-4.632c-2.594 0.545-5.178 4.773-5.178 4.773l3.814 13.06 7.629-0.405-0.957-12.796z" fill="none" stroke="#231F20" stroke-miterlimit="3.864" stroke-width="3.267"/>
<path d="m273.04 92.418s-9.659-0.536-11.154-0.404c-1.494 0.14-4.913 0.817-3.673 2.715 1.221 1.917 10.072 7.225 10.072 7.225h8.981l-4.226-9.536" clip-rule="evenodd" fill="#FCE52D" fill-rule="evenodd"/>
<path d="m273.04 92.418s-9.659-0.536-11.154-0.404c-1.494 0.14-4.913 0.817-3.673 2.715 1.221 1.917 10.072 7.225 10.072 7.225h8.981l-4.226-9.536z" fill="none" stroke="#231F20" stroke-miterlimit="3.864" stroke-width="3.267"/>
<path d="m281.42 98.429s-6.381-19.301-8.245-23.019c-1.854-3.726-5.695-13.921-9.413-12.761-3.726 1.16-0.483 11.865 1.144 16.031 1.617 4.157 8.832 21.587 8.832 21.587l7.682-1.838" clip-rule="evenodd" fill="#DBDDE1" fill-rule="evenodd"/>
<path d="m281.42 98.429s-6.381-19.301-8.245-23.019c-1.854-3.726-5.695-13.921-9.413-12.761-3.726 1.16-0.483 11.865 1.144 16.031 1.617 4.157 8.832 21.587 8.832 21.587l7.682-1.838z" fill="none" stroke="#231F20" stroke-miterlimit="3.864" stroke-width="3.267"/>
<path d="m282.61 96.592c0.57-1.925 1.08-3.762 1.326-4.922 0.738-3.472 1.899-10.881 4.219-11.514 2.312-0.632 6.373 0.027 8.859 8.464 2.031 6.935 1.073 12.516 0.941 14.019-0.132 1.494-0.273 1.354-0.273 1.354s2.154 0.219 4.219 2.048c1.107 0.958 1.696 2.864 3.006 4.358 1.072 1.214 3.023 2.093 4.078 3.665 1.072 1.609 1.248 3.938 2.172 5.925 0.623 1.336 2.108 2.636 2.593 4.157 0.614 1.898 0.175 4.069 0.509 6.25 0.211 1.432 1.477 3.208 1.53 4.771 0.069 1.618-1.09 3.023-1.213 4.765-0.142 1.651 1.159 3.945 0.948 5.448-0.228 1.636-1.951 2.488-2.25 3.964-0.368 1.784 0.396 3.719-0.069 5.292-0.369 1.23-1.935 2.144-2.339 3.26-0.535 1.468-0.192 3.48-0.79 4.772-0.615 1.328-2.181 1.916-2.849 3.085-0.658 1.179-0.14 3.903-0.826 4.949-0.86 1.336-2.936 0.949-3.778 2.118-2.118 2.909-4.078 5.406-5.477 7.954-4.632 8.437-1.09 23 1.494 28.047 2.593 5.033 8.306 12.801 8.306 12.801s-5.599-21.512-4.623-31.583c2.029-21.244 12.93-21.112 18.773-20.839 5.854 0.28 10.626 9.263 11.162 14.019 0.553 4.772 0.422 15.116 1.09 17.972 0.687 2.867 3.814 10.215 3.814 10.215 1e-3 0-5.572-2.987-6.803-3.946-1.229-0.951-2.584-2.865-2.584-2.865 1e-3 0-0.545 5.043 0 7.082 0.545 2.049 1.354 3.267 1.354 3.267s-7.894-5.716-10.336-11.168c-2.453-5.44 1.626-19.326-3.006-19.326-4.623 0-3.394 11.031-3.261 15.389 0.132 4.351 6.125 19.463 7.893 23.402 1.766 3.955 7.355 14.976 7.62 19.476 0.28 4.5-2.444 11.444-4.22 14.151-1.766 2.724-3.27 5.185-3.27 5.185s5.995 4.078 5.73 9.651c-0.28 5.591-3.814 7.488-3.814 7.488s-5.721-7.752-6.943-7.894c-1.229-0.123-5.861 0-5.861 0s0.685 4.237-2.452 6.944c-3.112 2.724-5.714 2.865-13.888-0.948-8.155-3.816-29.127-7.349-34.303-7.349h-7.762s-2.715 0.808-4.35 0.808c-1.626 0-4.633-1.353-4.633-1.353s-3.533 3.674-4.481 3.797c-0.958 0.157-9.132-0.263-10.495-0.668-1.354-0.422-5.036-2.039-5.994-1.916-0.939 0.14 5.045-5.571 6.952-7.349 1.908-1.758 5.318-2.846 5.318-2.846s0.808-3.13 3.532-4.5c2.726-1.354 7.894-0.546 11.436 0.948 3.542 1.511 11.979 2.601 11.979 2.601s-5.449-13.078-6.811-15.381c-1.363-2.318-5.168-4.64-7.48-6.539-2.319-1.916-7.769-5.449-5.994-13.746 1.775-8.313 6.373-10.332 12.798-9.808 5.045 0.404 6.803 1.899 6.803 1.899l-0.265-7.891s-2.864-3.813-4.5-5.72c-1.635-1.907-5.168-7.217-5.168-7.217s-1.361 3.684-2.996 3.403c-1.626-0.274-3.946-2.312-3.946-2.312s3.392 3.481 3.128 7.084c-0.404 5.582-5.309 2.998-5.309 2.998 1e-3 0-5.713-8.043-6.539-12.261-0.809-4.22 1.23-13.333 1.775-17.825 0.545-4.491 0.545-14.027 2.039-16.62 1.494-2.585 6.944-5.986 6.944-5.986s4.763 0.818 5.448 1.363c0.678 0.545 2.32 1.09 2.32 1.09s4.887-6.671 6.662-8.306c1.768-1.635 7.207-5.449 7.761-6.257 0.536-0.818 0.958-3.684 0.958-3.684s-3.551-2.442-5.449-4.218c-1.906-1.766-5.045-3.542-6.812-3.402-1.766 0.132-7.62 1.09-9.255 0.686-1.634-0.404-1.503-3.137-1.503-4.228 0-1.081 0.414-2.724 0.414-2.724s-2.866-0.941-4.079-3.805c-1.23-2.867-2.32-7.893 4.219-10.619 6.53-2.724 13.614-4.087 15.381-5.448 1.775-1.354 4.078-2.444 4.078-2.444s4.632-2.18 6.803-2.32c2.181-0.132 5.59-0.95 7.084-1.635 1.497-0.677 3.581-1.002 3.581-1.002" clip-rule="evenodd" fill="#FCE52D" fill-rule="evenodd"/>
<path d="m260.39 259.59s15.917-0.123 20.962 0.142c5.036 0.264 8.578 1.229 8.578 1.229" fill="none" stroke="#231F20" stroke-miterlimit="3.864" stroke-width="3.267"/>
<path d="m242.55 218.07s-0.272 9.95 2.048 11.444c2.313 1.492 3.815 0.947 6.398 1.775 2.585 0.807 6.127 2.442 7.488 6.521 1.354 4.095 4.078 10.757 6.662 13.199 2.584 2.461 9.404 7.086 9.404 7.086" fill="none" stroke="#231F20" stroke-miterlimit="3.864" stroke-width="3.267"/>
<line x1="292.92" x2="300.81" y1="242.43" y2="247.62" fill="none" stroke="#231F20" stroke-miterlimit="3.864" stroke-width="3.267"/>
<path d="m260.24 216.17s5.177 3.797 7.355 5.31c2.18 1.493 7.62 2.18 12.524 4.481 4.904 2.321 8.578 8.176 11.303 13.483s7.489 17.42 7.489 17.42" fill="none" stroke="#231F20" stroke-miterlimit="3.864" stroke-width="3.267"/>
<path d="m309.81 271.44s-2.32-3.533-4.096-4.765c-1.766-1.229-3.673-2.863-3.673-2.863" fill="none" stroke="#231F20" stroke-miterlimit="3.864" stroke-width="3.267"/>
<path d="m306.68 220.79s9.255 14.978 9.115 19.881c-0.132 4.906-1.494 10.478-3.261 13.201-1.775 2.727-2.594 3.271-2.594 3.271" fill="none" stroke="#231F20" stroke-miterlimit="3.864" stroke-width="3.267"/>
<path d="m259.43 207.86s2.584 1.774 3.674 2.312c1.09 0.553 2.18 0.817 2.18 0.817" fill="none" stroke="#231F20" stroke-miterlimit="3.864" stroke-width="3.267"/>
<path d="m249.91 194.66s-3.674-6.804-3.814-8.578c-0.141-1.775 1.775-8.982 1.775-8.982s6.662 4.358 7.611 4.763c0.967 0.413 4.229 1.354 4.229 1.354s0.132 6.67 0.404 7.769c0.28 1.08 2.451 3.261 4.086 1.493 1.636-1.774 2.443-3.127 2.443-3.127l0.555 6.397s0.686 1.775 1.361 1.495c0.687-0.272 4.623-4.22 4.623-4.22" fill="none" stroke="#231F20" stroke-miterlimit="3.864" stroke-width="3.267"/>
<path d="m303.7 172.68s-2.884-0.888-4.781 0.333c-1.899 1.221-5.714 3.402-8.72 4.36-2.987 0.948-8.709 2.179-8.709 2.179s1.09-6.944 2.312-8.577c1.229-1.644 7.628-6.267 7.628-6.267" fill="none" stroke="#231F20" stroke-miterlimit="3.864" stroke-width="3.267"/>
<path d="m240.92 118.15s3.128 0.686 4.623 0.133c1.494-0.536 2.442-1.908 2.442-1.908" fill="none" stroke="#231F20" stroke-miterlimit="3.864" stroke-width="3.267"/>
<path d="m245.55 123.86s5.044-0.941 6.134-0.677c1.09 0.272 3.27 0.958 3.27 0.958" fill="none" stroke="#231F20" stroke-miterlimit="3.864" stroke-width="3.267"/>
<line x1="252.77" x2="270.46" y1="156.13" y2="168.11" fill="none" stroke="#231F20" stroke-miterlimit="3.864" stroke-width="3.267"/>
<path d="m268.15 138.44s10.336 1.088 13.887-2.726c3.533-3.805 4.756-7.76 4.756-7.76s-0.273 9.395-1.495 12.12c-1.229 2.724-7.356 8.57-7.356 8.57" fill="none" stroke="#231F20" stroke-miterlimit="3.864" stroke-width="3.267"/>
<path d="m282.61 96.592c0.57-1.925 1.08-3.762 1.327-4.922 0.737-3.472 1.898-10.881 4.218-11.514 2.312-0.632 6.373 0.027 8.859 8.464 2.031 6.935 1.073 12.516 0.941 14.019-0.132 1.494-0.273 1.354-0.273 1.354s2.154 0.219 4.219 2.048c1.107 0.958 1.696 2.864 3.006 4.358 1.072 1.214 3.023 2.093 4.078 3.665 1.072 1.609 1.248 3.938 2.172 5.925 0.623 1.336 2.108 2.636 2.593 4.157 0.614 1.898 0.175 4.069 0.509 6.25 0.211 1.432 1.477 3.208 1.53 4.771 0.069 1.618-1.09 3.023-1.213 4.765-0.142 1.651 1.159 3.945 0.948 5.448-0.228 1.636-1.951 2.488-2.25 3.964-0.368 1.784 0.396 3.719-0.069 5.292-0.369 1.23-1.935 2.144-2.339 3.26-0.535 1.468-0.192 3.48-0.79 4.772-0.615 1.328-2.181 1.916-2.848 3.085-0.659 1.179-0.141 3.903-0.827 4.949-0.86 1.336-2.936 0.949-3.778 2.118-2.118 2.909-4.078 5.406-5.477 7.954-4.632 8.437-1.09 23 1.494 28.047 2.593 5.033 8.306 12.801 8.306 12.801s-5.599-21.512-4.623-31.583c2.03-21.244 12.93-21.112 18.773-20.839 5.854 0.28 10.626 9.263 11.162 14.019 0.554 4.772 0.422 15.116 1.09 17.972 0.687 2.867 3.814 10.215 3.814 10.215s-5.572-2.987-6.803-3.946c-1.229-0.951-2.584-2.865-2.584-2.865s-0.545 5.043 0 7.082c0.545 2.049 1.354 3.267 1.354 3.267s-7.894-5.716-10.336-11.168c-2.453-5.44 1.626-19.326-3.006-19.326-4.623 0-3.394 11.031-3.261 15.389 0.132 4.351 6.125 19.463 7.893 23.402 1.767 3.955 7.355 14.976 7.62 19.476 0.28 4.5-2.444 11.444-4.22 14.151-1.766 2.724-3.27 5.185-3.27 5.185s5.995 4.078 5.73 9.651c-0.28 5.591-3.814 7.488-3.814 7.488s-5.721-7.752-6.943-7.894c-1.229-0.123-5.861 0-5.861 0s0.685 4.237-2.452 6.944c-3.112 2.724-5.714 2.865-13.888-0.948-8.155-3.816-29.127-7.349-34.303-7.349h-7.762s-2.715 0.808-4.35 0.808c-1.626 0-4.633-1.353-4.633-1.353s-3.533 3.674-4.481 3.797c-0.958 0.157-9.132-0.263-10.495-0.668-1.354-0.422-5.036-2.039-5.994-1.916-0.939 0.14 5.045-5.572 6.952-7.349 1.908-1.758 5.318-2.846 5.318-2.846s0.808-3.13 3.532-4.5c2.726-1.354 7.894-0.546 11.436 0.948 3.542 1.511 11.979 2.601 11.979 2.601s-5.449-13.078-6.811-15.381c-1.363-2.318-5.168-4.64-7.48-6.539-2.319-1.916-7.769-5.449-5.994-13.746 1.775-8.313 6.373-10.332 12.798-9.808 5.045 0.404 6.803 1.899 6.803 1.899l-0.265-7.891s-2.864-3.813-4.5-5.72c-1.635-1.907-5.168-7.217-5.168-7.217s-1.361 3.684-2.996 3.403c-1.626-0.274-3.946-2.312-3.946-2.312s3.392 3.481 3.128 7.084c-0.403 5.582-5.309 2.998-5.309 2.998s-5.713-8.043-6.539-12.261c-0.809-4.22 1.23-13.333 1.775-17.825 0.545-4.491 0.545-14.027 2.039-16.62 1.494-2.585 6.944-5.986 6.944-5.986s4.763 0.818 5.448 1.363c0.678 0.545 2.32 1.09 2.32 1.09s4.887-6.671 6.662-8.306c1.768-1.635 7.207-5.449 7.761-6.257 0.536-0.818 0.958-3.684 0.958-3.684s-3.551-2.442-5.449-4.218c-1.906-1.766-5.045-3.542-6.812-3.402-1.766 0.132-7.62 1.09-9.255 0.686-1.634-0.404-1.503-3.137-1.503-4.228 0-1.081 0.414-2.724 0.414-2.724s-2.866-0.941-4.079-3.805c-1.23-2.867-2.32-7.893 4.22-10.619 6.529-2.724 13.613-4.087 15.38-5.448 1.775-1.354 4.078-2.444 4.078-2.444s4.632-2.18 6.803-2.32c2.181-0.132 5.59-0.95 7.084-1.635 1.497-0.677 3.581-1.002 3.581-1.002z" fill="none" stroke="#231F20" stroke-miterlimit="3.864" stroke-width="3.267"/>
<path d="m278.22 109.64s-3.269-1.354-5.52-2.515c-2.249-1.169-6.327-2.25-6.327-2.25s0.263 2.382 0.948 2.787c0.686 0.413 2.391 1.291 2.391 1.291s-0.755 1.574-0.826 2.119c-0.07 0.536 0.211 1.282 0.211 1.282s3.938-0.606 5.028-1.151c1.089-0.544 4.095-1.563 4.095-1.563" clip-rule="evenodd" fill="#231F20" fill-rule="evenodd"/>
<path d="m228.96 272.56s2.101-2.638 2.628-3.691c0.526-1.073 1.317-2.514 1.317-2.514" fill="none" stroke="#231F20" stroke-miterlimit="3.864" stroke-width="3.267"/>
<path d="m307.35 165.67s-5.177-5.045-5.984-5.853c-0.817-0.818-2.049-2.594-2.049-2.594" fill="none" stroke="#231F20" stroke-miterlimit="3.864" stroke-width="3.267"/>
<path d="m310.75 158.18s-4.352-4.087-5.713-5.035c-1.363-0.95-4.087-3.684-4.087-3.684" fill="none" stroke="#231F20" stroke-miterlimit="3.864" stroke-width="3.267"/>
<path d="m313.06 149.73s-4.078-3.532-5.572-4.49c-1.493-0.949-4.903-3.402-4.903-3.402" fill="none" stroke="#231F20" stroke-miterlimit="3.864" stroke-width="3.267"/>
<path d="m314.58 139.93s-4.913-2.997-6.539-3.675c-1.636-0.685-5.046-2.311-5.046-2.311" fill="none" stroke="#231F20" stroke-miterlimit="3.864" stroke-width="3.267"/>
<path d="m314.15 130.54s-2.312-1.634-5.571-2.319c-3.271-0.678-5.854-1.091-5.854-1.091" fill="none" stroke="#231F20" stroke-miterlimit="3.864" stroke-width="3.267"/>
<path d="m311.02 120.06s-5.58-0.273-7.348-0.273c-1.775 0-4.218 0.273-4.218 0.273" fill="none" stroke="#231F20" stroke-miterlimit="3.864" stroke-width="3.267"/>
<path d="m305.04 110.66s-4.905 0.816-6.952 1.503c-2.031 0.677-4.079 1.897-4.079 1.897" fill="none" stroke="#231F20" stroke-miterlimit="3.864" stroke-width="3.267"/>
<path d="m297.55 103.72s-2.179 3.137-3.269 4.088c-1.081 0.948-3.401 2.584-3.401 2.584" fill="none" stroke="#231F20" stroke-miterlimit="3.864" stroke-width="3.267"/>
<path d="m41.878 315.7s2.988 6.047 10.881 3.692c7.884-2.356 8.894-6.717 9.062-8.053 0.176-1.353-0.335-5.677-0.335-5.677l-18.263-5.028-1.345 15.066" clip-rule="evenodd" fill="#B9C1C9" fill-rule="evenodd"/>
<path d="m41.878 315.7s2.988 6.047 10.881 3.692c7.884-2.356 8.894-6.717 9.062-8.053 0.176-1.353-0.335-5.677-0.335-5.677l-18.263-5.028-1.345 15.066z" fill="none" stroke="#231F20" stroke-miterlimit="3.864" stroke-width="3.267"/>
<path d="m319.6 315.7s-2.988 6.047-10.862 3.692c-7.894-2.356-8.903-6.717-9.07-8.053-0.167-1.353 0.334-5.677 0.334-5.677l18.263-5.028 1.335 15.066" clip-rule="evenodd" fill="#B9C1C9" fill-rule="evenodd"/>
<path d="m319.6 315.7s-2.988 6.047-10.862 3.692c-7.894-2.356-8.903-6.717-9.07-8.053-0.167-1.353 0.334-5.677 0.334-5.677l18.263-5.028 1.335 15.066z" fill="none" stroke="#231F20" stroke-miterlimit="3.864" stroke-width="3.267"/>
<path d="m155.56 281.86s-17.059 8.735-41.273 6.153c-24.215-2.586-38.734-6.786-55.838-6.786-31.289 0-31.649 10.95-28.423 14.836 3.243 3.885 7.77 13.87 8.736 15.485 0.967 1.617 3.568 4.853 3.568 4.853 1e-3 0 0-8.983 14.502-8.386 14.52 0.615 38.409 4.816 49.36 6.769 10.969 1.933 28.389 2.901 35.508 1.617 7.11-1.3 19.687-3.569 22.271-5.502 2.584-1.935 7.401-6.134 8.376-14.836 0.958-8.701-16.787-14.203-16.787-14.203" clip-rule="evenodd" fill="#DBDDE1" fill-rule="evenodd"/>
<path d="m160.33 301.64s2.367 2.369 7.511 5.603c1.9-2.328 3.72-5.651 4.398-10.36l-11.399 1.401-0.51 3.356" clip-rule="evenodd" fill="#B9C1C9" fill-rule="evenodd"/>
<path d="m155.56 281.86s-17.059 8.735-41.273 6.153c-24.215-2.586-38.734-6.786-55.838-6.786-31.289 0-31.649 10.95-28.423 14.836 3.243 3.885 7.77 13.87 8.736 15.485 0.967 1.617 3.568 4.853 3.568 4.853s0-8.983 14.502-8.386c14.52 0.615 38.409 4.816 49.36 6.769 10.969 1.933 28.389 2.901 35.508 1.617 7.11-1.3 19.687-3.569 22.271-5.502 2.584-1.935 7.401-6.134 8.376-14.836 0.958-8.701-16.787-14.203-16.787-14.203z" fill="none" stroke="#231F20" stroke-miterlimit="3.864" stroke-width="3.267"/>
<path d="m172.24 296.88l-11.399 1.401-0.51 3.356s2.367 2.369 7.511 5.603" fill="none" stroke="#231F20" stroke-miterlimit="3.864" stroke-width="3.267"/>
<path d="m205.93 281.86s17.069 8.735 41.291 6.153c24.206-2.586 38.725-6.786 55.829-6.786 31.289 0 31.649 10.95 28.423 14.836-3.234 3.885-7.77 13.87-8.736 15.485-0.967 1.617-3.551 4.853-3.551 4.853s0-8.983-14.52-8.386c-14.52 0.615-38.407 4.816-49.367 6.769-10.96 1.933-28.38 2.901-35.499 1.617-7.12-1.3-19.688-3.569-22.272-5.502-2.593-1.935-7.4-6.134-8.367-14.836-0.976-8.701 16.769-14.203 16.769-14.203" clip-rule="evenodd" fill="#DBDDE1" fill-rule="evenodd"/>
<path d="m201.16 301.64s-2.367 2.369-7.514 5.604c-1.898-2.328-3.715-5.651-4.389-10.362l11.393 1.401 0.51 3.357" clip-rule="evenodd" fill="#B9C1C9" fill-rule="evenodd"/>
<path d="m205.93 281.86s17.069 8.735 41.291 6.153c24.206-2.586 38.725-6.786 55.829-6.786 31.289 0 31.649 10.95 28.423 14.836-3.234 3.885-7.77 13.87-8.736 15.485-0.967 1.617-3.551 4.853-3.551 4.853s0-8.983-14.52-8.386c-14.52 0.615-38.407 4.816-49.367 6.769-10.96 1.933-28.38 2.901-35.499 1.617-7.12-1.3-19.688-3.569-22.272-5.502-2.593-1.935-7.4-6.134-8.367-14.836-0.976-8.701 16.769-14.203 16.769-14.203z" fill="none" stroke="#231F20" stroke-miterlimit="3.864" stroke-width="3.267"/>
<path d="m189.26 296.88l11.393 1.401 0.51 3.356s-2.367 2.369-7.514 5.604" fill="none" stroke="#231F20" stroke-miterlimit="3.864" stroke-width="3.267"/>
<path d="m48.997 294.15l0.571-0.142c1.231-0.246 2.971-0.386 3.639 2.321 0.282 1.142 0.457 2.882-1.617 3.41-0.791 0.194-1.204-0.019-1.424-0.879l-1.169-4.71m-1.195-4.798c-0.097-0.44-0.185-0.934 0.765-1.161 1.529-0.388 2.223 0.614 2.548 1.95 0.484 1.916 0.264 2.813-2.267 3.445l-1.046-4.234zm-1.872 12.443l6.073-1.511c3.964-1.073 4.825-3.252 4.43-4.834-0.536-2.162-2.752-2.603-4.403-2.479l-9e-3 -0.035c0.729-0.438 2.733-1.459 2.214-3.551-0.729-2.951-4.597-2.072-5.66-1.81l-5.827 1.459 0.123 0.474c0.879-0.174 1.679-0.315 1.986 0.914l2.277 9.142c0.29 1.159-0.29 1.372-1.327 1.739l0.123 0.492z" clip-rule="evenodd" fill="#231F20" fill-rule="evenodd"/>
<path d="m67.217 289.32c0.149-0.58 0.202-0.81 1.275-0.703 1.546 0.14 2.267 1.037 2.1 2.987-0.229 2.515-1.266 2.865-3.814 2.654l0.439-4.938m7.523 11.883c-0.228-0.019-0.509-0.052-0.756-0.44l-3.41-5.853c1.072-0.229 3.12-0.668 3.323-3.06 0.299-3.252-3.797-3.762-5.169-3.866l-6.222-0.562-0.044 0.491c1.099 0.175 1.697 0.263 1.547 1.933l-0.747 8.562c-0.141 1.563-0.528 1.599-1.864 1.635l-0.044 0.474 6.549 0.58 0.035-0.492c-1.257-0.28-1.679-0.387-1.547-1.932l0.334-3.798 0.527 0.052 3.481 6.416 3.972 0.334 0.035-0.474z" clip-rule="evenodd" fill="#231F20" fill-rule="evenodd"/>
<path d="m84.444 302.78c-1.046-0.229-1.811-0.386-1.643-1.617l1.309-9.334c0.185-1.301 1.107-1.196 2.022-1.108l0.07-0.474-6.733-0.95-0.07 0.494c0.879 0.174 1.775 0.334 1.599 1.616l-1.309 9.315c-0.167 1.195-0.94 1.16-1.978 1.109l-0.07 0.491 6.733 0.949 0.07-0.491" clip-rule="evenodd" fill="#231F20" fill-rule="evenodd"/>
<path d="m97.856 296.06l0.659-4.166-0.571-0.089c-0.158 0.353-0.3 0.615-0.739 0.546-0.562-0.087-1.362-0.861-2.9-1.089-3.647-0.6-4.659 1.933-4.843 3.093-0.149 0.879-0.404 2.549 2.637 4.642l1.187 0.809c1.159 0.789 1.986 1.404 1.775 2.689-0.035 0.245-0.431 2.127-2.742 1.756-2.435-0.386-3.208-2.724-3.279-4.711l-0.554-0.104-0.755 4.747 0.554 0.087c0.122-0.3 0.272-0.615 0.676-0.563 0.598 0.106 1.353 0.897 3.182 1.178 3.533 0.563 5.132-1.563 5.396-3.269 0.334-2.075-0.949-3.428-1.547-3.849l-2.601-1.864c-1.494-1.056-1.793-1.53-1.617-2.567 0.193-1.248 1.335-1.67 2.338-1.511 2.267 0.369 3.075 2.759 3.207 4.147l0.537 0.088" clip-rule="evenodd" fill="#231F20" fill-rule="evenodd"/>
<path d="m110.1 306.96c-1.415-0.297-1.872-0.404-1.643-2.039l1.424-10.142c1.327 0.263 3.295 0.651 3.243 3.78l0.553 0.068 0.519-3.867-11.558-1.635-0.597 3.868 0.553 0.07c0.818-3.024 2.822-2.849 4.175-2.726l-1.424 10.144c-0.228 1.618-0.703 1.599-2.127 1.512l-0.052 0.474 6.873 0.986 0.061-0.493" clip-rule="evenodd" fill="#231F20" fill-rule="evenodd"/>
<path d="m123.53 295.89c2.716 0.177 3.19 3.656 2.996 6.488-0.122 1.687-0.561 6.239-3.866 5.993-3.322-0.229-3.12-4.799-3.006-6.487 0.201-2.83 1.16-6.186 3.876-5.994m0.044-0.649c-3.744-0.265-7.058 2.179-7.348 6.416-0.281 4.06 2.408 7.084 6.381 7.366 3.982 0.279 7.067-2.34 7.348-6.417 0.299-4.22-2.638-7.103-6.381-7.365z" clip-rule="evenodd" fill="#231F20" fill-rule="evenodd"/>
<path d="m144.63 303.75l-0.564 0.052c-0.702 2.269-1.643 3.974-4.569 4.219-1.292 0.123-1.732 0-1.811-0.913l-0.808-9.158c-0.141-1.688 0.457-1.776 1.801-1.951l-0.044-0.474-6.758 0.578 0.044 0.492c0.878-0.017 1.669-0.051 1.784 1.231l0.826 9.369c0.097 1.178-0.475 1.282-1.547 1.528l0.044 0.476 11.197-0.967 0.405-4.482" clip-rule="evenodd" fill="#231F20" fill-rule="evenodd"/>
<path d="m231.29 307.1c-1.759 1.651-3.271 2.108-4.782 1.969-0.597-0.052-2.1-0.476-2.794-1.935-0.599-1.301-0.563-3.18-0.458-4.342 0.282-3.269 1.301-6.17 4.131-5.904 2.198 0.175 3.639 2.582 4.166 4.322l0.484 0.055 0.395-4.536-0.518-0.035c-0.238 0.457-0.449 0.845-0.977 0.808-0.5-0.052-1.906-1.125-3.656-1.283-4.061-0.351-7.119 2.427-7.452 6.363-0.325 3.604 1.845 6.998 6.345 7.401 2.488 0.211 4.096-0.879 5.661-2.356l-0.545-0.527" clip-rule="evenodd" fill="#231F20" fill-rule="evenodd"/>
<path d="m241.93 308.56c-1.072 0-1.846 0-1.934-1.248l-0.667-9.388c-0.089-1.317 0.844-1.405 1.758-1.51l-0.035-0.476-6.794 0.476 0.035 0.491c0.904-0.017 1.81-0.034 1.906 1.248l0.65 9.386c0.088 1.196-0.668 1.319-1.705 1.495l0.035 0.492 6.786-0.476-0.035-0.49" clip-rule="evenodd" fill="#231F20" fill-rule="evenodd"/>
<path d="m254.55 307c-1.442 0.104-1.908 0.139-2.146-1.513l-1.424-10.144c1.354-0.104 3.34-0.28 4.157 2.742l0.572-0.07-0.599-3.866-11.549 1.618 0.484 3.884 0.553-0.088c-0.034-3.13 1.934-3.517 3.27-3.763l1.425 10.144c0.228 1.618-0.229 1.705-1.617 2.021l0.069 0.476 6.873-0.949-0.068-0.492" clip-rule="evenodd" fill="#231F20" fill-rule="evenodd"/>
<path d="m271.37 291.55l-4.228 0.668 0.079 0.476c0.914-0.087 1.635-0.158 1.741 0.598 0.088 0.509-0.37 1.671-0.457 1.899l-1.574 3.884-3.006-4.097c-0.202-0.264-0.588-0.702-0.642-0.983-0.069-0.545 0.133-0.703 1.459-0.914l-0.078-0.474-6.436 1.019 0.08 0.474c0.993-0.088 1.582 0.668 1.705 0.81l4.527 5.836 0.447 2.812c0.246 1.601-0.211 1.705-1.512 2.058l0.079 0.474 6.662-1.054-0.07-0.476c-1.37 0.072-1.802 0.106-2.048-1.492l-0.562-3.534 2.716-6.558c0.29-0.668 0.835-0.824 1.186-0.948l-0.068-0.478" clip-rule="evenodd" fill="#231F20" fill-rule="evenodd"/>
<path d="m282 290.33c0.914-0.07 1.705-0.14 1.88 1.125l1.318 9.317c0.158 1.194-0.422 1.336-1.502 1.618l0.061 0.474 6.927-0.985-0.054-0.474c-1.362 0.14-2.145 0.194-2.32-1.073l-0.633-4.482c2.436-0.332 2.936 1.021 3.375 2.566l0.475-0.068-0.914-6.506-0.483 0.072c-0.043 1.563-0.149 2.987-2.54 3.286l-0.632-4.465c-0.106-0.826 0.219-0.948 1.265-1.108 3.314-0.457 4.008 0.668 4.712 2.621l0.466-0.072-0.555-3.866-10.916 1.528 0.07 0.492" clip-rule="evenodd" fill="#231F20" fill-rule="evenodd"/>
<path d="m310.53 297.89c-1.681 1.759-3.155 2.287-4.677 2.234-0.598-0.019-2.127-0.371-2.883-1.793-0.685-1.267-0.738-3.13-0.685-4.308 0.104-3.287 0.967-6.224 3.797-6.117 2.214 0.07 3.778 2.39 4.394 4.113l0.492 0.019 0.15-4.554-0.52-0.019c-0.211 0.492-0.403 0.897-0.923 0.863-0.509-0.019-1.968-1.02-3.717-1.074-4.079-0.158-6.979 2.778-7.12 6.733-0.131 3.621 2.206 6.908 6.733 7.065 2.485 0.09 4.042-1.09 5.519-2.653l-0.56-0.509" clip-rule="evenodd" fill="#231F20" fill-rule="evenodd"/>
<path d="m181.11 273.79c-22.113 0-35.174 3.024-35.174 8.229 0 5.22 14.397 19.615 14.397 19.615s7.383-1.51 20.777-1.51c13.403 0 20.056 1.51 20.056 1.51s14.396-14.396 14.396-19.615c1e-3 -5.204-12.322-8.229-34.452-8.229" clip-rule="evenodd" fill="#DBDDE1" fill-rule="evenodd"/>
<path d="m181.11 273.79c-22.113 0-35.174 3.024-35.174 8.229 0 5.22 14.397 19.615 14.397 19.615s7.383-1.51 20.777-1.51c13.403 0 20.056 1.51 20.056 1.51s14.396-14.396 14.396-19.615c1e-3 -5.204-12.322-8.229-34.452-8.229z" fill="none" stroke="#231F20" stroke-miterlimit="3.864" stroke-width="3.267"/>
<path d="m168.8 292.9c-1.898 0.265-2.144-0.229-2.321-1.529l-1.555-10.969-0.325 0.053-4.552 2.777 0.07 0.493c0.624-0.334 1.248-0.651 1.512-0.686 0.755-0.123 0.861 0.737 0.94 1.211l1.028 7.418c0.175 1.196 0.229 1.952-2.004 2.25l0.053 0.457 7.234-1.019-0.08-0.456" clip-rule="evenodd" fill="#231F20" fill-rule="evenodd"/>
<path d="m173.35 281.98c-0.035-0.791 0.598-1.601 1.547-1.634 1.424-0.055 1.775 1.316 1.811 2.318 0.035 1.161-0.299 1.635-0.721 2.25-0.202-0.086-2.566-1.125-2.637-2.934m1.828-2.214c-3.111 0.105-4.35 1.81-4.289 3.621 0.071 1.615 1.336 2.759 2.83 3.515-1.292 0.457-2.874 1.265-2.803 3.392 0.079 2.146 2.083 3.183 4.174 3.112 2.787-0.088 4.518-1.67 4.43-4.096-0.061-1.812-1.353-3.128-3.058-4.062 1.063-0.386 2.61-1.142 2.548-2.795-0.035-1.107-0.879-2.777-3.832-2.687zm-1.916 10.404c-0.035-1.424 0.352-2.039 0.897-2.935 1.353 0.826 2.645 1.617 2.697 3.218 0.019 0.508 0.079 2.268-1.643 2.336-1.265 0.037-1.898-1.229-1.951-2.619z" clip-rule="evenodd" fill="#231F20" fill-rule="evenodd"/>
<path d="m181.27 293.3c5.845-0.387 8.737-4.008 8.851-7.541 0.177-4.676-2.487-5.869-4.244-5.94-3.49-0.123-4.352 3.164-4.386 4.201-0.114 3.356 2.038 4.166 3.374 4.219 0.352 0.017 0.642 0 0.94-0.053 0.29-0.035 0.572-0.106 0.862-0.265-1.125 3.64-3.428 4.554-5.379 4.869l-0.018 0.51m3.208-10.229c0.053-1.547 0.106-2.778 1.292-2.724 1.195 0.052 1.45 1.265 1.311 5.078-0.019 0.457-0.158 1.442-0.229 1.759-0.035 0.141-0.554 0.229-0.861 0.211-1.346-0.054-1.609-1.529-1.513-4.324z" clip-rule="evenodd" fill="#231F20" fill-rule="evenodd"/>
<path d="m201.24 281.07l-8.061-0.703-1.213 4.236 0.475 0.034c0.571-1.598 1.529-1.528 2.039-1.476l4.008 0.353-4.78 10.089 1.837 0.157 5.695-12.69" clip-rule="evenodd" fill="#231F20" fill-rule="evenodd"/>
<path d="m163.32 73.363s-5.026-1.907-5.581-3.261c-0.535-1.371-1.221-3.401-2.987-3.55-1.768-0.132-3.815 0.685-3.815-0.809 0-1.503 1.363-6.126 5.176-8.033 3.807-1.908 6.936-1.494 8.843-2.857 1.916-1.371 3.532-2.18 4.087-4.772 0.536-2.575-0.273-6.258-1.081-7.216-0.826-0.94-2.321-2.988-5.994-2.848-3.674 0.132-8.447 1.494-10.626 0.405-2.18-1.09-7.621-1.767-9.519-2.048-1.916-0.273-6.267-0.677-3.138-2.444 3.138-1.775 5.168-0.958 5.168-0.958s3.815-2.997 5.309-3.805c1.503-0.818 4.087-1.635 6.811-1.635 2.725 0 8.983 0.413 8.983 0.413s3.269-2.733 4.087-2.733c0.816 0 3.945 0 5.316-0.264 1.355-0.281 2.708-1.231 5.442-0.281 2.715 0.949 1.766 2.32 4.086 2.188 2.313-0.149 3.533-1.643 4.896-1.239 1.362 0.422 4.087 1.775 5.44 1.644 1.363-0.132 3.411 0.131 4.359-0.554 0.949-0.668 2.83-2.312 6.662-2.575 3.955-0.273 9.94 1.353 9.265 4.895-0.687 3.542-2.857 4.5-4.765 3.542-1.898-0.958-3.814-2.312-4.5-1.503-0.668 0.818-1.758 2.593-0.668 2.461 1.09-0.14 1.898-0.958 2.717-0.826 0.816 0.141 4.632-0.949 3.945 2.32-0.677 3.261-3.129 3.665-4.623 3.533-1.494-0.131-3.27-0.272-4.5 0.545-1.222 0.827-3.393 2.452-3.393 2.452s2.725 2.453 4.079 2.725c1.362 0.273 5.308 0.545 6.397 1.767 1.09 1.221 3.271 7.084 2.856 9.395-0.404 2.312-2.312 8.983-2.312 8.983l-22.323 2.179-11.707 1.09-12.392 3.674" clip-rule="evenodd" fill="#FCE52D" fill-rule="evenodd"/>
<path d="m182.57 28.666c0.301 2.002 0.693 3.943 1.17 4.944 1.214 2.584 5.168 7.076 5.168 7.076l12.533-10.205-1.486-2.731c-0.602 0.37-1.047 0.723-1.379 0.956-0.948 0.686-2.996 0.422-4.359 0.554-1.354 0.132-4.078-1.222-5.44-1.644-1.362-0.404-2.583 1.09-4.896 1.239-0.634 0.037-1.024-0.04-1.311-0.189" clip-rule="evenodd" fill="#00A652" fill-rule="evenodd"/>
<path d="m182.57 28.666c0.301 2.002 0.693 3.943 1.17 4.944 1.214 2.584 5.168 7.076 5.168 7.076l12.533-10.205-1.486-2.731" fill="none" stroke="#231F20" stroke-miterlimit="3.864" stroke-width="3.267"/>
<path d="m193.13 55.125s5.045-3.542 5.853-5.045c0.431-0.788 1.355-2.862 2.133-4.648-1.201-0.806-2.396-1.882-2.396-1.882s1.039-0.778 2.084-1.531l-5.757-1.598-9 5.994 3.005 8.71h4.078" clip-rule="evenodd" fill="#FCE52D" fill-rule="evenodd"/>
<path d="m200.8 42.019l-5.757-1.598-9 5.995 3.005 8.709h4.079s5.045-3.542 5.853-5.044c0.431-0.789 1.355-2.863 2.133-4.649" fill="none" stroke="#231F20" stroke-miterlimit="3.864" stroke-width="3.267"/>
<path d="m201.17 45.467c0.461 2.553 1.247 6.336 2.032 7.478 1.23 1.776 0.555 3.129 0 4.623-0.535 1.503-3.27 7.489-3.27 7.489l2.56 2.07 7.249-0.708s1.907-6.671 2.312-8.982c0.414-2.312-1.767-8.174-2.856-9.396-1.09-1.221-5.035-1.494-6.397-1.766-0.445-0.089-1.036-0.413-1.63-0.808" clip-rule="evenodd" fill="#FCE52D" fill-rule="evenodd"/>
<path d="m201.17 45.467c0.461 2.553 1.247 6.336 2.032 7.478 1.23 1.776 0.555 3.129 0 4.623-0.535 1.503-3.27 7.489-3.27 7.489l2.56 2.07" fill="none" stroke="#231F20" stroke-miterlimit="3.864" stroke-width="3.267"/>
<path d="m164.85 40.439c1.189-0.813 2.325-1.464 2.965-1.512 1.759-0.14 3.807-0.413 4.36-1.362 0.537-0.958 0-3.542-2.724-4.219-2.725-0.685-3.815-0.685-4.633-2.461-0.122-0.264-0.289-0.6-0.482-0.979-1.643-0.104-6.163-0.374-8.368-0.374-2.724 0-5.308 0.817-6.811 1.634-1.494 0.809-5.309 3.806-5.309 3.806s-2.03-0.817-5.168 0.958c-3.129 1.767 1.222 2.171 3.138 2.443 1.898 0.282 7.339 0.958 9.519 2.048 2.179 1.09 6.952-0.272 10.626-0.404 1.165-0.044 2.111 0.131 2.887 0.422" clip-rule="evenodd" fill="#00A652" fill-rule="evenodd"/>
<path d="m164.85 40.439c1.189-0.813 2.325-1.464 2.965-1.512 1.759-0.14 3.807-0.413 4.36-1.362 0.537-0.958 0-3.542-2.724-4.219-2.725-0.685-3.815-0.685-4.633-2.461-0.122-0.264-0.289-0.6-0.482-0.979" fill="none" stroke="#231F20" stroke-miterlimit="3.864" stroke-width="3.267"/>
<path d="m169.16 49.299c0.386 2.98 0.839 6.753 0.839 8.006 0 2.171 1.221 8.842 1.221 8.842l-8.059 7.155c-0.853-0.336-4.928-1.989-5.424-3.2-0.535-1.371-1.221-3.402-2.987-3.551-1.768-0.132-3.815 0.685-3.815-0.809 0-1.503 1.363-6.126 5.176-8.033 3.807-1.907 6.936-1.494 8.843-2.856 1.916-1.371 3.532-2.18 4.087-4.773 0.052-0.251 0.091-0.512 0.119-0.781" clip-rule="evenodd" fill="#00A652" fill-rule="evenodd"/>
<path d="m169.16 49.299c0.386 2.98 0.839 6.753 0.839 8.006 0 2.171 1.221 8.842 1.221 8.842l-8.059 7.155" fill="none" stroke="#231F20" stroke-miterlimit="3.864" stroke-width="3.267"/>
<path d="m182.38 51.856s6.67-0.949 9.254 0c2.584 0.958 4.632 2.18 4.764 3.674 0.142 1.503-1.09 5.176-1.09 5.176l-3.269 4.624-6.126-2.444-3.533-11.03" clip-rule="evenodd" fill="#fff" fill-rule="evenodd"/>
<path d="m182.38 51.856s6.67-0.949 9.254 0c2.584 0.958 4.632 2.18 4.764 3.674 0.142 1.503-1.09 5.176-1.09 5.176l-3.269 4.624-6.126-2.444-3.533-11.03" fill="none" stroke="#231F20" stroke-miterlimit="3.864" stroke-width="3.267"/>
<path d="m169.21 47.845c2.807 2.571 6.751 6.281 10.177 9.864 6.126 6.398 6.812 7.348 6.812 7.348 1e-3 0 2.452-8.165 1.768-10.204-0.677-2.039-0.81-8.578-0.81-8.578l-3.409-4.351s-7.893-1.09-8.851-1.09-1.626-0.149-4.227 0.405c-0.962 0.202-2.596 0.298-4.188 0.119 0.68 0.536 1.138 1.116 1.481 1.506 0.59 0.702 1.182 2.863 1.247 4.981" clip-rule="evenodd" fill="#00A652" fill-rule="evenodd"/>
<path d="m169.21 47.845c2.807 2.571 6.751 6.281 10.177 9.864 6.126 6.398 6.812 7.348 6.812 7.348s2.452-8.165 1.768-10.204c-0.677-2.039-0.81-8.578-0.81-8.578l-3.409-4.351s-7.893-1.09-8.851-1.09-1.626-0.149-4.227 0.405c-0.962 0.202-2.596 0.298-4.188 0.119" fill="none" stroke="#231F20" stroke-miterlimit="3.864" stroke-width="3.267"/>
<path d="m197.4 29.115c-0.794 2.265-1.83 4.436-3.037 5.181-2.855 1.766-11.574 5.168-11.574 5.168l-3.806 2.188 7.33 9.475s3.832-1.864 5.195-2.804c1.361-0.958 7.338-4.904 7.338-4.904l0.063-7e-3c0.55-0.409 2.199-1.633 3.207-2.314 1.23-0.817 3.006-0.676 4.5-0.544 1.494 0.131 3.946-0.273 4.623-3.534 0.687-3.269-3.129-2.179-3.945-2.32-0.818-0.132-1.627 0.686-2.717 0.826-1.09 0.132 0-1.643 0.668-2.461 0.686-0.808 2.602 0.545 4.5 1.503 1.907 0.958 4.078 0 4.765-3.542 0.676-3.542-5.31-5.168-9.265-4.895-3.832 0.263-5.713 1.907-6.662 2.575-0.303 0.218-0.716 0.34-1.183 0.409" clip-rule="evenodd" fill="#FCE52D" fill-rule="evenodd"/>
<path d="m163.32 73.363s-5.026-1.907-5.581-3.261c-0.535-1.371-1.221-3.401-2.987-3.55-1.768-0.132-3.815 0.685-3.815-0.809 0-1.503 1.363-6.126 5.176-8.033 3.807-1.908 6.936-1.494 8.843-2.857 1.916-1.371 3.532-2.18 4.087-4.772 0.536-2.575-0.273-6.258-1.081-7.216-0.826-0.94-2.321-2.988-5.994-2.848-3.674 0.132-8.447 1.494-10.626 0.405-2.18-1.09-7.621-1.767-9.519-2.048-1.916-0.273-6.267-0.677-3.138-2.444 3.138-1.775 5.168-0.958 5.168-0.958s3.815-2.997 5.309-3.805c1.503-0.818 4.087-1.635 6.811-1.635 2.725 0 8.983 0.413 8.983 0.413s3.269-2.733 4.087-2.733c0.816 0 3.945 0 5.316-0.264 1.355-0.281 2.708-1.231 5.442-0.281 2.715 0.949 1.766 2.32 4.086 2.188 2.313-0.149 3.533-1.643 4.896-1.239 1.362 0.422 4.087 1.775 5.44 1.644 1.363-0.132 3.411 0.131 4.359-0.554 0.949-0.668 2.83-2.312 6.662-2.575 3.955-0.273 9.94 1.353 9.265 4.895-0.687 3.542-2.857 4.5-4.765 3.542-1.898-0.958-3.814-2.312-4.5-1.503-0.668 0.818-1.758 2.593-0.668 2.461 1.09-0.14 1.898-0.958 2.717-0.826 0.816 0.141 4.632-0.949 3.945 2.32-0.677 3.261-3.129 3.665-4.623 3.533-1.494-0.131-3.27-0.272-4.5 0.545-1.222 0.827-3.393 2.452-3.393 2.452s2.725 2.453 4.079 2.725c1.362 0.273 5.308 0.545 6.397 1.767 1.09 1.221 3.271 7.084 2.856 9.395-0.404 2.312-2.312 8.983-2.312 8.983l-22.323 2.179-11.707 1.09-12.392 3.674z" fill="none" stroke="#231F20" stroke-miterlimit="3.864" stroke-width="3.267"/>
<path d="m197.4 29.115c-0.794 2.265-1.83 4.436-3.037 5.181-2.855 1.766-11.574 5.168-11.574 5.168l-3.806 2.188 7.33 9.475s3.832-1.864 5.195-2.804c1.361-0.958 7.338-4.904 7.338-4.904l0.063-7e-3" fill="none" stroke="#231F20" stroke-miterlimit="3.864" stroke-width="3.267"/>
<path d="m206.33 79.427s7.629-4.096 8.19-5.959c0.555-1.863 1.301-6.706-2.601-7.822-3.92-1.116-7.269 0-7.269 0s-1.047-2.162-5.326-2.716c-4.28-0.563-6.328 0.554-6.328 0.554s-0.818-1.864-5.775-1.864-6.626 1.864-6.626 1.864-2.039-1.67-5.581-1.301c-3.542 0.377-6.143 2.9-6.143 2.9s-3.463-1.116-5.326 0.563c-1.864 1.67-2.795 5.396-2.233 6.882 0.554 1.494 2.971 5.211 2.971 5.211l31.5-0.922 10.547 2.61" clip-rule="evenodd" fill="#DBDDE1" fill-rule="evenodd"/>
<path d="m168.87 65.461s-0.933 2.232-1.116 4.834c-0.185 2.61 0.183 5.774 0.183 5.774" fill="none" stroke="#231F20" stroke-miterlimit="3.864" stroke-width="3.267"/>
<path d="m180.4 63.483s-1.671 3.278-2.232 5.326c-0.554 2.048-1.301 5.397-1.301 5.397" fill="none" stroke="#231F20" stroke-miterlimit="3.864" stroke-width="3.267"/>
<path d="m192.81 63.676s-2.602 4.017-3.542 5.695c-0.924 1.67-2.232 4.834-2.232 4.834" fill="none" stroke="#231F20" stroke-miterlimit="3.864" stroke-width="3.267"/>
<path d="m204.84 65.645s-4.571 4.843-4.957 6.144c-0.37 1.309-1.302 3.542-1.302 3.542" fill="none" stroke="#231F20" stroke-miterlimit="3.864" stroke-width="3.267"/>
<path d="m206.33 79.426s7.629-4.096 8.19-5.959c0.555-1.863 1.301-6.706-2.601-7.822-3.92-1.116-7.269 0-7.269 0s-1.047-2.162-5.326-2.716c-4.28-0.563-6.328 0.554-6.328 0.554s-0.818-1.864-5.775-1.864-6.626 1.864-6.626 1.864-2.039-1.67-5.581-1.301c-3.542 0.377-6.143 2.9-6.143 2.9s-3.463-1.116-5.326 0.563c-1.864 1.67-2.795 5.396-2.233 6.882 0.554 1.494 2.971 5.211 2.971 5.211l31.5-0.922 10.547 2.61z" fill="none" stroke="#231F20" stroke-miterlimit="3.864" stroke-width="3.267"/>
<path d="m172.78 113.34l14.439-0.931s17.982-9.677 20.409-12.288c2.425-2.601 5.026-9.421 4.658-16.119-0.369-6.706-6.224-10.353-26.175-11.1-7.506-0.273-14.114 0.378-19.282 2.232-8.614 3.076-14.203 8.895-16.691 16.313-3.085 9.229 20.224 19.282 20.224 19.282l2.418 2.611" clip-rule="evenodd" fill="#DBDDE1" fill-rule="evenodd"/>
<path d="m172.78 113.34l14.439-0.931s17.982-9.677 20.409-12.288c2.425-2.601 5.026-9.421 4.658-16.119-0.369-6.706-6.224-10.353-26.175-11.1-7.506-0.273-14.114 0.378-19.282 2.232-8.614 3.076-14.203 8.895-16.691 16.313-3.085 9.229 20.224 19.282 20.224 19.282l2.418 2.611z" fill="none" stroke="#231F20" stroke-miterlimit="3.864" stroke-width="3.267"/>
<path d="m215.44 124.62s-2.787-6.398-4.281-7.444c-1.493-1.038-2.601-1.231-2.601-1.231s0.069-2.118-0.59-3.648c-0.535-1.238-1.827-1.899-1.907-2.311-0.088-0.413 1.151-2.892 1.635-5.441 0.606-3.278 0.422-6.741-0.633-6.952-1.863-0.378-8.111 3.086-10.345 4.395-2.241 1.301-6.337 4.465-6.337 4.465s2.242-8.675 0.193-9.238c-2.057-0.553-8.684 2.54-13.148 6.812-1.441 1.38-3.463 2.451-4.993 4.052-1.651 1.74-2.785 3.999-3.901 5.22-0.545 0.606-3.885 1.592-6.716 3.225-2.618 1.503-4.728 3.64-5.536 4-1.67 0.746-9.985 1.863-9.615 5.406 0.386 3.532 6.082 11.829 11.847 12.576 5.766 0.747 11.655-0.747 15.003-1.854 3.349-1.125 15.935-3.093 15.935-3.093l23.757-1.118 2.233-7.821" clip-rule="evenodd" fill="#DBDDE1" fill-rule="evenodd"/>
<path d="m206.48 109.58s-8.887 4.166-10.854 4.825c-1.97 0.658-6.136 1.968-6.136 1.968s2.742 0.555 3.508 1.652c0.764 1.099 0.869 2.18 0.869 2.18" fill="none" stroke="#231F20" stroke-miterlimit="3.864" stroke-width="3.267"/>
<path d="m168.7 113.53s-0.757 4.957-0.387 6.813c0.387 1.863 1.67 5.764 1.67 5.764" fill="none" stroke="#231F20" stroke-miterlimit="3.864" stroke-width="3.267"/>
<path d="m215.44 124.62s-2.787-6.398-4.281-7.444c-1.493-1.038-2.601-1.231-2.601-1.231s0.069-2.118-0.59-3.648c-0.535-1.238-1.827-1.899-1.907-2.311-0.088-0.413 1.151-2.892 1.635-5.441 0.606-3.278 0.422-6.741-0.633-6.952-1.863-0.378-8.111 3.086-10.345 4.395-2.241 1.301-6.337 4.465-6.337 4.465s2.242-8.675 0.193-9.238c-2.057-0.553-8.684 2.54-13.148 6.812-1.441 1.38-3.463 2.451-4.993 4.052-1.651 1.74-2.785 3.999-3.901 5.22-0.545 0.606-3.885 1.592-6.716 3.225-2.618 1.503-4.728 3.64-5.536 4-1.67 0.746-9.985 1.863-9.615 5.406 0.386 3.532 6.082 11.829 11.847 12.576 5.766 0.747 11.655-0.747 15.003-1.854 3.349-1.125 15.935-3.093 15.935-3.093l23.757-1.118 2.233-7.821z" fill="none" stroke="#231F20" stroke-miterlimit="3.864" stroke-width="3.267"/>
<path d="m208 126.68s5.212-2.803 7.821-2.056c2.603 0.746 5.134 2.056 4.949 3.911-0.185 1.864-3.244 7.902-7.744 8.86-7.822 1.677-8.561-4.387-8.561-4.387l3.535-6.328" clip-rule="evenodd" fill="#DBDDE1" fill-rule="evenodd"/>
<path d="m208 126.68s5.212-2.803 7.821-2.056c2.603 0.746 5.134 2.056 4.949 3.911-0.185 1.864-3.244 7.902-7.744 8.86-7.822 1.677-8.561-4.387-8.561-4.387l3.535-6.328z" fill="none" stroke="#231F20" stroke-miterlimit="3.864" stroke-width="3.267"/>
<path d="m194.11 127.79s5.89-3.542 8.859-3.356c2.989 0.184 6.891-0.563 7.084 1.299 0.176 1.865-3.92 9.617-5.035 10.354-1.117 0.747-4.949 2.611-7.006 1.864-2.039-0.739-6.134-5.141-6.134-5.141l2.232-5.02" clip-rule="evenodd" fill="#DBDDE1" fill-rule="evenodd"/>
<path d="m194.11 127.79s5.89-3.542 8.859-3.356c2.989 0.184 6.891-0.563 7.084 1.299 0.176 1.865-3.92 9.617-5.035 10.354-1.117 0.747-4.949 2.611-7.006 1.864-2.039-0.739-6.134-5.141-6.134-5.141l2.232-5.02z" fill="none" stroke="#231F20" stroke-miterlimit="3.864" stroke-width="3.267"/>
<path d="m185.55 137.58c4.834-0.563 9.862-4.957 10.986-8.674 1.107-3.727-2.426-5.212-5.035-4.289-2.603 0.931-9.791 5.097-10.908 8.192-1.116 3.092 0.123 5.326 4.957 4.771" clip-rule="evenodd" fill="#DBDDE1" fill-rule="evenodd"/>
<path d="m193.37 90.519s-0.29-3.911 5.035-3.727c5.31 0.194 4.869 5.212 4.018 6.522-0.862 1.301-4.579 2.601-4.579 2.601s-3.165-1.116-3.534-2.047c-0.386-0.932-0.94-3.349-0.94-3.349z" fill="none" stroke="#231F20" stroke-miterlimit="3.864" stroke-width="3.267"/>
<path d="m168.5 77.933s13.886 8.306 16.303 8.859c2.417 0.563 8.938 1.486 8.938 1.486" fill="none" stroke="#231F20" stroke-miterlimit="3.864" stroke-width="3.267"/>
<path d="m185.55 137.58c4.834-0.563 9.862-4.957 10.986-8.674 1.107-3.727-2.426-5.212-5.035-4.289-2.603 0.931-9.791 5.097-10.908 8.192-1.116 3.092 0.123 5.326 4.957 4.771z" fill="none" stroke="#231F20" stroke-miterlimit="3.864" stroke-width="3.267"/>
<path d="m172.78 80.719s-8.148 1.916-10.169 3.841c-3.533 3.348-3.164 8.56-3.164 8.56s7.664-2.513 9.246-4.28c2.971-3.349 4.087-8.121 4.087-8.121" clip-rule="evenodd" fill="#231F20" fill-rule="evenodd"/>
<path d="m179.66 84.376s-8.852 2.681-10.425 4.28c-3.277 3.349-3.462 6.891-3.462 6.891s7.734-0.361 10.16-2.795c3.911-3.911 3.727-8.376 3.727-8.376" clip-rule="evenodd" fill="#231F20" fill-rule="evenodd"/>
<path d="m188.9 87.54s-8.63 3.217-10.73 5.027c-4.096 3.533-4.096 6.513-4.096 6.513s8.007-1.002 9.685-2.786c3.648-3.921 5.141-8.754 5.141-8.754" clip-rule="evenodd" fill="#231F20" fill-rule="evenodd"/>
<path d="m174.27 81.66s5.142-5.212 11.46-5.405c6.328-0.185 7.453 1.863 7.453 1.863s-5.66 2.426-8.376 2.602c-2.715 0.193-6.074-0.37-6.811-0.176-0.746 0.176-3.726 1.116-3.726 1.116" clip-rule="evenodd" fill="#231F20" fill-rule="evenodd"/>
<path d="m182.09 85.492s1.854-1.907 6.996-3.718c6.142-2.171 6.142 0.176 6.142 0.176s-1.484 2.979-3.725 3.173c-2.233 0.184-9.413 0.369-9.413 0.369" clip-rule="evenodd" fill="#231F20" fill-rule="evenodd"/>
<line x1="220.02" x2="224.47" y1="45.528" y2="53.895" fill="none" stroke="#231F20" stroke-miterlimit="3.864" stroke-width="2.178"/>
<line x1="220.02" x2="215.93" y1="45.528" y2="53.895" fill="none" stroke="#231F20" stroke-miterlimit="3.864" stroke-width="2.178"/>
<line x1="210.6" x2="210.6" y1="45.352" y2="38.004" fill="none" stroke="#231F20" stroke-miterlimit="3.864" stroke-width="2.178"/>
<line x1="199.65" x2="221.01" y1="45.528" y2="45.528" fill="none" stroke="#231F20" stroke-miterlimit="3.864" stroke-width="2.178"/>
<path d="m224.96 54.141c0.369 0.738 0.588 1.028 0.588 1.907 0 2.945-2.381 5.335-5.335 5.335-2.936 0-5.326-2.39-5.326-5.335 0-0.694 0.141-1.362 0.528-1.977l9.545 0.07" clip-rule="evenodd" fill="#231F20" fill-rule="evenodd"/>
<path d="m224.96 54.141c0.369 0.738 0.588 1.028 0.588 1.907 0 2.945-2.381 5.335-5.335 5.335-2.936 0-5.326-2.39-5.326-5.335 0-0.694 0.141-1.362 0.528-1.977l9.545 0.07z" fill="none" stroke="#231F20" stroke-miterlimit="3.864" stroke-width="1.305"/>
<line x1="200.47" x2="204.92" y1="45.528" y2="53.895" fill="none" stroke="#231F20" stroke-miterlimit="3.864" stroke-width="2.178"/>
<line x1="200.47" x2="196.37" y1="45.528" y2="53.895" fill="none" stroke="#231F20" stroke-miterlimit="3.864" stroke-width="2.178"/>
<path d="m205.4 54.141c0.379 0.738 0.598 1.028 0.598 1.907 0 2.945-2.391 5.335-5.325 5.335-2.954 0-5.327-2.39-5.327-5.335 0-0.694 0.123-1.362 0.51-1.977l9.544 0.07" clip-rule="evenodd" fill="#231F20" fill-rule="evenodd"/>
<path d="m205.4 54.141c0.379 0.738 0.598 1.028 0.598 1.907 0 2.945-2.391 5.335-5.325 5.335-2.954 0-5.327-2.39-5.327-5.335 0-0.694 0.123-1.362 0.51-1.977l9.544 0.07z" fill="none" stroke="#231F20" stroke-miterlimit="3.864" stroke-width="1.305"/>
<path d="m224.96 53.921c0.369 0.738 0.588 1.02 0.588 1.907 0 2.945-2.381 5.326-5.335 5.326-2.936 0-5.326-2.381-5.326-5.326 0-0.694 0.141-1.371 0.528-1.986l9.545 0.079" clip-rule="evenodd" fill="#231F20" fill-rule="evenodd"/>
<path d="m224.96 53.921c0.369 0.738 0.588 1.02 0.588 1.907 0 2.945-2.381 5.326-5.335 5.326-2.936 0-5.326-2.381-5.326-5.326 0-0.694 0.141-1.371 0.528-1.986l9.545 0.079z" fill="none" stroke="#231F20" stroke-miterlimit="3.864" stroke-width="1.305"/>
<path d="m205.4 53.921c0.379 0.738 0.598 1.02 0.598 1.907 0 2.945-2.391 5.326-5.325 5.326-2.954 0-5.327-2.381-5.327-5.326 0-0.694 0.123-1.371 0.51-1.986l9.544 0.079" clip-rule="evenodd" fill="#231F20" fill-rule="evenodd"/>
<path d="m205.4 53.921c0.379 0.738 0.598 1.02 0.598 1.907 0 2.945-2.391 5.326-5.325 5.326-2.954 0-5.327-2.381-5.327-5.326 0-0.694 0.123-1.371 0.51-1.986l9.544 0.079z" fill="none" stroke="#231F20" stroke-miterlimit="3.864" stroke-width="1.305"/>
</svg>
