<?xml version="1.0" encoding="UTF-8"?>
<svg width="287.55" height="347.77" version="1.1" viewBox="0 0 402.09177 486.30695" xmlns="http://www.w3.org/2000/svg">
<defs>
<clipPath id="n">
<path d="m427.29 295.48c-14.366 6.633-85.837 39.876-60.06 143.07 5.5 2.729 61.289 28.113 119.3 0.511 6.461-7.084 28.407-105.64-59.243-143.58"/>
</clipPath>
<clipPath id="m">
<path d="m500.44 459.26h-350.34v-175.88h350.34v175.88z"/>
</clipPath>
<clipPath id="l">
<path d="m327.7 472.43h209.22v-208.69h-209.22v208.69z"/>
</clipPath>
<clipPath id="k">
<path d="m0 595.28h841.89v-595.28h-841.89v595.28z"/>
</clipPath>
<clipPath id="j">
<path d="m0 595.26h841.92v-595.26h-841.92v595.26z"/>
</clipPath>
<clipPath id="r">
<path d="m500.44 459.26h-350.34v-175.88h350.34v175.88z"/>
</clipPath>
<clipPath id="q">
<path d="m327.7 472.43h209.22v-208.69h-209.22v208.69z"/>
</clipPath>
<clipPath id="p">
<path d="m0 595.28h841.89v-595.28h-841.89v595.28z"/>
</clipPath>
<clipPath id="o">
<path d="m0 595.26h841.92v-595.26h-841.92v595.26z"/>
</clipPath>
<clipPath id="e">
<path d="m427.28 290.68c-15.267 7.033-91.111 42.327-63.757 151.86 5.84 2.894 65.049 29.833 126.63 0.535 6.861-7.519 30.145-112.12-62.874-152.39"/>
</clipPath>
<clipPath id="d">
<path d="m500.44 459.26h-350.34v-175.88h350.34v175.88z"/>
</clipPath>
<clipPath id="c">
<path d="m327.7 472.43h209.22v-208.69h-209.22v208.69z"/>
</clipPath>
<clipPath id="b">
<path d="m0 595.28h841.89v-595.28h-841.89v595.28z"/>
</clipPath>
<clipPath id="a">
<path d="m0 595.26h841.92v-595.26h-841.92v595.26z"/>
</clipPath>
<clipPath id="i">
<path d="m500.44 459.26h-350.34v-175.88h350.34v175.88z"/>
</clipPath>
<clipPath id="h">
<path d="m327.7 472.43h209.22v-208.69h-209.22v208.69z"/>
</clipPath>
<clipPath id="g">
<path d="m0 595.28h841.89v-595.28h-841.89v595.28z"/>
</clipPath>
<clipPath id="f">
<path d="m0 595.26h841.92v-595.26h-841.92v595.26z"/>
</clipPath>
</defs>
<g transform="translate(-207.53 -346.35)">
<g transform="matrix(2.7649 0 0 -2.7649 -774.07 1616.2)">
<g clip-path="url(#i)">
<g clip-path="url(#h)">
<g clip-path="url(#g)">
<g clip-path="url(#f)">
<g transform="translate(427.28 290.68)">
<path d="m0 0c-15.267 7.033-91.111 42.327-63.757 151.86 5.84 2.894 65.049 29.833 126.63 0.535 6.862-7.519 30.145-112.12-62.874-152.39" fill="#231f20"/>
</g>
</g>
</g>
</g>
</g>
</g>
<g transform="matrix(2.7649 0 0 -2.7649 -774.07 1616.2)">
<g clip-path="url(#e)">
<g clip-path="url(#d)">
<g clip-path="url(#c)">
<g clip-path="url(#b)">
<g clip-path="url(#a)">
<g transform="translate(427.38 294.86)">
<path d="m0 0c89.644 58.235 49.141 152.62 48.925 153.12 0 0-48.611 16.969-97.068 0.707-9.006-11.202-25.809-112.19 48.143-153.83" fill="#fff200"/>
</g>
<g transform="translate(427.38 294.86)">
<path d="m0 0c89.644 58.235 49.141 152.62 48.925 153.12 0 0-48.611 16.969-97.068 0.707-9.006-11.202-25.809-112.19 48.143-153.83z" fill="none" stroke="#231f20" stroke-width="2.64"/>
</g>
</g>
</g>
</g>
</g>
</g>
</g>
<g transform="matrix(2.7649 0 0 -2.7649 -774.07 1616.2)">
<g clip-path="url(#r)">
<g clip-path="url(#q)">
<g clip-path="url(#p)">
<g clip-path="url(#o)">
<g transform="translate(427.28 290.68)">
<path d="m-0.03125-2.9062-1.0625 0.5c-7.6488 3.5236-30.995 14.342-48.875 38.312s-30.176 61.207-16.344 116.59l0.28125 1.1875 1.0938 0.53125c3.1804 1.576 19.618 9.1047 43.219 12.594 23.601 3.489 54.348 2.8936 85.719-12.031l0.46875-0.21875 0.34375-0.375c1.6345-1.791 2.4975-4.2803 3.6562-8.0938s2.2919-8.762 3.1562-14.625c1.7287-11.726 2.3977-27.03-0.125-43.406-5.0455-32.752-23.09-70.001-70.438-90.5l-1.0938-0.46875zm0.03125 5.8438c44.843 19.858 61.468 54.694 66.281 85.938 2.4261 15.749 1.785 30.552 0.125 41.812-0.83 5.6302-1.9042 10.372-2.9688 13.875-0.95813 3.1532-2.0232 5.2255-2.3125 5.7188-29.992 14.082-59.394 14.668-82.094 11.312-21.353-3.1567-36.356-9.6239-40.469-11.562-13.033-53.443-1.2023-88.326 15.688-110.97 16.449-22.051 37.462-32.284 45.75-36.125z" color="#000000" fill="#231f20" style="block-progression:tb;text-indent:0;text-transform:none"/>
</g>
<g transform="translate(427.29 295.48)">
<path d="m0 0c-14.366 6.634-85.837 39.877-60.06 143.07 5.5 2.729 61.289 28.113 119.3 0.511 6.461-7.084 28.407-105.64-59.243-143.58" fill="#231f20"/>
</g>
</g>
</g>
</g>
</g>
</g>
<g transform="matrix(2.7649 0 0 -2.7649 -774.07 1616.2)">
<g clip-path="url(#n)">
<g clip-path="url(#m)">
<g clip-path="url(#l)">
<g clip-path="url(#k)">
<g clip-path="url(#j)">
<g transform="translate(427.38 299.41)">
<path d="m0 0c84.471 54.873 46.314 143.79 46.107 144.27 0 0-45.801 15.99-91.455 0.666-8.482-10.559-24.317-105.71 45.348-144.94" fill="#fff200"/>
</g>
<g transform="translate(427.38 299.41)">
<path d="m0.03125-1.4375-0.65625 0.34375c-35.242 19.843-48.874 53.893-52.594 84.156-1.86 15.132-1.2602 29.346 0.34375 40.469 0.80196 5.5616 1.8687 10.361 3 14.125s2.2759 6.4608 3.5625 8.0625l0.21875 0.28125 0.34375 0.125c46.139 15.487 92.281-0.6875 92.281-0.6875l0.5-0.1875 0.21875-0.5c0.15796-0.36629 9.8163-22.807 8.8125-52.25-1.0038-29.443-12.81-65.881-55.375-93.531l-0.65625-0.40625zm-0.0625 2.9375c41.341 27.162 52.615 62.367 53.594 91.062 0.9513 27.904-7.7751 49.184-8.4062 50.688-1.5048 0.51473-45.423 15.299-89.688 0.625-0.82541-1.1363-1.9402-3.5153-2.9688-6.9375-1.0861-3.6138-2.1194-8.2932-2.9062-13.75-1.5737-10.914-2.1728-24.933-0.34375-39.812 3.6339-29.562 16.802-62.442 50.719-81.875z" color="#000000" fill="#fff" style="block-progression:tb;text-indent:0;text-transform:none"/>
</g>
</g>
</g>
</g>
</g>
</g>
</g>
<g transform="matrix(2.7649 0 0 -2.7649 407.37 799.19)">
<path d="m-0.03125-2.7188-1 0.46875c-7.1933 3.3218-29.185 13.511-46.031 36.094s-28.441 57.661-15.406 109.84l0.28125 1.0938 1.0312 0.53125c2.999 1.488 18.452 8.5552 40.688 11.844 22.236 3.2885 51.228 2.7485 80.781-11.312l0.4375-0.21875 0.34375-0.375c1.539-1.6874 2.3459-4.0008 3.4375-7.5938s2.1543-8.2885 2.9688-13.812c1.6288-11.048 2.2516-25.415-0.125-40.844-4.7531-30.858-21.76-65.968-66.375-85.281l-1.0312-0.4375zm0.03125 5.4688c42.257 18.71 57.934 51.562 62.469 81 2.2856 14.838 1.6579 28.766 0.09375 39.375-0.78208 5.3047-1.7784 9.7927-2.7812 13.094-0.90722 2.9861-1.9537 4.9254-2.2188 5.375-28.245 13.255-55.932 13.818-77.312 10.656-20.128-2.9768-34.263-9.1151-38.125-10.938-12.268-50.332-1.1285-83.173 14.781-104.5 15.498-20.775 35.29-30.438 43.094-34.062z" color="#000000" fill="#fff200" style="block-progression:tb;text-indent:0;text-transform:none"/>
</g>
<g transform="matrix(2.7649 0 0 -2.7649 485.56 424.9)">
<path transform="matrix(.36167 0 0 -.36167 -100.92 28.77)" d="m198.78 37.875c-1.529 9.528-2.2115 14.273-3.5 23.812-1.6866-9.4838-2.5875-14.206-4.5312-23.656-4.5124 0.15484-6.7799 0.27578-11.281 0.59375 4.3106 14.718 8.1414 29.57 11.531 44.531 2.5272-0.08848 3.8138-0.1286 6.3438-0.15625 1.3604-10.57 2.114-15.841 3.7812-26.406 1.6175 10.568 2.3346 15.851 3.6562 26.438 2.5272 0.04424 3.7881 0.0852 6.3125 0.1875 3.4368-14.994 7.3723-29.871 11.719-44.625-4.4377-0.30414-6.6505-0.41319-11.094-0.5625-1.9908 9.6884-2.9226 14.54-4.6562 24.25-1.2608-9.7796-1.9536-14.652-3.4688-24.406-1.9189-0.01382-2.8964-0.01382-4.8125 0zm-21.281 0.875c-9.4976 0.72995-14.228 1.2956-23.656 2.75 2.2368 14.817 4.4708 29.623 6.7188 44.438 8.0736-1.2055 12.129-1.6611 20.25-2.25-0.25161-3.423-0.37615-5.1055-0.625-8.5312-4.4184 0.32626-6.6322 0.5308-11.031 1.0312-0.50599-4.3852-0.74954-6.5835-1.25-10.969 3.8294-0.44239 5.7532-0.62783 9.5938-0.9375-0.27649-3.423-0.41101-5.1395-0.6875-8.5625-3.9539 0.32626-5.9239 0.50977-9.875 0.96875-0.36774-3.2792-0.5587-4.9083-0.9375-8.1875 4.8497-0.56681 7.2559-0.817 12.125-1.1875-0.25714-3.423-0.37339-5.1367-0.625-8.5625zm47.906 0.03125c-1.2028 15.03-2.4278 30.061-3.625 45.094 8.1179 0.65529 12.159 1.1261 20.219 2.4062 0.53916-3.4064 0.80182-5.0908 1.3438-8.5-4.3852-0.694-6.5642-1.0197-10.969-1.5312 0.51981-4.4101 0.76697-6.6212 1.2812-11.031 3.8322 0.43963 5.7413 0.70614 9.5625 1.2812 0.51151-3.4147 0.79546-5.1165 1.3125-8.5312-3.9345-0.58893-5.9239-0.85905-9.875-1.3125 0.38986-3.2986 0.57889-4.9487 0.96875-8.25 4.8525 0.55299 7.2634 0.90418 12.094 1.6562 0.53916-3.4119 0.80182-5.1193 1.3438-8.5312-9.4285-1.4599-14.159-2.0201-23.656-2.75zm28.531 3.5312c-2.6046 14.886-5.1877 29.767-7.7812 44.656 3.8046 0.66912 5.7148 1.0392 9.5 1.8438 1.5373-7.2663 2.3037-10.882 3.8438-18.156 2.6709 0.56405 3.9991 0.84111 6.6562 1.4688-1.7143 7.2386-2.5725 10.858-4.2812 18.094 3.7742 0.89584 5.668 1.4006 9.4062 2.4375 1.9742-7.1778 2.9606-10.791 4.9375-17.969-1.9548-2.3668-2.9539-3.5469-5-5.875 2.6378-1.2083 3.9549-1.79 6.6562-2.9375 1.2498-4.587 1.8752-6.8789 3.125-11.469-2.2894-3.1078-3.4557-4.658-5.875-7.7188-8.4248-2.0461-12.671-2.9179-21.188-4.375zm-112.78 1.4062c-8.4856 1.6728-12.713 2.673-21.094 4.9375 3.8543 14.43 7.6888 28.857 11.562 43.281 3.7576-0.99538 5.655-1.4554 9.4375-2.3125-1.6451-7.1612-2.4624-10.745-4.0938-17.906 2.6654-0.61105 3.9798-0.92406 6.6562-1.4688 1.4627 7.2054 2.2166 10.829 3.6875 18.031 3.7963-0.76312 5.6871-1.1251 9.5-1.75-1.211-7.258-1.7972-10.896-3-18.156-2.7539-1.3106-4.1798-1.9488-7-3.1875 1.8857-2.1815 2.8522-3.2579 4.8125-5.4062-0.77971-4.6368-1.1578-6.9569-1.9375-11.594-3.3622-1.8359-5.064-2.7296-8.5312-4.4688zm154.16 8.625c-3.8212 1.4157-5.7214 2.13-9.4375 3.6562-1.5318 5.2755-2.2807 7.9147-3.8125 13.188 2.4083 3.4783 3.5618 5.2219 5.8125 8.75 3.4341 1.4046 5.1442 2.1411 8.5312 3.6562-1.2719 3.564-1.9156 5.3422-3.1875 8.9062-2.505-0.89584-3.7596-1.324-6.2812-2.1562 0.76313-2.306 1.1431-3.4468 1.9062-5.75-3.9096-1.2912-5.8724-1.9206-9.8125-3.0625-0.94285 3.235-1.4064 4.8588-2.3438 8.0938 1.9852 3.2046 2.9655 4.822 4.8125 8.0625 4.6479 1.4848 6.9414 2.2968 11.531 4 3.4506-1.3963 5.1998-2.0893 8.75-3.375 2.082-5.2368 3.1312-7.8312 5.2188-13.062-2.035-3.7078-3.0776-5.5497-5.2812-9.2188-3.4811-1.5815-5.2219-2.3471-8.75-3.8125 1.1419-3.4479 1.6733-5.1771 2.8125-8.625 2.776 0.91243 4.1781 1.3934 6.9375 2.375-0.81842 2.2866-1.2128 3.4294-2.0312 5.7188 3.7327 1.3244 5.5873 2.0144 9.2812 3.4688 1.2498-3.1631 1.878-4.7432 3.125-7.9062-2.0571-3.5004-3.1428-5.257-5.3438-8.7188-4.9492-1.7944-7.4357-2.6087-12.438-4.1875zm-188.16 0.09375c-8.2672 2.6184-12.356 4.0739-20.469 7.2812 5.4442 13.861 10.88 27.713 16.344 41.562 7.1474-2.7926 10.751-4.0535 18.031-6.3125 1.8802-3.1659 2.8538-4.7396 4.875-7.875-1.3299-4.6838-1.9798-7.0322-3.3125-11.719-2.9142-0.97603-4.3944-1.4451-7.375-2.3438 1.6203-2.3668 2.4641-3.5303 4.1562-5.875-1.2912-4.5041-1.9588-6.7772-3.25-11.281-3.5502-1.435-5.3558-2.1131-9-3.4375zm32.906 0.21875c0.76589 3.7714 1.1376 5.6661 1.9062 9.4375-2.7566 0.56405-4.1322 0.86959-6.875 1.5-0.85437-3.7465-1.2679-5.6257-2.125-9.375 2.8313-0.65253 4.2514-0.97633 7.0938-1.5625zm123.19 0.21875c2.8424 0.59446 4.2652 0.93016 7.0938 1.5938-0.89861 3.788-1.3514 5.6495-2.25 9.4375-2.7373-0.64423-4.0982-0.92213-6.8438-1.5 0.8046-3.8046 1.1899-5.7239 2-9.5312zm-156.09 8.5c1.1806 3.647 1.7541 5.478 2.9375 9.125-2.6903 0.87649-4.011 1.3384-6.6875 2.2812-1.2719-3.6165-1.9212-5.4175-3.1875-9.0312 2.7622-0.97603 4.1587-1.4709 6.9375-2.375zm5.5 17.031c1.211 3.7299 1.8174 5.5854 3.0312 9.3125-2.5327 0.81566-3.7734 1.2457-6.2812 2.125-1.2995-3.6967-1.9532-5.5533-3.25-9.25 2.6018-0.91243 3.8899-1.3387 6.5-2.1875zm43.75 278.75-0.0625 21.719 9.625 0.0312v-4.0938h-5.0625v-5.4062h4.25v-4.0938h-4.2188v-4h5.0938v-4.125l-9.625-0.0312zm14.781 0.0312-3.1875 3v6.5938l3.4688 3.2188 4.0312 0.34375v4.5l-3-0.0312v-2.875h-4.5312l-0.0312 4 3.2188 2.9688 5.6875 0.0312 3.1875-3 0.0625-6.6562-3.5-3.2188-4.0625-0.34375v-4.375h2.9688v2.9375h4.125v-4.0625l-3.1875-3-5.25-0.0312zm10.469 0.0312v4.1562h3.1875l-0.0312 17.562 4.5625 0.0312 0.0625-17.594h3.2188v-4.125l-11-0.0312zm24.656 0.0625-3.9062 0.9375v3.1875h2.625l-0.0625 17.594h4.5625l0.0312-21.719h-3.25zm12.062 0.0312-3.25 2.9688-0.0312 7.0312 3.25 3h4.3125v4.625h-3.125l0.0312-2.9375h-4.4688v4.0312l3.2188 2.9688 5.6875 0.0312 3.25-2.9688v-15.75l-3.2188-3h-5.6562zm11.156 0.0312-0.0625 9.3125 3.2188 2.9688 4 0.0312-0.0312 5.2812-3.125-0.0312v-3.1562h-4.4062l-0.0312 4.3125 3.2188 3h5.6562l3.25-2.9688 0.0312-7.5938-3.25-3.0312h-4.3125v-4l6.0625 0.0312v-4.1562h-10.219zm16.906 0.0312-3.2188 2.9688-0.0625 15.75 3.25 3h5.6562l3.2188-2.9688 0.0625-15.75-3.25-3h-5.6562zm-26.719 4.0938h2.9375v4.6875h-2.9688l0.0312-4.6875zm28.062 0.0312 2.9688 0.0312v13.469h-3l0.0312-13.5z" fill="#231f20"/>
</g>
<g transform="matrix(2.7649 0 0 -2.7649 525.32 565.9)">
<path d="m0 0c0-22.498-18.214-40.731-40.714-40.731-22.49 0-40.712 18.233-40.712 40.731 0 22.484 18.222 40.707 40.712 40.707 22.5 0 40.714-18.223 40.714-40.707" fill="#fde92b"/>
</g>
<g transform="matrix(2.7649 0 0 -2.7649 525.32 565.9)">
<path d="m-40.719-41.594c-22.958 0-41.562 18.628-41.562 41.594 0 22.952 18.604 41.562 41.562 41.562 22.968 0 41.594-18.611 41.594-41.562 0-22.966-18.626-41.594-41.594-41.594zm0 1.7188c22.032 0 39.844 17.845 39.844 39.875 0 22.016-17.812 39.844-39.844 39.844-22.022 0-39.844-17.828-39.844-39.844 0-22.03 17.822-39.875 39.844-39.875z" color="#000000" fill="#231f20" style="block-progression:tb;text-indent:0;text-transform:none"/>
</g>
<g transform="matrix(2.7649 0 0 -2.7649 429.03 511.21)">
<path d="m0 0 7.154 0.594s0.941 3.041 2.321 2.704c1.174 0.208 2.577-1.016 2.577-1.016s3.048-0.527 2.027-3.094c0-1.894-1.072-2.698-1.809-2.975-0.55-0.728-2.088-0.271-2.088-0.271s-3.836-1.425-4.59-1.62c-0.447-0.113-2.511-0.273-2.511-0.273l-3.081 5.951" fill="#fde92b"/>
</g>
<g transform="matrix(2.7649 0 0 -2.7649 429.03 511.21)">
<path d="m0 0 7.154 0.594s0.941 3.041 2.321 2.704c1.174 0.208 2.577-1.016 2.577-1.016s3.048-0.527 2.027-3.094c0-1.894-1.072-2.698-1.809-2.975-0.55-0.728-2.088-0.271-2.088-0.271s-3.836-1.425-4.59-1.62c-0.447-0.113-2.511-0.273-2.511-0.273l-3.081 5.951z" fill="none" stroke="#231f20" stroke-width="1.012"/>
</g>
<g transform="matrix(2.7649 0 0 -2.7649 351.61 491.54)">
<path d="m0 0-6.615 8.813s7.777 4.714 11.24 4.967c12.244 0.83 9.167-12.532 9.167-12.532s10.022-0.74 14.838-8.992c5.569-8.034-0.01-16.732-0.01-16.732l0.358-0.736s2.986 0.855 3.854 1.109c12.11-8.427 19.51-2.481 19.51-2.481s4.829 0.752 6.576 3.929c1.114-0.629 1.838-1.042 1.838-1.042s-0.491-4.517-3.718-7.094c0.314-1.021 0.767-1.365 0.767-1.365s-1.583-1.908-2.587-3.06c-1.202 0-3.118 1.102-3.118 1.102s-12.401-5.017-18.294-1.253c-0.597-0.591-1.732-2.163-1.732-2.163l-9.535 0.073s-4.784-9.024-5.428-9.798c-14.257-2.337-12.492-16.991-12.492-16.991s0.658-1.535 3.002-2.881c0.499-0.812 0.298-2.78-1.328-3.188-2.908-0.881-6.238 4.539-6.238 4.539l-1.121-0.367-2.218 2.745s1.765 1.855 2.197 2.766c0.021 0.864 1.043 13.204 6.083 14.891 1.153 0.264 1.153-0.012 2.071 0.445 2.401 4.405 2.308 8.758 2.308 8.758s-4.222 6.864 0.812 12.937c0.444 0.799 0 6.047 0 6.047l-4.686 6.674-3.832 1.84s-4.07-1.491-0.377-11.96c5.001-0.941 4.603-5.247 2.216-6.94-2.216-1.671-5.525-1.473-6.293 3.583-5.326 5.492-5.623 8.691-5.518 12.116 0.097 7.378 8.303 12.241 8.303 12.241" fill="#fde92b"/>
</g>
<g transform="matrix(2.7649 0 0 -2.7649 351.61 491.54)">
<path d="m0 0-6.615 8.813s7.777 4.714 11.24 4.967c12.244 0.83 9.167-12.532 9.167-12.532s10.022-0.74 14.838-8.992c5.569-8.034-0.01-16.732-0.01-16.732l0.358-0.736s2.986 0.855 3.854 1.109c12.11-8.427 19.51-2.481 19.51-2.481s4.829 0.752 6.576 3.929c1.114-0.629 1.838-1.042 1.838-1.042s-0.491-4.517-3.718-7.094c0.314-1.021 0.767-1.365 0.767-1.365s-1.583-1.908-2.587-3.06c-1.202 0-3.118 1.102-3.118 1.102s-12.401-5.017-18.294-1.253c-0.597-0.591-1.732-2.163-1.732-2.163l-9.535 0.073s-4.784-9.024-5.428-9.798c-14.257-2.337-12.492-16.991-12.492-16.991s0.658-1.535 3.002-2.881c0.499-0.812 0.298-2.78-1.328-3.188-2.908-0.881-6.238 4.539-6.238 4.539l-1.121-0.367-2.218 2.745s1.765 1.855 2.197 2.766c0.021 0.864 1.043 13.204 6.083 14.891 1.153 0.264 1.153-0.012 2.071 0.445 2.401 4.405 2.308 8.758 2.308 8.758s-4.222 6.864 0.812 12.937c0.444 0.799 0 6.047 0 6.047l-4.686 6.674-3.832 1.84s-4.07-1.491-0.377-11.96c5.001-0.941 4.603-5.247 2.216-6.94-2.216-1.671-5.525-1.473-6.293 3.583-5.326 5.492-5.623 8.691-5.518 12.116 0.097 7.378 8.303 12.241 8.303 12.241z" fill="none" stroke="#231f20" stroke-width="1.012"/>
</g>
<g transform="matrix(2.7649 0 0 -2.7649 387.47 614.53)">
<path d="m0 0-2.339 1.107s6.126 11.159 1.512 25.95c-3.328 13.472-13.697 26.015-13.697 26.015s5.492 4.998 11.674 0.561c3.854-4.075-0.834-11.279-0.834-11.279l0.333-0.637s13.757 0.164 16.951-7.371c3.472-6.048-3.701-15.329-3.701-15.329s6.426-3.823 12.6-4.096c0-1.331 0.118-1.228-0.372-2.593-5.91-0.113-13.478 4.581-13.478 4.581s-3.709-4.197-4.975-5.429c-0.571-6.683-3.674-11.48-3.674-11.48z" fill="#231f20" stroke="#231f20" stroke-width=".404"/>
</g>
<g transform="matrix(2.7649 0 0 -2.7649 357.97 470.17)">
<path transform="matrix(.36167 0 0 -.36167 -54.771 45.143)" d="m160.44 123.06c-2.3792 0.0496-5.3475 0.57628-9 1.75 0.98432 1.7806 13.969 21.656 13.969 21.656s11.686-23.753-4.9688-23.406zm12.688 37.812c-0.0719 0.22396 1.4056 2.9791 12.031 30.344 0 0 10.121 16.938 17.719 20.781 3.8156-4.8608 13.88-18.998 10.438-31.969-1.8193-6.5419-11.515-18.2-40.188-19.156zm16.875 49.594 1.0938 16.219 7.25-8.4688-8.3438-7.75z" fill="#fde92b"/>
</g>
<g transform="matrix(2.7649 0 0 -2.7649 357.97 470.17)">
<path d="m0 0c10.568 3.396 5.049-7.834 5.049-7.834s-4.693 7.19-5.049 7.834z" fill="none" stroke="#231f20" stroke-width=".101"/>
</g>
<g transform="matrix(2.7649 0 0 -2.7649 519.92 476.38)">
<path d="m0 0c0-5.386-4.366-9.762-9.747-9.762-5.415 0-9.779 4.376-9.779 9.762 0 5.399 4.364 9.777 9.779 9.777 5.381 0 9.747-4.378 9.747-9.777" fill="#fde92b"/>
</g>
<g transform="matrix(2.7649 0 0 -2.7649 519.92 476.38)">
<path d="m-9.75-10.281c-5.6876 0-10.281 4.6219-10.281 10.281 0 5.6717 4.5935 10.281 10.281 10.281 5.6555 0 10.25-4.6095 10.25-10.281 0-5.6594-4.5947-10.281-10.25-10.281zm0 1.0312c5.1067 0 9.25 4.1374 9.25 9.25 0 5.1262-4.1435 9.2812-9.25 9.2812-5.1423 0-9.2812-4.1549-9.2812-9.2812 0-5.1127 4.1389-9.25 9.2812-9.25z" color="#000000" fill="#231f20" style="block-progression:tb;text-indent:0;text-transform:none"/>
</g>
<g transform="matrix(2.7649 0 0 -2.7649 499.46 499.83)">
<path transform="matrix(.36167 0 0 -.36167 -105.95 55.87)" d="m287.81 107.34c-16.073 6.8847-0.85174 31.467 13.438 29.938 5.494-0.53916 8.6562-4.3125 8.6562-4.3125s-1.3817-1.8259-4.3125-5.3125c-3.506 4.023-8.1562 1.6875-8.1562 1.6875s-5.7102-2.2803-8.8125-8.6562c-2.1788-3.6912 1.8125-7.0312 1.8125-7.0312s-1.3448-4.2139-2.625-6.3125zm-16.25 8.125s-6.4089 9.3514-7.125 11.594c0 2.5244 0.42474 26.148 28.5 27.406 0.63041-3.0442 1.3492-5.9995 1.0312-6.5-13.44-0.59446-16.094-6.5625-16.094-6.5625l5.5625-7.3125-6-4.6562-4.0625 4.9062-1.2188-5.9688 5.2812-9.25-5.875-3.6562z" fill="#231f20"/>
</g>
<g transform="matrix(2.7649 0 0 -2.7649 466.57 819.71)">
<path d="m0 0h0.937c0.448 0 0.755 0.067 0.918 0.201 0.163 0.133 0.244 0.31 0.244 0.53 0 0.143-0.039 0.269-0.118 0.38-0.078 0.113-0.187 0.196-0.328 0.251-0.138 0.055-0.397 0.083-0.774 0.083h-0.879v-1.445zm-0.772-2.696v4.79h1.644c0.563 0 0.969-0.043 1.222-0.133 0.25-0.088 0.45-0.243 0.602-0.463 0.148-0.22 0.223-0.453 0.223-0.702 0-0.35-0.125-0.654-0.375-0.914-0.249-0.259-0.579-0.404-0.994-0.436 0.169-0.071 0.306-0.156 0.408-0.254 0.192-0.189 0.428-0.504 0.707-0.949l0.584-0.939h-0.943l-0.426 0.755c-0.334 0.594-0.602 0.967-0.806 1.116-0.143 0.11-0.349 0.165-0.619 0.165h-0.455v-2.036h-0.772zm1.952 6.176c-0.626 0-1.234-0.16-1.827-0.481-0.59-0.32-1.055-0.779-1.389-1.374-0.334-0.596-0.5-1.216-0.5-1.861 0-0.64 0.163-1.255 0.492-1.843s0.787-1.045 1.377-1.374c0.589-0.327 1.205-0.492 1.847-0.492 0.64 0 1.256 0.165 1.846 0.492 0.589 0.329 1.047 0.786 1.373 1.374s0.49 1.203 0.49 1.843c0 0.645-0.166 1.265-0.499 1.861-0.332 0.595-0.795 1.054-1.388 1.374-0.594 0.321-1.201 0.481-1.822 0.481zm0 0.737c0.746 0 1.474-0.192 2.187-0.575 0.711-0.384 1.266-0.931 1.664-1.645 0.396-0.714 0.595-1.458 0.595-2.233 0-0.766-0.195-1.503-0.587-2.21-0.39-0.708-0.939-1.259-1.645-1.65-0.706-0.392-1.444-0.586-2.214-0.586-0.771 0-1.509 0.194-2.216 0.586-0.705 0.391-1.255 0.942-1.647 1.65-0.394 0.707-0.59 1.444-0.59 2.21 0 0.775 0.2 1.519 0.598 2.233 0.4 0.714 0.955 1.261 1.667 1.645 0.71 0.383 1.44 0.575 2.188 0.575" fill="#fff"/>
</g>
</g>
</svg>
