<svg xmlns="http://www.w3.org/2000/svg" width="225.037" height="300" viewBox="0 0 59.541 79.375" xmlns:v="https://vecta.io/nano"><path d="M29.74 78.8c-8.3.01-16.522-1.58-24.217-4.69L4.99 73.9l.793-1.962c-1.358-.546-2.677-1.122-3.92-1.72l-.815-.39 5.224-4.232v-6.662l.82.394a51.66 51.66 0 0 0 5.088 2.117l.574.202-.757 1.774a52.54 52.54 0 0 0 35.473.006l-.756-1.774.573-.205c1.73-.613 3.43-1.318 5.085-2.112l.82-.394v6.653l5.276 4.312-.812.39c-1.247.6-2.566 1.175-3.93 1.718l.762 1.884-.53.214a64.45 64.45 0 0 1-24.22 4.689" fill="#3b4560"/><path d="M6.86 59.844a52.49 52.49 0 0 0 5.146 2.139l-.756 1.768c11.934 4.436 25.065 4.438 37 .006l-.754-1.768a52.62 52.62 0 0 0 5.14-2.137v6.016l4.79 3.916c-1.458.7-2.937 1.333-4.428 1.912l.762 1.887c-15.403 6.2-32.607 6.2-48 0l.795-1.965a64.11 64.11 0 0 1-4.423-1.915L6.86 65.87v-6.025m-1.144-1.818v7.296L0 69.953l1.63.78a62.95 62.95 0 0 0 3.425 1.519l-.363.904-.43 1.06 1.06.426a65.24 65.24 0 0 0 12.035 3.55c8.2 1.574 16.606 1.574 24.796 0a65.27 65.27 0 0 0 12.032-3.55l1.06-.426-.43-1.06-.33-.823c1.183-.485 2.333-.992 3.43-1.52l1.62-.78-5.764-4.71v-7.288l-1.638.784a52.05 52.05 0 0 1-5.027 2.089l-1.147.407.477 1.12.28.65c-10.996 3.795-22.948 3.794-33.944-.003l.277-.654.48-1.12-1.147-.407a52.5 52.5 0 0 1-5.035-2.092z" fill="#bea376"/><path d="M18.71 59.403l-.388-.313-3.068-2.53a33.73 33.73 0 0 1-7.756-8.153l-.044-.073-.003-.003c-.846-1.433-1.317-3.056-1.372-4.72a26.38 26.38 0 0 1-.052-1.147V16.917l-1.776-4.104.815-.33a65.21 65.21 0 0 1 13.024-3.736c3.853-.68 7.76-1.022 11.672-1.022h.86v.005A67.18 67.18 0 0 1 41.44 8.756c4.455.8 8.816 2.042 13.01 3.738l.81.327-1.74 4.096v25.547c.06 2.05-.438 4.08-1.444 5.867v.003l-.044.073a33.15 33.15 0 0 1-7.388 7.848c-1.06.95-2.203 1.868-3.414 2.838l-.385.3-11.082 7.925z" fill="#fff"/><path d="M29.768 8.586h0a66.26 66.26 0 0 1 11.528 1.017c4.396.78 8.7 2.016 12.84 3.688l-1.466 3.453V42.45a10.28 10.28 0 0 1-1.325 5.445l-.017.03-.014.02a32.04 32.04 0 0 1-7.224 7.659c-1.147 1.03-2.39 2.017-3.758 3.115l-10.563 7.554-10.533-7.554c-1.23-1-2.364-1.887-3.42-2.813-2.956-2.212-5.52-4.903-7.587-7.962l-.014-.02-.02-.03a9.13 9.13 0 0 1-1.253-4.342 19.97 19.97 0 0 1-.049-1.103V16.744l-1.5-3.464c4.144-1.672 8.452-2.906 12.852-3.683a65.93 65.93 0 0 1 11.523-1.012m0-1.715a68 68 0 0 0-11.822 1.037A66.13 66.13 0 0 0 4.751 11.69l-1.63.66 1.34 3.098.712 1.652v25.386c.008.377.027.765.06 1.19a10.75 10.75 0 0 0 1.458 5.049l.003.008.09.138c2.154 3.206 4.832 6.027 7.923 8.344.97.85 1.998 1.674 3.084 2.547l.374.3.037.03.036.03 11.534 8.27.998-.712 10.64-7.617.366-.293c1.217-.975 2.367-1.898 3.44-2.86a33.86 33.86 0 0 0 7.552-8.036l.09-.138.003-.008a12.16 12.16 0 0 0 1.53-6.238l.003-.02V17.096L56.4 12.36l-1.618-.657a66.06 66.06 0 0 0-13.183-3.785c-3.34-.592-6.72-.934-10.112-1.022v-.02z" fill="#bea376"/><path d="M52.658 16.744l1.466-3.453c-4.14-1.672-8.443-2.908-12.84-3.688v48.212l.978-.717a38.17 38.17 0 0 0 9.04-9.15l.014-.02.02-.03a10.28 10.28 0 0 0 1.322-5.445" fill="#ce4b43"/><path d="M29.768 8.586v57.662l11.525-8.435v-48.2a66.26 66.26 0 0 0-11.525-1.017M6.878 42.45a10.24 10.24 0 0 0 1.305 5.445l.017.03.014.02a38.29 38.29 0 0 0 9.042 9.153l.975.715V9.597a64.18 64.18 0 0 0-12.85 3.683l1.496 3.464z" fill="#3c4661"/><path d="M18.24 9.597v48.218l11.528 8.433V8.586c-3.865 0-7.722.34-11.528 1.012" fill="#ce4b43"/><path d="M13.75 34.247c-2.45 5.792-5.013 12.506-2.156 16.918a31.99 31.99 0 0 0 7.64 7.557l10.536 7.554 10.558-7.554a31.87 31.87 0 0 0 7.623-7.535l.027-.042c2.857-4.412.297-11.104-2.153-16.896l-2.13-6.3c3.017-2.036 4.018-6.015 2.325-9.236a5.73 5.73 0 0 0-1.477-1.782c-.203-.16-.416-.302-.64-.43-.388-.22-.743-.4-1.08-.554l-.496-.21c-.312-.125-.63-.233-.953-.324-.158-.052-.316-.084-.477-.128a13.79 13.79 0 0 0-.74-.167c-.083-.02-.166-.03-.255-.052-.32-.063-.626-.138-.92-.224-1.9-.424-3.438-1.818-4.046-3.67-.43.663-.7 1.416-.787 2.2a4.06 4.06 0 0 0 1.613 3.19c.136.114.28.22.418.327.554.443 1.125.87 1.7 1.283l.435.313c.733.498 1.183 1.317 1.21 2.203.01.492-.12.977-.374 1.4-.66-.43-1.343-.823-2.048-1.175-1.542-.76-3.148-1.38-4.8-1.857-.87-.258-1.607-.488-2.536-.692-.928.205-1.657.435-2.527.692a29.11 29.11 0 0 0-4.802 1.857c-.704.354-1.387.746-2.048 1.175a2.64 2.64 0 0 1-.374-1.399 2.76 2.76 0 0 1 1.214-2.203l.432-.313q.87-.62 1.7-1.283c.138-.108.285-.214.418-.327a4.06 4.06 0 0 0 1.612-3.19 5.05 5.05 0 0 0-.784-2.2c-.61 1.85-2.147 3.244-4.048 3.67-.29.084-.6.16-.92.224-.09.02-.17.03-.255.052-.252.052-.502.106-.74.167l-.477.128a9.42 9.42 0 0 0-.95.325 8.51 8.51 0 0 0-.499.211c-.338.155-.693.335-1.08.554a5.02 5.02 0 0 0-.638.429c-.61.487-1.113 1.094-1.48 1.782-1.693 3.22-.692 7.2 2.325 9.236z" fill="#3c4661"/><g fill="#fff"><path d="M29.768 44.458c2.702 0 4.894 1.485 4.894 3.317l-1.688 2.505-1.67-3.215V46.3h-3.068v.756l-1.67 3.215-1.7-2.505c0-1.832 2.192-3.317 4.894-3.317m-3.52-9.066l-3.733.66-2.02-1.657z"/><path d="M33.232 35.383l3.733.66 2.02-1.657zM46.8 22.6c.115-1.353-.16-2.7-.796-3.9a5.74 5.74 0 0 0-1.48-1.782c-.2-.16-.414-.303-.637-.43l-1.08-.554-.5-.2a10.11 10.11 0 0 0-.95-.327l-.477-.128-.74-.163-.255-.052-.92-.224a5.54 5.54 0 0 1-4.05-3.67c-.43.66-.698 1.414-.784 2.198a4.07 4.07 0 0 0 1.61 3.192l.42.327q.83.665 1.7 1.283l.432.313a2.76 2.76 0 0 1 1.214 2.203c.008.492-.122.977-.374 1.4a20.97 20.97 0 0 0-2.048-1.175 29.36 29.36 0 0 0-4.802-1.859l-2.533-.7-2.528.7a29.26 29.26 0 0 0-4.802 1.86 20.67 20.67 0 0 0-2.048 1.175 2.61 2.61 0 0 1-.374-1.4c.027-.886.477-1.705 1.2-2.203l.435-.313 1.7-1.283.418-.327c1.002-.758 1.598-1.936 1.613-3.192a5.1 5.1 0 0 0-.787-2.198 5.53 5.53 0 0 1-4.046 3.67l-.92.224-.255.052-.74.163-.477.128-.953.327-.496.2-1.08.554a5.26 5.26 0 0 0-.64.429 5.73 5.73 0 0 0-1.477 1.782 7.13 7.13 0 0 0 2.325 9.233l-2.1 6.313 3.594-3.525 10.2 2.832.238 4.162-6.47 1.194-.097-.496-3.026-3.555-1.025 2.004 5.512 7.596.047.24a9.68 9.68 0 0 1 5.612-2.915l-.407-1.55h3.713l-.407 1.55c2.115.23 4.1 1.164 5.612 2.652l.047.286 5.512-7.86-1.028-2.004-3.024 3.555-.096.496-6.47-1.194.236-4.162 10.192-2.832 3.625 3.525-2.13-6.313c1.803-1.2 2.954-3.164 3.12-5.323"/></g><path d="M38.43 27.54a1.13 1.13 0 0 1 1.903-.876 1.13 1.13 0 0 1-.778 1.945 1.1 1.1 0 0 1-1.125-1.07m-9.777 2.463a1.13 1.13 0 0 1 1.903-.876 1.13 1.13 0 0 1-.778 1.945 1.1 1.1 0 0 1-1.125-1.07m-9.776-2.464a1.13 1.13 0 0 1 1.902-.877 1.13 1.13 0 0 1-.775 1.946 1.1 1.1 0 0 1-1.128-1.07" fill="#3c4661"/><path d="M29.768 78.516a64.16 64.16 0 0 1-24.112-4.669L5.4 73.74l4.387-10.86.266.106c6.267 2.532 12.964 3.828 19.722 3.82h.003c6.76.01 13.457-1.287 19.725-3.82l.266-.106 4.387 10.86-.266.106a64.16 64.16 0 0 1-24.112 4.669" fill="#3b4560"/><g fill="#bea376"><path d="M49.598 63.255l4.17 10.328c-15.403 6.196-32.605 6.196-48.007 0l4.17-10.328c12.727 5.117 26.94 5.117 39.666 0m.316-.746l-.53.214a52.55 52.55 0 0 1-39.237 0l-.532-.214L5.23 73.37l-.216.532.532.214a64.49 64.49 0 0 0 11.927 3.517 65.01 65.01 0 0 0 24.58 0 64.59 64.59 0 0 0 11.929-3.517l.53-.214-.213-.532-4.173-10.33zM1.724 9.315a.44.44 0 0 1 .205-.621.43.43 0 0 1 .579.197c.035.08.05.166.044.252a1.17 1.17 0 0 0 .673-.094c.416-.18.6-.48.463-.8-.136-.3-.518-.325-.956-.296-.815.052-1.4.03-1.713-.668-.123-.32-.107-.678.044-.986s.425-.54.754-.638c.712-.305 1.416-.175 1.613.283a.42.42 0 0 1 .032.343c-.038.113-.126.205-.237.25a.43.43 0 0 1-.582-.207c-.03-.06-.04-.13-.036-.197-.2-.017-.38.02-.55.105-.377.16-.515.446-.396.723.133.313.513.316.953.3.787-.052 1.402-.03 1.704.673a1.27 1.27 0 0 1-.856 1.707c-.75.325-1.54.16-1.738-.302M6 7.827l.485-.175-.98-2.716-.723.26.224.615-.635.23-.432-1.197 3.378-1.222.432 1.197-.632.23-.224-.615-.72.258.98 2.718.485-.177.216.6-1.638.593zm2.7-.98l.343-.105.178-3.048-.435.128-.178-.604 2.245-.66.18.604-.438.128 1.8 2.466.344-.105.18.6-1.527.45-.177-.604.46-.136-.416-.584-1.485.435-.03.717.482-.14.178.6-1.527.45zm2.206-1.965l-1.014-1.4-.094 1.726zm2.41.637l.46-.105-.612-2.802-.46.105-.136-.618 1.527-.338c1.46-.318 2.494.252 2.763 1.474.272 1.233-.366 2.236-1.95 2.585l-1.452.318zm1.555-.34a1.41 1.41 0 0 0 1.269-1.779c-.2-.884-.926-1.233-1.93-1.012l-.352.073.615 2.802zm3.103-.64l.466-.073L18 1.626l-.468.073-.094-.626 3.057-.466.177 1.17-.673.105-.083-.55-1.214.185.166 1.095 1.24-.185.1.596-1.24.2.175 1.158 1.222-.185-.083-.55.67-.105.177 1.17-3.06.468zm5.542-.767l.5-.03L23.98.87l-.515.03-.036-.635L24.55.2l1.397 2.23L27.09.06 28.2 0l.036.632-.515.03.3 2.857.488-.03.036.635-1.696.094-.036-.635.5-.03-.2-2.126-1.067 2.137-.094.005-1.294-2.006.034 2.134.496-.03.036.635-1.682.094zm5.53-.266l.357.008L30.486.655 30.03.647l.012-.63 2.342.042-.01.63-.454-.01.976 2.896.357.008-.014.635-1.6-.03.014-.63.477.01-.22-.685-1.55-.03-.244.673.502.01-.012.63-1.593-.03zm2.7-1.2L31.2.652l-.613 1.618z"/><path d="M33.84 3.64l.468.042.238-2.857-.47-.042.052-.635 1.724.145-.052.632-.543-.042-.238 2.863 1.133.094.05-.582.682.063-.1 1.208-2.996-.247zm3.715.3l.466.073.42-2.835-.468-.073.094-.63 1.68.25-.094.626-.5-.073-.158 1.084 1.9.28.16-1.083-.5-.073.1-.63 1.68.25-.1.626-.468-.063-.418 2.835.466.073-.1.63-1.68-.25.1-.63.5.073.17-1.14-1.9-.28-.17 1.136.5.073-.094.626-1.677-.247zm4.96.78l.463.105.604-2.802-.46-.105.136-.62 3.015.654-.25 1.156-.662-.145.116-.54-1.2-.26-.233 1.08 1.222.266-.127.588-1.222-.263-.25 1.144 1.205.26.116-.54.665.145-.252 1.153-3.02-.654zm3.838.85l.452.13.78-2.76-.452-.128.172-.613 1.544.435c.912.258 1.455.837 1.228 1.65a1.2 1.2 0 0 1-1.056.87l.305 1.255.454.128-.17.613-.92-.26-.374-1.738-.244-.052a2.88 2.88 0 0 1-.327-.105l-.252.895.496.14-.172.6-1.632-.46zm3.007-1.463c.116-.418-.172-.715-.72-.87l-.37-.105-.36 1.275a3.5 3.5 0 0 0 .385.12c.512.147.948-.005 1.067-.424m1.012 2.63l.443.155.948-2.7-.446-.155.2-.6 1.563.546c.956.335 1.272.94 1.067 1.527a.95.95 0 0 1-.973.64.97.97 0 0 1 .46 1.186c-.227.648-.904.912-1.854.58l-1.63-.568zm1.635.582c.463.163.84.084.97-.293.127-.363-.1-.662-.593-.84l-.513-.18-.393 1.13zm.5-1.688c.468.163.806.042.923-.296.117-.332-.1-.613-.568-.778l-.438-.153-.374 1.067zm1.673 2.458l.435.183 1.106-2.65-.435-.18.244-.584 2.85 1.2-.454 1.092-.626-.263.213-.5-1.13-.473-.427 1.022 1.153.482-.233.557-1.153-.482-.452 1.08 1.136.473.213-.5.626.26-.454 1.092-2.857-1.192zM10.647 70.76l.513.163.62-1.918-.507-.042.022-.455.895.052.247.084-.784 2.436.504.163-.14.44-1.5-.488zm2.61.43c.08.017.15.067.194.138s.054.157.03.236a.49.49 0 0 1-.039.094.78.78 0 0 0 .238.105c.5.07.962-.275 1.04-.773-.24.13-.518.163-.78.094a1 1 0 0 1-.787-1.203 1.05 1.05 0 0 1 1.352-.665 1.13 1.13 0 0 1 .704.529c.176.372.194.8.05 1.186-.28 1.017-.998 1.455-1.696 1.264a1.19 1.19 0 0 1-.6-.357.46.46 0 0 1-.1-.416c.014-.085.065-.16.14-.205s.164-.054.246-.026m1.602-.834c.04-.148.01-.305-.078-.43-.095-.142-.24-.244-.405-.286-.143-.047-.298-.034-.432.034a.56.56 0 0 0-.28.33c-.083.305.108.57.474.673.138.054.292.05.428-.01s.24-.173.293-.312"/></g><path d="M17.298 71.4a2.88 2.88 0 0 1 1.198-1.92c.644-.45 1.444-.618 2.215-.465 1.294.22 2.04 1.04 1.93 1.707-.013.176-.098.34-.236.45s-.315.16-.5.133a.6.6 0 0 1-.43-.233.59.59 0 0 1-.11-.476.71.71 0 0 1 .108-.278c-.262-.238-.595-.384-.947-.418a1.92 1.92 0 0 0-2.247 1.66c-.114.526-.005 1.076.3 1.52s.782.74 1.315.818a2.15 2.15 0 0 0 1.721-.466l.524.768a3.04 3.04 0 0 1-2.397.584c-.8-.085-1.5-.502-1.977-1.146a2.82 2.82 0 0 1-.476-2.235m5.967 2.937l.488.03 1.635-3.833-.618-.03.05-.856 3.187.185-.05.857-.618-.03 1.178 3.996.488.03-.05.867-2.167-.128.05-.856.65.042-.263-.945-2.1-.12-.37.906.684.042-.05.854-2.167-.125zm3.74-1.5l-.66-2.264-.917 2.173zm3.077 1.812l.643-.02-.158-3.9-.643.03-.036-.867 4.2-.17.066 1.613-.928.03-.028-.754-1.674.063.06 1.5 1.707-.073.034.823-1.707.063.066 1.593 1.68-.063-.03-.754.926-.03.064 1.6-4.218.17zm6.734-3.482l.435 2.996.698-.105.125.856-2.267.332-.125-.86.635-.094-.563-3.87-.637.094-.125-.856 1.452-.214 3.262 3.106-.385-2.65-.696.105-.127-.856 2.245-.327.122.86-.6.084.7 4.74-.515.094z" fill="#fff"/><path d="M43.873 72.123l.587-.152-.568-2.197-.504.27-.252-.446.88-.488.285-.073.72 2.8.58-.15.13.505-1.73.45zm4.074-1.583a.48.48 0 0 0-.474-.344 1.61 1.61 0 0 0-.554.084l-.208.063-.155-.496.222-.073c.18-.05.348-.14.488-.266s.192-.32.133-.496c-.086-.27-.413-.302-.706-.2-.16.04-.306.127-.418.25.057.044.1.104.124.172.054.187-.05.382-.236.44a.39.39 0 0 1-.474-.289.57.57 0 0 1 .02-.335 1.24 1.24 0 0 1 .857-.715c.643-.202 1.25.003 1.402.5.08.268.014.558-.175.765a.88.88 0 0 1-.25.202 1.49 1.49 0 0 1 .327.031.83.83 0 0 1 .662.571c.18.568-.28 1.1-.953 1.3a1.43 1.43 0 0 1-1.214-.11.57.57 0 0 1-.219-.288.37.37 0 0 1 .01-.294c.044-.094.122-.164.218-.197.1-.03.186-.024.27.02s.146.118.173.208a.38.38 0 0 1 0 .222 1.09 1.09 0 0 0 .62-.03c.338-.106.604-.382.5-.682" fill="#bea376"/></svg>