<svg xmlns="http://www.w3.org/2000/svg" width="764.334" height="1026.013" viewBox="0 0 716.562 961.889" xmlns:v="https://vecta.io/nano"><path d="M358.28 960.87c-21.318-27.497-48.58-42.618-84.64-54.057-20.138-6.4-43.02-11.63-64.206-20.8-22.656-9.804-43.374-24.096-63.856-38.503-21.787-15.324-43.307-30.776-63.28-51.316C37.576 750.197.625 678.688.625 600.698V81.405c52.666 26.695 118.93 37.602 181.437 27.597 29.824-4.773 58.79-14.308 82.69-27.345C306.2 59.042 332.393 25.883 358.28.87c25.888 25.014 52.08 58.173 93.53 80.788 23.898 13.038 52.865 22.572 82.69 27.345 62.507 10.005 128.77-.903 181.438-27.597v519.294c0 78-36.95 149.5-81.676 195.496-19.97 20.54-41.49 35.993-63.28 51.316-20.483 14.406-41.2 28.7-63.856 38.502-21.186 9.168-44.07 14.41-64.206 20.8-36.06 11.44-63.32 26.56-84.64 54.057z" stroke="#000" stroke-width="1.25" stroke-miterlimit="10"/><path d="M545.947 847.852v-482.58h78.926V785.8a267.17 267.17 0 0 1-15 14.356c-8.18 7.252-16.63 13.935-25.312 20.398l-13.182 9.57-13.444 9.475-12 8.253zm-150.28 63.468V365.273h78.926V882.87l-29.86 8.763c-5 1.504-9.925 3.08-14.713 4.745a270.7 270.7 0 0 0-13.994 5.29c-7.072 2.9-13.86 6.1-20.36 9.654zm245.308-585.282l-11.06-33.692 28.625-20.93-35.46.107-11.06-33.692-10.855 33.76-35.46.107 28.75 20.756-10.856 33.76 28.626-20.93 28.75 20.756zm-565.388 0l11.06-33.692-28.625-20.93 35.46.107 11.06-33.692 10.855 33.76 35.46.107-28.75 20.756 10.856 33.76-28.626-20.93-28.75 20.756zm463.85.057l-11.06-33.692 28.625-20.93-35.46.107-11.06-33.692-10.855 33.76-35.46.107 28.75 20.756-10.855 33.76 28.625-20.93 28.75 20.756zm-101.535.055l-11.06-33.692 28.626-20.93-35.46.107-11.06-33.692-10.856 33.76-35.46.107 28.753 20.756-10.856 33.76 28.625-20.93 28.753 20.756zm-101.536.057l-11.06-33.692 28.625-20.93-35.46.107L307.4 238l-10.856 33.76-35.46.107 28.753 20.756L279 326.38l28.625-20.93 28.753 20.756zm-101.537.056l-11.06-33.692 28.625-20.93-35.46.107-11.06-33.692-10.856 33.76-35.46.107 28.75 20.756-10.856 33.76 28.626-20.93 28.75 20.756zm355.47-81.42l-11.06-33.692 28.626-20.93-35.46.107-11.06-33.692-10.856 33.76-35.46.107 28.75 20.756-10.855 33.76 28.625-20.93 28.753 20.756zm-101.527.057l-11.06-33.692 28.625-20.93-35.46.107-11.06-33.692-10.856 33.76-35.46.107 28.753 20.756-10.856 33.76 28.625-20.93 28.753 20.756zm-101.536.056l-11.06-33.7 28.625-20.93-35.46.107-11.06-33.692-10.856 33.76-35.46.107 28.753 20.756-10.856 33.76 28.626-20.93 28.75 20.756zm-101.537.056l-11.06-33.7 28.625-20.93-35.46.107-11.06-33.692-10.855 33.76-35.46.107 28.75 20.756-10.856 33.76 28.626-20.93 28.75 20.756zm-101.535.056l-11.06-33.7 28.625-20.93-35.46.107-11.06-33.692-10.855 33.76-35.46.107 28.75 20.758-10.855 33.758 28.625-20.93 28.75 20.756zm-13.55 602.784v-482.58H91.688V785.8a267.17 267.17 0 0 0 15 14.356c8.18 7.252 16.63 13.935 25.313 20.398l13.182 9.57 13.444 9.475 12 8.253zm150.28 63.468V365.273H241.97V882.87l29.86 8.763c5 1.504 9.925 3.08 14.713 4.745a270.74 270.74 0 0 1 13.994 5.29c7.072 2.9 13.86 6.1 20.36 9.654z" fill="#ffe600" stroke="#000" stroke-width="1.25" stroke-miterlimit="10"/></svg>