<?xml version="1.0" encoding="UTF-8" standalone="no"?>
<!-- Created with Inkscape (http://www.inkscape.org/) -->

<svg
   xmlns:dc="http://purl.org/dc/elements/1.1/"
   xmlns:cc="http://creativecommons.org/ns#"
   xmlns:rdf="http://www.w3.org/1999/02/22-rdf-syntax-ns#"
   xmlns:svg="http://www.w3.org/2000/svg"
   xmlns="http://www.w3.org/2000/svg"
   xmlns:sodipodi="http://sodipodi.sourceforge.net/DTD/sodipodi-0.dtd"
   xmlns:inkscape="http://www.inkscape.org/namespaces/inkscape"
   width="167.73807"
   height="167.73775"
   viewBox="0 0 44.380696 44.380614"
   version="1.1"
   id="svg8"
   sodipodi:docname="club america.svg"
   inkscape:export-filename="C:\Users\Karimk\Desktop\corinthians.png"
   inkscape:export-xdpi="96"
   inkscape:export-ydpi="96"
   inkscape:version="0.92.3 (2405546, 2018-03-11)">
  <defs
     id="defs2" />
  <sodipodi:namedview
     id="base"
     pagecolor="#00ffff"
     bordercolor="#666666"
     borderopacity="1.0"
     inkscape:pageopacity="0"
     inkscape:pageshadow="2"
     inkscape:zoom="1.979899"
     inkscape:cx="193.84909"
     inkscape:cy="-24.606646"
     inkscape:document-units="mm"
     inkscape:current-layer="layer1"
     showgrid="false"
     fit-margin-left="0.1"
     fit-margin-top="0.1"
     fit-margin-right="0.1"
     fit-margin-bottom="0.1"
     units="px"
     inkscape:lockguides="true"
     inkscape:window-width="1920"
     inkscape:window-height="1017"
     inkscape:window-x="-8"
     inkscape:window-y="-8"
     inkscape:window-maximized="1" />
  <metadata
     id="metadata5">
    <rdf:RDF>
      <cc:Work
         rdf:about="">
        <dc:format>image/svg+xml</dc:format>
        <dc:type
           rdf:resource="http://purl.org/dc/dcmitype/StillImage" />
        <dc:title></dc:title>
      </cc:Work>
    </rdf:RDF>
  </metadata>
  <g
     inkscape:label="Layer 1"
     inkscape:groupmode="layer"
     id="layer1"
     transform="translate(-35.083963,-66.302302)">
    <g
       id="g1120"
       transform="matrix(0.08483503,0,0,0.08483503,31.675739,58.304707)">
      <path
         inkscape:connector-curvature="0"
         id="path1058"
         style="fill:#ffeb00;fill-rule:evenodd"
         d="m 563.004,355.8427 c 0,144.2883 -116.9706,261.2579 -261.2586,261.2579 -144.2894,0 -261.2588,-116.9696 -261.2588,-261.2579 0,-144.2897 116.9694,-261.2585 261.2588,-261.2585 144.288,0 261.2586,116.9688 261.2586,261.2585 z" />
      <g
         id="Layer1000">
        <path
           inkscape:connector-curvature="0"
           id="path1060"
           style="fill:#003055;fill-rule:evenodd"
           d="m 303.9536,595.2948 c -130.5124,0 -236.692,-106.1796 -236.692,-236.6915 0,-130.5122 106.1796,-236.6929 236.692,-236.6929 130.5134,0 236.6921,106.1807 236.6921,236.6929 0,130.5119 -106.1787,236.6915 -236.6921,236.6915 z m 0,-456.823 v 0 c -121.3806,0 -220.1306,98.7512 -220.1306,220.1315 0,121.379 98.75,220.1301 220.1306,220.1301 121.3813,0 220.1315,-98.7511 220.1315,-220.1301 0,-121.3803 -98.7502,-220.1315 -220.1315,-220.1315 z" />
      </g>
      <g
         id="Layer1001">
        <g
           id="Layer1002">
          <path
             inkscape:connector-curvature="0"
             id="path1063"
             style="fill:#003055;fill-rule:evenodd"
             d="m 189.3662,257.3813 -54.1012,-56.3097 11.9429,-11.4758 54.1012,56.3097 z" />
        </g>
        <g
           id="Layer1003">
          <path
             inkscape:connector-curvature="0"
             id="path1066"
             style="fill:#003055;fill-rule:evenodd"
             d="m 414.3994,257.3813 54.1017,-56.3097 -11.9423,-11.4758 -54.1007,56.3097 z" />
        </g>
      </g>
      <g
         id="Layer1004">
        <g
           id="Layer1005">
          <path
             inkscape:connector-curvature="0"
             id="path1070"
             style="fill:#003055;fill-rule:evenodd"
             d="M 414.3994,456.2365 468.5,512.547 456.5576,524.0197 402.4581,467.7108 Z" />
        </g>
        <g
           id="Layer1006">
          <path
             inkscape:connector-curvature="0"
             id="path1073"
             style="fill:#003055;fill-rule:evenodd"
             d="m 189.3662,456.2365 -54.1018,56.3105 11.943,11.4727 54.1017,-56.3089 z" />
        </g>
      </g>
      <path
         inkscape:connector-curvature="0"
         id="path1077"
         style="fill:#003055;fill-rule:evenodd"
         d="m 437.3447,372.8681 h -16.8494 c -1.1611,44.0195 -12.0665,71.7832 -16.7188,81.6778 -113.8416,35.837 -183.1456,9.455 -200.0902,1.4873 -35.8362,-113.8388 -9.4541,-183.1453 -1.4871,-200.0905 113.8354,-35.8359 183.1399,-9.4553 200.09,-1.4874 12.8446,40.8048 17.6729,75.8523 18.2432,104.8533 2.537,-7.2315 6.459,-15.9355 12.1181,-22.369 0,0 1.6435,2.0721 3.9081,5.5947 -2.0262,-27.9981 -7.8582,-60.5438 -19.8867,-97.5027 l -4.1893,1.3631 2.4383,-4.0478 c -3.2051,-1.9375 -80.2301,-46.9715 -222.146,-0.7861 l 1.3657,4.1973 -4.0493,-2.4472 c -1.9395,3.2088 -46.9738,80.2293 -0.7872,222.1453 l 4.1874,-1.3624 -2.4373,4.0468 c 2.1289,1.288 36.7382,21.543 101.2544,21.543 32.7172,0 73.139,-5.2138 120.8906,-20.755 l -1.3672,-4.2001 4.0527,2.4483 c 1.2393,-2.0509 20.0852,-34.2666 21.46,-94.3087 z" />
      <g
         id="Layer1007">
        <path
           inkscape:connector-curvature="0"
           id="path1079"
           style="fill:#003055;fill-rule:evenodd"
           d="m 224.0453,243.9133 25.3941,5.5216 7.7293,8.2811 3.3122,7.7276 -0.5513,8.2814 -1.2745,7.2159 -1.6078,7.4539 -0.8784,5.5545 0.4399,5.1166 0.1454,3.9452 4.5324,7.7477 1.3144,5.9921 0.877,3.0694 -2.0466,1.3155 -3.2148,0.1466 -1.4624,1.3153 2.4846,1.9003 c 0,0 8.187,5.7011 8.771,13.7404 l -1.1696,2.6297 -0.5859,2.4854 1.3175,2.4854 4.0918,-0.2931 2.3383,-1.0233 -0.1457,-2.9231 -1.4618,-1.9003 -0.7308,-2.4843 0.2923,-3.6541 c 0,0 0.2945,-12.5714 -4.8226,-17.6865 0.8765,-3.8002 2.7768,-3.5079 2.7768,-3.5079 0,0 2.9222,-1.1701 4.0918,3.9461 1.169,5.1163 4.5406,24.9557 4.5406,24.9557 0,0 1.5681,1.0459 1.8915,11.1478 -0.2925,5.4082 3.9458,12.5694 3.9458,12.5694 0,0 3.9447,7.749 23.9712,10.9638 0,0 5.8465,0.4365 6.1396,4.0918 0.292,3.6553 -1.7549,4.3849 -1.7549,4.3849 0,0 -1.4619,1.6073 -2.7774,4.9697 -1.3153,3.3633 -2.9228,3.5079 -2.9228,3.5079 l -3.0694,0.1454 -0.4385,1.6092 0.4385,2.3392 0.5859,2.4843 -1.9003,3.5079 c 0,0 -15.2022,5.5544 -13.5941,11.2546 l 2.3388,2.632 -0.4385,2.4843 -2.9239,1.4621 c 0,0 -6.1376,-1.0216 -4.5303,8.1853 1.6075,9.2072 13.007,20.0237 12.4231,33.3252 -0.5845,13.3008 -7.6003,17.8331 -7.6003,17.8331 0,0 -7.3071,8.4756 -7.8925,19.586 l -0.8779,3.2167 -2.7774,3.7987 c 0,0 -10.377,33.7677 -0.5839,41.0755 0,0 5.116,1.6064 7.4546,-11.255 0.7304,-6.4335 4.9697,-8.625 4.9697,-8.625 l 2.1917,-1.9003 c 0,0 -1.3147,-5.8476 8.4787,-10.3779 9.792,-4.5304 9.4998,-2.632 9.4998,-2.632 0,0 7.8947,-1.8995 19.2951,-20.0245 11.4004,-18.1239 28.3564,-21.1932 28.3564,-21.1932 0,0 11.9843,-10.9619 11.8389,-24.8485 0.1454,-7.8937 -13.7393,-16.8106 -22.2177,-22.5108 -2.7765,-1.4621 0.1463,-4.8223 0.1463,-4.8223 0,0 2.6311,-1.1702 2.1934,-4.2392 -0.4385,-3.0694 -5.8467,-6.4318 -5.8467,-6.4318 0,0 -10.3768,-8.3311 -11.1084,-13.7393 -0.7314,-5.4091 -6.1396,-8.4784 -6.1396,-8.4784 0,0 -10.377,-3.3633 -9.7928,-12.8633 0,-4.8223 8.6238,-6.5761 8.6238,-6.5761 l 3.799,-0.4394 -0.7296,-1.4613 -2.0478,-0.8779 -1.4601,-0.8767 -4.2392,-0.1457 -0.8768,1.4621 c 0,0 -3.217,4.9686 -9.2092,4.9686 -5.9921,0 -7.8925,-13.4462 -7.8925,-13.4462 0,0 -1.6075,-10.2305 2.3389,-14.0312 3.9464,-3.8018 7.162,-10.6719 15.6396,-10.379 8.4787,0.2922 6.7238,6.4318 6.7238,6.4318 h 2.3377 c 0,0 3.0705,-5.7014 5.8467,-4.9697 2.7774,0.7302 3.2159,3.3613 3.2159,3.3613 0,0 0.002,-5.9925 4.8243,-8.4776 2.9228,-1.4621 2.0458,-3.9453 0.8768,-4.6769 -1.169,-0.7313 1.0224,-3.6541 1.0224,-3.6541 0,0 3.3625,-3.0705 1.0236,-6.1399 -2.3388,-3.0682 2.6317,-5.1162 2.6317,-5.1162 0,0 6.5761,-3.5073 7.5997,-6.2839 1.0233,-2.7773 9.6474,-1.0233 9.6474,-1.0233 l 3.8007,-4.3857 2.9217,-5.4082 5.5567,-5.9922 -1.3164,-2.4846 -1.4629,-1.6083 1.6092,-1.7527 -1.7549,-2.048 c 0,0 -9.4995,-3.6533 -9.7926,-7.3078 -0.2928,-3.6541 3.0694,-1.9003 3.0694,-1.9003 l 3.5078,-2.1923 -0.1465,-2.6309 -2.3389,-1.6075 -2.4843,-1.4627 c 0,0 2.0458,-4.9688 -2.7765,-5.9921 -4.8231,-1.0236 -9.7928,3.361 -9.7928,3.361 l -1.463,3.509 -2.7763,2.3389 -3.8009,2.1915 -2.1924,-1.461 -2.3377,-1.7541 -1.0244,-1.0244 h -3.3625 l -0.5828,-2.9228 -1.1701,-1.8992 -1.7547,-2.0469 -1.7529,-1.7541 2.0457,-2.4854 1.3165,-2.4835 0.7296,-3.2167 1.4618,-1.4607 c 0,0 0.8788,-1.463 1.3164,-1.9007 0.4386,-0.4385 2.0469,-3.2156 2.0469,-3.2156 l 2.7763,-1.8995 2.4843,-0.7313 c 0,0 3.6555,-0.2931 4.0929,-0.1466 0.4385,0.1466 5.1163,-0.1465 5.1163,-0.1465 l 2.3388,-2.4843 c 0,0 -0.1454,-1.9003 0.4374,-1.9003 0.5851,0 2.7774,-3.6545 2.7774,-3.6545 l 1.3144,-2.9228 -1.4598,-3.0705 -3.9464,-0.7302 -2.7765,-1.4621 -0.4403,1.755 -0.4385,2.4842 -2.4843,1.1702 -0.4385,-1.9015 -0.8759,-2.4843 c -1.4621,-1.3144 -3.3633,-3.0693 -3.3633,-3.0693 l -0.8759,-1.9004 -1.0236,-2.4845 c 0,0 0.1466,-1.9004 -0.1466,-1.3165 0,0 -3.8015,2.0469 -3.6541,2.4855 0.1474,0.4385 -0.2911,3.0693 -0.2911,3.0693 l -1.9012,1.3164 -7.7462,0.292 -4.3847,-0.292 -3.801,-1.6084 c 0,0 -1.7549,-1.9003 -1.9003,-1.3155 -0.1454,0.5851 -4.2392,0.7305 -4.2392,0.7305 0,0 -5.4074,1.4621 -5.2608,1.9003 0.1454,0.4377 -3.9481,0.1466 -3.9481,0.1466 l -2.4846,-3.5076 -1.1698,-4.3861 -3.3622,-2.9228 -2.7766,-3.2156 -1.6072,-4.0929 -3.801,-2.3389 -4.5303,-0.1466 c 0,0 -4.8226,1.3176 -4.3846,1.463 0.4379,0.1446 -3.8013,0.7296 -3.8013,0.7296 l -4.6769,-0.1445 -3.5081,-2.1935 -4.8229,-3.0693 -5.4085,-4.6778 -3.655,-4.0926 -2.3389,-3.7999 -4.0921,-2.34 -7.8936,0.4386 -4.3852,2.048 -3.9458,1.8995 c 0,0 -4.3864,1.7538 -3.8007,2.0457 0.5853,0.292 -1.0242,3.0694 -0.4385,3.3622 0.5859,0.2931 0.001,2.7774 0.5859,3.2159 0.5834,0.4385 1.4604,3.5079 1.4604,3.5079 l -0.2914,3.6533 -3.6553,1.0244 -3.2153,0.292 -2.615,-0.5851 c 0,0 -2.9389,2.6309 -2.501,2.924 0.4385,0.2919 2.501,2.1914 2.501,2.1914 l 2.761,2.3389 1.6086,2.3389 -1.4618,2.7782 -2.9078,1.3144 -3.5243,1.1699 c 0,0 -4.0918,1.169 -4.0918,1.6075 0,0.4385 -3.9467,2.6308 -3.9467,2.6308 0,0 -0.8765,2.0469 -0.4382,2.4855 0.4382,0.4385 2.4845,1.4618 2.4845,1.4618 l 2.6314,1.1698 c 0,0 0.1469,1.4602 0,1.8995 -0.1476,0.4386 -2.1934,2.3381 -2.1934,2.3381 0,0 -1.9003,3.3621 -1.4618,3.5087 0.4379,0.1465 0.001,2.7774 0.8784,3.2159 0.8759,0.4374 4.2392,3.0682 4.6772,3.3613 0.4379,0.2928 4.9847,1.7558 4.9847,2.0478 0,0.2919 2.2091,2.5829 2.2091,2.5829 z" />
        <path
           inkscape:connector-curvature="0"
           id="path1081"
           style="fill:#003055;fill-rule:evenodd"
           d="m 367.6957,207.8569 c 0.4386,0.1462 4.5301,1.0222 4.8229,1.4618 0.292,0.4385 3.5087,3.3613 3.9453,3.6542 0.4385,0.2931 1.9034,2.4845 2.1934,2.9228 0.292,0.4385 0.5851,4.0929 0.5851,4.0929 l -0.877,4.6777 3.0702,2.3389 2.0449,2.3377 0.2931,2.924 4.5303,0.877 5.1171,0.5848 2.4843,1.3144 4.2384,1.9006 3.2159,1.755 c 0,0 2.6336,2.3377 2.9247,2.7762 0.29,0.4394 2.1915,3.6542 2.1915,3.6542 0,0 -1.6084,3.0693 -1.6084,3.6544 0,0.5851 -5.8467,3.6541 -5.8467,3.6541 l -4.5315,1.4621 -5.2616,-2.1923 -2.1932,-2.7774 -2.922,-1.6083 h -3.9464 l -3.0702,1.7538 -1.4618,2.1934 -0.8762,2.1923 -3.0702,-0.1465 -1.4618,-1.6073 c 0,0 -0.8779,-2.9239 -0.2931,-2.9239 0.5859,0 -0.29,-3.2159 -0.29,-3.2159 l -1.1696,-2.9237 -2.6319,-0.5842 c 0,0 -3.2148,-1.1698 -2.7763,-1.1698 0.4385,0 3.5076,-4.3838 3.5076,-4.3838 l 4.5301,-1.755 1.4618,-3.2156 -1.0222,-3.215 c 0,0 -2.3377,-2.9228 -1.8995,-2.7771 0.4385,0.1454 -1.7546,-2.1935 -1.7546,-2.1935 0,0 -3.2159,-2.1914 -2.7774,-2.1914 0.4385,0 -3.0702,-2.924 -3.0702,-2.924 0,0 -4.5312,-2.1923 -3.801,-2.3388 0.7316,-0.1463 -0.8759,-3.9462 -0.1454,-3.9462 0.7316,0 0.1474,-3.8006 0.7316,-3.6544 0.5839,0.1466 1.4598,-1.6072 2.0458,-1.6072 0.5848,0 4.8242,1.169 4.8242,1.169 z" />
      </g>
      <path
         inkscape:connector-curvature="0"
         id="path1084"
         style="fill:#e62b2f;fill-rule:evenodd;stroke:#003055;stroke-width:6.00010014;stroke-linecap:butt;stroke-linejoin:miter;stroke-dasharray:none"
         d="m 244.3535,403.2079 c -14.0675,15.5461 -34.7683,25.3684 -57.8483,25.3684 -42.3802,0 -76.7353,-33.1192 -76.7353,-73.9746 0,-40.8555 34.3551,-73.9755 76.7353,-73.9755 23.6633,0 44.8237,10.3252 58.8985,26.5567 l -20.6529,20.1189 c -8.4427,-11.0654 -22.045,-18.2461 -37.3867,-18.2461 -25.617,0 -46.3847,20.0206 -46.3847,44.7168 0,24.6963 20.7677,44.7157 46.3847,44.7157 14.8853,0 28.1339,-6.7586 36.6216,-17.2667 z" />
      <path
         inkscape:connector-curvature="0"
         id="path1086"
         style="fill:#e62b2f;fill-rule:evenodd;stroke:#003055;stroke-width:6.00010014;stroke-linecap:butt;stroke-linejoin:miter;stroke-dasharray:none"
         d="M 493.9974,431.0594 C 493.4443,301.8801 430.5118,275.3821 430.5118,275.3821 365.3705,335.0029 371.4417,431.6113 371.4417,431.6113 h 33.1229 v -20.4247 h 57.9659 v 19.8728 z m -76.4377,-58.1913 v 0 c 0,0 4.3192,-22.7412 15.918,-35.9285 0,0 13.1913,16.5994 16.374,35.9285 z" />
      <g
         id="Layer1008" />
    </g>
  </g>
</svg>
