<svg xmlns="http://www.w3.org/2000/svg" width="279.987" height="357.159" viewBox="0 0 443.701 565.996" xmlns:v="https://vecta.io/nano"><path fill="#182544" d="M431.7 31.307c-5.47-8.396-13.513-16.395-24.767-22.118C395.683 3.447 381.365-.006 363.43 0H80.272C62.334-.006 48.016 3.448 36.766 9.2 19.833 17.8 10.36 31.456 5.492 43.995.577 56.576.012 68.165 0 74.247V380.39c.008 2.347.292 7.023 1.202 13.835 2.79 20.25 11 57.99 35.954 87.486 19.304 22.732 41.846 35.628 62.93 43.613 21.074 7.988 40.855 11.267 54.768 14.823 13.766 3.488 29.804 9.565 42.255 14.755l15.37 6.688 4.41 2.034 1.54.73 3.414 1.644 3.415-1.644c.001 0 .52-.25 1.54-.728 7.09-3.346 37.877-17.373 62.046-23.477 13.92-3.557 33.702-6.836 54.777-14.824 21.084-7.985 43.624-20.88 62.927-43.613 16.663-19.64 25.8-43.02 30.935-62.36 2.56-9.68 4.105-18.363 5.017-25.126.9-6.812 1.194-11.49 1.203-13.835V74.243c-.042-8.084-1.062-26.076-12.003-42.936z"/><path fill="#fff" d="M427.95 380.388c.01 1.093-.224 5.582-1.06 11.73-2.452 18.63-10.567 53.915-32.344 79.4-17.303 20.332-37.146 31.72-56.514 39.088-19.377 7.366-38.11 10.508-53.063 14.284-24.632 6.282-53.394 19.173-63.125 23.68-9.733-4.508-38.49-17.4-63.113-23.68-14.947-3.775-33.68-6.918-53.055-14.284-19.368-7.368-39.213-18.757-56.517-39.088-14.5-17-22.993-38.3-27.7-56.19-2.365-8.936-3.8-17.004-4.634-23.2-.837-6.15-1.07-10.637-1.062-11.73V74.246c-.04-6.432 1.06-21.624 9.435-34.32 4.188-6.384 10.04-12.255 18.737-16.708 8.704-4.434 20.396-7.464 36.35-7.47H363.43c15.952.006 27.644 3.034 36.346 7.468 12.996 6.665 19.82 16.576 23.767 26.52 3.9 9.9 4.42 19.7 4.407 24.503v306.147z"/><g fill="#182544"><path d="M59.292 232.668l2.934-6.366c3.572 1.478 6.108 3.5 7.603 6.104 1.504 2.588 2.024 5.706 1.565 9.344-.564 4.503-2.558 8-6 10.52s-7.827 3.437-13.16 2.768c-5.64-.708-9.842-2.715-12.6-6.02s-3.84-7.324-3.24-12.076c.52-4.145 2.164-7.363 4.94-9.646 1.648-1.36 3.87-2.256 6.68-2.685l.77 6.983c-1.806.18-3.3.844-4.478 1.98-1.17 1.146-1.88 2.632-2.103 4.45-.323 2.514.333 4.66 1.933 6.453 1.613 1.793 4.434 2.938 8.474 3.437 4.3.55 7.433.153 9.444-1.154 2.016-1.316 3.17-3.205 3.485-5.675.232-1.82-.153-3.458-1.146-4.906-.992-1.46-2.697-2.624-5.1-3.5m3.265-20.56l.468-1.316c.525-1.496 1.036-2.536 1.52-3.144.48-.6 1.163-1.093 2.033-1.478s2.855-.966 5.946-1.75l8.675-2.217 2.76-7.774-7.673 1.7c-3.056.66-5.238 1.28-6.545 1.845-1.307.573-2.615 1.412-3.93 2.523.6-2.973.346-5.443-.726-7.42-1.067-1.98-2.812-3.397-5.23-4.254-1.902-.674-3.765-.805-5.57-.394-1.8.4-3.28 1.298-4.416 2.65-1.128 1.36-2.3 3.75-3.528 7.197l-4.853 13.685 32.2 11.416 2.3-6.5-13.44-4.77m-11.517-9.8l1.792-4.7c.556-.993 1.264-1.657 2.13-1.998.88-.34 1.854-.324 2.938.06.966.34 1.692.853 2.186 1.517.48.67.726 1.438.717 2.3-.017.87-.573 2.864-1.683 5.98l-1.7 4.8-8.176-2.903 1.798-5.068zm48.104-32.205l-13.602 22.14-29.1-17.892 13.262-21.577 4.927 3.026-9.654 15.705 6.458 3.957 8.98-14.612 4.906 3.017-9 14.6 7.922 4.87 9.995-16.26 4.906 3.013m11.276-12.813l-5.338 5.238-29.758-18.652 5.033-4.954 20.12 13.14-12-21.122 5.854-5.75 20.992 12.833-12.986-20.707 4.963-4.862 18.027 30.186-5.22 5.124-22.754-13.45 13.056 22.976m44.944-33.758l-22.3 13.37-17.577-29.303L137.2 94.582l2.973 4.95-15.806 9.484 3.896 6.502 14.713-8.828 2.964 4.932-14.713 8.827 4.784 7.97 16.37-9.816 2.964 4.937m16.458-42.022l-4.398 36.4 7.083-1.82.805-8.22 13.217-3.393 4.818 6.777 7.27-1.862-21.73-29.7-7.066 1.82m5.435 6.83l7.7 11.114-9.024 2.317 1.325-13.43zm49.565 20.03l-24.017 1.298-1.836-33.832 6.886-.376 1.53 28.092 17.12-.93.315 5.75m29.13 3.624l-25.752-3.437L234.7 74.7l25.105 3.358-.76 5.732-18.276-2.444-1 7.503 17.004 2.274-.76 5.706-17.004-2.278-1.237 9.225 18.923 2.527-.76 5.702m8.575 2.633l-7.818-2.693 16.842-13.065-4.7-18.888 7.63 2.623 2.908 12.6 9.92-8.202 7.56 2.606-15.448 12.233 5.32 20.414-7.86-2.715-3.323-13.624-11.03 8.7m53.445-13.527l-29.443 21.857 6.208 3.896 6.506-5.072 11.56 7.263-1.592 8.16 6.357 3.983 6.58-36.202-6.177-3.884m-1.216 8.65l-2.76 13.244-7.9-4.962 10.66-8.282zm6.686 37.39l-4.582-4.477 23.864-24.454 4.8 4.692-5.93 26.093 15.937-16.32 4.587 4.468-23.865 24.454-4.953-4.836L339 131.196l-15.565 15.945m25.235 29.076c1.403 2.125 2.737 3.682 3.983 4.674 1.675 1.333 3.332 2.177 4.962 2.527 2.156.463 4.503.358 7.057-.306 2.077-.546 4.28-1.6 6.624-3.16 2.658-1.78 4.7-3.58 6.1-5.4 1.395-1.836 2.335-3.76 2.794-5.793a11.37 11.37 0 0 0-.245-6.025c-.464-1.487-1.487-3.4-3.06-5.776l-7-10.485-28.433 18.954 7.2 10.8m24.83-13.34c.48 1.224.625 2.418.428 3.555-.188 1.137-.752 2.3-1.666 3.454-.914 1.185-2.47 2.5-4.674 3.96-2.195 1.464-4.057 2.43-5.587 2.9s-2.785.573-3.743.333c-.975-.25-1.88-.752-2.737-1.53-.656-.595-1.517-1.683-2.58-3.288l-2.868-4.3 18.832-12.553 1.718 2.575c1.57 2.34 2.52 3.97 2.877 4.892zm1.223 30.768l.512 1.3c.6 1.464.896 2.593.922 3.367s-.153 1.583-.555 2.453c-.402.857-1.513 2.606-3.332 5.23l-5.076 7.367 3.043 7.673 4.656-6.33c1.863-2.514 3.1-4.412 3.708-5.693.62-1.3 1.05-2.785 1.307-4.495 1.504 2.632 3.314 4.333 5.426 5.12s4.355.708 6.733-.232c1.885-.743 3.367-1.87 4.46-3.375 1.093-1.495 1.622-3.135 1.578-4.897-.035-1.766-.726-4.346-2.077-7.74l-5.347-13.5-31.76 12.587 2.54 6.415 13.262-5.247m15.115-.2l1.75 4.73c.232 1.1.145 2.077-.297 2.912-.428.822-1.18 1.456-2.247 1.88-.95.376-1.836.472-2.64.293a3.8 3.8 0 0 1-2.059-1.272c-.555-.66-1.452-2.522-2.667-5.605l-1.88-4.744 8.058-3.187 1.984 4.993zm16.6 37.895l-35.682-8.43 1.023 7.254 8.076 1.714 1.906 13.52-7.27 4.04 1.04 7.42 31.93-18.302-1.024-7.214m-7.384 4.64l-11.9 6.427-1.298-9.23 13.2 2.803zM55.798 345.862l-3.26-6.074 30.098-16.164 11.084 20.633L88.625 347l-7.817-14.56-7.127 3.83 6.75 12.566-5.094 2.737-6.747-12.57-12.793 6.87"/><path d="M73.698 368.103c-.485 4.29.888 8.4 4.12 12.312 3.196 3.878 6.94 5.98 11.254 6.314 4.315.328 8.596-1.264 12.85-4.766 4.298-3.546 6.68-7.468 7.175-11.783.48-4.315-.87-8.425-4.075-12.313-1.766-2.142-3.68-3.75-5.723-4.818-1.54-.805-3.266-1.3-5.186-1.452a15.99 15.99 0 0 0-5.64.529c-2.48.69-5.067 2.15-7.756 4.36-4.197 3.468-6.537 7.338-7.018 11.618m20.19-9.868c2.606.096 4.818 1.246 6.628 3.445 1.806 2.186 2.514 4.56 2.12 7.11s-2.103 5.08-5.124 7.568c-3.06 2.514-5.907 3.725-8.557 3.625s-4.854-1.207-6.602-3.336-2.427-4.508-2.024-7.158c.415-2.65 2.107-5.203 5.09-7.656 3.035-2.504 5.855-3.706 8.47-3.597z"/><path d="M99.862 397.292c.438 4.3 2.65 8.006 6.637 11.15 3.948 3.1 8.058 4.368 12.338 3.778 4.3-.6 8.128-3.043 11.552-7.376 3.437-4.373 4.94-8.723 4.503-13.038-.44-4.324-2.632-8.05-6.6-11.167-2.186-1.718-4.4-2.886-6.62-3.502-1.675-.455-3.467-.573-5.374-.3-1.915.258-3.717.822-5.4 1.7-2.282 1.207-4.495 3.18-6.65 5.907-3.365 4.273-4.834 8.562-4.397 12.85m17.633-13.943c2.576-.446 4.976.2 7.214 1.963 2.23 1.762 3.424 3.93 3.58 6.5s-.984 5.4-3.4 8.47c-2.444 3.118-4.98 4.9-7.594 5.365-2.606.468-4.993-.153-7.153-1.854-2.155-1.7-3.323-3.896-3.493-6.563-.158-2.676.95-5.535 3.35-8.58 2.427-3.08 4.936-4.852 7.507-5.3zm22.636 45.605l-6.134-3.152 12.968-25.258-9.02-4.63 2.64-5.142 24.153 12.413-2.64 5.137-8.994-4.616-12.973 25.25m40.588-.43c.827.564 1.373 1.255 1.666 2.077.28.822.297 1.727.022 2.7-.324 1.167-.896 2.016-1.705 2.536-.822.53-1.745.744-2.785.656-.678-.048-2.217-.407-4.608-1.067l-6.152-1.7 2.444-8.815 5.365 1.5c3.016.83 4.94 1.53 5.753 2.103m-10.537 12.015l8.067 1.998c1.828.293 3.458.188 4.888-.324 1.443-.512 2.707-1.377 3.8-2.597 1.093-1.224 1.845-2.588 2.256-4.083.53-1.897.446-3.708-.24-5.4s-1.955-3.135-3.8-4.27c1.596-.25 3-.9 4.176-1.96a7.98 7.98 0 0 0 2.426-3.904c.394-1.417.4-2.794.053-4.127-.35-1.333-.94-2.48-1.753-3.45-.826-.975-1.845-1.745-3.065-2.3-1.215-.573-3.135-1.23-5.74-1.94l-13.152-3.655-9.116 32.923 11.2 3.108zm12.5-25.958c1.067.438 1.8 1.058 2.186 1.845.385.796.43 1.7.153 2.7-.297 1.076-.86 1.836-1.692 2.313-.835.463-1.836.607-3.013.428-.65-.096-2.273-.512-4.853-1.23l-4.36-1.207 2.112-7.612 3.817 1.058 5.65 1.693zm24.05-1.592l-15.806 33.085 7.297.538 3.388-7.533 13.62 1.014 2.396 7.958 7.5.556-11.114-35.083-7.27-.535m2.956 8.2l3.76 13-9.295-.7 5.535-12.3zm43.36 24.56l-23.943 2.3-3.213-33.74 6.87-.643 2.667 28 17.073-1.63.547 5.723m29.666-7.493l-23.243 6.17-8.697-32.758 6.663-1.76 7.22 27.186 16.58-4.398 1.478 5.56m28.2-27.122l6.9-1.272c.853 3.77.656 7.018-.6 9.733-1.25 2.724-3.502 4.94-6.733 6.672-4 2.13-8.023 2.514-12.06 1.154s-7.32-4.416-9.85-9.15c-2.67-5.024-3.45-9.6-2.348-13.764 1.12-4.163 3.778-7.372 8.006-9.62 3.7-1.967 7.262-2.47 10.73-1.52 2.06.555 4.07 1.854 6.05 3.913l-5.264 4.648c-1.194-1.37-2.588-2.212-4.202-2.514s-3.23-.018-4.854.84c-2.23 1.203-3.616 2.965-4.153 5.313s.153 5.308 2.068 8.9c2.033 3.813 4.163 6.156 6.392 7.044 2.24.887 4.45.743 6.646-.43 1.622-.86 2.742-2.112 3.35-3.76.618-1.65.6-3.718-.07-6.197m37.446-11.936l-18.822 14.97-21.088-26.513 5.4-4.298 17.515 22.02 13.423-10.686 3.58 4.508"/><path d="M339.484 385.86l-13.54-12.216 4.622-5.12 13.742 12.396 4.407 3.633a5.56 5.56 0 0 0 3.922.7c1.37-.262 2.693-1.1 3.992-2.544 1.307-1.452 1.998-2.812 2.072-4.093.07-1.272-.253-2.374-.988-3.3-.734-.936-2.094-2.304-4.1-4.115l-14.03-12.658 4.613-5.124 13.322 12.015c3.057 2.75 5.076 4.827 6.082 6.244s1.6 2.88 1.806 4.407-.018 3.14-.625 4.844-1.82 3.572-3.633 5.588c-2.187 2.414-4.12 4-5.815 4.744-1.683.752-3.3 1.084-4.853 1s-2.917-.446-4.1-1.102c-1.754-.975-4.054-2.746-6.883-5.3m33.1-40.885c.77-.638 1.574-.993 2.444-1.058.87-.053 1.75.17 2.623.7 1.05.616 1.7 1.386 2.007 2.308s.25 1.872-.1 2.847c-.223.656-.966 2.046-2.24 4.175l-3.257 5.487-7.853-4.656 2.837-4.788c1.614-2.698 2.786-4.373 3.547-5.015m8.836 13.34l4.05-7.28c.76-1.675 1.084-3.275.966-4.796-.105-1.522-.617-2.973-1.513-4.346a10.24 10.24 0 0 0-3.35-3.25c-1.692-1-3.454-1.4-5.28-1.185s-3.53 1.067-5.125 2.545a7.94 7.94 0 0 0-.787-4.547 7.89 7.89 0 0 0-3.126-3.358c-1.268-.76-2.593-1.137-3.975-1.146-1.377 0-2.64.258-3.786.796-1.154.538-2.17 1.325-3.035 2.343-.88 1.032-1.998 2.707-3.38 5.037l-6.974 11.735 29.382 17.446 5.934-9.995zm-21.774-18.893c.704-.914 1.495-1.46 2.36-1.622s1.758.026 2.663.564c.95.564 1.54 1.307 1.78 2.23.232.932.1 1.937-.376 3.02-.258.608-1.084 2.06-2.453 4.368l-2.3 3.887-6.8-4.03 2.016-3.402 3.1-5.014zm-7.712-67.015a12.08 12.08 0 0 0-1.025.263c2.903-3.33 5.58-7.254 7.16-11.605 2.266-6.3 2.93-11.815 2.93-16.047-.005-4.688-.798-7.774-1.172-8.8-.577-1.588-2.187-7.65-2.188-7.658l-.36-1.357-1.14.82c-.007.003-5.118 3.67-6.555 4.507-.262.156-.678.438-1.188.823 1.725-4.085 3.047-8.672 3.183-13.318a45.34 45.34 0 0 0 .02-1.366c-.013-13.308-4.936-21.24-6.155-22.793-1.04-1.314-4.475-6.568-4.48-6.576l-.766-1.174-.825 1.134c-.005.005-3.702 5.08-4.807 6.336-.256.293-.67.833-1.176 1.606.158-1.57.254-3.185.255-4.82-.001-3.138-.344-6.35-1.24-9.413-3.97-13.566-11.523-20-13.2-21.14-1.386-.92-6.26-4.88-6.267-4.887l-1.087-.885-.44 1.332c-.004.006-1.977 5.965-2.65 7.503a14.24 14.24 0 0 0-.534 1.548c-.9-4.236-2.366-8.628-4.82-12.436-7.7-11.85-16.763-15.852-18.705-16.47-1.586-.5-7.385-2.894-7.392-2.898l-1.295-.54-.043 1.403c-.001.007-.192 6.3-.396 7.952-.037.322-.07.817-.07 1.483a19.36 19.36 0 0 0 .009.521c-2.294-4-5.3-8.022-9.1-11.038-10.804-8.465-20.458-9.483-22.84-9.487a6.02 6.02 0 0 0-.2.003l-.407.005c-2.12 0-7.547-.33-7.555-.332l-1.398-.086.416 1.34c.001.007 1.868 6 2.226 7.642.36 1.647 2.608 8.4 9.696 15.62-10.76 1.017-17.137 5.122-18.504 6.224-1.042.852-4.647 3.3-6 4.2-1.35-.9-4.956-3.36-5.998-4.2-1.368-1.102-7.745-5.207-18.504-6.224 7.088-7.23 9.336-13.973 9.696-15.62.357-1.632 2.225-7.634 2.226-7.642l.416-1.34-1.398.086c-.008.001-5.435.332-7.555.332-.15 0-.3-.003-.407-.005a5.3 5.3 0 0 0-.2-.003c-2.38.004-12.035 1.022-22.84 9.487-3.822 3.016-6.817 7.037-9.1 11.038l.01-.52a13.43 13.43 0 0 0-.07-1.483c-.204-1.66-.395-7.944-.396-7.952l-.043-1.403-1.295.54c-.006.004-5.805 2.4-7.392 2.898-1.942.62-11.014 4.62-18.705 16.47-2.454 3.808-3.93 8.2-4.82 12.436-.207-.7-.398-1.234-.534-1.548-.673-1.54-2.646-7.497-2.65-7.503l-.44-1.332-1.087.885c-.005.006-4.88 3.966-6.267 4.887-1.688 1.15-9.24 7.574-13.2 21.14-.897 3.064-1.24 6.274-1.24 9.413a48.15 48.15 0 0 0 .255 4.82c-.504-.773-.92-1.313-1.176-1.606-1.104-1.255-4.8-6.33-4.807-6.336l-.825-1.134-.766 1.174c-.003.007-3.438 5.262-4.48 6.576-1.22 1.552-6.142 9.485-6.155 22.793l.02 1.366c.135 4.646 1.458 9.233 3.183 13.318a13.96 13.96 0 0 0-1.188-.823c-1.438-.837-6.548-4.504-6.555-4.507l-1.14-.82-.36 1.357c-.001.008-1.6 6.07-2.188 7.658-.374 1.025-1.167 4.1-1.172 8.8 0 4.232.663 9.737 2.93 16.047 1.58 4.35 4.257 8.276 7.16 11.605-.437-.13-.787-.216-1.025-.263-1.642-.307-7.674-2.047-7.68-2.048l-1.346-.388.114 1.396c.001.008.502 6.15.5 7.897 0 0-.001.024 0 .076.007 2.16 1.107 11.944 9.978 22.8 3.148 3.816 7.317 6.76 11.432 8.98a24.16 24.16 0 0 0-1.793-.076 11.44 11.44 0 0 0-1.197.052c-1.656.178-7.94.273-7.948.274l-1.4.02.518 1.304c.004.006 2.316 5.84 2.8 7.447.58 1.957 4.443 11.078 16.187 18.94 4.5 2.993 9.848 4.615 14.785 5.492-1.102.3-1.884.572-2.302.756-1.527.675-7.476 2.673-7.483 2.678l-1.33.446.9 1.085c.006.004 3.996 4.862 4.926 6.24 1.154 1.677 7.618 9.193 21.202 13.093 3 .857 6.115 1.188 9.175 1.188.893-.001 1.78-.032 2.657-.084l-.098.084c-1.228 1.143-6.207 4.98-6.212 4.985l-1.114.857 1.2.734c.008.003 5.373 3.3 6.7 4.3 1.537 1.128 9.056 5.544 21.5 5.555a54.4 54.4 0 0 0 2.816-.075c6.997-.397 13.786-3.48 18.918-6.54 8.32 7.024 19.746 9.995 22.762 10.7l-.01.412.6-.12.387.486.385-.484.6.118-.01-.412c3.016-.705 14.44-3.676 22.762-10.7 5.132 3.058 11.92 6.142 18.918 6.54a54.4 54.4 0 0 0 2.816.075c12.436-.01 19.955-4.427 21.5-5.555 1.318-.998 6.683-4.286 6.7-4.3l1.2-.734-1.114-.857c-.005-.005-4.984-3.843-6.212-4.985-.025-.023-.068-.058-.098-.084.877.052 1.764.083 2.657.084 3.06 0 6.185-.33 9.175-1.188 13.584-3.9 20.048-11.416 21.202-13.093.93-1.38 4.92-6.237 4.926-6.24l.9-1.085-1.33-.446c-.007-.005-5.957-2.003-7.483-2.678-.418-.184-1.2-.467-2.302-.756 4.937-.876 10.287-2.5 14.785-5.492 11.744-7.862 15.607-16.984 16.187-18.94.475-1.608 2.787-7.44 2.8-7.447l.518-1.304-1.4-.02c-.01-.001-6.292-.096-7.948-.274a11.71 11.71 0 0 0-1.197-.052 24.14 24.14 0 0 0-1.793.076c4.115-2.22 8.283-5.163 11.432-8.98 8.87-10.855 9.97-20.64 9.978-22.782v-.093c-.002-1.748.5-7.9.5-7.897l.114-1.396-1.346.388c-.012.001-6.044 1.74-7.686 2.048zm-135.962-106.18c1.02-.876 4.52-3.385 5.867-4.345 1.347.96 4.847 3.47 5.867 4.345 1.552 1.318 9.763 6.857 23.906 7.052h.32c1.806-.005 3.607-.188 5.378-.5 1.78 2.413 8.02 9.242 20.38 13.233 1.56.502 3.164.854 4.777 1.095.977 2.913 4.795 11.273 15.22 18.853 1.542 1.114 3.203 2.048 4.914 2.858.1 3.126 1.324 12.206 8.977 22.43 1.2 1.604 2.598 3.067 4.085 4.405-.46 1.494-1.155 4.62-1.16 9.056 0 4.103.607 9.292 2.587 15.207a30.65 30.65 0 0 0 1.757 4.11l-.198.262c-1.217 1.55-6.142 9.47-6.155 22.762l.02 1.394a30.32 30.32 0 0 0 .52 4.676 14.93 14.93 0 0 1-.502.344c-1.694 1.114-9.35 7.422-13.534 20.92a29.42 29.42 0 0 0-.892 3.808 18 18 0 0 1-.77.242c-1.96.557-11.128 4.322-19.12 15.982-.9 1.335-1.686 2.754-2.37 4.2-2.28.003-9.98.787-19.15 6.594-1.9.505-4.515 1.176-5.5 1.35-1.768.322-9.356 2.565-17.376 10.477-1.03-11.215-5.38-17.817-6.53-19.203-1.07-1.272-4.632-6.45-4.637-6.456l-.797-1.16-.797 1.16c-.003.006-3.568 5.183-4.643 6.452-1.146 1.388-5.503 7.992-6.532 19.2-8.02-7.915-15.612-10.158-17.38-10.48-.996-.173-3.602-.845-5.5-1.35-9.17-5.808-16.87-6.6-19.142-6.594-.692-1.457-1.468-2.876-2.378-4.2-7.992-11.66-17.16-15.425-19.12-15.982a19.05 19.05 0 0 1-.77-.242 29.18 29.18 0 0 0-.892-3.808c-4.185-13.5-11.84-19.808-13.534-20.92a14.93 14.93 0 0 1-.502-.344c.287-1.54.474-3.104.52-4.676l.02-1.394c-.013-13.293-4.938-21.213-6.155-22.762a10.85 10.85 0 0 1-.198-.262c.68-1.325 1.28-2.695 1.757-4.1 1.98-5.915 2.587-11.104 2.587-15.207-.003-4.437-.7-7.562-1.16-9.056 1.487-1.338 2.875-2.8 4.085-4.405 7.653-10.224 8.887-19.303 8.977-22.43 1.7-.8 3.372-1.744 4.914-2.858 10.425-7.58 14.244-15.94 15.22-18.853 1.614-.24 3.217-.592 4.777-1.095 12.362-4 18.6-10.82 20.38-13.233 1.77.313 3.572.495 5.378.5h.32c14.145-.195 22.355-5.734 23.907-7.052z"/></g><path d="M214.63 156.846c-1.082-.886-7.8-5.25-19.15-5.923a52.43 52.43 0 0 1-3.15 2.693c-4.654 3.62-10.447 5.7-15.667 6.922 3.55.302 5.9 1.002 6.765 1.34 1.542.63 7.553 2.438 7.562 2.44l1.344.402-.855 1.113c-.003.005-2.444 3.186-3.88 5.186 1.384.207 2.775.327 4.158.325l.306-.001c13.6-.163 21.495-5.58 22.662-6.588 1.02-.87 3.82-2.892 5.407-4.027-1.617-1.093-4.464-3.04-5.503-3.883zm-13.9-29.973c-.17 0-.322-.003-.463-.005l-.134-.003c-1.985 0-11.277.932-21.645 9.075-4.97 3.88-8.55 9.8-10.932 14.98-.518 2.64-1.43 5.82-2.988 9.328 4.736-.214 18.083-1.463 26.57-8.152 10.707-8.375 13.697-17.5 14.015-19.004.3-1.3 1.286-4.605 1.857-6.47-1.76.098-4.746.252-6.28.253zm-51.377 51.303c2.327-.47 4.1-.593 5.1-.593l.58.017 2.22.04 5.74-.077 1.402-.033-.467 1.323c-.001.006-1.36 3.856-2.102 6.2 1.213-.217 2.4-.505 3.57-.88 12.937-4.15 18.9-11.66 19.718-12.967.717-1.13 2.793-3.885 3.973-5.438-1.863-.57-5.152-1.6-6.4-2.092-.8-.325-4.255-1.353-9.447-1.347-2.918 0-6.403.32-10.323 1.252-.645 1.2-1.366 2.43-2.173 3.68-2.95 4.525-7.223 8.15-11.4 10.916zm-13.133 4.52l.002.048 1.54-.62a67.75 67.75 0 0 0 6.597-3.195c5.136-2.84 11.166-7.123 14.78-12.723 6.245-9.66 7.117-17.966 7.117-21.274 0-.6-.03-1.038-.056-1.257-.157-1.324-.294-4.773-.362-6.723-1.803.74-4.996 2.03-6.266 2.427-1.48.458-10.284 4.266-17.658 15.675-3.314 5.1-4.784 11.58-5.393 17.117a41.56 41.56 0 0 1 .192 3.975c.001 1.97-.15 4.174-.494 6.55zm21.043-3.123a46.54 46.54 0 0 1-2.342-.043l-.457-.014c-2.283-.002-9.827.73-18.793 6.353-.268 1.27-.592 2.583-1 3.937-1.6 5.45-4.913 10.36-8.317 14.315 2.934-1.7 5.162-2.437 6.017-2.642 1.625-.386 7.584-2.382 7.6-2.385l1.33-.447-.056 1.402c.001.007-.166 4.176-.18 6.646 1.33-.673 2.607-1.43 3.795-2.3 11.007-7.97 14.328-16.967 14.698-18.466.332-1.3 1.45-4.563 2.1-6.405l-4.388.048zm-24.1-13.91c-.533-1.233-1.647-4.496-2.27-6.344l-5.323 4.114c-1.3.866-8.638 7.024-12.433 20.08-.833 2.84-1.165 5.872-1.164 8.87 0 3.578.474 7.093 1.097 10.184 1.002 2.42 1.962 5.438 2.613 9.03l1.2-.957a67.65 67.65 0 0 0 5.409-4.95c4.1-4.2 8.666-10.02 10.53-16.424 1.474-5.03 1.956-9.47 1.956-13.116.007-5.805-1.245-9.643-1.616-10.484zm5.97 41.322l.13-5.617-6.434 1.993c-1.377.317-9.085 3.038-16.63 11.863a52.37 52.37 0 0 1 .288 4.178l.007.697c-.015 5.486-1.63 10.938-3.6 15.566 2.126-2.33 3.885-3.656 4.602-4.1 1.422-.875 6.45-4.645 6.455-4.65l1.123-.843.388 1.35c.003.006 1.122 3.9 1.88 6.24 1.173-1.108 2.265-2.294 3.22-3.57 7.7-10.254 8.603-19.326 8.6-21.653a5.05 5.05 0 0 0-.01-.337 26.31 26.31 0 0 1-.02-1.114zm-33.284 37.757a67.35 67.35 0 0 0 3.56-6.184c2.593-5.106 5.158-11.884 5.15-18.458l-.007-.65c-.34-13.58-5.866-21.427-6.888-22.578-.88-1.008-2.937-3.777-4.092-5.348-1.073 1.627-2.986 4.498-3.814 5.55-.93 1.162-5.75 8.8-5.738 21.594l.018 1.313c.14 5.96 2.498 12 5.063 16.875 1.935 2.08 4.146 4.955 6.2 8.7l.545-.824zm4.605 20.163c-.001 2.24-.16 4.412-.396 6.445 1.647-4.1 3.433-6.57 4.1-7.347 1.104-1.25 4.803-6.324 4.806-6.33l.825-1.133.767 1.174c.004.004 1.652 2.526 3.007 4.513a26.83 26.83 0 0 0 1.186-2.924c1.9-5.704 2.488-10.68 2.488-14.592.004-4.928-.934-8.208-1.24-8.988-.485-1.248-1.47-4.554-2.017-6.426-1.566 1.164-4.344 3.2-5.48 3.915-1.17.713-7.272 5.44-11.634 15.493a52.53 52.53 0 0 1 1.691 4.117c1.397 3.895 1.885 8.087 1.886 12.084zm-3.382 12.602c.725-3.328 1.447-7.853 1.447-12.602.001-3.84-.474-7.82-1.77-11.43-4.587-12.796-12.297-18.504-13.626-19.277-1.152-.677-3.976-2.664-5.566-3.794-.508 1.882-1.422 5.208-1.878 6.477-.272.727-1.06 3.694-1.055 8.137.001 4.03.63 9.308 2.815 15.393 1.925 5.392 5.813 10.223 9.626 13.978 2.582 1.262 5.817 3.236 9.25 6.237a66.19 66.19 0 0 0 .759-3.119zm12.393 24.768c.373-2.906.982-4.838 1.297-5.598.648-1.544 2.522-7.537 2.523-7.546l.417-1.34 1.105.87 4.112 3.18c.178-1.146.292-2.298.32-3.446l.016-1.344c.013-12.77-4.8-20.4-5.74-21.566-.818-1.05-2.73-3.92-3.802-5.547-1.155 1.57-3.2 4.338-4.093 5.345-.9 1.013-5.287 7.212-6.56 17.934 1.037 1.057 2.08 2.2 3.116 3.463 3.742 4.596 5.965 10.38 7.3 15.596zm-1.618 12.07l1.596.442a66.33 66.33 0 0 0-1.15-8.916c-1.14-5.76-3.38-12.813-7.612-17.97-8.603-10.5-17.772-13.3-19.292-13.597-1.316-.25-4.637-1.175-6.512-1.707.148 1.92.395 5.298.396 6.664h0l.002.032-.002.047v.014c-.005 1.667 1 11.13 9.54 21.557 5.1 6.238 13.474 10.14 19.312 12.224l.515.18c1.208.422 2.302.766 3.207 1.028zm21.16 20.908c-1.382-4.45-1.667-7.92-1.668-9.7l.038-.982c.162-1.673.186-7.952.183-7.96l.005-1.406 1.312.506c.005 0 2.435.937 4.594 1.724l-.628-2.5c-4-12.987-11.447-19.036-12.74-19.87-1.124-.732-3.85-2.842-5.4-4.042-.6 1.86-1.65 5.14-2.164 6.38-.348.813-1.47 4.43-1.463 9.882 0 2.717.28 5.906 1.05 9.463 1.1.617 2.2 1.288 3.33 2.042 6.246 4.202 10.706 10.96 13.543 16.443zm.272 8.36l1.304-.036-.597-1.548a67.56 67.56 0 0 0-3.099-6.646c-2.765-5.178-6.958-11.27-12.5-14.964-9.832-6.572-18.333-7.443-21.432-7.443a9.53 9.53 0 0 0-.988.041c-1.33.138-4.782.222-6.732.26.7 1.815 1.953 5.03 2.338 6.316.424 1.484 4.1 10.34 15.406 17.88 6.443 4.324 15.183 5.685 21.35 6.04a41.74 41.74 0 0 1 1.57-.033 45.25 45.25 0 0 1 3.38.134zm24.528 10.178c-1.856-3.176-2.662-5.603-2.87-6.504-.373-1.63-2.33-7.6-2.333-7.606l-.438-1.333 1.4.065 6.142.22c-.547-1.084-1.153-2.132-1.834-3.123-7.66-11.226-16.566-14.805-18.047-15.2-1.285-.366-4.517-1.577-6.342-2.27-.015 1.95-.06 5.398-.183 6.737a8.65 8.65 0 0 0-.03.8c0 2.665.724 10.063 6 18.884 1.304.264 2.65.584 4.042.983 5.518 1.6 10.497 4.934 14.492 8.358zm1.442 3.936c-4.2-4.086-10.06-8.608-16.466-10.438-4.928-1.4-9.284-1.877-12.882-1.877-5.947-.007-9.872 1.297-10.73 1.685-1.227.537-4.482 1.665-6.327 2.294 1.23 1.512 3.397 4.196 4.148 5.3.867 1.282 7.065 8.596 20.135 12.322 2.773.795 5.722 1.113 8.643 1.113 1.994 0 3.973-.148 5.872-.4 2.685-1.58 6.884-3.505 12.535-4.686-1.17-1.407-2.848-3.307-4.93-5.323zm14.114 4.28c2.362.006 4.718.303 7.005.783-1.8-4.65-2.167-8.096-2.18-9.205-.005-1.67-.614-7.916-.617-7.924l-.023-.236c-7.725-4.278-13.96-4.864-15.697-4.862-.103 0-.185.001-.25.006-.212.008-.463.01-.748.01-1.588 0-4.323-.104-5.98-.172.6 1.856 1.646 5.145 1.95 6.45.288 1.3 2.712 8.393 10.52 15.642a52.51 52.51 0 0 1 4.556-.453 25.54 25.54 0 0 1 1.463-.04zm15.126 14.268c-3.378-4.012-5.66-7.9-7.2-11.287-2.592-.638-5.272-1.05-7.924-1.047a25.45 25.45 0 0 0-1.358.035c-13.564.716-21.24 6.458-22.363 7.505-.985.9-3.7 3.042-5.24 4.24 1.66 1.027 4.583 2.856 5.647 3.654 1.158.865 8.397 5.18 20.334 5.17.878 0 1.784-.024 2.715-.072 6.277-.323 12.594-3.108 17.507-5.967-.74-.708-1.452-1.45-2.117-2.233zm15.225-16.633c-8.13-8.6-16.137-10.922-17.55-11.167-1.317-.234-4.654-1.1-6.538-1.614.18 1.94.484 5.37.494 6.708.008 1.55 1.074 11.078 9.846 21.458 6.432 7.67 17.9 11.658 23.218 13.113l.337.1c-3.127-4.496-9.828-15.366-9.863-26.397.001-.75.025-1.475.055-2.192zm19.353-202.794c1.082-.886 7.8-5.25 19.15-5.923a52.43 52.43 0 0 0 3.15 2.693c4.654 3.62 10.447 5.7 15.667 6.922-3.55.302-5.9 1.002-6.765 1.34-1.542.63-7.553 2.438-7.562 2.44l-1.344.402.855 1.113c.003.005 2.444 3.186 3.88 5.186-1.384.207-2.775.327-4.158.325-.097 0-.202-.001-.306-.001-13.6-.163-21.495-5.58-22.662-6.588-1.02-.87-3.82-2.892-5.407-4.027 1.617-1.093 4.464-3.04 5.503-3.883zm13.9-29.973l.463-.005.134-.003c1.985 0 11.277.932 21.645 9.075 4.97 3.88 8.55 9.8 10.932 14.98.518 2.64 1.43 5.82 2.988 9.328-4.736-.214-18.083-1.463-26.57-8.152-10.707-8.375-13.697-17.5-14.015-19.004-.3-1.3-1.286-4.605-1.857-6.47 1.762.098 4.747.252 6.28.253zm51.38 51.303c-2.327-.47-4.1-.593-5.1-.593l-.58.017-2.22.04a289.34 289.34 0 0 1-5.741-.077l-1.402-.033.467 1.323c.001.006 1.36 3.856 2.102 6.2-1.213-.217-2.4-.505-3.57-.88-12.937-4.15-18.9-11.66-19.718-12.967-.717-1.13-2.793-3.885-3.973-5.438 1.863-.57 5.152-1.6 6.4-2.092.8-.325 4.255-1.353 9.447-1.347 2.918 0 6.403.32 10.323 1.252.645 1.2 1.366 2.43 2.173 3.68 2.95 4.525 7.223 8.15 11.4 10.916zm13.134 4.52l-.002.048-1.54-.62a67.75 67.75 0 0 1-6.597-3.195c-5.136-2.84-11.166-7.123-14.78-12.723-6.245-9.66-7.117-17.966-7.117-21.274 0-.6.03-1.038.056-1.257.157-1.324.294-4.773.362-6.723 1.803.74 4.996 2.03 6.266 2.427 1.48.458 10.284 4.266 17.658 15.675 3.314 5.1 4.784 11.58 5.393 17.117a41.56 41.56 0 0 0-.192 3.975c-.002 1.97.15 4.174.494 6.55zm-21.044-3.123l2.342-.043.457-.014c2.283-.002 9.827.73 18.793 6.353.268 1.27.592 2.583 1 3.937 1.6 5.45 4.913 10.36 8.317 14.315-2.934-1.7-5.162-2.437-6.017-2.642-1.625-.386-7.584-2.382-7.6-2.385l-1.33-.447.056 1.402c-.001.007.166 4.176.18 6.646-1.33-.673-2.607-1.43-3.795-2.3-11.007-7.97-14.328-16.967-14.698-18.466-.332-1.3-1.45-4.563-2.1-6.405l4.388.048zm24.1-13.91c.533-1.233 1.647-4.496 2.27-6.344l5.323 4.114c1.3.866 8.638 7.024 12.433 20.08.833 2.84 1.165 5.872 1.164 8.87 0 3.578-.474 7.093-1.097 10.184-1.002 2.42-1.962 5.438-2.613 9.03l-1.2-.957a67.65 67.65 0 0 1-5.409-4.95c-4.1-4.2-8.666-10.02-10.53-16.424-1.474-5.03-1.956-9.47-1.956-13.116-.007-5.805 1.245-9.643 1.616-10.484zm-5.97 41.322l-.13-5.617 6.434 1.993c1.377.317 9.085 3.038 16.63 11.863a52.37 52.37 0 0 0-.288 4.178l-.007.697c.015 5.486 1.63 10.938 3.6 15.566-2.126-2.33-3.885-3.656-4.602-4.1-1.422-.875-6.45-4.645-6.455-4.65l-1.123-.843-.388 1.35c-.003.006-1.122 3.9-1.88 6.24-1.173-1.108-2.265-2.294-3.22-3.57-7.7-10.254-8.603-19.326-8.6-21.653a5.05 5.05 0 0 1 .01-.337c.014-.297.02-.673.02-1.114zm33.284 37.757a67.35 67.35 0 0 1-3.56-6.184c-2.593-5.106-5.158-11.884-5.15-18.458l.007-.65c.34-13.58 5.866-21.427 6.888-22.578.88-1.008 2.937-3.777 4.092-5.348 1.073 1.627 2.986 4.498 3.814 5.55.93 1.162 5.75 8.8 5.738 21.594l-.018 1.313c-.14 5.96-2.498 12-5.063 16.875-1.935 2.08-4.146 4.955-6.2 8.7l-.545-.824zm-4.604 20.163c.001 2.24.16 4.412.396 6.445-1.647-4.1-3.433-6.57-4.1-7.347-1.104-1.25-4.803-6.324-4.806-6.33l-.825-1.133-.767 1.174c-.004.004-1.652 2.526-3.007 4.513a26.83 26.83 0 0 1-1.186-2.924c-1.9-5.704-2.488-10.68-2.488-14.592-.004-4.928.934-8.208 1.24-8.988.485-1.248 1.47-4.554 2.017-6.426 1.566 1.164 4.344 3.2 5.48 3.915 1.17.713 7.272 5.44 11.634 15.493a52.53 52.53 0 0 0-1.691 4.117c-1.398 3.895-1.885 8.087-1.886 12.084zm3.38 12.602c-.725-3.328-1.447-7.853-1.447-12.602-.001-3.84.474-7.82 1.77-11.43 4.587-12.796 12.297-18.504 13.626-19.277 1.152-.677 3.976-2.664 5.566-3.794.508 1.882 1.422 5.208 1.878 6.477.272.727 1.06 3.694 1.055 8.137-.001 4.03-.63 9.308-2.815 15.393-1.925 5.392-5.813 10.223-9.626 13.978-2.582 1.262-5.817 3.236-9.25 6.237a67.46 67.46 0 0 1-.759-3.119zm-12.393 24.768c-.373-2.906-.982-4.838-1.297-5.598-.648-1.544-2.522-7.537-2.523-7.546l-.417-1.34-1.105.87-4.112 3.18c-.178-1.146-.292-2.298-.32-3.446l-.016-1.344c-.013-12.77 4.8-20.4 5.74-21.566.818-1.05 2.73-3.92 3.802-5.547 1.155 1.57 3.2 4.338 4.093 5.345.9 1.013 5.287 7.212 6.56 17.934-1.037 1.057-2.08 2.2-3.116 3.463-3.742 4.596-5.964 10.38-7.3 15.596zm1.618 12.07l-1.596.442a66.33 66.33 0 0 1 1.15-8.916c1.14-5.76 3.38-12.813 7.612-17.97 8.603-10.5 17.772-13.3 19.292-13.597 1.316-.25 4.637-1.175 6.512-1.707-.148 1.92-.395 5.298-.396 6.664h0l-.002.032.002.047v.014c.005 1.667-1 11.13-9.54 21.557-5.1 6.238-13.474 10.14-19.312 12.224l-.515.18c-1.208.422-2.303.766-3.207 1.028zm-21.15 20.908c1.382-4.45 1.667-7.92 1.668-9.7l-.038-.982c-.162-1.673-.186-7.952-.183-7.96l-.005-1.406-1.312.506c-.005 0-2.435.937-4.594 1.724l.628-2.5c4-12.987 11.447-19.036 12.74-19.87 1.124-.732 3.85-2.842 5.4-4.042.6 1.86 1.65 5.14 2.164 6.38.348.813 1.47 4.43 1.463 9.882 0 2.717-.28 5.906-1.05 9.463-1.1.617-2.2 1.288-3.33 2.042-6.246 4.202-10.705 10.96-13.543 16.443zm-.28 8.36l-1.304-.036.597-1.548a67.56 67.56 0 0 1 3.099-6.646c2.765-5.178 6.958-11.27 12.5-14.964 9.832-6.572 18.333-7.443 21.432-7.443a9.53 9.53 0 0 1 .988.041c1.33.138 4.782.222 6.732.26-.7 1.815-1.953 5.03-2.338 6.316-.424 1.484-4.1 10.34-15.406 17.88-6.443 4.324-15.183 5.685-21.35 6.04a41.74 41.74 0 0 0-1.57-.033 45.25 45.25 0 0 0-3.38.134zM279.9 353.8c1.856-3.176 2.662-5.603 2.87-6.504.373-1.63 2.33-7.6 2.333-7.606l.438-1.333-1.4.065-6.142.22c.547-1.084 1.153-2.132 1.834-3.123 7.66-11.226 16.566-14.805 18.047-15.2 1.285-.366 4.517-1.577 6.342-2.27.015 1.95.06 5.398.183 6.737a8.65 8.65 0 0 1 .03.8c0 2.665-.724 10.063-6 18.884-1.304.264-2.65.584-4.042.983-5.518 1.6-10.498 4.934-14.492 8.358zm-1.44 3.936c4.2-4.086 10.06-8.608 16.466-10.438 4.928-1.4 9.284-1.877 12.882-1.877 5.947-.007 9.872 1.297 10.73 1.685 1.227.537 4.482 1.665 6.327 2.294-1.23 1.512-3.397 4.196-4.148 5.3-.867 1.282-7.065 8.596-20.135 12.322-2.773.795-5.722 1.113-8.643 1.113-1.994 0-3.973-.148-5.872-.4-2.685-1.58-6.884-3.505-12.535-4.686a67.71 67.71 0 0 1 4.929-5.323zm-14.115 4.28c-2.362.006-4.718.303-7.005.783 1.8-4.65 2.167-8.096 2.18-9.205.005-1.67.614-7.916.617-7.924l.023-.236c7.725-4.278 13.96-4.864 15.697-4.862.103 0 .185.001.25.006.212.008.463.01.748.01 1.588 0 4.323-.104 5.98-.172-.6 1.856-1.646 5.145-1.95 6.45-.288 1.3-2.712 8.393-10.52 15.642a52.51 52.51 0 0 0-4.556-.453c-.488-.028-.977-.04-1.463-.04zM249.2 376.273c3.378-4.012 5.66-7.9 7.2-11.287 2.592-.638 5.272-1.05 7.924-1.047a25.45 25.45 0 0 1 1.358.035c13.564.716 21.24 6.458 22.363 7.505.985.9 3.7 3.042 5.24 4.24-1.66 1.027-4.583 2.856-5.647 3.654-1.158.865-8.397 5.18-20.334 5.17-.878 0-1.784-.024-2.715-.072-6.277-.323-12.594-3.108-17.507-5.967.74-.708 1.453-1.45 2.117-2.233zm-15.226-16.633c8.13-8.6 16.137-10.922 17.55-11.167 1.317-.234 4.654-1.1 6.538-1.614-.18 1.94-.484 5.37-.494 6.708-.008 1.55-1.074 11.078-9.846 21.458-6.432 7.67-17.9 11.658-23.218 13.113l-.337.1c3.127-4.496 9.828-15.366 9.863-26.397-.001-.75-.025-1.475-.055-2.192zm-16.086-20.558c-.994 1.184-6.317 9.163-6.304 22.75h0c-.022 10 6.182 20.458 9.305 25h0l.955 1.356a60.18 60.18 0 0 0 .956-1.356h0c1.036-1.514 2.42-3.68 3.803-6.27h0c2.767-5.178 5.502-12.053 5.495-18.723h0c.013-13.588-5.308-21.568-6.302-22.75h0c-.857-1.027-2.837-3.848-3.95-5.45h0c-1.114 1.603-3.095 4.423-3.958 5.45h0z" fill="#f6d315"/><path d="M188.294 298.947c1.137-2.068 1.723-2.4 2.636-2.523.9-.1 3.052 1.063 4.923 3.205 3.087 3.555 6.187 3.555 6.187 3.555l-.35 4.127s6.646-1.263 9.17-4.927c2.518-3.668 3.35-7.743 5.15-9.05 3.332-2.4 5.496-1.264 5.496-1.264s-4.35-6.76-3.883-10.537c.455-3.782 2.396-6.87 2.396-6.87s-13.663-6.777-19.465 4c-2.4 4.468 1.487 10.655 1.487 10.655s-3.266 1.552-4.923.118c-2.16-1.863-4.237-3.205-4.237-3.205s-.258-6.26-4.932-9.392c-5.955-4.014-10.415-.8-10.415-.8s3.205.922 4.915 4.014c.905 1.6 1.146 4.236 1.146 4.236s-3.787-.245-6.178 1.832c-4.416 3.826-1.264 9.278-1.264 9.278s3.664-3.437 4.8-3.664c1.146-.232 2.632-.232 3.205-.114s1.38 1.264 1.38 1.264-2.177 2.973-1.604 5.146 3.428 6.528 3.428 6.528-.223-3.544.922-5.603zm-3.66-51.787s4.7-1.486 6.87-.795 5.575 1.963 7.673 1.723c4-.46 8.596-5.85 8.596-5.85s-11.114.573-14.096-1.137c-2.982-1.718-4-3.214-4.47-4.36s-.113-8.355-.914-9.97c-.805-1.6-2.64-4.897-6.3-5.033-6.415-.23-8.355 3.2-8.355 3.2s4.573-.35 6.296 2.514c-11.447-.7-10.987 6.76-10.987 6.76s2.505-1.745 3.777-1.6c2.06.223 2.855 2.173 2.855 2.173s-6.4.46-6.982 8.937c1.836.34 4.127-3.096 7.214-3.555 1.9-.274 6.182.692 8.823 6.983zm71.125-26.914c-.673-9.5 2.186-18.67-1.7-20.96.573 3.778-4.127 10.196-4.127 27.5 0 17.183 10.306 18.9 10.306 35.3 0 8.015-3.323 11.796-5.496 12.028-2.177.223-5.27-2.178-5.27-2.178l-4.582 7.792s2.4 4.237 7.673 4.237c1.495 0 14.774-.922 14.774-16.497 0-26.575-9.628-19.842-11.57-47.2zm-6.06-5.343s.5-3.887 1.862-8.25c1.377-4.35 1.684-6.642 1.684-8.47 0 0 2.54-.188 3.607 3.83.463 1.73.306 5.715-.092 11.215 2.287-.8 5.186-6.038 5.186-10.96s-3.428-9.627-6.296-11.687-4.932-5.382-4.932-5.382l-.223.46s.84 2.23.572 3.437c-1.263 5.723-5.382 8.508-5.955 12.833-1.23 9.158 4.587 12.975 4.587 12.975zm-5.34 96.144a5.16 5.16 0 0 0 1.208.042c2.295-.232 2.636-3.096 2.4-5.382l-.687-5.614s1.6-.35 1.832-1.146c.227-.805-.114-1.72-.114-1.72s4.573-2.177 4.573-6.646c-1.486.914-3.777 1.718-4.805 1.604 2.523-1.955 2.746-3.323 2.746-5.614-.805.546-2.06 2.068-4.47 1.26-2.112-.704-1.94-2.64-2.632-3.66-.687-1.04-2.4-1.955-2.4-1.955l7.22-11.92s1.692-7.24-3.664-14.538c-6.642-9.055-6.642-17.3-6.642-17.3s1.718 1.377 4.127 0c-3.213-4.12-6.187-7.56-5.964-12.142.923.23 3.323.687 4.35-.34-2.846-2.077-5.72-8.364-5.382-11.8 1.246.573 3.323.573 4.818-.573-1.684-1.246-4.24-4.927-4.932-7.792-.682-2.855-3.546-8.47-7.1-9.5-3.546-1.032-5.5-1.146-5.5-1.146s3.555-3.44.914-7.336c-2.514 4.696-6.06 6.073-6.06 6.073s.114-4.923-1.38-6.073c-1.146 3.1-4.12 6.764-5.837 7.9-1.032-1.146-2.64-2.98-.582-6.996-1.683.315-5.955 2.178-6.296 5.964-.223 2.418.46 5.15 0 5.84s-5.382 3.66-5.837 4.7c-.468 1.037-.315 2.9-.805 3.437-1.032 1.146-2.636 1.954-3.896 2.4s-3.323 1.946-2.982 2.982c.35 1.032 1.154 1.828 1.154 1.828s-.468 2.75.455 4.127c.914 1.37 2.86 2.632 4.237 2.3 1.37-.345 5.16-2.76 6.187-2.64s2.973.7 2.973 1.718-.36 3.485-3.205 3.2c-2.4-.228-4.586-.577-5.033.918-.258.835-.126 3.2.796 3.664.914.46 3.664.7 3.664.7s-.46 2.4 1.264 2.4c1.718 0 1.146-2.75 1.146-2.75s4 .455 7.673-.455 5.46-3.1 6-6.03c.625-3.502 1.102-6.266 2.82-6.803.394 0 .35.463.35.463s-1.53 1.56-1.53 5.688c0 2.514-1.897 5.378-2.982 6.68-2.75 3.318-4.538 11.342-7.52 13.86-2.116 1.788-8.015 6.527-11.805 7.332-3.778.796-5.146-3.323-10.074-2.632-4.923.682-6.982 4.236-6.982 4.236s4.35-1.032 6.296 1.487 4 2.182 4 2.182-3.1 2.287-4.7 2.17-4.7-1.146-4.7-1.146.625 4.486 2.514 5.505c4.246 2.295 8.023 0 8.023 0s.223 2.295-.455 3.664c-.7 1.37-2.527 3.205-2.527 3.205s4.928 1.032 7.337-1.37c2.405-2.4 2.632-5.964 2.632-5.964s7.214.573 17.406-3.664c10.2-4.232 13.183-9.624 13.183-9.624s.113 2.3-2.178 5.042c-5.4 6.418-16.387 8.478-16.387 8.478s2.52 5.04 5.846 6.76c3.314 1.7 8.587 3.1 8.587 3.1s-6.642 5.273-5.95 10.773c.678 5.496 5.378 9.273 5.378 9.273s10.66-.363 13.055 2.52c1.355 1.622 1.955 2.632.468 6.418-.87 2.195-4.246 2.973-5.614 1.718-1.613-1.474-2.86-4.617-4.936-5.505-2.4-1.027-9.383-2.855-13.5 5.16 0 0 4.36-3.44 7.22 0-.78.148-1.438.396-2.007.707-17.715 1.374-31.663 16.174-31.664 34.24a34.35 34.35 0 0 0 1.103 8.655c1.56.403 3.17.8 3.903.93 1.768.322 9.36 2.565 17.38 10.48 1.028-11.218 5.385-17.822 6.532-19.2 1.075-1.27 4.64-6.446 4.643-6.452l.797-1.16.797 1.16c.005.005 3.567 5.183 4.637 6.456 1.148 1.386 5.5 7.988 6.53 19.203 8.02-7.912 15.608-10.154 17.376-10.477.734-.128 2.342-.526 3.9-.93.718-2.766 1.103-5.666 1.103-8.656-.001-10.35-4.6-19.632-11.84-25.93z" fill="#d52c1e"/><g fill="#fff"><path d="M194.127 215.1a.98.98 0 0 0 .975-.979.97.97 0 0 0-.975-.966c-.537 0-.97.428-.97.966s.433.98.97.98zm15.876-7.792s-1.496-.835-3.153-.573c-1.937.306-2.868 2.46-2.868 2.46 3.896 1.72 6.02-1.888 6.02-1.888zm11.83 103.042l.5.02c.92-1.055 2.283-1.693 2.283-1.693s-1.377-1.26-4.236-.796c-2.274.36-3.608 2.306-4.062 3.094 1.8-.383 3.653-.617 5.525-.626zm21.677 10.956l-1.183-.855c-1.23-.86-2.993-2-5.1-3.157l-2.075-1.056c-1.1.458-2.12.54-2.746 0-1.604-1.368-4.354-1.945-5.964-.914-1.596 1.027-.45 4.582-.45 4.582s-4.403-2.42-4.48-7.154c-8.16.108-16.53 5.14-20.163 7.698-.48.335-.875.623-1.18.85a35.6 35.6 0 0 0 1.453 1.859 76.03 76.03 0 0 0 3.119 3.578c6.195-4.83 15.968-4.92 17.002-4.958.028-.003.057-.004.086-.005h.03c.062-.006.126-.002.192.01 1.463.043 10.866.258 16.898 4.954a74.93 74.93 0 0 0 3.122-3.58c.492-.587.984-1.218 1.448-1.852zm-17.28 2.458h0v-.001zm-5.238.04a1.2 1.2 0 0 1-.21-.296.79.79 0 0 0 .21.296zm-22.17-4.48c2.394-1.784 9.262-6.538 17.258-8.302-.122-.83-.377-3.37.612-5.573-7.78 1.272-14.616 5.34-19.436 11.145l.32-.04c.042.592.53 1.6 1.245 2.77zm-3.097-.73a31.89 31.89 0 0 0-4.87 10.6c5.68 6.633 9.112 8.395 10.552 8.85.35-3.133.932-6.398 1.896-9.335a78.31 78.31 0 0 1-3.543-4.04c-1.566-1.97-3.197-4.088-4.035-6.074zm5.234 31.534l-.04-2.713.26-6.96c-1.812-.42-5.308-2.088-10.92-8.316-.243 1.58-.37 3.198-.373 4.845a32.07 32.07 0 0 0 1.399 9.324 24.13 24.13 0 0 0 1.215.26c1.074.195 4.3 1.108 8.457 3.558zm20.098-18.742l.797-1.16.797 1.16c.005.005 3.567 5.183 4.637 6.456.323.4.902 1.206 1.586 2.406-.24-3.617-.742-7.123-1.25-9.96-.473-2.636-.942-4.684-1.197-5.74-2.48-.358-4.33-.382-4.555-.383h-.022c-.02.002-.04.003-.062.003-.016 0-.032-.001-.05-.002-.396.006-2.17.046-4.5.382-.255 1.058-.726 3.114-1.198 5.758-.5 2.853-1.016 6.378-1.253 10 .702-1.24 1.297-2.08 1.626-2.478 1.076-1.27 4.64-6.446 4.644-6.452z"/><path d="M253.433 332.123c-5.63 6.25-9.133 7.917-10.943 8.335a91.18 91.18 0 0 1 .258 6.9c0 1.098-.02 2.036-.042 2.78 4.173-2.465 7.412-3.382 8.488-3.578a23.87 23.87 0 0 0 1.214-.261 32.03 32.03 0 0 0 1.399-9.324 32.21 32.21 0 0 0-.374-4.862zm-31.708-7.956h0zm18.522 27.555l.1-4.354c.006-4.795-.4-12.6-2.408-18.36-2.37-2.083-5.84-3.323-8.958-4 .806 3.523 2.416 11.52 2.42 19.322 0 .493-.01.985-.023 1.477 1.064 2.98 2.017 6.73 2.43 11.238 2.214-2.185 4.4-3.924 6.427-5.324zm-27.967-5.815l-.024-1.52c.004-7.817 1.616-15.845 2.42-19.375-3.12.677-6.587 1.917-8.95 3.998-2.027 5.8-2.42 13.615-2.415 18.407 0 2.3.085 3.903.107 4.284a47.23 47.23 0 0 1 6.465 5.351c.4-4.46 1.347-8.18 2.397-11.144zm31.636-21.237l-3.545 4.04c.963 2.938 1.546 6.203 1.893 9.337 1.438-.453 4.875-2.212 10.573-8.868-.973-3.86-2.646-7.442-4.877-10.602-.837 2-2.474 4.118-4.044 6.092zm2.184-8.116l.34.043c-1.7-2.047-3.654-3.87-5.807-5.44-.313.237-.615.58-.905 1.078-.522.896-1.314 1.777-2.2 2.514a54.43 54.43 0 0 1 7.319 4.582c.72-1.164 1.2-2.184 1.25-2.777z"/></g></svg>