<?xml version="1.0" encoding="UTF-8"?>
<svg width="300" height="299.26" version="1.1" viewBox="0 0 300 299.25754" xmlns="http://www.w3.org/2000/svg" xmlns:cc="http://creativecommons.org/ns#" xmlns:dc="http://purl.org/dc/elements/1.1/" xmlns:rdf="http://www.w3.org/1999/02/22-rdf-syntax-ns#">
<metadata>
<rdf:RDF>
<cc:Work rdf:about="">
<dc:format>image/svg+xml</dc:format>
<dc:type rdf:resource="http://purl.org/dc/dcmitype/StillImage"/>
<dc:title/>
</cc:Work>
</rdf:RDF>
</metadata>
<g transform="matrix(.52433 0 0 .52433 -6.0603 -71.085)" fill-rule="evenodd">
<path d="m297.64 137.48a284.17 283.46 0 0 1 284.17 283.46 284.17 283.46 0 1 1 -284.17 -283.46z" fill="#0232a0"/>
<path d="m297.64 145.01a276.65 275.94 0 0 1 276.65 275.94 276.65 275.94 0 1 1 -276.65 -275.94z" fill="#fff"/>
<path d="m297.77 152.54a268.65 268.19 0 0 1 268.65 268.19 268.65 268.19 0 1 1 -268.65 -268.19z" fill="#0232a0"/>
<path d="m297.83 233.74a187.42 186.99 0 0 1 187.42 186.99 187.42 186.99 0 1 1 -187.42 -186.99z" fill="#fff"/>
<path d="m297.45 241.59a179.5 179.06 0 0 1 179.5 179.06 179.5 179.06 0 1 1 -179.5 -179.06z" fill="#0232a0"/>
<path d="m297.45 248.54a172.4 172.11 0 0 1 172.4 172.11 172.4 172.11 0 1 1 -172.4 -172.11z" fill="#fff"/>
<path d="m337.57 497.82c-22.516 7.1212-44.135 16.745-64.151 29.37-25.039 15.794-44.379 32.318-61.064 57.124l-8.9052 13.24-111.51-281.92 8.7721-2.6198c38.23-11.418 79.022-13.884 118.58-9.4843 28.668 3.1884 56.62 10.054 83.568 20.327l3.3604 1.2808 4.39 10.464c18.158 5.7087 36.639 10.717 55.293 14.462 16.931 3.3998 34.511 5.8934 51.801 6.1001 27.441 0.3277 45.718-3.6746 58.684-18.094 6.1103-6.7952 10.55-14.474 14.428-28.192 7.4403 15.476 11.605 31.543 11.954 49.417 0.4222 21.603-5.1305 43.89-15.247 61.978-11.315 20.231-27.113 36.371-45.936 49.727-26.795 19.012-58.899 31.688-90.305 40.748l-7.3057 2.1074z" fill="#fff"/>
<path d="m103.12 321.06 102.27 258.56c17.823-26.499 38.116-43.496 63.551-59.54 21.467-13.54 45.877-24.5 73.57-32.539l6.4412 16.134c34.975-10.089 64.548-23.049 87.774-39.528 18.646-13.23 33.152-28.535 43.467-46.978 13.238-23.668 18.788-57.01 9.8529-84.892-11.69 23.836-37.862 32.69-72.445 32.277-32.488-0.3882-72.045-8.9386-113.23-22.13l-4.5005-10.728c-27.014-10.298-54.156-16.786-81.506-19.828-37.94-4.22-77.721-2.0222-115.24 9.1847z" fill="#0232a0"/>
<path d="m474.07 358.57c-5.5726 4.9881-12.802 8.0272-21.736 10.161-10.497 2.5075-22.785 3.5035-34.821 3.3599-18.291-0.2186-38.111-2.654-56.024-6.2507-21.7-4.357-40.058-8.4721-63.518-15.697l-5.0665-12.851c-24.761-9.1685-49.108-13.572-75.374-16.493-34.704-3.8596-70.797-0.4265-100.51 7.656l20.33 50.927c17.563-6.5292 38.428-10.542 62.607-12.453 30.245-2.3911 65.532-1.3914 106.17 3.834l4.3723 11.168c44.089 4.786 82.227 5.4322 111.6-0.2021 22.132-4.2449 42.356-11.625 51.958-23.158zm-298.39 116.82 32.858 82.31c15.6-18.81 30.214-31.163 53.83-46.058 26.884-16.957 59.468-29.355 85.471-35.398l5.9924 14.994c28.03-7.2755 53.668-16.605 77.092-33.224 16.877-11.974 32.262-26.8 42.411-44.948 4.2455-7.5917 7.7935-15.808 10.117-24.641-16.204 17.714-36.465 30.465-57.449 39.964-26.759 12.112-56.16 19.236-88.006 22.92l-4.6717-11.776c-35.069-0.5096-60.759 1.8413-89.08 8.2069-24.194 5.4383-50.736 14.93-68.565 27.65z" fill="#fff"/>
<path d="m317.68 355.82c-6.2689-1.6806-12.766-3.5466-19.71-5.685l12.579 31.792c6.4461 0.6995 12.764 1.3095 18.946 1.8251zm20.318 95.484 15.834 39.929c6.4088-1.6635 12.692-3.4348 18.852-5.3754l-15.74-37.211c-6.215 1.0339-12.531 1.9158-18.946 2.6578z" fill="#d9e0e7"/>
<path d="m310.54 381.93 27.458 69.378c6.4157-0.742 12.732-1.6242 18.948-2.6581l-27.45-64.894c-6.1858-0.5159-12.507-1.1265-18.956-1.8262z" fill="#082e86"/>
<g fill="#fff">
<path d="m543.27 407.56h-4.2718l-6.6714 2.1884 1.0255 4.2539 4.612-1.275v21.916h5.3057z"/>
<path d="m61.228 407.42h-4.2719l-6.6713 2.1885 1.0255 4.2539 4.612-1.2751v21.916h5.3057z"/>
<path d="m89.487 420.38c-0.0017-3.9351-0.597-7.0937-2.4504-9.5853-1.7406-2.3405-4.5999-3.9154-8.5755-3.9154-5.4265 0-10.003 4.0127-10.003 9.711 0 5.4397 4.6094 8.4596 9.7022 8.4666 2.6454 4e-3 4.6821-1.0017 5.9328-2.3228-0.1812 4.0686-2.3824 7.2758-5.9197 7.4412-2.3584 0.11-4.3243-0.8712-6.2217-2.7192l-2.7195 4.0101c2.9294 2.1378 5.3989 3.2956 8.984 3.2918 2.9236-3e-3 5.7235-1.4189 7.6734-3.559 2.6201-2.8755 3.599-7.1201 3.5972-10.819zm-10.603 0.4285c-2.4953-0.1002-5.0338-1.5321-5.167-4.3743-0.1447-3.088 1.8251-4.8983 4.8416-4.9111 3.6375-0.0156 5.4681 2.2218 5.3613 4.6728-0.1068 2.456-2.0133 4.7339-5.0359 4.6126z"/>
<path d="m516.72 429.85c3.2405-2.9221 7.8071-5.808 10.194-9.5358 0.8448-1.3196 1.511-3.033 1.5023-4.5964-0.0183-3.2293-1.7455-5.9887-4.3083-7.3876-1.5371-0.8393-3.4716-1.189-5.2565-1.154-1.7328 0.0339-3.7142 0.7113-5.2631 1.6442-1.7012 1.0246-2.9427 2.535-4.1688 4.4029l3.689 2.8063c1.4731-2.1716 3.2392-4.1546 5.8793-4.1482 2.2533 6e-3 4.0251 1.6537 4.046 4.1091 0.0179 2.0944-1.4221 3.9117-2.9105 5.1618l-11.13 9.3491v4.0035h19.631v-4.6549z"/>
</g>
<g fill="#fff">
<path d="m292.17 211 8.7922 0.3141 0.4309-12.063 6.4712 0.1759 7.7508 12.411 10.319 0.3686-9.0341-14.054c4.9024-1.3307 8.4218-5.8107 8.6429-11.595 0.1716-4.4877-1.4163-7.7279-3.6755-9.8183-3.096-2.8648-7.705-3.7102-13.054-3.9013l-15.262-0.5452zm16.802-30.184c4.0781 0.1457 7.7407 1.2531 7.5824 5.684-0.1589 4.4473-3.896 5.2739-7.9687 5.1284l-6.9115-0.2469 0.3862-10.812z"/>
<path d="m204.93 233.44 8.1171-3.3934-4.4883-10.736 4.3484-1.8778c6.9475-3.0002 9.6741-5.9321 10.924-9.1669 1.2503-3.2342 1.0812-6.6464-0.3632-10.186-1.6963-4.1566-5.0339-6.5266-7.9587-7.4794-4.0089-1.3058-8.152-0.3127-13.088 1.7507l-12.487 5.2201zm1.964-34.166c3.765-1.574 6.8433-1.1755 8.3301 2.3809 1.5489 3.7051-0.157 6.2427-4.1789 7.9241l-5.5795 2.3326-4.2847-10.249z"/>
<path d="m136.09 287.42 9.5765-9.8013c3.1179-3.1912 5.7578-6.5866 6.7657-11.055 1.416-6.2784 0.0365-12.966-5.2491-18.13-5.0538-4.9378-10.892-6.3589-16.684-5.3796-5.11 0.8639-8.7572 3.6277-12.257 7.21l-9.8559 10.087zm-11.328-32.586c4.477-4.5821 11.393-4.5657 16.078 0.0122 4.7426 4.6338 4.8755 11.4 0.346 16.035l-4.6075 4.7156-16.424-16.048z"/>
<path d="m252.82 176.42c11.463-2.741 22.258 3.946 24.843 14.756s-4.1142 21.598-15.481 24.398-22.258-3.9461-24.843-14.756c-2.5848-10.81 4.0177-21.657 15.481-24.398zm1.9088 7.9827c6.4203-1.5351 12.279 2.5231 13.802 8.8907 1.5225 6.3674-1.9206 12.601-8.2874 14.172s-12.279-2.523-13.802-8.8904c-1.5226-6.3676 1.8671-12.637 8.2874-14.172z"/>
<path d="m477.3 244.94c7.6035 9.006 6.4858 21.655-2.007 28.825-8.4928 7.1703-21.14 6.0385-28.754-2.8548-7.6133-8.8932-6.4858-21.655 2.007-28.825 8.4927-7.1702 21.15-6.1512 28.754 2.8548zm-6.2715 5.2949c4.2585 5.044 3.2689 12.102-1.7338 16.326-5.0024 4.2235-12.119 3.9517-16.385-1.0284-4.2664-4.9802-3.2689-12.102 1.7335-16.326 5.0026-4.2236 12.127-4.0157 16.385 1.0283z"/>
<path d="m373.54 183.13-31.264-7.4302-1.8739 7.8846 11.272 2.6788-7.0818 29.798 8.667 2.0597 7.0818-29.798 11.326 2.6916z"/>
<path d="m398.69 192.72-8.1451-3.3256-14.641 35.859 8.1451 3.3256z"/>
<path d="m172.75 206.67-24.418 16.264 21.471 32.236 24.74-16.478-4.3863-6.5855-17.418 11.601-4.2257-6.3445 15.083-10.046-4.332-6.5041-15.083 10.046-4.1409-6.2171 17.096-11.386z"/>
<path d="m447.96 219.86-8.2241-5.0404-22.272 17.605 5.4988-27.885-8.3473-5.1159-7.0456 41.28 6.7154 4.1158z"/>
</g>
<g fill="#fff">
<path d="m403.03 601.59c-3.3223 2.1905-5.9051 5.1103-6.5122 8.8293-0.4151 2.5441-8e-3 5.4529 1.8872 8.4542 1.6579 2.6247 4.1579 4.1501 6.886 4.5882 2.2941 0.3677 4.6052-0.095 7.0587-0.629 3.1655-0.6889 9.8822-3.7914 11.79-0.483 1.2247 2.1242-0.6617 4.253-2.3343 5.3558-3.96 2.611-8.8101 2.6254-12.795 2.1018l-1.4261 7.852c7.7087 1.5645 14.682-0.6697 18.574-3.4257 3.1137-2.2048 5.5874-4.768 6.5079-8.267 0.716-2.721 0.4833-6.075-1.7177-9.4313-2.2513-3.4326-5.5735-4.6715-8.9987-4.6305-3.1157 0.0371-6.4696 1.1307-9.3786 1.9013-1.8859 0.4999-6.5508 2.1504-7.663-1.0994-0.672-1.9675 0.8075-3.6535 2.2904-4.6372 3.3065-2.1932 6.7776-2.2486 11.069-1.9126l0.4999-7.9252c-5.66-0.8919-11.626 0.6479-15.737 3.3583z"/>
<path d="m382.52 613.09-27.722 9.6026 12.677 36.599 28.088-9.7294-2.5898-7.4767-19.775 6.8498-2.4951-7.2031 17.124-5.9316-2.5578-7.3842-17.124 5.9316-2.4449-7.0583 19.409-6.723z"/>
<path d="m364.36 616.53 6.3709-2.2067 5.4979-7.9612-8.4556-0.4856z"/>
<path d="m345.18 625.48-9.574 1.1746-6.4724 27.642-13.054-25.246-9.7175 1.1922 20.182 36.693 7.8177-0.9591z"/>
<path d="m296.1 668.88-9.2696-0.8881-2.6268-8.7952-15.883-1.5218-4.3228 8.1294-8.9886-0.8612 20.349-37.106 7.8427 0.7515zm-14.298-17.725-3.6021-12.06-5.9274 11.147z"/>
<path d="m196.68 646.7-8.116-4.5657 1.1597-9.1055-13.907-7.8232-7.2444 5.6826-7.87-4.4272 33.631-25.688 6.8667 3.8628zm-5.8961-21.996 1.59-12.486-9.9335 7.7919z"/>
<path d="m233.6 618.79-8.3914-2.6433-11.637 36.943 26.68 8.4041 2.3772-7.5469-18.288-5.7609z"/>
</g>
<path d="m186.03 389.88 6.5935 16.627 9.6235-2.2993-3.6902-9.3346 5.83-1.0264c2.8359-0.5185 6.1607-0.9259 9.0393-0.4867 3.0892 0.4714 5.8327 1.5889 8.0269 3.0316 5.7293 3.7672 10.219 11.958 8.1221 18.89-0.9791 3.2382-3.3784 5.832-7.7463 7.2321l-10.956 3.5116-4.1716-10.552-9.4496 2.7041 7.3019 18.413 21.06-6.3922c6.8997-2.0921 12.92-7.8685 13.06-15.529l0.3845-21.053 13.12 14.688-5.5935 0.6242v7.3364l11.027-1.4082 6.5674 7.6861 7.2912-0.9739-32.702-36.582-6.7272 0.6393-0.3347 10.617c-3.3847-4.7933-8.1203-7.3575-13.787-8.6262-8.841-1.9791-20.097-0.3121-31.889 2.2637z" fill="#fff"/>
</g>
</svg>
