<?xml version="1.0" encoding="UTF-8"?>
<svg version="1.1" viewBox="0 0 300 236.5" xml:space="preserve" xmlns="http://www.w3.org/2000/svg" xmlns:cc="http://creativecommons.org/ns#" xmlns:dc="http://purl.org/dc/elements/1.1/" xmlns:ns="&amp;ns_sfw;" xmlns:rdf="http://www.w3.org/1999/02/22-rdf-syntax-ns#" xmlns:xlink="http://www.w3.org/1999/xlink">
<metadata>
	<ns:sfw>
		<ns:slices/>
		<ns:sliceSourceBounds x="235.755" y="617.07" width="300" height="236.5" bottomLeftOrigin="true"/>
	</ns:sfw>
<rdf:RDF><cc:Work rdf:about=""><dc:format>image/svg+xml</dc:format><dc:type rdf:resource="http://purl.org/dc/dcmitype/StillImage"/><dc:title/></cc:Work></rdf:RDF></metadata>
	<path d="m168.81 217.46c0.571-0.193 0.888-0.011 1.396 0.201 0.805 0.334 7.711 2.751 15.485 4.022 7.78 1.274 15.153-2.615 18.978-3.083 3.818-0.47 7.773 0 15.149-0.939 7.373-0.937 12.67-3.752 15.755-6.572 3.085-2.816 3.752-4.354 7.439-5.898 3.689-1.539 5.164-1.742 7.579-1.61 2.411 0.139 9.114 1.478 13.74-1.876 4.626-3.353 4.495-3.954 7.176-5.699 2.681-1.742 7.511-4.756 13.475-5.364 5.967-0.6 9.991 0.672 12.606-1.404 2.612-2.082 2.412-3.958 2.412-3.958s-3.621 0.268-7.844-3.218c-4.225-3.484-15.284-13.944-17.969-17.03-2.681-3.08-33.588-36.473-41.565-44.577-7.978-8.116-23.196-20.18-49.945-32.653l-6.082-2.617v-1.139s2.415-1.943 0.739-5.163c-2.467-4.736-10.235-7.375-10.235-7.375l0.134-1.114s16.4-19.669 18.414-22.17c4.104-5.108 14.408-17.289 17.598-21.429 2.685-3.492 4.571-13.078 2.157-14.996-1.55-1.235-4.514-0.851-9.478 2.099-4.962 2.95-12.467 11.529-17.249 16.538-4.786 5.006-22.576 24.361-22.576 24.361l-0.98-0.045c-0.223-0.805-2.324-3.846-2.324-3.846 0-12.557-2.323-22.034-2.323-22.034s1.741-0.18 6.436-0.628c4.692-0.446 8.27-2.274 12.423-8.045 4.162-5.763 4.829-15.193 4.92-16.624 0.088-1.433-0.491-1.835-1.03-1.25-0.535 0.577-7.511 3.216-16.356 4.78-8.851 1.563-15.779 1.744-15.779 1.744-4.068-5.634-11.262-8.852-11.262-8.852-8.764 4.198-17.161 13.186-21.771 21.231-4.602 8.045-6.656 20.113-6.879 21.052-0.226 0.939-0.404 0.714-1.074 1.117-0.67 0.405-0.896 2.279-0.67 3.887 0.223 1.61 2.367 1.696 2.367 1.696s0.182 8.631-0.313 9.568c-0.489 0.939-0.803 2.683-0.044 3.308 0.761 0.625 1.253 0.849 1.519 1.339 0.267 0.492 0.36 1.296 0.492 2.728 0.135 1.43 1.52 1.562 1.52 1.562l0.09 0.897-0.313 0.177s-0.27 7.241 0.132 10.546c0.406 3.312 2.458 3.264 3.354 3.264s4.915 0 6.258 0.585c1.341 0.577 4.335 3.038 4.335 3.038v0.978l-1.494 0.831c-26.754 12.473-41.967 24.537-49.947 32.653-7.98 8.104-38.885 41.498-41.566 44.577-2.684 3.086-13.744 13.546-17.969 17.03-4.223 3.486-7.843 3.218-7.843 3.218s-0.203 1.876 2.412 3.958c2.615 2.076 6.64 0.804 12.606 1.404 5.967 0.607 10.793 3.622 13.475 5.364 2.681 1.745 2.546 2.346 7.172 5.699 4.624 3.354 11.332 2.015 13.744 1.876 2.414-0.132 3.887 0.071 7.576 1.61 3.687 1.544 4.357 3.082 7.442 5.898 3.085 2.82 8.381 5.636 15.754 6.572 7.376 0.939 11.329 0.47 15.15 0.939 3.824 0.467 11.197 4.357 18.975 3.083 7.776-1.271 14.68-3.688 15.485-4.022 0 0 0.678-0.099 0.937 0.111 17.263 13.97 17.705 18.724 18.784 18.724 1.088 0 1.341-4.824 18.84-18.923l0.45-0.112z" fill="#231f20"/>
	<defs>
		<path id="ba" d="m88.926 110.46c-1.811 2.683-0.604 7.774 0.736 10.188 1.344 2.415 5.299 6.575 7.038 8.38 1.744 1.814 8.179 8.718 8.717 9.255 0.077 0.077 0.148 0.149 0.211 0.214 0.107 0.104 0.174-0.205 0.174-0.205 0.192-0.985 0.352-2.001 0.47-3.047l0.014-0.102c-1.003-0.934-4.462-4.149-5.335-4.954-1.03-0.934-5.412-5.671-7.063-8.309-1.654-2.64-1.968-2.864-2.412-4.74-0.448-1.877 0-3.306 0.444-4.111 0.445-0.804 1.253-0.94 1.654-0.537 0.401 0.405 0.138 1.162-0.316 1.744-0.444 0.58-0.356 1.876-0.041 2.993 0.311 1.117 2.187 4.251 3.082 5.188 0.896 0.937 3.354 4.11 5.365 5.898 1.685 1.497 4.071 3.758 4.805 4.456l3e-3 -0.07c0.033-0.717 0.038-1.385 0.027-2.132v-0.073c-2.024-2.151-10.867-11.653-10.867-11.653s2.077-2.281 2.343-2.818c0.272-0.539 0.539-2.214-1.203-5.027-0.947-1.527-2.646-2.346-4.288-2.346-1.382 0-2.731 0.582-3.558 1.808"/>
	</defs>
	<clipPath id="ap">
		<use width="300" height="236.5" xlink:href="#ba"/>
	</clipPath>
		<radialGradient id="ae" cx="-238.44" cy="853.8" r="2.815" gradientTransform="matrix(49.395 0 0 -78.495 11863 67072)" gradientUnits="userSpaceOnUse">
		<stop stop-color="#ecdf85" offset="0"/>
		<stop stop-color="#e3b771" offset=".4066"/>
		<stop stop-color="#d2ac6a" offset=".7033"/>
		<stop stop-color="#a09548" offset="1"/>
	</radialGradient>
	<rect x="87.116" y="108.66" width="19.395" height="29.95" clip-path="url(#ap)" fill="url(#ae)"/>
	<defs>
		<path id="t" d="m89.531 130.24c-2.48 0.201-2.079 1.677-2.079 2.011 0 0.338-2.679 1.942-5.096 4.294-2.415 2.346-2.615 6.099-2.547 6.834 0.065 0.741-2.011 2.008-2.75 3.283-0.739 1.278-1.206 3.086-0.67 4.291 0.308 0.694 0.986 0.505 1.711 0.323 0.544-0.14 1.113-0.279 1.574-0.051 1.071 0.535 1.742 1.539 2.547 2.411 0.808 0.87 1.475 0.673 2.214 1.545 0.736 0.868 1.604 2.146 2.615 2.548 1.006 0.402 1.808 0.064 1.808 0.064s3.42 3.286 5.563 4.023c1.486 0.51 3.479 0.698 4.568 0.768l0.201 0.014c0.632-7.305 3.23-12.326 5.178-18.765l0.094-0.295c0.115-0.83-1.02-2.191-2.327-4.249-1.409-2.21-5.631-6.636-6.84-7.575-1.071-0.835-2.832-1.506-4.95-1.506-0.264-1e-3 -0.537 0.01-0.814 0.032"/>
	</defs>
	<clipPath id="i">
		<use width="300" height="236.5" xlink:href="#t"/>
	</clipPath>
		<radialGradient id="d" cx="-240.74" cy="853.36" r="2.8113" gradientTransform="matrix(26.466 0 0 -29.999 6458.1 25690)" gradientUnits="userSpaceOnUse">
		<stop stop-color="#ecdf85" offset="0"/>
		<stop stop-color="#e3b771" offset=".4066"/>
		<stop stop-color="#d2ac6a" offset=".7033"/>
		<stop stop-color="#a09548" offset="1"/>
	</radialGradient>
	<rect x="75.85" y="130.21" width="28.727" height="32.391" clip-path="url(#i)" fill="url(#d)"/>
	<defs>
		<path id="c" d="m76.815 125.01c-9.162 4.962-19.889 15.375-20.741 16.403-0.846 1.029-8.491 8.891-9.608 10.236-1.118 1.339-8.223 9.609-10.099 11.576-1.879 1.965-10.058 10.951-13.099 14.388-3.041 3.446-3.711 6.482-3.887 8.811-0.179 2.323 2.055 1.429 3.887 0.309 1.836-1.117 4.561-4.56 5.857-6.166 1.294-1.61 6.791-7.601 7.684-8.761 0.896-1.161 6.527-7.375 8.672-9.969 2.148-2.593 10.593-12.332 13.856-15.775 3.261-3.443 8.491-7.688 10.148-9.344 1.65-1.655 6.567-5.63 9.208-7.908 2.635-2.281 5.985-4.38 5.582-3.8-0.401 0.583-4.288 3.665-5.45 4.778-1.165 1.124-7.73 7.064-8.714 7.913-0.983 0.85-5.547 5.859-7.288 7.91-1.744 2.058-6.349 7.016-7.953 8.761-1.612 1.744-5.143 5.859-7.557 8.45-2.415 2.591-5.406 6.662-7.061 8.313-1.656 1.656-7.42 7.91-8.985 9.741-1.563 1.833-4.915 5.994-5.632 6.793-0.714 0.805-1.785 2.104-1.203 2.281 0.58 0.177 1.338 1.251 3.396 1.79 2.055 0.534 5.898-4.203 7.15-5.636 1.25-1.429 4.561-5.229 5.992-6.255 1.425-1.027 2.944-3.708 3.752-4.6 0.805-0.897 3.442-4.649 5.497-6.751 2.052-2.099 2.815-4.067 4.604-5.229 1.788-1.159 3.17-2.638 4.647-4.425 1.476-1.789 2.994-3.98 3.888-5.232 0.896-1.246 2.95-3.038 3.62-3.707 0.673-0.673 2.86-2.861 2.86-2.861-0.984 2.507-9.52 12.383-10.415 13.365-0.89 0.985-5.315 5.718-6.434 6.883-1.118 1.162-5.587 6.391-6.349 7.91-0.755 1.519-5.14 6.662-5.672 7.239-0.539 0.585-4.742 5.68-6.618 8.002-1.879 2.324-2.099 5.274 0.805 7.107 2.906 1.836 3.934 0.897 4.739 0.044 0.805-0.849 2.678-3.575 4.112-5.406 1.428-1.833 7.549-10.015 9.785-12.785 2.235-2.768 9.699-12.467 10.323-13.359 0.629-0.894 2.058-2.149 2.415-1.927 0.359 0.226 0.359 0.673 0 1.208-0.357 0.54-2.277 3.626-3.261 4.875-0.984 1.251-5.277 7.328-6.08 8.313-0.805 0.98-7.908 11.175-8.938 12.469-0.673 0.851-3.662 5.362-1.788 6.302 2.271 1.138 3.802-0.714 5.675-3.305 1.876-2.59 5.497-9.3 6.214-10.594 0.715-1.293 6.168-8.938 6.926-9.789 0.764-0.848 1.03-0.492 0.988-0.045-0.049 0.448-2.549 4.064-3.219 4.963-0.671 0.891-3.132 4.112-4.338 5.677-1.206 1.566-3.483 6.565-3.934 7.91-0.445 1.338-1.027 2.816-1.25 3.396-0.223 0.582-1.071 2.236-1.388 2.953-0.311 0.711-0.401 1.651 0.717 1.963 1.118 0.316 1.388 0 2.056-0.936 0.673-0.941 1.923-2.861 2.95-4.428 1.03-1.562 3.887-6.077 5.362-8.268 1.475-2.188 4.604-6.793 6.167-8.892 1.565-2.104 2.596-2.819 3-2.593 0.398 0.225-0.226 1.249-0.808 2.143-0.583 0.896-4.514 6.707-5.767 8.538-1.253 1.833-5.008 8.222-5.541 9.166-0.541 0.937-2.862 5.447-1.34 7.012 1.519 1.567 2.947-0.309 5.496-3.256 2.547-2.952 5.945-8.403 7.643-11.131 1.7-2.727 6.302-9.612 7.821-11.711 1.52-2.102 1.118-0.537 0.939-0.18-0.182 0.357-0.849 1.74-1.479 2.725-0.623 0.987-3.752 5.902-4.378 7.153-0.627 1.253-3.665 7.553-4.426 9.432-0.759 1.874-4.286 9.166-5.093 10.681-0.806 1.522 0.491 2.681 1.387 2.147 0.893-0.537 3.217-3.713 4.78-5.902 1.565-2.188 4.87-7.063 7.687-11.617 2.818-4.56 7.785-11.733 9.831-14.178 2.041-2.448 1.673-1.409 1.492-1.142-0.189 0.27-1.486 1.952-1.486 1.952-0.629 0.895-5.544 9.162-6.931 11.309-1.385 2.144-8.805 15.193-10.055 17.208-1.256 2.011-1.612 3.439 0.58 5.229 2.191 1.788 3.752 0.897 4.738-0.18 0.983-1.073 2.682-3.935 5.945-8.67 3.263-4.737 8.804-13.142 9.518-14.079 0.715-0.937 2.189-2.237 2.591-2.056 0.404 0.18 0.094 1.026-0.22 2.008-0.315 0.987-1.926 4.2-2.728 5.277-0.805 1.074-6.258 11.392-6.882 12.737-0.629 1.342-2.191 4.38-0.049 6.437 2.15 2.056 3.802 0.312 4.428-0.627 0.624-0.937 1.61-2.993 2.503-4.824 0.893-1.833 5.766-11.086 6.167-11.891s0.983-0.982 0.715-0.312c-0.267 0.672-4.245 11.354-4.959 14.259-0.717 2.904-0.492 4.917 2.011 5.497s3.486-2.816 4.604-5.32c1.118-2.5 4.514-7.958 4.735-7.958 0.223 0 0.27 0.405 0 1.124-0.269 0.714-4.055 9.685-4.565 11.1-0.517 1.412-0.447 3.081 0 3.462 0.448 0.382 6.223 2.371 11.799 1.86 4.568-0.416 11.326-2.603 13.631-3.379l0.638-0.223c-0.585-0.456-1.187-0.916-1.802-1.393-22.384-17.08-26.51-29.057-26.51-48.099 0 0-0.022-0.526-0.555-0.572-4.571-0.284-9.483-3.612-10.065-4.233-0.624-0.673-1.159-0.357-1.159-0.357 0.22 0.892 0.176 6.7-5.011 7.817-5.185 1.114-9.253-1.608-11.354-4.29-2.099-2.681-2.099-5.542-1.159-8.093 1.047-2.85 4.871-3.524 4.871-3.524-2.055-6.933 2.379-8.428 2.637-9.837 1.522-8.313 7.552-10.814 7.777-11.483 1.426-4.29 6.167-3.355 7.197-3.221 1.024 0.134 1.209-0.091 0.492-0.625-0.718-0.537-4.382-5.187-4.736-5.946-0.121-0.251-0.376-0.464-1-0.464-1.26-6e-3 -4.028 0.889-10.168 4.214"/>
	</defs>
	<clipPath id="b">
		<use width="300" height="236.5" xlink:href="#c"/>
	</clipPath>
		<radialGradient id="a" cx="-238.44" cy="853.93" r="2.8107" gradientTransform="matrix(49.397 0 0 -49.397 11864 42235)" gradientUnits="userSpaceOnUse">
		<stop stop-color="#ecdf85" offset="0"/>
		<stop stop-color="#e3b771" offset=".4066"/>
		<stop stop-color="#d2ac6a" offset=".7033"/>
		<stop stop-color="#a09548" offset="1"/>
	</radialGradient>
	<rect x="19.203" y="120.79" width="108.16" height="98.434" clip-path="url(#b)" fill="url(#a)"/>
	<defs>
		<path id="bk" d="m197.89 108.96c-13.521 30.006 1.893 37.675 1.893 56.663 0 19.042-4.124 31.019-26.507 48.099-0.682 0.527-1.344 1.036-1.986 1.54-0.396 0.304 0.668 0.577 0.668 0.577 2.354 0.98 11.711 2.787 16.416 2.975 4.709 0.198 6.146-0.092 5.665-2.495-0.479-2.399-4.126-10.56-4.604-11.807-0.486-1.251-0.865-2.787 0.283-0.962 1.153 1.823 3.846 6.526 4.706 8.353 0.862 1.826 2.305 5.283 4.897 3.651 2.591-1.635 1.341-5.666 0.673-7.298-0.673-1.635-3.555-9.317-3.938-10.273-0.385-0.961-1.148-3.744 0.48-0.768 1.635 2.977 4.126 8.061 4.799 9.505 0.673 1.438 2.112 4.318 2.687 5.376 0.58 1.055 2.017 3.167 4.033 2.687 2.019-0.482 2.308-3.55 1.73-5.856-0.577-2.305-5.953-12.575-7.2-14.015-1.25-1.443-3.459-5.956-3.555-6.819-0.096-0.861 0.192-1.439 0.865-0.669 0.673 0.765 2.112 1.917 3.456 4.027 1.346 2.117 5.67 8.355 6.529 9.7 0.866 1.345 4.319 6.144 4.901 7.202 0.574 1.055 2.393 4.321 3.741 4.7 1.344 0.386 3.168-0.287 3.934-1.15 0.77-0.864 2.02-1.728 0.577-4.513-1.442-2.784-8.252-14.593-10.082-17.375-1.824-2.783-6.143-9.7-6.911-10.85-0.767-1.154-3.744-5.856 1.442 0.674 5.184 6.527 9.021 13.531 10.269 15.549 1.253 2.019 3.458 5.474 4.997 7.395 1.532 1.921 3.84 5.089 4.703 6.337 0.862 1.246 3.645 2.878 2.208-0.864-1.442-3.747-5.571-10.563-7.299-13.73-1.728-3.17-6.241-10.853-7.488-12.962-1.247-2.11-3.459-5.857-4.223-7.011-0.771-1.147-3.456-6.239 1.344 0 4.799 6.24 11.04 15.364 13.152 18.434 2.113 3.074 6.146 9.215 7.297 10.659 1.148 1.44 2.305 2.975 3.837 1.539 1.539-1.441 1.924-2.979-0.189-5.859-2.112-2.88-14.304-19.683-17.471-23.618-3.171-3.938-8.646-10.752-9.794-12.387-1.156-1.627-3.744-7.006 1.726-0.095 5.472 6.912 8.549 10.75 9.697 12.191 1.153 1.441 5.667 7.685 6.722 9.027 1.058 1.345 6.912 8.833 8.447 10.656 1.538 1.825 2.882 3.358 3.651 4.609 0.766 1.25 1.917 2.687 3.068 2.015 1.153-0.673 0.673-2.399-0.764-4.703-1.442-2.308-8.354-11.424-10.373-14.018-2.014-2.591-9.694-12.292-11.615-14.785-1.92-2.501-7.392-9.314-9.023-11.713s-3.939-5.471-4.324-6.239c-0.382-0.771-0.67-2.115 1.728 0.768 2.401 2.877 8.646 10.753 9.7 12.191 1.058 1.441 7.973 10.366 10.271 13.345 2.305 2.975 8.838 10.947 10.849 13.634 2.019 2.687 6.722 9.792 9.219 8.447 2.494-1.342 0.48-3.842-1.346-6.528-1.821-2.687-7.197-10.56-9.983-14.017-2.785-3.452-6.815-9.12-7.774-10.656-0.964-1.533-0.387-3.264 1.921-0.191 2.302 3.068 7.87 10.27 9.982 12.959s5.662 7.395 7.97 10.179c2.305 2.783 4.027 5.371 5.087 6.817 1.059 1.437 2.786 3.549 4.512 2.494 1.728-1.058-1.633-5.567-2.209-6.334-0.577-0.771-4.989-5.761-6.143-7.009-1.154-1.253-4.514-5.857-5.376-7.011s-6.815-7.775-8.832-10.27c-2.02-2.499-6.049-7.105-8.453-9.507-2.397-2.4-4.703-5.092-6.238-6.82-1.536-1.724-4.606-5.372-5.856-7.296-1.248-1.919-3.333-4.917 1.823 0.674 1.154 1.25 2.398 2.11 3.264 3.647 0.863 1.539 2.597 3.648 3.841 4.896 1.25 1.249 2.403 1.823 3.555 3.073 1.153 1.251 5.856 6.528 7.585 8.928 1.728 2.405 4.129 5.954 6.049 7.682 1.917 1.729 5.085 5.092 7.393 7.583 2.305 2.498 4.7 4.9 6.049 6.532 1.341 1.632 2.785 3.745 4.03 4.99 1.247 1.246 5.376 4.418 5.953 2.977 0.576-1.441 0.379-2.305-1.729-4.225-2.112-1.919-6.818-7.489-9.505-10.079-2.689-2.595-7.97-8.645-10.082-11.042-2.109-2.399-5.661-6.818-7.488-9.027-1.824-2.205-4.991-5.468-7.585-8.638-2.593-3.167-11.617-13.343-13.537-15.46-1.92-2.107-11.233-12.479-11.233-12.479s13.538 14.212 15.173 16.035c1.629 1.825 5.661 6.241 6.911 7.487 1.247 1.25 5.856 6.718 7.296 8.065 1.438 1.345 7.201 7.683 8.256 8.737s4.225 4.993 5.67 6.335c1.437 1.347 5.947 6.243 7.579 7.875 1.632 1.63 4.802 5.282 6.337 6.914 1.536 1.63 4.61 4.799 5.377 5.468 0.769 0.674 1.826 1.732 3.167 0.964 1.346-0.771 2.591-1.442 0.388-4.129-2.212-2.689-11.428-13.154-14.214-16.038-2.785-2.88-6.72-7.677-9.983-11.516-3.266-3.843-10.466-11.622-12.675-14.02-2.206-2.401-5.279-6.144-7.008-7.875-1.728-1.727-10.843-9.789-13.15-11.424-2.305-1.634-2.691-2.976 1.536 0.287 4.223 3.267 9.982 7.778 10.944 8.831 0.962 1.061 5.187 5.092 6.911 6.439 1.729 1.34 4.514 4.604 6.338 6.622 1.824 2.017 6.626 7.202 8.736 9.696 2.112 2.499 7.587 8.931 8.928 10.563 1.349 1.632 6.147 7.104 7.969 9.027 1.827 1.919 4.418 5.183 5.761 6.431 1.347 1.249 3.459 2.496 4.126 2.687 0.676 0.191 2.022 0.768 1.733-1.342-0.291-2.115-0.865-5.376-4.513-9.413-3.651-4.03-8.357-9.215-11.14-12.283-2.783-3.073-4.797-5.379-7.008-8.068-2.209-2.689-11.519-12.388-13.631-14.495-2.113-2.115-6.241-6.048-7.107-7.106-0.862-1.055-2.59-3.167 1.632 0.288 4.229 3.456 13.15 13.532 15.076 15.362 1.918 1.823 6.623 6.241 8.352 8.064 1.73 1.826 7.104 7.967 11.902 13.346 4.803 5.376 8.357 9.794 9.506 11.041 1.15 1.25 3.266 3.266 3.266 3.266s7.107-1.058 11.615-0.58c0 0-4.604-3.267-12.673-10.369-8.065-7.103-17.57-19.103-23.905-25.631-6.337-6.533-13.249-14.304-16.993-18.147-3.744-3.839-13.054-9.891-16.516-12.194-3.352-2.233-16.642-8.984-24.449-11.759-0.214-0.078-0.4-0.103-0.555-0.103-0.343 0-0.524 0.129-0.524 0.129"/>
	</defs>
	<clipPath id="bj">
		<use width="300" height="236.5" xlink:href="#bk"/>
	</clipPath>
		<radialGradient id="bi" cx="-237.85" cy="853.34" r="2.8125" gradientTransform="matrix(38.884 0 0 -38.884 9413.4 33276)" gradientUnits="userSpaceOnUse">
		<stop stop-color="#ecdf85" offset="0"/>
		<stop stop-color="#e3b771" offset=".4066"/>
		<stop stop-color="#d2ac6a" offset=".7033"/>
		<stop stop-color="#a09548" offset="1"/>
	</radialGradient>
	<rect x="170.89" y="108.83" width="122.61" height="110.18" clip-path="url(#bj)" fill="url(#bi)"/>
	<defs>
		<path id="bh" d="m184.75 106.02c0.491 0.486 1.521 2.658 1.521 2.658h10.102c-2.918-1.581-9.711-2.762-11.305-2.762-0.266 0-0.389 0.031-0.318 0.104"/>
	</defs>
	<clipPath id="bg">
		<use width="300" height="236.5" xlink:href="#bh"/>
	</clipPath>
		<radialGradient id="bf" cx="-238.44" cy="853.91" r="2.8083" gradientTransform="matrix(49.402 0 0 -49.402 11865 42238)" gradientUnits="userSpaceOnUse">
		<stop stop-color="#ecdf85" offset="0"/>
		<stop stop-color="#e3b771" offset=".4066"/>
		<stop stop-color="#d2ac6a" offset=".7033"/>
		<stop stop-color="#a09548" offset="1"/>
	</radialGradient>
	<rect x="184.68" y="105.92" width="11.694" height="2.762" clip-path="url(#bg)" fill="url(#bf)"/>
	<defs>
		<path id="be" d="m102.64 113.92-4.517 4.877 8.176 9.451s0.074 0.124 0.074-0.239c0-4.169-1.382-8.853-3.479-14.372l-0.254 0.283z"/>
	</defs>
	<clipPath id="bd">
		<use width="300" height="236.5" xlink:href="#be"/>
	</clipPath>
		<radialGradient id="bc" cx="-238.44" cy="853.77" r="2.8147" gradientTransform="matrix(49.396 0 0 -88.202 11864 75357)" gradientUnits="userSpaceOnUse">
		<stop stop-color="#ecdf85" offset="0"/>
		<stop stop-color="#e3b771" offset=".4066"/>
		<stop stop-color="#d2ac6a" offset=".7033"/>
		<stop stop-color="#a09548" offset="1"/>
	</radialGradient>
	<rect x="98.126" y="113.64" width="8.25" height="14.734" clip-path="url(#bd)" fill="url(#bc)"/>
	<defs>
		<path id="bb" d="m123.96 88.775c-0.13 0-0.53 0.15-1.383 0.515-2.48 1.073-16.021 6.903-31.509 16.494-15.487 9.583-25.68 21.586-25.68 21.586 9.12-6.568 20.985-10.726 20.985-10.726-0.135-1.077-0.267-4.56 1.074-6.906 1.343-2.349 6.235-4.09 9.052-1.409 2.815 2.679 3.285 6.638 3.285 6.638l2.544-2.68-0.05-0.211c-0.467-1.165-0.898-2.161-1.456-3.398h4.621l0.107-0.079s16.557-17.835 17.361-18.706c0.533-0.571 1.291-1.118 1.049-1.118"/>
	</defs>
	<clipPath id="az">
		<use width="300" height="236.5" xlink:href="#bb"/>
	</clipPath>
		<radialGradient id="ay" cx="-238.44" cy="853.93" r="2.8146" gradientTransform="matrix(49.399 0 0 -49.399 11864 42236)" gradientUnits="userSpaceOnUse">
		<stop stop-color="#ecdf85" offset="0"/>
		<stop stop-color="#e3b771" offset=".4066"/>
		<stop stop-color="#d2ac6a" offset=".7033"/>
		<stop stop-color="#a09548" offset="1"/>
	</radialGradient>
	<rect x="65.392" y="88.775" width="58.813" height="38.595" clip-path="url(#az)" fill="url(#ay)"/>
	<defs>
		<path id="ax" d="m123.27 108.68h10.279s60.123-72.978 66.334-80.275c5.764-6.768 4.714-14.543 4.714-14.543l-81.327 94.818z"/>
	</defs>
	<clipPath id="aw">
		<use width="300" height="236.5" xlink:href="#ax"/>
	</clipPath>
		<radialGradient id="av" cx="-238.43" cy="853.88" r="2.8103" gradientTransform="matrix(49.397 0 0 -56.858 11864 48603)" gradientUnits="userSpaceOnUse">
		<stop stop-color="#ecdf85" offset="0"/>
		<stop stop-color="#e3b771" offset=".4066"/>
		<stop stop-color="#d2ac6a" offset=".7033"/>
		<stop stop-color="#a09548" offset="1"/>
	</radialGradient>
	<rect x="123.27" y="13.859" width="82.377" height="94.819" clip-path="url(#aw)" fill="url(#av)"/>
	<defs>
		<path id="au" d="m186 24.402-78.372 84.275h13.318l82.132-95.806c-0.217-0.051-0.444-0.076-0.687-0.076-5.273 4e-3 -16.391 11.607-16.391 11.607"/>
	</defs>
	<clipPath id="at">
		<use width="300" height="236.5" xlink:href="#au"/>
	</clipPath>
		<radialGradient id="as" cx="-238.44" cy="853.92" r="2.8124" gradientTransform="matrix(49.398 0 0 -50.184 11864 42906)" gradientUnits="userSpaceOnUse">
		<stop stop-color="#ecdf85" offset="0"/>
		<stop stop-color="#e3b771" offset=".4066"/>
		<stop stop-color="#d2ac6a" offset=".7033"/>
		<stop stop-color="#a09548" offset="1"/>
	</radialGradient>
	<rect x="107.63" y="12.796" width="95.45" height="95.882" clip-path="url(#at)" fill="url(#as)"/>
	<defs>
		<path id="ar" d="m156.24 97.009c-5.274 4.29-4.288 11.708-4.288 11.708h30.479c-1.25-6.079-11.441-13.407-12.688-13.857-0.599-0.208-2.483-0.704-4.868-0.704-2.63 0-5.867 0.603-8.635 2.853"/>
	</defs>
	<clipPath id="aq">
		<use width="300" height="236.5" xlink:href="#ar"/>
	</clipPath>
		<radialGradient id="ao" cx="-239.67" cy="852.34" r="2.82" gradientTransform="matrix(16.395 0 0 -16.395 4121 14086)" gradientUnits="userSpaceOnUse">
		<stop stop-color="#ecdf85" offset="0"/>
		<stop stop-color="#e3b771" offset=".4066"/>
		<stop stop-color="#d2ac6a" offset=".7033"/>
		<stop stop-color="#a09548" offset="1"/>
	</radialGradient>
	<rect x="150.96" y="94.156" width="31.465" height="14.561" clip-path="url(#aq)" fill="url(#ao)"/>
	<defs>
		<path id="an" d="m20.456 175.15c-7.774 7.682-14.593 12.387-14.593 12.387h6.335c0.77-1.25 9.123-10.274 11.617-13.056 2.5-2.786 9.217-10.178 11.906-13.157 2.687-2.972 8.351-8.16 10.752-10.463 2.4-2.305 7.972-8.928 7.972-8.928-9.219 6.622-26.212 25.538-33.989 33.217"/>
	</defs>
	<clipPath id="am">
		<use width="300" height="236.5" xlink:href="#an"/>
	</clipPath>
		<radialGradient id="al" cx="-238.44" cy="853.93" r="2.814" gradientTransform="matrix(49.397 0 0 -49.397 11864 42235)" gradientUnits="userSpaceOnUse">
		<stop stop-color="#ecdf85" offset="0"/>
		<stop stop-color="#e3b771" offset=".4066"/>
		<stop stop-color="#d2ac6a" offset=".7033"/>
		<stop stop-color="#a09548" offset="1"/>
	</radialGradient>
	<rect x="5.863" y="141.93" width="48.582" height="45.604" clip-path="url(#am)" fill="url(#al)"/>
	<defs>
		<path id="ak" d="m74.112 154.81c-2.08 0.805-3.558 2.749-3.286 5.362 0.27 2.615 2.574 4.728 3.621 5.564 0.332 0.267 0.533-0.67 1.473-2.074 0.939-1.412 1.475-0.54 1.14 0-0.335 0.531-0.467 2.479-0.404 2.945 0.069 0.474 2.418 1.411 5.632 0.539 3.223-0.87 3.624-4.158 3.354-5.899-0.267-1.745-1.271-1.68-1.206-0.604 0.065 1.074-1.005 2.545-2.214 3.286-1.206 0.736-1.673-1.275-0.602-1.944 1.074-0.67 1.002-2.417 0.939-3.421-0.069-1.004-0.604-1.271-2.148-2.813-0.962-0.961-2.365-1.401-3.788-1.401-0.861-1e-3 -1.731 0.156-2.511 0.46"/>
	</defs>
	<clipPath id="aj">
		<use width="300" height="236.5" xlink:href="#ak"/>
	</clipPath>
		<radialGradient id="ai" cx="-238.43" cy="853.92" r="2.7995" gradientTransform="matrix(49.398 0 0 -49.398 11864 42235)" gradientUnits="userSpaceOnUse">
		<stop stop-color="#ecdf85" offset="0"/>
		<stop stop-color="#e3b771" offset=".4066"/>
		<stop stop-color="#d2ac6a" offset=".7033"/>
		<stop stop-color="#a09548" offset="1"/>
	</radialGradient>
	<rect x="70.554" y="154.35" width="15.356" height="13.669" clip-path="url(#aj)" fill="url(#ai)"/>
	<defs>
		<path id="ah" d="m167.3 87.602c-0.415 0.555-2.415 1.379-2.415 1.379l0.14 0.279c13.104 5.519 17.376 13.311 17.376 13.311 1.796 0.135 5.725 0.689 14.005 3.036 8.276 2.346 21.105 7.172 21.105 7.172-14.969-12.691-45.036-25.314-45.036-25.314-1.725 0.416-5.175 0.137-5.175 0.137"/>
	</defs>
	<clipPath id="ag">
		<use width="300" height="236.5" xlink:href="#ah"/>
	</clipPath>
		<radialGradient id="af" cx="-236.98" cy="852.71" r="2.8114" gradientTransform="matrix(29.562 0 0 -29.562 7240.7 25328)" gradientUnits="userSpaceOnUse">
		<stop stop-color="#ecdf85" offset="0"/>
		<stop stop-color="#e3b771" offset=".4066"/>
		<stop stop-color="#d2ac6a" offset=".7033"/>
		<stop stop-color="#a09548" offset="1"/>
	</radialGradient>
	<rect x="164.89" y="87.464" width="52.626" height="25.314" clip-path="url(#ag)" fill="url(#af)"/>
	<defs>
		<path id="ad" d="m162.96 76.637s-0.137 0.417 0.759 1.726c0.897 1.31 1.241 1.173 2.414 1.31 1.171 0.139 2.412 0.824 3.173 2.206 0.759 1.38 2.618 5.173-0.14 1.935-2.756-3.244-2.896-1.384-3.311-1.105-0.412 0.273-0.896 0.067-1.519-1.036-0.621-1.103-2.201-4.279-2.201-4.279l-5.799 6.968s3.107 1.725 5.799 2.552c2.688 0.827 4.753-1.583 4.753-1.583 6.623 1.789 11.728-2.279 8.068-6.622-3.305-3.932-9.241-5.52-9.241-5.52l-2.755 3.448z"/>
	</defs>
	<clipPath id="ac">
		<use width="300" height="236.5" xlink:href="#ad"/>
	</clipPath>
		<radialGradient id="ab" cx="-238.44" cy="853.93" r="2.8165" gradientTransform="matrix(49.397 0 0 -49.397 11864 42235)" gradientUnits="userSpaceOnUse">
		<stop stop-color="#ecdf85" offset="0"/>
		<stop stop-color="#e3b771" offset=".4066"/>
		<stop stop-color="#d2ac6a" offset=".7033"/>
		<stop stop-color="#a09548" offset="1"/>
	</radialGradient>
	<rect x="156.33" y="73.189" width="22.279" height="14.551" clip-path="url(#ac)" fill="url(#ab)"/>
	<defs>
		<path id="aa" d="m105.76 50.154c0.2 0.269 1.137 1.074 2.277 1.273 1.14 0.201 2.079 0.606 2.143 1.14 0.068 0.54-0.132 0.875-1.27 1.142-1.14 0.265-4.629 1.342-4.629 1.342l-0.4 4.22s-2.28 1.541-1.341 2.085c0.937 0.531 1.609 0.196 2.146-0.142 0.536-0.333 0.67-0.534 1.138-0.132 0.469 0.405 1.011 1.139 1.011 1.139s0 0.335-0.542 0.87c-0.532 0.54-1.538 1.744-1.741 2.082-0.2 0.335-0.535 1.676 0.607 1.608 1.134-0.07 2.346-0.07 2.346-0.07l0.333 2.886s-0.94 1.474-1.41 4.893c-0.467 3.42-0.532 5.028 0.072 6.104 0.602 1.071 1.472 1.141 4.958 0.937 3.486-0.199 5.829-1.073 6.505-1.542 0.668-0.47 1.406-1.541 0.198-3.149-1.203-1.61-2.679-7.041-2.882-7.511-0.203-0.467-0.536-1.739 1.811 0.067 2.346 1.814 4.761 4.36 5.161 6.504 0.407 2.146 0.204 5.162-0.335 6.101-0.533 0.94-0.4 1.004 0.201 1.412 0.604 0.4 1.609 0.87 1.947 1.471l4.019-1.613s0.069-2.41 0.407-2.947c0.332-0.535 0.667-2.349-0.338-3.216-1.006-0.875-1.813-1.946-1.544-4.158s1.609-5.498 1.813-1.946c0.201 3.554 0.671 3.892 1.272 4.692 0.604 0.805 1.071 2.146 0.871 3.758-0.201 1.607-0.267 2.746-0.267 2.746l7.573-8.109-0.065-3.621s-1.879-0.534-1.945-1.943c-0.065-1.412 0.538-3.218 1.074-1.142 0.536 2.078 0.871 1.608 1.206 1.608 0.338 0 1.341-0.805 1.409 0.202 0.068 1.002 0.068 3.083 0.068 3.083l14.612-15.756s-5.027-1.206-6.233-2.076c-1.209-0.872-1.948-0.808-1.478 0.604 0.47 1.407 1.074 3.083 1.879 3.551 0.805 0.472 1.876 1.007 1.271 1.946s-1.808 0.067-2.409-0.47c-0.604-0.54-1.541-1.68-1.879-3.151-0.335-1.474-0.47-1.748-1.341-2.883-0.873-1.143-0.873-0.937-1.34-1.477-0.473-0.534-2.08-1.14-1.745 0.334 0.335 1.478 1.071 3.221 1.544 4.228 0.467 1.005 1.541 2.813 2.008 3.953 0.471 1.139 0.539 1.943 0.539 2.749 0 0.803-0.404 1.141-0.874 0-0.47-1.14-0.87-1.944-1.541-2.949-0.667-1.007-0.335-1.541-1.143-2.413-0.8-0.875-3.417-2.819-3.75-3.152-0.335-0.335-0.604 0.473-3.017 0.537l-0.269 2.281s-1.945 1.206-2.685 1.004c-0.735-0.201-1.606-1.474-1.472-2.282 0 0-1.009-1.004-1.808-1.272v-1.541s-0.138-1.143-0.674-1.612c-0.538-0.467-1.478-0.398-1.478 0.939v1.876h-3.818s-0.47 2.952-0.937 3.892c-0.473 0.939-1.945 3.552-2.349 4.627-0.404 1.068-0.871 1.809-1.341 2.48-0.47 0.67-1.612 1.874-1.141-0.135 0.468-2.011 0.468-2.617 0.607-3.421 0.132-0.804 1.003-2.816 1.406-3.552 0.398-0.741 0.668-3.154 0.736-4.426 0.063-1.271 0.336-2.213 0-2.88-0.338-0.671-0.538-1.141-1.879-1.744-1.343-0.602-2.079-0.937-3.15-0.871-1.071 0.067-1.874-0.066-2.679 0.334-0.808 0.405-1.209 0.805-2.618 0.335-1.406-0.47-2.478-0.939-2.75-1.007h-0.024c-0.271 1e-3 -0.832 1.013-0.637 1.276"/>
	</defs>
	<clipPath id="z">
		<use width="300" height="236.5" xlink:href="#aa"/>
	</clipPath>
		<radialGradient id="y" cx="-238.44" cy="853.93" r="2.8118" gradientTransform="matrix(49.397 0 0 -49.397 11864 42234)" gradientUnits="userSpaceOnUse">
		<stop stop-color="#ecdf85" offset="0"/>
		<stop stop-color="#e3b771" offset=".4066"/>
		<stop stop-color="#d2ac6a" offset=".7033"/>
		<stop stop-color="#a09548" offset="1"/>
	</radialGradient>
	<rect x="101.6" y="48.879" width="52.629" height="36.003" clip-path="url(#z)" fill="url(#y)"/>
	<defs>
		<path id="x" d="m106.7 28.771c-2.148 6.365-3.893 14.813-3.893 15.282 0 0.467-0.333 1.542-0.939 1.542-0.602 0-0.8 0.338-0.8 1.004 0 0.669-0.203 1.074 1.539 0.202 1.744-0.868 2.147-1.519 5.452-1.608 3.305-0.091 15.646 0.18 27.534 1.071 11.89 0.894 15.016 2.324 15.016 2.324 0.47-5.519-2.346-18.614-2.346-18.614-0.871 0.199-4.893 1.075-4.893 1.075 1.409 2.877 1.341 11.797 1.341 11.797l-15.488-0.271s-0.671 1.21-3.22 1.21c-2.544 0-3.483-1.946-3.483-1.946h-15.219c0.338-4.425 2.214-12.806 6.771-21.188 4.558-8.377 11.999-11.862 11.999-11.862l0.135 0.599 0.539 0.269-0.27 1.008c-0.811 4.019-2.55 23.598-2.55 23.598 0.473-0.47 0.939-0.672 0.939-0.672s0.066-1.742 0.27-7.443c0.203-5.696 4.226-10.791 4.226-10.791l0.264-6.503c0.738 0.269 4.293 2.751 4.293 2.751 1.942-1.342 4.692-1.948 4.692-1.948-3.151-4.222-8.917-6.77-8.917-6.77-13.139 7.445-20.85 19.51-22.992 25.884"/>
	</defs>
	<clipPath id="w">
		<use width="300" height="236.5" xlink:href="#x"/>
	</clipPath>
		<radialGradient id="v" cx="-238.44" cy="853.93" r="2.8149" gradientTransform="matrix(49.394 0 0 -49.394 11863 42232)" gradientUnits="userSpaceOnUse">
		<stop stop-color="#ecdf85" offset="0"/>
		<stop stop-color="#e3b771" offset=".4066"/>
		<stop stop-color="#d2ac6a" offset=".7033"/>
		<stop stop-color="#a09548" offset="1"/>
	</radialGradient>
	<rect x="100.86" y="2.889" width="50.214" height="45.701" clip-path="url(#w)" fill="url(#v)"/>
	<defs>
		<path id="u" d="m130.96 37.953c0.066 0.872-0.403 2.815-0.403 2.815l12.402 0.067c0.473-5.699-1.741-9.049-1.741-9.049-7.909 2.547-10.258 6.167-10.258 6.167"/>
	</defs>
	<clipPath id="s">
		<use width="300" height="236.5" xlink:href="#u"/>
	</clipPath>
		<radialGradient id="r" cx="-238.44" cy="853.93" r="2.8074" gradientTransform="matrix(49.397 0 0 -49.397 11864 42235)" gradientUnits="userSpaceOnUse">
		<stop stop-color="#ecdf85" offset="0"/>
		<stop stop-color="#e3b771" offset=".4066"/>
		<stop stop-color="#d2ac6a" offset=".7033"/>
		<stop stop-color="#a09548" offset="1"/>
	</radialGradient>
	<rect x="130.56" y="31.787" width="12.875" height="9.05" clip-path="url(#s)" fill="url(#r)"/>
	<defs>
		<path id="q" d="m109.24 40.097h12.34c-0.338-3.286 0.736-4.155 0.736-4.155 0-1.074 2.414-23.396 2.414-23.396-12.337 7.373-15.49 27.551-15.49 27.551"/>
	</defs>
	<clipPath id="p">
		<use width="300" height="236.5" xlink:href="#q"/>
	</clipPath>
		<radialGradient id="o" cx="-238.43" cy="853.77" r="2.8083" gradientTransform="matrix(49.393 0 0 -87.878 11863 75081)" gradientUnits="userSpaceOnUse">
		<stop stop-color="#ecdf85" offset="0"/>
		<stop stop-color="#e3b771" offset=".4066"/>
		<stop stop-color="#d2ac6a" offset=".7033"/>
		<stop stop-color="#a09548" offset="1"/>
	</radialGradient>
	<rect x="109.24" y="12.546" width="15.488" height="27.551" clip-path="url(#p)" fill="url(#o)"/>
	<defs>
		<path id="n" d="m123.21 38.656c0 1.868 1.341 3.387 2.994 3.387 1.654 0 2.994-1.519 2.994-3.387s-1.34-3.386-2.994-3.386-2.994 1.518-2.994 3.386"/>
	</defs>
	<clipPath id="m">
		<use width="300" height="236.5" xlink:href="#n"/>
	</clipPath>
		<radialGradient id="l" cx="-238.44" cy="853.89" r="2.8173" gradientTransform="matrix(49.394 0 0 -55.864 11863 47755)" gradientUnits="userSpaceOnUse">
		<stop stop-color="#ecdf85" offset="0"/>
		<stop stop-color="#e3b771" offset=".4066"/>
		<stop stop-color="#d2ac6a" offset=".7033"/>
		<stop stop-color="#a09548" offset="1"/>
	</radialGradient>
	<rect x="123.21" y="35.27" width="5.988" height="6.773" clip-path="url(#m)" fill="url(#l)"/>
	<defs>
		<path id="k" d="m157.78 8.791c-10.455 1.606-13.876 1.941-17.834 2.343-3.95 0.401-10.12 4.292-11.928 9.857-1.813 5.564-1.544 11.397-1.544 11.397s1.209 0 1.606 0.738c0 0 0.135-6.906 2.215-12.001 2.079-5.094 4.691-6.638 7.774-7.038 3.087-0.405 11.331-0.202 16.831-1.212 5.497-1.004 13.067-3.08 15.284-5.294 0 0-0.472 6.034-2.414 9.252-1.945 3.221-2.55 1.876-4.024 0.74-1.473-1.146-4.555-3.019-6.901-2.282-2.349 0.739-2.884 1.072-1.076 1.136 1.813 0.07 3.22 1.345 4.225 2.684 1.009 1.342 2.682 4.292 0.066 2.349-2.613-1.946-4.758-3.151-6.437-3.752-1.673-0.604-4.288-0.604-2.813 0.264 1.476 0.875 4.758 3.285 5.697 4.625 0.939 1.345 2.077 4.292-1.005 0.942s-6.571-4.158-7.376-4.494c-0.802-0.335-1.341 0-0.401 1.074 0.939 1.074 2.547 2.684 2.819 3.823 0.266 1.14 0.87 2.077-1.41 0.604-2.279-1.477-5.766-3.42-8.579-4.357-2.818-0.939-6.508-0.674-1.947 0.937 4.558 1.61 6.368 4.023 6.703 5.095s1.073 1.612-0.938 1.007c-2.011-0.604-6.37-1.745-8.714-1.879-2.346-0.135-3.893-0.672-4.628 3.489-0.736 4.155-0.736 5.562-0.736 6.098 0 0.537 0 0.805 0.67 0.07 0.671-0.74 6.032-4.357 13.408-5.97 7.374-1.608 11.129-1.409 13.744-1.94 2.615-0.54 8.647-3.489 10.79-8.45 2.148-4.962 3.558-10.194 3.621-13.542 1e-3 -1e-3 -4.284 2.077-14.748 3.687"/>
	</defs>
	<clipPath id="j">
		<use width="300" height="236.5" xlink:href="#k"/>
	</clipPath>
		<radialGradient id="h" cx="-241.65" cy="855.14" r="2.8111" gradientTransform="matrix(18.134 0 0 -18.134 4507.5 15544)" gradientUnits="userSpaceOnUse">
		<stop stop-color="#ecdf85" offset="0"/>
		<stop stop-color="#e3b771" offset=".4066"/>
		<stop stop-color="#d2ac6a" offset=".7033"/>
		<stop stop-color="#a09548" offset="1"/>
	</radialGradient>
	<rect x="126.2" y="5.103" width="46.324" height="30.637" clip-path="url(#j)" fill="url(#h)"/>
	<path d="m102.42 173.54c1.167 13.936 6.568 24.173 24.611 37.936 21.004 16.035 21.372 21.382 22.479 21.382 1.106 0 1.279-5.347 22.289-21.382 18.038-13.763 23.441-24 24.606-37.936h-25.477c0.412 0.768 0.796 1.64 1.132 2.639 2.147 6.385-1.698 12.02-1.698 12.02l3.398 5.452h-5.006s0.289 6.361-3.732 10.049c-4.022 3.683-9.049 3.986-12.637 2.245l-0.083 0.132-2.823 4.771-2.775-4.771-0.079-0.132c-3.588 1.741-8.612 1.438-12.64-2.245-4.019-3.688-3.73-10.049-3.73-10.049h-5.005l3.397-5.452s-3.848-5.634-1.7-12.02c0.319-0.948 0.682-1.786 1.074-2.529l0.088-0.11h-25.689z" fill="#db2128"/>
	<path d="m149.52 111.32h44.28c-5.39 13.826-5.189 22.8-3.414 30.213l-81.938 2e-3c1.774-7.413 1.975-16.389-3.415-30.215h44.487z" fill="#fff"/>
	<path d="m103.8 172.22h24.946l0.141 0.011c2.678-3.836 6.043-4.171 6.043-4.171l-0.802-6.031 5.159 2.684s3.285-5.966 10.191-5.966h0.063c6.9 0 10.188 5.966 10.188 5.966l5.162-2.684-0.803 6.031s3.35 0.335 6.022 4.146v0.014h26.396c0.118-1.893 0.17-3.844 0.17-5.893 0-8.816-3.541-15.039-5.73-22.667h-83.063c-2.189 7.629-5.73 13.851-5.73 22.667 0 2.048 0.053 4 0.173 5.893h1.474z" fill="#fff"/>
	<path d="m121.38 69.327s-0.201-4.756-0.201-5.293 0-0.608 0.47-0.608 0.868 0.206 0.868-0.334c0-0.534-0.135-4.084-0.135-4.084s0.072-1.007 1.012-0.067c0.937 0.937 0.736 1.203 1.269 1.673 0.538 0.47 0.742 1.075 0.069 1.008-0.671-0.072-1.338-0.335-1.338 0.937 0 1.273 0 2.213-0.471 3.018-0.469 0.802-0.406 1.944-0.406 2.414s-0.733 2.611-1.137 1.336" fill="#231f20"/>
	<path d="m130.36 61.954c-0.197 1.275-0.871 3.015-1.609 2.681-0.736-0.335-0.47-2.815-0.063-4.222 0.4-1.407 2.411-3.219 1.672 1.541" fill="#231f20"/>
	<path d="m132.44 77.106s-0.404-4.225-0.736-4.829c-0.338-0.606-0.607-0.335-0.939-0.335-0.336 0-0.939 0.335-0.939-1.004 0-1.342 0.2-5.293 0.805-6.369 0.604-1.074 1.271-0.604 0.937 0.467-0.332 1.075-0.667 2.954-0.065 3.755 0.604 0.805 2.079 1.407 2.079 3.017-2e-3 1.608 0.467 6.101-1.142 5.298" fill="#231f20"/>
	<defs>
		<polygon id="g" points="132.04 12.546 131.5 12.343 131.44 13.08"/>
	</defs>
	<clipPath id="f">
		<use width="300" height="236.5" xlink:href="#g"/>
	</clipPath>
		<radialGradient id="e" cx="-238.4" cy="853.96" r="2.7503" gradientTransform="matrix(55.302 0 0 -67.793 13247 57932)" gradientUnits="userSpaceOnUse">
		<stop stop-color="#ecdf85" offset="0"/>
		<stop stop-color="#d3ac5b" offset=".7033"/>
		<stop stop-color="#a59949" offset="1"/>
	</radialGradient>
	<rect x="131.44" y="12.343" width=".602" height=".737" clip-path="url(#f)" fill="url(#e)"/>
	<path d="m149.56 160.84s7.915-0.736 10.126 8.718c3.417-0.206 9.184 1.004 10.928 8.377 1.742 7.376-4.425 11.733-4.425 11.733 1.271 2.15 2.008 10.861-4.429 14.35-6.437 3.484-12.2-2.346-12.2-2.346h-8e-3s-5.717 5.831-12.15 2.346c-6.437-3.489-5.7-12.2-4.426-14.35 0 0-6.17-4.357-4.426-11.733 1.742-7.373 7.508-8.583 10.929-8.377 2.214-9.454 10.125-8.718 10.125-8.718h-0.044z" fill="#fff"/>
	<path d="m149.56 163.85s6.835-0.636 8.744 7.528c2.956-0.171 7.937 0.868 9.438 7.24 1.509 6.372-3.82 10.138-3.82 10.138 1.102 1.852 1.736 9.378-3.821 12.395-5.561 3.01-10.541-2.031-10.541-2.031h-5e-3s-4.937 5.041-10.5 2.031c-5.56-3.016-4.926-10.543-3.821-12.395 0 0-5.332-3.766-3.823-10.138 1.505-6.372 6.485-7.412 9.441-7.24 1.909-8.164 8.744-7.528 8.744-7.528h-0.036z" fill="#fff"/>
	<path d="m149.56 163.85s6.835-0.636 8.744 7.528c2.956-0.171 7.937 0.868 9.438 7.24 1.509 6.372-3.82 10.138-3.82 10.138 1.102 1.852 1.736 9.378-3.821 12.395-5.561 3.01-10.541-2.031-10.541-2.031h-5e-3s-4.937 5.041-10.5 2.031c-5.56-3.016-4.926-10.543-3.821-12.395 0 0-5.332-3.766-3.823-10.138 1.505-6.372 6.485-7.412 9.441-7.24 1.909-8.164 8.744-7.528 8.744-7.528h-0.036z" fill="none" stroke="#231f20" stroke-width="1.606"/>
	<path d="m149.57 176.76c2.135 0 3.151 1.843 3.151 1.843l1.593-0.828-0.247 1.865s1.676 0.164 2.465 2.507c0.662 1.975-0.528 3.712-0.528 3.712l1.05 1.686h-1.544s0.091 1.967-1.153 3.105c-1.242 1.14-2.797 1.232-3.904 0.695l-0.024 0.043-0.873 1.474-0.857-1.474-0.024-0.043c-1.107 0.537-2.662 0.445-3.904-0.695-1.244-1.139-1.153-3.105-1.153-3.105h-1.55l1.053-1.686s-1.189-1.737-0.525-3.712c0.789-2.343 2.465-2.507 2.465-2.507l-0.247-1.865 1.593 0.828s1.017-1.843 3.148-1.843h0.015z" fill="#231f20"/>
	<path d="m149.56 177.86s2.28-0.21 2.92 2.515c0.986-0.056 2.648 0.292 3.154 2.423 0.502 2.126-1.277 3.38-1.277 3.38 0.367 0.625 0.582 3.137-1.277 4.144-1.857 1.004-3.52-0.679-3.52-0.679h-3e-3s-1.65 1.683-3.508 0.679c-1.857-1.007-1.646-3.519-1.277-4.144 0 0-1.78-1.254-1.277-3.38 0.503-2.13 2.17-2.479 3.153-2.423 0.638-2.725 2.92-2.515 2.92-2.515h-8e-3z" fill="#fff"/>
	<path d="m150.77 184.77c0 0.708-0.574 1.283-1.283 1.283s-1.285-0.574-1.285-1.283 0.576-1.283 1.285-1.283 1.283 0.574 1.283 1.283" fill="#231f20"/>
<rect x="163.27" y="132.85" width="3.192" height="3.13" fill="#231f20"/>
	<path d="m178.47 126.35c-0.2-1.442-1.585-2.54-3.17-2.54-2.865 0-3.942 2.439-3.942 4.979 0 2.418 1.077 4.858 3.942 4.858 1.953 0 3.049-1.342 3.291-3.252h3.093c-0.326 3.618-2.826 5.937-6.384 5.937-4.491 0-7.137-3.354-7.137-7.542 0-4.311 2.646-7.663 7.137-7.663 3.195 0 5.873 1.871 6.264 5.224h-3.094z" fill="#231f20"/>
<rect x="183.37" y="132.85" width="3.189" height="3.13" fill="#231f20"/>
	<path d="m115.12 133.3h2.846c1.852 0 3.618-1.136 3.618-4.349 0-2.929-1.017-4.796-4.187-4.796h-2.277v9.145zm-3.193-11.829h6.264c3.761 0 6.582 2.357 6.582 7.177 0 4.205-2.151 7.336-6.582 7.336h-6.264v-14.513z" fill="#231f20"/>
<rect x="126.5" y="132.85" width="3.189" height="3.13" fill="#231f20"/>
	<path d="m135.21 128.04h3.494c1.423 0 2.197-0.61 2.197-2.073 0-1.404-0.774-2.012-2.197-2.012h-3.494v4.085zm-3.192-6.566h7.826c2.602 0 4.247 1.812 4.247 4.002 0 1.708-0.689 2.987-2.294 3.641v0.042c1.563 0.405 2.012 1.93 2.113 3.393 0.061 0.917 0.041 2.622 0.609 3.435h-3.189c-0.39-0.915-0.346-2.318-0.511-3.475-0.226-1.524-0.813-2.196-2.417-2.196h-3.192v5.671h-3.192v-14.513z" fill="#231f20"/>
<rect x="146.21" y="132.85" width="3.192" height="3.13" fill="#231f20"/>
<polygon points="161.94 121.47 161.94 124.16 154.92 124.16 154.92 127.51 161 127.51 161 129.99 154.92 129.99 154.92 135.98 151.73 135.98 151.73 121.47" fill="#231f20"/>
</svg>
