<svg xmlns="http://www.w3.org/2000/svg" width="571.828" height="601.023"><path fill="#FFE600" d="M569.38 334.24c-8.57-12.75-12.97-45.55-12.97-56.75 0-7.4-3.98-24.62-40.92-24.62-18.83 0-36.56 11.22-45.45 17.9-5.43 4.1-23.18 18.4-23.18 30.63 0 10 5.76 16.34 10.4 21.44 1.37 1.52 2.64 2.93 3.74 4.37-38 29.18-82.52 48.38-129.67 55.9 3.64-4.04 5.56-9.18 5.56-15.13 0-3.8-1.58-9.26-9.03-13.74-1.23-.77-4.68-2.54-11.85-4.05 4.88-1.37 10.1-2.7 15.26-4 24.55-6.24 55.1-14 79.8-31.2 29.48-20.56 44.42-50.8 44.42-89.93 0-36.58-10.6-65.3-19.12-88.37-5.34-14.46-9.95-26.95-9.95-36.6 0-17.97 18.94-39.13 25.47-44.4l7.6-6.14-7.34-6.44L407.6 3.97 403.08 0l-5.16 3.12-.5.3c-21.23 12.85-35.25 21.33-61.8 21.33-19.9 0-40.76-11.23-43.73-13.64l-5.2-4.2-5.17 4.2c-2.96 2.42-23.8 13.65-43.72 13.65-26.54 0-40.57-8.48-61.8-21.33l-.5-.3L170.36 0l-4.53 3.98-44.55 39.12-7.33 6.44 7.6 6.13c6.5 5.27 25.45 26.45 25.45 44.4 0 9.66-4.6 22.15-9.95 36.6-8.52 23.1-19.12 51.8-19.12 88.38 0 39.12 14.94 69.37 44.4 89.92 24.7 17.2 55.27 24.97 79.82 31.2 5 1.27 10.04 2.55 14.78 3.87-8 1.62-11.72 3.57-12.88 4.3-6.05 3.64-9.12 8.23-9.12 13.63 0 5.95 1.92 11.1 5.57 15.13-47.16-7.52-91.67-26.72-129.67-55.9 1.1-1.43 2.38-2.84 3.75-4.36 4.64-5.1 10.4-11.43 10.4-21.43 0-12.22-17.75-26.53-23.18-30.62-8.9-6.68-26.63-17.9-45.45-17.9-36.95 0-40.93 17.2-40.93 24.6 0 11.2-4.4 44-12.97 56.76C1 336.14 0 338.67 0 341.7c0 2.85.87 6.13 3.07 9.7l.08.14.08.13c.15.22 15.57 22.7 30.56 22.72 1.12 1 2.24 2 2.24 2 65.3 58.8 149.6 92.82 237.35 95.78l8.8.3s-.66-28.6-.87-37.3c1.7-.3 3.25-.48 4.58-.48 1.34 0 2.9.17 4.6.5-.2 8.67-.87 37.27-.87 37.27l8.8-.3c87.76-2.95 172.07-36.96 237.36-95.77 0 0 1.1-1 2.23-2 15-.02 30.4-22.5 30.56-22.73l.08-.13.08-.13c2.2-3.57 3.07-6.85 3.07-9.7 0-3.03-1-5.54-2.45-7.46z"/><path fill="#24559B" d="M562.48 338.9c-10.05-14.95-14.4-49.7-14.4-61.4 0-11.7-14.67-16.3-32.6-16.3-27.43 0-60.3 29.9-60.3 40.2 0 11.97 12.48 16.58 16.53 28-41.7 33.66-92.7 56.23-148.53 63.28l-.33-13.06c3.33-2.42 5.73-6 5.73-11.65 0-2.44-1.75-4.67-5.02-6.63 0 0-8.08-5.4-37.45-5.4-29.16 0-37.7 5.5-37.7 5.5-3.3 1.97-5.15 4.08-5.15 6.53 0 5.65 2.4 9.23 5.74 11.65l-.35 13.06c-55.84-7.06-106.83-29.63-148.53-63.27 4.04-11.42 16.54-16.03 16.54-28 0-10.32-32.87-40.2-60.3-40.2-17.94 0-32.62 4.62-32.62 16.3s-4.35 46.45-14.4 61.4c-1.62 1.62-1.35 4.6.82 8.14 2.72 4.08 14.95 19.02 23.64 19.02 4.07 0 6.24-1.9 6.8-5.7.18-2 1.25-6.5 2.9-12.16 1.8 1.6 3.74 3.25 5.82 5l-7.7 17c61.88 55.76 142.93 90.65 232.06 93.65l-.82-35.04c2.45-.8 7.88-2.43 13.05-2.43 5.18 0 10.62 1.64 13.07 2.44l-.82 35.05c89.13-3 170.17-37.9 232.07-93.64l-9.16-20.18c2.06-1.8 4.12-3.63 6.17-5.47 2.27 7.35 3.76 13.38 4 15.8.55 3.8 2.72 5.7 6.8 5.7 8.7 0 20.92-14.93 23.64-19 2.17-3.54 2.44-6.53.8-8.15z"/><path fill="#fff" d="M94.23 323.03c-4.48-3.84-9.4-8.07-13.65-12.18 1.84-2.1 2.93-2.38 4.02-2.38 2.44.27 14.67 4.07 17.1 3.53-2.7 2.18-7.07 9.57-7.47 11.03zM258.26 383.78c5.06 1.6 9.45 2.6 9.45 5.38 0 1.08-1.08 5.7-9.77 4.6l.33-9.98zM313.56 383.78c-5.06 1.6-9.44 2.6-9.44 5.38 0 1.08 1.1 5.7 9.78 4.6l-.34-9.98zM285.9 363.62c22.84 0 31.26 3 31.26 6.8 0 6.25-22.82 5.16-22.82 19 0 7.06 3.26 9.24 5.36 10.9l-.36 15.73c-6.35-1.36-9.07-2.18-13.43-2.18-4.34 0-7.05.82-13.4 2.18l-.38-15.74c2.1-1.64 5.37-3.82 5.37-10.87 0-13.85-22.84-12.77-22.84-19.02 0-3.8 8.43-6.78 31.25-6.78zM477.6 323.03c4.46-3.84 9.4-8.07 13.63-12.18-1.83-2.1-2.92-2.38-4-2.38-2.45.27-14.68 4.08-17.12 3.53 2.73 2.18 7.1 9.57 7.5 11.03zM45.76 340.82c5.5-16.98 14.26-38.65 21.18-41.3-9.24-1.1-31.25-8.44-31.25-23.65 0-4.07 9.23-6.8 18.75-6.8 23.62 0 51.33 22.96 51.33 31.8 0 3.8-3.8 3.8-5.97 3.8-4.34 0-8.7-3-15.74-3-3.27 0-11.63.1-16.82 12l-14.9 32.86c-2.38-2.03-4.58-3.94-6.58-5.7zM518.02 343.3l-13.43-29.63c-5.2-11.9-13.57-12-16.83-12-7.06 0-11.4 3-15.76 3-2.16 0-5.96 0-5.96-3.8 0-8.84 27.7-31.8 51.35-31.8 9.5 0 18.73 2.73 18.73 6.8 0 15.22-22 22.55-31.25 23.64 6.44 2.48 14.47 21.38 19.98 37.68-2.28 2.07-4.55 4.1-6.84 6.13zM515.6 303.64c22-6.92 25.67-17.92 25.94-20.9-.7 21.32 10.05 51.2 13.44 56.64 1.63 2.72 1.22 5.15.68 5.97-.95 1.36-12.22 13.72-15.9 14.95-4.9 1.1-4.6-1.9-4.9-3.27-4.33-23.63-17.1-49.85-19.27-53.4M54.82 303.64c-2.17 3.54-14.93 29.76-19.3 53.4-.25 1.35 0 4.34-4.87 3.26-3.68-1.23-14.94-13.6-15.9-14.95-.54-.82-.95-3.26.7-5.97 3.38-5.43 14.1-35.32 13.43-56.64.27 2.97 3.94 13.98 25.94 20.9M73.97 314.53c49.74 48.88 116.36 80.64 190.3 85.78l1.63 57.67c-82.95-4.46-158.42-37.06-217.04-88.4l25.1-55.04M306.13 400.3c73.95-5.13 140.57-36.9 190.32-85.77l25.1 55.04c-58.62 51.34-134.1 83.94-217.05 88.4l1.63-57.66"/><path fill="#24559B" d="M46.95 306.24c-3-.83-13.05-7.07-14.13-8.7-.14 14.26-10.87 40.74-12.77 42.92-.8.8-.95 2.72 0 4.07.8 1.1 8.02 7.88 9.64 8.97 1.76 1.23 1.9-.68 1.9-.68 2.72-15.48 13.7-43.05 15.35-46.58M76.62 324.64l-19.8 43.2c55.02 46.5 125.3 77.6 201.5 83.4l-1.1-46.13c-68.82-6.26-132.45-36.33-180.6-80.46M313.2 405.1l-1.1 46.13c76.2-5.8 146.47-36.88 201.5-83.4l-19.8-43.2c-48.16 44.14-111.78 74.2-180.6 80.48M523.47 306.24c1.63 3.53 12.63 31.1 15.35 46.58 0 0 .13 1.9 1.9.68 1.63-1.1 8.83-7.88 9.65-8.97.95-1.35.8-3.25 0-4.07-1.9-2.18-12.64-28.65-12.77-42.92-1.1 1.63-11.15 7.88-14.13 8.7"/><path fill="#24559B" d="M42.56 112.18c-5.9 0-12.36 0-12.36 0l5.8 5.8v35.75l-5.8 5.8h24.72l-5.8-5.8v-35.75l5.8-5.8s-6.47 0-12.36 0zM457.22 128.75v-16.4h41.8l-22.5 61.9v6.08h-11.9l25.13-58.72h-25.92zM102.4 123.44c.56-.35 9.5-6.03 9.5-14.42 0-12.88-8.66-19.05-21.07-19.06 0 0-.02 0-.03 0s-.03 0-.03 0c-12.4 0-21.07 6.18-21.07 19.06 0 8.4 8.94 14.07 9.5 14.42-.56.35-12.66 4.07-12.66 18.22 0 14.15 11.82 19.05 24.23 19.06 0 0 .02 0 .03 0s.02 0 .03 0c12.4 0 24.23-4.9 24.23-19.06 0-14.16-12.1-17.87-12.67-18.22zM90.77 92.5c5.5 0 9.94 6.7 9.94 14.9 0 8.24-4.45 14.9-9.94 14.9-5.48 0-9.93-6.66-9.93-14.9 0-8.2 4.45-14.9 9.94-14.9zm0 66.08c-6.68 0-12.1-7.67-12.1-17.13 0-9.45 5.42-17.12 12.1-17.12 6.7 0 12.13 7.67 12.13 17.12 0 9.46-5.42 17.13-12.12 17.13zM543.65 123.44c.57-.35 9.5-6.03 9.5-14.42 0-12.88-8.65-19.05-21.06-19.06 0 0-.03 0-.04 0 0 0-.03 0-.03 0-12.4 0-21.07 6.18-21.07 19.06 0 8.4 8.94 14.07 9.5 14.42-.56.35-12.66 4.07-12.66 18.22 0 14.15 11.82 19.05 24.23 19.06 0 0 .03 0 .03 0s.03 0 .03 0c12.4 0 24.22-4.9 24.22-19.06 0-14.16-12.1-17.87-12.67-18.22zm-11.6-30.93c5.48 0 9.93 6.7 9.93 14.9 0 8.24-4.45 14.9-9.94 14.9-5.48 0-9.93-6.66-9.93-14.9 0-8.2 4.46-14.9 9.94-14.9zm0 66.08c-6.7 0-12.12-7.67-12.12-17.13 0-9.45 5.43-17.12 12.1-17.12 6.7 0 12.14 7.67 12.14 17.12 0 9.46-5.43 17.13-12.13 17.13zM40.75 545.02c0-15.08 0-41.55 0-41.55l-11.58-10.9h72.88v22.5L89.1 501.42H60.5v36.78h21.12l8.17-9.52v26.6l-8.18-9.55H60.5v42.9h28.6L102.06 575v22.47H29.17l11.58-10.9s0-26.46 0-41.55zM146.33 524.6h-40.87l10.9 10.2 25.2 62.68h12.26l24.52-64.03 10.9-8.86h-28.6l10.2 8.16-17.02 42.92-17.03-42.23zM309.27 520.18c-4.4 0-16.7 12.16-20.58 16.1v-15.94c-8.93 2.97-29.98 10.22-29.98 10.22l10.9 10.9v45.63l-9.54 10.2h38.14l-9.53-10.2v-39.2l12.93-14.62s1.67-2.1 3.3-2.1c1.65 0 3.05 2.1 3.05 2.1l14.75 15.1v-28.2s-8.2 0-13.46 0zM497.47 548.08v39.18l9.54 10.22h-38.13l9.53-10.22v-45.64l-10.9-10.9s21.06-7.24 29.97-10.2v15.93s13-17.65 31.6-17.65c10.7 0 17.14 8.58 17.14 15.73v52.9l10.74 10.02H526.9s0-50.2 0-58.06-2.85-9.88-9.28-9.88c-6.44 0-20.15 18.56-20.15 18.56zM377.47 529.52v-7.15h-21.45c0-11.6 0-20.02 0-20.02l-25.74 26.46v6.44h6.44s0 32.9 0 48.62c0 9.3 11.44 17.16 21.45 17.16 10 0 18.6-12.87 18.6-12.87l-2.87-4.3c-10 11.45-17.87 11.45-17.87 5.73 0-3.52 0-35.78 0-60.06h21.44zM421.1 520.57c-21.46 0-38.85 18-38.85 40.23 0 22.22 17.4 40.22 38.84 40.22s38.83-18 38.83-40.22-17.4-40.23-38.84-40.23zm0 73.52c-9.97 0-18.04-14.9-18.04-33.3s8.07-33.3 18.03-33.3 18.02 14.9 18.02 33.3-8.07 33.3-18.03 33.3zM227.38 592.85c-6.27 0-10.7-1.86-13.8-4.7-6.1-5.04-7.9-16.52-7.9-29.9l51.6-.18c-1.1-21.25-16.84-38.1-36.08-38.1-19.96 0-36.14 18.14-36.14 40.53 0 22.38 16.18 40.52 36.14 40.52 12.48 0 27.13-4.9 33.63-15.68l-4.3-3.4s-7.48 10.9-23.15 10.9zm-5.46-66.75c16.33.02 14.97 25.2 14.97 25.2s-7.62 0-14.98 0c-7.37 0-14.97 0-14.97 0s-1.36-25.18 14.97-25.2z"/><path fill="#fff" d="M105.28 359.14l3.3 2.2-16.45 24.7-3.52-2.33 4.85-22.2-.05-.02-11.72 17.62-3.28-2.2 16.44-24.7 3.7 2.47-4.75 21.65.03.04 11.45-17.22zM103.44 392.88l-3.63-2.16 15.24-25.5 3.63 2.18-15.23 25.48zM117.66 394.8l8.85 4.78-2.55 4.72-12.56-6.8 14.1-26.1 3.72 2-11.56 21.4zM148.83 406.1c-.63 1.5-1.37 4.62 2.02 6.1 1.85.8 4.16 1.03 5.4-1.85.93-2.13-.22-3.3-1.9-4.84l-1.68-1.53c-2.55-2.33-5.02-4.57-2.43-10.57 1.3-3.03 4.75-7.9 10.77-5.3 5.7 2.48 4.86 8.6 3.44 11.96l-3.73-1.62c.44-1.26 1.38-4.28-2-5.74-1.5-.65-3.58-.6-4.66 1.85-.92 2.13.08 3.1.73 3.7l3.82 3.6c2.13 2 3.8 4.53 1.68 9.42-3.55 8.2-9.55 6.45-11.18 5.75-6.77-2.94-5.45-9.17-4-12.55l3.73 1.62zM179.78 403.63h.04l-1.62 11.9-4.85-1.74 6.43-10.17zm-9.23 14.6l7.02 2.53-.86 6.2 4.34 1.55 3.37-30.32-4.58-1.66L162.96 422l4.2 1.5 3.4-5.27zM194.57 432.62l-4.06-1.2L197.5 408l-5.86-1.75 1.5-5.03 15.78 4.7-1.5 5.03-5.86-1.74-6.97 23.42zM211.7 437.15l-4.13-1 7.07-28.84 4.1 1.02-7.06 28.83zM225.33 430.83c-.28 1.64-.32 4.82 3.32 5.5 1.96.38 4.28.1 4.87-3 .43-2.26-.95-3.15-2.92-4.27l-2-1.15c-3-1.68-5.9-3.34-4.7-9.74.63-3.26 2.9-8.77 9.36-7.54 6.1 1.16 6.62 7.3 5.97 10.9l-4-.76c.15-1.33.4-4.47-3.23-5.15-1.58-.3-3.62.2-4.12 2.83-.43 2.28.75 3.02 1.53 3.46l4.52 2.65c2.53 1.48 4.7 3.6 3.72 8.82-1.66 8.78-7.9 8.4-9.65 8.06-7.26-1.36-7.34-7.73-6.66-11.35l4 .75zM332.96 411.83l3.9-.53 4.05 29.4-4.18.58-11.06-19.84h-.05l2.9 20.97-3.92.55-4.04-29.4 4.4-.62 10.8 19.4.04-.02-2.82-20.47zM349.65 439.03l-4.15.78-5.48-29.16 4.16-.78 5.47 29.17zM355.25 428.56c.4 1.6 1.68 4.53 5.27 3.7 1.95-.47 3.96-1.67 3.24-4.72-.53-2.26-2.16-2.52-4.4-2.74l-2.3-.24c-3.43-.33-6.75-.65-8.25-7.02-.74-3.2-.9-9.17 5.5-10.67 6.03-1.42 9 4 9.87 7.53l-3.95.94c-.4-1.27-1.46-4.25-5.05-3.4-1.57.36-3.23 1.64-2.62 4.26.53 2.26 1.9 2.44 2.8 2.54l5.2.6c2.92.33 5.77 1.36 7 6.56 2.03 8.68-3.82 10.86-5.55 11.27-7.2 1.68-9.86-4.1-10.7-7.68l3.95-.94zM377.25 432.35l-4.06 1.16-8.1-28.56 4.07-1.16 8.08 28.57zM387.55 413.56c-2.85-7.8-.54-10.85 1.6-11.63 2.15-.8 5.88.06 8.73 7.86 2.84 7.8.53 10.84-1.62 11.63-2.14.78-5.87-.06-8.7-7.88zm-3.97 1.44c4.77 13.1 11.96 12.27 14.5 11.36 2.5-.92 8.53-4.92 3.77-18.02-4.77-13.08-11.97-12.26-14.5-11.35-2.5.9-8.54 4.92-3.77 18zM408.72 404.28l-3.5-7.98 3.06-1.36c2.4-1.05 3.9-.4 5.05 2.25.53 1.2 1.87 4.23-1.03 5.5l-3.58 1.58zm2.06 4.7l4.44-1.96c4.98-2.18 3.18-8.8 2.1-11.25-2.34-5.34-6-7.76-9.58-6.2l-8.47 3.74 11.95 27.18 3.87-1.7-4.32-9.8zM437.02 408.44l-3.77 1.9-11.04-21.8-5.44 2.77-2.37-4.68 14.68-7.43 2.37 4.68-5.46 2.76 11.02 21.8zM448.68 402.2l-3.7 2.03-14.35-25.98 3.7-2.05 14.35 26zM469.5 389.78l-3.37 2.06-12.93-21.17-.05.04 9.7 23.13-3.53 2.17-16.08-19.25-.05.03 12.92 21.17-3.37 2.07-15.47-25.34 5.27-3.23 15.32 18.06.05-.02-9.1-21.84 5.2-3.2 15.47 25.34zM481.25 369.14c4.44 6.42 3.7 11-.5 13.9-1.52 1.07-4.17 2.1-7.32.7-1.94-.86-3.66-2.6-5.4-5l-11.2-16.2 3.55-2.44 10.96 15.83c2.36 3.4 4.74 3.98 6.36 2.85 2.4-1.65 2.18-4.03.14-6.98l-11.13-16.1 3.55-2.44 11 15.88zM506.73 362.74l-3.12 2.4-15.17-19.6-.04.02 12.18 21.93-3.28 2.53-18.1-17.36-.04.04 15.18 19.63-3.13 2.4-18.15-23.47 4.9-3.77 17.2 16.24.05-.02L483.73 343l4.85-3.74 18.15 23.48z"/><radialGradient id="a" cx="-3584.42" cy="-3608.45" r="141.824" gradientTransform="matrix(1.175 0 0 1.175 4497.398 4421.418)" gradientUnits="userSpaceOnUse"><stop offset=".55" stop-color="#00AEE8"/><stop offset="1" stop-color="#24559B"/></radialGradient><path fill="url(#a)" d="M126.7 49.27l44.54-39.12c22.02 13.32 37.5 22.82 66.57 22.82 21.74 0 44.56-11.95 48.9-15.48 4.37 3.52 27.2 15.47 48.92 15.47 29.06 0 44.55-9.5 66.56-22.8l44.56 39.1c-7.07 5.7-28.53 29.07-28.53 50.8 0 27.45 29.08 65.94 29.08 124.98 0 117.63-139.36 104.32-160.57 129.85-21.18-25.53-160.55-12.22-160.55-129.85 0-59.04 29.07-97.53 29.07-124.97 0-21.73-21.46-45.1-28.52-50.8z"/><path fill="#fff" d="M240.8 83.52c0 3.26 1.1 4.9 3.25 4.9 6.53 0 5.7-10.87 5.17-15.5-.82 4.9-8.42 6.53-8.42 10.6zM190.8 54.45c7.34 0 5.98-11.95 11.42-12.76-4.08.26-15.22 2.7-15.22 8.95 0 2.17 1.9 3.8 3.8 3.8zM179.67 64.5c1.63 0 4.07-2.44 4.07-4.6 0-2.2-2.45-7.35.28-10.06-2.18.8-7.6 3.26-7.6 11.4 0 1.63 1.35 3.27 3.25 3.27zM188.9 63.96c3 0 9.78-5.97 9.24-10.86-1.9 4.34-13.03 1.63-13.03 7.87 0 1.36 1.36 3 3.8 3zM174.24 76.2c1.9 0 3.25-1.92 3.25-5.45 0-2.7-4.9-8.42-5.43-11.14-1.37 2.73-4.35 16.6 2.17 16.6zM179.13 71.57c0 .82 1.08 2.44 3.26 2.44 1.62 0 9.77-3.8 10.58-9.77-3 3.53-13.85.28-13.85 7.34zM171.8 88.4c2.16 0 3.25-1.62 3.25-4.88 0-4.07-7.6-5.7-8.42-10.6-.55 4.63-1.36 15.5 5.16 15.5zM174.78 102.27c1.9 0 3.8-1.1 3.8-3.8 0-6.25-9.78-3.8-11.95-9.79-.28 3.26 2.45 13.6 8.15 13.6zM187.73 74.46c.22-.06.44-.12.63-.18-.22.02-.43.08-.63.18zM187.73 74.46c-3.75 1-10.77 1.83-10.77 8.25 0 2.18 1.9 3 3.8 3 3.8 0 4.05-9.78 6.97-11.24zM182.12 97.38c4.88 0 3-10.32 4.6-12.5-2.43 1.63-8.14 3.8-8.14 8.97 0 1.08.55 3.53 3.54 3.53zM184.3 111.23c0-6.8-12.5-4.08-14.14-8.42.8 4.35 6.52 11.42 9.5 11.42 1.37 0 4.63.27 4.63-3zM189.18 109.06c1.63 0 2.7-1.9 2.7-3.8 0-2.18-6.23-6.8-4.34-10.6-2.16 3-6.25 14.4 1.64 14.4zM193.8 115.58c-3.8 0-8.15 4.62-13.3 2.17 3.24 2.72 8.95 5.7 12.76 5.7 2.17 0 5.16-1.35 5.16-4.34 0-1.9-1.9-3.52-4.63-3.52zM225.04 54.45c1.9 0 3.8-1.63 3.8-3.8 0-6.25-11.13-8.7-15.2-8.96 5.42.8 4.07 12.75 11.4 12.75zM232.1 59.9c0 2.16 2.44 4.6 4.07 4.6 1.9 0 3.27-1.63 3.27-3.26 0-8.14-5.43-10.6-7.6-11.4 2.7 2.7.26 7.87.26 10.05zM217.7 53.1c-.54 4.9 6.26 10.86 9.24 10.86 2.44 0 3.8-1.63 3.8-3 0-6.23-11.13-3.52-13.03-7.86zM241.6 76.2c6.54 0 3.55-13.87 2.18-16.58-.54 2.7-5.43 8.42-5.43 11.14 0 3.52 1.35 5.43 3.26 5.43zM236.72 71.57c0-7.06-10.87-3.8-13.86-7.34.82 5.98 8.97 9.78 10.6 9.78 2.17 0 3.26-1.6 3.26-2.43zM237.26 98.47c0 2.7 1.9 3.8 3.8 3.8 5.7 0 8.43-10.33 8.15-13.6-2.16 6-11.94 3.55-11.94 9.8zM228.1 74.46c-.2-.1-.4-.16-.62-.18.2.06.4.12.63.18zM238.9 82.7c0-6.4-7.04-7.25-10.8-8.24 2.93 1.46 3.17 11.24 7 11.24 1.9 0 3.8-.82 3.8-3zM233.73 97.38c3 0 3.53-2.45 3.53-3.53 0-5.17-5.7-7.34-8.15-8.97 1.65 2.18-.25 12.5 4.63 12.5zM231.56 111.23c0 3.26 3.26 3 4.6 3 3 0 8.7-7.08 9.52-11.42-1.63 4.35-14.12 1.64-14.12 8.43zM226.67 109.06c7.87 0 3.8-11.4 1.63-14.4 1.9 3.8-4.34 8.42-4.34 10.6 0 1.9 1.08 3.8 2.7 3.8zM222.05 115.58c-2.7 0-4.62 1.63-4.62 3.53 0 3 3 4.35 5.16 4.35 3.8 0 9.5-2.98 12.76-5.7-5.16 2.45-9.5-2.17-13.3-2.17zM212.82 113.95c0-.32 0-.62-.03-.92.66 1 1.9 2 3 2 5.98 0 6.8-9.23 6.8-12.5-.5 3.54-8.98 4.04-10.18 8.23-.87-3.14-3-4.14-4.5-4.14-1.48 0-3.62 1-4.5 4.15-1.17-4.2-9.67-4.7-10.16-8.23 0 3.26.8 12.5 6.78 12.5 1.13 0 2.36-1.03 3.03-2.02-.02.3-.03.6-.03.93 0 1.9.26 13.3-3.53 14.67 4.62 1.1 5.43-2.45 8.42-2.45 3 0 3.8 3.54 8.43 2.45-3.8-1.36-3.53-12.77-3.53-14.67zM329.37 88.4c2.17 0 3.26-1.62 3.26-4.88 0-4.07-7.6-5.7-8.42-10.6-.53 4.63-1.35 15.5 5.17 15.5zM382.62 54.45c1.9 0 3.8-1.63 3.8-3.8 0-6.25-11.13-8.7-15.2-8.96 5.42.8 4.07 12.75 11.4 12.75zM389.68 59.9c0 2.16 2.44 4.6 4.07 4.6 1.9 0 3.27-1.63 3.27-3.26 0-8.14-5.43-10.6-7.6-11.4 2.7 2.7.26 7.87.26 10.05zM375.3 53.1c-.56 4.9 6.23 10.86 9.22 10.86 2.44 0 3.8-1.63 3.8-3 0-6.23-11.14-3.52-13.03-7.86zM399.2 76.2c6.5 0 3.52-13.87 2.17-16.58-.55 2.7-5.44 8.42-5.44 11.14 0 3.52 1.35 5.43 3.26 5.43zM394.3 71.57c0-7.06-10.87-3.8-13.85-7.34.8 5.98 8.96 9.78 10.6 9.78 2.16 0 3.25-1.6 3.25-2.43zM398.37 83.52c0 3.26 1.1 4.9 3.27 4.9 6.52 0 5.7-10.87 5.16-15.5-.82 4.9-8.43 6.53-8.43 10.6zM394.85 98.47c0 2.7 1.9 3.8 3.8 3.8 5.7 0 8.42-10.33 8.15-13.6-2.18 6-11.95 3.55-11.95 9.8zM385.7 74.46c-.2-.1-.4-.16-.64-.18.2.06.4.12.63.18zM396.48 82.7c0-6.4-7.04-7.25-10.8-8.24 2.93 1.45 3.17 11.24 7 11.24 1.9 0 3.8-.82 3.8-3zM391.32 97.38c2.98 0 3.53-2.45 3.53-3.53 0-5.17-5.7-7.34-8.16-8.97 1.62 2.18-.27 12.5 4.62 12.5zM389.14 111.23c0 3.26 3.26 3 4.6 3 3 0 8.7-7.08 9.53-11.42-1.63 4.36-14.13 1.64-14.13 8.43zM384.25 109.06c7.87 0 3.8-11.4 1.63-14.4 1.9 3.8-4.35 8.42-4.35 10.6 0 1.9 1.1 3.8 2.72 3.8zM379.63 115.58c-2.72 0-4.62 1.63-4.62 3.53 0 3 3 4.35 5.17 4.35 3.8 0 9.5-2.98 12.77-5.7-5.16 2.45-9.5-2.17-13.3-2.17zM348.4 54.45c7.32 0 5.96-11.95 11.4-12.76-4.08.26-15.2 2.7-15.2 8.95 0 2.17 1.9 3.8 3.8 3.8zM337.25 64.5c1.63 0 4.07-2.44 4.07-4.6 0-2.2-2.44-7.35.28-10.06-2.18.8-7.6 3.26-7.6 11.4 0 1.63 1.35 3.27 3.25 3.27zM346.5 63.96c2.98 0 9.77-5.97 9.22-10.86-1.9 4.34-13.04 1.63-13.04 7.87 0 1.36 1.36 3 3.8 3zM331.8 76.2c1.92 0 3.28-1.92 3.28-5.45 0-2.7-4.9-8.42-5.44-11.14-1.36 2.73-4.34 16.6 2.17 16.6zM336.7 71.57c0 .82 1.1 2.44 3.27 2.44 1.63 0 9.78-3.8 10.6-9.77-3 3.53-13.86.28-13.86 7.34zM332.36 102.27c1.9 0 3.8-1.1 3.8-3.8 0-6.25-9.78-3.8-11.95-9.79-.26 3.26 2.45 13.6 8.16 13.6zM345.32 74.46c-3.76 1-10.8 1.83-10.8 8.25 0 2.18 1.9 3 3.8 3 3.84 0 4.08-9.78 7-11.24zM345.32 74.46c.2-.06.43-.12.62-.18-.22.02-.43.08-.62.18zM339.7 97.38c4.9 0 2.98-10.32 4.62-12.5-2.45 1.63-8.16 3.8-8.16 8.97 0 1.08.55 3.53 3.53 3.53zM341.87 111.23c0-6.8-12.5-4.08-14.12-8.42.8 4.35 6.5 11.42 9.5 11.42 1.35 0 4.62.27 4.62-3zM346.75 109.06c1.64 0 2.73-1.9 2.73-3.8 0-2.18-6.26-6.8-4.35-10.6-2.17 3-6.25 14.4 1.62 14.4zM351.38 115.58c-3.8 0-8.16 4.62-13.3 2.17 3.25 2.72 8.95 5.7 12.75 5.7 2.17 0 5.16-1.35 5.16-4.34 0-1.9-1.9-3.52-4.62-3.52zM370.4 113.95c0-.32-.02-.62-.03-.92.67 1 1.9 2 3 2 6 0 6.8-9.23 6.8-12.5-.5 3.54-8.98 4.04-10.17 8.23-.88-3.14-3.02-4.14-4.5-4.14s-3.62 1-4.5 4.14c-1.2-4.2-9.66-4.7-10.17-8.22 0 3.26.82 12.5 6.8 12.5 1.1 0 2.34-1.02 3-2 0 .28-.02.6-.02.9 0 1.9.3 13.32-3.52 14.68 4.63 1.08 5.43-2.45 8.42-2.45 3 0 3.8 3.53 8.43 2.45-3.8-1.36-3.54-12.77-3.54-14.67zM341.32 166.66c4.22-.6 6.4-2.44 6.4-7.07 0-3.2-2.6-6.8-9.3-9.92l-44.77-87.46 4-7.9c2.97-5.8-3.96-9.27-6.96-3.4l-1.4 2.85-1.4-2.85c-3-5.87-9.93-2.4-6.97 3.4l4 7.84-44.74 87.52c-6.74 3.1-9.34 6.7-9.34 9.9 0 4.64 2.2 6.47 6.4 7.08v25.03c-3.45 2.2-11.56 9.55-11.56 26.84 0 13.3 1.58 24.4 11.57 30.12v57.53l7.8-2.45v-51.13l82.96 42.26c6.35 3.54 5.56 11.14 5.56 14.4 8.7-2.45 14-15.22 14-27.17 0-11.02-2.87-19.23-6.28-24.9v-90.54zm-101.6 75.77l-.07-.03c-4.14-2.15-5.85-7.82-6.56-13.14.84 1.46 3.78 3.52 6.62 5.28v7.9zm0-15.6c-3.14-2.02-6.32-4.2-7.14-5.4 0-.46 0-.9 0-1.26 0-1.94.2-4.26.58-6.63.4 1.3 3.37 3.54 6.56 5.64v7.64zm0-15.17c-2.96-2.02-5.34-4.06-5.03-5.33.77-2.84 1.7-5.25 2.63-6.53 0 1.25.97 2.55 2.4 3.84v8.02zm49.6-140.98l5.6 10.95c-2.2-.02-4.43-.02-6.77.02-1.9-.03-2.18 3.36.27 3.7 2.75 0 5.6.03 8.44.1l1.83 3.58c-1.23-.03-2.48-.06-3.77-.07-3.8.13-4.06 3.4.28 3.77 1.82.03 3.64.1 5.47.15l2.26 4.44c-3.88-.16-8.04-.25-12.47-.2-3.27.12-3.8 3.5.12 3.72 4.7 0 9.55.13 14.34.38l2.3 4.47c-3.65-.23-7.55-.4-11.74-.44-2.17 0-2.98 3.63.4 3.78 4.46.1 8.96.28 13.35.6l3.18 6.22c-4.3-.37-9.1-.65-14.33-.77-2.6-.06-4.5 3.48-.14 3.75 5.54.15 11.22.5 16.54 1.04l3.65 7.13c-6.4-.75-14.2-1.3-23.2-1.4-3.38 0-7.73 3.9-1.88 3.9 9.2.1 18.85.55 27.25 1.74l3.63 7.12c-5.3-.8-11.86-1.5-19.6-1.9-3.55 0-9.38 2.88.26 3.82 7.7.4 15.25 1.18 21.6 2.52l1.7 3.3c-9.04-2.18-21.65-3.67-38.64-3.67-17 0-29.53 1.5-38.56 3.68l38.6-75.47zm-36.4 178.54l-7.65-3.94v-7.48c.03.02.1.06.13.08l7.53 3.9v7.44zm0-14.86l-6.55-3.44c-.25-.16-.64-.4-1.1-.67v-7.56c.85.5 1.58.95 2.08 1.25l5.58 2.96v7.46zm0-14.9l-4.6-2.47c-.77-.5-1.85-1.13-3.05-1.85v-7.57c1.42.87 2.83 1.7 4.03 2.44l3.63 1.96v7.47zm15.62 37.78l-9.26-4.76v-7.4l9.26 4.82v7.34zm0-14.7l-9.26-4.86v-7.4l9.26 4.9v7.36zm0-14.75l-9.26-4.96v-7.42l9.26 5v7.37zm15.86 37.6l-9.52-4.9v-7.3l9.52 4.93v7.27zm0-14.55l-9.52-5v-7.32l9.52 5.04v7.28zm0-14.6l-9.52-5.07v-7.32l9.52 5.15v7.26zm15.34 37.04l-9-4.63v-7.24l9 4.67v7.2zm0-14.4l-9-4.72v-7.25l9 4.76v7.2zm0-14.43l-9-4.8v-7.22l9 4.87v7.15zm15.07 36.57l-8.7-4.5v-7.15l8.7 4.52v7.12zm0-14.25l-8.7-4.58v-7.17l8.7 4.6v7.15zm0-14.28l-8.7-4.66v-7.1l8.7 4.7v7.06zm13.5 35.45l-7.14-3.67v-7.08l7.14 3.7v7.05zm0-14.1l-7.14-3.75v-7.1l7.14 3.78v7.06zm0-14.14l-7.14-3.82v-7l7.14 3.87v6.96zm5.23-88.62c-7.83-1.9-23.6-4.7-45.66-4.67-4.63.23-6.52 3.36.55 3.7 15.86.22 34.17 1.56 45.1 5.7v4.68c-6-1.26-12.45-2.4-19.34-3.37-6.8-.86-7.7 1.72-1 2.83 2.42.3 10.38 1.78 20.35 4.16v6.28c-6.2-1.5-17.32-3.58-32.64-4.37V172.36h-22.8v13.55c-5.98.24-12.32.7-19.03 1.4-6.8.82-7.07 3.53-.28 3 2.3-.3 9.71-.75 19.3-.88v4.67h22.8v-4.28c12.28.67 24.48 2.2 32.63 5.3v6c-5.94-1.26-12.28-2.4-19.08-3.34-6.8-.86-7.7 1.7-1 2.83 2.4.3 10.23 1.76 20.08 4.1v5.8c-9.7-2.36-31.5-6.1-62.27-4.14-8.4.23-9.07 3.52.7 3.25 17.38-.5 46.55-.06 61.57 5.62v6.97c-6.08-1.5-16.93-3.52-31.8-4.33-3.53.4-9.53 3.18.53 3.82 11.8.7 23.43 2.23 31.27 5.2v6.43c-2.53-.62-5.88-1.33-10.02-2-3.57-.28-6.3 2.04.76 4.13 3.44.7 6.58 1.56 9.27 2.58v10.43c-.35-.23-.7-.43-1-.6l-82.24-44.8c-1.63-1-3.46-2.08-5.24-3.2v-33.62c6.13-1.43 17.23-5.03 44.2-5.03 26.97 0 38.14 3.6 44.27 5.03v4.86zm-36.76 12.8c0 2.63-2.14 4.77-4.77 4.77-2.63 0-4.77-2.13-4.77-4.77s2.14-4.77 4.77-4.77c2.63 0 4.77 2.14 4.77 4.77zm-7.5-29.2c-25.64 0-42.13 5.47-44.86 5.47-2.73 0-3.8-.7-3.8-2.48 0-2.05 2.8-3 4.86-3.85 9.12-3 23.38-5.1 43.8-5.13 20.6 0 34.7 2.12 43.88 5.13 2.07.85 4.85 1.8 4.85 3.84 0 1.76-1.07 2.47-3.8 2.47-2.75 0-19.32-5.47-44.94-5.47zM338.28 266c-.96-.85-2.8-2.15-4.45-3.2v-5.38c1.86 2.42 3.33 5.4 4.44 8.58zm.25 31.33c0-2.1-2.23-4.2-4.7-5.96v-7.14c3.02 1.9 5.64 3.85 6.35 6.03-.34 2.26-.87 4.6-1.65 7.07zm2.24-13.27c-.03-.25-.05-.45-.08-.6-.37-2.12-3.56-4.38-6.87-6.4v-7.2c3.08 1.74 5.38 3.07 6.43 4.2.38 2.42.58 4.8.58 6.96 0 1-.02 2-.07 3.04zM263.93 277.1c-2.42.14-4.2.28-5.14.4-6.8.54-6.52-2.18.27-3 1.64-.17 3.27-.33 4.87-.47 1.24-.07 3.78 2.68 0 3.07zM279.44 273.07c-1.7.05-3.4.13-5.17.22-2.44.25-5.28 3.98-.54 3.4 1.8-.04 3.7-.08 5.72-.1 1.9-.33 3.78-3.75 0-3.53zM299.27 283.75c-6.16-.27-12.96-.33-20.36-.07-2.45.2-4.22 3.3.82 3.52 6-.06 12.76.02 19.55.34 2.46 0 5-3.5 0-3.8zM265.06 299.86c-3 .15-5.2.32-6.27.45-6.8.55-6.52-2.16.27-2.97 2.02-.22 4-.4 5.97-.58 1.9.03 4.5 2.93.02 3.1zM282.7 295.8c-1.77.03-3.58.1-5.43.17-1.77.13-3.94 3.44 0 3.48 1.83-.03 3.74-.04 5.7-.05 1.9-.04 3.67-3.64-.27-3.6zM306.36 296.4c-2.75-.2-5.65-.37-8.7-.48-2.73.05-5.03 3.14-.27 3.76 2.97.13 5.97.3 8.93.53 2.46.1 4.8-3.5.03-3.8zM327.77 299.18c-2.56-.5-5.54-1-8.9-1.46-2.33-.27-4.57 3-.06 3.87 2.9.44 5.63.95 8.16 1.56 1.94.55 5.52-2.13.8-3.98zM286.78 136.3c-1.4.02-2.8.06-4.22.12-1.76-.06-2.7 3.02 1.22 3.6 1-.04 2-.05 3-.05 1.9.06 3.27-3.35 0-3.68zM267.06 126.88c-.72.06-1.44.14-2.16.2-1.76.46-2.5 3.06.2 3.06.53-.03 1.42-.04 2-.08 1.34-.08 2.5-3.3-.04-3.2zM280.94 125.9c-1.43.05-2.88.13-4.35.22-2.32.33-2.2 3.34.4 3.46 1.27-.04 2.6-.08 3.93-.1 1.5-.18 2.85-3.87 0-3.6zM282.98 115.2c-1.9.1-3.86.18-5.86.3-1.34-.06-3.1 3.2.42 3.47 1.65-.06 3.4-.1 5.17-.14 1.9 0 2.72-3.44.28-3.62zM288.28 105.3c-1.9.02-3.86.08-5.85.16-1.5.07-2.3 3.14 1.35 3.58 1.48-.03 2.98-.04 4.5-.05.95-.08 2.86-3.55 0-3.7zM283.78 97.26c-1.02.03-2.06.07-3.12.12-1.2.13-3.67 3.18.55 3.56.86-.02 1.7-.04 2.58-.06 1.64.03 2.6-3.62 0-3.62zM284.47 92.72c.85 0 1.72-.02 2.58-.03 2.32-.07 1.37-3.47-.82-3.67-.5.02-1 .03-1.5.04-1.35.16-3.1 3.2-.26 3.65zM260.17 170.86c-.57.05-1.03.1-1.38.14-6.8.54-6.52-2.17.27-3 3.53 0 5.46 2.73 1.1 2.86z"/></svg>