<?xml version="1.0" encoding="UTF-8"?>
<svg enable-background="new 0 0 464.9 690.9" version="1.1" viewBox="0 0 464.9 690.9" xml:space="preserve" xmlns="http://www.w3.org/2000/svg">
<style type="text/css">
	.st0{fill:#50408F;}
	.st1{fill:#B1A77A;}
	.st2{fill:#FFFFFF;}
	.st3{fill:#B33A2C;}
	.st4{fill-rule:evenodd;clip-rule:evenodd;fill:#FFFFFF;}
	.st5{fill-rule:evenodd;clip-rule:evenodd;fill:#CC2229;}
</style>
		<polygon class="st0" points="45.3 292.4 49.4 296 232.4 641.7 415.5 296 419.6 292.4 232.4 454.7"/>
		<path class="st1" d="M233.9,1.6L232.4,0L0,253.1l232.4,437.8l232.4-437.8L233.9,1.6z M49.4,296l183,158.8l183-158.8l-183,345.8    L49.4,296z"/>
		<polygon class="st2" points="232.4 34 431.9 251.2 232.4 424.3 32.9 251.2"/>
	<path class="st3" d="m322.9 210.6c-38.3 0-47.1 22.7-69.8 58.2 0-14.8 21.2-59 44.2-80.7l11.4-2.6v-16.7l-15.6 2.4-2.1 11.4c-17.6 18.7-31.1 39.4-40.2 62.1 0 0 20.4-57.9 20.4-94.7 0-45.7-38.6-73.3-38.6-73.3s-38.6 27.5-38.6 73.3c0 36.8 20.4 94.7 20.4 94.7-9.1-22.8-22.6-43.5-40.2-62.1l-2.1-11.4-15.6-2.4v16.7l11.4 2.6c23 21.7 44.2 65.8 44.2 80.7-22.7-35.4-31.5-58.2-69.8-58.2s-39.1 30.1-39.1 37.3c0 16.4 9 30.1 18.8 33.3s36.8-6.1 43.9 15.1c0 0 6.9 0.3 6.9-10.6 0-10.8-16.9-18.8-16.9-23.8s3.4-7.1 8.5-7.1c5 0 39.7 4.5 49.8 65.8h-18.6v9h18.5c-2.2 9.2-7.6 18.4-14.8 27.8h15.9c0 15 4.7 24.8 17.7 25.7 13-0.8 17.8-10.6 17.7-25.7h15.4c-7.2-9.3-12.7-18.6-14.8-27.8h18.5v-9h-18.6c10.2-61.4 44.8-65.8 49.8-65.8s8.5 2.1 8.5 7.1-16.9 13-16.9 23.8 6.9 10.6 6.9 10.6c7.1-21.2 34.1-11.9 43.9-15.1s18.8-16.9 18.8-33.3c-0.1-7.1-0.9-37.3-39.2-37.3z"/>
			<path class="st4" d="m193.4 485.8l4.8-17.4 4.8 17.4h-9.6zm14.7 18.6h14.2l-16.5-48.5h-14.9l-16.4 48.5h13.9l2.2-8h15.3l2.2 8z"/>
			<path class="st4" d="m278.5 485.3l11.9 3.9c-0.8 3.7-2.1 6.8-3.8 9.2-1.7 2.5-3.8 4.3-6.4 5.6-2.5 1.3-5.8 1.9-9.7 1.9-4.8 0-8.7-0.8-11.7-2.3s-5.6-4.2-7.8-8.1-3.3-8.8-3.3-14.8c0-8 1.9-14.2 5.8-18.5s9.3-6.5 16.4-6.5c5.5 0 9.8 1.2 13 3.7s5.5 6.3 7.1 11.4l-12 2.9c-0.4-1.5-0.9-2.5-1.3-3.2-0.8-1.1-1.7-2-2.8-2.6s-2.3-0.9-3.7-0.9c-3.1 0-5.4 1.4-7.1 4.1-1.2 2-1.9 5.2-1.9 9.5 0 5.3 0.7 9 2.2 11s3.5 3 6.2 3c2.6 0 4.5-0.8 5.8-2.4 1.6-1.5 2.5-3.9 3.1-6.9z"/>
		<polygon class="st5" points="215.7 518.5 249.2 518.5 249.2 529 229.3 529 229.3 537.4 246.3 537.4 246.3 547.2 229.3 547.2 229.3 567 215.7 567"/>
</svg>
