<?xml version="1.0" encoding="UTF-8"?>
<svg version="1.1" viewBox="0 0 600 400" xmlns="http://www.w3.org/2000/svg" xmlns:cc="http://creativecommons.org/ns#" xmlns:dc="http://purl.org/dc/elements/1.1/" xmlns:rdf="http://www.w3.org/1999/02/22-rdf-syntax-ns#">
<metadata>
<rdf:RDF>
<cc:Work rdf:about="">
<dc:format>image/svg+xml</dc:format>
<dc:type rdf:resource="http://purl.org/dc/dcmitype/StillImage"/>
<dc:title/>
</cc:Work>
</rdf:RDF>
</metadata>
<g transform="translate(0 -652.36)">
<rect y="652.36" width="57" height="400" fill="#f00"/>
<rect x="111" y="652.36" width="54" height="400" fill="#f00"/>
<rect x="219" y="652.36" width="54" height="400" fill="#f00"/>
<rect x="327" y="652.36" width="54" height="400" fill="#f00"/>
<rect x="435" y="652.36" width="54" height="400" fill="#f00"/>
<rect x="543" y="652.36" width="57" height="400" fill="#f00"/>
<rect x="57" y="652.36" width="54" height="400" fill="#fff"/>
<rect x="165" y="652.36" width="54" height="400" fill="#fff"/>
<rect x="273" y="652.36" width="54" height="400" fill="#fff"/>
<rect x="381" y="652.36" width="54" height="400" fill="#fff"/>
<rect x="489" y="652.36" width="54" height="400" fill="#fff"/>
<path transform="matrix(1.4138 0 0 1.5616 -86.859 562.56)" d="m450.09 185.58a176.47 159.77 0 1 1 -352.94 0 176.47 159.77 0 1 1 352.94 0z" fill="none" stroke="#000080" stroke-width=".673"/>
<path transform="matrix(.98883 0 0 1.0922 29.431 649.68)" d="m450.09 185.58a176.47 159.77 0 1 1 -352.94 0 176.47 159.77 0 1 1 352.94 0z" fill="none" stroke="#000080" stroke-width=".96226"/>
<path transform="translate(0 652.36)" d="m107.06 312.83c-20.003-33.832-30.342-72.161-30.354-112.52-0.0085-28.642 4.2363-52.302 14.298-79.696 2.974-8.0972 13.269-29.306 17.316-35.674l2.6532-4.1746 0.0171 118.98c9e-3 65.436-0.0885 118.98-0.21761 118.98-0.12912 0-1.7998-2.6471-3.7126-5.8824z" fill="none"/>
<path transform="translate(0 652.36)" d="m54.642 239.39c-2.2718-14.209-2.9156-22.936-2.9117-39.469 0.0039-16.596 0.65171-25.386 2.9085-39.469l1.338-8.3492 0.20049 23.664c0.11027 13.015 0.11027 34.533 0 47.818l-0.20049 24.154-1.3349-8.3492z" fill="#000080" stroke="#000080" stroke-linecap="square" stroke-width="2.9"/>
<path transform="translate(0 652.36)" d="m105.98 355.3c-20.753-26.126-35.719-55.052-44.769-86.526l-3.4288-11.925 0.01503-56.926 0.01503-56.926 3.0703-10.835c5.9772-21.094 16.307-44.478 27.801-62.932 5.2177-8.3774 18.89-27.175 21.1-29.009 1.125-0.93363 1.2237 11.978 1.2237 159.99 0 88.552-0.0854 160.99-0.18975 160.97-0.10437-0.0168-2.2814-2.6639-4.8379-5.8824z" fill="#000080" stroke="#000080" stroke-linecap="square" stroke-width="2.9"/>
<path transform="translate(0 652.36)" d="m143.91 393.34c-4.5315-3.6203-13.445-11.763-19.807-18.095l-11.568-11.513-0.1967-161.6c-0.10818-88.881-0.4591-162.12-0.77982-162.75-1.0998-2.1743 20.526-23.622 35.696-35.401l4.242-3.294h6.6984 6.6985v43.725 43.725l-3.6961 4.6617c-5.671 7.1525-12.352 17.687-17.081 26.932-25.404 49.665-25.856 108.38-1.2144 157.84 5.8429 11.728 13.291 23.695 19.061 30.625l2.9313 3.5209v44.107 44.107h-6.3719-6.3719l-8.2391-6.5823z" fill="#000080" stroke="#000080" stroke-linecap="square" stroke-width="2.9"/>
<path transform="translate(0 652.36)" d="m424.48 76.588c-10.324-10.368-23.394-20.562-35.524-27.707l-7.731-4.5541-4e-3 -22.201-4e-3 -22.201h-27.324-27.324v13.304 13.304l-5.1233-0.5904c-2.8181-0.32472-12.467-0.5904-21.442-0.5904s-18.624 0.26568-21.442 0.5904l-5.1233 0.5904v-13.304-13.304h-27.324-27.324l-4e-3 22.201-4e-3 22.201-7.731 4.5541c-12.005 7.0717-25.079 17.244-35.299 27.463l-9.3341 9.334v-43.256-43.256l-6.2619-0.016877-6.2619-0.016877 1.8975-1.5185c5.6569-4.5269 22.555-14.529 34.535-20.442 25.819-12.743 50.955-20.252 80.455-24.035 14.71-1.8862 43.734-1.8862 58.444 0 41.294 5.295 79.725 19.862 112.31 42.57l6.0519 4.2172h-6.615-6.615l-0.19597 43.096-0.19597 43.096-9.4877-9.5278z" fill="#000080" stroke="#000080" stroke-linecap="square" stroke-width="2.9"/>
<path transform="translate(0 652.36)" d="m220.3 22.315v-20.873h25.806 25.806l-1e-3 12.713-1e-3 12.713-7.0194 1.3563c-11.69 2.2589-27.085 7.2778-38.692 12.614-2.8087 1.2914-5.285 2.348-5.5028 2.348-0.2179 0-0.39617-9.3928-0.39617-20.873z" fill="#000080" stroke="#000080" stroke-linecap="square" stroke-width="2.9"/>
<path transform="translate(0 652.36)" d="m373.62 40.805c-11.011-5.1634-26.763-10.308-38.518-12.579l-7.0194-1.3563-1e-3 -12.713-1e-3 -12.713h25.806 25.806v20.873c0 11.48-0.25616 20.857-0.56926 20.838-0.31309-0.01916-2.7894-1.076-5.5028-2.3484z" fill="#000080" stroke="#000080" stroke-linecap="square" stroke-width="2.9"/>
<path transform="translate(0 652.36)" d="m435.1 355.82v-44.107l2.9313-3.5209c5.7694-6.9297 13.218-18.897 19.061-30.625 24.641-49.46 24.19-108.17-1.2144-157.84-4.5591-8.913-11.281-19.572-16.708-26.492l-3.3105-4.2218v-43.786-43.786h6.8931c6.8238 0 6.9288 0.02855 10.436 2.8376 9.6615 7.7373 19.785 16.991 27.385 25.033l8.4164 8.9054v161.92 161.92l-12.334 12.36c-6.7837 6.7982-16.042 15.316-20.573 18.929l-8.2391 6.5686h-6.3719-6.3719v-44.107z" fill="#000080" stroke="#000080" stroke-linecap="square" stroke-width="2.9"/>
<path transform="translate(0 652.36)" d="m490.54 200.11c-0.0157-87.562 0.12533-159.2 0.31334-159.2 0.76344 0 15.698 20.668 20.464 28.32 11.285 18.119 21.373 40.826 27.958 62.932l3.2279 10.835v56.926 56.926l-3.5714 11.925c-8.4874 28.34-20.604 53.198-37.103 76.121-3.3052 4.592-7.191 9.7154-8.6351 11.385l-2.6256 3.0361-0.0285-159.2z" fill="#000080" stroke="#000080" stroke-linecap="square" stroke-width="2.9"/>
<path transform="translate(0 652.36)" d="m544.4 200.3c0-23.934 0.14791-43.369 0.3287-43.188 0.18079 0.18078 0.88446 4.3475 1.5637 9.2593 2.7212 19.677 2.7042 47.24-0.0417 67.518-0.69229 5.1124-1.3919 9.4376-1.5547 9.6115-0.16281 0.17394-0.29602-19.266-0.29602-43.2z" fill="#000080" stroke="#000080" stroke-linecap="square" stroke-width="2.9"/>
<path transform="translate(0 652.36)" d="m282.54 448.06c-1.4611-0.16385-6.2429-0.68104-10.626-1.1493-38.248-4.086-76.088-17.924-109.65-40.099l-7.5592-4.9949 5.8514-0.22168 5.8514-0.22168v-43.54-43.54l9.6774 9.6394c10.873 10.83 22.226 19.664 34.416 26.778l8.233 4.8051 0.0225 22.581 0.0225 22.581h27.324 27.324v-13.757-13.757l2.4668 0.4946c9.5481 1.9144 38.649 1.9144 48.197 0l2.4668-0.4946v13.757 13.757h27.324 27.324l0.0225-22.581 0.0225-22.581 8.233-4.8051c12.191-7.1148 23.544-15.948 34.417-26.778l9.6774-9.6394v43.54 43.54l5.8465 0.22168 5.8465 0.22168-6.4157 4.2496c-9.7631 6.4667-11.813 7.6959-21.623 12.968-26.658 14.326-54.319 23.231-85.741 27.603-7.8778 1.0961-42.816 2.1116-48.956 1.423z" fill="#000080" stroke="#000080" stroke-linecap="square" stroke-width="2.9"/>
<path transform="translate(0 652.36)" d="m328.08 386.24c0-9.6982 0.23698-12.991 0.94877-13.185 0.52182-0.14173 4.5351-1.0073 8.9184-1.9235 9.6824-2.0238 25.322-7.1942 34.421-11.38 3.6943-1.6994 6.8537-3.0897 7.0209-3.0897 0.16717 0 0.30393 9.5636 0.30393 21.252v21.252h-25.806-25.806v-12.927z" fill="#000080" stroke="#000080" stroke-linecap="square" stroke-width="2.9"/>
<path transform="translate(0 652.36)" d="m220.3 377.91c0-11.689 0.13677-21.252 0.30393-21.252s3.3266 1.3904 7.0209 3.0897c9.0991 4.1855 24.738 9.356 34.421 11.38 4.3833 0.91618 8.3966 1.7817 8.9184 1.9235 0.71179 0.19332 0.94877 3.4865 0.94877 13.185v12.927h-25.806-25.806v-21.252z" fill="#000080" stroke="#000080" stroke-linecap="square" stroke-width="2.9"/>
<path transform="translate(0 652.36)" d="m277.99 448.83c-1.0436-0.17815-4.9715-0.68988-8.7286-1.1372-45.275-5.39-91.852-25.198-126.38-53.744-41.493-34.309-68.723-75.964-83.642-127.95-1.9988-6.9652-3.0219-12.031-2.9891-14.801 0.0294-2.4886-0.20522-3.7993-0.57354-3.2041-0.41908 0.67726-0.78506 0.0556-1.1171-1.8975-4.0295-23.706-5.1241-43.754-3.5197-64.464 0.97678-12.609 3.8247-31.083 4.5987-29.831 0.32842 0.5314 0.58361-0.87893 0.57195-3.161-0.02071-4.0539 1.8275-11.527 6.3689-25.752 4.5728-14.324 12.358-32.121 19.705-45.044 7.6458-13.45 22.942-35.261 26.928-38.396 0.98516-0.77492 1.7912-1.8041 1.7912-2.287 0-1.448 22.554-23.585 31.12-30.544 39.299-31.929 86.893-51.114 137.34-55.357 14.573-1.226 42.31-0.42752 55.833 1.6074 53.605 8.0659 100.37 31.141 139.18 68.674 28.584 27.646 50.549 63.191 63.331 102.49 5.4309 16.696 6.0333 19.371 5.9404 26.376-0.0688 5.194 0.14099 6.6414 0.96296 6.6414 1.3268 0 1.6212 1.2173 3.2154 13.296 1.7991 13.631 1.8063 45.447 0.0134 59.19-1.8349 14.065-1.9916 14.761-3.2182 14.291-0.85362-0.32757-1.0512 0.88113-1.0324 6.3143 0.0199 5.7315-0.43 8.2062-3.0601 16.832-10.698 35.085-23.365 59.954-44.797 87.946-7.1298 9.3119-27.2 29.564-38.71 39.06-33.739 27.837-76.764 46.507-123.22 53.466-7.3538 1.1017-51.215 2.1948-55.91 1.3934h-3e-5zm48.197-76.617c31.323-4.8275 61.127-18.304 85.349-38.593 6.4212-5.3785 21.004-19.623 22.431-21.911 0.41746-0.6693 2.7286-3.79 5.1358-6.9348 17.61-23.006 29.782-53.203 33.63-83.432 1.5456-12.144 1.1569-37.89-0.73594-48.742-5.1235-29.374-16.145-55.011-33.785-78.588-10.747-14.364-29.638-31.394-47.093-42.456-15.074-9.5518-37.515-18.308-57.721-22.522-9.9377-2.0723-10.945-2.1368-33.397-2.1368s-23.459 0.06444-33.397 2.1368c-28.089 5.8575-54.41 18.111-75.522 35.16-5.1842 4.1864-24.668 22.758-24.668 23.512 0 0.1404-2.3307 3.3251-5.1793 7.0772-16.726 22.03-28.177 48.846-33.23 77.815-1.8928 10.852-2.2816 36.598-0.73594 48.742 3.8475 30.229 16.019 60.426 33.63 83.432 2.4072 3.1448 4.7184 6.2655 5.1358 6.9348 1.4269 2.2878 16.01 16.532 22.431 21.911 11.625 9.7372 27.847 19.993 39.879 25.211 18.238 7.9098 39.156 13.288 57.614 14.813 7.4713 0.61729 32.778-0.28299 40.228-1.4311z" fill="#000080" stroke="#000080" stroke-linecap="square" stroke-width="2.9"/>
<path d="m17 1035.4h566l17 17h-600z" opacity=".5"/>
<path d="m583 1035.4v-366l17-17v400z" opacity=".5"/>
<path transform="translate(0 652.36)" d="m-6.2619e-8 0h600l-17 17h-566z" fill="#feffff" opacity=".5"/>
<path d="m0 1052.4v-400l17 17v366z" fill="#feffff" opacity=".5"/>
</g>
</svg>
