<?xml version="1.0" encoding="UTF-8"?>
<svg width="254.4" height="259.93" version="1.1" viewBox="-173 252.1 254.4 259.93" xml:space="preserve" xmlns="http://www.w3.org/2000/svg" xmlns:cc="http://creativecommons.org/ns#" xmlns:dc="http://purl.org/dc/elements/1.1/" xmlns:rdf="http://www.w3.org/1999/02/22-rdf-syntax-ns#"><metadata><rdf:RDF><cc:Work rdf:about=""><dc:format>image/svg+xml</dc:format><dc:type rdf:resource="http://purl.org/dc/dcmitype/StillImage"/></cc:Work></rdf:RDF></metadata>
<style type="text/css">
	.st0{fill:#FFCC00;}
	.st1{fill:#FFFFFF;}
	.st2{fill:#007A43;}
</style>
<g transform="translate(-4.9955 -10.573)">
	
		<path d="m9.4 519.3c-0.7 0.5-1.7 2-3.2 2.8-0.8 0.5-1.8 0.5-2.3 0.5-0.5-0.2-0.8-1-2.2-2.7s-3-3.8-4.8-5.8c-1.7-1.7-3.7-3.3-6-3.7-2.7-0.3-4.6-0.8-9-1.8-3.8-0.8-9.5-2.8-12.6-4.5-1.7-1-3-2.7-4.3-4-0.5 0.2-0.5-1.2-1.7 0.3-0.5 0.5-1.5 1.3-2.3 1.5-4.2 1.3-8.5 0.3-10.8-1.5-1.3-1.2-2-1.8-2.8-3.3-0.5-0.8-1.2-2.7-1.3-3.7-1.8 0.3-3.2 0.2-4.3 0.5-1.3 0.3-3 0.8-4.2 1.3-4.3 2-7.3 5.8-11 8.5-1.3 1-2.7 2.3-4 3.3-1.2 1-2.3 1.7-3.3 2.7-0.8 0.7-2.2 2.2-2.3 2.5-2 1.7-3.2 4.8-6 5.5-3.2 0.7-10.6-2.3-14.1-2.5 0-0.8 0.5-1.7 1-2.2 2-2.2 6.6-3.2 9.5-4.8 3.3-2 6.3-5 9.1-7.5 1-0.8 1.7-1.8 2.5-2.8-8.3-0.7-15.4-1.5-21.8-4.2-3.5-1.5-7.3-3.7-10.5-5.6-1.2-0.7-2.7-2-3.3-2.5-0.7-0.3-1.2-0.8-1.8-1.2-1.5 7.1-3 14.3-4.5 21.4-0.5 2.2-0.8 3.7-1.3 5.3-0.2 0.5-1.3 0.5-2.3 0.3-0.5 0-3.7-0.5-4-1.2-0.5-0.8 0.5-4 0.7-4.5 0.5-2.5 2.7-14.1 3-15.4 0.3-2.5 1.8-8.8 2.3-11 0 0-6.5-7.3-7.1-8-2.2-2.5-4.5-4-7-6-0.2-0.2-1.2-0.7-1.3-0.7 0.7-0.2 4-1 5.3-1.2l-1.5-0.7c-5.8-3-10.5-9.1-13.8-14.6-0.8-1.5-2.3-4.8-2.5-4.8-0.7-1.3-1.7-3.7-2-4.6-1.5-4.2-4.2-14.8-3.2-11 0 0-0.5-2.2-1.5-6.5-0.8-4.3-1.5-5.8-2.2-8.8-1.7-5.8-4.5-13.3-5.1-15.6-0.2-0.7-1-2.7-1-2.7s2.2 1.2 2.5 1.3c-2.2-7.1-3.8-15.9-2.8-25.6 1.5-13.4 7.8-22.9 12.3-33.4 1-2.2 1.7-3.7 3-6.6 0.3-0.7 1.3-3.5 1.3-3.8 0.3-1.7 0.5-2.7 1-4.3 0.8-2.7 2.3-6.1 3.7-8.6 2.2-3.8 5-8.1 6.3-9.6s4.2-4.8 4.6-5.3c0 0 10.3-9.3 15.6-12.3 2-1.2 3.8-1.7 5.8-2.8 3.8-2.3 7.5-5 11.6-7-1.5 3.3-3.5 5.5-4.6 9.1 0.2 0 0.7-0.2 1 0 7.5-11 17.9-19.8 36.5-22.4 6.3-0.8 13.9 2.5 21.9 1.2v2c-4 2.8-7.1 5.1-11 8.1-4.6 3.7-9.3 7.1-13.6 11.3-1.2 1.2-7 6.8-7.1 7.1 3.3-1.7 8.3-2.2 12-2.3 8.3-0.5 18.3 3.2 26.1 1.2-1.8 2.2-3.2 2.3-5.1 4-3.3 2.8-5.5 7.1-8.8 9.8-4.3 3.3-9.1 5.8-14.8 8v1c1.7-0.2 3.3 0.5 3 0.7-1.8 1.8-4.6 3-6.6 4.5-3.5 2.8-6.3 6.1-10.1 8.6 1.5 2.8 1.3 4.2 0 6.5 4-0.8 9.3-2.7 12.6-3.5 10-2.7 18.3-3.3 29.7-4.2 4.3-0.3 9.3-0.5 14.4-0.3 2.7 0.2 16.1 0.5 12.3 0.2 8.3 0.7 14.8 1.2 20.8 1.5-0.7-0.5-1.5-1.3-2.3-2-0.7-0.5-1.3-1-1.8-1.5-1.8-1.5-3.8-3.3-5.3-4.8-1.2-1.2-1.7-2.3-3-3.2-3.5-2.2-6.8-3.2-10.1-5.5-3.5-2.5-6.6-6.1-9.5-9.1-2.7-2.8-5.5-5.1-8-8.3 5.3 0.8 11.1 2 17.1 1.5 2.7-0.2 5.6-0.7 8.8-1v-0.3s-2.2-2.5-2.7-3c-2.2-2.2-4.3-4.8-6.1-7.1-2.7-3.3-4.6-6.5-7.3-10-2.5-3.2-5.1-5.6-7.3-9.1 4.2 1.7 8 4.6 13.1 5.1 7.6 0.8 14.3-1.2 21.8 0 2 0.3 6 1.8 7 2.5 1.2 0.7 2 2.3 2.8 2.5 2.3 0.5-0.8-2.8 1.2-2.2 1.2 0.3 2 2.7 2.8 3.7 1.5 2 2.8 3.8 4.8 5.1 2.7 1.7 9.6 5.5 10 5.6 13.3 7.3 31.1 16.4 31.9 34.9-0.3-0.2 0.2 1.7 0.2 1.7l-0.2 5.3c0-0.3-0.5-9-0.2-9 0.2 0.3 1.8 4.2 2 4.6 0.5 1.7 1.2 3.8 2 6.1 1.3 3.3 2.5 6.3 4 9.5 2 4.2 4.8 8.6 6.6 12.8 1.7 3.5 2.3 6 3.5 10.1 1.3 5 3.3 12 3.8 17.8 0.5 6.5-0.3 13.1-1.5 17.9 0.7-0.2 2.2-0.5 2.2-0.5s-5.8 9-7.6 13.4c-2.7 6.1-2 11.1-4 18.9-0.5 2-1.7 6.3-2.3 8-2.5 6.3-5.5 12-10.6 16.8-2.8 2.7-5.1 4.6-6.8 6.3l-1.3 1c2.7-0.3 4.3-0.5 6.8-0.8v1c-1.2 0.7-3 1-4.3 1.8-0.8 0.5-1.5 1.8-2.2 2.5-1.8 1.5-3.5 2.8-5.1 4.3-2.8 2.3-5.3 3.7-8 6.1-2 1.8-3.7 4.3-5.5 6.1-1.7 1.7-6 4.6-6.1 4.8-5 4.3-31.5 13.3-38 13.3l1.2 0.5c1.5 0.5 3 0.8 4.6 1 2 0.3 4 0.7 5.8 1.3 2.3 0.8 13.6 8.5 9.1 11.6-0.9 1.3-2.1 2.6-2.7 3.1zm-104.5-180.7c-0.7 0.8-5.6 5.3-8.5 8-1.2 1.2-4.2 2.7-4.8 4-0.5 0.8-0.3 1.8-0.7 2.8-0.3 0.8-1.7 2.5-1.8 3.3-1 3.2-1.8 7.3-2.2 10.5-0.8 8.6 1.7 15.4 1 24.6-0.5 7.5-3.2 14.3-4.8 20.9 2.3 1.8 3.8 4 5.3 7l0.3-1.2c2.3-10.5 4.2-18.4 6.3-28.1 2.3-11.5 5-22.9 7.5-34.9 0.7-3.5 1.8-7.1 2.5-10.5 0.3-1.8 1.3-5.8 1.5-8 0.1-0.2-0.7 0.6-1.6 1.6zm6.8 10.5c-3.7 22.1-9.6 43.8-14.3 65.6-1.5 6.8-3 14.1-4.6 20.4l1.8-4.2c0.3-1 1.2-2.3 2-4.6 2.5-7.1 6-18.9 6.6-21.3 0.7-2.3 1.5-5.3 2.2-7.6 0.5-2.3 1-4.2 1.2-4.8 3.5-13.1 5-27.1 6-43.5h-0.9zm62.6 135.1c-0.2-0.2-0.5-0.3-0.7-1.3-0.7-2-0.8-7.6 2-12.6 2.7-4.5 6-7.3 8.3-8.8s6.1-3.5 4.6-2.7c-1.7 0.8 2.7-1.3 4-2s3.8-2.7 6-4.6c3.2-3 5.8-9.1 7.1-13.9h1c-0.8 6.1 0.5 10.5 1.7 15.6 0 0 1-2.3 1.3-4.3 1-4.3 2.5-8.6 4.6-12 0.8-1.3 4.5-5.3 4.6-6.3 0.2-0.7 0.5-0.7 0.7-1.2-10 0-18.4 1-28.4 0.5-9.8-0.5-21.9-3.2-34-3-17.6 0.2-39.7 3.8-56.1 8.1 0.2 0.2 3 4.3 3.5 5.1 0.8 1.2 2 2.7 4.2 3.7 0.2-1.7 0.2-4.2 0.3-5.8 0 0 1 1.2 1.2 1.5 0.3 0.5 1 1.2 1.3 1.5 1.7 2.2 3 3.5 5.1 5.1 5.6 4.6 13.1 7.3 19.3 11.3 3.7 2.3 6.8 6 9.5 9.1 3 3.7 6 6.1 7 12l0.5 1.2c1.2-0.8 1.8-1 4.2-1 5.6 0 12.3 2.3 14.4 6.3 0 0.4 2.3-1.1 2.8-1.5z"/>
		<g fill="#fc0">
			<path class="st0" d="m-90.1 445.1c-0.2 1.8-0.3 4.3-0.8 6-1.2 3.3-1.7 7.5 1.7 12.8 0.5 0.8 0.2 1.7 1 2.2 1.5 0.8 4.3 1 6.1 1.3 3.2 0.7 5.5 1.5 8.3 2.7 1 0.3 3 2 3.5 2.2-4.3-4.3-8.6-10.1-12.5-14.4-1.2-1.3-3-3.3-3.8-4.6-1.5-2.3-1-3.2-2.5-5.6-0.3-0.7-1-2.6-1-2.6z"/>
			<path class="st0" d="m10.4 514.8c-1.7-2.2-2.8-3.8-4.8-5.3-0.5-0.3-1.2-0.8-3.2-2s-8.5-1.7-13.6-3.5c-0.5-0.2-4.3-1.3-4.8-1.7-1.2-0.7-2.5-1.2-3.7-1.8-3.2-1.8-5.3-4.8-8-7.3-0.2 0.2-0.7-0.2-1 0 0.2 0-0.7 0.8-1.2 1.5-1.2 1.7-3 2.7-4.8 3.5 0.3 0.5 0.5 0.8 0.8 1.3 0.3 0.7 3 2.3 2.2 1.8 4.3 2.8 3.8 2.3 9.3 4.2 0.3 0.2 4.5 1.5 4.8 1.5 5.1 1 11.1 2.2 12.8 3.3s7 7 8 8.6c1.3 2.2 1.2 2.2 3.3 0.7 0.7-0.5 2.2-1.8 2.8-2.7 0.7-0.6 1.6-1.4 1.1-2.1z"/>
			<path class="st0" d="m-114 354.2c-1.8 0.3-7.5 6-9.5 7h-0.3c-0.7 2 0.3 5.6 0 8h1c2.7-5.8 6.1-9.8 9.8-14.4-0.3-0.1-0.2-0.7-1-0.6z"/>
			<path class="st0" d="m61 340.4c-1 3.2-1.8 5.6-2.8 8.8-0.5 1.7-1.8 5.3-2.5 7.1-1.3 4.2-1.8 5.8-3.2 10-1.8 5.6-4.2 13.6-5.6 20.6-1.8 8-2.8 11.3-4.6 19.6 0.3 0.2 1.7 3.8 2.2 7.5 0.7 3.5 0.3 6 1 12.8 0.3-0.2 2.7-3 3-3 0-0.2 4-4.5 5.5-5.8 1.2-1 2.7-2 3.8-3-6.5-21.4 1.7-50.8 5.8-69.9 0.5-2.5 1.3-6.1 1.5-8.5 0.3-4.2-0.7-7.1-1.2-10.5-0.2-0.1-1.4 9.9-2.9 14.3z"/>
			<path class="st0" d="m51.5 462.7c2-2.2 4.2-4 4.6-4.3 6.5-5 10.1-11.5 13.4-19.6 0.8-2 1.7-4.8 2.3-7 0.8-3.3 1.7-6.3 2-9.5 0-0.3 0.5-3.3 0.7-3.7 0.2-1.7 1-5 1.7-6.8-0.3 0.2-0.8 0.7-1.3 1.2-0.5 0.7-3.5 5-4.2 6-1.7 2.7-3.2 5.3-4.8 8-2 3.3-3.7 6.5-6 9.5-6.8 8.8-14.8 15.1-22.6 22.4-0.3 0.3-2 1.8-2.3 2.2-1 1.2-1.3 1.3-2.2 2.7-0.2 0.3-1.3 1.8-1.5 2.3-0.2 0.3-0.7 1-0.8 1.3 2.5 0 5.5-1 7.3-1.2 5-0.7 7.8-1 12.5-1.5z"/>
			<path class="st0" d="m-5.9 295c2.2-0.2 4-0.2 6.1 0.3 5.1 1.2 8.5 2.2 11.3 4 0.5 0.3 2.5 1.5 4.3 2.7s2.7 2.3 3.7 3 2.5 1.7 2.8 2c-2.3-4.5-4.2-11.3-4.8-16.9-0.3-2.7-0.2-5.1-1-7.6-0.7-2.2-3-3-4.3-4.5-2.3-2.8-3.7-4.5-12-5.1-4.2-0.3-8.5 0.3-12.3 0.3-3.7 0-7.3 0-13-2 0.3 0.3 1.7 1.5 2.8 2.2 0.8 0.7 1.7 1 2.8 1.7 2.5 1.3 5.5 2.8 8 4 2.7 1.3 5.1 2.2 8 3.3 4 1.7 7.8 4 11.3 6 2.3 1.3 4.6 3 6.8 4.6 0.3 0.3 0.5 1.5 1 1.8-1.3-0.8-2.3-1.2-3.7-2-3.2-2-6.1-4.2-9.8-5.8-2-1-4.2-2.3-6.1-3.2-3.2-1.3-5.8-2.2-8.8-3.5-2.7-1.3-4-2.2-6.6-3.7-0.8-0.5-2.7-1.8-2.8-2-1-0.5-1.7-1.3-2.2-1.5 1.2 1.7 3.7 4.8 5 6.3 1.8 2.3 3.3 4.5 5.1 6.6 2 2.3 4.3 4.6 6.1 7.1 0.2-0.2 0.5 0.2 0.7 0.3z"/>
			<path class="st0" d="m48.4 327.3c-5.3 0.7-11 0.8-16.9 1.3-2.8 0.2-5.8 0.3-8.6 0.5-2.7 0.2-6.1 0-8.3 0.2-1.2 0-4.3-0.2-6.1-0.2l-9-7.5c-0.2-0.3-2.3-2-2.5-2.3 4.3 1 9.1 1.7 12.5 1.2 2.5-0.3 6-1.3 8.3-1.7 7.1-1.2 14.3-0.5 19.4 1.3 4.2 1.5 7.3 4 8.3 4.6 0.9 1 2.9 2.6 2.9 2.6z"/>
			<path class="st0" d="m50 327.2c4.2-0.5 7.3-1.5 10.8-2.3l1-0.3v-2.3c-0.2-1.3-0.3-3-0.8-4.3-1-3-2.7-6-4.3-8.6-5.6-8.6-15.9-14.9-25.4-19.9-3.3-1.7-6.1-3.2-9.5-4.8 0.2 0.3 1.2 1.5 1.2 1.8 0.5 1.3 3.7 4.5 4.6 5.8 3.5 4 6.6 8.1 10.3 12 5 5 10.1 11 14.8 15.9 0.5 0.5 1 1.7 1.7 2.2s-0.8 0.8-1 1c-2-2.7-4.6-4.5-6.6-7-4.2-5.3-9.5-9.5-13.8-14.6-4.6-5.5-10.1-11.1-13.4-17.8-0.2 0-1.2-1.5-1.3-1.7 1 4.5 1.8 12.1 3.2 17.1 1.3 4.8 3.3 8.5 5.8 12.5 0.8 1.5 2.5 5.1 2.7 5.1 1.8 0.5 3.3 1 5.1 1.3 2.2 0.5 3.8 1 6 2.2 2.2 1 3.2 1.8 4 2.5 4 2.7 4.9 4.2 4.9 4.2z"/>
			<path class="st0" d="m-127.8 505.2c-0.2 1-0.7 3-0.7 4.3 1 0.3 2 0.3 3.5 0.7 1.2-5.3 2.3-12.3 3.7-18.4 7.8-37.2 16.9-72.2 24.6-109.3 0.7-3.2 1.8-7.1 2.7-10.5 1.3-6.5 2.3-12.3 3.7-18.6 1-4.8 2.7-10.6 3.2-15.6-1.8 0.8-3 0.5-4.5 0-0.8 3-1.3 6.5-2.2 9.8-5 21.8-9.3 44-14.6 66.1-1.7 7.3-3.2 14.9-5 22.1-2.8 11.5-5 23.1-7.5 35.5-1.3 6-3.2 13.6-4 19.4-0.6 2.2-2.7 13.5-2.9 14.5z"/>
			<path class="st0" d="m-67.2 264.9c-3.5 0.3-7.5 1-10.3 2-12.3 4.2-19.8 10-26.9 19.3-0.7 0.8-1.5 2-2.2 3-1 1.3-2.8 2.2-3.7 3.7-1.5 2.8-2.3 7.6-2.5 10.6 2.2-2 3.7-3.8 5.5-6.1 1-1.2 2.3-2.7 3.3-3.7 0.5-0.7 0.7-0.7 1.2-1.2 2.7-2.7 5.6-5.3 8.6-7.6 11.6-9 20.4-13.4 36.7-18.4l-0.3-0.5c-2.9-0.4-6.1-1.4-9.4-1.1z"/>
			<path class="st0" d="m-94.4 335.8c-1.2-1-1.2-4.3-0.8-5.5 0.3-1 1.3-2.5 2.3-3.3 2-1.5 6.5-1.2 8 0.7 2.5-2.5 7.1-6 10.3-9 0 0 3-1.7 3-1.8-6.3 0-15.3-0.5-22.3 0.3-8.8 1-21.8 5.6-27.6 9.8-2.2 1.7-3.3 5.1-4.8 7.3-3.5 4.8-7.5 9.1-11.3 13.4-1.7 1.8-2.3 3.2-4 5.1-0.7-0.3-2 0-2.5-0.3 0.5-2.3 1.7-3.2 3.3-4.8 0.5-0.5 1-1.3 1.5-1.8 6-5.5 10.6-11.8 14.9-18.9 2.5-4.2 5.5-8.3 7-13.4 2.2-7 2.5-14.8 5-21.8 0.5-1.3 2-2.8 2.5-4 1-2.2 2.2-4.5 3.3-7.1-0.2 0-2 1.3-2.2 1.3-3.2 2-5.3 3.3-5.6 3.5-3.3 1.8-5.8 2.7-8.8 4.8-1.3 0.8-4.5 3.7-5.6 4.6-10.6 9.1-18.8 20.1-21.6 37.2-0.3 2.3 0.2 5.5 0.3 7.3 0.5 7.3 1.3 13.3 3 18.9 1.2-0.8 3.3-2.3 5-4 2.5-2.3 3.7-3.8 5.6-4.6 0.8-0.3 1.2-0.2 1.5-0.3-1 3.7-0.5 8.8 0 12.6 0.2 0 0.8-0.8 1-0.7 7.8-12.1 18.1-20.9 29.7-29.2 4.5-3.2 8.6-5.8 14.1-8.3-2.5 1.7-5.1 4.2-7.6 5.6-1.5 1-2.8 1.8-4.2 3-0.8 0.5-1.8 1.3-2.5 2-1 0.8-1.8 1.2-2.8 2-0.7 0.5-1.2 1-1.8 1.5-7.8 6-14.1 12.3-19.9 20.3-2.3 3.2-5.6 5.1-5.1 10.1l2.5-2.5c0.8-1 2.2-2 3-2.8 2.7-2.2 1.7-3.5 2.5-6.8 0.2 0.2 1 0 1.2 0 1 2.7 0.2 1 2.2 2.2 2.7-1.7 5.5-3.5 8.3-5.1 0.8-0.5 5-3.7 6.1-4.3 1.2-0.8 4.5-3.5 5.6-4.5 3.2-2.7 4-3.3 7-6.3 0.8-1.2 1.6-2.2 1.3-2.4z"/>
			<path class="st0" d="m-68.8 292.8c-2.8 0.2-12.1 2-15.4 4.2-2 1.3-3.8 3.3-5.8 4.6-4.8 3.2-9.3 5.6-14.8 8.3-3.3 1.7-5 3.3-10.5 3.3-1.3 4.3-3.7 7-5 11 6.6-3.2 11.5-6 19.6-7.8 3.3-0.7 6.8-1.3 10.1-1.7 4.8-0.3 10 0.8 14.6-0.2 1.3-0.3 3.3-1.7 4.6-2.2 8.6-3.2 15.8-8 20.8-14.6 0.8-1 2.5-2.2 3.3-3.2-4.9-0.5-17.4-2-21.5-1.7z"/>
			<path class="st0" d="m-30.3 296.4c0.2 0.2 1.8 1.5 2 1.7 1.8 1.5 5.6 2.2 7.1 2.8 0.5 0.2 1.3 0.5 1.8 0.7 2.2 0.8 3.3 1.7 5.6 2.3 2.5 0.8 5 2 8 2.7 1 0.2 3.7 1 5.3 1.3 2.2 0.3 3.2 0.7 5.1 1 0.8 0.2 2.2 0.3 3.7 0.7 2 0.5 3.3 1.2 5.3 1.8 1 0.3 2 0.8 2.8 1 0.3 0.2 1.2 0 1.5 0 0 0 1 1.3-1.2 1.2-2.2 0-5.8-1.8-8.6-2.5-7-1.5-14.3-2.3-21.1-5.1-3.8-1.5-9.5-4-13.6-5.3 0.3 0.5 2.3 1.5 2.7 2 0.3 0.5 1.7 1.8 2.2 2.3 3.8 4 7.6 6.8 13.1 9.5 2.2 1.2 3.7 2 6.3 2.8 1.3 0.3 2.5 0.8 4 1 2.2 0.5 6 1 8.1 0.5 6-1.2 11.3-2.2 18.8-2.2-0.3-0.5-0.7-1-1-2-0.5-1.3-1.5-2.7-2-3.3-0.8-1.3-1.7-1.8-2.8-2.8-1.8-1.5-4.6-3-6.6-4.8-1.3-1.2-2.7-1.3-4.2-2.3-2.3-1.5-5.6-3.3-9.1-4.2-3.8-1-6.1-1-9.1-0.7-8.8 0.8-16 1.3-24.1-0.1z"/>
			<path class="st0" d="m-90.3 328.2c-4.3 0.8-5.3 9.5 2.3 8.3 4.9-0.9 4.5-9.7-2.3-8.3z"/>
			<path class="st0" d="m-152.5 335.8c-5.8 10.1-11 21.8-13.3 36.5-0.5 2.8 0.3 7.1 0.7 10.8 0.3 3.5 1.2 8.6 2.3 11.8 1.2 3.3 1.5 4.5 2 5.1 1.3 1.8 2.2 2.5 2.7 3 2.8 2.3 5 5 8.1 7.5 3.7 3 8.6 4 12.6 6.3 2.5 1.5 5.3 3.8 7.6 5.8 0.5 0.5 3.5 3.2 3.8 3.3 1.5-2 2.3-3.8 3.5-6.1 4.3-8.5 8.1-18.8 9-30.4 0.5-7.3-2.3-14.6-1.3-22.7 0.3-2.5 1.2-4.6 1.5-7.6l-0.7-0.3c-4 4-5.3 7.8-8 13.1-0.8 1.7-2.5 3.8-3 5.8-0.7 2.8-0.7 4.8-1.2 7.6-1.7 8.8-3.8 18.4-6.5 26.4-0.5 1.7-1 3-1.5 4.6-0.2 0-1.2 0.3-1.8 0.7 0 0-0.3-1.7-0.3-2.2 0.3-2.3 1.8-5.8 2.8-8.3 2.2-6.3 3.2-12.6 4.6-19.9 1.3-7 3.5-15.8 2.5-22.6-1.7 1.7-4.2 3-5.5 4.8-0.5 0.7-2.5 2.8-2.8 3.3-1.3 2.2-1.2 3.2-2.7 5.3-0.7 0.8-2.7 3.3-3 4.5-0.3 1.8 1 4.8 1.2 6.5 1.2 8.6 1.2 18.1 0.3 26.1-0.7-0.2-1.5-0.5-2.2-0.7 0.5-7.5 1-14.9 0.2-21.9-0.7-5.1-3-11.6-3.8-15.6-1.5-6.6-3.2-11.5-4-14.4-1.3-4.5-2.5-14.1-2.5-14.1s-1-6-1.5-7.5z"/>
			<path class="st0" d="m66.2 336.6c-0.2 3.8-1 10.3-2.2 14.3-0.2 0.7-0.7 3.3-0.8 4-0.7 2.2-0.8 3-1.3 5.3-0.3 1.8-0.8 4.3-1.3 6.1-1.8 8.6-3 16.4-3 25.4-0.2 7.3 0.3 14.9 2 22.1 6.1-3.3 11.3-5.5 16.8-8.5 1.2-0.7 4.2-1.8 5-3 1-1.5 1.2-3.8 1.5-5.8 1-8 0.3-16.4-1.2-23.6-0.5-2.3-1.3-5.6-1.8-8-1-4.2-2.3-7.8-4-11.5-1.8-4.2-5.8-12-8-16.1l0.7 4.6c1.2 5.6 2.5 12.5 3.3 18.4 1.5 11.5 2.2 25.2 0 35.9-0.7 2.8-0.5 3.7-1.7 4.3 0.7-3.5 0.7-7.1 1-10.8s0.5-8.1 0.3-11.3c-0.5-6.5-0.8-12-1.7-18.1-0.8-6.6-2.2-13.6-2.8-19.6z"/>
			<path class="st0" d="m-138.1 353.1c-0.7 0.5-2 2.2-4 4s-4.5 3.8-4.5 3.8 1.3 5.5 2.2 9c0.8 3.3 2 6.5 3.2 9.8l1.7-1.8c1.3-2.2 2.7-3.5 3-5.8 1.2-6.1-0.5-13.9 0-20.1z"/>
			<path class="st0" d="m-121.6 466.1h-4.8c-2.5 0-3.8-1.3-10.5-0.5 1 0.7 1.7 1 2.3 1.5 1 1 2.5 1.7 3.5 2.7 2.5 2.3 3.2 3.7 5.6 6.3 0.3 0.3 0.8 1.2 1 1.5 0.5-1.8 1-3.7 1.3-5.6 0.6-2.5 1.1-3.4 1.6-5.9"/>
			<path class="st0" d="m-121.3 464.2c1.7-7.6 3-14.9 4.6-21.8-0.3-0.2-2.7-5.8-5.1-8.6-2-2.3-4.5-5.3-6.8-7.3-3.5-3-5.6-5.5-9.5-7.8-1.3-0.8-4.2-1.8-5.5-2.7-2.5-1.3-4.3-2.2-6.6-3.5-0.8-0.5-3.7-3.3-4.5-3.8-2.2-1.3-6-5.8-7.5-6.6-0.2-0.2-1.7-2.2-2-2.2 1.3 3.2 3.5 8.6 4.3 12 0.8 3.7 1.8 6.8 2.7 10.5 1.5 6.5 3.7 13.9 5.1 17.9 0.8 2.3 3 5.5 4.3 7.8 5.3 8.8 11.5 16.9 24.4 16.3l2.1-0.2"/>
			<path class="st0" d="m76.8 407.2c-4 1.3-9 4.3-12.5 6.3-2.8 1.5-5.5 3-7.8 5-2.3 1.8-8.3 7.3-8.8 8.3-0.3 0.5-2.3 2-2.3 2-0.5 6.1-1.8 11.3-3.5 16.8-1 3.7-2.7 6.8-4.3 10.5 4.2-3.7 6.8-6 9.8-9 3.8-3.8 8.1-7.5 11.3-11.8 4.2-5.6 7.1-12.1 11-17.9 2-3 7.1-8.3 9.5-11-0.1-0.2-2.4 1-2.4 0.8z"/>
			<path class="st0" d="m-96.2 442.6c-1.5-1.3-2.5-6-4.5-6.3-0.8-0.2-2.3 0.8-3 1-1.7 0.3-3.2 0-4 1.2-0.7 1-0.5 2.3-0.8 3.7-0.8 3.8-1.8 7.8-2.8 12.3-0.7 3.3-1.7 7.1-2.5 10.6 3.5 0.8 7.6 0.3 11.8 0.2 4.2 0 8.1 0.8 11.3 0.7-4.8-9.8-2.8-11.3-1.3-19.8-0.9-0.6-3.4-2.8-4.2-3.6z"/>
			<path class="st0" d="m9 458.5c-0.2 0.7 0.7 10.1 0.7 10.1 0.3-0.2 0.5-1.3 0.8-1.5 0.5-0.2 1.3-2 1.7-2.5 2.2-2.8 4.8-5.8 6.6-8.8 3-5.3 6.1-11.3 8.8-16.8 1-2.3 2-4.3 3-6.8 0.2 0 0.8-0.2 1.2-0.3-0.7 2-1 3.3-1.7 5.1-1.3 3.8-3 6.5-4.5 9.8-1.7 3.8-3.7 7.3-5.8 10.8-2.7 4.2-6.8 7.3-8.6 12.3 3-0.5 5.6-1 8.5-1.5 2.5-0.3 6.1-0.2 8.1-1.2 1.2-0.5 2.8-3.8 3.7-5.1 6.8-10.3 11.8-23.4 12-38.4 0-3.5 0.2-6.8-0.5-9.6-0.3-1.8-1-4.8-1-4.8-1 2.8-3.3 18.1-5.1 19.3-1.8 1-5.5 0.7-7.8 1s-5 0.7-7.6 0.7c-2.2 4.6-5.6 7.6-7.6 12.6-1.2 2.8-2.2 5.6-2.8 9.1-0.7 2-1.7 5-2.1 6.5z"/>
			<path class="st0" d="m-26.2 486.4c15.9-9.5 25.7-12.6 40.8-14.9 5.5-0.8 10.3-1 15.9-1.8 6.3-1 14.9-3 21.6-3.3-0.5 0.3-2.7 2.5-3.2 3-3.5 2.8-7.1 5-10.3 8.3-4.8 5-6.5 7.1-10.5 9.8-4.5 2.8-9 5-14.4 7-5.1 1.8-10.6 3.8-16.3 5.1-2 0.5-3.3 1-5.5 1.3-1.5 0.3-3.5 0.7-5.5 0.5s-5.5-2.5-7-3.7c-1.7-1.2-6-4.8-6.8-6.5-0.5-1.3 0-2.3-0.5-3.7z"/>
			<path class="st0" d="m-48.3 481.4c-1.3 1-1.8 1.7-2.7 2.8-1.5-0.5-4.6-0.2-6.6 0.2-7 2.2-7 2.8-12.6 6.1-2 1.2-3.7 2.5-5.6 3.8-0.3 0.3-1.5 1.5-2 1.7-3.2 0.8-8.1-0.2-10.5-0.7-12.8-2.2-20.9-6.5-29.2-13 0.2-0.2 0.2-0.8 0.2-1.2 0.5-2.3 0.7-3 0.8-4 0.8-3.7 1.5-7.1 2.3-10.5 4 0.7 10.3 0 13.6 0.3 8.1 0.7 15.9 1.3 22.6 3.7 2.5 0.8 5.1 2.8 7.3 4 2 1 3.5 1.3 5.1 2.5 1.8 1.2 3.8 2.7 5.5 4 0.2 0.2 0.3 0.8 0.7 1 0.5 0.2 1-0.2 1.5 0-2-4.2-5.6-7-9.5-9.1-0.7-0.3-2.2-1.7-2.5-2.2-1-1.5-2-2.3-3.2-3.7-0.8-1-1.7-2.2-2.3-3-3.7-4.8-8.8-8.5-11.6-14.1-0.7-1.3-1.7-3.5-2.2-4.8-0.3-0.8-0.8-1.8-0.7-2 1.5 2 4.3 4.3 6.1 6 5.8 4.8 13.4 7 19.6 11.6 3.7 2.8 6.1 5.5 9 9 0.2 0.3 2.5 2.8 2.7 3.2 1.2 1.3 2.2 3.3 3 4.8 0.2 0.3 0.2 1 0.3 1.2z"/>
			<path class="st0" d="m-117.7 414.2c-2 5-4.5 9-7 13.1 1.7 2 3.2 4 4.8 6.1 2 2.7 3.5 6 3.5 5.8 0.2-0.3 4.2-17.3 4.2-17.4-0.3-1.8-4-6.3-5.5-7.6z"/>
			<path class="st0" d="m5 445.9c-1.2 4-2.8 12.1-4.5 15.8-0.2 0.3-0.7 1.3-0.8 1.7-1.3 2.5-2.3 4.3-3.7 6.6-0.8 1.5-1.3 2.5-2.2 4.3 0.3 0 0.2 0.5 0.8 0.3 1.2-0.2 10.6-3.2 11-3.7 3-4 0.3-16.9-0.3-21.8-0.1 0.1-0.1-3-0.3-3.2z"/>
			<path class="st0" d="m2.7 450s-4.8 6.1-7.3 7.5c-3.5 1.8-6.8 3.7-10.1 5.8-1.2 0.8-3.5 2.2-4.3 3.2-3.3 3.8-6.8 8.6-5.6 15.8 0 0.3 0.5 0.7 0.5 1 4.3-2 8.5-5 12.8-6.8 1.2-0.5 1.7-0.2 2.7-1s1.7-2.7 2.3-4c0.3-0.8 1.2-1.7 1.7-2.5 2-3.5 3.7-7.5 5.1-11.3 0.5-1.5 1.7-3.5 1.8-5-0.1-0.2 0.4-2.7 0.4-2.7z"/>
			<path class="st0" d="m-45.8 481.4c-0.7 0.2-2 1.3-2.3 1.7-0.7 0.7-2.2 2.5-2.7 3.5-0.8 2-2 4.3-1.2 7.6 0.2 0.3 1.7 4.6 5.5 6 1.5 0.5 2.8 0.7 4.2 0.5 1.3-0.2 2.7-0.2 3.7-1 1.2-0.8 2-1.7 2.7-2.5 1.7-3 2-5.5 3.5-9.1 0 0 0.8 2.5 0.7 3.5 0.2 1.5-1 4.3-1 4.3s2.2-1.8 2.8-2.8 0.8-1.7 1.2-2.5c0.5-1.2-0.2-3.2-0.2-3.2s-1.2-2.3-2.7-3.5c-4.7-3-10.7-3.3-14.2-2.5z"/>
			<path class="st0" d="m-57.6 486.1c-1.7 0.5-4 1.2-6.1 2.5-2.8 1.5-6 4-8.6 5.8-3.8 2.7-7 4.3-10.6 8.1-1.7 1.7-3.8 3.8-5.8 5.1-3.5 2.7-7.6 3.5-10.3 5.5 0.2 0.2 1.8 0.8 2.8 1 1.8 0.5 4.3 1.8 6.5 1.5 3-0.5 5.5-4.8 7.5-6.5 2.3-1.8 4.2-3.7 6.5-5.5 1.3-1.2 2.3-1.8 3.7-3 0.7-0.5 1.5-1.3 2.2-2 1.2-0.8 2.8-2.5 4-3.5 1.7-1.3 8.1-3.5 12-3.7 0.2-0.5 0.5-2 0.8-3s0.7-1.7 1.3-3.2c-0.5 0.2-5 0.5-5.9 0.9z"/>
			<path class="st0" d="m-50.9 266.9s-5.8 0.7-6.1 0.8c-1.7 0.7-3.2 1.2-5 1.8-1.3 0.5-3 1.2-4.3 1.7-17.4 6.3-31.1 16.8-42 29.9-1.5 1.8-4.3 4.2-5.1 6.3-0.8 2-0.7 3.3-1 5 3.3-0.7 8.3-3.2 11-4.8 0.8-0.5 4-2.2 5.5-2.8 2.3-1.2 5.1-2.7 6.6-3.8 5.6-4 6.3-5.8 11.1-9.6 3.3-2.7 6.1-6.5 9.3-9.1 4.6-3.8 8.8-7 13.6-10.6 0.7-0.8 6.4-4.8 6.4-4.8z"/>
		</g>
		<path d="m-37 491.1c0 3.3-2.7 6-6 6s-6-2.7-6-6 2.7-6 6-6c3.4-0.2 6 2.6 6 6zm-5.9 4.9c2.7 0 5-2.3 5-5s-2.2-5-5-5c-2.7 0-5 2.3-5 5 0.1 2.7 2.3 5 5 5zm-0.9-4.1v2.7h-1.3v-6.8h2.5c1.2 0 2.2 0.5 2.2 2.2 0 0.8-0.5 1.5-1.5 1.5 1.3 0.2 1.2 1 1.3 2.3 0 0.3 0 0.7 0.2 0.8h-1.3c0-0.2-0.2-0.3-0.2-0.8v-1.2c0-0.5-0.3-0.7-0.7-0.7zm0-3.3v2.3h1c0.5 0 0.7-0.3 0.7-1.2s-0.3-1.2-0.7-1.2h-1z"/>
		
			<path d="m-53.6 296.4c0.8-0.2-1.3 1.7-1.5 1.8-2 0.8-3.7 1.2-5.8 1.7-3 0.7-6.3 1.8-9.1 2.7-7.8 2.2-14.8 4-22.1 6.8-3.7 1.3-7 3.2-10.8 4.5 0.2-0.2 0-1 0.3-1.2 1.3-1.2 5.1-2.2 7-3 5.3-2 11.3-4.5 16.8-6.3 3.7-1.2 6.6-1.3 10.5-2.5 3.7-1.2 8.5-2 12.6-3.3 0.5-0.2 1.1-1 2.1-1.2z"/>
			<path d="m-132.3 311.4c0.5-1 10.6-15.9 16.3-21.1 0.8-0.7 1.2-2 2.2-2.5 1.5-0.8-2 3.2-2.2 3.3-4.5 5-8.3 10.3-12.3 15.9-0.3 0.3-2.7 4-2.8 4-0.5 1-2 4-2 4.2-0.2 0.2-3.2 4.6-3.2 4.6-0.2 0-1.2 2-1.8 4-1 2.3-2.2 4-3.3 7-1.2 3-2.8 12-3.3 18.9h-1c0-3.3 0.5-6.3 1-8.8 0.8-5.5 1.8-9.5 3.7-13.8 2.2-5 5.1-9 7.5-13.1 0.6-1.3 0.7-1.8 1.2-2.6z"/>
			<path d="m-153.5 390.9c-0.5-1.7-1.2-6.5-1.3-7.5-0.8-4.6-1.8-10.3-1.5-15.6 0-0.8-0.2-1.2 0-1.8 0.2-3.2 0.5-6.3 0.7-9.5h-0.7c-0.2 4.8-1.5 11.1-1.2 15.6 0.3 4.8 1.7 9.6 2.5 13.8 0.3 1.3 0.8 4.3 1 5.5 0.5 2.3 0.8 5.1 1.7 7 0.8 2 2 5.3 2.2 6.5 0.3 1.2 0.3 2.2 0.7 2.2 0.2 0.2 0.7-0.5 0.8-0.8s-1-3.2-1.8-5.8c-1.1-2.8-2.8-8.7-3.1-9.6z"/>
			<path d="m-118.8 373.2c0 13.3-2.7 23.6-5.1 34.9-0.7 3-1.7 6.1-2.8 8.8-0.2 0-1.2 1.5-1-0.3 0.2-0.8 0.7-2.2 1-3.3 1.7-6.5 4-13.6 5.1-20.6 1-5.1 1-14.2 2.8-19.5z"/>
			<path d="m53.5 383.3c0.5-0.2 0.3 1.5 0.3 1.8-1.7 12-0.8 22.6-1.5 31.9l-1-0.3c0-10.6-0.5-20.8 1.5-31.2 0.2-1.1-0.3-1.9 0.7-2.2z"/>
			<path d="m-136.8 444.9c3.2 4 8.1 7.8 12.3 10 0.5 0.2 0.8 0.8 1.5 1 1.8 0.3-1.8-2.2-1.8-2.2-1.7-1-3-1.7-4.3-2.8-1.5-1.2-5.8-5.5-6.6-6.8-1.3-2-5.1-6.3-7-9.1-1.8-2.8-8.6-13.6-7.8-12.3 0.5 0.8-4.5-6.5-5.1-7-0.3-0.2-0.7 0.3 0 0.3 1.7 3.3 3.3 5.1 4.8 8.3 0.8 1.5 3.2 5.1 4.6 7.6 1.7 2.5 2.2 4.3 3.7 6.1 1.1 1.1 4.7 6.1 5.7 6.9z"/>
			<path d="m41.2 470c3.5-0.7-2.8 2.2-2.8 2.2-3.8 3-7.6 4.8-11.6 7.1-1.5 0.8-3.2 2-4.6 2.7-11.5 5.3-24.2 9.6-38 12.3l0.3-1c3-0.7 4.6-1.3 10.1-2.8 4.3-1.2 6.8-1.8 7.1-1.8 5.6-1.8 6.5-2.3 12.3-4.5 2.3-0.8 7-2.8 8.6-3.8 4.2-2.5 7.8-4.3 12-6.8 1.8-1 4.3-3.3 6.6-3.6z"/>
			<path d="m-110 479.8c4 1.3 9.6 3 14.3 4 10 1.8 20.8 1.8 31.4 1.8v0.7c-14.8 1.2-30.6-0.5-41.7-4.3-1.5-0.5-2.7-1-4.3-1.5 0.1-0.4-0.2-0.9 0.3-0.7z"/>
		
		<path class="st1" d="m-67.3 344.1" fill="#fff"/>
		<path class="st1" d="m61.7 326.7c-12.8 3.5-41 5.8-66.4 3.5-27.1-2.3-55.1-1-75.6 6.3-1.7 0.7-3.7 0.8-5.3 1.5-0.2 6.1 0.2 11-0.3 15.3-0.5 4.5-0.2 8.1-1.7 19.8-1.5 11.6-3.7 19.8-5 24.4-0.8 3-1.2 4.2-1.7 6.1-0.7 2.7-3.3 12.3-5.8 19.4-2.5 7-4.8 12.6-4.8 12.6s19.3-5.1 31.4-7.1c10.3-1.8 21.8-2.7 33.5-2.5 6.5 0.2 14.1 1 20.6 2 17.3 2.5 34.2 0.8 41.8 0.3s10.8-1 12-1c1 0 1.2-0.8 1.7-1.7 0.2-0.3 1.5-7.1 3.5-15.8 2.5-11.3 6-25.6 7.8-31.9 4.3-14.9 6.1-20.8 9.5-31.2 3.7-11.1 2.8-8.3 3.8-13l1-7z" fill="#fff"/>
		<path class="st2" d="m-85.9 348.3s17.1-4.5 41.2-7.5c15.8-2 32.7 0.5 41 1.2s21.3 1.3 25.9 1c4.6-0.2 11.3-0.3 14.4-0.5 3.2-0.2 8.8-1.2 11.1-1.7s6.6-1.7 8-1.8c1.3-0.2 3.3 0.3 3.3 0.3l-5.1 16.3s-1-0.5-2.5 0c-2.3 1-6.8 2.5-13.4 2.7-21.3 0.7-34.7 0.3-48.7-1.2-10.3-1.2-21.1-1.7-34.5-0.2-13.6 1.5-20.4 3.3-28.6 5-8.6 1.8-13.1 3.8-13.1 3.8z" fill="#007a43"/>
		<path class="st2" d="m-88.8 379s23.4-7.3 38.4-8.8c14.9-1.7 34.4 0.8 51 1.5s22.6 0.7 31.9-0.3 17.3-2.8 17.3-2.8l-4.8 17.3s-2.8 0.2-7.3 1c-4.8 0.8-16.3 3.2-37 1.7-20.8-1.7-36-2.8-51.6-1.3-19.4 2-26.1 5.1-32.5 7-6.3 2-9.1 3.5-9.1 3.5z" fill="#007a43"/>
		<path class="st2" d="m-95.6 408.4-6.1 18.6s2-0.8 5.1-2c3-1.2 24.2-7.3 45-9.3 14.1-1.3 27.1 0.2 43.5 2 16.6 2 22.9 1.2 31.9 0.7s13.9-1.7 13.9-1.7l4-17.3s-10.5 0.5-26.1 2.8c-3.2 0.5-20.9-1.2-31.1-2.2-10.1-1-24.4-2.5-37.2-1-13.3 1.5-18.1 2.7-24.6 4.2-6.7 1.7-18.3 5.2-18.3 5.2z" fill="#007a43"/>
		
			<polygon points="-61 337.8 -61.2 339.9 -62.4 349.2 -64.4 347.1 -57.2 346.6 -58.9 348.1 -57.9 339 -57.7 337.5 -56.2 337.5 -50.9 337 -48.8 336.8 -48.9 339 -51.7 362.9 -51.9 364.4 -53.4 364.4 -58.5 364.9 -60.9 365 -60.5 362.9 -59.4 352.6 -57.4 354.6 -64.5 355.2 -62.9 353.6 -64 363.9 -64.2 365.4 -65.7 365.5 -70.8 365.9 -73.2 366 -72.8 363.9 -70.2 339.9 -70 338.6 -68.5 338.5 -63.2 338"/>
			<path class="st0" d="m-68.3 340.3 5.3-0.5-1 9.1 7-0.7 1-9.1 5.3-0.5-2.8 23.9-5.3 0.5 1.2-10.3-7 0.7-1.2 10.3-5.3 0.5z" fill="#fc0"/>
		
		
			<polygon points="-19.7 364.7 -20 366.8 -23.5 390.6 -23.7 392.1 -25.2 392.1 -30.3 392.1 -32.6 392.1 -32.3 389.9 -28.8 366.2 -28.5 364.7 -27.2 364.7 -21.9 364.7"/>
			<path class="st0" d="m-27 366.5h5.3l-3.5 23.7h-5.3z" fill="#fc0"/>
		
		
			<polygon points="25.8 395.9 25.3 398.1 24.5 402.5 24.3 403.9 22.8 403.9 11.2 403.9 12.9 402.5 11.9 408.5 10 406.4 16.3 406.4 18.7 406.4 18.2 408.5 17.5 412.5 17.2 414 15.8 414 9.5 414 11.2 412.5 9.4 421.8 9.2 423.3 7.7 423.3 2.6 423.3 0.2 423.3 0.7 421 4.9 397.4 5.2 395.9 6.7 395.9 23.5 395.9"/>
			<path class="st0" d="m6.7 397.7h16.8l-0.8 4.3h-11.7l-1 6h6.3l-0.7 4h-6.2l-1.8 9.3h-5.2z" fill="#fc0"/>
		
	
	<path d="m-112.2 453.5s0.5 2.5 0.5 5.3c0.2 3.3-0.7 6.6-0.7 6.6l1.5 0.3s0.7-4.3 0.7-8-1.2-8.5-1.2-8.5z"/>
</g>
</svg>
