<?xml version="1.0" encoding="utf-8"?>
<!-- Generator: Adobe Illustrator 13.0.0, SVG Export Plug-In . SVG Version: 6.00 Build 14948)  -->
<!DOCTYPE svg PUBLIC "-//W3C//DTD SVG 1.0//EN" "http://www.w3.org/TR/2001/REC-SVG-20010904/DTD/svg10.dtd">
<svg version="1.0" id="Ebene_1" xmlns="http://www.w3.org/2000/svg" xmlns:xlink="http://www.w3.org/1999/xlink" x="0px" y="0px"
	 width="323.490677037" height="309.127919592" viewBox="0 0 396.2 378.609" enable-background="new 0 0 396.2 378.609" xml:space="preserve">
<path fill="#F6BE5F" d="M198.094,13.608C187.718,9.296,161.904,0,132.148,0c-34.98,0-68.36,15.924-94,44.837
	C13.907,72.186,0,107.875,0,142.758c0,72.164,33.863,135.736,97.928,183.855c47.758,35.876,94.942,50.416,96.932,51.018l3.234,0.979
	l3.237-0.979c1.985-0.602,49.173-15.141,96.935-51.018c64.064-48.119,97.934-111.691,97.934-183.855
	c0-34.883-13.913-70.572-38.151-97.921C332.412,15.924,299.029,0,264.052,0C234.296,0,208.477,9.296,198.094,13.608z"/>
<path fill="#9F1931" d="M198.094,21.699c-6.794-3.042-33.98-14.257-65.946-14.257c-32.819,0-64.223,15.037-88.427,42.335
	C20.667,75.782,7.443,109.672,7.443,142.758c0,88.096,51.638,145.373,94.953,177.905c46.717,35.092,94.145,49.7,94.621,49.842
	l1.077,0.324l1.078-0.324c0.476-0.142,47.907-14.75,94.629-49.842c43.312-32.533,94.949-89.809,94.949-177.905
	c0-33.086-13.217-66.976-36.274-92.981c-24.198-27.298-55.608-42.335-88.424-42.335C232.08,7.442,204.89,18.657,198.094,21.699z"/>
<path fill="#F6BE5F" d="M85.495,172.653h12.298c3.989,0,4.927,0.807,5.362,4.673h1.679v-11.464h-1.679
	c-0.377,3.363-1.25,3.984-5.052,3.984H85.495v-13.777h12.608c5.052,0,6.173,0.817,6.484,4.991h1.682v-7.791H73.78v1.682
	c3.553,0,4.802,1.118,4.802,4.548v25.992c0,3.299-0.813,4.861-4.802,4.861v1.681h17.138v-1.681c-4.673,0-5.423-1.062-5.423-5.986
	V172.653"/>
<path fill="#F6BE5F" d="M326.536,181.628h-1.776c-3.316,5.919-8.468,9.163-14.271,9.163c-9.056,0-15.863-8.106-15.863-19.013
	c0-10.532,5.921-17.512,14.803-17.512c6.565,0,11.359,3.492,13.554,9.907h1.776l-0.297-10.278h-1.479
	c-0.295,0.311-0.594,0.436-1.066,0.436c-1.716,0-6.274-2.057-12.724-2.057c-14.988,0-21.733,10.529-21.733,21.129
	c0,11.153,7.461,19.631,21.252,19.631c5.032,0,9.118-1.439,11.786-1.439c0.884,0,1.303,0.128,2.013,0.439L326.536,181.628"/>
<path fill="#F6BE5F" d="M193.156,83.279c0-2.729,2.211-4.94,4.94-4.94c2.735,0,4.943,2.211,4.943,4.94
	c0,2.729-2.208,4.937-4.943,4.937C195.367,88.215,193.156,86.007,193.156,83.279"/>
<path fill="#F6BE5F" d="M218.147,100.547h11.428v-1.509c-3.397-0.28-4.579-0.28-4.221-6.268l1.235-20.696h0.102l12.096,28.473h1.749
	l11.886-29.2h0.103l1.392,20.643c0.411,5.927-0.311,7.048-4.526,7.048v1.509h14.615v-1.509c-3.04,0-4.019-0.226-4.221-3.076
	l-1.857-25.455c-0.203-2.572,0.413-3.245,3.296-3.245v-1.506H251.7l-10.497,25.9l-11.115-25.9h-9.523v1.506
	c2.986,0,3.552,0.729,3.242,5.707l-1.236,20.585c-0.303,4.866-1.235,5.484-4.424,5.484V100.547"/>
<path fill="#F6BE5F" d="M146.105,84.072h21.247v9.651c0,3.964-0.719,5.133-4.724,5.298v1.513h15.091v-1.513
	c-4.107-0.273-4.67-1.222-4.67-5.187V72.796c0-4.292,0.618-5.24,4.67-5.463v-1.509h-15.091v1.509
	c4.21,0.166,4.724,1.337,4.724,5.859v8.368h-21.247v-8.314c0-4.853,0.716-5.747,4.565-5.913v-1.509h-14.838v1.509
	c4.005,0.051,4.573,1.449,4.573,5.633v20.811c0,3.742-0.413,4.971-4.573,5.244v1.513h14.838v-1.513
	c-4.103-0.108-4.565-1.614-4.565-4.853V84.072"/>
<path fill="#F6BE5F" d="M206.858,293.844h3.984l11.988-30.593v-1.566h-20.253l-0.406,7.463h1.458c0.5-2.871,0.553-3.128,3.276-3.128
	h11.792L206.858,293.844"/>
<path fill="#F6BE5F" d="M228.781,281.647l9.178-13.858h0.093v13.858H228.781 M238.052,293.844h4.789v-9.271h4.64v-2.925h-4.64
	V260.88h-2.121l-14.662,21.93v1.763h11.994V293.844z"/>
<path fill="#F6BE5F" d="M150.626,293.838h14.463v-1.358h-2.523c-1.911,0-2.366-0.46-2.366-2.323v-28.48h-2.266
	c-2.068,2.674-5.394,5.342-9.22,7.463l0.55,1.155c2.57-0.952,4.083-1.715,6.15-3.173v23.036c0,2.06-0.253,2.323-2.371,2.323h-2.417
	V293.838"/>
<path fill="#F6BE5F" d="M177.194,286.023c0-2.971,1.06-5.092,3.576-7.003c7.459,3.621,8.215,5.335,8.215,7.963
	c0,3.479-2.519,6.152-5.845,6.152C179.615,293.135,177.194,290.259,177.194,286.023 M177.443,268.229
	c0-2.918,2.324-5.234,5.347-5.234c3.376,0,5.54,2.364,5.54,6.045c0,2.822-1.06,4.834-3.529,6.55
	C179.007,272.718,177.443,271.105,177.443,268.229z M173.567,269.842c0,3.626,1.658,6.005,5.947,8.416
	c-4.437,1.769-6.552,4.342-6.552,7.813c0,4.844,4.333,8.571,9.976,8.571c5.896,0,10.278-3.984,10.278-9.321
	c0-3.937-1.813-6.199-7.152-9.029c3.877-1.255,6.254-3.876,6.254-7.05c0-4.235-4.089-7.564-9.381-7.564
	C177.596,261.677,173.567,265.208,173.567,269.842z"/>
<rect x="175.738" y="305.008" fill="#F6BE5F" width="44.717" height="4.119"/>
<path fill="#D0D2D3" d="M241.275,47.261c6.657-1.428,13.507-2.373,20.123-2.397c4.07-0.015,8.179,0.37,12.288,1.106l8.476-29.399
	c-5.96-1.1-12.007-1.684-18.109-1.684c-10.307,0-20.16,1.276-28.946,3.055L241.275,47.261z"/>
<path fill="#D0D2D3" d="M308.623,61.396c4.076,2.975,8.005,6.301,11.713,9.993c4.194,4.177,7.986,8.703,11.394,13.482l25.786-16.53
	c-3.245-4.736-6.774-9.299-10.61-13.624c-5.726-6.461-11.88-12.19-18.367-17.15L308.623,61.396z"/>
<path fill="#D0D2D3" d="M236.275,347.093c10.221-5.035,21.743-11.315,33.706-18.971l-15.815-23.006
	c-11.823,7.5-22.954,13.359-32.114,17.712L236.275,347.093z"/>
<path fill="#D0D2D3" d="M159.921,347.096l14.223-24.265c-9.16-4.355-20.291-10.215-32.115-17.718l-15.816,23.013
	C138.176,335.781,149.697,342.062,159.921,347.096z"/>
<path fill="#D0D2D3" d="M157.462,47.842c19.833,4.658,37.358,13.328,40.632,15c3.277-1.671,20.807-10.339,40.638-14.998
	l-6.173-29.366c-19.21,4.192-32.651,10.576-32.848,10.67l-1.618,0.783l-1.624-0.783c-0.194-0.095-13.627-6.477-32.83-10.669
	L157.462,47.842z"/>
<path fill="#D0D2D3" d="M351.19,156.114c-0.698,12.094-2.619,23.46-5.514,34.106l28.041,8.233c3.718-13.186,6.1-26.843,7.052-40.984
	L351.19,156.114z"/>
<path fill="#D0D2D3" d="M358.963,70.509l-25.728,16.496c6.176,9.122,10.891,19.155,13.987,29.66l29.493-7.046
	C372.954,95.923,366.947,82.648,358.963,70.509z"/>
<path fill="#D0D2D3" d="M333.763,272.962c8.516-10.17,15.897-20.774,22.131-31.803l-24.965-14.513
	c-5.42,9.894-11.612,18.933-18.218,27.152L333.763,272.962z"/>
<path fill="#D0D2D3" d="M326.428,36.031c-12.866-9.409-26.98-15.824-41.704-18.938l-8.473,29.384
	c10.394,2.249,20.711,6.814,30.25,13.393L326.428,36.031z"/>
<path fill="#D0D2D3" d="M344.966,192.733c-3.285,11.359-7.658,21.892-12.797,31.62l25.022,14.548
	c6.655-12.144,11.926-24.796,15.826-37.939L344.966,192.733z"/>
<path fill="#D0D2D3" d="M122.51,45.97c4.108-0.737,8.218-1.121,12.29-1.106c6.617,0.025,13.466,0.969,20.123,2.397l6.168-29.319
	c-8.785-1.776-18.636-3.055-28.943-3.055c-6.102,0-12.149,0.584-18.111,1.684L122.51,45.97z"/>
<path fill="#D0D2D3" d="M377.388,112.137l-29.456,7.038c2.337,8.717,3.579,17.725,3.579,26.792c0,2.549-0.071,5.06-0.174,7.549
	l29.628,1.354c0.219-4.001,0.344-8.035,0.344-12.11C381.309,132.539,379.948,122.238,377.388,112.137z"/>
<path fill="#D0D2D3" d="M44.686,145.966c0-9.067,1.243-18.074,3.581-26.793l-29.455-7.036c-2.563,10.102-3.923,20.402-3.923,30.621
	c0,4.075,0.125,8.109,0.346,12.11l29.626-1.354C44.754,151.026,44.686,148.515,44.686,145.966z"/>
<path fill="#D0D2D3" d="M109.626,280.973c-8.291-7.278-16.657-15.638-24.501-25.145L64.108,274.96
	c8.134,9.497,17.28,18.606,27.414,27.327L109.626,280.973z"/>
<path fill="#D0D2D3" d="M139.841,303.706c-6.098-3.944-12.348-8.314-18.59-13.144c-3.176-2.458-6.413-5.084-9.663-7.878
	l-18.101,21.312c4.246,3.589,8.607,7.131,13.197,10.583c5.806,4.366,11.619,8.397,17.348,12.129L139.841,303.706z"/>
<path fill="#D0D2D3" d="M219.688,323.939c-12.675,5.886-21.031,8.671-21.209,8.731l-0.385,0.129l-0.384-0.129
	c-0.178-0.061-8.531-2.842-21.201-8.729l-14.243,24.303c18.385,8.89,32.133,13.589,35.828,14.79
	c3.693-1.201,17.447-5.903,35.833-14.794L219.688,323.939z"/>
<path fill="#D0D2D3" d="M311.074,255.828c-7.844,9.507-16.208,17.864-24.502,25.141l18.104,21.314
	c10.134-8.718,19.278-17.829,27.412-27.325L311.074,255.828z"/>
<path fill="#D0D2D3" d="M284.609,282.684c-3.25,2.794-6.487,5.42-9.664,7.878c-6.241,4.829-12.494,9.199-18.593,13.144l15.81,22.999
	c5.731-3.731,11.539-7.76,17.344-12.125c4.589-3.452,8.952-6.997,13.201-10.583L284.609,282.684z"/>
<path fill="#D0D2D3" d="M64.03,224.353c-5.141-9.728-9.513-20.26-12.798-31.62l-28.052,8.229c3.9,13.144,9.171,25.796,15.828,37.943
	L64.03,224.353z"/>
<path fill="#D0D2D3" d="M64.467,84.871c3.409-4.779,7.199-9.305,11.394-13.482c3.708-3.695,7.638-7.018,11.713-9.996L67.66,37.567
	c-6.487,4.958-12.639,10.687-18.369,17.15c-3.834,4.325-7.364,8.89-10.606,13.626L64.467,84.871z"/>
<path fill="#D0D2D3" d="M37.237,70.507c-7.985,12.142-13.989,25.416-17.752,39.114l29.489,7.044
	c3.097-10.505,7.813-20.538,13.99-29.66L37.237,70.507z"/>
<path fill="#D0D2D3" d="M50.522,190.223c-2.896-10.648-4.817-22.015-5.515-34.109l-29.579,1.355
	c0.956,14.143,3.334,27.801,7.053,40.984L50.522,190.223z"/>
<path fill="#D0D2D3" d="M83.486,253.803c-6.606-8.22-12.798-17.259-18.219-27.156l-24.964,14.513
	c6.234,11.029,13.615,21.633,22.131,31.807L83.486,253.803z"/>
<path fill="#D0D2D3" d="M111.477,17.091c-14.726,3.113-28.841,9.531-41.709,18.94l19.926,23.838
	c9.539-6.58,19.858-11.146,30.252-13.395L111.477,17.091z"/>
<path fill="#00529B" d="M251.972,228.334l48.826,35.44c8.368-8.958,16.406-19.102,23.436-30.506l-54.336-39.44
	C267.096,206.966,260.782,218.818,251.972,228.334z"/>
<path fill="#00529B" d="M71.965,233.268c7.031,11.404,15.067,21.548,23.437,30.506l48.832-35.444
	c-8.81-9.517-15.133-21.359-17.935-34.498L71.965,233.268z"/>
<path fill="#00529B" d="M267.263,153.879l71.669-52.018c-5.061-10.577-11.913-20.341-20.331-28.723
	c-0.791-0.787-1.597-1.542-2.404-2.294l-70.907,51.463C255.173,130.621,262.838,141.484,267.263,153.879z"/>
<path fill="#00529B" d="M150.909,122.307L80.005,70.844c-0.808,0.752-1.616,1.508-2.405,2.294
	c-8.417,8.382-15.269,18.146-20.33,28.725l71.665,52.015C133.362,141.484,141.025,130.621,150.909,122.307z"/>
<path fill="#FFFFFF" d="M259.822,218.194l49.472,35.909c2.678-3.252,5.284-6.649,7.814-10.171l-51.254-37.2
	C264.176,210.746,262.156,214.579,259.822,218.194z"/>
<path fill="#FFFFFF" d="M79.093,243.936c2.527,3.519,5.131,6.918,7.81,10.167l49.474-35.91c-2.333-3.614-4.367-7.439-6.045-11.452
	L79.093,243.936z"/>
<path fill="#FFFFFF" d="M332.627,90.593c-2.299-3.593-4.811-7.058-7.553-10.355l-70.621,51.259
	c2.738,3.276,5.184,6.801,7.325,10.523L332.627,90.593z"/>
<path fill="#FFFFFF" d="M71.128,80.239c-2.741,3.297-5.253,6.763-7.555,10.355l70.848,51.423c2.141-3.722,4.587-7.245,7.324-10.521
	L71.128,80.239z"/>
<path fill="#C6C7C9" d="M257.937,177.301c-0.13-6.877-1.454-13.838-4.097-20.59l10.312-4.271c3.057,7.722,4.797,16.099,4.944,24.862
	H257.937z"/>
<path fill="#C6C7C9" d="M246.503,209.404l-8.269-5.524c2.87-4.522,4.996-9.558,6.207-14.94l9.756,1.94
	C252.737,197.452,250.118,203.723,246.503,209.404z"/>
<path fill="#C6C7C9" d="M231.005,225.6l-5.542-8.295c4.431-3.134,8.303-7.004,11.437-11.436l8.263,5.521
	C241.366,216.841,236.618,221.679,231.005,225.6z"/>
<path fill="#C6C7C9" d="M220.091,231.6c-3.165,1.31-6.382,2.298-9.614,3.013l-1.945-9.77c5.382-1.211,10.418-3.335,14.94-6.204
	l5.534,8.282C226.215,228.701,223.254,230.289,220.091,231.6z"/>
<path fill="#C6C7C9" d="M198.174,235.973c-3.407,0-6.782-0.341-10.1-0.936l1.934-9.729c2.63,0.454,5.33,0.704,8.087,0.704
	c2.759,0,5.46-0.25,8.09-0.704l1.947,9.773C204.812,235.669,201.481,235.973,198.174,235.973z"/>
<path fill="#C6C7C9" d="M167.196,226.908l5.525-8.271c4.523,2.87,9.56,4.994,14.94,6.206l-1.94,9.758
	C179.148,233.141,172.877,230.523,167.196,226.908z"/>
<path fill="#C6C7C9" d="M150.999,211.415l8.297-5.547c3.135,4.431,7.005,8.301,11.437,11.437l-5.522,8.264
	C159.757,221.773,154.919,217.024,150.999,211.415z"/>
<path fill="#C6C7C9" d="M143.893,200.955l0-0.002l1.105-0.457c-1.312-3.165-2.3-6.38-3.015-9.611l9.772-1.945
	c1.211,5.38,3.336,10.416,6.206,14.939l-8.283,5.537c-1.782-2.794-3.37-5.756-4.68-8.92L143.893,200.955z"/>
<path fill="#C6C7C9" d="M149.685,147.595l8.273,5.529c-2.869,4.522-4.994,9.558-6.205,14.939l-9.764-1.94
	C143.451,159.547,146.07,153.276,149.685,147.595z"/>
<path fill="#C6C7C9" d="M165.182,131.399l5.545,8.298c-4.43,3.134-8.3,7.005-11.435,11.436l-8.268-5.524
	C154.82,140.157,159.57,135.319,165.182,131.399z"/>
<path fill="#C6C7C9" d="M176.102,125.401c3.164-1.311,6.379-2.299,9.611-3.015l1.945,9.772c-5.381,1.212-10.417,3.336-14.941,6.206
	l-5.536-8.284C169.974,128.298,172.937,126.711,176.102,125.401z"/>
<path fill="#C6C7C9" d="M198.024,121.021c3.408,0,6.783,0.341,10.102,0.936l-1.936,9.734c-2.633-0.453-5.334-0.703-8.095-0.703
	c-2.758,0-5.458,0.25-8.088,0.703l-1.947-9.775C191.382,121.326,194.715,121.021,198.024,121.021z"/>
<path fill="#C6C7C9" d="M229.006,130.088l-5.527,8.273c-4.524-2.869-9.56-4.994-14.942-6.205l1.944-9.764
	C217.054,123.854,223.325,126.473,229.006,130.088z"/>
<path fill="#C6C7C9" d="M245.198,145.588l-8.295,5.544c-3.133-4.432-7.004-8.302-11.435-11.436l5.524-8.268
	C236.441,135.226,241.278,139.975,245.198,145.588z"/>
<path fill="#C6C7C9" d="M254.21,166.12l-9.769,1.943c-1.211-5.383-3.335-10.419-6.205-14.943l8.282-5.533
	c1.781,2.792,3.368,5.754,4.678,8.917C252.507,159.67,253.496,162.886,254.21,166.12z"/>
<path fill="#C6C7C9" d="M230.796,209.504l-9.202-9.203c2.304-2.481,4.219-5.319,5.652-8.434l12.03,4.984
	C237.172,201.547,234.292,205.818,230.796,209.504z"/>
<path fill="#C6C7C9" d="M216.448,219.679l-4.982-12.03c3.114-1.435,5.954-3.35,8.438-5.654l9.2,9.201
	C225.417,214.694,221.146,217.575,216.448,219.679z"/>
<path fill="#C6C7C9" d="M199.294,223.586v-13.044c3.492-0.13,6.838-0.818,9.961-1.98l4.985,12.039
	C209.58,222.397,204.55,223.44,199.294,223.586z"/>
<path fill="#C6C7C9" d="M181.955,220.601l4.985-12.039c3.123,1.162,6.467,1.85,9.959,1.98l0.004,13.044
	C191.647,223.44,186.616,222.397,181.955,220.601z"/>
<path fill="#C6C7C9" d="M167.093,211.196l9.202-9.201c2.482,2.306,5.321,4.219,8.434,5.654l-4.984,12.03
	C175.049,217.575,170.779,214.694,167.093,211.196z"/>
<path fill="#C6C7C9" d="M156.919,196.853l12.03-4.984c1.434,3.113,3.349,5.951,5.653,8.433l-9.201,9.203
	C161.904,205.818,159.023,201.549,156.919,196.853z"/>
<path fill="#C6C7C9" d="M165.4,147.495l9.202,9.202c-2.306,2.482-4.22,5.322-5.655,8.436l-12.03-4.984
	C159.022,155.452,161.903,151.181,165.4,147.495z"/>
<path fill="#C6C7C9" d="M179.748,137.319l4.981,12.031c-3.114,1.434-5.953,3.349-8.436,5.655l-9.202-9.201
	C170.777,142.305,175.05,139.423,179.748,137.319z"/>
<path fill="#C6C7C9" d="M196.9,133.414v13.042c-3.492,0.13-6.836,0.817-9.958,1.98l-4.985-12.039
	C186.617,134.602,191.646,133.561,196.9,133.414z"/>
<path fill="#C6C7C9" d="M214.237,136.397l-4.984,12.039c-3.123-1.163-6.466-1.85-9.958-1.98l-0.003-13.042
	C204.547,133.561,209.577,134.602,214.237,136.397z"/>
<path fill="#C6C7C9" d="M229.102,145.8l-9.2,9.203c-2.483-2.305-5.322-4.219-8.436-5.653l4.982-12.031
	C221.145,139.423,225.416,142.304,229.102,145.8z"/>
<path fill="#C6C7C9" d="M239.278,160.149l-12.031,4.981c-1.435-3.115-3.35-5.954-5.654-8.436l9.2-9.203
	C234.291,151.179,237.174,155.451,239.278,160.149z"/>
<path fill="#C6C7C9" d="M230.14,177.301c-0.13-3.492-0.818-6.835-1.98-9.958l12.039-4.984c1.795,4.66,2.836,9.689,2.984,14.942
	H230.14z"/>
<path fill="#C6C7C9" d="M155.996,162.359l12.039,4.986c-1.163,3.123-1.85,6.467-1.98,9.959H153.01
	C153.157,172.049,154.2,167.019,155.996,162.359z"/>
<path fill="#C6C7C9" d="M166.058,179.696c0.129,3.492,0.815,6.837,1.978,9.96l-12.039,4.987c-1.798-4.661-2.84-9.69-2.988-14.945
	L166.058,179.696z"/>
<path fill="#C6C7C9" d="M240.198,194.642l-12.037-4.987c1.163-3.124,1.849-6.468,1.979-9.961h13.043
	C243.036,184.949,241.995,189.981,240.198,194.642z"/>
<path fill="#C6C7C9" d="M151.288,170.41c-0.455,2.632-0.704,5.333-0.704,8.092h0.003c0,2.759,0.249,5.458,0.703,8.089l-9.776,1.947
	c-0.591-3.321-0.895-6.653-0.895-9.963c0.001-3.408,0.341-6.782,0.936-10.1L151.288,170.41z"/>
<path fill="#C6C7C9" d="M255.57,178.424c0,3.409-0.342,6.784-0.937,10.104l-9.727-1.935c0.454-2.632,0.704-5.333,0.704-8.091
	c0-2.76-0.25-5.46-0.704-8.092l9.771-1.942C255.267,171.787,255.57,175.116,255.57,178.424z"/>
<path fill="#C6C7C9" d="M252.91,154.503c-2.909-6.646-6.874-12.521-11.648-17.479l7.86-7.86c5.882,6.083,10.691,13.2,14.117,21.06
	L252.91,154.503z"/>
<path fill="#C6C7C9" d="M239.544,135.354c-5.125-4.911-11.044-8.837-17.46-11.645l4.289-10.353
	c7.858,3.424,14.974,8.232,21.056,14.113L239.544,135.354z"/>
<path fill="#C6C7C9" d="M219.88,122.779c-6.523-2.552-13.491-3.953-20.587-4.104L199.29,107.5
	c8.766,0.145,17.145,1.885,24.869,4.944L219.88,122.779z"/>
<path fill="#C6C7C9" d="M196.898,118.655c-6.878,0.128-13.838,1.458-20.591,4.101l-4.271-10.313
	c7.72-3.056,16.097-4.796,24.862-4.943V118.655z"/>
<path fill="#C6C7C9" d="M174.101,123.688c-6.646,2.908-12.522,6.873-17.479,11.646l-7.86-7.86
	c6.082-5.882,13.199-10.691,21.06-14.117L174.101,123.688z"/>
<path fill="#C6C7C9" d="M154.953,137.051c-4.911,5.125-8.837,11.045-11.645,17.462l-10.354-4.287
	c3.425-7.858,8.231-14.976,14.113-21.059L154.953,137.051z"/>
<path fill="#C6C7C9" d="M142.377,156.718c-2.552,6.523-3.954,13.491-4.106,20.587h-11.175c0.147-8.766,1.887-17.144,4.946-24.868
	L142.377,156.718z"/>
<path fill="#C6C7C9" d="M138.252,179.697c0.129,6.881,1.46,13.84,4.103,20.594l-10.313,4.27c-3.058-7.722-4.798-16.098-4.945-24.861
	L138.252,179.697z"/>
<path fill="#C6C7C9" d="M143.286,202.5c2.909,6.644,6.874,12.518,11.646,17.473l-7.862,7.863
	c-5.882-6.081-10.691-13.2-14.116-21.059L143.286,202.5z"/>
<path fill="#C6C7C9" d="M156.65,221.642c5.125,4.909,11.045,8.834,17.461,11.643l-4.289,10.358
	c-7.859-3.424-14.977-8.232-21.059-14.114L156.65,221.642z"/>
<path fill="#C6C7C9" d="M176.317,234.214c6.523,2.551,13.492,3.953,20.587,4.104v11.178c-8.767-0.146-17.146-1.886-24.869-4.943
	L176.317,234.214z"/>
<path fill="#C6C7C9" d="M199.297,238.339c6.881-0.13,13.842-1.457,20.593-4.098l4.27,10.311c-7.721,3.058-16.1,4.796-24.863,4.942
	V238.339z"/>
<path fill="#C6C7C9" d="M222.096,233.309c6.644-2.911,12.517-6.875,17.473-11.646l7.865,7.862
	c-6.082,5.883-13.2,10.691-21.06,14.117L222.096,233.309z"/>
<path fill="#C6C7C9" d="M241.238,219.944c4.91-5.125,8.835-11.042,11.643-17.458l10.358,4.288
	c-3.425,7.861-8.235,14.977-14.115,21.06L241.238,219.944z"/>
<path fill="#C6C7C9" d="M253.812,200.28c2.552-6.522,3.953-13.49,4.104-20.587h11.179c-0.145,8.767-1.886,17.146-4.946,24.869
	L253.812,200.28z"/>
<path fill="#F6BE5F" d="M198.096,208.208c-16.374-0.031-29.676-13.33-29.708-29.707c0.032-16.384,13.334-29.68,29.708-29.711
	c16.38,0.031,29.68,13.328,29.708,29.711C227.776,194.879,214.476,208.177,198.096,208.208z"/>
<path fill="#B81930" d="M216.513,161.533c0-0.001-0.003-0.001-0.003-0.001c-2.436-2.647-5.416-4.779-8.78-6.184
	c-0.479-0.2-0.973-0.367-1.466-0.538c-2.548-0.878-5.268-1.379-8.109-1.379c-0.019,0-0.038,0.002-0.058,0.003
	c-0.02,0-0.039-0.003-0.058-0.003c-2.841,0-5.561,0.501-8.109,1.379c-0.493,0.171-0.987,0.338-1.466,0.538
	c-3.365,1.404-6.345,3.536-8.78,6.184c0,0-0.003,0-0.003,0.001c-4.116,4.469-6.654,10.419-6.654,16.966
	c0,7.133,3.004,13.563,7.793,18.132c0.002,0.006,0.006,0.01,0.012,0.015c4.489,4.277,10.541,6.923,17.208,6.923
	c0.019,0,0.038-0.003,0.058-0.003s0.039,0.003,0.058,0.003c6.667,0,12.719-2.646,17.208-6.923c0.006-0.004,0.009-0.009,0.012-0.015
	c4.789-4.568,7.793-10.999,7.793-18.132C223.167,171.952,220.629,166.002,216.513,161.533z"/>
<path fill="#F6BE5F" d="M207.313,156.844c2.764,1.18,5.256,2.877,7.357,4.968l-0.432,0.904c-1.38-0.234-4.984-0.823-8.776-1.265
	C206.061,160.332,206.743,158.779,207.313,156.844z"/>
<path fill="#F6BE5F" d="M198.097,170.289c-6.201,0-15.694,1.731-18.722,2.317c0.219-5.507,2.208-7.947,2.544-8.311
	c1.368-0.234,10.799-1.828,16.178-1.828s14.81,1.593,16.178,1.828c0.335,0.364,2.325,2.804,2.543,8.311
	C213.792,172.021,204.298,170.289,198.097,170.289z"/>
<path fill="#F6BE5F" d="M217.062,174.232c0.405,1.079,1.127,3.195,1.127,4.248c0,1.046-0.722,3.162-1.127,4.24
	c-1.97,0.393-12.47,2.396-18.964,2.396s-16.995-2.004-18.964-2.396c-0.405-1.079-1.127-3.194-1.127-4.24
	c0-1.053,0.722-3.168,1.127-4.248c1.97-0.393,12.47-2.393,18.964-2.393S215.091,173.839,217.062,174.232z"/>
<path fill="#F6BE5F" d="M198.04,154.978c0.019,0,0.038,0.002,0.058,0.003c0.02-0.001,0.039-0.003,0.058-0.003
	c2.701,0,5.286,0.482,7.704,1.328c-0.642,2.22-1.443,3.861-2.066,4.963c-2.038-0.207-4.042-0.352-5.695-0.352
	s-3.657,0.145-5.695,0.352c-0.623-1.102-1.424-2.744-2.066-4.963C192.754,155.46,195.339,154.978,198.04,154.978z"/>
<path fill="#F6BE5F" d="M188.882,156.844c0.569,1.936,1.251,3.488,1.85,4.607c-3.792,0.442-7.396,1.031-8.776,1.265l-0.432-0.904
	C183.625,159.721,186.118,158.023,188.882,156.844z"/>
<path fill="#F6BE5F" d="M180.4,193.958c-3.616-4.137-5.825-9.539-5.825-15.458s2.209-11.321,5.822-15.46l0.2,0.419
	c-0.831,1.031-2.762,4.059-2.8,9.934c-0.253,0.641-1.338,3.506-1.338,5.087c0,1.569,1.077,4.419,1.336,5.073
	c0.026,5.915,1.97,8.953,2.802,9.99L180.4,193.958z"/>
<path fill="#F6BE5F" d="M181.526,195.187l0.432-0.904c1.383,0.234,4.987,0.822,8.773,1.266c-0.597,1.121-1.279,2.669-1.847,4.603
	C186.119,198.974,183.63,197.278,181.526,195.187z"/>
<path fill="#F6BE5F" d="M198.155,202.021c-0.019,0-0.038-0.003-0.058-0.003s-0.039,0.003-0.058,0.003
	c-2.701,0-5.286-0.485-7.702-1.331c0.64-2.214,1.44-3.854,2.063-4.958c2.038,0.207,4.042,0.353,5.697,0.353
	c1.655,0,3.659-0.146,5.697-0.353c0.623,1.104,1.423,2.745,2.063,4.958C203.44,201.536,200.855,202.021,198.155,202.021z"/>
<path fill="#F6BE5F" d="M207.311,200.151c-0.568-1.933-1.25-3.481-1.847-4.603c3.786-0.444,7.39-1.032,8.773-1.266l0.432,0.904
	C212.564,197.278,210.075,198.974,207.311,200.151z"/>
<path fill="#F6BE5F" d="M214.275,192.706c-1.371,0.229-10.799,1.827-16.178,1.827s-14.807-1.597-16.178-1.827
	c-0.336-0.373-2.337-2.819-2.546-8.358c3.024,0.583,12.523,2.314,18.725,2.314s15.7-1.731,18.725-2.314
	C216.612,189.887,214.611,192.333,214.275,192.706z"/>
<path fill="#F6BE5F" d="M215.597,193.542c0.833-1.037,2.776-4.075,2.803-9.99c0.259-0.653,1.335-3.504,1.335-5.073
	c0-1.581-1.085-4.446-1.338-5.087c-0.037-5.875-1.968-8.903-2.8-9.934l0.2-0.419c3.613,4.14,5.823,9.541,5.823,15.46
	s-2.209,11.321-5.825,15.458L215.597,193.542z"/>
</svg>
