<?xml version="1.0" encoding="UTF-8"?>
<!DOCTYPE svg  PUBLIC '-//W3C//DTD SVG 1.1//EN'  'http://www.w3.org/Graphics/SVG/1.1/DTD/svg11.dtd' [
	<!ENTITY ns_flows "http://ns.adobe.com/Flows/1.0/">
	<!ENTITY ns_svg "http://www.w3.org/2000/svg">
	<!ENTITY ns_xlink "http://www.w3.org/1999/xlink">
]>
<svg width="192" height="251" enable-background="new -0.15625 -0.9257813 192 251" version="1.1" viewBox="-.15625 -.92578 192 251" xml:space="preserve" xmlns="http://www.w3.org/2000/svg">

<path d="m0 0v154.4c0.40527 15.915 5.7163 30.84 15.786 44.381 8.0317 10.801 19.09 20.745 32.869 29.557 23.418 14.977 46.939 21.59 47.174 21.655l0.014648 0.0043946 0.015137-0.0043945c0.23486-0.064941 23.756-6.6782 47.173-21.655 13.779-8.8115 24.837-18.756 32.87-29.557 10.07-13.541 15.381-28.466 15.786-44.381v-154.4h-191.69z" fill="#AD8B3A"/>
<path d="m115.71 196.16v44.623c7.8267-3.3984 17.115-8.0029 26.373-13.923 3.4634-2.2148 6.7505-4.5029 9.8594-6.8564v-45.415c-9.7153 10.243-22.194 17.837-36.232 21.572z" fill="#FD1B14"/>
<path d="m131.05 43.618c0.26709 0.11621 0.25-0.95801 0.81836-0.896 3.9141 0.4248 13.772 2.7983 20.077 7.165v-48.132h-36.232v31.181c0.78711 0.1377 1.5835 0.31641 2.3911 0.54834 8.7935 2.5244 12.313 9.8589 12.946 10.134z" fill="#FD1B14"/>
<path d="m77.728 196.6v44.934c9.3682 3.9663 16.341 6.1108 18.116 6.6343 1.7744-0.52344 8.7476-2.668 18.116-6.6343v-44.934c-5.813 1.4004-11.879 2.1455-18.116 2.1455-6.2373 1e-7 -12.303-0.74561-18.116-2.146z"/>
<path d="m89.168 35.894c0.61328-0.064453 0.6167 0.43066 0.48633 0.76074-0.97998 2.4868-4.0093 9.7871-7.7583 12.919-0.47168 0.39404-0.11133 0.71338 0.15039 0.76074 4.5767 0.8291 9.6572 3.7832 13.426 6.4287 0.20703 0.14502 0.33398 0.16846 0.44287 0.02002 1.3267-1.8154 5.521-5.1875 7.687-5.8398 0.22217-0.066894 0.20996-0.26514-0.055176-0.44434-5.0713-3.4272-10.363-10.582-11.123-12.673-0.16016-0.44092 0.25586-0.67773 0.63477-0.77686 6.5571-1.8955 13.274-5.0845 20.9-4.3516v-30.943h-36.231v32.975c3.8125 0.7002 7.6934 1.5566 11.44 1.1646z"/>
<path d="m153.7 1.7544v49.468c3.8027 3.2124 4.7285 7.7256 5.605 12.284 0.27734 0.36963 0.60059 0.30078 0.93457 0.15039 0.33496-0.1499 0.75391-0.62354 1.8364 0.034668 11.655 7.083 17.689 19.074 13.683 32.066-0.25488 0.82617 0.37744 1.208 0.69482 1.1479 0.354-0.066894 0.72266-0.24268 1.0688-0.31641 0.41748-0.089356 0.80273-0.030762 1.0898 0.54346 4.5464 13.387 7.7896 32.467-9.5181 49.124-3.3496 9.8457-8.6338 18.803-15.394 26.423v45.974c8.3164-6.5078 15.284-13.509 20.792-20.916 9.8496-13.245 15.045-27.84 15.439-43.334v-152.65h-36.231z"/>
<path d="m14.734 130.2c-5.4492-8.9922-1.1021-24.025-3.1006-30.435-0.30762-0.98584 0.10059-0.96875 0.96045-0.67041 0.85986 0.29785 1.6826 0.88428 1.9556 1.0825 0.27246 0.19775 0.35791 0.055664 0.27734-0.27783-1.1602-4.7866-1.6631-12.194 0.92383-17.09 2.3091-5.1733 7.2051-9.3301 9.4224-14.503 0.5542-0.92383 1.478 0.36963 1.7554-0.73877 1.7163-5.6514 6.0269-11.022 11.059-14.96v-50.857h-36.232c0 3.4302-9.766e-4 152.6-9.766e-4 152.6 0.396 15.538 5.5908 30.133 15.44 43.378 5.5078 7.4067 12.476 14.408 20.792 20.916v-45.971c-7.5308-8.4878-13.229-18.636-16.464-29.82-1.0156-3.4175-4.5776-9.0078-6.7891-12.657z"/>
<path d="m39.741 174.59v45.411c3.1089 2.3535 6.396 4.6416 9.8599 6.8564 9.2573 5.9204 18.545 10.525 26.373 13.923v-44.626c-14.037-3.7344-26.518-11.324-36.232-21.565z" fill="#FD1B14"/>
<path d="m48.822 45.493c1.3857-0.36963 0.73877 3.2334 2.3096 1.2007 5.8198-6.8359 12.563-13.58 21.894-12.656 0.97363 0.085449 1.9575 0.22217 2.9487 0.38379v-32.667h-36.232v49.562c0.91504-0.63574 1.8447-1.2241 2.7812-1.7554l6.2993-4.0684z" fill="#FD1B14"/>
<path d="m95.844 173.31c-25.407 0-46.609-18.349-51.051-42.491 0.43555-0.94482 2.3135-4.9551 2.8286-6.0645 3.6948 1.6626 7.2974 3.5103 10.993 5.2656 0 0 7.561 3.4106 8.6836 3.8799 1.1226 0.46875 3.187-1.0176 4.5269-1.7554 3.0068-1.6558 6.0967-4.249 9.8843-2.7715 1.5703 0.64697 3.3257 1.9404 4.1572 3.603 0.36963 0.46191 0.68457 0.33496 1.293 0 2.2339-1.2295 4.7144-2.1919 7.3579-1.1812 1.8408 0.70361 2.9307 1.9536 3.6064 3.0366 0.28076 0.35156 0.52734 0.36768 1.0542 0.12158 1.6851-0.84229 4.2168-0.52734 5.1899 0.28369 0.97363 0.81104 1.2671 1.6196 0.89746 2.3584-0.30078 0.90479-1.624 2.0854-1.9673 2.4507-0.32471 0.34619-0.050781 0.52148 0.2417 0.65967 0.95166 0.44922 4.6392 1.9702 7.2686 1.9702 2.0327-0.36963 4.1084-2.8511 4.4072-3.8589 0.29883-1.0073-1.8662-1.978-1.269-1.6792s-7.5874-4.3892-8.1265-4.7158c-0.53857-0.32666-0.31738-1.0034 0.33301-0.71875 0.69727 0.30469 8.9312 5.2715 10.325 5.8813 1.3945 0.60986 2.7339 0.49805 3.6265 0.2251 1.3438-0.41113 2.5229-1.8311 2.8223-2.3164 0.29834-0.48486 0.43604-1.2886-0.13135-1.6987-0.42334-0.30664-12.159-10-12.765-10.544-0.60547-0.54297 0.010254-1.165 0.59375-0.71289 0.58252 0.45166 10.623 9.3301 16.443 12.933 1.2012 0.5542 1.9775 0.7124 3.1553 0.33545 1.0308-0.33008 3.8159-3.2041 4.1929-3.9106s0.73145-1.8047 0.094238-2.6377c-0.62207-0.81299-14.151-13.561-20.986-18.899-0.16992-0.13281-1.2114-0.86035-1.7241-1.0645-5.1348-2.0449-18.75-5.8818-19.163-5.9922-0.45361-0.12061-1.0137-0.14844-1.5205 0.29834-0.50732 0.44727-5.5962 5.8096-9.7012 7.5615-4.1055 1.752-7.0859-0.87646-5.3364-4.1636 1.8862-3.5439 5.667-9.8438 5.667-9.8438 0.18457-0.36963 0.10791-0.70166-0.43848-0.73633-2.0586-0.13086-6.5259 1.3618-9.5742 2.2856-3.9727 1.4785-7.9448 2.9561-12.102 3.8804-2.771 0.27686-5.5479-1.7656-6.1333-2.1914-0.58496-0.42578-0.48682-0.99023-0.10645-1.7554 2.0327-3.9722 3.1914-9.1714 4.2075-13.513 5.7275-4.0645 10.716-9.9771 14.319-15.705 11.32 0.24365 19.386-3.7852 23.167-7.6997 4.7837 4.6392 14.712 8.936 24.086 4.9253 3.0444 4.3008 12.226 10.1 18.266 12.419 0.056152 2.0425 1.9409 13.217 6.0732 19.732-1.1519 1.2192-2.4941 2.0322-3.7876 2.9565-2.4014 1.3853-4.7114 3.3252-7.7593 2.6787-10.329-3.2622-27.428-11.256-29.931-12.102-0.28857-0.097168-0.98926-0.30078-1.478-0.27734-0.48828 0.023926-13.554 1.0879-13.972 1.1392-0.41846 0.050781-1.1631 0.14893-1.4614 0.62598-0.56641 0.90674-7.0684 11.125-8.3076 14.216-0.60303 1.5044 0.91113 3.4399 4.0645 2.2173 3.7329-1.4473 8.0908-6.2632 9.9346-7.8506 0.43408-0.37402 1.1206-0.40918 1.8901-0.18652 0.67432 0.19531 12.683 3.3901 19.537 6.2383 0.44434 0.18408 1.083 0.55762 1.5171 0.88037 4.7148 3.5093 13.819 12.126 20.726 18.448 0.6875 0.77051 1.4883 0.53516 2.4194 0.22217 0.53174-0.23682 7.1641-2.6011 7.1641-2.6011 0.36914 0.73877 2.0488 8.959 2.0488 8.959-5.7695 22.373-26.121 38.949-50.27 38.949z"/>
<path d="m153.62 150.19c-0.3999-0.1499-3.4746-4.4951-4.7246-6.5947-0.40137-0.67383-0.55029-1.2505-1.2002-0.10059-0.18701 0.33154-0.58643 1.2505-0.75049 1.5938-9.0693 18.976-28.725 32.605-51.102 32.605-24.785 0-45.879-16.1-53.375-38.391-0.45801-1.3608-0.46484-2.2773-1.8237-1.0034-1.4824 1.3892-5.6465 4.7124-5.9009 4.7974-0.25488 0.085449-6.667-0.58301-7.3413-0.81836-1.3813-0.48145-1.6816-0.64062-1.2344 0.79395 9.2515 29.682 36.988 51.29 69.676 51.29 30.263 0 56.281-18.521 67.316-44.823 0.8916-2.1245-0.64648-1.2554-1.3999-1.0146-1.4507 0.46289-7.7397 1.8164-8.1396 1.666z" fill="#164613"/>
<path d="m131.09 51.625c0.30566 0.99268 2.52 4.7842 2.7847 5.3931s-0.11719 0.84717-0.44775 0.60889c-5.9883-4.3096-14.538-6.5913-22.482-8.0693-5.3721-1.1147-10.142-6.2139-11.431-8.2974-0.3584-0.57959-0.092773-0.69629 0.21924-0.81592 3.9478-1.5146 8.252-4.0918 17.031-2.3423 8.999 1.7935 13.31 11.398 14.326 13.523z" fill="#164613"/>
<path d="m83.695 40.227c0.092285 0.092285 0.46191 0.18457 0.36914 0.46191-1.2007 2.4941-3.3252 4.3423-5.3574 6.3745-4.8042 4.4341-11.179 5.4502-16.629 8.5913-4.25 2.125-8.1299 5.543-12.102 8.3145-0.27734 0-0.36963-0.18457-0.36963-0.36963 1.9341-5.6621 3.7881-11.936 6.7231-15.714 3.4355-4.4229 10.016-8.3706 16.465-8.582 5.7949-0.18994 7.3901 0.5542 10.901 0.92383z" fill="#164613"/>
<path d="m151.78 56.394c5.2778 5.0571 5.7476 13.954 4.5688 21.904-0.11621 0.78369-0.78955 0.73096-0.93262 0.43848-2.0562-4.2222-11.24-15.079-15.846-17.792-0.65625-0.38672-1.2114-1.0771-1.7271-2.1387-0.95947-1.9736-2.9609-7.4297-3.3389-9.5254-0.060059-0.33154-0.015137-0.54248 0.36963-0.46191 5.6831 1.187 12.669 3.5156 16.906 7.5757z" fill="#164613"/>
<path d="m47.672 52.824c-0.020508 0.5752-0.96533 11.454-2.5645 14.325-1.6084 2.8882-5.0869 7.2925-6.396 9.2388-1.3203 1.9624-5.1382 8.2124-5.3096 8.3584s-0.4248-0.013672-0.45459-0.17236c-0.17676-0.94775-0.37305-3.9043-0.87256-5.9023-0.4873-1.9487-1.356-3.2471-2.3906-4.71-0.10547-0.16846-0.2417-0.60254-0.21387-0.78516 0.47363-3.1553 2.1318-6.7192 5.1055-10.973 3.5396-5.0615 11.608-9.5581 12.051-9.8052 0.9126-0.57324 1.0654-0.1499 1.0449 0.42578z" fill="#164613"/>
<path d="m91.169 58.703c0.35547 0.33984 0.23193 0.63477-0.068359 1.0552-0.36523 0.51221-3.1895 4.1377-8.1973 4.9785-3.8291 0.64307-7.5229 0.52588-9.9248-0.21338-1.0161-0.5542-0.65771-2.2153-1.8457-2.1992-4.0376 0.054199-9.0552 0.16699-13.397 0.25928-0.18457-0.092285-0.18457-0.36963 0-0.46191 6.5259-4.3667 17.695-8.3955 21.34-8.6841s11.738 4.9258 12.093 5.2656z" fill="#164613"/>
<path d="m124.25 57.964c0.36914 0.18457 0.35449 0.39697 0 0.64697-1.7803 1.2524-7.0732 5.0688-9.2788 5.6968-3.271 0.93115-9.9824-0.32178-15.018-5.6968-0.14404-0.15381 0-0.27734 0-0.27734 3.3257-1.8477 6.1768-4.1299 10.625-4.0649 4.4473 0.064453 9.3306 1.8477 13.672 3.6953z" fill="#164613"/>
<path d="m141.8 67.757c3.4575 3.3066 9.6509 10.82 11.25 13.196 0.3667 0.54492-0.2627 0.46289-0.35254 0.40625-0.46143-0.29102-8.1289-5.6631-14.47-5.9502-0.45996 0.016113-0.8374-0.069336-1.2896-0.30469-5.0508-2.6328-11.191-6.3057-12.99-10.681-0.1709-0.41553-0.049316-0.7002 0.3252-0.92139 0.37451-0.2207 4.3892-2.7095 7.397-2.6553 3.4146 0.061035 6.9893 3.9536 10.13 6.9102z" fill="#164613"/>
<path d="m67.528 66.648c-0.83154 2.5864-2.1489 5.4263-3.7275 7.605-1.5791 2.1787-5.1533 5.7397-5.6631 6.02-0.51025 0.28076-1.0229 0.14062-1.0205-0.51025 0.0024414-0.65039 0.56152-5.7905 0.17871-5.9941-0.60596-0.32324-3.2935 0.31445-6.2202 1.1099-3.1133 0.84619-9.2051 3.7959-9.4141 3.8716-0.20947 0.075195-0.5498 0.083008-0.46191-0.27734s2.3726-3.6587 4.1582-5.4697c1.7852-1.811 4.1831-4.1577 5.4331-4.668s5.9692-1.3774 7.7036-1.6074c4.1123-0.54395 8.2471-0.49072 8.6641-0.44922 0.41748 0.041504 0.36963 0.36963 0.36963 0.36963z" fill="#164613"/>
<path d="m162.54 70.569c17.726 15.339 8.4312 31.846 2.9458 39.719-0.52344 0.75098-0.86865 0.2417-0.86865 0.057129-0.83301-7.417-3.334-18.419-4.3838-22.47-1.0479-4.0425-2.3003-5.751-1.2993-8.9761 0.73877-3.3257 2.1836-7.2124 2.3867-7.9741 0.20312-0.76221 0.81104-0.70898 1.2192-0.35596z" fill="#164613"/>
<path d="m26.788 76.164c0.83105 1.478 1.8882 2.8179 2.4551 7.8003 0.69434 6.1045-0.87939 9.7896-1.7163 14.002-0.76953 3.873-1.4272 10.982-1.5005 11.604s-0.59424 0.59277-0.80908 0.40625c-0.21436-0.18652-4.2314-4.1558-5.5425-5.4512-0.58545-1.5605-1.4785-7.5752-1.9404-11.547-0.64648-7.1133 4.0649-12.102 8.7764-16.813h0.27734z" fill="#164613"/>
<path d="m53.302 78.473c0.0043945 0.45654-0.75 4.8843-1.2119 6.6392-1.2007 4.8965-2.4834 8.5117-4.4238 13.13-0.18457 0.092285-0.36914 0.18506-0.5542 0.092285-0.64648-1.4775-0.90234-4.4307-1.7549-4.4341-1.0381-0.0039063-4.0786 2.9688-6.2749 4.7939-2.1963 1.8247-4.3491 4.2593-7.6748 7.4927-0.27734 0.092773-0.46191-0.27734-0.46191-0.55371 0.18457-7.3911 2.6196-15.448 6.9883-19.927 4.3687-4.4785 9.2939-6.2822 14.537-7.6953 0.36963-0.092285 0.82666 0.0058592 0.83154 0.46191z" fill="#164613"/>
<path d="m155.47 87.868c1.438 1.6094 5.1807 19.407 6.1968 23.657 0.092285 0.92334-0.50098 0.98047-0.82129 0.54736-1.3633-1.8442-8.0127-10.385-9.8477-11.245-0.78369-0.36768-1.4385 1.3877-2.3628 0.92578-3.2646-2.3818-6.1064-13.509-5.6348-20.693 0-0.4624 0.5542-0.64697 0.92383-0.4624 3.2954 0.93701 8.9521 4.3677 11.546 7.2705z" fill="#164613"/>
<path d="m44.018 103.54c0.13965 1.5952 1.0225 9.1641 0.079102 17.266-0.94434 8.1021-7.5127 15.339-8.4497 15.901-0.68945 0.41309-1.291-0.032227-1.3765-0.59277-0.085449-0.55957-3.0503-13.691-2.8247-18.246 0.2251-4.5552 2.7324-9.1909 6.1504-12.794 1.478-1.6626 3.9102-4.0693 4.9888-4.4341 1.0786-0.36523 1.293 1.3042 1.4326 2.8994z" fill="#164613"/>
<path d="m174.91 105.53c4.6431 14.962 2.0542 33.737-16.109 40.013-1.043 0.35986-0.96436-0.14893-0.64355-0.46045 4.1777-4.5234 4.8657-10.643 7.0752-26.288 0.80273-5.6885 5.5967-10.952 8.5308-13.609 0.51807-0.46924 0.91943-0.38623 1.1465 0.34424z" fill="#164613"/>
<path d="m151.78 106.19c2.375 2.6655 6.9053 5.8057 8.5088 11.322 1.7065 5.8716-0.40137 16.796-3.5542 25.224-0.2793 0.74609-0.93945 0.77588-1.376 0.229-4.2993-5.3882-11.522-22.185-4.5947-36.497 0.23291-0.48047 0.64648-0.55469 1.0161-0.27734z" fill="#164613"/>
<path d="m17.284 108.2c1.9482 0.93945 7.6748 5.0269 8.9102 9.3306 1.3438 4.6816 3.4131 19.545 3.4131 20.051 0 0.50488-0.64648 0.83154-2.8638 0-4.6509-1.7446-9.188-9.8149-9.7002-12.564-0.75195-4.0371 0.71631-11.084-0.33984-16.271-0.068848-0.33887 0.23584-0.71289 0.58057-0.54639z" fill="#164613"/>
<path d="m43.24 151.11c-0.27148 0.51221-0.70068 0.91406-1.2876 1.2051-0.60596 0.30029-1.167 0.39062-1.6836 0.27246-0.28955-0.065918-0.60059-0.22021-0.93311-0.46289 0.063477 0.59082-0.041504 1.1133-0.31543 1.5659-0.27393 0.45215-0.6958 0.81982-1.2661 1.1025-0.58838 0.29199-1.1895 0.40576-1.8022 0.34326-0.40283-0.033203-0.7793-0.1377-1.1294-0.31445-0.3999-0.19678-0.75098-0.48779-1.0537-0.87305-0.30322-0.38574-0.57959-0.83057-0.8291-1.334l-2.2134-4.4663 9.9238-4.9185 2.373 4.7891c0.58105 1.2168 0.65332 2.2471 0.2168 3.0908zm-7.1675-3.1636-2.6528 1.3145 1.2046 2.4312c0.21484 0.43359 0.44092 0.74268 0.67773 0.92676 0.43311 0.33154 0.95605 0.3457 1.5679 0.04248 0.51758-0.25684 0.76807-0.64551 0.75049-1.1665-0.0092773-0.29102-0.11865-0.65234-0.32666-1.084l-1.2212-2.4644zm3.832-1.8984-2.186 1.083 1.1929 2.4072c0.21289 0.4292 0.46729 0.73828 0.76416 0.92529 0.29639 0.18701 0.65332 0.17773 1.0703-0.029297 0.4624-0.229 0.6792-0.55713 0.65186-0.98535-0.048828-0.35693-0.19043-0.77246-0.42529-1.2471l-1.0679-2.1538z" fill="#AD8B3A"/>
<path d="m48.787 157.78c0.094727 0.43359 0.085938 0.86475-0.026367 1.2935-0.091797 0.354-0.23633 0.68604-0.43359 0.99609-0.19775 0.30908-0.47363 0.5918-0.82861 0.84619-0.42773 0.30762-0.92578 0.50244-1.4927 0.58545-0.56738 0.083984-1.1133-0.05957-1.6377-0.42871 0.12939 0.53271 0.10205 0.99463-0.081543 1.3877-0.18408 0.39209-0.59082 0.81494-1.2192 1.2661l-0.60303 0.43262c-0.40967 0.29395-0.67578 0.51025-0.79834 0.64844-0.19531 0.21631-0.63525 0.67041-0.63525 0.67041l-1.3335-1.8579c0.15967-0.19727 0.29199-0.35107 0.39697-0.46191 0.21826-0.22754 0.45752-0.4375 0.71875-0.63086l0.82617-0.61035c0.56641-0.41895 0.87598-0.79248 0.92871-1.1211 0.052734-0.3291-0.10986-0.75732-0.48828-1.2852l-1.3286-1.8501-3.5186 2.5259-1.311-1.8262 8.9976-6.459 3.0835 4.2954c0.42822 0.62256 0.68994 1.1509 0.78467 1.5835zm-4.1162-2.9336-2.4277 1.7427 1.4585 2.0312c0.28955 0.40332 0.55566 0.67041 0.79834 0.80176 0.42773 0.23389 0.89551 0.16895 1.4019-0.19482 0.54785-0.39355 0.79199-0.82959 0.73193-1.3101-0.033203-0.27002-0.18896-0.59961-0.46729-0.9873l-1.4956-2.0835z" fill="#AD8B3A"/>
<path d="m49.534 172.82c-1.1973 0.023926-2.3564-0.51855-3.4775-1.6274-1.1221-1.1099-1.6777-2.2632-1.6665-3.4595-0.055176-1.5356 0.61426-3.0073 2.0078-4.416 1.4214-1.437 2.8857-2.1226 4.3936-2.0571 1.1968-0.023926 2.3555 0.51904 3.4775 1.6289 1.1216 1.1084 1.6772 2.2617 1.6665 3.4585 0.078613 1.5039-0.59229 2.9741-2.0137 4.4111-1.3931 1.4092-2.8564 2.0957-4.3877 2.0615zm0.16748-2.2129c0.85254-0.099609 1.7139-0.58936 2.583-1.4678 0.86572-0.87549 1.3447-1.7417 1.437-2.5962 0.091797-0.85547-0.18652-1.6045-0.83545-2.2461-0.64844-0.64209-1.4023-0.91504-2.2603-0.8208s-1.7212 0.58105-2.5903 1.46c-0.86963 0.87939-1.3472 1.748-1.4316 2.6069-0.084961 0.85889 0.19727 1.6094 0.8457 2.2505 0.64893 0.64209 1.3994 0.9126 2.252 0.81348z" fill="#AD8B3A"/>
<path d="m64.206 171.31 2.6978 1.7593-6.2651 9.4199-1.7305-1.2568 4.1396-6.3345c0.12646-0.17334 0.30566-0.4165 0.53809-0.72754 0.23193-0.31152 0.41016-0.55176 0.53369-0.72266l-7.2666 6.3823-1.8159-1.3188 3.8896-8.8345c-0.12354 0.17041-0.29785 0.41406-0.52148 0.73096-0.22412 0.31689-0.39941 0.56299-0.52588 0.73682l-4.7046 5.9307-1.7305-1.2563 6.9409-9.0142 2.5776 2.1504-3.4893 8.228 6.7324-5.873z" fill="#AD8B3A"/>
<path d="m74.618 176.64 3.0576 1.1641-4.3267 10.367-1.9829-0.72217 2.8442-7.0605c0.088379-0.1958 0.21436-0.47021 0.37891-0.82178 0.16455-0.35107 0.29004-0.62305 0.37695-0.81494l-5.7637 7.7959-2.0454-0.92383 1.9604-9.5142c-0.086914 0.19238-0.20801 0.46582-0.36328 0.82227-0.15527 0.35547-0.27686 0.63135-0.36572 0.82715l-3.603 6.8062-1.8931-0.99121 5.1382-10.051 2.9346 1.4673-1.7515 8.7651 5.4043-7.1152z" fill="#AD8B3A"/>
<path d="m81.051 178.74 2.5444 0.59131 1.3066 11.674-2.415-0.38037-0.21729-2.5669-3.9673-0.92139-1.269 2.2266-2.3379-0.72852 6.3555-9.8945zm-1.6982 6.6699 2.7529 0.63965-0.37158-4.5513-2.3813 3.9116z" fill="#AD8B3A"/>
<path d="m93.818 186.88c-0.68213 0.48779-1.6143 0.68311-2.7979 0.58594l-2.2686-0.18604-0.31445 4.1035-2.2954-0.18799 0.89404-11.18 4.6968 0.38428c1.0825 0.088379 1.9224 0.44482 2.519 1.0664 0.59717 0.62305 0.84717 1.5317 0.74951 2.7251-0.10693 1.3047-0.50146 2.2012-1.1831 2.6885zm-1.4409-4.1323c-0.26562-0.26758-0.65527-0.42334-1.1699-0.46484l-2.0327-0.1665-0.26611 3.2515 2.0327 0.1665c0.51416 0.041992 0.92529-0.058106 1.2324-0.29932 0.30762-0.24072 0.48486-0.64893 0.53174-1.2231s-0.0625-0.99561-0.32812-1.2642z" fill="#AD8B3A"/>
<path d="m105.29 189.88c-0.75879 0.92627-1.9229 1.4565-3.4946 1.5903-1.5728 0.13428-2.8105-0.19092-3.7139-0.97559-1.2041-0.95361-1.8901-2.418-2.0586-4.3926-0.17188-2.0137 0.25635-3.5728 1.2847-4.6777 0.75781-0.92578 1.9224-1.4565 3.4951-1.5903 1.5718-0.13428 2.8096 0.19092 3.7134 0.97559 1.1958 0.91504 1.8794 2.3794 2.0513 4.3936 0.16797 1.9741-0.25732 3.5332-1.2773 4.6768zm-1.5757-1.563c0.47705-0.71387 0.66309-1.6865 0.55811-2.9185-0.10449-1.2266-0.45264-2.1528-1.0439-2.7778-0.59131-0.62451-1.3418-0.89844-2.251-0.8208s-1.606 0.47363-2.0908 1.188c-0.48438 0.71436-0.67432 1.687-0.56885 2.9185 0.10498 1.2319 0.45654 2.1592 1.0547 2.7808 0.59912 0.62158 1.353 0.89404 2.2622 0.81641s1.6025-0.47314 2.0796-1.1865z" fill="#AD8B3A"/>
<path d="m109.8 185.82 0.060059 0.24756c0.21973 0.82568 0.44629 1.3882 0.67969 1.689s0.59814 0.39014 1.0952 0.26904c0.4917-0.11963 0.77246-0.3833 0.84131-0.79199 0.041504-0.2417-0.0014648-0.62305-0.12793-1.144l-2.2524-7.4316 2.2378-0.54443 2.2446 7.3994c0.22266 0.91602 0.24463 1.6787 0.067383 2.2886-0.30078 1.0327-1.1313 1.7139-2.4902 2.0449-1.3594 0.33008-2.3599 0.18604-3.002-0.43359-0.64209-0.61914-1.1167-1.5615-1.4243-2.8267l-0.060547-0.24805 2.1313-0.51807z" fill="#AD8B3A"/>
<path d="m113.91 177.36 2.168-0.71436 1.6914 4.208 2.2275-5.8047 2.7681-1.2534-2.459 6.0728 6.5215 4.3174-2.6255 1.168-4.7749-3.313-0.73633 1.418 1.3335 3.5737-2.1362 0.85889-3.978-10.531z" fill="#AD8B3A"/>
<path d="m125.37 172.32 2.2334-1.355 9.0913 7.4395-2.0122 1.3823-1.9307-1.6519-3.4824 2.1123 0.60596 2.5122-2.1401 1.0801-2.3652-11.52zm3.4448 5.9585 2.4165-1.4658-3.4458-2.9966 1.0293 4.4624z" fill="#AD8B3A"/>
<path d="m136.17 165.02c0.4248-0.12646 0.85547-0.14941 1.291-0.069336 0.35986 0.06543 0.70215 0.18555 1.0254 0.35938s0.62549 0.42871 0.90576 0.76367c0.33789 0.40332 0.56885 0.88574 0.69434 1.4453 0.125 0.55957 0.022949 1.1143-0.30615 1.6641 0.521-0.16797 0.98438-0.17529 1.3892-0.020508 0.40576 0.15479 0.85645 0.52881 1.353 1.1226l0.47607 0.56885c0.32373 0.38721 0.55371 0.604 0.70557 0.74805 0.15234 0.14307 0.71289 0.54639 0.71289 0.54639l-1.7285 1.4487c-0.23193-0.088379-0.39453-0.20898-0.5127-0.30566-0.24316-0.20068-0.4707-0.42383-0.68262-0.67041l-0.66992-0.77832c-0.45898-0.53418-0.85498-0.81494-1.1865-0.84326-0.33203-0.02832-0.74707 0.16504-1.2456 0.58203l-1.7466 1.4619 2.7793 3.3218-1.7246 1.4429-7.1069-8.4951 4.0562-3.3931c0.58936-0.47314 1.0962-0.77295 1.5215-0.8999zm-2.6216 4.3223 1.9175 2.292 1.9175-1.6045c0.38086-0.31836 0.62744-0.60352 0.74072-0.85547 0.20166-0.44434 0.10254-0.90576-0.29834-1.3843-0.43262-0.5166-0.88574-0.72754-1.3604-0.63232-0.26709 0.052734-0.58398 0.23291-0.9502 0.53906l-1.9668 1.6455z" fill="#AD8B3A"/>
<path d="m137.92 163.08 1.5747-1.8213 8.7144 1.728-5.8433-5.0503 1.3984-1.6177 8.3794 7.2422-1.5005 1.7368-9.0508-1.6162 5.9946 5.2769-1.3979 1.6177-8.269-7.4961z" fill="#AD8B3A"/>
<path d="m145.61 153.4 1.3848-2.2148 11.467 2.5498-1.3262 2.1221-2.3154-0.58838-2.1592 3.4546 1.6807 1.9346-1.4326 1.9629-7.2988-9.2207zm5.7588 3.7695 1.4976-2.3965-4.4258-1.1245 2.9282 3.521z" fill="#AD8B3A"/>
<path d="m85.067 133.57c0.10059 0.33154-0.21436 0.51318-0.59131 0.77051-0.37646 0.25732-9.0576 5.5215-10.288 6.2666s-2.0269 0.74316-2.9282 0.36133c-0.90137-0.38135-2.2183-2.0151-3.0474-2.9365-0.8291-0.92188-0.55127-1.9243 0.66016-2.8091 1.3516-0.98828 8.1592-5.4219 10.337-5.415 2.1069 0.0063476 5.2134 1.6445 5.8574 3.7622z" fill="#AD8B3A"/>
<path d="m66.004 134.36v0.27686c-2.4941 0.73926-5.0806 2.4941-7.7598 1.0161-0.83105-0.64648-2.1245-1.4775-2.4014-2.5864-0.092773-0.64648 0.18457-1.1084 0.5542-1.478 0.46191-0.36914 0.92334-0.646 1.4775-0.73877 2.772 1.1084 5.4507 2.3096 8.1294 3.5103z" fill="#AD8B3A"/>
<path d="m97.028 135.16c0.40869 0.99463-1.2866 1.5869-2.3955 2.3262l-11.539 7.2266c-1.478 1.1084-2.4033 1.2368-3.9878 0.86084-1.585-0.37646-3.251-1.8501-3.4521-2.6992-0.19971-0.84082-0.038574-1.5688 0.979-2.2402 3.9028-2.5752 12.649-8.1436 14.62-8.3276 2.4644-0.22949 5.1016 1.2129 5.7754 2.8535z" fill="#AD8B3A"/>
<path d="m104.23 136.75c0.24023 1.0425-0.61133 1.7046-1.2354 2.272-0.62402 0.56689-8.7559 7.9995-11.612 9.0967-2.3569 0.90527-5.3203-0.21191-6.4648-1.4731-0.53271-0.58789-0.43701-1.3135-0.11377-1.5942 2.043-1.7778 13.749-8.8384 15.108-9.4927 1.5874-0.76367 4.0786 0.14941 4.3184 1.1914z" fill="#AD8B3A"/>
<path d="m102.29 141.23c0.98242 0.33936 3.9272 1.4072 4.4941 1.6123 0.23047 0.083496 0.28125 0.39404 0.12988 0.62109-1.4751 2.6279-5.4731 2.5962-8.1338 1.2925-0.21289-0.104-0.36523-0.28516-0.0625-0.58789 0.34424-0.34424 2.8462-2.6475 3.0347-2.8179 0.17383-0.15625 0.33887-0.18848 0.5376-0.12012z" fill="#AD8B3A"/>
</svg>
