<svg xmlns="http://www.w3.org/2000/svg" xmlns:xlink="http://www.w3.org/1999/xlink" height="254" width="197.281" xmlns:v="https://vecta.io/nano"><defs><clipPath id="A"><path d="M0 0h11340v14667.8H0z"/></clipPath><clipPath id="B"><path d="M5691.17 326.738S12450.4 1199.64 10751.2 8844.9c-518.5 2332.7 269.6 5036.7 269.6 5036.7s-4497-679.3-5311.4 472h-70.34c-813.82-1151.3-5324.573-490.8-5324.573-490.8s854.643-2689 335.57-5021.67C-1049.18 1195.24 5718.82 180.97 5691.17 326.738zm-22 356.344c-449.3 76.664-2755.58 559.258-4038.8 2536.868-911.208 1403.28-1117.95 3261.5-615.22 5523.14 377.05 1692.9 125.68 3505.9-54.05 4436l-34.558 177.2 178.47-20.8c680.84-82 1364.14-125.3 2049.88-130 1177.03 0 1982.64 160.2 2464 489.5l73.5 50.3 73.56-50.3c481.98-329.3 1288.26-489.5 2463.98-489.5 686.2 4.6 1369.9 48 2051.15 130l178.5 20.8-34.6-177.2c-181.6-930.1-433-2743.1-55.9-4436 502.7-2262.3 295.9-4118.62-615.2-5521.85C8469.4 1242.34 6161.25 759.074 5711.3 683.082l-22-3.777-22 3.777z"/></clipPath><linearGradient id="C" spreadMethod="pad" y2="12844.919" x2="606.161" y1="2004.783" x1="13802.871" xlink:href="#V"><stop offset="0" stop-color="#246598"/><stop offset=".5" stop-color="#1db0ed"/><stop offset="1" stop-color="#246598"/></linearGradient><clipPath id="D"><path d="M0 0v14668h11340V0z"/></clipPath><linearGradient id="E" spreadMethod="pad" y2="9551.565" x2="4555.018" y1="9551.565" x1="2366.259" xlink:href="#V"><stop offset="0" stop-color="#246598"/><stop offset=".5" stop-color="#1db0ed"/><stop offset="1" stop-color="#246598"/></linearGradient><linearGradient id="F" spreadMethod="pad" y2="11455.666" x2="5701.242" y1="11455.666" x1="4380.945" xlink:href="#V"><stop offset="0" stop-color="#246598"/><stop offset=".5" stop-color="#1db0ed"/><stop offset="1" stop-color="#246598"/></linearGradient><linearGradient id="G" spreadMethod="pad" y2="9380.95" x2="5735.805" y1="9380.95" x1="5097.343" xlink:href="#V"><stop offset="0" stop-color="#246598"/><stop offset=".5" stop-color="#1db0ed"/><stop offset="1" stop-color="#246598"/></linearGradient><linearGradient id="H" spreadMethod="pad" y2="9115.067" x2="4296.734" y1="6538.567" x1="8569.957" xlink:href="#V"><stop offset="0" stop-color="#246598"/><stop offset=".5" stop-color="#1db0ed"/><stop offset="1" stop-color="#246598"/></linearGradient><linearGradient id="I" spreadMethod="pad" y2="7788.548" x2="8135.214" y1="9610.939" x1="9926.184" xlink:href="#V"><stop offset="0" stop-color="#246598"/><stop offset=".5" stop-color="#1db0ed"/><stop offset="1" stop-color="#246598"/></linearGradient><linearGradient id="J" spreadMethod="pad" y2="3374.883" x2="7204.412" y1="3374.883" x1="5546.037" xlink:href="#V"><stop offset="0" stop-color="#246598"/><stop offset=".5" stop-color="#1db0ed"/><stop offset="1" stop-color="#246598"/></linearGradient><linearGradient id="K" spreadMethod="pad" y2="7257.336" x2="5751.723" y1="5623.424" x1="3520.807" xlink:href="#V"><stop offset="0" stop-color="#246598"/><stop offset=".5" stop-color="#1db0ed"/><stop offset="1" stop-color="#246598"/></linearGradient><clipPath id="L"><path d="M1500.3 8021.03l-9.43-54.66 220.58-71.64-130.7-311.05 531.62 221.8 573.1-86.7-221.2 263.95 280.27 179.72-460.62-31.42-251.38 157.73L1839 8078.23l-337.47-57.2z"/></clipPath><linearGradient id="M" spreadMethod="pad" y2="8761.905" x2="2672.337" y1="6609.588" x1="1274.118" xlink:href="#V"><stop offset="0" stop-color="#246598"/><stop offset=".5" stop-color="#1db0ed"/><stop offset="1" stop-color="#246598"/></linearGradient><clipPath id="N"><path d="M0 0v14668h11340V0z"/></clipPath><clipPath id="O"><path d="M2330.43 3339.37c216.07-277.15 458.82-528.52 728.28-754.1 269.44-225.64 559.58-420.43 870.4-584.43l-11.3 244.5 664.23 251.37-772.32 368.2-201.08 654.82-477.6-402.16-800.6 219.28z"/></clipPath><linearGradient id="P" spreadMethod="pad" y2="2760.284" x2="4582.039" y1="2760.284" x1="2330.433" xlink:href="#V"><stop offset="0" stop-color="#246598"/><stop offset=".5" stop-color="#1db0ed"/><stop offset="1" stop-color="#246598"/></linearGradient><clipPath id="Q"><path d="M9765.18 4721.27c84.48 269.02 147.32 543 188.52 821.96l-200.43 304.12 9.43-583.13-463.2-251.36 466.9-289.1z"/></clipPath><linearGradient id="R" spreadMethod="pad" y2="5853.704" x2="9132.554" y1="4062.728" x1="10797.845" xlink:href="#V"><stop offset="0" stop-color="#246598"/><stop offset=".5" stop-color="#1db0ed"/><stop offset="1" stop-color="#246598"/></linearGradient><clipPath id="S"><path d="M0 0v14668h11340V0z"/></clipPath><path id="T" d="M7628.55 11246.7h25.16c7.72-.1 15.27-1.4 22.62-3.8 7.5-2.4 14.45-5.9 20.7-10.7 6.1-4.6 10.92-10.2 14.5-16.9 3.82-7.1 5.74-14.6 5.64-22.6.46-10-1.5-19.4-5.86-28.3-4.34-8.9-10.55-16.3-18.68-22-21.74-13.5-45.45-19.4-70.97-17.6-15.48-.1-30.75 1.4-45.86 4.4-10.5 1.7-20.55 4.9-30.18 9.4l14.44 33.3c7.45-3.5 15.17-6 23.24-7.5 9.73-2.1 19.57-3.2 29.5-3.2 9.78-.2 18.84 2.3 27.07 7.6 7.2 3.6 10.98 9.5 11.34 17.6-.1 7.5-3.2 13.4-9.48 17.6-7.34 5-15.52 7.3-24.48 6.9l-13.2.6-11.96-3.1-16.92 14.4 42.08 62.9h41.46l-28.88-42.1zm-67.86 193.5c-1.14-11.1-1.14-22.2 0-33.3 1.66-9.3 5.44-17.7 11.34-25.1 6.16-7.2 13.72-12.4 22.62-15.7 11.33-4.2 23.1-6 35.2-5.7 16.87 0 32 5.2 45.24 15.7 7.04 6 12.37 13.3 15.9 21.8a55.81 55.81 0 0 1 4.2 26.6c.15 10.4-1.5 20.5-5.02 30.2-3.58 8.9-9.06 16.4-16.3 22.6-9.16 7.6-19.2 13.7-30.18 18.2-15 6.5-30.28 12.2-45.86 17-21.7 6.6-42.66 14.9-62.85 25.1-16.6 8.3-31.52 19-44.62 32.1-12 12.3-20.8 26.5-26.4 42.7-5.9 18.4-8.65 37.3-8.18 56.6-1.66 21.6 1.44 42.5 9.37 62.7 7.97 20.2 19.93 37.6 35.87 52.3 18 13.6 37.84 23.6 59.42 30.1 21.7 6.5 43.75 9 66.26 7.6 22.73.2 45.14-2.4 67.24-7.5 19.47-4.6 37.27-12.7 53.43-24.6 15.27-11.5 26.96-26 35.2-43.3 8.86-20 13.05-41 12.58-62.9v-14.4h-104.97c1.3 20.5-3.32 39.5-13.83 57.2-5.38 7.1-12.16 12.4-20.34 16-8.18 3.5-16.67 4.9-25.52 4.1-10.6.4-20.86-1.3-30.8-5-7.5-3-13.97-7.4-19.5-13.2-4.92-5.7-8.28-12.2-10.05-19.5a97.92 97.92 0 0 1 0-22.7c-.46-14.4 3.1-27.8 10.72-40.2 12.27-14.6 27.6-24.6 45.86-30.1l84.85-34.6a262.99 262.99 0 0 0 51.5-27c12.16-8.4 22.62-18.4 31.42-30.2 7.87-10.8 13.3-22.8 16.36-35.8 3.1-14.3 4.55-28.7 4.4-43.4 1.9-22.8-1.56-44.7-10.46-65.8-8.85-21.2-22.15-39-39.8-53.6-20.65-13.5-42.86-23.5-66.77-29.8-23.86-6.4-48.1-8.8-72.73-7.2-23.86-2.3-47.26-.2-70.24 6.4-23.04 6.7-44.06 17.3-63 31.9-14.2 14.8-24.75 31.8-31.78 51.1-7 19.2-9.8 39.1-8.44 59.5v20.7h110v-15l-1.3-2.6"/><path id="U" d="M5290.88 5438.88v745.35c358.83-11.96 508.38-88.62 565.58-133.24 22.93-17.3 43.48-37.07 61.5-59.48 18-22.36 32.98-46.6 44.93-72.73 12-26.1 20.55-53.26 25.73-81.58a342 342 0 0 0 4.82-85.36c0-125.68-43.95-178.48-91.1-213-22-16.36-152.7-94.26-612.06-100.58zm0 2283.06v502.73c88.88 2.96 172.7-16.3 251.37-57.82 6.36-3.98 12.47-8.4 18.22-13.2 12.68-10.82 23.55-23.2 32.66-37.06 15.43-25.16 24.43-52.4 27.02-81.74a345.65 345.65 0 0 0 0-42.7c1.87-17.45 1.66-34.9-.67-52.28-2.28-17.4-6.52-34.27-12.84-50.68-6.26-16.36-14.4-31.78-24.28-46.23-9.93-14.5-21.43-27.6-34.47-39.34-29.5-25.78-100.53-66-258.87-77.28zm1777.17-2827.9c-71.7-118.6-158.35-225-259.9-319.33-101.56-94.3-214.15-172.84-337.76-235.52-243.8-122.38-580.64-183.5-1010.44-183.5H3968.07V7407.1h1234.2c246.76 0 430.26 52.12 550.5 156.48 29.92 26.45 56.53 55.9 79.82 88.36 23.35 32.5 42.76 67.14 58.34 103.94 15.53 36.8 26.82 74.86 33.86 114.2 6.98 39.4 9.57 79 7.7 118.9 0 27.12-1.7 54.15-5.02 81.06-8.34 77.34-33.5 148.77-75.43 214.3-25.25 38.6-55.43 72.98-90.48 103.06-16.87 14.44-34.68 27.64-53.42 39.6-70.92 39.65-145.97 68.7-225.17 87.07-79.15 18.37-159.34 25.36-240.5 21.02h-261.4v-810.07h-1013v1779.7h836.42c485.15 0 840-31.4 1064.5-94.25 74.03-17.8 146.13-41.4 216.32-70.76 70.2-29.35 137.65-64.1 202.3-104.26 64.65-40.1 125.7-85.15 183.14-135.05 57.4-49.9 110.52-104.1 159.28-162.54 46.75-57.04 88.1-117.7 124.03-182.1a1245.62 1245.62 0 0 0 90.07-201.1c24.07-69.72 41.83-141 53.26-213.84 11.44-72.83 16.36-146.13 14.8-219.84 1.65-96.13-8.13-191-29.4-284.76-21.23-93.7-53.32-183.55-96.3-269.53-51.2-92.66-112.06-178.43-182.57-257.32-70.55-78.94-148.97-148.98-235.32-210.22-57.87-40.68-118.43-76.92-181.6-108.7-243.86-122.32-580.7-183.5-1010.5-183.5h-195.46V5126.58h251.37c418.93 0 702.54 53.42 850.85 160.26 36.18 26.56 68.53 57.2 97.05 91.83 28.58 34.63 52.4 72.26 71.54 112.9 19.16 40.58 33.03 82.93 41.62 126.98s11.6 88.46 9.1 133.3a650.68 650.68 0 0 1-12.73 155.86c-10.5 51.46-26.97 100.94-49.38 148.36-22.42 47.52-50.16 91.62-83.24 132.4-33.03 40.8-70.5 77.08-112.28 108.8-157.52 123.6-412.87 190.65-766.06 201.16 434.25 9.37 777.35 80.4 1047 215.54 121.13 60.98 233.6 135.1 337.4 222.43 50.8-32.14 99.3-67.5 145.4-105.96A1376.91 1376.91 0 0 0 6939 6706.38c40.7-44.2 78.32-90.9 112.9-140.03 34.58-49.17 65.8-100.37 93.64-153.64a1372.89 1372.89 0 0 0 72.73-164.5c20.66-56.48 37.53-114 50.63-172.64 13.04-58.7 22.26-117.96 27.54-177.8 5.33-59.9 6.67-119.8 4.08-179.83.73-72.27-3.67-144.22-13.2-215.86-9.57-71.64-24.17-142.2-43.8-211.77s-44.1-137.33-73.35-203.43c-29.3-66.06-63.15-129.72-101.56-190.9zM7335.1 6699.5c-108.5 163.1-241.12 303.44-397.8 421.05l-54.62 40.22c69.42 81.37 128.7 169.53 177.8 264.57 54.92 108.08 96.18 221.13 123.77 339.2 27.64 118.07 40.85 237.7 39.6 358.93 1.45 91.63-5.12 182.68-19.72 273.16-14.65 90.5-37.06 178.95-67.3 265.5-30.23 86.5-67.8 169.7-112.75 249.6-44.88 79.87-96.43 155.2-154.62 226-58.9 70.82-122.94 136.56-192.25 197.12-69.36 60.67-142.97 115.44-221.03 164.3-78 48.9-159.43 91.3-244.23 127.22a1731.9 1731.9 0 0 1-261.25 87c-251.37 71-628.42 105.57-1146.23 105.57H3657.64V3845.88h1802.3c483.22 0 859.03 70.97 1149.33 216.8a1789.81 1789.81 0 0 1 213.52 127.7 1785.4 1785.4 0 0 1 193.86 155.97c60.98 56.42 117.76 116.88 170.36 181.22 52.6 64.4 100.52 132.1 143.7 203.13 46.07 73.6 86.66 150.17 121.85 229.57 35.15 79.36 64.56 160.88 88.16 244.43 23.6 83.6 41.15 168.44 52.75 254.48 11.54 86.08 16.98 172.53 16.25 259.4 1.76 86.44-2.8 172.58-13.7 258.4-10.93 85.83-28 170.36-51.36 253.6-23.3 83.34-52.53 164.45-87.8 243.44-35.2 79-76 155-122.37 228.03"/><linearGradient id="V" gradientUnits="userSpaceOnUse"/></defs><g transform="matrix(.017044 0 0 -.017044 2 252.00001)"><g clip-path="url(#A)" fill="#fff"><path d="M5634.6 0c-363.17 0-2683.3 432.957-4217.25 2345.23C101.44 3984.76-259.898 6194.9 343.375 8909c493.313 2220.2-319.86 4832.5-328.648 4858.9-4.024 12.6-7.215 25.5-9.602 38.5a313.49 313.49 0 0 0-4.66 39.5c-.72 13.2-.61 26.4.348 39.7.96 13.2 2.734 26.3 5.36 39.3 2.613 13 6.035 25.8 10.27 38.4s9.258 24.8 15.035 36.7c5.78 12 12.31 23.5 19.56 34.6 7.23 11.1 15.152 21.7 23.746 31.8 8.586 10.1 17.777 19.7 27.574 28.6a332.15 332.15 0 0 0 30.961 24.9 317.52 317.52 0 0 0 33.86 20.7c11.715 6.2 23.773 11.7 36.195 16.4 12.4 4.6 25.07 8.5 37.96 11.6 12.906 3.1 25.953 5.3 39.145 6.7 13.175 1.5 26.402 2 39.664 1.8 13.265-.3 26.453-1.3 39.582-3.3 851.367-115.8 1706.647-177.6 2565.807-185.3 1868.28 0 2340.2 382 2456.45 546.7a313.78 313.78 0 0 0 50.32 55.5c19 16.5 39.7 30.6 62.07 42.1 22.36 11.5 45.76 20.3 70.2 26.2 24.48 5.9 49.28 8.8 74.5 8.8h70.34c25.1 0 49.85-3 74.3-8.9 24.38-6 47.72-14.7 70.03-26.2 22.3-11.6 42.97-25.6 61.92-42.1a310.66 310.66 0 0 0 50.15-55.4c343.77-485.8 1792.24-538.6 2399.28-538.6 873.78 8.7 1743.24 73.9 2608.54 195.5 15.6 2.4 31.4 3.7 47.2 3.7 12.1 0 24.2-.7 36.3-2.1s24-3.5 35.8-6.3c11.9-2.8 23.5-6.2 34.9-10.4 11.5-4.1 22.6-8.9 33.5-14.3 10.8-5.5 21.4-11.5 31.5-18.2 10.2-6.6 20-13.9 29.3-21.6 9.3-7.8 18.2-16.1 26.5-24.9 8.4-8.9 16.2-18.1 23.5-27.9a305.84 305.84 0 0 0 20.1-30.3c6.1-10.5 11.6-21.3 16.5-32.4 4.9-11.2 9.1-22.6 12.6-34.2 3.6-11.6 6.4-23.4 8.6-35.4 2.2-11.9 3.6-24 4.4-36.1s.8-24.3.2-36.4-1.9-24.2-4-36.2a308.97 308.97 0 0 0-8.1-35.5c-7.6-26.3-759.1-2656.3-264.6-4880.2 562.5-2528.74 283.4-4615.1-828.9-6199.92C8722.64 566.82 6216.53 88.57 5789.84 25.727 5739.93 8.7 5688.6.727 5635.9 1.863L5634.6 0"/><path d="M679.586 13536.6l227.48-1308.3 130.094-1626.4-178.48-1418.92-179.094-893.6L549.504 6830.2 663.25 5367.3l309.18-1361.15 582.54-1024.3 712.62-965.25 854-565.58 988.5-532.906s764.16-326.79 813.18-326.79c49 0 803.1-113.727 803.1-113.727l699.44 194.79L7632.33 1119.2l1244.88 879.73L9456 2505.5l565.6 785.46 462.5 942.63 227.5 828.9 130.1 1024.3v1016.75l-195.5 955.83-162.7 1123.6-70.4 1019.92v1836.9l184.1 845.2 130.1 731.4-706.4-79.8-811.26-78.5H7392.3l-808.76 159.6-591.36 194.8-290.34 130.1-395.9-227.5-754.08-257-1440.32-100.6-1197.14 100.6-845.84 78.5H679.586"/></g><g clip-path="url(#B)"><path d="M5691.17 326.738S12450.4 1199.64 10751.2 8844.9c-518.5 2332.7 269.6 5036.7 269.6 5036.7s-4497-679.3-5311.4 472h-70.34c-813.82-1151.3-5324.573-490.8-5324.573-490.8s854.643-2689 335.57-5021.67C-1049.18 1195.24 5718.82 180.97 5691.17 326.738zm-22 356.344c-449.3 76.664-2755.58 559.258-4038.8 2536.868-911.208 1403.28-1117.95 3261.5-615.22 5523.14 377.05 1692.9 125.68 3505.9-54.05 4436l-34.558 177.2 178.47-20.8c680.84-82 1364.14-125.3 2049.88-130 1177.03 0 1982.64 160.2 2464 489.5l73.5 50.3 73.56-50.3c481.98-329.3 1288.26-489.5 2463.98-489.5 686.2 4.6 1369.9 48 2051.15 130l178.5 20.8-34.6-177.2c-181.6-930.1-433-2743.1-55.9-4436 502.7-2262.3 295.9-4118.62-615.2-5521.85C8469.4 1242.34 6161.25 759.074 5711.3 683.082l-22-3.777-22 3.777h1.86" fill="url(#C)"/></g><g clip-path="url(#D)"><path d="M5655.97 930.05C5053.34 1041.86 2993.4 1549 1816.4 3357.6c-559.3 861.56-842.702 1916.67-842.077 3135.77 7.078 741.06 94.217 1472.5 261.427 2194.45 139.23 655.65 206.25 1318.6 201.08 1988.9-2.98 715.1-62.9 1425.5-179.72 2131l-44 272.7 267.08-26.4c586.94-58.4 1166.34-89.2 1675.35-89.2 1098.47 0 1919.17 147 2439.52 439.9l97.36 55.3 99.34-55.3c520.3-290.4 1339.77-439.9 2435.72-439.9 512.78 0 1092.17 30.8 1679.13 89.2l267 26.4-43.9-272.7c-117.2-704.7-176.93-1414.1-179.15-2128.5-5.28-671.1 61.95-1334.92 201.75-1991.4 166.8-721.8 253.7-1453.02 260.8-2193.77 0-1218.53-282.8-2273.65-842.1-3135.2C8392.7 1549 6331.55 1041.86 5727.6 929.375l-37.68-6.883-35.82 6.883 1.86.676" fill="#ed5e27"/><path d="M1815.75 10589.4c4.86-675.42-63-1343.42-203.6-2004.03-158.46-682.2-241-1373.46-247.6-2073.78 0-1139.9 257.44-2106.45 772.33-2899.48 1085.9-1677.26 3040.27-2149.2 3553.05-2243.4 512.78 94.83 2469 565.53 3556.2 2245.28 515.3 791.84 773.56 1757.45 774.76 2896.98-6.7 700.33-89.25 1391.58-247.54 2073.8-141 661.18-209.03 1329.83-204.2 2005.85 2.53 678.5 56.78 1352.8 162.74 2022.9-453.7-42.7-1005.46-79.2-1564.78-79.2-1100.97 0-1912.27 142-2474.7 439.9-561.15-299.8-1373.06-439.9-2474.66-439.9-560.55 0-1112.3 36.5-1565.38 79.2 105.92-670.6 160.38-1345.3 163.38-2024.1" fill="#1d4a70"/><g fill="#fff"><path d="M6398.8 11246.7h25.1c7.76-.1 15.27-1.4 22.62-3.8 7.55-2.4 14.44-5.9 20.75-10.7 6.06-4.6 10.87-10.2 14.45-16.9 3.83-7.1 5.74-14.6 5.64-22.6.46-10-1.45-19.4-5.85-28.3-4.35-8.9-10.56-16.3-18.63-22-21.8-13.5-45.45-19.4-71.02-17.6-15.43-.1-30.7 1.4-45.87 4.4-10.5 1.8-20.55 4.9-30.18 9.4l14.44 33.3c7.46-3.5 15.22-6 23.3-7.5 9.68-2.1 19.5-3.2 29.5-3.2 9.8-.2 18.8 2.3 27.02 7.6 7.2 3.6 10.98 9.5 11.34 17.6.1 7.4-2.84 13.2-8.8 17.6-7.4 5-15.58 7.3-24.54 6.9h-13.82l-11.95-3.2-15.07 16.4 42.14 62.8h40.84l-28.93-42.1zm-67.9 193.5c-1.1-11.1-1.1-22.2 0-33.3 1.6-9.3 5.43-17.7 11.5-25s13.56-12.6 22.46-15.8c11.6-4.2 23.5-6.1 35.83-5.7 16.92 0 31.98 5.3 45.23 15.7 7.1 6 12.38 13.3 15.95 21.8a56.92 56.92 0 0 1 4.19 26.6c.16 10.4-1.55 20.5-5.07 30.2-3.57 8.9-9.06 16.4-16.3 22.6-9.1 7.6-19.15 13.7-30.17 18.2-14.96 6.5-30.3 12.2-45.87 17-21.7 6.6-42.6 15-62.84 25.1-16.62 8.3-31.47 19-44.62 32.1-12 12.3-20.8 26.5-26.4 42.7-5.9 18.4-8.6 37.3-8.18 56.6-1.66 21.6 1.5 42.5 9.42 62.7s19.88 37.6 35.82 52.3c18.02 13.6 37.84 23.6 59.48 30.1s43.7 9 66.2 7.6c22.72.2 45.14-2.3 67.24-7.5 19.5-4.5 37.32-12.7 53.42-24.6 15.32-11.5 27.07-26 35.2-43.3 8.85-20 13.04-41 12.58-62.9v-14.4h-105.6c1.24 20.5-3.37 39.5-13.82 57.2-5.4 7.1-12.17 12.4-20.3 16-8.18 3.5-16.67 4.9-25.57 4.1-10.62.4-20.87-1.3-30.8-5-7.5-2.9-14.03-7.3-19.47-13.2-4.97-5.7-8.33-12.2-10.1-19.5a97.92 97.92 0 0 1 0-22.7c-.42-14.4 3.1-27.8 10.7-40.2 12.27-14.6 27.54-24.7 45.87-30.1l84.84-34.6c17.96-7.1 34.94-16.1 50.93-27 12.06-8.4 22.57-18.4 31.37-30.2a97.64 97.64 0 0 0 16.36-35.8c3.1-14.3 4.6-28.7 4.4-43.4 1.92-22.8-1.55-44.7-10.46-65.8-8.85-21.2-22.15-39-39.8-53.6-20.66-13.5-42.86-23.5-66.78-29.8-23.86-6.4-48.1-8.8-72.73-7.2-23.86-2.3-47.26-.2-70.3 6.4-22.98 6.7-43.94 17.3-62.94 31.9-13.82 14.5-24.22 31.1-31.2 49.9-7.04 18.8-10 38.2-9 58.2v20.7h110v-15.1h-.67"/><use xlink:href="#T"/><use xlink:href="#U"/><path d="M6398.8 11246.7h25.1c7.76-.1 15.27-1.4 22.62-3.8 7.55-2.4 14.44-5.9 20.75-10.7 6.06-4.6 10.87-10.2 14.45-16.9 3.83-7.1 5.74-14.6 5.64-22.6.46-10-1.45-19.4-5.85-28.3-4.35-8.9-10.56-16.3-18.63-22-21.8-13.5-45.45-19.4-71.02-17.6-15.43-.1-30.7 1.4-45.87 4.4-10.5 1.8-20.55 4.9-30.18 9.4l14.44 33.3c7.46-3.5 15.22-6 23.3-7.5 9.68-2.1 19.5-3.2 29.5-3.2 9.8-.2 18.8 2.3 27.02 7.6 7.2 3.6 10.98 9.5 11.34 17.6-.05 7.5-3.2 13.4-9.47 17.6-7.35 5-15.53 7.3-24.5 6.9H6373l-11.96-3.2-13.82 16.4 42.14 62.8h40.84l-28.93-42.1zm-67.9 193.5c-1.1-11.1-1.1-22.2 0-33.3 1.6-9.3 5.43-17.7 11.5-25s13.56-12.6 22.46-15.8c11.6-4.2 23.5-6.1 35.83-5.7 16.92 0 31.98 5.3 45.23 15.7 7.1 6 12.38 13.3 15.95 21.8a56.92 56.92 0 0 1 4.19 26.6c.16 10.4-1.55 20.5-5.07 30.2-3.57 8.9-9.06 16.4-16.3 22.6-9.1 7.6-19.15 13.7-30.17 18.2-14.96 6.5-30.3 12.2-45.87 17-21.7 6.6-42.6 15-62.84 25.1-16.62 8.3-31.47 19-44.62 32.1-12 12.3-20.8 26.5-26.4 42.7-5.9 18.4-8.6 37.3-8.18 56.6-1.66 21.6 1.5 42.5 9.42 62.7s19.88 37.6 35.82 52.3c18.02 13.6 37.84 23.6 59.48 30.1s43.7 9 66.2 7.6c22.72.2 45.14-2.3 67.24-7.5 19.5-4.5 37.32-12.7 53.42-24.6 15.27-11.5 27.02-26 35.2-43.3 8.85-20 13.04-41 12.58-62.9v-14.4h-105.6c1.24 20.5-3.37 39.5-13.82 57.2-5.4 7.1-12.17 12.4-20.3 16-8.18 3.5-16.67 4.9-25.57 4.1-10.62.4-20.87-1.3-30.8-5-7.5-2.9-14.03-7.3-19.47-13.2-4.97-5.7-8.33-12.2-10.1-19.5a97.92 97.92 0 0 1 0-22.7c-.42-14.4 3.1-27.8 10.7-40.2 12.27-14.6 27.54-24.7 45.87-30.1l84.84-34.6c17.96-7.1 34.94-16.1 50.93-27 12.06-8.4 22.57-18.4 31.37-30.2 7.82-10.8 13.3-22.8 16.36-35.8 3.1-14.3 4.6-28.7 4.4-43.4 1.92-22.8-1.55-44.7-10.46-65.8-8.85-21.2-22.15-39-39.8-53.6-20.66-13.5-42.86-23.5-66.78-29.8-23.86-6.4-48.1-8.8-72.73-7.2-23.86-2.3-47.26-.2-70.3 6.4-22.98 6.7-43.94 17.3-62.94 31.9-13.82 14.5-24.22 31.1-31.2 49.9-7.04 18.8-10 38.2-9 58.2v20.7h110v-15.1h-.67"/></g><g fill-rule="evenodd"><path d="M2379.45 5369.77l-81.7 588.82-683.1-23.24 674.92 664.24 76.03 925.64 468.8-473.85L3384.9 7419l-299.12-731.43 220.57-463.8-534.78-175.33-392.13-678.68" fill="#1e3a58"/><path d="M2582.42 8551.4l245.72 776.1-461.9 280.92 717 307.28 349.4 636 309.18-415.4 813.16 196-597.62-642.82 222.47-759.1-841.45 198.57-755.98-577.54" fill="url(#E)"/><path d="M5001.18 10683.6l-201.72 510.9-418.52 250.8 272.1 220.5-125.06 561.9 412.24-411 502.1 160.8-128.84-602.6 387.7-543.6-516.55 179.7-183.48-327.4" fill="url(#F)"/><path d="M7176.76 9409.2l-129.47 811.3-622.1 380.8 578.1 332.5 32.1 858.4 538.5-631.6 840.8 206.7-409.1-844.5 444.3-833.94-813.17 260.16-459.97-539.82" fill="#1e3a58"/><path d="M5318.52 9169.16L5116.8 9073l84.83 256.44-104.3 187.87 194.78 22 133.86 247.6 53.43-255.76 256.38-48.38-233.14-193.54-.62-314.2-183.5 194.16" fill="url(#G)"/><path d="M5004.95 7180.23l153.96 690-948.9 467.54 1222.92 194.17 572.46 974.67 510.3-894.23 1140.57-15.07-916.85-591.97 109.95-666.72-910.6 242.5-933.8-400.9" fill="url(#H)"/><path d="M9450.97 8946.68l-391.5-45.86-294.08 282.16 15.7-348.16-272.13-104.3 316.75-150.8 82.3-268.34 196.1 164.66 351.9-96.8-190.4 280.93 185.37 286.5" fill="url(#I)"/><g fill="#1e3a58"><path d="M8975.88 7668.52l-507.7 390.25 52.75-371.4-383.3-20.76 466.3-213 148.3-281.54 316.7 96.8 485.76-165.28-250.07 272.75 312.3 220.57-641 71.64M5929.34 4530.2l236.3 1008-710.72 523.44L6434.56 6264l397.8 766.68 461.27-674.96 1029.33 9.48-696.28-679.3 334.35-987.25-1055.16 430.43-976.54-598.87"/></g><path d="M6154.93 2149.15l312.34 849.6 737.13 295.37-512.16 492.07 165.9 814.4-514.7-582.55-409.7 159.64 11.96-689.4-399.67-621.48 461.27 20.08 147.63-737.74" fill="url(#J)"/><path d="M4098.78 5833.52l153.33 317.37-319.22 121.9 535.4 235.68 339.97 483.22 37.08-348.74 328.03 80.4-346.26-317.3-62.84-297.23-289.7 5.64-375.8-280.93" fill="url(#K)"/><path d="M4396.65 5044.9l-521.6 590.7-1.26-877.87-526.6-396.52 591.97-354.43L4088.73 3154l416 607.04 817.57-230-485.14 879.74 354.44 931.34-794.95-297.24" fill="#1e3a58"/></g></g><g clip-path="url(#L)"><path d="M1500.3 8021.03l-9.43-54.66 220.58-71.64-130.7-311.05 531.62 221.8 573.1-86.7-221.2 263.95 280.27 179.72-460.62-31.42-251.38 157.73L1839 8078.23l-338.72-57.2" fill="url(#M)"/></g><g clip-path="url(#N)"><path d="M8411.6 2658.2c293.87 253.23 550.93 539.54 771.04 859.03l-20.7 28.26 156.48 715.13-638.5-188.53-635.93 569.98 81.07-828.23-730.24-466.9 889.88-287.82 130.03-400.9h-3.1" fill="#1e3a58"/></g><g clip-path="url(#O)"><path d="M2330.43 3339.37c216.07-277.15 458.82-528.52 728.28-754.1 269.44-225.64 559.58-420.43 870.4-584.43l-11.3 244.5 664.23 251.37-772.32 368.2-201.08 654.82-477.6-402.16-800.6 219.28v2.54" fill="url(#P)"/></g><g clip-path="url(#Q)"><path d="M9765.18 4721.27c84.48 269.02 147.32 543 188.52 821.96l-200.43 304.12 9.43-583.13-463.2-251.36 466.9-289.1-1.24-2.48" fill="url(#R)"/></g><g clip-path="url(#S)"><g fill="#1e3a58"><path d="M9636.96 9396.67c-38.93 331.14-59.7 660.43-62.8 980.93l-363.85 17 377.05-502.76-120.04-548.6 168.38 50.26 1.25 3.16m-8081.98-4452.3c98.7-378.7 242.83-739.2 432.34-1081.5l86.73-66.62-71.02 498.33 514.04 27.64-628.42 285.9-199.2 377.05-137.62-42.1 3.15 1.3"/></g><g fill="#fff"><path d="M2320.38 11293.8h-104.95v390.9h104.95zm0 439.9h-104.95v84.2h104.95v-84.2m165.9-293.5a164.41 164.41 0 0 1 0-32.6 53.93 53.93 0 0 1 11.32-25.2c6.2-7.1 13.75-12.4 22.6-15.7 11.37-4.1 23.1-6 35.2-5.6 16.9-.1 32 5.1 45.24 15.7 7.08 5.9 12.38 13.2 15.93 21.7 3.55 8.6 4.95 17.4 4.18 26.7.17 10.3-1.5 20.4-5.03 30.1-3.72 8.8-9.17 16.3-16.33 22.7-9.14 7.5-19.2 13.6-30.16 18.2-15 6.4-30.3 12.1-45.87 16.9a415.42 415.42 0 0 0-62.84 25.2c-16.6 8.2-31.48 18.9-44.63 32-12 12.3-20.8 26.5-26.4 42.8-5.85 18.1-8.58 36.8-8.18 55.9-1.68 21.6 1.46 42.5 9.4 62.7s19.9 37.6 35.85 52.3c18.02 13.6 37.84 23.6 59.46 30.1 21.63 6.5 43.7 9 66.23 7.6 22.7.2 45.12-2.4 67.24-7.5 19.48-4.6 37.3-12.7 53.4-24.6 15.3-11.5 27.04-26 35.2-43.3 8.84-20 13.03-41 12.55-62.9v-14.4H2615.7c1.27 20.5-3.34 39.5-13.83 57.2-5.38 7.1-12.16 12.4-20.33 16-8.15 3.5-16.67 4.9-25.53 4.1-10.6.4-20.86-1.3-30.8-5a51.47 51.47 0 0 1-19.5-13.2c-4.93-5.7-8.27-12.2-10.05-19.5a95.76 95.76 0 0 1 0-22.7c-.47-14.4 3.1-27.8 10.68-40.2 12.28-14.6 27.57-24.7 45.88-30.1l84.83-34.6c17.96-7.1 34.93-16.1 50.9-27 12.35-8.3 23.03-18.4 32.05-30.2 7.8-10.8 13.25-22.8 16.34-35.8 3.1-14.3 4.58-28.7 4.4-43.4 1.93-22.8-1.55-44.7-10.44-65.8-8.9-21.2-22.17-39-39.84-53.6-20.62-13.5-42.86-23.5-66.73-29.8-23.87-6.4-48.13-8.8-72.77-7.2-23.83-2.3-47.25-.2-70.27 6.4-23 6.7-44 17.3-62.95 31.9a144.15 144.15 0 0 0-31.77 51.1c-7 19.2-9.82 39.1-8.45 59.5v20.7h109.97v-15l-1.26-2.6m626.58 286.6h-119.4v-433h-109.36v433h-119.38v85.5h348.13v-85.5m274.6-237.5l-52.78 233.1-52.8-233.1zm14.46 323l144.54-518.5h-114.37l-25.15 110h-145.16l-25.12-110h-115l146.42 518.5h133.85m441.76-355.1h1.9v355.1h100.54v-518.5h-125.05l-134.47 363.3h-1.27v-363.3H3584.1v518.5h126.93l132.6-355.1m331.2-86.1c22.67-.7 43.62 5 62.84 17 9.22 7.7 16 17.1 20.35 28.3 4.37 11.1 5.75 22.7 4.16 34.5.52 13-1.56 25.6-6.28 37.7-3.93 9.4-9.8 17.4-17.6 23.9a62.27 62.27 0 0 1-27.65 13.2c-10.48 1.1-20.96 1.1-31.43 0h-47.12v-155.8zm-11.3 228.8c23.86-1.8 46.06 3.4 66.6 15.7 7.45 6.6 13.02 14.6 16.67 23.9 3.64 9.3 5 18.9 4.06 28.9 1.08 9.7-.05 19.1-3.36 28.2-3.3 9.2-8.46 17.2-15.48 23.9-19.15 12.5-40.1 17.6-62.85 15.1h-39.58v-135.7zm42.74 213c21.18.3 42.13-1.8 62.83-6.3 17.88-3.9 34.22-11.2 49-22 14.35-10.7 25.04-24.3 32.05-40.8 8.24-20.2 12-41.1 11.32-62.9.63-26.2-6.28-50.3-20.73-72.2-15.68-21.8-36.63-35.4-62.85-40.9 29-2.8 53.1-15.1 72.26-37.1 19.17-24.6 27.97-52.4 26.4-83.5.15-19.7-2.57-39-8.17-57.9-5.6-18.5-15.24-34.6-28.9-48.4-15.12-15-32.73-26-52.8-33.2-26.04-9.1-52.85-13.3-80.42-12.6h-184.13v517.2l184.13.6m343.1-362a240.34 240.34 0 0 1 0-35.8c1.57-10.1 4.93-19.5 10.06-28.3 5-8.1 11.7-14.4 20.1-18.8 9.86-5.1 20.34-7.4 31.42-6.9 11.3-.6 22 1.7 32.05 6.9 8.14 4.6 14.64 10.8 19.47 18.8 5.16 8.8 8.52 18.2 10.06 28.3.94 12 .94 23.9 0 35.8v361.4h109.97v-361.4c.9-28.2-3.93-55.5-14.45-81.7-8.7-20.2-21.68-37.2-38.96-50.9-16.7-12.7-35.32-21.1-55.94-25.1-20.72-4.2-41.67-6.3-62.83-6.3a348.54 348.54 0 0 0-62.83 5.7c-20.45 3.4-39.1 11.1-55.94 23.2-17.5 13.3-30.5 30-38.96 50.3-10.7 27.3-15.52 55.5-14.46 84.8v361.4h109.98v-361.4h1.25m307.94 361.4h109.97v-433h194.18v-85.5h-304.15v518.5m688.75-441.2c22.67-.7 43.63 4.9 62.84 17 9.26 7.6 16.04 17 20.45 28.2 4.34 11.2 5.7 22.7 4.03 34.6.47 13-1.6 25.6-6.26 37.7-3.93 9.4-9.8 17.4-17.6 23.9-7.82 6.3-16.56 10.5-26.4 12.6-10.92 2.5-22.05 3.8-33.3 3.7h-47.15V11373zm-11.34 228.8c23.86-1.9 46.07 3.4 66.62 15.7 7.56 6.6 13.25 14.5 17.03 23.8 3.73 9.3 5.18 19 4.35 29a61.25 61.25 0 0 1-3.37 28.2c-3.3 9.2-8.48 17.2-15.47 23.9-19.15 12.5-40.12 17.6-62.85 15.1h-39.6v-135.7zm42.76 213c21.17.3 42.13-1.8 62.84-6.3 17.86-3.9 34.2-11.2 49.02-22 14.3-10.7 25-24.4 32.04-40.8 8.23-20.2 12-41.1 11.3-62.9.67-26.2-6.27-50.3-20.7-72.2-15.73-21.7-36.65-35.3-62.84-40.9 29-2.7 53.1-15.1 72.26-37.1 19.15-24.6 27.95-52.4 26.4-83.5.16-19.7-2.54-39-8.18-57.9-5.43-18.4-14.86-34.6-28.26-48.4-15.1-15-32.72-26.1-52.8-33.2-26.04-9.1-52.85-13.3-80.44-12.6h-188.53v517.2l187.9.6m467.52-323.6l-52.8 233.1-52.8-233.1zm14.45 323l144.52-518.5H6089.6l-25.15 110H5919.3l-25.16-110h-112.48l144.52 518.5h133.25m806.27-323l-52.8 233.1-52.8-233.1zm14.45 323l144.52-518.5H6912.8l-25.16 110H6742.5l-25.16-110H6598.6l144.53 518.5h137.02m292.2-207.4h1.24l138.88 207.4h119.37l-148.25-221.9 165.23-296.6h-123.77l-112.48 213.1-40.22-59.1v-154h-110v518.5h110v-207.4m1000.4 121.9h-194.8v-121.9h183.5v-86.1h-183.5v-139.5h202.35v-85.5H7868v518.5h304.73v-85.5m172.24 85.5v-198h128.17v198h110v-518.5h-110v230h-128.17v-230h-109.94v518.5h109.94m420.43-518.5h-105.6v390.9h105.6zm0 439.9h-105.6v84.2h105.6v-84.2m233.1-145.1c23.2-2 44.1 3.8 62.84 17.5 8.33 8.2 14.4 17.9 18.17 28.9 3.72 11.1 4.8 22.4 3.2 34 0 47.8-25.58 71.6-76.67 71.6h-52.17v-152zm47.16 226.8c19.25 1.1 38.04-1.1 56.47-6.9 18.38-5.7 35.15-14.5 50.37-26.4 13.6-13 23.75-28.4 30.43-46 6.73-17.6 9.37-35.8 7.87-54.5 1.4-30.8-5.95-59.3-22-85.5-8.02-11.5-17.96-20.9-29.87-28.4-11.9-7.4-24.74-12.2-38.6-14.3 23.9-1 44.88-9.4 62.84-25.2 15-18.2 23.04-39.2 23.86-62.8v-69.8c0-27.6 0-48.4 4.4-62.8 1.7-13 8.18-22.9 19.52-29.6v-4.3H9092.2c-5.74 7.4-9.3 15.8-10.7 25.1a279.12 279.12 0 0 0 0 29.5v99.3c.1 17.7-5.13 33.6-15.74 47.8-13.67 13.3-29.97 19.1-49.02 17.6h-59.06v-219.3H8847.7v513.4l197.95 3.1"/><use xlink:href="#U"/><path d="M5027.57 2638.06c5.54 18.95 14.76 35.93 27.65 50.9 13.16 14.85 28.87 26.2 47.14 33.96 20.14 8.23 41.07 12.2 62.84 11.95 17.34.26 34.26-2.02 50.88-6.93a131.34 131.34 0 0 0 45.24-25.16c13.1-11.34 23.2-24.95 30.18-40.84 7.92-18.02 11.7-36.86 11.34-56.53.3-18.43-2.85-36.24-9.48-53.42-5.95-15.12-14.07-29-24.48-41.46-10.46-12.43-22.2-23.56-35.2-33.34-12.94-9.63-26.6-19.05-40.84-28.26l-42.1-25.16a322.64 322.64 0 0 1-38.33-26.4 175.57 175.57 0 0 1-30.16-30.75c-8.54-11.23-13.98-23.8-16.34-37.73h232.53v-48.4h-295.37a240.24 240.24 0 0 0 14.45 69.15c6.9 17.97 16.3 34.53 28.28 49.64 11.45 13.98 24.43 26.3 38.95 37.07 14.46 10.7 29.55 20.76 45.26 30.18l50.3 32.66c13 9 24.95 19.26 35.77 30.8 9.68 10 17.03 21.48 22.05 34.48 5.02 12.94 7.3 26.4 6.9 40.27a75.92 75.92 0 0 1-6.94 33.95c-4.56 10.05-10.82 18.85-18.84 26.4-8.13 7.3-17.34 12.73-27.64 16.35-10.98 3.88-22.3 5.75-33.94 5.65-14.57.5-28.2-2.85-40.85-10.1-11.18-6.47-20.4-15-27.65-25.72-7.48-11.2-12.72-23.35-15.7-36.45a152.4 152.4 0 0 1-4.4-40.84H5015c-1.26 21.33 1.05 42.3 6.9 62.84m394.04-190.44c.88-20.3 4.25-40.22 10.04-59.68 5.34-18.02 14.55-33.7 27.65-47.1 7.55-6.3 15.94-11.08 25.16-14.4 9.26-3.36 18.78-4.97 28.57-4.97 9.83 0 19.36 1.6 28.57 4.97 9.2 3.3 17.6 8.08 25.16 14.4 13.2 13.36 22.4 29.04 27.64 47.1 5.9 19.46 9.27 39.34 10.1 59.68l-.05 57.87v37.07c-.3 27.07-4.1 53.68-11.28 79.77-3.16 12.26-8.38 23.6-15.7 33.95-7.14 9.63-15.94 17.4-26.4 23.25-12.32 5.84-25.32 8.8-38.98 8.8-13.67 0-26.66-2.96-38.98-8.8-10.46-5.86-19.26-13.57-26.4-23.25-7.25-10.35-12.48-21.7-15.7-33.95-3.57-13.05-6.3-26.2-8.18-39.6-.82-13.4-.82-26.8 0-40.16v-94.94zm-57.82 108.76c.78 17.7 2.85 35.3 6.27 52.75 3.2 16.82 8.02 33.13 14.5 49.02 6.32 15 15.12 28.4 26.35 40.22 11.9 12.16 25.72 21.38 41.5 27.64 40.22 14.18 80.44 14.18 120.67 0 15.78-6.2 29.6-15.48 41.46-27.64 11.28-11.75 20.08-25.16 26.4-40.22 6.47-15.84 11.28-32.2 14.44-49.02 3.42-17.45 5.5-35.05 6.26-52.75v-104.36c-.72-17.75-2.84-35.35-6.26-52.75a253.71 253.71 0 0 0-14.44-48.4c-6.32-15.06-15.12-28.47-26.4-40.22-11.8-12.1-25.68-21.12-41.46-27.02-40.48-13.77-80.86-13.77-121.3 0-15.84 5.95-29.66 14.96-41.5 27.02-11.23 11.8-20.04 25.2-26.4 40.22a260.89 260.89 0 0 0-14.44 48.4c-3.42 17.4-5.5 35-6.27 52.75v104.36m487-275.28v326.16h-118.75v43.38c14.96.1 29.82 1.4 44.62 3.73 13.72 2.17 26.7 6.57 38.93 13.2 11.9 6.52 21.74 15.32 29.56 26.4 8.7 12.78 14.13 26.8 16.35 42.13h41.47v-455h-52.18m382.74 377.67L6076.4 2435.1h152.1v222.43zm112.44-222.43v-48.4h-62.84v-106.84h-50.9v106.84h-197.32v52.8l206.12 295.98h43.38V2435.1h61.55"/><use xlink:href="#T"/></g></g></g></svg>