<?xml version="1.0" encoding="UTF-8"?>
<svg width="279" height="349.56" viewBox="0 0 209.25 262.17" xmlns="http://www.w3.org/2000/svg">
<g transform="matrix(.59793 0 0 .59793 -130.16 -35.142)" fill-rule="evenodd">
<path d="m221.07 61.281h341.43c7.6016 75.465-1.4922 154.7-24.949 226.13-6.1094 18.531-13.301 36.543-21.27 53.816-9.7031 21.043-21.094 41.133-34.414 60.773-22.547 33.242-50.527 64.586-84.875 92.715-38.551-28.934-69.348-63.785-94.234-101.78-14.684-22.43-27.633-45.926-38.074-69.961-33.957-78.152-48.359-162.29-43.617-261.7" fill="#006eb3"/>
<path d="m396.72 480.74c46.781-37.883 82.406-81.531 110.78-140.07 10.203-21.047 18.129-41.875 24.758-63.48 13.902-45.32 20.293-88.078 22.715-131.69 1.3672-24.402 0.28516-48.938-1.8828-73.059h-321.83c-1.668 32.598-1.2344 65.387 2.1445 97.898 5.2383 49.957 17.066 98.523 38.094 146.9 9.6836 22.52 23.043 46.727 36.191 67.121 23.215 36.023 54.016 70.328 89.035 96.379" fill="#fff"/>
<path d="m548.36 115.94-0.14844-39.488h-34.871v22.582h-19.426v-22.582h-23.695v22.582h-19.75v-22.582h-21.789v22.582h-21.789v-22.582h-23.691v22.582h-21.809v-22.582h-22.762v22.582h-16.719v-22.582h-24.477v22.582h-22.434v-22.582h-36.93v39.488zm-151.19 359.49 10.504-12.809v-240.27h25.578v215.54l18.973-22.949v-192.59h21.484v161.96c3.9648-4.4453 7.625-10.316 11.91-17.188 2.8594-4.5938 5.7617-9.7109 9.4024-15.668v-129.11h18.168v87.797c11.352-16.168 18.93-44.453 24.301-73.969 3.7891-20.918 6.1289-42.805 7.8398-62.551h-303.05c2.2969 52.688 16.07 93.582 35.215 136v-87.273h22.133v126.77c4.1797 10.488 7.3867 15.734 11.004 21.109 3.5742 5.3086 7.2344 9.707 11.434 13.719v-161.46h18.648v189.31l21.789 25.77v-215.21h23.691v240.2z" fill="#006eb3"/>
<path d="m243.36 167.61v-44.82h9.0312v19.895l18.281-19.895h12.148l-16.852 17.445 17.781 27.375h-11.715l-12.301-21.047-7.3438 7.5v13.547z" fill="#006eb3"/>
<path d="m295.6 145.18c0 5.0703 1.1719 8.9297 3.5078 11.531 2.3398 2.6211 5.3281 3.9453 8.9258 3.9453 3.5938 0 6.5625-1.3008 8.8789-3.9258 2.2969-2.5976 3.4648-6.4805 3.4648-11.68 0-5.1367-1.125-8.9726-3.3789-11.508-2.2539-2.5156-5.2422-3.793-8.9648-3.793-3.7266 0-6.7383 1.3008-9.0117 3.8555-2.2734 2.5586-3.4219 6.3945-3.4219 11.574m-9.3125 0.30469c0-4.5742 0.67187-8.4102 2.0352-11.508 1.0195-2.2774 2.4062-4.3359 4.1797-6.1562 1.7539-1.8008 3.6836-3.1445 5.7852-4.0312 2.793-1.1914 5.9961-1.7539 9.6562-1.7539 6.6094 0 11.871 2.0352 15.832 6.1328 3.9648 4.0938 5.957 9.7969 5.957 17.098 0 7.2383-1.9688 12.898-5.9141 16.992-3.918 4.0742-9.1797 6.1133-15.742 6.1133-6.6719 0-11.977-2.0391-15.898-6.0898-3.9414-4.0742-5.8906-9.668-5.8906-16.797" fill="#006eb3"/>
<path d="m337.09 167.61v-44.453h9.0312v36.91h22.48v7.543z" fill="#006eb3"/>
<path d="m383.57 148.06v11.984h8.3633c3.2695 0 5.3281-0.0625 6.1914-0.25781 1.3633-0.23829 2.4492-0.84766 3.293-1.7774 0.84375-0.95312 1.2773-2.2344 1.2773-3.8164 0-1.3438-0.34765-2.4922-0.97265-3.4219-0.67188-0.95703-1.6055-1.6289-2.8398-2.0625-1.2344-0.42969-3.918-0.64844-8.0117-0.64844zm0-17.816v10.359h5.9141c3.5312 0 5.7188-0.043 6.582-0.14844 1.5391-0.17578 2.7539-0.71875 3.6406-1.6055 0.88672-0.89063 1.3203-2.0586 1.3203-3.5117 0-1.3867-0.36718-2.5117-1.125-3.3789-0.78125-0.86719-1.9062-1.3867-3.4219-1.5625-0.88672-0.10937-3.4648-0.15234-7.7344-0.15234zm-9.0508-7.4531h17.887c3.5547 0 6.2148 0.12891 7.9492 0.4336 1.7344 0.30078 3.293 0.91015 4.6797 1.8398 1.3633 0.95313 2.5117 2.1914 3.4219 3.75 0.92969 1.5625 1.3867 3.3164 1.3867 5.2461 0 2.1016-0.56641 4.0312-1.6914 5.7852-1.1484 1.7578-2.6836 3.0781-4.6133 3.9453 2.7305 0.80078 4.832 2.1445 6.3047 4.0547 1.4727 1.9258 2.1875 4.1797 2.1875 6.7617 0 2.0352-0.45703 4.0312-1.4102 5.957-0.95312 1.9297-2.25 3.4688-3.875 4.6172-1.6484 1.1484-3.6602 1.8633-6.0859 2.125-1.4961 0.15234-5.1328 0.25781-10.895 0.30468h-15.246z" fill="#006eb3"/>
<path d="m427.17 145.18c0 5.0703 1.1719 8.9297 3.5078 11.531 2.3398 2.6211 5.332 3.9453 8.9258 3.9453s6.5586-1.3008 8.8789-3.9258c2.293-2.5976 3.4648-6.4805 3.4648-11.68 0-5.1367-1.1289-8.9726-3.3789-11.508-2.2539-2.5156-5.2422-3.793-8.9648-3.793-3.7266 0-6.7383 1.3008-9.0117 3.8555-2.2734 2.5586-3.4219 6.3945-3.4219 11.574m-9.3125 0.30469c0-4.5742 0.67187-8.4102 2.0352-11.508 1.0195-2.2774 2.4062-4.3359 4.1797-6.1562 1.7539-1.8008 3.6836-3.1445 5.7852-4.0312 2.793-1.1914 6-1.7539 9.6602-1.7539 6.6016 0 11.867 2.0352 15.828 6.1328 3.9648 4.0938 5.957 9.7969 5.957 17.098 0 7.2383-1.9727 12.898-5.9141 16.992-3.918 4.0742-9.1836 6.1133-15.742 6.1133-6.6719 0-11.977-2.0391-15.898-6.0898-3.9414-4.0742-5.8906-9.668-5.8906-16.797" fill="#006eb3"/>
<path d="m478.45 167.61v-37.234h-13.273v-7.5859h35.582v7.5859h-13.254v37.234z" fill="#006eb3"/>
<path d="m506.41 167.61v-44.82h8.793l18.344 29.93v-29.93h8.4023v44.82h-9.0938l-18.043-29.238v29.238z" fill="#006eb3"/>
<path d="m374.67 180.14h9.3555v31.316h-9.3555z" fill="#fff"/>
<path d="m403.86 180.14h9.0977v23.469h14.23v7.8476h-23.328z" fill="#fff"/>
<path d="m394.07 192.18c2.8164 0 5.0898 2.2774 5.0898 5.0938 0 2.8203-2.2734 5.0938-5.0898 5.0938-2.8125 0-5.0898-2.2734-5.0898-5.0938 0-2.8164 2.2774-5.0938 5.0898-5.0938" fill="#fff"/>
</g>
</svg>
