<svg xmlns="http://www.w3.org/2000/svg" width="114.917" height="124.693" viewBox="0 0 86.188 93.52" xmlns:v="https://vecta.io/nano"><defs><clipPath id="A"><path d="M29.004.004h86.188v93.52H29.004zm0 0"/></clipPath></defs><g clip-path="url(#A)" transform="translate(-29.004 -.004)"><path d="M72.094 93.523l-.238-.027c-1.293-.156-2.074-1.223-2.95-4.145H29.004V6.164c.008-3.398 2.777-6.16 6.172-6.16h73.84c3.406 0 6.176 2.77 6.176 6.172v83.176H75.29c-.88 2.922-1.66 3.988-2.953 4.145l-.242.027" fill="#fff"/></g><g fill="#0a213f"><path d="M31.406 36.88L23.46 19.6s2.23-4.816 6.105-4.816h.945V10.07h-.945s-3.484 0-6.05 2.45c-2.6 2.477-5.07 7.445-5.07 7.445L17.07 22.44v-5.078c0-4.254.484-7.04.484-7.04h-7.3s.484 2.78.484 7.04v13.93c0 4.254-.484 7.04-.484 7.04h7.3s-.484-2.785-.484-7.04v-.16l2.6-4.664s2.45 4.824 4.918 11.863h7.785c-.234 0-.957-1.453-.957-1.453m9.256-11.175h2.004c3.1 0 5.035 1.617 5.035 4.2 0 2.637-1.375 4.605-3.227 4.605h-3.812zm.035-11.602h2.36c2.13 0 3.695 1.453 3.695 3.46 0 2.438-1.4 4.012-3.54 4.012h-2.516zm-6.664 24.23H46.44l1.46-.16c1.504-.23 3.152-1.102 4.254-2.2 1.38-1.38 2.086-3.145 2.086-5.188 0-2.363-.906-4.254-2.602-5.633-1.06-.867-1.844-1.215-3.887-1.7v-.074c1.652-.434 2.277-.75 3.102-1.46 1.492-1.22 2.246-2.945 2.246-5.27 0-3.77-3.46-6.332-8.54-6.332H34.04s.344 1.977.45 5.14V33.2c-.105 3.164-.45 5.14-.45 5.14m20.664-1.45l7.94-17.27s-2.23-4.816-6.105-4.816h-.945V10.07h.945s3.488 0 6.05 2.45c2.6 2.477 5.07 7.445 5.07 7.445l1.375 2.477v-5.078c0-4.254-.484-7.04-.484-7.04h7.293s-.484 2.78-.484 7.04v13.93c0 4.254.484 7.04.484 7.04H68.55s.484-2.785.484-7.04v-.16l-2.586-4.668s-2.453 4.828-4.918 11.867h-7.8c.238 0 .96-1.453.96-1.453m1.73 29.913a4.25 4.25 0 0 0 .727 1.051c1.965 2.066 5.633 1.77 8.195-.664s3.05-6.082 1.1-8.148c-.8-.844-1.9-1.297-3.074-1.367-2.602 2.648-5.27 5.836-6.937 9.13"/><path d="M20.832 67.18c2.563 2.434 6.23 2.73 8.195.664.3-.316.543-.668.73-1.05-1.668-3.293-4.34-6.48-6.94-9.13-1.184.07-2.27.523-3.074 1.367-1.96 2.066-1.473 5.715 1.1 8.148m-1.14-21.245c2.512.996 14.594 6.602 22.68 20.426 0 0 .574.97.707.97s.7-.97.7-.97c8.086-13.824 20.172-19.43 22.68-20.426 1.97-.785.3-.934.3-.934-8.367-.824-12.074 1.383-12.074 1.383C50 44.117 43.1 44.27 43.1 44.27s-6.902-.152-11.613 2.113c0 0-3.707-2.207-12.074-1.383 0 0-1.664.148.3.934m60.3 37.246h-4.145V60.758s.215-4.66-4.816-9.8c0 0-2.594 1.887-5.7 4.8 1.07.285 2.043.832 2.82 1.648 2.688 2.832 2.02 7.832-1.492 11.168s-8.54 3.742-11.227.9c-.035-.035-.062-.066-.094-.102l-.004.012s-.613.047-.992.477-.574 1.148-.703 1.688-.277 1.13-.46 1.078 3.742 1.188 6.777 3.16 7.875 5.992 9.96 6.94l.824.45H46.152c3.223-8.605 11.516-25.773 29.43-36.55 0 0 .02-.016.117-.074s.598-.395.36-.957-1.008-.672-1.602-.562c0 0-7.555 1.195-15.133 6.9S46.82 64.805 44.1 69.758c0 0-.473.828-1 1.37-.52-.543-.996-1.37-.996-1.37-2.73-4.953-7.656-12.098-15.234-17.812s-15.13-6.9-15.13-6.9c-.598-.1-1.37 0-1.605.563s.266.898.36.957l.12.074C28.52 57.406 36.812 74.574 40.03 83.18H15.437l.82-.45c2.082-.95 6.93-4.97 9.96-6.94s6.97-3.2 6.78-3.16-.332-.54-.46-1.078-.324-1.258-.707-1.687-.992-.477-.992-.477c-.035.023-.062.055-.094.1-2.687 2.832-7.72 2.426-11.23-.9s-4.18-8.336-1.492-11.168c.777-.816 1.75-1.363 2.82-1.648-3.117-2.914-5.707-4.8-5.707-4.8-5.035 5.148-4.82 9.8-4.82 9.8V83.18H6.172V6.172h73.84zm0-81.145H6.172c-2.285 0-4.137 1.852-4.14 4.137h-.004v81.152h39.398c.098.313.164.563.22.75.934 3.344 1.445 3.406 1.445 3.406s.52-.062 1.45-3.406l.22-.75h39.395V6.18a4.14 4.14 0 0 0-4.141-4.145"/></g></svg>