<svg xmlns="http://www.w3.org/2000/svg" width="175.545" height="252"><path d="M1.226 20.164L1 20.257v157.157c-.005 9.654 1.9 18.157 5.657 25.272 6.497 12.3 13.91 16.45 25.344 21.823L87.775 251l55.768-26.49c11.435-5.373 18.847-9.523 25.344-21.823 3.758-7.115 5.662-15.618 5.657-25.272V20.257l-.226-.093C157.027 13.007 122.8 1 87.772 1S18.517 13.007 1.226 20.164z" fill="#231f20"/><path d="M87.773 1.73c34.744 0 68.73 11.87 86.042 19.016v156.702c0 9.52-1.875 17.897-5.573 24.897-6.4 12.098-13.712 16.194-25.008 21.503l-55.458 26.344-55.463-26.344c-11.298-5.31-18.62-9.405-25-21.503-3.698-7-5.573-15.377-5.573-24.897V20.746C19.04 13.6 53.03 1.73 87.773 1.73z" fill="#fff"/><path d="M119.876 48.002c0 17.73-14.373 32.103-32.103 32.103S55.67 65.733 55.67 48.002 70.042 15.9 87.772 15.9s32.103 14.372 32.103 32.103M87.772 22.128c-14.3 0-25.874 11.583-25.874 25.874s11.584 25.874 25.874 25.874 25.873-11.583 25.873-25.874-11.584-25.874-25.873-25.874zM59.995 94.304l-11.44 29.74h8.895l2-5.015h9.736l1.873 5.015h8.94l-11.203-29.74h-8.793m6.852 18.106H61.82l2.528-7.5zm81.143-3.956l11.854-14.1h-10.46L140.9 105.5V94.345h-8.4v29.743h8.378v-11.77l9.1 11.77h10.864zm-34.362-.1c-1.474-1.298-3.486-2.114-5.723-2.716l-2.104-.573c-.706-.2-1.6-.474-2.28-.87-.7-.406-1.112-.874-1.113-1.534.001-.636.387-1.12 1.017-1.5.622-.363 1.458-.555 2.154-.553 1.928-.001 3.8.733 5.25 1.84l.336.255 3.68-6.52-.338-.176c-2.9-1.485-6.836-2.4-10.106-2.413-3.252 0-6.08.98-8.102 2.736s-3.222 4.292-3.22 7.32c-.007 2.862.902 4.722 2.498 5.96 1.587 1.235 3.776 1.874 6.373 2.55.9.23 2.122.525 3.1 1.003.995.5 1.642 1.1 1.637 1.934-.007.882-.425 1.47-1.103 1.903-.68.425-1.62.64-2.532.638-2.7 0-5.066-1.282-7.097-2.906l-.332-.265-3.93 6.72.3.2c3.296 2.105 7.28 3.352 11.357 3.352 3.26-.002 6.662-.817 9.233-2.798 2.65-2.045 3.43-5.133 3.43-8.06.005-2.424-.905-4.23-2.382-5.525zm-76.53 101.6c-6.527-3.128-10.207-5.393-13.414-9.06-6.003-6.864-6.702-15.26-6.663-25.994v-37.53h20.217v72.634zm20.474 9.723l20.1 9.548V137.37H57.452v82.254zm80.88-9.723c6.526-3.128 10.207-5.393 13.414-9.06 6.003-6.864 6.702-15.26 6.663-25.994v-37.53H138.3v72.634zm-20.475 9.723l-20.098 9.548V137.37h20.216v82.254z" fill="#231f20"/><path d="M23.206 94.742h-8.43v28.865H34.67v-6.973H23.206V94.742" fill="#ee2223"/><path d="M76.278 72.855l-1.302 2.475c-.238.452-.667 1.185-1.954.508-.54-.284-1-.815-.726-1.385l.747.393c-.04.148-.056.3.342.518.37.194.638.1.86-.313l.165-.314-.004-.015c-.22.142-.5.243-.904.026-.63-.33-.895-1.03-.414-1.942.476-.904 1.22-1.077 1.794-.775.486.256.533.644.526.86l.01.005.204-.388.658.346m-2.344 1.382c.466.245.793-.1.982-.45.222-.422.197-.875-.186-1.076-.256-.134-.638-.097-.96.5-.176.334-.245.8.163 1.014zm4.868 1.834c-.44.594-1.072.608-1.546.432-.78-.3-1.24-.886-.817-2.026.124-.333.634-1.357 1.846-.907.546.203 1.204.743.735 2.007l-.048.13-1.9-.705c-.056.216-.188.7.4.918.203.075.45.048.58-.128l.75.278m-.403-1.115c.124-.463-.1-.704-.346-.8-.343-.127-.606.024-.783.372zm4.5-.008l-.632 2.724c-.116.497-.346 1.315-1.762.987-.595-.138-1.163-.538-1.053-1.156l.822.2c-.002.153.024.313.462.415.406.094.645-.056.753-.52l.08-.346-.008-.013c-.176.193-.414.36-.868.254-.692-.16-1.126-.77-.893-1.774.23-.995.906-1.35 1.54-1.204.535.124.68.488.727.7l.01.003.1-.427.725.168m-1.918 1.93c.514.12.745-.3.837-.683.108-.465-.03-.896-.453-.994-.28-.065-.642.067-.798.738-.086.367-.034.835.414.94zm2.803-1.813l.74.088-.06.507h.01c.195-.278.406-.544.874-.488.05.006.098.017.147.03l-.093.783a1.42 1.42 0 0 0-.219-.037c-.6-.07-.755.3-.794.615l-.182 1.527-.772-.092.35-2.932zm2.713 3.208l-.83-.046.044-.8.83.046zM89.2 75.6h.1c.746-.07.9-.475.898-.77l.635-.06.365 3.923-.774.072-.25-2.702-.934.087-.05-.54zm4.1 1.852l.001.006c.098.257.3.337.524.3.315-.065.576-.396.415-1.207l-.013-.01c-.12.297-.406.423-.667.477-.74.152-1.284-.32-1.416-.967-.194-.946.276-1.5 1.03-1.656 1.337-.274 1.655 1.162 1.766 1.705.307 1.495-.3 2.124-.996 2.267-.658.135-1.2-.15-1.4-.75l.756-.155m.298-1.086c.267-.055.52-.305.427-.762-.1-.44-.336-.673-.728-.593-.195.04-.53.2-.415.765.12.582.428.65.716.6zm2.898-2.884c.877-.3 1.498.16 1.946 1.47s.242 2.058-.635 2.358-1.5-.167-1.948-1.474-.24-2.053.637-2.353m1.1 3.24c.42-.144.4-.55.08-1.512s-.57-1.284-.988-1.14-.412.546-.083 1.507.57 1.3 1 1.145zm3.834-.92c-.9.448-1.516.01-1.755-.473-.088-.18-.318-.647.097-1.16a.8.8 0 0 1-.769-.481c-.297-.602.007-1.204.625-1.507.732-.36 1.333-.118 1.574.37.15.304.152.624-.058.913.422.003.72.134.947.592.22.448.275 1.287-.66 1.748m-.86-2.85c-.132-.27-.4-.347-.624-.237-.314.154-.4.415-.263.674.103.2.37.362.67.215.274-.135.342-.398.217-.65m.027 1.187c-.254.125-.417.4-.228.793.167.34.47.467.8.3.363-.18.348-.56.228-.805s-.4-.5-.8-.298zm-40.454-25.35l-.025-1.98.72-.01.036 2.813-3.984.05-.01-.832 3.263-.042zm.833-3.393l-.066.83-3.972-.318.066-.83zm-3.42-3.957l.143-.764 3.916.733-.153.818-3.092 1.076v.01l2.793.523-.143.764-3.916-.733.16-.862 3.018-1.044.002-.01-2.727-.5zm5.19-3.498l-1 2.95-.668-.224-1.786-2.772-.637 1.9-.668-.224.97-2.888.62.208 1.824 2.814.668-2zm-1.418-4.617l-.933 1.897.752.37.858-1.743.632.3-.858 1.743.926.456.975-1.982.632.3-1.336 2.713-3.575-1.76 1.294-2.63zm.05-1.485l1.14-1.66c.6-.874 1.355-.592 1.638-.397.36.248.547.645.434 1.045.304-.188.505-.266 1.12.155.48.33.6.4.755.302l.087.06-.52.76c-.187-.06-.375-.15-.714-.382-.448-.308-.64-.4-1 .1l-.487.7 1.286.882-.46.673L61.4 31.85m2.46-.487c.245-.357.24-.616-.084-.838-.174-.12-.483-.217-.76.185l-.587.856.88.603zm4.455-1.96l-.63.6-1.756-3.848.7-.67 3.783 1.88-.65.63-.755-.4-1.055 1.024.373.782m-.693-1.43l.73-.707-1.452-.787-.008.008.73 1.486zm4.205-1.638l-.662.505-1.987-2.6-.958.73-.427-.56 2.578-1.964.427.56-.958.73zm1.213-2.962l.877 1.557-.725.4-1.956-3.47.725-.4.74 1.315 1.354-.763-.74-1.315.725-.4 1.956 3.47-.726.4-.877-1.557zm4.228-.927l1.844-.725.264.67-2.62 1.03-1.458-3.708.775-.305zm4.745-4.113l-2.054.505.2.814 1.886-.464.168.684-1.886.464.246 1.002 2.145-.527.168.684-2.937.722-.95-3.87 2.845-.7zm3.247 2.87l-.827.1-.354-3.26-1.197.13-.076-.7 3.222-.35.076.7-1.197.13zm2.522-.107l-.832.013-.06-3.984.833-.013.06 3.984zm1.728.05l-.83-.074.352-3.97.83.074-.143 1.614 1.658-1.48 1.072.095-1.764 1.48 1.505 2.496-1.067-.095-1.072-1.85-.422.364zm6.272-.094l-1.496-.4.186-.697 1.496.398zm2.893.996c-.087.204-.16.634.5.936.358.163.796.26.972-.124.128-.283-.1-.483-.452-.75l-.347-.268c-.524-.403-1.03-.792-.666-1.6.184-.404.726-1.017 1.903-.48 1.1.506 1.077 1.37.88 1.816l-.727-.33c.053-.17.168-.582-.494-.884-.288-.13-.68-.18-.83.147-.13.283.076.45.2.554l.785.62c.44.347.802.756.505 1.407-.497 1.1-1.652.68-1.97.536-1.323-.603-1.203-1.47-.998-1.918zm3.013 2.912l-.703-.446 2.137-3.363 1.537.976c.65.414.78 1.08.36 1.74-.193.305-.85.965-1.754.4l-.806-.512-.77 1.213m1.8-1.38c.524.334.762-.04.858-.2.208-.328.112-.58-.324-.856l-.557-.354-.628.988zm4.608 1.01c.398.346 1.297 1.427.07 2.84s-2.423.675-2.82.33-1.297-1.427-.07-2.84 2.423-.675 2.82-.33M105.8 27.22c.34.295 1 .5 1.73-.343s.435-1.467.096-1.76-1-.5-1.73.343-.435 1.467-.095 1.76zm4.536-.374l1.3 1.537c.685.8.213 1.463-.05 1.685-.335.283-.766.358-1.122.143.1.343.123.557-.445 1.038-.445.376-.555.47-.5.648l-.08.068-.595-.703c.108-.164.243-.323.557-.588.415-.352.554-.513.156-.983l-.556-.656-1.2 1.007-.527-.622 3.04-2.574m-.18 2.5c.28.33.53.395.83.14.16-.136.337-.4.022-.782l-.67-.792-.813.688.63.746zm.538 4.534l-.45-.7 2.763-1.767-.65-1.014.593-.38 1.746 2.73-.593.38-.65-1.014zm1.266 2.28l-.348-.756 3.62-1.663.348.756-1.473.676 2.107.705.45.978-2.16-.797-1.42 2.545-.447-.973 1.074-1.85-.525-.186zm2.162 3.462l.57 1.897-.7.207-.8-2.695 3.816-1.146.24.797zm1.874 5.626c-1.037.16-1.577-.397-1.73-1.4-.056-.362-.05-.913.284-1.324.208-.25.513-.382.907-.454l2.6-.402.13.84-2.556.394c-.55.084-.74.44-.682.824.087.565.397.753.874.68l2.594-.4.13.84zm2.67 1.016l.01 1.937c.005.977-.604 1.23-1.015 1.232-.572.003-.734-.318-.818-.484-.18.5-.57.62-.963.62-.316.002-.617-.13-.823-.34-.223-.226-.363-.442-.367-1.258l-.01-1.687 3.985-.02m-3.292.816l.005 1.02c.002.405.18.637.585.635.35-.002.482-.302.48-.602l-.006-1.06-1.065.005m1.737-.01l.004.977c.002.327.13.588.447.586.327-.002.426-.235.424-.613l-.005-.955-.87.004z" fill="#fff"/><path d="M82.342 67.784l-.463-1.02-.056-.022c-.61-.184-1.137-.63-1.533-1.3-.573-.968-.794-2.286-.537-3.206l.03-.09-1.17-2.576-.032-.092c-.804-.053-1.623-.6-1.657-1.562-.018-.514.12-.894.278-1.334l.025-.064-8-17.596-.075-.124c-.338.042-.69.003-.933-.276-.107-.124-.174-.274-.195-.437-.032-.246-.14-.33-.278-.336-.44-.023-.853-.107-1.108-.393-.224-.253-.315-.528-.27-.818.068-.437.464-.9 1.115-1.275h0c.513-.303 1.3-.546 1.843-.36.23.08.396.235.478.448.124.322.123.653.055.97-.05.24-.002.438.27.554a6.23 6.23 0 0 1 .463.221c.265-.22 2.51-1.995 6.582-2.68 4.345-.73 6.483-.652 11.5.986 3.578 1.168 7.667.328 10.37-.183s5.878-1.168 6.827-.037c0 0-.16 1.74-.037 4.09.117 2.257.536 4.247 1.728 6.778 1.798 3.816 3.274 5.38 3.493 9.723 0 0-2.19-.41-4.782-.11-3.14.365-4.854 1.65-8.98 2.482-3.98.803-6.024-.22-8.58-1.424s-4.965-1.46-6.754-1.46a9.87 9.87 0 0 0-2.87.453s-.024.195-.115.523c-.07.257-.146.392-.146.392l.688 1.473.164.035c.54.125 1.68.586 1.708 2.236.008.52-.04.918-.11 1.247l-.04.166 1.685 3.606.133.042c.397.12.88.33 1.068.665.083.148.113.315.1.443-.023.215-.14.38-.516.583-.07.038-.282.138-.3.147l-.047-.12L81.09 62.3l-.064.16a5.27 5.27 0 0 0-.191.596c-.072.294-.046.523.105.8l1.722 3.792-.32.145m-4.06-17.6c-.265-1.36-.68-2.843-1.318-4.306-1.393-3.187-3.31-5.618-4.68-7.1l.25.323c.93 1.22 2.196 3.162 3.772 6.21a26.16 26.16 0 0 1 2.086 5.45l-.108-.576m-.524 4.155c.048-1.448-.254-3.627-1.963-7.34-1.515-3.29-3.77-6.627-4.817-7.845-.242-.282-.408-.44-.55-.52l.028.1 7.303 15.605z" fill="#231f20"/><path d="M69.22 35.233a.41.41 0 0 1 .266.243c.274.712-.158 1.345-.676 1.634-.606.336-1.535.424-1.902.012-.153-.173-.214-.347-.185-.53.05-.327.396-.702.947-1.027h0c.537-.318 1.2-.457 1.55-.33zm1.255 2.177c-.13-.125-.284-.17-.415-.193-.496-.083-.784.076-1.092.22s-.456.256-.53.438a.53.53 0 0 0 .053.417c.128.143.325.182.55.163.585-.05.922-.078 1.25-.224s.558-.456.183-.82zm18.495 5.9c-1.25-.508-3.658-1.36-5.984-1.447l-.102-.003.046.125a28.81 28.81 0 0 1 1.768 6.255c.513 3.076.495 5.34.4 6.583l.372.087c2.036.417 3.464 1.232 4.866 1.882l.024.008c.326-1.38.825-4.433.102-8.236-.328-1.727-.798-3.5-1.4-5.213l-.112-.04zm16.558-1.94l-.124-.884a24.36 24.36 0 0 1-.148-3.042s-1.677-.162-4.046.357-6.133 1.33-8.827 1.395c-1.445.035-2.37 0-3.44-.357-.683-.228-1.152-.22-1.152-.22a47.98 47.98 0 0 1 1.807 4.36s2.135.183 3.953.1c2.4-.097 3.57-.52 6.523-1.2s5.454-.52 5.454-.52zm2.526 6.84l-.898-1.783-.715-1.713s-1.987-.14-4.324.184-5.095 1.395-7.43 1.817c-2.042.37-3.9-.058-3.9-.058.336 1.346.556 2.712.676 4.016 0 0 1.735.245 3.323.034 3.408-.454 4.154-1.428 7.075-1.98 2.852-.54 6.195-.517 6.195-.517zm-23.23-13.175c1.568 2.13 2.9 4.74 3.938 7.495l.04.107c-1.35-.55-4.3-1.574-7.093-1.385a13.53 13.53 0 0 0-5.602 1.649l-.074.035c-2.084-3.42-4.486-5.712-4.486-5.712S73.64 35.754 77.34 35c2.787-.568 5.436-.42 7.416-.05l.066.076zm6.29 21.972c.25-.862.405-2.003.445-3.307 0 0 1.3.52 3.388.36s3.375-.65 6.134-1.6 4.25-1.136 6.068-1.168c1.916-.034 2.374.127 2.374.127.448 1.182.774 2.394.774 3.48 0 0-1.85-.183-3.797.085s-3.314.766-5.5 1.5c-3.578 1.217-6.955 1.614-9.224.876l-.692-.253.03-.117zm-13.673-.905l-7.72-16.948c-.096-.2-.06-.22.142-.275.195-.053.246-.01.34.153L77.58 54.8c.124.3.206.455.105.783s-.246.52-.246.52zm2.497 5.383a4.41 4.41 0 0 0 .091-.718c.016-.6-.035-.822-.2-1.14l-1.2-2.566-.084-.145c-.137.183-.22.377-.23.767a2.12 2.12 0 0 0 .126.695l1.454 3.202z" fill="#fff"/><path d="M73.496 37.336s.316-.195.633-.292c0 0 1.363 1.704 2.63 3.675 0 0 .353-.152.8-.225l.237.438s-.68.176-1.217.395c0 0-1.704-2.586-3.1-4zm5.584 2.118l-.622.055.437 1.086-.6.137-1.807-4.4s.62-.237 1.497-.3l2.884 4.326s-.284-.004-.712.036l-.553-.963s-.196-.003-.524.033m.198-.583l-1.5-2.338-.657.128.928 1.935.183.4s.146-.026.5-.063l.526-.07zm1.702.52c.274.712.73.858 1.314.84s.947-.53.822-1.095c-.146-.657-.807-1.084-1.898-1.698-1.168-.657-1.114-1.26-.602-1.333a.49.49 0 0 1 .548.33l.584-.073s-.32-1.004-1.387-.767c-.986.22-.78 1.148-.3 1.68.566.64 1.688 1.03 2.2 1.533.438.438.292.84-.037.858-.475.026-.584-.365-.584-.365l-.64.1zm5.317 1.413l.743.203s-.35-.72-1.053-1.544c-.814-.954-1.6-1.578-1.6-1.578.145-.635.276-2.074.276-2.074l-.54-.104-.144 1.072-.163.938-.845-2.088-.676-.01a34.03 34.03 0 0 1 1.968 4.82l.757.127-.954-2.25s.82.717 1.35 1.334a12.1 12.1 0 0 1 .88 1.156z" fill="#231f20"/><path d="M84.48 54.668c.064-1.122.174-4.446-.95-8.765-.407-1.566-.87-3.053-1.24-3.92l-.06-.127c-2.728.037-4.912 1.025-5.796 1.494l-.102.074c.887 1.546 1.69 3.298 2.18 5.158.934 3.542.794 6.28.794 6.28s1.933-.587 5.172-.097l.004-.095z" fill="#ee2223"/><g fill="#fff"><path d="M83.26 66.097l-.12-.256.118.033c.092.037.18.08.26.124l-.26.098z"/><path d="M83.825 66.272c.073.13.104.243.055.308-.103.138-.303.198-.303.198l-.207-.443s.084-.03.202-.057.253-.007.253-.007zM72.176 39.2l.4.548-.358-.003-.32.01-.44-.57s.178-.012.37.006.342.012.342.012z"/><path d="M73.21 40.663l-.407-.597s-.112-.02-.35-.028-.33.023-.33.023l.445.63.323-.016.318-.014z"/><path d="M73.803 41.582l-.378-.595s-.203-.02-.33-.01l-.318.017.427.644.283-.03.316-.025zm.535.884l-.364-.605-.315.01c-.164.01-.283.036-.283.036l.365.58.32-.024c.2-.018.276.001.276.001zm.96 1.694l-.3-.562-.572.014.338.6s.046-.023.256-.032l.287-.01zm.498.933l-.335-.63s-.167-.016-.304-.007l-.247.028.328.607.238-.005.32.01z"/><path d="M75.733 46.056l-.34-.672.284-.007a3.28 3.28 0 0 1 .274.014l.042.08.28.556s-.202-.004-.34.005l-.2.022zm1.042 1.077l-.3-.695s-.113-.012-.277-.012-.256.04-.256.04l.18.386.124.273s.188-.023.334-.023a.49.49 0 0 1 .204.03z"/><path d="M77.203 48.195l-.308-.778-.242.004c-.128 0-.277.015-.277.015l.306.72s.172-.013.318-.004a.47.47 0 0 1 .202.044zm.724 2.22l-.222-.76s-.1-.016-.212-.016-.243.023-.243.023l.24.756s.168-.04.277-.04.16.035.16.035z"/><path d="M78.272 51.856l-.228-1s-.085-.035-.186-.04c-.155-.01-.248.03-.248.03l.23 1.01s.108-.047.227-.056a.33.33 0 0 1 .204.054z"/><path d="M78.472 53.045l-.118-.757s-.12-.056-.23-.056c-.137 0-.2.057-.2.057l.087.747s.104-.046.24-.046c.092 0 .23.056.23.056zm-.552 4.33a1.1 1.1 0 0 0-.145-.022c-.2-.018-.457.025-.457.025.063-.64.263-.82.263-.82a2.41 2.41 0 0 0 .349.156l.183.1-.12.237c-.036.085-.072.324-.072.324zm-.153.872c-.164-.02-.437-.005-.437-.005a1.24 1.24 0 0 1-.057-.337v-.16s.13-.092.42-.073a.69.69 0 0 1 .206.041s.007.214.14.574l-.27-.04zm.4.346l.186.4.032.097c-.312-.066-.658-.23-.88-.523 0 0 .116-.01.335-.002l.327.017z"/><path d="M78.263 56.613s-.07-.037-.253-.165-.306-.173-.306-.173.088-.128.184-.338.114-.328.114-.328c.052-.003.098-.017.166-.01.166.018.358.082.358.082.018.557-.262.93-.262.93zm2.153 2.253c-.124-.105-.255-.185-.38-.244-.15-.072-.295-.053-.295-.053l.22.472s.033-.028.18-.083l.276-.092zm.52.8a1.75 1.75 0 0 0-.285-.553s-.3.03-.516.153a1.1 1.1 0 0 0 .233.45l.3-.046c.155-.018.267-.004.267-.004zm.026 1.774c.034-.18.06-.38.074-.6 0 0-.1-.082-.33-.082s-.328.052-.328.052l-.077.596s.14-.045.36-.027.3.073.3.073zm-.51 1.735c.008-.105.03-.198.057-.286l.063-.217s-.077-.063-.25-.08-.3.01-.3.01c-.03.185-.04.385-.033.592 0 0 .086-.027.223-.027l.23.01zm.55 1.663l-.18-.394s-.146-.046-.338-.037-.25.074-.25.074c.05.153.1.302.177.445l.3-.045.28-.044zm.316.695l-.17-.375s-.142.007-.315.035-.243.072-.243.072a3.17 3.17 0 0 0 .343.476s.123-.104.386-.207zm.26.73c-.14-.074-.266-.163-.38-.26 0 0 .082-.095.27-.143l.2.44-.1-.037z"/><path d="M80.642 64.043c-.093-.22-.147-.402-.173-.558 0 0-.1-.018-.238-.01s-.208.045-.208.045a4.6 4.6 0 0 0 .107.594l.265-.046c.155-.027.246-.026.246-.026zM80.1 62.33l.153-.626s.116-.026.317-.008a.44.44 0 0 1 .301.155l-.165.475s-.146-.02-.328-.02-.278.023-.278.023zm.296-1.866l-.008-.432s.127-.033.3-.06a.92.92 0 0 1 .312.003c.02.125.04.317.044.463 0 0-.054-.045-.338-.045-.247 0-.32.073-.32.073zm-1.843-5.15l.027-.618s-.064-.055-.24-.082-.264-.018-.264-.018c-.017.25.012.47-.017.675 0 0 .057.01.217.01a1.08 1.08 0 0 1 .276.034z"/><path d="M78.577 54.35l-.054-.884s-.072-.047-.2-.047-.292.073-.292.073l.045.822s.135-.055.3-.018l.2.055zm-1.012-5.13l-.222-.644s-.068-.04-.224-.04-.268.042-.268.042l.254.674s.105-.04.223-.05a.9.9 0 0 1 .236.018zm-2.743-5.917l-.325-.566s-.106-.015-.3.003l-.285.043.326.542.288-.01.286-.012zm-2.9-4.413l-.54-.633-.37.038-.356.064s.378.325.587.567c0 0 .144-.038.345-.038l.335.002z"/></g></svg>