<svg xmlns="http://www.w3.org/2000/svg" width="250" height="168" xmlns:v="https://vecta.io/nano"><style><![CDATA[.T{fill:#fefefe}.U{fill:#f0f0f0}.V{fill:#15366f}.W{fill:#e5e5e5}.X{fill:#f2f2f2}.Y{fill-rule:evenodd}.Z{fill:#85d8f8}.a{fill:#fcfcfc}.b{fill:#e2e2e2}.c{fill:#e8e8e8}.d{fill:#ededed}.e{fill:#f5f5f5}.f{fill:#f8f8f8}]]></style><path d="M.03.04C.02.06.15.22.32.4l.76.68.7.6 1.16.96 1.13.92.4.32.57.43 1.07.73L7.88 6l1.86.86 1.74.65 1.8.57 1.48.4 1.45.33 1.6.3.8.12c.02 0 .22.2.45.47l.86.93 1 .88a13.99 13.99 0 0 0 1.1.8l1.04.65 1.05.56 1.17.55 1.4.56 1.56.54 1.58.43 1.46.33.75.13c.08 0 .23.13.52.47l.77.83a17.13 17.13 0 0 0 .86.74l.87.64 1.02.6.95.5c.16.08.6.26.96.4l1.33.47 1.17.34 1.2.25 1.2.18.5.06 1.15 1.1c.16.13.56.42.9.65.34.22.96.57 1.38.78a16.76 16.76 0 0 0 1.46.6l1.27.36 1.12.2.65.08c.07 0 .12-.03.12-.06 0-.04-.13-.2-.3-.37l-.55-.6c-.14-.15.02 0 .36.34.4.38.6.63.6.68-.02.05.15.25.45.54l.78.7.8.56 1.02.62 1.02.53.9.4.8.33 1.07.38 1.28.4 1.4.38 1.43.3.64.12c.6.62.96.94 1.2 1.12l.8.53.82.43 1.02.43.97.35 1.02.3 1.1.28 1.1.23c.53.1.66.14.73.24l.36.44c.15.17.4.43.55.56a7.54 7.54 0 0 0 .61.47c.18.13.58.36.9.52.3.15.78.34 1.05.43.26.1.7.2 1 .26s.7.12.94.14l.43.04c.44.67.78 1.08 1.03 1.33.25.26.6.56.8.7.18.12.54.3.8.43s.64.27.87.33a9.8 9.8 0 0 0 .87.15 5.32 5.32 0 0 0 .89.02l.53-.07c.1-.03.14.01.28.25.1.16.3.45.46.66a4.4 4.4 0 0 0 .62.67c.18.16.52.42.76.58a8.37 8.37 0 0 0 1.05.59c.33.16.83.37 1.1.46.26.1.76.22 1.1.3L90 44l.92.1.38.04c.2.36.4.62.54.8.15.18.4.46.58.6a8.75 8.75 0 0 0 .69.56c.2.16.6.43.9.6a17.96 17.96 0 0 0 1.19.64l1.23.57 1.15.46 1.27.45 1.63.5 1.87.5.95.23c.05.02.05.05.01.1-.03.05-.17.18-.32.3-.14.1-.6.36-1.03.57l-1.27.56-1.58.56-1.1.4c-.01.03.06.14.14.26.1.12.32.33.53.46a4.78 4.78 0 0 0 .74.39c.2.1.37.18.36.2 0 .03-.1.15-.24.27l-.52.44-.76.5-1.08.6-1.07.5-1.15.48-.84.32c-.1.03-.2.1-.2.13-.03.06-.1.08-.22.07-.1-.01-.2.01-.24.05-.05.05-.05.08.01.15.04.04.27.25.5.46a10.67 10.67 0 0 0 .84.65c.23.15.62.38.87.5.25.13.6.28.8.34a4.35 4.35 0 0 0 .54.14c.1.02.43.15.7.3.28.14.7.32.94.4.24.07.74.28 1.1.46.43.2.76.4.94.57.16.14.33.33.37.44.05.1.1.26.1.35a.57.57 0 0 1-.07.27c-.03.05-.15.36-.26.68l-.4 1.12a10.36 10.36 0 0 1-.43 1c-.12.25-.38.68-.56.96-.24.35-.43.57-.6.7-.15.1-.27.2-.27.22s.1.01.22-.01c.12-.01.4-.1.62-.17l.64-.23.87-.4.92-.48.58-.37c.17-.1.5-.37.76-.56.25-.2.6-.5.76-.7.17-.18.42-.5.55-.68a5.29 5.29 0 0 0 .37-.7 3.49 3.49 0 0 0 .2-.72c.03-.2.04-.5.02-.67s-.07-.42-.1-.55l-.07-.24a2.76 2.76 0 0 1 .66.24c.27.13.48.28.7.5a2.47 2.47 0 0 1 .5.69c.12.26.2.5.23.83a3.85 3.85 0 0 1 0 .96c-.03.28-.1.67-.16.87l-.26.8-.35.86-.2.45c.01.01.22-.07.48-.17a11.51 11.51 0 0 0 .96-.45 9.7 9.7 0 0 0 1.02-.6 10.49 10.49 0 0 0 .92-.69c.23-.2.55-.52.72-.73a6.02 6.02 0 0 0 .47-.66 4.08 4.08 0 0 0 .29-.66 4.12 4.12 0 0 0 .16-.76 3.78 3.78 0 0 0-.01-.68c-.03-.2-.03-.3.01-.3.02 0 .2.07.37.15a3.16 3.16 0 0 1 .58.4 2.27 2.27 0 0 1 .37.44 2.01 2.01 0 0 1 .2.51 2.44 2.44 0 0 1 .08.57c0 .15-.03.44-.07.64a5.65 5.65 0 0 1-.21.75l-.35.82-.44.78-.36.58c-.08.12-.13.2-.1.2.02.01.3-.07.62-.17l1.15-.4c.3-.13.8-.36 1.07-.52a10.95 10.95 0 0 0 .95-.59 10.34 10.34 0 0 0 .95-.82 6.96 6.96 0 0 0 .8-.95l.44-.77c.08-.2.2-.56.28-.82s.15-.72.18-1.03l.03-.74v-.18l4.4-.02c.6.25.95.43 1.15.56.2.13.48.37.64.54a4.78 4.78 0 0 1 .43.58c.08.15.17.4.2.53s.07.42.07.6a3.21 3.21 0 0 1-.1.74 4.71 4.71 0 0 1-.27.77c-.1.2-.32.58-.5.84l-.4.57c-.05.06-.08.13-.07.14.02.01.38-.06.82-.17l1.3-.4c.28-.1.75-.3 1.05-.44.3-.14.75-.4 1.02-.58.26-.17.62-.45.8-.62a4.85 4.85 0 0 0 .55-.65c.12-.2.28-.5.35-.7.1-.28.12-.43.12-.98l.01-.65c.01 0 .1.07.23.15a2.77 2.77 0 0 1 .42.36c.1.1.18.2.15.2-.02 0 .01.04.08.1s.2.25.3.45a3.51 3.51 0 0 1 .23.63c.03.16.04.5.03.82-.02.35-.07.66-.14.9-.06.2-.2.54-.3.76-.1.23-.3.6-.45.8-.14.2-.25.4-.24.42.02.01.22-.06.45-.16l1.08-.53c.37-.18.9-.47 1.15-.64l.9-.6c.22-.17.6-.5.82-.7.22-.23.5-.57.64-.77.13-.2.3-.54.37-.76.12-.36.14-.46.1-.8l-.03-.4c.22.07.38.14.5.2s.32.2.45.33.3.3.36.42a2.67 2.67 0 0 1 .19.48c.05.15.08.47.08.7s-.04.6-.08.8l-.23.83a15.19 15.19 0 0 1-.52 1.17l-.38.78c-.01.02.15-.05.36-.15l.95-.5 1.15-.7c.3-.2.75-.52.97-.7l.8-.7c.2-.2.5-.54.64-.73l.4-.66c.07-.17.2-.58.27-.92.1-.4.12-.63.1-.7a.98.98 0 0 1-.09-.3c-.02-.13-.1-.48-.18-.8l-.25-.84c-.06-.15-.23-.5-.36-.76l-.35-.64-.1-.15 1.88-1.5 1-.96c.24-.24.6-.65.82-.92l.6-.8c.12-.17.33-.52.47-.8.14-.26.28-.57.3-.67.03-.1.07-.2.1-.2s.33-.05.68-.1l1.15-.2c.28-.05.8-.18 1.17-.28l1.3-.38 1.4-.52 1.7-.75 1.55-.83 1.08-.66 1.02-.7 1.04-.8.92-.8c.34-.32.5-.44.64-.47.1-.01.4-.08.7-.15.28-.06.7-.2.97-.3.25-.1.62-.28.8-.4.2-.12.5-.36.7-.54s.36-.4.42-.5c.05-.1.08-.2.07-.2-.01-.01.18-.04.42-.06a16.09 16.09 0 0 0 1.08-.15c.35-.05.87-.16 1.15-.23s.75-.2 1.05-.32c.3-.1.7-.28.94-.4l.76-.45.6-.44c.13-.1.35-.33.5-.5l.38-.54c.12-.2.15-.2.43-.27l1.1-.25 1.4-.4 1.18-.44 1-.47a11.72 11.72 0 0 0 .84-.51c.23-.16.56-.4.74-.58l.33-.3 1.6-.2 1.04-.2 1.2-.34c.37-.12.92-.33 1.22-.47l1-.47 1.1-.66c.36-.24.92-.66 1.25-.93l1.02-.95.72-.83c.16-.2.3-.4.3-.44 0-.05-.23-.07-.97-.07-.83 0-.97.01-.97.08 0 .04-.1.18-.23.3-.15.15-.4.32-.75.48a14.25 14.25 0 0 1-1.07.45c-.3.1-.56.18-.57.17-.01-.02.01-.37.05-.8l.07-.83c0-.05.28-.06 1.22-.06 1.05 0 1.23.01 1.25.07.02.07.2.08 1.06.08l1.85-.05 1.46-.16 1.04-.2.77-.2.85-.3.92-.4.75-.42c.18-.1.54-.36.8-.54a8.7 8.7 0 0 0 .85-.72l.6-.67c.18-.24.26-.3.4-.32l.5-.08.8-.15 1.12-.3c.36-.1.9-.27 1.2-.4l.9-.38a9.26 9.26 0 0 0 .82-.42l.88-.53a11.49 11.49 0 0 0 .91-.67c.28-.22.72-.62.97-.9.46-.47.47-.48.8-.54l1.05-.24 1.56-.4 1.65-.52 1.5-.55a25.98 25.98 0 0 0 1.66-.76l1.66-.9 1.2-.8a17.14 17.14 0 0 0 1.18-1.02l.66-.65 1.7-.32 1.3-.32 1.3-.4 1.35-.5 1.46-.66 1.12-.57.7-.4 1.02-.64 1.22-.85 1.18-.93 1.04-.92.44-.4 2.1-.52 1.7-.48 1.4-.44 1.5-.53 1.7-.66 1.4-.6 1.56-.74 1.65-.86 1.36-.8 1.24-.8 1.33-.95 1.25-1 .82-.73c.2-.2.3-.3.25-.34-.03-.04-12.06-.06-42.57-.07-34.3-.01-42.7 0-43.34.05l-1.82.17-1.68.2a32.96 32.96 0 0 0-1.38.22 33.18 33.18 0 0 0-1.3.26c-.34.07-.92.2-1.3.3-.38.1-.88.23-1.12.3a24.09 24.09 0 0 0-1.05.34c-.33.1-.82.28-1.07.38a22.43 22.43 0 0 0-.93.37l-.48.2a23.71 23.71 0 0 0-.71.33c-.38.18-.95.47-1.27.64l-1.15.65a41.05 41.05 0 0 0-1.1.7c-.3.2-.8.55-1.12.78l-1.07.82a27.16 27.16 0 0 0-.89.73l-.9.8-1 .93-1.12 1.07-1.94 1.84-.84.75c-.3.26-.9.75-1.36 1.1-.45.35-1.1.84-1.48 1.1-.36.26-1.08.72-1.6 1.03a31.59 31.59 0 0 1-1.87 1.02 29.45 29.45 0 0 1-1.48.68c-.3.12-.83.32-1.17.43l-1.07.33a18.44 18.44 0 0 1-1.1.26 20.58 20.58 0 0 1-1.22.2 13.3 13.3 0 0 1-1.4.11 10.2 10.2 0 0 1-1.48-.02c-.37-.03-.9-.1-1.18-.14s-.74-.13-1.03-.2-.78-.2-1.1-.3c-.3-.1-.77-.26-1-.36a27.55 27.55 0 0 1-1.09-.51 17.38 17.38 0 0 1-1.12-.61c-.26-.15-.7-.45-1-.65-.3-.2-.7-.5-.87-.65l-.64-.52c-.17-.14-.5-.45-.75-.7l-.9-.9c-.25-.25-.56-.58-.7-.74-.14-.15-.58-.68-1-1.17a53.89 53.89 0 0 0-1.38-1.58c-.36-.37-.9-.93-1.23-1.22-.3-.3-.77-.7-1-.92s-.7-.6-1.04-.86a30.48 30.48 0 0 0-1.05-.8c-.24-.17-.64-.44-.9-.6-.26-.17-.76-.5-1.13-.7-.36-.22-1-.6-1.4-.8s-1.07-.55-1.47-.74c-.4-.2-.73-.35-.75-.35-.01 0-.18-.07-.37-.16a22.88 22.88 0 0 0-1.03-.43l-1.5-.55-1.6-.5a49 49 0 0 0-1.43-.39L92.42.9 90.84.6C90.42.52 89.72.42 89.3.36c-.44-.06-1.16-.14-1.6-.2-.75-.08-3.06-.1-26.25-.12L18.03.01C8.14 0 .04.02.03.04z" fill="#d8a800"/><path d="M45.54 2.03l.25.37c.14.2.52.65.84.98l1.05.96c.25.2.46.37.47.4.01.02.04.05.06.05.03 0 .28.13.55.3.28.17.76.44 1.67.9l-1 .02C48.9 6 41.67 6 33.4 6l-16.02-.1-1.6-.17-.72-.08c-.04 0-.47-.06-.94-.13-.48-.06-1.17-.18-1.53-.25-.37-.06-1.08-.22-1.6-.35-.5-.12-1.2-.32-1.55-.43-.35-.12-.86-.3-1.12-.42-.27-.1-.5-.23-.5-.25-.02-.03-.04-.05-.05-.04-.02.01-.08 0-.15-.02-.06-.02-.1-.06-.1-.1 0-.03-.02-.04-.04-.02s-.16-.04-.32-.13a7.55 7.55 0 0 1-.66-.42c-.2-.14-.55-.4-.75-.6-.2-.2-.36-.36-.34-.4.01-.04 6.76-.05 40.15-.06zm22.65.01l19.9.07 1.3.16a38.9 38.9 0 0 1 1.55.28c.57.1 1.43.3 1.92.43l1.5.42c.34.1.62.2.63.23 0 .02.03.02.06.01s.47.13.98.3c.52.2 1.2.45 1.52.58a31.12 31.12 0 0 1 1.07.46c.27.12.93.44 1.48.7a39.4 39.4 0 0 1 1.71.92c.4.23 1.1.68 1.58 1 .48.32 1.2.8 1.58 1.1a31.47 31.47 0 0 1 1.38 1.08c.37.3 1.73 1.6 3.04 2.9l3.16 3.06 1.38 1.2a34.67 34.67 0 0 0 1.36 1.07c.43.32 1 .72 1.3.9s.76.45 1.04.6.73.36 1 .47c.27.1.7.25.95.33a21.2 21.2 0 0 0 .86.21c.23.04.6.1.82.12.22.03.98.1 1.68.14.8.05 1.3.1 1.34.14.03.03.47.7.98 1.5.5.8.9 1.47.88 1.5-.02.03-.33.06-.7.07a8.56 8.56 0 0 1-1.25-.03 11.4 11.4 0 0 1-1.09-.16c-.28-.06-.54-.13-.56-.15-.03-.03-.07-.04-.08-.02-.02.01-.3-.06-.6-.16-.33-.1-.6-.2-.62-.22-.01-.02-.07-.04-.12-.05-.06-.01-.3-.1-.92-.36H105c-9.64 0-15.44-.02-15.9-.05a22.43 22.43 0 0 1-1.33-.15c-.34-.06-.82-.16-1.07-.23s-.64-.22-.87-.33c-.22-.1-.53-.3-.67-.43-.15-.13-.27-.26-.27-.3s5.33-.05 15.9-.05l15.9-.04c0-.02-.34-.2-.75-.4s-1.03-.53-1.36-.73c-.34-.2-.8-.5-1-.65-.2-.16-.52-.4-1-.82l-31.48-.04-.72-.1a20.11 20.11 0 0 1-1.25-.24c-.3-.08-.7-.2-.93-.28s-.4-.18-.4-.2c0-.04-.02-.05-.04-.03s-.12-.01-.22-.06-.3-.2-.45-.3a2.85 2.85 0 0 1-.44-.48c-.1-.15-.17-.28-.15-.3.01-.02 7.4-.03 32.78-.03l-.14-.25c-.07-.13-.3-.47-.5-.75s-.62-.77-.93-1.1a13.22 13.22 0 0 0-1.06-.98c-.28-.23-.73-.56-1-.73-.26-.17-.7-.44-1.5-.86l-36.8-.06-.48-.1c-.27-.06-.65-.15-.84-.22a8.71 8.71 0 0 1-.67-.23c-.17-.07-.45-.22-.64-.32-.18-.1-.47-.33-.65-.5-.18-.17-.4-.4-.47-.52s-.15-.24-.15-.27 6.44-.05 38.36-.07l-.56-.44a32.83 32.83 0 0 0-1.39-.98c-.45-.3-1.13-.73-1.5-.95s-.93-.52-1.23-.66c-.3-.15-.55-.3-.57-.33-.02-.03-.04-.04-.04-.02 0 .03-.06.01-.14-.03a16.53 16.53 0 0 0-.83-.35 24.75 24.75 0 0 0-1.2-.44c-.28-.1-.53-.2-.56-.2-.03-.03-.06-.04-.08-.02-.01.01-.2-.03-.8-.2L54 4.96l-.62-.16c-.33-.1-.85-.24-1.15-.34-.3-.1-.7-.27-.93-.38-.22-.1-.4-.2-.4-.22s-.02-.03-.05-.02c-.03.02-.23-.1-.45-.23a5.52 5.52 0 0 1-.64-.5c-.14-.13-.37-.4-.5-.6-.14-.2-.25-.38-.25-.42 0-.05 3.87-.06 19.16-.06zm96.33.03c.53.01 1.2.05 1.47.07.3.03 7.95.05 33.96.05l.03.1c.02.07.01.2-.01.27a2.11 2.11 0 0 1-.13.34c-.05.1-.2.3-.3.43s-.37.33-.55.45c-.18.13-.6.35-.92.5-.32.16-.94.4-2.14.8l-36.58-.06c-.4-.01-.73.02-1.02.08a10.42 10.42 0 0 0-1.02.29c-.33.1-.82.28-1.1.4s-.9.4-1.35.64c-.47.23-1.13.6-1.48.8a51.55 51.55 0 0 0-1.42.87c-.43.28-.78.5-.78.47 0-.03-.02 0-.05.05s-.07.07-.1.06-.05-.01-.05.01-.16.16-.36.3c-.2.14-.35.25-.34.26l31.15.12 5 .06c0 .04-.2.25-.42.48-.23.22-.56.5-.73.6s-.48.3-.7.4c-.2.12-.6.3-.9.4s-.6.23-.74.27c-.13.03-.26.07-.3.07-.04 0-.1.02-.12.04-.03.02-.34.1-.7.16s-.94.17-1.3.2c-.6.07-2.7.08-33.2.08l-.9.65c-.5.35-.92.64-.94.63-.02 0-.04.01-.04.04s-.1.13-.24.22-.25.16-.28.15c-.02-.01-.04.01-.04.04s-.75.6-1.67 1.25l-1.72 1.25c-.03.02 6.73.02 15.02.01l17.93.05-.16.13c-.1.07-.4.28-.7.45a9.3 9.3 0 0 1-1.03.54c-.28.12-.73.3-1 .4a15.71 15.71 0 0 1-1.07.31 13.65 13.65 0 0 1-1.07.22l-.95.13c-.3.03-5.54.05-29.48.05l-.76.33a17.7 17.7 0 0 1-1.43.57 16.06 16.06 0 0 1-1.08.31c-.3.06-.6.07-1.17.05a8.37 8.37 0 0 1-1.13-.1c-.2-.05-.4-.12-.45-.15-.08-.06-.03-.1.5-.42.32-.2 1-.63 1.52-.97a60.84 60.84 0 0 0 1.86-1.27c.5-.36 1.2-.86 1.53-1.12.34-.25 1.02-.78 1.5-1.17a78.44 78.44 0 0 0 1.61-1.32l1.37-1.2a81.75 81.75 0 0 0 1.92-1.81 57.95 57.95 0 0 1 1.68-1.6l.94-.8 1.02-.78c.28-.2.78-.55 1.1-.76a30.03 30.03 0 0 1 1.15-.71c.3-.18.9-.5 1.33-.72a29.91 29.91 0 0 1 1.42-.69 32.47 32.47 0 0 1 1.3-.53l1.36-.48c.4-.12 1.07-.32 1.5-.43.44-.12 1.07-.26 1.4-.33.33-.07.64-.13.68-.13.05 0 .2-.03.34-.06s.63-.1 1.1-.15a24.37 24.37 0 0 1 1.64-.15 24.99 24.99 0 0 1 1.76-.02zm39.63-.03h20.07l20.1.03c.01.03-.13.2-.3.37-.18.2-.33.3-.33.28 0-.02-.02-.01-.05.04s-.25.22-.5.4a12.65 12.65 0 0 1-.96.55c-.28.14-.56.27-.6.28-.06.01-.12.03-.13.05a9.31 9.31 0 0 1-.38.17 16.25 16.25 0 0 1-.87.31c-.28.1-.7.2-.95.28a8.25 8.25 0 0 1-.53.12c-.06 0-.13.02-.15.04-.03.01-.27.07-.54.13s-.8.17-1.17.24a29.72 29.72 0 0 1-1.41.22c-.4.06-1.03.14-1.42.18-.4.05-1.16.12-1.7.17-.88.08-2.34.1-15.9.1-8.2.01-15.43.01-17.17-.01l.6-.3c.32-.15.8-.43 1.1-.6a16.14 16.14 0 0 0 .92-.63 7.87 7.87 0 0 0 .74-.63c.18-.17.35-.3.37-.28.03.02.04.01.04-.02 0-.04.15-.23.34-.44a6.66 6.66 0 0 0 .56-.71l.24-.34zM60.28 9.77l.2.27c.1.15.4.48.62.74s.43.46.43.44c.01-.01.1.08.23.2.12.12.22.22.22.2 0-.01.15.1.34.25s.5.37.65.48a17.7 17.7 0 0 0 .74.45 13.69 13.69 0 0 0 .94.49c.27.13.5.26.5.3 0 .04-4.64.05-13.8.05-8.28 0-14.3-.02-15.04-.05l-1.94-.1-1.66-.15a59.95 59.95 0 0 1-1.78-.24 40.87 40.87 0 0 1-1.48-.25c-.35-.07-.98-.22-1.4-.33-.43-.1-.84-.22-.92-.25-.1-.04-.18-.07-.2-.07-.02-.01-.12-.03-.2-.05s-.17-.06-.17-.1c0-.03-.01-.04-.04-.02-.02.02-.2-.03-.4-.1-.2-.07-.66-.28-1.04-.46-.37-.17-.72-.37-.77-.42-.06-.06-.1-.1-.1-.08s-.14-.07-.32-.2a7.38 7.38 0 0 1-.68-.56c-.2-.2-.36-.37-.35-.4.02-.04 6.32-.06 37.45-.06zm129.12 0h18.72l18.74.04c.01.02-.13.2-.32.38-.2.18-.43.4-.55.5-.1.08-.42.28-.68.44-.27.15-.5.27-.53.26-.02-.02-.04 0-.04.02 0 .03-.2.14-.47.26-.26.1-.66.27-.9.35a18.99 18.99 0 0 1-1.05.34c-.34.1-.9.25-1.27.33-.37.08-.98.2-1.36.27-.37.07-1.02.17-1.42.23a39.74 39.74 0 0 1-1.48.18l-1.46.13c-.4.03-1.26.07-1.94.1-.73.03-6.76.05-15.04.05-9.17 0-13.8-.01-13.8-.05 0-.03.2-.14.42-.24a14.28 14.28 0 0 0 .92-.49c.27-.16.5-.27.5-.26s.04-.01.1-.05c.05-.05.28-.22.52-.4a13.15 13.15 0 0 0 .89-.71c.26-.22.6-.55.77-.74s.4-.48.53-.64l.22-.3zM72.93 16.55l.4.44c.23.24.63.6.9.82.27.22.73.55 1.03.74.3.2.54.38.56.4.01.03.04.05.06.04.02 0 .23.1.46.2.23.12.65.33.93.46s.52.26.52.3c.01.04-4.25.05-14.5.04-7.97 0-14.8-.03-15.2-.05s-.96-.06-1.3-.1l-.97-.07-1.27-.13c-.5-.06-1.2-.15-1.5-.2l-.66-.1c-.04 0-.47-.1-.95-.18l-1.17-.25c-.17-.05-.33-.1-.36-.13-.02-.02-.06-.03-.07-.02-.02.01-.33-.07-.7-.18-.37-.12-.84-.28-1.05-.36-.2-.1-.4-.17-.4-.2-.01-.02-.06-.04-.1-.05s-.24-.1-.43-.2c-.2-.1-.38-.2-.4-.23-.02-.04-.03-.05-.03-.02 0 .02-.14-.05-.3-.15a8.95 8.95 0 0 1-.64-.46c-.2-.15-.33-.3-.3-.32.02-.04 6.3-.05 37.44-.05zm103.83 0h18.7l18.74.05c.01.02-.05.1-.14.2s-.32.24-.5.38c-.18.13-.48.32-.66.42s-.56.3-.83.4-.8.33-1.15.45-.9.3-1.24.38c-.32.08-.93.22-1.35.3a38.54 38.54 0 0 1-1.55.28 43.05 43.05 0 0 1-1.41.2l-1.5.16-1.7.13c-.6.05-5 .07-15.55.08-10.5.01-14.73 0-14.72-.04.01-.03.27-.17.58-.32a16.14 16.14 0 0 0 1.02-.51c.25-.13.7-.4 1.02-.62a16.46 16.46 0 0 0 1.04-.77 9.32 9.32 0 0 0 .84-.79l.36-.4zm-50.8 3.75a.05.05 0 0 0 .07.04c.03-.02.1.04.3.28l36.55.03.5.1c.28.07.7.2.95.28s.6.27.8.4c.2.13.55.4.76.6.2.2.36.36.34.37-.01 0 .03.07.1.14s.22.3.33.54a5.32 5.32 0 0 1 .31.83c.06.23.12.58.18 1.18l-.18.18c-.1.1-.3.22-.46.28-.27.1-.57.1-14.68.1l-.6.73c-.36.45-.56.73-.52.75.03.01 2.32.03 10.1.05l.27.14a1.27 1.27 0 0 1 .39.31 1.24 1.24 0 0 1 .18.34 2.45 2.45 0 0 1 .07.42c.01.13.03.24.05.24s1.38-.58 6-2.6h3.43c2.74.01 3.53.02 3.9.08.27.04.67.12.9.18a8.64 8.64 0 0 1 .81.28c.23.1.58.3.8.42a6.37 6.37 0 0 1 .74.57c.2.18.45.47.58.64.12.17.3.48.42.7s.26.56.33.76c.06.2.16.55.2.77.04.2.1.68.14 1.04s.04.88.02 1.17-.05.52-.08.52-.14-.16-.25-.37c-.1-.2-.33-.54-.5-.75a5.88 5.88 0 0 0-.71-.7 8.8 8.8 0 0 0-.71-.5c-.17-.1-.5-.26-.7-.35a7.55 7.55 0 0 0-.79-.28 20.6 20.6 0 0 0-.87-.19c-.44-.08-1.12-.1-15.5-.12l-.6.74c-.33.4-.6.75-.6.76.01.02 3.6.06 8 .1l8.4.18a8.33 8.33 0 0 1 .77.21c.18.06.54.2.8.33s.6.33.8.47c.18.13.42.35.53.47.1.13.27.35.36.5s.2.35.34.68h-21.7l-.16-.13c-.1-.07-.28-.2-.4-.26a6.04 6.04 0 0 0-.56-.2c-.2-.05-.5-.1-.83-.08-.28 0-.7.04-.92.1-.23.04-.65.16-.94.26-.3.1-.6.2-.65.2s-.1.03-.08.06.01.03-.03.01c-.03-.02-.1-.01-.18.02-.06.03-.2.13-.3.22s-.46.32-.82.52c-.35.2-1 .54-1.42.77a52.83 52.83 0 0 1-1.53.75c-.4.18-.78.34-.82.34-.04.01-.1.03-.1.04-.02.02-.27.13-.56.24-.3.12-.8.3-1.13.4-.32.1-.8.22-1.1.28a9.07 9.07 0 0 1-.97.14 3.86 3.86 0 0 1-1-.06c-.3-.05-.78-.16-1.08-.26-.3-.1-.58-.2-.62-.23-.03-.04-.1-.08-.14-.1a.16.16 0 0 1-.1-.05c-.01-.01-.06-.04-.1-.05a.95.95 0 0 1-.25-.14c-.1-.08-.27-.22-.37-.32-.1-.1-.18-.2-.17-.22.02-.02 0-.04-.03-.04-.02 0-.1-.1-.15-.2a3.12 3.12 0 0 1-.15-.43 1.27 1.27 0 0 1 0-.55c.03-.18.07-.33.1-.35.02-.01.04-.07.05-.12.01-.06.07-.18.13-.28.05-.1.2-.28.3-.4l.22-.28c.01-.03-.37-.05-1.1-.05-.84-.01-1.25-.03-1.6-.1-.27-.05-.6-.14-.73-.2-.14-.06-.32-.18-.4-.27-.1-.13-.15-.22-.15-.4 0-.14.05-.32.14-.5.08-.17.3-.45.6-.73a8.93 8.93 0 0 1 .9-.79l.48-.36c.03-.02-.03-.08-.15-.14a2.51 2.51 0 0 1-.47-.31c-.2-.15-.3-.3-.4-.5-.1-.24-.13-.34-.1-.57a1.81 1.81 0 0 1 .2-.61c.1-.22.32-.48.6-.74.22-.23.6-.55.84-.7.23-.17.67-.46.96-.63a25.88 25.88 0 0 1 1.66-.9l-7.75-.06-.7-.13c-.38-.08-.96-.22-1.3-.3-.34-.1-.84-.26-1.12-.37-.28-.1-.65-.26-.82-.34-.17-.1-.32-.17-.33-.2-.02-.01-.06-.04-.1-.04-.05-.01-.18-.08-.3-.14-.12-.07-.2-.16-.2-.2 0-.04-.02-.05-.04-.03s-.18-.06-.35-.18a7.08 7.08 0 0 1-.68-.57 7.31 7.31 0 0 1-.62-.66c-.13-.17-.46-.63-.73-1.03s-.5-.77-.5-.8c0-.05.02-.06.03-.03zm-44.42 1.54l.73.44c.4.24 1.14.64 1.64.9l1.7.78c.42.18.77.35.77.38.01.04-4.18.05-13.7.04l-14.5-.08-1.76-.14a66.71 66.71 0 0 1-1.81-.17l-1.12-.15c-.15-.03-.4-.07-.54-.08-.14-.02-.64-.1-1.12-.2-.48-.1-1.15-.26-1.5-.35-.35-.1-.87-.26-1.15-.37-.28-.1-.53-.2-.55-.25-.02-.03-.04-.04-.04-.01 0 .02-.14-.04-.32-.13-.17-.08-.33-.18-.35-.2s-.04-.04-.04-.02-.12-.04-.27-.13a1.91 1.91 0 0 1-.28-.2c-.01-.02 7.68-.04 34.22-.04zm86.7 0h34.18l-.15.13c-.08.07-.45.28-.82.45-.36.18-.92.4-1.25.5-.32.1-.86.26-1.2.34a36.32 36.32 0 0 1-1.18.25l-1.3.2a36.15 36.15 0 0 1-1.5.18l-1.5.13a56.88 56.88 0 0 1-1.84.09c-.6.03-5.9.04-22.47 0l-.04-.4c-.02-.2-.07-.5-.12-.67-.04-.15-.13-.38-.2-.5-.06-.12-.22-.34-.36-.47l-.25-.24zm-41.12 3.34c.22.02.5.06.64.1a5.04 5.04 0 0 1 .56.26c.18.1.5.28.74.4a8.26 8.26 0 0 0 .76.29c.2.06.44.1.55.1s.2.02.22.05c.01.03-.13.18-.32.33-.2.16-.55.43-.8.6a11.71 11.71 0 0 1-1.25.7c-.43.22-1.05.5-1.37.6-.33.12-.88.3-1.23.4a17.61 17.61 0 0 1-1.3.31c-.36.07-.93.16-1.25.2-.38.05-1.15.1-3.75.13l.03-.17c.02-.1.1-.33.2-.53a2.36 2.36 0 0 1 .46-.64c.15-.15.36-.3.45-.35s.16-.1.16-.1c0-.02-4.6 0-10.2.03l-13.33.04-.78-.26a13.45 13.45 0 0 1-1.25-.5c-.26-.12-.6-.3-.77-.43-.16-.1-.28-.23-.26-.26.01-.03 4.85-.05 28.72-.05l.6-.27a17.52 17.52 0 0 1 1.14-.48 12.44 12.44 0 0 1 1.02-.31 12.3 12.3 0 0 1 .85-.16 6.83 6.83 0 0 1 .79-.02zm59.7 1.24l6.8.05c.01.03-.18.18-.42.34-.25.16-.75.43-1.1.6-.37.17-.94.4-1.28.53-.34.1-.9.28-1.22.36a14.07 14.07 0 0 1-1.19.25c-.53.1-.85.1-7.18.1l-.32-.54-.57-1.05c-.14-.27-.26-.53-.26-.57 0-.07.8-.08 6.76-.08zm-54.45.15h2.26c1.98 0 2.27.01 2.27.08 0 .04-.06.2-.13.34-.08.15-.2.35-.3.44-.08.1-.14.16-.14.15-.01-.01-.1.08-.22.2s-.4.3-.65.42c-.24.1-.63.27-.87.34-.24.08-.68.18-1 .23-.3.06-1 .13-1.5.16s-1.13.04-1.78 0l2.05-2.35zm-41.6.1l.2.14c.1.08.35.25.55.37.2.1.37.24.4.27s.04.04.04.02.27.1.6.26c.33.17.97.47 1.4.66.45.2.83.38.83.4.01.02-6.2.05-13.8.07s-14.26.01-14.8-.01l-1.94-.12-1.73-.18-1.5-.23a22.53 22.53 0 0 1-1.22-.26 15.61 15.61 0 0 1-.94-.26 11.77 11.77 0 0 1-.97-.35c-.3-.13-.7-.33-.9-.46-.2-.12-.36-.24-.34-.27.02-.04 5.77-.05 34.16-.05zm37.77 2.7c.03.01.35.23 1.36.95l-.25.28a16.52 16.52 0 0 1-.73.73c-.26.25-.65.58-.86.74s-.58.4-.82.55a11.06 11.06 0 0 1-.81.44c-.2.1-.4.17-.42.16-.02-.02-.04 0-.04.02 0 .03-.25.13-.55.23s-.7.2-.85.25c-.17.04-.56.12-.87.16-.37.06-.87.1-1.46.1-.56 0-1.07-.03-1.37-.08-.27-.05-.5-.1-.5-.12-.02-.01.06-.1.18-.18.1-.1.45-.4.76-.72s.7-.75.86-.98c.17-.22.34-.43.4-.47.04-.03.07-.08.07-.1s.08-.2.4-.72h.63c.34 0 .85-.04 1.13-.08a14.85 14.85 0 0 0 1.1-.24c.32-.1.62-.16.66-.17.04 0 .13-.03.2-.06.07-.04.36-.14.64-.25a21.25 21.25 0 0 0 .82-.32c.16-.08.32-.13.35-.1zm6.84.4c.03 0 .22.18.43.4.2.2.37.4.37.43-.01.02-.18.24-.38.48a7.85 7.85 0 0 1-.81.82c-.23.2-.58.5-.78.62s-.48.3-.64.4a6.93 6.93 0 0 1-.66.31c-.2.1-.64.23-.95.3a8.63 8.63 0 0 1-1.22.2c-.5.05-.8.05-1.22.01-.3-.03-.73-.1-.92-.14-.2-.04-.38-.1-.4-.1s.17-.17.43-.34.7-.47.97-.68a10.05 10.05 0 0 0 .92-.76c.23-.22.52-.53.88-.98l.5-.02c.28-.02.75-.07 1.05-.13.3-.06.76-.2 1.05-.28.28-.1.7-.25.9-.35.23-.1.43-.2.46-.2zm-15.25.94l-.02.27a1.49 1.49 0 0 1-.14.56c-.1.2-.27.42-.53.68-.2.2-.52.46-.7.56-.17.1-.33.17-.37.17-.03 0-.06.02-.06.04s-.18.1-.4.2-.6.2-.85.28c-.26.07-.72.17-1.02.23-.3.06-.85.13-1.2.17-.34.03-.62.06-.62.05-.01-.01.24-.44.53-.96.3-.5.54-.95.54-.96 0-.02-2.76-.03-12.27-.05l-.7-.24c-.38-.13-.84-.3-1.02-.4a4.12 4.12 0 0 1-.54-.31c-.1-.08-.2-.2-.2-.23-.01-.07.94-.08 19.55-.06zm63.04-.02c1.1 0 1.22.01 1.27.1.03.06.02.14-.03.24-.04.08-.15.22-.24.3-.1.1-.32.23-.5.32s-.3.15-.3.13-.02-.01-.04.02-.16.1-.3.17c-.14.05-.27.1-.27.06 0-.02-.01-.01-.03.02s-.24.12-.48.2c-.23.07-.43.13-.44.12 0-.01.03-.36.07-.78l.08-.83c0-.05.3-.06 1.22-.06zm-84.98.05l.16.2a2.96 2.96 0 0 0 .53.45 8.05 8.05 0 0 0 .89.53c.28.15.53.3.55.33s.04.03.04.01.3.1.67.27.68.32.7.34c.01.03-5.72.06-12.73.07-7.07.02-13.2.02-13.76-.01a44.94 44.94 0 0 1-2.17-.15c-.63-.05-1.55-.16-2.04-.23s-1.26-.2-1.7-.3-1.13-.27-1.5-.4c-.38-.12-.9-.3-1.13-.42-.23-.1-.56-.3-.72-.4s-.28-.2-.27-.24c.02-.03 5.5-.05 32.5-.05zm36.72 2.85c.02 0 .05.13.07.3s.06.35.1.42c.04.07.18.23.32.35s.42.33.63.45a15.76 15.76 0 0 0 .63.34c.13.06.24.13.24.15s-.18.2-.4.4-.52.46-.67.58c-.16.1-.42.3-.6.4s-.48.26-.7.35a11.37 11.37 0 0 1-.76.26c-.25.06-.63.1-1.05.13s-.83 0-1.1-.04c-.24-.03-.62-.1-.85-.18s-.6-.2-.83-.3c-.23-.1-.4-.2-.4-.22s.1-.08.24-.16a4.22 4.22 0 0 0 .53-.34c.15-.1.38-.33.5-.48a4.72 4.72 0 0 0 .4-.62c.1-.2.17-.4.17-.42 0-.04-.04-.07-.1-.07-.04 0-.07-.01-.06-.02s.3-.08.63-.16c.34-.07.9-.23 1.25-.35a16.66 16.66 0 0 0 1.2-.48c.3-.14.58-.25.6-.26zm-16.06.72c.03 0 .1.06.16.14a1.23 1.23 0 0 0 .33.3 1.95 1.95 0 0 0 .43.22c.1.04.42.07.68.07s.47.02.47.04-.17.2-.37.37c-.2.2-.6.5-.86.66-.26.18-.72.44-1.02.58-.3.14-.73.32-.97.4-.23.1-.7.2-1.04.28-.34.08-.88.16-1.2.2-.38.03-.97.05-1.66.03-.74-.02-1.35-.07-1.96-.16-.5-.07-.9-.15-.92-.17-.02-.01.16-.01.38.01.23.02.5.04.6.06.17.02.27-.02.92-.4l1.02-.62c.16-.1.3-.17.3-.15s.02.02.04-.02c.02-.03.23-.2.47-.37.24-.18.6-.5 1.15-1.06l1.5-.2 1.55-.2zm8 .15a58.1 58.1 0 0 1 1.25.33l1.22.36c.01.01-.13.2-.3.4-.18.2-.48.53-.68.7-.2.16-.52.4-.7.53a5.9 5.9 0 0 1-.79.42c-.24.1-.66.25-.93.32-.28.07-.52.12-.55.1-.03-.02-.06-.01-.07.01s-.22.06-.45.08-.7.04-1.04.04-.82-.02-1.07-.06c-.25-.03-.67-.1-.92-.15a19.29 19.29 0 0 1-.75-.17c-.16-.05-.3-.1-.3-.12-.01-.02.12-.08.26-.13a3.61 3.61 0 0 0 .6-.29c.2-.1.47-.34.64-.52.2-.2.36-.46.64-1.06h.34c.2 0 .68-.07 1.1-.15a41.49 41.49 0 0 0 1.6-.4l.9-.26zm-17.9.15h1.7c.93 0 1.7.02 1.7.04s-.03.13-.06.24a1.27 1.27 0 0 1-.18.37c-.07.1-.24.24-.4.34s-.38.22-.78.38l-.8-.54c-.43-.3-.8-.55-.8-.58s-.03-.04-.05-.03c-.02.02-.1-.03-.2-.1l-.16-.12zm-18.06.2l16.13.05c.01.03 0 .07-.03.08s-.05.08-.05.15c0 .1.07.18.32.36.17.13.5.34.75.46s.58.28.77.35c.18.08.35.16.38.2s-4.36.04-11.97.03l-13.24-.1c-.67-.04-1.62-.12-2.1-.16s-1.36-.13-1.92-.2-1.42-.2-1.9-.28c-.5-.1-1.23-.24-1.63-.34-.4-.1-.92-.24-1.15-.32-.22-.07-.4-.16-.42-.2-.02-.06 3.22-.07 16.08-.07zm62.48 1.25c.1.01 4.63.02 19.97.02l-.1.1c-.06.06-.27.2-.48.3a6.56 6.56 0 0 1-.85.35c-.25.1-.8.22-1.22.3-.42.08-1.18.2-1.68.25-.5.06-1.36.14-1.9.17-.58.04-2 .06-3.55.06a112.57 112.57 0 0 1-3.8-.06l-1.9-.1c-.36-.03-2.1-.05-3.85-.05-2.95 0-3.18 0-3.1-.08.04-.05.3-.23.56-.4a21.44 21.44 0 0 1 .89-.54c.23-.12.5-.24.6-.28.12-.03.3-.05.4-.04zm-24.77 1.66c.03 0 .2.17.4.37.2.22.46.43.6.5.14.07.42.17.64.23.2.06.64.15.96.2.33.05.82.12 1.1.14.28.03.7.07 1.38.12l-.13.1c-.07.05-.45.27-.84.5a25.39 25.39 0 0 1-1.17.62l-1.02.43c-.3.12-.83.3-1.15.37a13.82 13.82 0 0 1-1.1.24 9.16 9.16 0 0 1-1.07.07 7.91 7.91 0 0 1-1.02-.07c-.25-.05-.57-.12-.72-.16-.14-.05-.4-.14-.56-.2a5.47 5.47 0 0 1-.71-.4c-.23-.15-.52-.38-.66-.53-.14-.14-.25-.26-.23-.27.01-.01.33-.12.7-.24s.72-.22.77-.22c.04-.01.08-.02.1-.04a15.37 15.37 0 0 1 .69-.27c.36-.13 1.06-.43 1.54-.67s.9-.43.92-.42c.02 0 .05-.02.06-.05.02-.03.12-.12.23-.2.1-.08.23-.15.26-.15zm-9.74.2a7.31 7.31 0 0 1 .44.2c.23.1.7.28 1.02.38s.88.22 1.22.26a9.75 9.75 0 0 1 .93.16l-.33.34c-.18.2-.5.45-.7.6-.2.13-.54.34-.76.45a8.63 8.63 0 0 1-.91.36c-.27.1-.7.2-.94.24-.25.04-.8.1-1.2.1a11.56 11.56 0 0 1-1.35-.03 18.04 18.04 0 0 1-1.36-.22c-.42-.08-.8-.17-.84-.2-.06-.03-.04-.04.07-.04.08-.01.3-.12.56-.3a9.83 9.83 0 0 0 .73-.57c.17-.15.4-.38.5-.5.16-.2.26-.26.48-.32a3.73 3.73 0 0 1 .38-.1c.06-.01.14-.03.18-.05.04-.01.33-.1.64-.2s.7-.26.9-.35c.18-.1.34-.18.34-.18zm-9.54.16c.07 0 .13.01.14.04.02.03.01.1-.02.15-.03.06-.16.23-.3.37-.14.15-.46.47-1.2 1.16h-7.4c-4.1 0-7.93-.02-8.6-.05l-2.4-.13-1.97-.15c-.43-.04-1.16-.13-1.6-.18l-1.58-.23c-.42-.07-.92-.16-1.12-.2-.2-.04-.4-.1-.43-.1-.04-.02-.14-.04-.2-.05s-.4-.1-.74-.2l-.75-.23c-.08-.03-.14-.08-.14-.1s4.74-.05 14.1-.06l14.2-.03zm1.5.4a10.35 10.35 0 0 1 .64.2c.34.1.65.22.7.24.04.01.13.04.18.04.06.01.24.06.4.1a4.38 4.38 0 0 0 .63.12c.17.02.3.05.3.07s-.1.1-.2.2-.43.26-.68.4c-.25.12-.46.25-.47.27-.01.03-.05.05-.1.05s-.34.08-.64.18a23.51 23.51 0 0 1-1.01.28c-.25.05-.66.13-.92.16-.33.05-.45.05-.44.01 0-.03.36-.57.8-1.2.43-.62.8-1.12.8-1.12zm37.8.6c.03 0 .07.05.13.22l9.37-.02 9.37.02c-.01.03-.18.1-.37.17-.2.07-.64.2-.97.28l-.77.17a.73.73 0 0 0-.23.04c-.04.02-.3.06-.56.1l-1.04.15c-.3.04-.9.1-1.3.15-.4.05-.92.1-1.14.1-.23.01-.77.05-1.2.08-.5.04-2.08.06-4.13.07-1.84 0-4.38-.02-5.64-.04l-2.34-.07c-.02-.01.06-.2.17-.42.1-.23.22-.4.24-.4s.04-.03.04-.06c0-.04.08-.18.17-.3s.2-.24.2-.24zm-14.58 1.63c.07 0 .1.04.1.14 0 .07-.08.3-.2.47s-.33.5-.5.74a9.42 9.42 0 0 1-.86.96 8.77 8.77 0 0 1-.97.84c-.23.15-.44.28-.47.28-.04 0-.07.02-.07.04s-.2.13-.42.24-.64.27-.92.35c-.27.1-.7.2-.94.24-.25.04-.7.1-.98.1-.3.02-.78 0-1.08-.03-.3-.03-.58-.07-.65-.08-.06-.02-.1-.04-.1-.06 0-.03.15-.08.34-.13s.5-.17.68-.26c.18-.08.56-.33.84-.54s.66-.56.84-.77l.45-.5c.08-.1.17-.14.4-.17.17-.02.5-.1.7-.16.22-.06.66-.22.97-.35s.85-.4 1.2-.57.63-.3.62-.3c0 .02.01.02.03-.02.02-.03.23-.15.47-.27.24-.1.47-.2.52-.2zm-11.45.5c.01 0 .06.1.1.2.06.12.2.32.33.44.13.1.34.27.48.33.13.07.4.17.57.23s.54.14.8.2c.26.04.76.1 1.8.13l-.15.12c-.1.07-.18.1-.2.1s-.03 0-.03.03-.3.26-.63.53a20.87 20.87 0 0 1-.93.68c-.17.1-.5.3-.77.43-.25.13-.65.3-.9.38-.24.1-.66.2-.93.26s-.76.13-1.07.16c-.34.03-.85.03-1.24 0a13.52 13.52 0 0 1-1.02-.1 11.4 11.4 0 0 1-.87-.18c-.28-.07-.67-.2-.86-.25-.2-.07-.48-.17-.9-.36l.35-.24c.2-.13.5-.4.7-.6.2-.2.44-.54.57-.76s.24-.45.28-.65l.6.02c.42.01.74-.01 1.06-.07.25-.05.7-.17 1.02-.26a14.96 14.96 0 0 0 1.15-.44c.32-.14.6-.28.63-.3.03-.02.06-.04.07-.04zm-10 .1c.03 0 .3.14.6.3a10.16 10.16 0 0 0 1.06.51 8.06 8.06 0 0 0 .82.28 3.19 3.19 0 0 0 .62.08c.3 0 .32 0 .3.1-.02.07-.1.23-.16.37s-.25.37-.4.5c-.15.14-.4.34-.57.44-.17.1-.5.26-.7.35-.23.1-.62.22-.87.28-.25.07-.73.16-1.07.2-.46.07-.95.1-1.94.1-.9 0-1.6-.03-2.2-.1-.48-.04-1.5-.17-3.63-.47l-1.44 1.33-2.3.03c-1.4.03-2.52.02-2.87-.01-.33-.03-.9-.1-1.3-.17-.4-.07-1-.2-1.36-.28s-.66-.18-.68-.2c-.03-.01-.1-.03-.13-.03-.04-.01-.22-.05-.38-.1a13.53 13.53 0 0 1-.87-.3c-.3-.1-.6-.22-.6-.25-.03-.02 2.45-.04 5.76-.04 4.65-.01 5.78-.02 5.4-.13h.33c.18 0 .38-.02.43-.05.1-.04.1-.03.07.04-.04.08.02.1.48.15.3.03.63.07.76.1.2.03.3.01.94-.26.4-.17.75-.3.8-.3.05-.01.1-.02.1-.04 0-.01.13-.08.3-.15.17-.06.68-.3 1.14-.5l.92-.4c.04 0 .1-.03.1-.04.02-.02.24-.14.5-.26.27-.13.65-.32.84-.44l.4-.22c.03-.01.1-.07.18-.14.07-.06.22-.16.33-.2.1-.06.23-.1.27-.1zm-5.43.1c.02 0 .03.03.03.06 0 .04-.2.26-.43.5s-.43.42-.43.4c0-.02-.14.1-.6.54L103 43l-4.52.04-2.95-.06a83.66 83.66 0 0 1-2.12-.13c-.52-.04-1.24-.1-1.6-.16-.36-.04-.96-.12-1.33-.17-.36-.06-.95-.17-1.3-.24a14.5 14.5 0 0 1-1.22-.3c-.32-.1-.66-.2-.74-.23-.13-.06 1.43-.08 9.72-.1l10.02-.1c.1-.05.17-.1.2-.1zm39.58.08c.03.01.05.06.05.1 0 .04.24.07.85.1.47.02 3.9.04 7.65.04l6.8.06c0 .03-.14.14-.32.23a6.76 6.76 0 0 1-.67.29c-.2.08-.6.2-.87.26a14.25 14.25 0 0 1-1.1.22c-.32.06-.9.14-1.27.18l-1.38.13c-.38.03-1.4.07-2.27.1a73.94 73.94 0 0 1-2.93.03l-2.6-.08-1.95-.1c-.38-.03-.75-.07-.8-.1-.1-.04-.08-.08.2-.6.17-.3.36-.63.43-.72.07-.1.16-.16.18-.14zm-5.03 2.15c.14.01.4.05.56.1.17.04.44.14.6.23.18.1.48.33.7.54.27.27.44.48.53.7.13.26.15.37.14.72 0 .28-.03.5-.1.7-.06.17-.24.5-.4.7a14.3 14.3 0 0 1-.49.64c-.12.12-.2.2-.17.15.03-.05.03-.06-.02-.04-.03.02-.06.07-.06.1 0 .04-.14.2-.32.35l-.64.55a25.66 25.66 0 0 1-1.21.85c-.48.3-1.14.73-1.48.92-.33.2-.64.35-.67.35-.04 0-.07.02-.07.04s-.37.22-.83.44c-.45.22-1.06.5-1.34.62-.28.1-.67.25-.86.3-.2.05-.58.12-.85.15-.26.03-.8.08-1.2.1-.4.02-1.77.07-3.07.1-1.3.03-2.78.03-3.32.01s-1-.05-.98-.06c0-.02.54-.34 1.2-.7l2.35-1.37 1.2-.7c.03-.01.08-.04.13-.08.04-.04.58-.38 1.2-.76l1.9-1.23a28.9 28.9 0 0 0 1.25-.87c.26-.2.6-.45.74-.6.16-.13.33-.3.4-.37.05-.07.35-.34.66-.6.3-.26.8-.63 1.1-.83a8.17 8.17 0 0 1 .88-.53c.2-.1.34-.16.34-.15 0 .02.03 0 .07-.03.03-.04.3-.14.57-.24.28-.1.68-.18.9-.2a4.7 4.7 0 0 1 .64-.01zm3.77.98c.05 0 .2.04.37.1.3.1.42.1 5.83.1l5.5.05c-.03.03-.53.2-1.12.4-.6.2-1.43.44-1.87.54-.43.1-.9.2-1.02.2-.12.01-.46.06-.74.1a12.78 12.78 0 0 1-1.43.08c-.5.01-1.7 0-4.36-.06l-.55-.54c-.3-.3-.6-.6-.64-.7s-.07-.17-.06-.22c.01-.04.06-.07.1-.07zm-28.9.93c.57.02.76.04 1.1.15a3.18 3.18 0 0 1 .76.38 2.81 2.81 0 0 1 .61.58 4.19 4.19 0 0 1 .37.58c.06.14.13.37.14.5.02.16.01.36-.05.56a2.22 2.22 0 0 1-.24.57c-.1.15-.32.43-.52.63-.2.2-.47.43-.6.53s-.24.16-.24.14-.03 0-.05.05c-.03.05-.08.08-.1.06-.03-.01-.06 0-.06.03s-.2.16-.42.3-.62.35-.88.48l-1 .46c-.3.13-.57.24-.6.25-.05.01-.1.02-.1.04-.01.02-.26.13-.56.24-.3.1-.88.32-1.3.47l-1.53.5c-.42.13-.8.23-.87.24-.05.01-.12.03-.15.04-.03.02-.33.1-1.27.34l-7.42-.52c-.14-.02-.26-.05-.26-.08s.05-.06.12-.08c.07-.01.15-.03.17-.03.02-.01.06-.03.1-.05.03-.03.68-.36 1.45-.75s1.83-.95 2.35-1.24 1.3-.76 1.76-1.03c.45-.28 1.26-.8 1.8-1.17l1.43-.97c.24-.17.72-.46 1.06-.64.33-.2.86-.45 1.17-.6s.76-.33 1-.42l.9-.3a11.58 11.58 0 0 1 .86-.2c.27-.05.66-.07 1.1-.06zm8.85 8.5l.36.1c.2.05.75.15 1.23.22.47.07 1.23.17 1.68.2a41.66 41.66 0 0 0 1.84.11 17.54 17.54 0 0 0 1.81-.03 18.51 18.51 0 0 0 1.14-.11c.2-.03.58-.1.85-.15l.76-.18c.16-.05.3-.07.33-.06.02.01-.07.14-.2.3-.13.15-.45.45-.7.66-.26.2-.72.55-1.03.75-.3.2-.8.5-1.1.64-.3.15-.84.4-1.2.54-.37.14-.95.34-1.3.44a14.8 14.8 0 0 1-1.28.3 22.28 22.28 0 0 1-1.38.22c-.54.06-1.1.1-2.16.1-1 0-1.67-.03-2.22-.1-.44-.05-1.22-.16-1.74-.24-.52-.1-.96-.18-1-.2-.03-.03.1-.1.33-.2.2-.1.73-.35 1.16-.56.43-.22.78-.4.78-.38 0 .02.03 0 .06-.04.04-.03.2-.14.37-.23a19.41 19.41 0 0 0 .74-.47c.24-.16.45-.3.47-.3a1.43 1.43 0 0 0 .18-.16c.08-.08.38-.37.68-.65l.53-.5zm-24.05.62a28.45 28.45 0 0 0 .86.15c.44.07 1.16.18 1.6.23.45.06 1.16.13 1.58.16.47.04 1.23.05 1.94.03.77-.02 1.3-.05 1.53-.1a7.78 7.78 0 0 1 .48-.11c.06-.02.1 0 .1.02 0 .03-.12.13-.27.22-.14.1-.28.16-.3.15-.02 0-.04.01-.04.03s-.2.15-.42.3a20.06 20.06 0 0 1-1.02.57c-.33.17-.6.3-.6.27s-.02-.01-.04.03c-.02.03-.37.2-.78.37s-1 .4-1.35.5-.83.26-1.1.33a20.67 20.67 0 0 1-1.17.25c-.38.07-1 .15-1.38.18a13.29 13.29 0 0 1-1.58.03 14.46 14.46 0 0 1-1.4-.1 18.62 18.62 0 0 1-1.1-.2c-.32-.07-1.06-.25-1.63-.4l-1.22-.3c-.1-.03-.16-.06-.16-.1 0-.02.36.03.8.1l2.06.38.44-.23c.25-.12.72-.38 1.06-.58a18.96 18.96 0 0 0 .92-.56c.17-.1.48-.34.7-.5s.4-.3.4-.28c-.01.01.12-.1.3-.24.16-.15.4-.35.5-.45.12-.1.25-.18.3-.17zm31.2 4.16a.84.84 0 0 1 .38.08c.13.07.2.15.25.3.07.18.07.27.02.56a5.17 5.17 0 0 1-.22.77 5.36 5.36 0 0 1-.2.51c-.04.06-.1.02-.37-.22a3.76 3.76 0 0 0-.68-.47c-.25-.13-.42-.18-.6-.17-.16 0-.32.05-.54.17-.18.1-.32.17-.32.16 0-.02.02-.07.05-.13.04-.1.02-.1-.3-.15-.2-.03-.36-.08-.36-.1 0-.02.22-.17.48-.32s.65-.37.88-.48c.22-.12.5-.24.62-.28.12-.05.22-.07.22-.05s.02.02.05-.02c.02-.03.13-.07.24-.1.1-.03.28-.06.4-.06zm-24.44.15c.17 0 .3.03.42.1.12.07.18.16.22.3.03.13.04.33.02.47s-.1.43-.17.64-.16.47-.3.76l-.36-.3a3.98 3.98 0 0 0-.66-.46c-.23-.12-.37-.15-.6-.15-.2 0-.34.04-.54.15-.15.1-.3.14-.3.13s-.01-.06.03-.1c.05-.07.02-.1-.2-.13-.14-.03-.3-.05-.35-.05-.06 0-.1-.03-.1-.07.01-.03.2-.17.42-.3.23-.14.63-.36.9-.5a5.54 5.54 0 0 1 .82-.35c.18-.06.36-.12.4-.13.04-.02.2-.03.33-.03zm18.08.12c.3.02.35.03.48.2.14.15.15.2.12.45-.02.2-.1.43-.3.8-.15.3-.3.54-.32.55s-.55-.28-1.15-.63c-.6-.36-1.1-.68-1.1-.7s.07-.08.15-.12.36-.15.6-.24.62-.2.82-.24a2.65 2.65 0 0 1 .68-.06zm-24.14.13c.15 0 .34.03.43.07.1.04.2.12.24.24.05.1.06.25.04.4-.02.13-.14.44-.27.7a6.6 6.6 0 0 1-.3.56c-.07.1-.1.1-.8-.33-.4-.24-.72-.45-.72-.46s-.02-.03-.06-.03c-.03 0-.22-.1-.42-.22s-.36-.23-.37-.24.05-.05.13-.1c.07-.04.36-.15.62-.25.27-.1.65-.22.84-.26.2-.04.48-.08.63-.08zm36.06.07c.14.01.32.05.4.1.08.05.18.14.2.2.04.08.07.23.07.34s-.05.35-.1.52c-.06.18-.18.45-.27.62-.1.16-.17.3-.18.3-.02 0-.1-.07-.18-.16-.1-.1-.28-.24-.42-.33-.15-.1-.4-.2-.57-.25-.17-.05-.47-.08-.72-.07a3.77 3.77 0 0 1-.88-.1c-.25-.06-.45-.13-.45-.15s.26-.16.57-.3a14.96 14.96 0 0 1 1.15-.44c.32-.1.7-.2.84-.24.15-.02.4-.04.53-.03z" class="T Y"/><path d="M140.63 59.5a5.12 5.12 0 0 1 .11.37c.04.15.08.38.1.5.02.12.06.26.08.3.03.04.03.16 0 .3l-.05.23h22.85v55.7l-.12 1.88-.2 1.7-.25 1.75-.35 1.9-.36 1.66a97.39 97.39 0 0 1-.44 1.7l-.52 1.83-.54 1.63-.6 1.66-.77 1.88-.86 1.94a35.74 35.74 0 0 1-.76 1.52l-.74 1.38-.87 1.5-.97 1.55-.94 1.4-.93 1.28-1.15 1.47s-.96 1.17-1.35 1.6a51.89 51.89 0 0 1-1.4 1.53l-1.58 1.58-1.7 1.57-1.74 1.45-1.55 1.2-1.43 1.02-1.48 1-1.43.9s-1.04.6-1.43.84l-1.48.8-1.43.74-1.66.8a47.49 47.49 0 0 1-1.71.77l-1.63.67a57.81 57.81 0 0 1-1.89.72l-1.63.6-1.86.6-1.2.37-1.94-.5-1.96-.6-1.97-.7-2-.8a67.09 67.09 0 0 1-2.11-.92l-1.76-.84-1.64-.86-1.7-.95-1.78-1.1-1.94-1.27a69.75 69.75 0 0 1-1.74-1.23l-1.53-1.18a54.21 54.21 0 0 1-1.45-1.2l-1.53-1.35s-1.3-1.24-1.9-1.84a69.34 69.34 0 0 1-1.71-1.8l-1.12-1.3a48.54 48.54 0 0 1-1.05-1.3 58.26 58.26 0 0 1-1.07-1.4l-1.12-1.6s-.84-1.27-1.1-1.7l-.9-1.5a48.26 48.26 0 0 1-1.02-1.88l-1.02-2.06s-.55-1.2-.7-1.58l-.57-1.4-.57-1.53-.55-1.6-.54-1.76-.5-1.78-.34-1.37-.33-1.56-.38-2-.28-1.75-.2-1.6c-.1-.85-.1-1.12-.1-28.42V61.5h11.98l8.28-.05c0-.03-.1-.15-.24-.26-.14-.1-.54-.35-.9-.53a10.23 10.23 0 0 0-1.1-.46c-.24-.08-.57-.22-.75-.3l-.32-.17H78.83v57.17l.4 3.23c.08.56.23 1.46.33 2 .1.55.25 1.37.35 1.83l.4 1.73c.1.5.3 1.24.4 1.66s.32 1.15.46 1.63l.5 1.65.6 1.73.65 1.7.57 1.37c.14.34.45 1.02.68 1.5.22.5.68 1.4 1 2.03.32.63.82 1.55 1.1 2.04a52.61 52.61 0 0 0 .91 1.53l.92 1.42 1 1.45a48.93 48.93 0 0 0 1.18 1.58 73.32 73.32 0 0 0 1.36 1.71c.36.43 1 1.15 1.4 1.6s1.3 1.38 2 2.06a70.66 70.66 0 0 0 2.02 1.94 52.47 52.47 0 0 0 1.4 1.22c.35.3.92.77 1.27 1.05l1.64 1.25 1.58 1.14 1.53 1.02 1.7 1.07 1.48.87c.4.22 1.14.63 1.66.9a50.19 50.19 0 0 0 1.94.98c.54.27 1.48.7 2.1.97.6.27 1.54.66 2.1.88a70.14 70.14 0 0 0 1.91.72c.5.2 1.24.44 1.64.57l1.42.44c.4.12 1.03.3 1.4.4l.84.2c.1.01.38-.05.74-.16l1.9-.63a87.28 87.28 0 0 0 2.37-.82l1.94-.73 1.8-.76c.5-.2 1.26-.55 1.66-.73a82.45 82.45 0 0 0 2.04-1 108.4 108.4 0 0 0 2.15-1.12l1.86-1.08a59.87 59.87 0 0 0 2.27-1.44c.7-.45 1.62-1.1 2.06-1.42l1.38-1.04 1.28-1.02c.4-.32 1.1-.94 1.6-1.37.5-.44 1.42-1.32 2.07-1.97a63.39 63.39 0 0 0 1.8-1.86c.35-.37 1.02-1.15 1.5-1.73.48-.57 1.25-1.53 1.7-2.14.45-.6 1.1-1.5 1.46-2.03s.85-1.3 1.1-1.7.72-1.2 1.03-1.73.88-1.62 1.3-2.42c.4-.8.9-1.86 1.14-2.36l.7-1.68a47.49 47.49 0 0 0 .61-1.58 53.06 53.06 0 0 0 .69-1.99 42.37 42.37 0 0 0 .67-2.16c.16-.55.4-1.46.54-2.04a60.15 60.15 0 0 0 .43-1.93c.1-.5.27-1.35.36-1.9a51.83 51.83 0 0 0 .31-2.01c.07-.55.16-1.36.2-1.8a59.94 59.94 0 0 0 .13-1.93c.04-.78.05-10 .04-29.68l-.01-28.56c-24.34-.03-24.94-.02-24.9.06z" class="V"/><path d="M176 59.42a11.57 11.57 0 0 1 .9.06 8.23 8.23 0 0 1 .97.21l.76.3c.18.08.55.3.82.47a8.15 8.15 0 0 1 .92.75c.24.24.54.6.67.8.13.2.34.54.47.78.12.24.3.62.36.85s.16.62.2.87a8.06 8.06 0 0 1 .07 1.06c0 .33-.03.8-.08 1.06-.04.26-.13.6-.18.8-.06.2-.2.56-.35.84-.13.28-.38.7-.56.93a6.63 6.63 0 0 1-.63.73c-.17.18-.44.4-.6.53-.15.12-.47.33-.7.47s-.7.34-1.02.44c-.4.14-.8.22-1.22.28-.53.06-.75.07-1.28.02-.37-.03-.85-.12-1.15-.2a6.94 6.94 0 0 1-1.07-.42c-.3-.16-.73-.4-.94-.57-.2-.15-.57-.48-.8-.7-.23-.24-.5-.57-.6-.73-.12-.17-.3-.48-.4-.7l-.34-.8a6.57 6.57 0 0 1-.22-.9c-.05-.25-.08-.73-.08-1.06a6.77 6.77 0 0 1 .08-1.07 7.28 7.28 0 0 1 .23-.92 6.43 6.43 0 0 1 .36-.84c.1-.2.3-.5.4-.66s.37-.47.6-.7a6.67 6.67 0 0 1 .81-.73c.23-.17.66-.43.97-.58s.78-.33 1.05-.4c.26-.07.65-.15.87-.17a6.25 6.25 0 0 1 .73-.05zm-1.17 1a7.22 7.22 0 0 0-.79.26c-.24.1-.62.3-.84.45-.23.15-.58.44-.78.64-.2.2-.46.5-.58.68a9.01 9.01 0 0 0-.4.71c-.1.23-.25.58-.3.8a7.78 7.78 0 0 0-.16.71 7.09 7.09 0 0 0-.06.9 7.23 7.23 0 0 0 .06.9c.03.2.1.53.18.76l.32.8c.1.2.3.54.43.72a6.2 6.2 0 0 0 .53.62l.45.4a5.14 5.14 0 0 0 .39.27 5.46 5.46 0 0 0 .48.27l.5.2.6.2c.25.06.52.1 1.17.1.76 0 .9-.02 1.35-.14.28-.08.65-.2.82-.3s.43-.22.6-.32a5.24 5.24 0 0 0 .56-.43c.16-.14.38-.35.5-.48a7.29 7.29 0 0 0 .4-.5l.36-.64a11.58 11.58 0 0 0 .3-.78c.07-.23.15-.57.18-.76a7.23 7.23 0 0 0 .06-.9 7.09 7.09 0 0 0-.06-.9c-.02-.18-.1-.5-.15-.7-.06-.2-.17-.5-.24-.66l-.32-.6c-.1-.18-.3-.46-.45-.62-.13-.16-.4-.42-.57-.58l-.7-.5-.64-.32c-.15-.06-.46-.16-.7-.22-.3-.08-.6-.1-1.15-.13-.4-.01-.8-.01-.86.01-.07.01-.3.06-.5.1z" class="Y Z"/><path d="M112.68 59.82a10.99 10.99 0 0 0-.77.24l-.62.25c-.12.05-.22.12-.22.16 0 .03.15.1.35.15a8.16 8.16 0 0 0 .98.12l.74.05a.32.32 0 0 1 .13.05 2.62 2.62 0 0 0 .27.15c.14.07.35.23.47.36l.22.22c.1-.23.14-.42.17-.56s.04-.38.03-.54c-.01-.18-.05-.34-.12-.42a.83.83 0 0 0-.28-.24c-.13-.07-.28-.1-.6-.1-.22 0-.56.04-.76.1z" class="T"/><path d="M117.6 59.83c-.01.01-.02.23-.02.5l-.05.75-.03.27 6.32-.05.28-.03c-.47-.5-.77-.76-.96-.9a6.03 6.03 0 0 0-.75-.4l-.4-.16-4.4.01zm-12.63.9c.04.13.08.35.1.5l.03.24 1.33-.05c0-.03-.12-.16-.27-.3s-.43-.3-.62-.4c-.2-.1-.42-.2-.5-.2l-.14-.03.07.24zm24.18 0a2.53 2.53 0 0 1 .03.38v.2l.8-.03c.02-.02-.08-.15-.2-.28l-.4-.34c-.1-.06-.18-.1-.2-.1s-.02.1 0 .2zm5.8.18c.02.1.04.2.04.25 0 .08.05.1.43.08.28-.01.4-.03.4-.06-.03-.03-.17-.12-.32-.2s-.34-.17-.42-.2c-.16-.05-.16-.05-.12.12zm-23.95.3l.01.2c.73 0 .82-.02.77-.06-.05-.03-.22-.12-.4-.2l-.35-.15c-.03 0-.05.1-.04.2z" class="V"/><path d="M135.4 61.23l-.4.01c0 .24-.06.5-.13.7-.08.22-.24.56-.37.75-.12.2-.4.55-.64.77-.23.23-.6.55-.82.7l-.9.6c-.26.17-.78.46-1.15.64l-1.08.53c-.23.1-.43.17-.45.16-.01-.02.1-.2.24-.42.14-.22.35-.58.45-.8.1-.22.25-.56.3-.76.07-.23.12-.54.14-.9.01-.3 0-.65-.03-.82-.03-.15-.13-.42-.22-.6-.08-.18-.2-.37-.24-.42-.07-.07-.17-.1-.5-.1h-.4c-.06.44-.13.7-.18.88-.06.18-.22.48-.34.68a4.85 4.85 0 0 1-.55.65c-.17.17-.53.45-.8.62-.27.18-.73.44-1.02.58l-1.05.44c-.28.1-.87.28-1.3.4l-.82.17c-.01-.01.02-.08.07-.14s.23-.32.4-.57c.17-.26.4-.63.5-.84a4.71 4.71 0 0 0 .27-.77 3.21 3.21 0 0 0 .1-.74c0-.2-.03-.47-.07-.6a2.18 2.18 0 0 0-.19-.48l-.12-.23-5.43.05h-1.2c-.17.67-.3 1.03-.4 1.22-.1.2-.28.55-.44.78-.15.23-.44.6-.64.8l-.7.65-.75.54c-.22.15-.64.4-.9.53l-.54.3c-.01.02-.04.04-.06.04-.02-.01-.1 0-.17.02-.07.01-.12.05-.12.07 0 .03-.02.05-.04.04-.02 0-.24.06-.5.14l-.44.16.03 12.75a.94.94 0 0 1 .06-.15c.01-.05.03-.1.04-.13 0-.03.02-.1.03-.13.02-.04.06-.18.1-.3a2.56 2.56 0 0 0 .06-.31c.01-.04.03-.1.05-.14.02-.03.02-.08.01-.1-.02-.02-.01-.06.02-.1.02-.03.07-.18.1-.33l.08-.33c0-.03.02-.1.03-.13a2.15 2.15 0 0 0 .09-.31c.04-.12.07-.26.08-.3a.42.42 0 0 1 .04-.15c.01-.05.06-.18.1-.3l.07-.3a.29.29 0 0 1 .04-.14c.02-.04.03-.1.01-.1-.01-.02 0-.06.02-.1.03-.02.08-.17.1-.33l.08-.33s.01-.07.03-.1.1-.3.16-.6.13-.67.12-.8c-.01-.2-.04-.3-.16-.4-.1-.1-.24-.15-.46-.2-.17-.03-.36-.05-.42-.05-.1 0-.12-.03-.12-.23v-.23h5.16c0 .36-.02.46-.04.46s-.14.02-.27.03a2.88 2.88 0 0 0-.48.09c-.14.04-.32.12-.4.18s-.2.23-.26.37c-.07.15-.23.68-.37 1.2l-.25 1c-.01.04-.02.1-.04.15s-.07.22-.1.38l-.1.4c-.01.06-.03.14-.05.18a8.89 8.89 0 0 1-.09.31l-.07.3a.42.42 0 0 1-.04.15c-.02.05-.07.22-.1.4-.05.16-.1.35-.1.4-.01.06-.03.14-.05.18a8.89 8.89 0 0 1-.09.31l-.07.3a.42.42 0 0 1-.04.15c-.01.05-.07.22-.1.4-.05.16-.1.35-.1.4-.01.06-.03.14-.04.18-.02.04-.07.22-.12.38l-.1.4a.48.48 0 0 1-.04.18c-.02.04-.1.3-.16.58s-.13.57-.13.64.03.2.08.3c.04.1.1.16.12.14.03-.01.05.01.05.04 0 .04.02.05.04.03s.07-.02.1 0c.03.03.15.06.26.08.1.01.48.01.8-.02.34-.02.8-.08 1.02-.13.23-.04.56-.13.73-.2.18-.06.32-.12.32-.14 0-.01.03-.02.06-.03.04 0 .2-.07.37-.15a2.29 2.29 0 0 0 .46-.3c.1-.08.17-.15.18-.14.02 0 .18-.14.36-.32s.3-.33.28-.33 0-.03.06-.08c.07-.04.12-.1.12-.12 0-.03.06-.12.13-.2.07-.08.13-.16.13-.18-.01-.02.04-.1.1-.16a.62.62 0 0 0 .14-.23c.02-.08.06-.1.1-.08a.87.87 0 0 0 .19.05c.07.01.12.05.12.1 0 .03-.04.16-.08.3s-.06.24-.05.25c.01.02 0 .05-.02.08a1.58 1.58 0 0 0-.13.36l-.1.38a.42.42 0 0 1-.04.15c-.02.04-.14.43-.26.87l-.23.8c0 .01-1.6.01-3.6.01h-3.58l.03 5h45l-.08 28.74-.05.53-.1.97-.1.92-.05.38a18.76 18.76 0 0 1-.12.74l-.13.76s-.07.4-.13.66l-.12.6a1.08 1.08 0 0 1-.05.21l-.14.58s-.12.55-.12.6a.88.88 0 0 1-.05.15 23.81 23.81 0 0 1-.11.41l-.1.4a.42.42 0 0 1-.04.16 12.76 12.76 0 0 0-.21.7l-.2.7c-.01.05-.03.12-.05.17-.02.04-.17.47-.33.96l-.44 1.24c-.07.2-.1.34-.1.34s.01.02-.02.04-.14.27-.25.55-.4.94-.62 1.47l-.44 1.02c-.01.03-.03.07-.05.1s-.2.4-.42.8l-.35.76c.03 0 .02.01-.01.03s-.2.33-.4.68a36.47 36.47 0 0 1-.54.95l-.2.38c-.01.04-.03.08-.04.1-.02.02-.12.16-.22.3s-.17.3-.15.32.01.04-.02.04c-.04 0-.1.07-.15.16-.05.1-.1.18-.08.2.01.03-.01.04-.04.04s-.2.22-.36.5l-.3.52c-.01.02-.04.06-.07.1s-.18.2-.32.42c-.15.2-.25.38-.23.4.02.02.02.03-.01.03-.03-.01-.2.2-.4.47l-.34.5c0 .02-.01.03-.03.03s-.15.14-.28.3-.24.3-.24.32-.1.14-.25.3l-.25.3c.01.02-.06.1-.16.18-.1.08-.15.15-.14.16.02.01-.05.1-.15.18s-.17.17-.15.18c.01 0-.07.1-.18.2-.1.1-.2.2-.2.23 0 .02-.13.16-.3.3-.15.14-.28.27-.27.3 0 .01-.43.45-.95.97l-.98.96c-.02.01-.27.23-.56.5s-.53.5-.54.48c0-.01-.1.08-.2.2-.1.12-.2.2-.23.2s-.16.1-.3.24c-.14.13-.27.24-.28.23l-.28.23c-.14.13-.27.23-.28.23-.01-.01-.1.07-.23.18-.12.1-.22.18-.23.17l-.24.2c-.13.12-.24.2-.26.2-.01 0-.16.1-.34.22-.17.13-.32.25-.32.28 0 .02-.02.04-.04.04-.02-.01-.2.1-.43.26l-.4.32s-.01.03-.03.01c-.03-.01-.1.04-.18.1-.08.06-.15.12-.17.12-.01 0-.35.2-.75.47s-.73.5-.74.5-.05.04-.1.04-.08.03-.08.06c.01.04-.01.05-.02.03-.02-.02-.23.08-.47.23l-1.1.65c-.37.2-.68.4-.7.43-.03.03-.04.03-.04.01s-.16.05-.35.15c-.2.1-.35.2-.35.23-.01.02-.04.03-.07.02-.03-.02-.05-.01-.05.02s-.02.05-.04.04-.1.02-.2.07c-.1.04-.17.1-.17.12s-.01.04-.03.02c-.03-.02-.18.03-.35.12-.17.08-.32.17-.33.2-.02.01-.06.04-.1.04-.05.01-.1.04-.1.07-.01.02-.04.03-.07.02s-.05-.01-.05.01-.03.04-.06.05c-.04 0-.36.14-.73.3l-1.12.5-.5.22c-.01.02-.04.03-.07.04-.03 0-.52.2-1.1.42l-1.17.47-.18.07c-.03 0-.6.2-1.25.42l-1.24.42a.59.59 0 0 0-.18.06l-.18.07s-.04.02-.05.02c0 .01-.08.02-.16.03a1.87 1.87 0 0 0-.28.08 1.52 1.52 0 0 1-.22.08c-.05.01-.18.04-.3.08-.1.03-.22.05-.24.03-.03-.02-.18-.06-.35-.1l-.92-.24a21.38 21.38 0 0 0-.69-.19 2.09 2.09 0 0 1-.13-.04c-.02-.02-.18-.07-.35-.12s-.33-.1-.36-.1a1.12 1.12 0 0 1-.13-.05 3.39 3.39 0 0 1-.29-.11c-.12-.04-.22-.06-.22-.03.01.02-.02.01-.06-.03-.04-.03-.1-.07-.17-.08-.05 0-.12-.03-.15-.05-.03-.01-.18-.08-.34-.13-.17-.06-.3-.1-.3-.07s-.02.01-.04-.02-.17-.1-.34-.16a5.78 5.78 0 0 0-.38-.12c-.05-.01-.1-.03-.1-.05-.01-.02-.07-.04-.12-.05-.06-.01-.12-.03-.13-.05s-.15-.08-.3-.14l-.35-.12c-.05-.01-.1-.03-.1-.04-.01-.02-.38-.2-.8-.37l-.84-.34c-.03 0-.07-.02-.08-.04s-.13-.1-.25-.14c-.13-.06-.25-.1-.27-.1s-.04-.01-.04-.04-.02-.04-.05-.03c-.03.02-.06.01-.07-.01 0-.02-.32-.2-.7-.37s-.76-.38-.85-.44c-.1-.07-.2-.1-.22-.1-.03.01-.05 0-.05-.03s-.02-.04-.05-.02c-.03.01-.05-.01-.05-.04 0-.04-.02-.05-.05-.01-.03.03-.05 1.62-.05 4.48l-.01 4.43.82.34s.02-.01.04.02.35.2.73.36l.76.33c.04.01.1.03.1.04.02.02.23.12.48.22.24.1.44.17.44.15s.02-.01.04.02.35.17.73.32l.74.28c.03 0 .07.02.1.04s.3.12.63.24c.3.1.57.2.57.17s.02-.01.04.02.43.18.9.34l1.3.4.54.15c.06.01.14.03.18.05s.12.04.18.05a1.21 1.21 0 0 1 .18.05c.04.02.24.08.45.13.22.06.4.1.4.08.02-.01.06 0 .1.03.04.03.08.05.1.04.03 0 .13.02.25.05.1.03.22.04.25.02s.1-.04.15-.05c.06-.01.55-.15 1.1-.32l1.97-.64 1-.37c.01-.02.07-.04.13-.05a2.13 2.13 0 0 0 .28-.09 1.34 1.34 0 0 1 .27-.1c.05-.01.17-.06.28-.1a1.34 1.34 0 0 1 .27-.1c.04-.01.2-.07.33-.13s.28-.12.3-.12a15.28 15.28 0 0 0 .33-.13c.16-.06.32-.14.35-.17.04-.03.07-.04.07-.02-.01.02.3-.08.64-.23l1-.42c.18-.08.34-.17.35-.2.02-.03.04-.04.05-.03.02.01.14-.02.27-.07s.24-.1.24-.14.02-.05.04-.04.15-.03.28-.1c.14-.05.24-.12.24-.14.01-.02.03-.02.06-.01.02.01.05 0 .05-.03 0-.02.01-.04.04-.04.02.01.14-.03.28-.08.13-.06.24-.12.24-.14s.02-.03.05-.02c.03.02.08-.01.13-.05.04-.04.07-.06.07-.05 0 .02.17-.06.37-.16l.4-.2c.01-.02.06-.04.1-.05s.08-.04.1-.07c.01-.02.04-.03.06-.02.03.02.05.01.05-.02s.03-.04.06-.03c.02.02.05 0 .05-.04-.01-.03.01-.04.03-.02.03.02.22-.06.43-.17l.4-.25c.02-.01.05-.03.08-.04.03 0 .27-.12.54-.27.26-.14.5-.28.5-.3.01-.03.04-.05.06-.05s.06.01.08.01.1-.05.15-.1c.06-.06.12-.1.14-.1.01 0 .24-.12.5-.27l.6-.37c.06-.05.1-.08.12-.08.02.01.07-.02.12-.06s.1-.08.12-.08.3-.16.6-.35c.32-.2.57-.38.57-.4s.02-.02.05-.01.07-.02.1-.06c.03-.05.05-.08.05-.06 0 .03.15-.05.32-.17.18-.12.33-.23.35-.26.01-.02.03-.04.05-.03.01.01.12-.06.24-.14s.22-.16.22-.18c0-.03.01-.04.04-.03.02.01.3-.16.6-.38s.57-.42.57-.45.02-.04.04-.04c.02.01.2-.1.38-.23.2-.13.35-.26.35-.3s.02-.04.04-.04c.02.01.4-.26.84-.6l.8-.67s.02-.04.05-.03c.03.02.1-.05.2-.14.07-.1.14-.16.15-.15s.4-.32.87-.72.93-.8 1.02-.9c.1-.1.2-.2.2-.2s.32-.28.66-.63.64-.64.66-.64.1-.05.15-.12c.07-.06.12-.13.12-.15s.25-.28.56-.57l.55-.57c-.01-.03.1-.16.26-.3s.27-.28.27-.32c-.01-.03.02-.06.04-.06.03 0 .27-.25.53-.55l.7-.82c.13-.16.22-.3.2-.32-.02-.03 0-.04.03-.04.04 0 .2-.16.35-.36l.26-.36.18-.2s.18-.23.16-.25c-.01-.02.01-.04.03-.04.03 0 .27-.3.53-.65l.45-.65c-.02 0 .04-.07.1-.15.08-.1.14-.18.14-.22 0-.03.03-.07.07-.1.05-.01.07-.05.06-.07-.02-.03-.01-.05.01-.05s.1-.1.2-.22c.08-.12.14-.23.13-.24-.01-.02.01-.04.04-.05.03-.02.26-.35.52-.74l.86-1.36.36-.66c-.01-.01.03-.08.1-.15s.1-.14.1-.16-.01-.04.01-.04c.03 0 .1-.08.14-.17.06-.1.1-.2.1-.22s0-.05.03-.07c.03-.01.17-.24.32-.5l.28-.54c0-.04.02-.07.04-.07s.25-.44.52-.98l.5-1.05c0-.05.03-.1.04-.1.02-.01.16-.28.3-.6.14-.32.24-.6.22-.6-.02-.02-.01-.03.02-.03.04 0 .08-.06.1-.14s.03-.16.03-.18c-.01-.02.01-.03.04-.03s.06-.06.08-.13a2.27 2.27 0 0 0 .02-.17c0-.02.01-.05.04-.06.02-.01.08-.12.13-.23s.1-.24.1-.28.03-.1.05-.1c.01-.02.04-.07.05-.13s.03-.1.05-.13c.02-.01.04-.07.05-.12.01-.06.03-.12.05-.13s.04-.07.05-.13a.32.32 0 0 1 .05-.13c.01-.01.1-.25.22-.53l.2-.6c.01-.04.03-.1.06-.15.02-.04.1-.26.2-.5.08-.24.12-.42.1-.42s0-.04.04-.08c.04-.05.05-.08.03-.08-.03.01-.02-.03.02-.07.04-.05.06-.08.03-.08s-.02-.03.02-.08c.04-.04.06-.08.03-.07-.03 0-.02-.03.02-.08.05-.04.06-.08.03-.08-.03.01-.03-.02 0-.06.04-.03.1-.2.17-.4a5.99 5.99 0 0 0 .13-.44c.01-.05.04-.17.08-.25.03-.08.07-.2.08-.26a.73.73 0 0 1 .06-.22c.03-.07.07-.2.08-.26a.83.83 0 0 1 .05-.2 2.15 2.15 0 0 0 .09-.31c.04-.12.07-.26.08-.3a.47.47 0 0 1 .04-.16c.02-.04.12-.44.23-.9s.2-.82.18-.84c-.01-.01 0-.05.03-.07.02-.03.05-.13.06-.23s.03-.2.05-.23.05-.16.07-.28l.05-.3c0-.04.03-.17.07-.28.03-.1.06-.3.08-.4.01-.12.07-.44.13-.72s.1-.6.13-.7c.01-.1.08-.56.15-1l.2-1.53a22.07 22.07 0 0 0 .11-1.09 19.42 19.42 0 0 0 .05-.67c.02-.16.05-.73.06-1.24.02-.52.03-13.25.03-28.3l-.02-27.35H140.9c-.14.6-.25.93-.32 1.1-.08.17-.26.46-.4.66-.14.2-.43.52-.64.73s-.57.52-.8.7-.66.5-.97.7c-.3.2-.88.56-1.27.77-.4.22-.74.43-.76.46s-.03.03-.03.01c-.01-.02-.1.01-.2.07-.1.05-.2.08-.2.06.01-.03.18-.37.38-.78a15.19 15.19 0 0 0 .52-1.17 10.49 10.49 0 0 0 .23-.83c.04-.2.08-.58.08-.8a3.06 3.06 0 0 0-.07-.67 3.2 3.2 0 0 0-.14-.41 2.85 2.85 0 0 0-.23-.33c-.08-.1-.18-.18-.22-.2s-.26-.03-.47-.02z" class="T"/><path d="M111.07 61.64c0 .13-.02.38-.05.56-.03.17-.1.48-.2.7a4.77 4.77 0 0 1-.41.76l-.27.4.04 18.95c.02.02.07.01.1-.02.03-.04.06-.05.06-.03s.07 0 .16-.05.22-.13.28-.2c.06-.05.1-.12.1-.14s0-.04.03-.04.07-.05.1-.1c.01-.06.03-.13.02-.15s.01-.04.04-.04.07-.1.1-.2l.01-.2s.01-.04.05-.1c.05-.05.06-.1.04-.12s-.01-.06.01-.1.07-.18.1-.33.08-.3.08-.33.02-.1.03-.13c.02-.04.07-.2.12-.38s.1-.35.1-.4c0-.05.03-.13.04-.18a.47.47 0 0 0 .04-.17c.01-.06.01-3 0-6.53v-6.43c-.26.1-.36.14-.4.16-.02.02-.06.03-.1.01-.02-.03-.06-.02-.1.02s-.1.04-.14.01c-.06-.04-.06-.05.01-.07.05-.02.08-.05.07-.08-.02-.03 0-.05.02-.05.03 0 .14-.14.25-.3.1-.18.18-.33.17-.35-.01-.01 0-.04.03-.05.02-.02.1-.1.16-.2.06-.1.1-.2.1-.2s-.03 0-.05.04c-.04.05-.05-.64-.04-2.05V61.4h-.74v.24z" class="a"/><path d="M111.83 61.45c-.02.04-.03 1-.03 2.13v2.06c.26-.47.3-.62.3-.64-.02-.03 0-.04.03-.04.04 0 .05-.02.04-.05-.02-.03-.01-.05.01-.05s.07-.1.12-.22l.08-.24c0-.01.03-.1.06-.18.04-.08.1-.32.14-.52s.07-.5.07-.64c0-.14-.04-.4-.08-.57s-.1-.37-.15-.44c-.04-.08-.18-.26-.32-.4-.17-.18-.25-.24-.27-.2z" class="T"/><path d="M84.37 96.88l.02 35.4.25.58c.02.02.04.07.05.13s.03.1.05.13c.02.01.04.07.05.12.01.06.03.12.05.13.02.02.04.06.05.1.01.05.13.35.28.7l.3.64c.03.01.04.03.03.05-.01.01.07.2.16.42.1.22.2.4.22.4s.03.02.01.04c-.01.02.01.08.05.14.07.1.08-4.73.08-37.12V61.5l-1.66-.03.01 35.4z" fill="#dcdcdc"/><path d="M86 98.74V136l.96 1.8c.02.01.03.03.01.06-.01.03.01.05.04.05s.04.02.03.04c-.02.02.02.14.1.27l.16.25c.02.02.04.06.04.1.01.04.24.45.5.92l.56.95c.04.06.08.1.1.08.02-.01.03-4.24.03-9.4l-.02-9.5c-.02-.07-.04-.23-.06-.35-.02-.13-.04-.26-.06-.28-.02-.03-.04-.15-.05-.26s-.04-.24-.07-.28c-.02-.04-.03-.1-.02-.1s-.01-.2-.05-.4l-.1-.5-.05-.28-.06-.4c-.01-.14-.07-.57-.13-.95l-.13-1c-.01-.17-.04-.38-.07-.48-.03-.1-.05-5.5-.05-14v-13.8l.9-.02c.03-4.98.02-5.3-.05-5.3a1.15 1.15 0 0 0-.21-.02c-.08 0-.18 0-.23.01s-.16.1-.24.2c-.1.1-.17.2-.2.28-.02.1-.05.1-.28.1l-.25-.01c.04-.3.16-.87.3-1.46.14-.58.24-1.08.23-1.1s0-.05.03-.1c.03-.03.05-.08.04-.1a1.67 1.67 0 0 1 .05-.24c.04-.1.05-.22.04-.23-.01-.02 0-.06.03-.1.02-.04.04-.08.04-.1-.01-.02 0-.1.02-.18.03-.13.06-.14.27-.14.12 0 .24.02.25.04s.03.25.03.52c.01.27.04.57.08.7.05.16.06-1.58.07-9.8v-10l-2.5-.03L86 98.74z" fill="#dfdfdf"/><path d="M88.5 71.5l.01 10.1c.01.04.03.1.04.1.02.01.04.06.05.1s.04.08.07.1c.02.01.03.04.02.06-.02.03 0 .05.02.05.03 0 .04.03.03.06-.01.02.01.06.05.07.04.02.08.06.08.1 0 .05.13.2.3.34a3.5 3.5 0 0 0 .49.36c.1.05.33.13.5.17.17.04.4.07.53.07.12.01.25-.01.3-.02.07-.02.08-.33.08-2.4v-2.38c-.78-.78-1.12-1.2-1.25-1.4-.14-.2-.3-.5-.36-.68a7.53 7.53 0 0 1-.15-.46c-.02-.08-.03-.3-.03-.48.01-.2.04-.44.07-.56l.06-.3a.37.37 0 0 1 .04-.14c.02-.03.02-.06 0-.06s-.01-.02.01-.04c.03-.02.13-.2.23-.4.1-.2.2-.37.24-.4.04-.02.07-.07.07-.1.01-.04.18-.22.4-.4l.45-.4c.05-.04.08-.05.08-.03-.01.02.03.01.07-.04.08-.06.1-.6.08-5.53V61.5l-2.55-.03-.01 10.03z" class="b"/><path d="M91.06 66.96l.01 5.48.8-.28a5.57 5.57 0 0 1 .97-.1l.6-.01.03-10.55-2.42-.03.01 5.5z" class="W"/><path d="M93.44 66.78l.08 5.32c.04 0 .13.01.2.01.07.01.35.1.62.17.26.1.5.15.52.14.02-.02.05 0 .06.02.02.03.1.05.16.05h.12V61.47h-1.76v5.3z" class="c"/><path d="M95.2 66.98v5.5c.24 0 .37-.03.45-.07s.2-.13.27-.2c.1-.1.17-.14.34-.13.13 0 .23.02.24.06s0 .1-.02.12a.56.56 0 0 0-.07.22l-.05.23-.04.1c-.02.02-.05.13-.07.24l-.03.23c0 .02-.02.06-.04.1-.03.02-.07.16-.1.3a3.69 3.69 0 0 0-.08.36l-.03.12c-.01.02-.02.05-.03.08 0 .03-.02.1-.04.13a7.29 7.29 0 0 0-.16.53c-.07.25-.1.48-.1.5s-.07.02-.2.01l-.25-.02v6.1c.26-.14.37-.18.4-.2s.18-.02.3-.02h.3a.88.88 0 0 1 .21.09c.07.04.2.15.32.24.1.1.18.17.16.17-.01 0 .02.08.07.17.07.1.1.25.1.47-.01.2-.05.38-.13.53a1.97 1.97 0 0 1-.26.4c-.08.1-.16.16-.17.15-.02-.01-.08.03-.14.1-.07.05-.13.1-.13.08h-.03c-.01 0-.06.01-.1.02-.06.01-.2.02-.33.03-.13 0-.27-.01-.32-.01-.05-.01-.1-.04-.13-.06-.02-.02-.06-.04-.08-.04s-.04 1.1-.05 2.45l-.01 2.44 2.5-.02.02-4.76-.28-.01.2-.94.07-.3c.02-.1.03-4.85.03-10.58L97.7 61.5l-2.5-.03v5.5z" fill="#eaeaea"/><path d="M97.7 71.84l.1 10.2c.04-.1.12-.4.18-.66l.13-.6.04-.23c.01-.04.03-.1.05-.13.01-.03.04-.12.04-.22.02-.16.03-.16.26-.16h.24l.12 1.3s.08.3.1.35c.03.06.05.12.05.13s.07.13.14.26c.07.12.25.33.38.45.14.13.27.23.3.23s.06.04.1.08.05.06.05.04.04 0 .1.04c.08.1.1-.06.1-2.94l.03-3.02-.3-.5c-.02-.02-.03-.03-.01-.03.02-.01-.01-.14-.06-.3-.07-.2-.1-.44-.1-.7 0-.22.05-.56.1-.78a3.04 3.04 0 0 1 .22-.61l.12-.23.02-7.3c-.01 0-.05.02-.08.04-.02.03-.27.13-.55.23l-.74.2-.23.04c.54-.5.82-.83.97-1.06a8.29 8.29 0 0 0 .5-.89l.24-.5c-.01-.01-.03.01-.06.05-.03.05-.05-.46-.05-1.5v-1.6c-1.82 0-2.37-.01-2.4-.03-.05-.02-.06 2.07-.05 10.37z" class="d"/><path d="M100.14 63.08c.01 1.4.02 1.6.1 1.5.04-.06.15-.32.25-.57l.2-.56c.01-.05.05-.16.08-.25.03-.08.07-.18.07-.23.01-.04.03-.1.04-.12.02-.03.06-.15.1-.26s.1-.25.13-.3a.58.58 0 0 0 .07-.28c0-.1-.04-.26-.1-.35l-.1-.17-.86-.02.01 1.6z" class="U"/><path d="M105.06 61.87c-.03.23-.1.57-.18.75l-.26.53c-.07.1-.13.23-.13.26-.01.03-.05.07-.1.1-.07.05-.08.48-.1 4.34l.05 4.3a.64.64 0 0 0 .19.05c.07.01.13.02.14.03.01 0 .03.01.05.02a2.36 2.36 0 0 0 .12.05.88.88 0 0 0 .15.05c.04 0 .1.03.15.06a2.35 2.35 0 0 0 .39.07c.2.01.36 0 .48-.05.1-.04.22-.14.3-.2.1-.1.16-.14.32-.14h.2l-.07-5.68-.4.15-.35.12c0-.01.08-.2.2-.45l.35-.86.26-.8c.06-.2.1-.4.1-.43 0-.05-.02-.02-.04.05-.03.07-.04-.32-.04-.92-.01-.63.01-1 .04-.94.02.05.04.07.05.04 0-.04-.06-.2-.13-.36l-.23-.43-.1-.14h-1.36l-.06.42z" class="e"/><path d="M80.66 89.07v27.56l.36 2.78.23 1.45.34 1.78.42 1.96.44 1.73.26.9c.02.05.04-13.8.04-32.82l.01-32.9h-2.1v27.57z" fill="#d8d8d8"/><path d="M82.74 94.42l.04 33.06c.02.07.05.16.05.2l.13.46.4 1.25.32.9.04.13a.98.98 0 0 0 .08.25l.08.2c0 .01.08.22.16.46l.2.48c.02.03.04.08.05.13.01.04.04.1.07.12.03.04.05-10.94.05-35.26V61.5h-1.63l-.02 32.92z" fill="#dbdbdb"/><path d="M173.73 62.1l1.95.02 2.15.08.4.15a2.72 2.72 0 0 1 .42.25c.14.1.27.28.36.46.1.22.14.4.16.7.01.23-.01.54-.05.7-.03.15-.13.4-.22.53s-.22.3-.3.36-.23.16-.35.22c-.13.06-.45.15-1.18.3l1 1.52.97 1.56c-.02.03-.24.05-1 .05l-.24-.4-.7-1.14-1.03-1.63-1.46.01-.02 3.13-.9.02.01-6.88zm.9 3h2.68c.54-.27.65-.37.76-.54.1-.18.14-.3.14-.56.01-.18-.02-.4-.05-.5a1.09 1.09 0 0 0-.22-.34c-.1-.1-.26-.2-.37-.24-.12-.05-.44-.1-.72-.13a16.53 16.53 0 0 0-1.36-.05h-.86v2.4z" class="Y Z"/><path d="M106.84 63.28c0 1 .01 1.03.08.8.05-.14.08-.44.08-.84 0-.44-.02-.66-.08-.8-.07-.2-.08-.16-.08.84z" class="f"/><path d="M103.98 64c-.18.2-.56.55-.84.77l-.54.46c-.01.02-.04.04-.06.04s-.18.08-.35.2l-.3.2-.03 6.62.67-.17c.1-.02.46-.03.8-.03l.77.04.2.03v-8.5l-.33.36z" class="X"/><path d="M110.05 64.1c-.04.04-.07.1-.06.12 0 .03-.18.2-.4.4-.22.2-.56.47-.75.6l-.34.25-.05 23.04 1.7-.01.02-5.02c-.24 0-.25-.02-.26-.22-.01-.13-.01-.22.01-.2.01.01.08 0 .15-.02l.13-.03-.13-18.9z" fill="#fafafa"/><path d="M108.18 65.65c-.13.1-.4.26-.6.36-.2.1-.38.2-.4.24s-.04.04-.04.02-.07 0-.15.04l-.15.08v6.03l-.02 4.46-.01 4.4.52.08c.04 0 .07.03.07.06s.01.03.02.01c.02-.02.13.08.26.22.14.15.25.34.28.47a1.64 1.64 0 0 1 .04.44c-.01.13-.03.25-.05.26s-.04.07-.05.13a.32.32 0 0 1-.09.16c-.05.03-.06.06-.04.06s-.07.1-.2.2c-.13.1-.35.24-.5.3l-.25.1v4.76l1.65-.01-.06-23.04-.25.17z" class="f"/><path d="M101.7 65.73l-.46.26c-.17.08-.3.17-.32.2-.01.02-.03.03-.05.02s-.2.06-.37.15l-.33.16-.03 7.17.2-.3c0-.02.15-.18.33-.36s.35-.33.38-.33.07-.04.1-.08c.02-.05.05-.08.06-.07.02 0 .14-.05.3-.1.14-.07.28-.15.3-.2.05-.05.06-.77.05-3.34l-.01-3.3-.15.1z" class="U"/><path d="M92.24 72.1c-.18.03-.48.1-.66.15s-.46.18-.6.27c-.15.08-.47.34-.7.57-.33.32-.46.5-.62.84-.12.24-.25.6-.3.8-.07.28-.08.5-.06.82.02.3.07.53.17.8l.37.7c.13.2.7.8 1.36 1.45l1.3 1.37c.1.14.23.38.3.54.08.2.12.37.12.58 0 .17-.03.42-.08.56-.04.14-.12.36-.2.48-.06.13-.24.37-.4.53a2.65 2.65 0 0 1-.54.42c-.14.07-.43.15-.64.18-.3.05-.46.05-.74 0-.2-.03-.48-.12-.64-.2-.16-.08-.4-.26-.6-.44-.17-.18-.37-.43-.44-.57s-.16-.36-.2-.5c-.04-.12-.08-.5-.1-.8l-.03-.6c-.37-.02-.48-.01-.48 0 0 .02-.2.83-.4 1.8l-.4 1.83c0 .03.1.06.24.06.22 0 .25-.02.3-.14.03-.08.13-.2.2-.28.08-.07.2-.15.3-.17.1-.02.33.03.84.2.38.13.88.27 1.12.32.32.06.6.07 1.07.05.4-.02.8-.07 1.04-.13.2-.06.53-.18.7-.27s.43-.24.57-.35c.14-.1.4-.34.57-.52.16-.2.4-.5.5-.66.1-.18.24-.43.3-.57.06-.14.13-.45.16-.7.05-.33.06-.53.01-.87a4.27 4.27 0 0 0-.17-.74c-.06-.16-.25-.5-.4-.73a6.3 6.3 0 0 0-.64-.79c-.2-.2-.72-.7-1.18-1.08-.5-.43-.9-.83-.98-.97-.08-.13-.18-.37-.2-.52a2.32 2.32 0 0 1-.02-.59c.02-.17.1-.44.18-.62a2.22 2.22 0 0 1 .4-.55 1.42 1.42 0 0 1 .52-.34c.23-.08.37-.1.8-.08.44.02.55.04.8.17.16.08.38.23.47.34.1.1.24.32.32.48s.18.4.2.52c.04.13.08.45.1.72l.03.48c.43.05.43.05.5-.15l.43-1.6.38-1.46c0-.04-.08-.06-.22-.06-.17-.01-.24.02-.34.13-.07.07-.2.16-.27.2s-.25.07-.4.07c-.15 0-.5-.07-.8-.17-.3-.1-.75-.2-1-.23l-.66-.05-.54.05zm10.44 0a5.86 5.86 0 0 0-.54.1c-.12.03-.4.14-.58.23a3.52 3.52 0 0 0-.61.37 3.63 3.63 0 0 0-.48.48c-.13.15-.32.45-.42.68-.1.22-.24.57-.3.78a3.12 3.12 0 0 0-.05.82c.01.28.06.54.14.74.06.17.25.5.4.74.18.26.5.64.87 1l1.1 1.07c.28.28.6.64.7.8a3.73 3.73 0 0 1 .29.55c.06.13.1.37.1.53a2.89 2.89 0 0 1-.08.58c-.05.15-.15.38-.22.5-.07.12-.24.34-.36.47a2.24 2.24 0 0 1-.53.4c-.16.08-.45.17-.64.2-.25.04-.44.04-.72 0-.23-.03-.52-.12-.7-.2-.2-.1-.42-.27-.62-.48-.16-.18-.36-.45-.44-.6-.07-.15-.15-.4-.18-.53-.04-.14-.07-.5-.1-.78l-.03-.52c-.42 0-.46.02-.48.1-.02.07-.2.9-.42 1.86l-.4 1.74c.47.01.5-.01.6-.18.07-.1.16-.23.22-.28s.18-.1.27-.12c.1-.02.3.03.6.13l.88.3c.4.12.53.13 1.28.13.66.01.9-.01 1.2-.1.2-.05.53-.17.74-.27.2-.1.48-.24.6-.33l.4-.34c.1-.1.3-.3.42-.46a4.98 4.98 0 0 0 .4-.64 3.94 3.94 0 0 0 .27-.69c.05-.2.08-.52.08-.84 0-.33-.03-.6-.1-.8a3.11 3.11 0 0 0-.22-.56c-.07-.14-.2-.38-.3-.53-.1-.16-.32-.43-.5-.6s-.7-.67-1.17-1.1l-1-.94a2.41 2.41 0 0 1-.23-.36c-.05-.1-.1-.34-.1-.53a1.5 1.5 0 0 1 .08-.72 2.32 2.32 0 0 1 .29-.59 1.77 1.77 0 0 1 .42-.4c.13-.08.32-.18.42-.2.1-.03.37-.05.6-.05.25 0 .5.03.66.08a2.47 2.47 0 0 1 .46.23c.12.08.3.3.42.46.12.18.26.47.3.65.06.18.12.55.14.82l.04.48c.43.03.43.02.5-.2l.43-1.6.38-1.44c0-.03-.1-.05-.23-.05-.2 0-.25.02-.33.12a.89.89 0 0 1-.26.21c-.08.04-.27.07-.4.07-.15 0-.48-.07-.8-.17a7.54 7.54 0 0 0-1.01-.23l-.66-.05-.5.05zm51.12 0l-.6.16c-.2.05-.6.2-.87.35s-.72.4-.97.6a10.9 10.9 0 0 0-.92.81c-.25.25-.64.7-.86 1s-.52.74-.67 1a10.41 10.41 0 0 0-.41.77l-.26.66c-.07.2-.17.55-.22.8-.06.23-.13.72-.16 1.07-.04.48-.04.75 0 1.12a6.45 6.45 0 0 0 .19.86 5.07 5.07 0 0 0 .31.71c.1.18.3.45.45.6a4.5 4.5 0 0 0 .61.52 3.95 3.95 0 0 0 .76.4 4.31 4.31 0 0 0 .84.23c.24.04.6.08.8.08s.6-.04.87-.08.7-.15.96-.23a8.34 8.34 0 0 0 .75-.3l.57-.33c.15-.1.44-.3.65-.48a8.8 8.8 0 0 0 .72-.65l.6-.7c.16-.2.43-.57.6-.84.17-.26.43-.7.56-1a9.78 9.78 0 0 0 .4-.99c.1-.27.18-.64.2-.82a7.48 7.48 0 0 0 .1-.84c.03-.28.03-.72 0-1-.02-.27-.1-.64-.15-.84a5.24 5.24 0 0 0-.28-.69 4.31 4.31 0 0 0-.39-.59c-.12-.15-.35-.38-.5-.5-.15-.13-.5-.34-.74-.46-.25-.13-.6-.27-.77-.3-.2-.06-.57-.1-1.12-.1-.45-.01-.93 0-1.07.03zm-25.44.2c-.05.05-1.76 2.3-3.82 4.97l-3.97 5.17c-.13.15-.34.35-.47.44a2.23 2.23 0 0 1-.48.26.93.93 0 0 0-.3.14.47.47 0 0 0-.03.19v.14h3.26v-.38c-.43-.06-.64-.1-.74-.15-.12-.05-.2-.12-.2-.22-.02-.08-.01-.24.02-.35.04-.12.12-.32.2-.44.07-.12.4-.6.74-1.07l.6-.85h3.57l-.13 2.5a1.01 1.01 0 0 1-.24.31c-.08.05-.27.13-.43.17s-.37.08-.46.08-.17.01-.18.03a.91.91 0 0 0-.05.21l-.04.16h5.06l.02-.32c0-.03-.12-.07-.3-.1-.16-.02-.38-.08-.48-.13a.47.47 0 0 1-.24-.26c-.04-.1-.1-.5-.12-.9l-.15-5.2-.1-4.5c-.36 0-.46.03-.5.1zm-16.17.23v.2c.66.1.9.17.96.2a.55.55 0 0 1 .17.2c.02.07.05.2.05.32 0 .1-.06.42-.13.7l-1.12 4.26-1.12 4c-.06.13-.18.3-.27.36-.08.06-.24.15-.35.2l-.34.1c-.13.03-.14.06-.14.24v.2h9.03l.5-1.77.4-1.46a1.63 1.63 0 0 0-.21-.05c-.17-.03-.18-.02-.46.42a6.09 6.09 0 0 1-.71.88c-.24.24-.56.52-.7.62-.16.1-.46.25-.67.34s-.55.2-.76.26l-.77.15c-.2.03-.63.06-.94.06-.34.01-.64-.01-.76-.05-.13-.04-.2-.1-.27-.23-.06-.1-.07-.23-.05-.4.01-.13.52-2.1 1.13-4.4l1.23-4.45c.07-.14.18-.3.26-.37s.24-.13.37-.17.36-.08.52-.1l.3-.03v-.46h-5.16v.22zm21.28 1.2l-.6 1.5c-.02.07.02.1.2.1.2.03.23.02.4-.2.1-.12.4-.45.68-.73a8.85 8.85 0 0 1 .82-.71c.17-.1.48-.27.7-.37.2-.1.57-.2.8-.27.34-.1.6-.1 1.45-.13l1.03.01c0 .01-1.8 2.26-4 5l-4.05 5.1c-.04.06-.06.2-.06.3v.18l8.42-.02 1.26-3.2-.36-.07c-.06-.01-.16.1-.3.28-.1.17-.38.5-.6.73s-.58.55-.8.7c-.2.15-.5.33-.68.42l-.66.28a7.35 7.35 0 0 1-.84.21c-.27.05-.92.1-1.46.12-.53.01-1 .01-1.06-.01-.07-.02.33-.55 2.17-2.84L140 75l1.8-2.48v-.23h-7.75l-.57 1.4zm9.7-1.18c0 .22.01.23.16.23.08 0 .3.03.5.08.26.05.37.1.43.2.04.06.1.2.1.3.02.13-.01.37-.08.64-.05.24-.56 2.13-1.12 4.2l-1.1 4a3.29 3.29 0 0 1-.21.42c-.07.1-.2.23-.32.28-.1.06-.27.12-.37.13l-.26.06c-.07.02-.1.08-.1.23v.2h4.95c0-.33-.03-.4-.07-.4-.03 0-.25-.03-.47-.07-.3-.06-.44-.1-.52-.2a.68.68 0 0 1-.15-.32c-.01-.12.01-.37.06-.6l1.12-4.2 1.1-3.97c.02-.08.1-.24.15-.35.05-.12.17-.27.26-.35s.28-.17.43-.22c.14-.04.3-.07.35-.07.07 0 .1-.05.1-.23v-.23h-4.95v.23z" class="V"/><path d="M106.74 72.76l-.34 1.2-.32 1.2c-.06.2-.07.22-.26.22-.12 0-.22-.03-.23-.07-.02-.03-.04-.22-.05-.42-.01-.2-.04-.45-.06-.56-.01-.1-.04-.22-.06-.25s-.04-.1-.05-.13c0-.04-.05-.16-.1-.27-.05-.1-.1-.2-.13-.2s-.04-.03-.04-.07c0-.05-.02-.08-.05-.08s-.05-.03-.05-.06c0-.04-.05-.12-.1-.18-.07-.06-.14-.1-.16-.12-.02 0-.1-.04-.15-.1a.75.75 0 0 0-.2-.12c-.1-.03-.1.1-.1 2.4l.1 2.48c.05.03.1.08.1.1s.07.14.17.25c.1.12.27.43.4.7.14.26.23.47.22.47s0 .1.04.22a3.97 3.97 0 0 1 .06.73c-.01.28-.05.64-.1.8-.04.17-.16.47-.26.66a5.76 5.76 0 0 1-.35.59l-.34.4c-.1.1-.14.15-.1.14.05-.03.06.57.05 2.9l-.01 2.93h2.58l-.07-4.76c-.03-.01-.15-.03-.26-.04-.12-.01-.28-.05-.36-.1-.1-.03-.23-.15-.32-.27a1.59 1.59 0 0 1-.17-.27c0-.04-.02-.07-.05-.07s-.04-.15-.04-.4c.01-.25.05-.45.1-.55.05-.08.12-.23.17-.32.04-.1.1-.16.13-.16s.14-.06.24-.13c.1-.07.28-.14.38-.15.1-.02.2-.06.22-.1.02-.04.02-2 .01-4.38l-.08-4.1z" class="e"/><path d="M154.03 72.7c-.15.05-.3.12-.3.15-.01.03-.04.04-.07.03-.02-.02-.05-.01-.05.02s-.02.04-.05.03c-.03-.02-.07.01-.1.05-.02.05-.06.08-.1.08-.03-.01-.2.12-.37.27-.17.16-.32.3-.32.35 0 .03-.04.1-.1.13-.05.03-.1.07-.1.1.01.01-.04.1-.1.17s-.24.34-.37.57-.25.46-.25.5c-.01.04-.04.1-.06.1-.02.02-.04.06-.05.1-.01.04-.06.16-.12.28-.06.1-.17.37-.25.58l-.16.46c0 .04-.01.1-.02.1s-.01.04 0 .06c0 .03-.01.04-.04.04-.02 0-.1.18-.16.4l-.12.44c-.01.03-.03.08-.04.1-.02.03-.1.33-.2.67-.1.33-.2.8-.23 1.07l-.08.53-.03.66a5.19 5.19 0 0 0 .02.84l.08.38a2.11 2.11 0 0 0 .15.4 1.8 1.8 0 0 0 .35.47c.12.1.23.2.25.2.03 0 .06.01.08.02l.18.08c.08.03.26.06.4.06.14.01.38 0 .52-.02l.3-.08a.64.64 0 0 1 .15-.05.19.19 0 0 0 .14-.07c.02-.04.04-.05.04-.03s.07 0 .15-.05c.1-.05.16-.1.15-.12 0-.03.03-.03.06-.02.02.02.08-.02.12-.1.05-.06.08-.1.08-.06s.1-.05.23-.18c.12-.12.22-.24.22-.25-.01-.02.05-.1.13-.18s.25-.34.38-.56.23-.42.23-.44c-.01-.03.01-.04.03-.04.03 0 .07-.06.1-.12s.03-.13.03-.15c-.01-.02.01-.04.04-.04s.04-.02.02-.05c-.01-.03-.01-.06.02-.06.02-.01.1-.18.2-.37l.3-.75.18-.5a.75.75 0 0 1 .05-.16c.02-.05.04-.1.05-.16.01-.04.03-.1.04-.12.02-.03.1-.3.2-.6.1-.3.15-.57.14-.6-.02-.03-.01-.06.01-.07s.06-.13.08-.27c.03-.13.05-.3.06-.35 0-.05.02-.12.04-.15.01-.03.06-.3.1-.64l.1-1-.03-.7c-.02-.15-.06-.3-.07-.3-.02-.02-.05-.07-.06-.13a1.42 1.42 0 0 0-.15-.35 1.57 1.57 0 0 0-.34-.42 1.46 1.46 0 0 0-.43-.25c-.13-.04-.4-.07-.64-.07-.26 0-.5.03-.7.1z" class="T"/><path d="M92.63 72.7a.35.35 0 0 1-.08.05c-.03 0-.06.01-.06.01-.01.01-.06.02-.1.03s-.1.04-.14.08c-.02.04-.05.04-.05.02 0-.03-.03-.02-.06.02a1.01 1.01 0 0 1-.16.13c-.05.03-.12.1-.15.15-.03.06-.08.12-.1.14-.03.01-.1.16-.2.33-.08.16-.15.43-.17.6a2.4 2.4 0 0 0 .02.6c.03.16.1.33.14.37.04.04.06.1.05.1-.02.01.1.18.3.36l.34.33c.02 0 .2.17.44.37.22.2.42.37.43.36.02-.01.07.04.13.12.05.07.14.15.2.17.08.04.1-.08.1-2.17v-2.2l-.84.04z" class="W"/><path d="M93.5 74.92l.06 2.28c.02 0 .1.05.16.1.07.05.12.12.12.15s.1.16.23.3c.12.13.23.27.23.3 0 .03.04.08.1.1.04.03.07.05.05.05-.03.01 0 .07.06.15a3.8 3.8 0 0 1 .24.44l.15.36c0 .03.04.22.07.43a3.7 3.7 0 0 1 .03.74 3.11 3.11 0 0 1-.08.55c-.03.1-.04.2-.03.2.02 0-.06.17-.17.4l-.3.55c-.05.08-.13.2-.2.24s-.1.1-.08.1c.02 0-.1.14-.28.3s-.32.3-.34.3-.04 1.26-.04 2.8v2.8l1.7-.02.03-4.84c-.38-.4-.5-.56-.5-.6-.01-.06-.03-.12-.05-.14s-.01-.2.01-.4l.05-.43c0-.04.03-.06.06-.06s.03-.02.01-.04.07-.14.2-.27l.24-.23-.14-7.18a4.46 4.46 0 0 0-.27-.71c-.1-.2-.28-.42-.38-.52-.1-.1-.23-.17-.27-.17s-.08-.02-.08-.05-.02-.05-.04-.04-.08-.01-.14-.04c-.05-.03-.17-.08-.26-.1l-.16-.03.01 2.28z" class="c"/><path d="M103.04 72.7c-.01.03-.06.05-.1.03-.04-.01-.07.01-.07.04 0 .04-.02.05-.04.03s-.1 0-.18.04-.22.14-.32.22c-.1.1-.18.2-.18.23 0 .05-.02.08-.05.08s-.08.08-.13.18c-.05.13-.07.37-.07.9v.82c.02.05.05.1.08.1s.05.02.05.05c0 .02.13.18.3.35l.34.3c.02 0 .12.1.23.2.1.12.2.2.2.2.01 0 .27.23.6.53l.57.54-.03-4.8c-.03-.02-.3-.06-.6-.07-.37-.01-.56.01-.6.04z" class="X"/><path d="M101.8 74.03c-.04.14-.05.35-.03.55l.04.4c.01.03.03.06.05.06s.04-.27.04-.6l-.02-.6c-.01 0-.05.1-.08.2z" class="U"/><path d="M126.52 75.58c-.03.04-.04.07-.01.07.02 0-.01.03-.07.08-.06.04-.1.1-.1.12.02.03.01.05-.01.05s-.2.24-.43.53l-.4.57c-.01.03-.06.08-.1.1-.05.04-.08.1-.07.12.02.03.01.05-.01.05s-.22.24-.43.53l-.4.58c0 .02-.05.06-.1.1-.05.03-.08.1-.07.1.02.03 0 .05-.02.05-.03 0-.16.16-.3.35l-.28.4c-.03.06.25.07 1.5.07h1.54l-.12-3.94c-.03-.02-.08 0-.12.05z" class="T"/><path d="M100.17 80l.06 3.02c.03 0 .12.03.2.07.1.04.35.07.6.07s.5-.01.56-.03l.22-.03c.08-.01.1-.15.1-2.17v-2.16l-.77-.7c-.02 0-.07-.04-.12-.1-.04-.05-.08-.1-.08-.13s-.1-.14-.22-.27l-.34-.4c-.07-.1-.12-.17-.1-.2.01-.01 0-.03-.04-.03s-.05.74-.04 3.02z" class="U"/><path d="M91.07 80.77l.05 2.36a1.85 1.85 0 0 0 .28-.05c.13-.02.23-.07.23-.1s.03-.04.05-.02c.03.01.05 0 .05-.03s.03-.04.06-.02c.02.01.22-.15.43-.36s.38-.4.38-.43c0-.03.01-.07.01-.1.01-.02.04-.07.08-.1.03-.04.1-.2.15-.36a2.99 2.99 0 0 0 .08-.6c0-.23-.04-.38-.15-.62-.08-.18-.16-.32-.18-.32s-.04-.04-.04-.08-.02-.07-.05-.07-.05-.04-.05-.08-.27-.35-.6-.67l-.65-.6c-.03 0-.06-.02-.06-.06 0-.03-.02-.06-.04-.06s-.04 1.07-.04 2.37z" class="W"/><path d="M101.9 80.88v2.15c.02 0 .1-.03.2-.08.1-.05.2-.1.2-.14s.04-.04.04-.02.1-.07.24-.2c.14-.14.3-.34.4-.45.07-.1.14-.24.15-.28s.05-.14.08-.23c.04-.08.08-.3.1-.48.02-.2.01-.42-.04-.58-.04-.13-.1-.24-.1-.24s-.03-.02-.01-.05c.01-.02 0-.05-.03-.05s-.04-.01-.02-.04c.01-.02-.03-.1-.08-.15-.06-.06-.08-.12-.06-.14.02-.01-.01-.03-.05-.05-.05-.01-.1-.06-.1-.1s-.05-.1-.1-.14c-.05-.04-.1-.08-.07-.1.01-.01-.15-.2-.36-.4l-.38-.38v2.15z" class="X"/><path d="M95.43 81.4c-.1.05-.28.16-.37.24-.1.08-.23.26-.3.4a1.31 1.31 0 0 0-.12.56c0 .2.04.38.1.5a1.39 1.39 0 0 0 .24.34c.08.08.23.17.34.22.1.04.3.07.46.07s.36-.04.47-.1a1.78 1.78 0 0 0 .38-.25 1.42 1.42 0 0 0 .31-.4c.1-.18.12-.33.12-.55s-.03-.37-.1-.5c-.06-.1-.17-.27-.25-.34-.08-.08-.23-.18-.34-.22-.1-.04-.3-.08-.45-.08-.15 0-.36.05-.48.1zm11.02-.04c-.08.02-.24.1-.34.18-.1.08-.25.22-.3.32-.07.1-.15.26-.18.36s-.06.27-.06.38.03.3.07.4c.03.1.13.28.2.38.1.1.25.22.36.27a1.37 1.37 0 0 0 .48.09c.2 0 .37-.03.54-.1a1.66 1.66 0 0 0 .45-.35 1.92 1.92 0 0 0 .27-.45 1.63 1.63 0 0 0 .07-.38 1.55 1.55 0 0 0-.05-.35c-.03-.1-.14-.28-.24-.4-.1-.12-.3-.25-.4-.3-.1-.06-.3-.1-.46-.1-.14 0-.32.02-.4.05z" class="V"/><path d="M104.16 82.77c-.06.06-.13.1-.15.1-.03 0-.13.07-.22.15-.1.1-.2.17-.27.18s-.1.05-.1.08-.02.04-.05.02c-.03-.01-.05 0-.05.03s-.02.05-.04.04c-.02 0-.1.01-.18.03-.08.01-.14.05-.14.07s-.03.04-.06.04c-.04 0-.23.04-.43.1l-.45.1c-.1.01-.1.06-.13 2.42l-.03 2.4 2.4-.06c.01-.04.02-1.36.01-2.94l-.01-2.88-.1.12z" class="X"/><path d="M93.33 83.07c-.05.06-.14.1-.2.13-.07.02-.12.07-.12.1 0 .04-.01.05-.04.03-.02-.02-.12 0-.2.05-.1.06-.32.14-.5.2l-.38.1c-.04 0-.23.03-.4.05l-.38.04c-.04-.01-.05.8-.05 2.38v2.4h2.42l-.03-5.55c-.01 0-.06.04-.1.1z" class="W"/><path d="M98.43 83.17c-.06.01-.1.04-.1.07 0 .02-.04.05-.08.05s-.08.02-.08.05-.04.1-.1.16c-.05.07-.1.14-.07.16.01.02 0 .03-.03.03s-.04.02-.03.04-.04.04-.1.03l-.13-.01-.02 4.78h2.47l-.06-4.94c-.04 0-.2-.04-.4-.1l-.38-.12c-.03-.01-.14-.05-.25-.1-.12-.05-.28-.1-.36-.1-.1-.01-.2-.01-.27.01z" class="d"/><path d="M88.5 85.88v2.65l2.56-.02v-4.74l-1.08-.1c-.08-.01-.43-.12-.77-.23l-.65-.2c-.02 0-.03 1.2-.04 2.64z" class="b"/><path d="M110.14 86l-.01 2.52h1.68l-.05-5-1.6-.03-.02 2.52z" class="a"/><path d="M100.16 86.08l-.01 2.45 1.7-.02.03-4.8c-.24.04-.55.04-.83.02l-.7-.07-.18-.04-.01 2.45z" class="U"/><path d="M99.7 88.52l-12.1.01.1 28.1.2 1.58.28 1.7.28 1.47.13.64.3 1.27s.42 1.6.58 2.14l.6 1.9.64 1.73.6 1.5a51.74 51.74 0 0 0 .95 2.01l1 1.94.8 1.37 1.14 1.78 1.3 1.84a67.39 67.39 0 0 0 1.36 1.7l1.4 1.6 1.6 1.63 1.55 1.45 1.23 1.05a50.6 50.6 0 0 0 1.66 1.29 41.71 41.71 0 0 0 2.24 1.58l1.97 1.26a60.47 60.47 0 0 0 1.48.85 48.69 48.69 0 0 0 1.73.91l1.96.94 1.9.8s1.4.54 1.93.73 1.4.47 1.9.62l1.57.44.66.17 2.73-.9 2.22-.8a59.04 59.04 0 0 0 1.99-.81 61.83 61.83 0 0 0 2.5-1.17l2.14-1.1 1.5-.87a87.76 87.76 0 0 0 1.78-1.13l1.68-1.17 1.64-1.25 1.58-1.33a53.11 53.11 0 0 0 1.94-1.85l1.96-2.1s1-1.2 1.3-1.58.8-1.05 1.13-1.5a47.16 47.16 0 0 0 1.04-1.53l.87-1.4.8-1.4s.6-1.13.84-1.63.6-1.27.8-1.7a61.43 61.43 0 0 0 .67-1.63l.66-1.8a52.48 52.48 0 0 0 .61-1.91l.46-1.68.38-1.68s.25-1.3.33-1.7l.23-1.55.2-1.65c.08-.8.1-2.14.1-15.06l.02-14.2-57.08.04z" class="V"/><path d="M111.17 120.16l.04 30.05c.02.04.27.2.55.36l1.4.74s.88.43.88.4.02-.01.04.02.4.23.85.43 1.28.55 1.84.77a48.57 48.57 0 0 0 1.79.68l1.4.48.78.22c.07 0 .14.03.14.05s.03.03.07.01c.05-.01.08-.01.08.01 0 .03.03.05.06.05l.43.12c.2.05.37.1.4.07.02-.01.04 0 .05.02.01.03.18.08.37.13.2.04.4.06.44.03.04-.02.46-.15.94-.28s.92-.26 1-.3a1.7 1.7 0 0 1 .21-.07.88.88 0 0 0 .15-.05.88.88 0 0 1 .15-.05 10.18 10.18 0 0 0 .53-.16c.24-.08.45-.16.44-.18 0-.02.02-.03.04-.02.02 0 .15-.03.28-.07.14-.04.25-.08.25-.1 0-.01.03-.03.08-.03.05-.01.2-.05.3-.1s.2-.1.23-.1c.01-.01.17-.06.35-.13.2-.07.35-.15.36-.17.02-.03.04-.04.07-.04.02 0 .1-.01.16-.02.07-.02.13-.05.13-.08s.02-.05.04-.04c.02 0 .1-.01.18-.03.07-.02.13-.06.13-.1 0-.03.02-.04.04-.02s.1.01.14-.03l.13-.06c.02 0 .16-.06.32-.13s.3-.15.3-.18c0-.02.01-.03.03-.01.01.02.18-.03.37-.12.2-.08.36-.18.38-.2.02-.04.04-.05.04-.02 0 .02.33-.13.73-.33s.74-.4.76-.42.04-.04.04-.02.18-.06.4-.18.4-.22.4-.24c0-.01.03-.03.06-.03.04 0 .3-.14.6-.3l.7-.4.17-.1V90.16h-23.22v30z" class="T"/><path d="M134.4 120.02l.1 29.83c.05-.02.4-.22.78-.45l1.68-1.08 1.63-1.14.97-.73.77-.62 1.04-.9c.34-.3 1.18-1.1 1.87-1.78s1.5-1.54 1.8-1.9a63.73 63.73 0 0 0 1.14-1.37 36.61 36.61 0 0 0 1.05-1.38 40.94 40.94 0 0 0 .98-1.4l.86-1.35.7-1.17.7-1.27s.56-1.13.8-1.68a45.19 45.19 0 0 0 .82-1.88l.67-1.76.53-1.63.46-1.63a40.85 40.85 0 0 0 .41-1.68l.3-1.5.26-1.6a46.53 46.53 0 0 0 .21-1.71c.08-.72.1-1.97.1-14.44l.02-13.66H134.4v29.86zm-45.05-16.8l.1 13.86c.05.46.16 1.22.23 1.68l.23 1.43a62.29 62.29 0 0 0 .29 1.42c.1.46.3 1.3.42 1.83.14.55.4 1.5.58 2.1s.48 1.5.66 2a36.13 36.13 0 0 0 .55 1.45c.1.3.34.84.5 1.2.16.36.5 1.12.78 1.68s.66 1.33.87 1.7l.83 1.45a66.31 66.31 0 0 0 1.03 1.63l1.1 1.57c.3.4.75 1 1 1.33a58.97 58.97 0 0 0 1.16 1.37 44.57 44.57 0 0 0 1.63 1.75 42.34 42.34 0 0 0 1.74 1.68c.42.38 1.03.92 1.35 1.18.32.27.94.77 1.38 1.1.43.34 1.1.83 1.47 1.1.38.27 1.03.7 1.43.97l1.6 1 .9.5c.02 0 .02-13.5.02-30l-.02-30H89.34v13.02z" class="Z"/><path d="M88.5 131.26l.07 9.5c.05.1.12.17.14.17.03 0 .05.02.04.04 0 .02.16.3.37.64s.4.6.42.6.03.02.02.05c-.02.03.01.07.06.1s.07.05.05.05.05.13.16.3l.28.38c.05.05.08.1.08.14s.04.07.1.1c.05.02.08.05.05.05-.02 0 .04.1.13.23s.18.23.2.23c.02 0 .02.02.01.04s.05.1.13.2.15.2.15.22c0 .02.02.05.05.05s.06-2.43.06-7.17l-.03-7.3c-.03-.07-.08-.15-.1-.17-.02-.02-.03-.03-.01-.03s0-.1-.06-.25l-.18-.44a2.46 2.46 0 0 1-.11-.29c-.01-.05-.05-.15-.08-.2a1.04 1.04 0 0 1-.08-.2c0-.05-.05-.18-.1-.28l-.1-.24-.28-.87-.3-.86c-.01-.03-.03-.1-.04-.16 0-.05-.04-.17-.07-.25a1.61 1.61 0 0 1-.08-.23c0-.04-.1-.42-.22-.84l-.5-1.9c-.02-.04-.03-.1-.02-.1 0-.03-.03-.15-.07-.28-.04-.14-.07-.26-.06-.28.01-.03 0-.04-.02-.04-.03 0-.05 4.06-.06 9.33z" class="b"/><path d="M91.06 137.2l-.01 7.15c.2.34.3.44.33.44s.04.01.03.03c-.02.02.06.13.16.25.1.1.18.2.18.22-.01.02.07.13.18.25a2.95 2.95 0 0 1 .18.22c-.01.01.08.13.2.26l.2.25c-.01.01.1.14.22.28.14.15.24.28.23.28-.01.01.05.08.13.15s.16.17.2.22.08.1.12.1c.05.02.06-1.25.07-6.2l.01-6.23-.45-.75c-.03-.02-.04-.03-.02-.03.02-.01-.04-.16-.15-.35-.1-.2-.2-.35-.23-.36-.02 0-.03-.03-.01-.06.01-.03 0-.05-.03-.05s-.04-.02-.02-.05c.01-.03 0-.05-.03-.05s-.04-.02-.02-.05c.01-.03 0-.05-.03-.05s-.04-.03-.03-.05c.02-.03 0-.08-.03-.12-.04-.04-.08-.1-.08-.14-.01-.04-.05-.1-.08-.1s-.04-.04-.02-.04-.07-.23-.2-.5-.26-.5-.3-.52c-.02-.01-.04-.04-.03-.05.01-.02-.03-.13-.08-.26-.06-.12-.12-.24-.15-.25-.02-.01-.04-.04-.03-.06 0-.02-.01-.1-.03-.17-.01-.07-.05-.13-.08-.13s-.05-.01-.03-.02c.02-.02 0-.1-.05-.22-.04-.1-.1-.23-.15-.3-.06-.1-.07.93-.08 7.05z" class="W"/><path d="M93.46 141.18l.07 6.27c.05.03.08.07.07.08-.01.02.16.22.38.46l.4.46c0 .01.1.13.24.26.13.13.27.28.3.33.03.04.1.12.17.17l.12.08.05-11.54c.02-.01-.02-.1-.1-.18-.08-.1-.14-.17-.12-.17.01 0-.07-.14-.2-.3-.12-.18-.23-.33-.26-.34-.02 0-.04-.04-.04-.08 0-.05-.02-.08-.05-.08s-.05-.02-.04-.04-.07-.17-.16-.33c-.1-.16-.2-.3-.22-.3s-.03-.02-.02-.04c.02-.02-.02-.1-.08-.17a.39.39 0 0 1-.11-.14c.01 0-.05-.12-.12-.27-.08-.14-.16-.25-.18-.25s-.03-.02-.02-.05 0-.05-.03-.05c-.02 0-.05 2.73-.05 6.22z" class="c"/><path d="M95.2 143.53l-.02 5.78 2.2 2.17c.02 0 .1.06.16.13l.13.12-.03-10.76c-.03-.02-.06-.05-.06-.08s-.12-.2-.26-.37c-.15-.18-.28-.32-.3-.32s-.03-.01-.02-.03c.02-.03-.06-.14-.16-.26-.1-.12-.2-.22-.18-.23.01 0-.06-.1-.15-.2s-.16-.2-.16-.2c.01 0-.12-.2-.3-.42l-.37-.45c-.02-.01-.04-.04-.04-.06s-.06-.13-.14-.25c-.07-.1-.15-.2-.18-.2-.02 0-.03-.02-.03-.05 0-.04-.02-.07-.05-.1-.02-.01-.05 2.48-.06 5.76z" fill="#eaeaea"/><path d="M97.7 146.35l-.06 5.33c-.03-.02.03.06.14.18.1.1.22.2.24.2s.14.1.26.23c.12.12.24.23.28.23.03-.01.07.02.1.06.01.03.3.3.63.58l.64.52c.02 0 .08.06.13.12l.1.1-.01-10.23-1.32-1.4c0-.01-.16-.18-.35-.38l-.33-.4c.01-.02-.06-.1-.14-.16s-.14-.13-.13-.14c.02-.01-.02-.06-.08-.12l-.1-.1v5.36z" class="d"/><path d="M100.16 148.8v5.1c.44.36.6.46.6.45.03-.01.05 0 .04.02 0 .03.14.15.3.28.17.14.32.24.33.23.02 0 .06.04.1.1.04.06.1.1.12.08.03-.01.05 0 .05.03s.04.07.1.1c.1.04.1-.2.07-4.92l-.12-5.03c-.05-.03-.44-.4-.85-.82l-.77-.76.01 5.12z" class="U"/><path d="M101.88 150.28l.1 5.04c.05.07.1.1.1.08s.04 0 .08.06c.04.07.1.12.15.12s.1.03.1.07c.02.05.05.07.08.06.03-.02.05-.01.05.01s.1.1.22.2l.25.16c.02 0 .12.07.2.16.1.08.18.14.2.13.02-.02.04-.01.04.01s.17.16.38.3l.4.26c.01 0 .03-2.13.03-4.73v-4.74l-.54-.5c-.17-.15-.32-.26-.32-.24-.01.02-.07-.04-.14-.12-.07-.1-.15-.15-.18-.15s-.12-.1-.2-.18c-.1-.1-.18-.17-.18-.16-.01.02-.1-.06-.2-.18-.1-.1-.2-.2-.23-.2s-.12-.08-.22-.2l-.18-.2v4.9z" class="X"/><path d="M104.3 152.24V157c.2.12.25.14.25.12s.03 0 .05.05c.03.05.08.08.1.06.03-.01.07.01.08.05.01.05.05.07.08.05.03-.01.06.01.07.06.02.04.05.06.08.05.03-.02.06.01.08.05.01.04.05.06.07.05.03-.02.05-.01.05.01s.35.26.78.53l.82.5c.02 0 .04-2.08.04-4.63v-4.63c-.24-.16-.3-.2-.3-.18 0 .01-.07-.04-.17-.13-.1-.08-.18-.14-.2-.12-.02.01-.04 0-.04-.02s-.1-.12-.24-.22l-.27-.17c-.01.01-.05-.03-.1-.1-.03-.05-.08-.08-.1-.07-.03.02-.05.01-.05-.01s-.12-.13-.27-.25l-.3-.2c-.02-.01-.12-.1-.23-.2-.1-.1-.2-.18-.23-.18-.02 0-.03 2.15-.03 4.76z" class="e"/><path d="M106.83 153.98l.01 4.65.68.38c.03 0 .1.04.16.1.05.05.12.08.14.07.02-.02.04-.01.04.01s.07.08.15.13.15.07.15.06.05.02.12.08c.06.05.13.1.15.1s.04-2.06.04-4.57v-4.57c-.26-.16-.35-.2-.37-.2s-.04 0-.04-.03c0-.02-.1-.1-.2-.17-.1-.08-.2-.13-.2-.1 0 .03-.02 0-.05-.05s-.07-.07-.1-.06-.05.01-.06-.02c0-.02-.14-.13-.3-.25l-.3-.2v4.66z" class="f"/><path d="M108.47 155.02l.05 4.55c.03-.01.05 0 .05.02s.06.07.14.1.16.07.18.06c.02 0 .04.02.04.04 0 .03.02.04.05.03s.06-.01.06.01c.01.03.13.1.26.18.13.08.24.12.24.1s.02-.01.04.02.16.12.3.2l.26.14-.05-9.04c-.03.01-.05.01-.05-.01s-.08-.1-.2-.15-.2-.1-.24-.1-.07-.02-.08-.05-.12-.1-.24-.18c-.12-.08-.23-.12-.25-.1-.01.02-.02.01-.02-.02 0-.04-.07-.1-.15-.14-.1-.05-.17-.08-.2-.08-.02.01-.06-.03-.08-.07-.02-.05-.06-.08-.1-.08s-.05 1.56-.05 4.58z" fill="#fafafa"/><path d="M110.15 155.97v4.52l.35.14c.02 0 .06.04.1.07.03.04.1.06.1.05.03-.02.06-.01.06.02s.02.04.05.03c.02-.02.05-.01.05.02s.02.04.05.03c.03-.02.05-.01.05.02s.02.04.05.03c.03-.02.05 0 .05.02 0 .03.02.04.05.03s.05 0 .05.02c0 .03.03.04.05.03.03-.01.05 0 .05.04 0 .03.01.04.03.02.01-.02.06 0 .1.04.05.04.1.07.13.05.03-.01.05 0 .05.03s.02.04.05.02c.03-.01.05 0 .05.03s.03.04.05.02c.04-.01.06-1.55.06-4.46v-4.44c-.4-.22-.5-.27-.52-.25 0 .02-.01.02-.03-.01s-.26-.2-.54-.35l-.52-.3c-.02 0-.03 2.04-.03 4.52z" class="a"/></svg>