<?xml version="1.0" encoding="UTF-8"?>
<!DOCTYPE svg  PUBLIC '-//W3C//DTD SVG 1.1//EN'  'http://www.w3.org/Graphics/SVG/1.1/DTD/svg11.dtd'>
<svg width="468.42px" height="579.85px" enable-background="new 0 0 468.425 579.854" version="1.1" viewBox="0 0 468.425 579.854" xml:space="preserve" xmlns="http://www.w3.org/2000/svg" xmlns:xlink="http://www.w3.org/1999/xlink">
		<defs>
			<rect id="d" y="-.001" width="468.42" height="579.85"/>
		</defs>
		<clipPath id="a">
			<use overflow="visible" xlink:href="#d"/>
		</clipPath>
		<g clip-path="url(#a)">
			<defs>
				<rect id="c" y=".074" width="468.36" height="579.78"/>
			</defs>
			<clipPath id="b">
				<use overflow="visible" xlink:href="#c"/>
			</clipPath>
			<path d="m225.57 574.45c-96.978-60.631-154.13-132.47-186.67-201.83-52.602-112.12-40.535-218.01-28.522-260.09l3.007-5.694c17.706-22.148 59.93-50.552 104.8-72.253 41.025-19.841 85.121-34.589 116.01-34.589 30.898 0 74.997 14.747 116.02 34.588 44.879 21.702 87.105 50.106 104.81 72.255l3.007 5.694c12.017 42.078 24.081 147.96-28.522 260.08-32.545 69.363-89.693 141.2-186.68 201.83l-8.494 5.401-8.78-5.402" clip-path="url(#b)" fill="#0560A7"/>
			<path d="m234.21 560.57c-245.18-153.28-226.65-378.53-208.09-443.55 30.945-38.711 148.54-100.64 208.09-100.64 59.559 0 177.15 61.928 208.1 100.64 18.571 65.02 37.082 290.27-208.1 443.55" clip-path="url(#b)" clip-rule="evenodd" fill="#FFDF1A" fill-rule="evenodd"/>
		</g>
		<path d="m234.26 72.894c47.178 0 136.89 41.024 159.32 71.216 7.737 11.606 4.637 58.295 4.637 58.295h-163.96v-129.51" clip-path="url(#a)" clip-rule="evenodd" fill="#0560A7" fill-rule="evenodd"/>
		<path d="m234.26 72.894c-47.181 0-136.9 41.024-159.32 71.216-7.74 11.606-4.64 58.295-4.64 58.295h163.96v-129.51" clip-path="url(#a)" clip-rule="evenodd" fill="#0560A7" fill-rule="evenodd"/>
		<path d="m199.44 471.72l12 11.218c7.257 5.155 14.815 10.238 22.769 15.21 8.085-5.045 15.764-10.21 23.116-15.456l11.753-10.972v-246.06h-69.638v246.06" clip-path="url(#a)" clip-rule="evenodd" fill="#fff" fill-rule="evenodd"/>
		<path d="m299.87 225.63l83.941 92.744c4.318-12.418 7.635-24.592 10.141-36.384l-51.013-56.36h-43.069" clip-path="url(#a)" clip-rule="evenodd" fill="#0560A7" fill-rule="evenodd"/>
		<path d="m375.58 225.63l23.25 25.685c0.948-8.943 1.462-17.527 1.632-25.685h-24.882" clip-path="url(#a)" clip-rule="evenodd" fill="#0560A7" fill-rule="evenodd"/>
		<path d="m292.1 420.42v32.502c5.55-4.948 10.854-9.94 15.864-14.979l-15.864-17.523" clip-path="url(#a)" clip-rule="evenodd" fill="#0560A7" fill-rule="evenodd"/>
		<path d="m292.1 336.77v47.582l32.4 35.776c7.291-8.435 13.939-16.951 19.977-25.491l-52.377-57.867" clip-path="url(#a)" clip-rule="evenodd" fill="#0560A7" fill-rule="evenodd"/>
		<path d="m292.1 253.12v47.577l66.001 72.907c5.988-10.099 11.203-20.188 15.729-30.202l-81.73-90.282" clip-path="url(#a)" clip-rule="evenodd" fill="#0560A7" fill-rule="evenodd"/>
		<path d="m168.63 225.63l-83.94 92.744c-4.314-12.418-7.641-24.592-10.141-36.384l51.013-56.36h43.068" clip-path="url(#a)" clip-rule="evenodd" fill="#0560A7" fill-rule="evenodd"/>
		<path d="m92.924 225.63l-23.251 25.685c-0.959-8.943-1.463-17.527-1.628-25.685h24.879" clip-path="url(#a)" clip-rule="evenodd" fill="#0560A7" fill-rule="evenodd"/>
		<path d="m176.4 420.42v32.502c-5.547-4.948-10.849-9.94-15.864-14.979l15.864-17.523" clip-path="url(#a)" clip-rule="evenodd" fill="#0560A7" fill-rule="evenodd"/>
		<path d="m176.4 336.77v47.582l-32.39 35.776c-7.299-8.435-13.947-16.951-19.987-25.491l52.377-57.867" clip-path="url(#a)" clip-rule="evenodd" fill="#0560A7" fill-rule="evenodd"/>
		<path d="m176.4 253.12v47.577l-65.99 72.907c-5.996-10.099-11.215-20.188-15.733-30.202l81.723-90.282" clip-path="url(#a)" clip-rule="evenodd" fill="#0560A7" fill-rule="evenodd"/>
		<path d="m234.23 79.281c-33.463 0-60.699 27.23-60.699 60.697 0 33.47 27.236 60.703 60.699 60.703 33.472-1e-3 60.7-27.233 60.7-60.703 1e-3 -33.467-27.228-60.697-60.7-60.697" clip-path="url(#a)" clip-rule="evenodd" fill="#0560A7" fill-rule="evenodd"/>
		<path d="m234.26 139.65l-0.01 0.012h-9e-3v-0.016l0.019 4e-3m43.744-14.293c-0.993-10.768-5.767-20.347-14.181-26.461-8.439-6.138-19.064-7.688-29.648-5.278-10.555-2.377-21.128-0.809-29.547 5.304-8.446 6.135-13.207 15.762-14.186 26.577-5.521 9.299-7.299 19.843-4.088 29.736 3.231 9.93 10.916 17.435 20.893 21.7 7.146 8.124 16.619 13.078 27.028 13.078 10.438 0 19.942-4.988 27.087-13.167 9.935-4.273 17.57-11.757 20.789-21.652 3.219-9.928 1.423-20.51-4.147-29.837z" clip-path="url(#a)" clip-rule="evenodd" fill="#fff" fill-rule="evenodd"/>
		<polyline points="234.23 103 238.68 93.516 234.23 80.382 229.78 93.516 234.23 103" clip-path="url(#a)" clip-rule="evenodd" fill="#fff" fill-rule="evenodd"/>
		<polyline points="199.38 128.34 191.74 121.17 177.5 121.2 188.99 129.64 199.38 128.34" clip-path="url(#a)" clip-rule="evenodd" fill="#fff" fill-rule="evenodd"/>
		<polyline points="212.71 169.3 203.54 174.36 198.96 188.18 210.73 179.6 212.71 169.3" clip-path="url(#a)" clip-rule="evenodd" fill="#fff" fill-rule="evenodd"/>
		<polyline points="255.8 169.29 257.78 179.58 269.42 188.04 264.97 174.35 255.8 169.29" clip-path="url(#a)" clip-rule="evenodd" fill="#fff" fill-rule="evenodd"/>
		<polyline points="269.1 128.31 279.49 129.61 290.85 121.21 276.74 121.15 269.1 128.31" clip-path="url(#a)" clip-rule="evenodd" fill="#fff" fill-rule="evenodd"/>
		<path d="m234.23 101.31s2.073-0.656 2.073-4.462c0-3.804-2.073-13.308-2.073-13.308s-2.074 9.504-2.074 13.308c0 3.805 2.074 4.463 2.074 4.462" clip-path="url(#a)" clip-rule="evenodd" fill="#0560A7" fill-rule="evenodd"/>
		<path d="m256.81 170.66s-1.29 1.753 0.942 4.831c2.24 3.079 9.512 9.549 9.512 9.549s-3.919-8.914-6.143-11.991c-2.242-3.079-4.311-2.389-4.311-2.389" clip-path="url(#a)" clip-rule="evenodd" fill="#0560A7" fill-rule="evenodd"/>
		<path d="m270.71 127.78s1.268 1.777 4.881 0.601c3.629-1.179 12.021-6.092 12.021-6.092s-9.683 0.967-13.303 2.137c-3.614 1.178-3.599 3.354-3.599 3.354" clip-path="url(#a)" clip-rule="evenodd" fill="#0560A7" fill-rule="evenodd"/>
		<path d="m254.38 133.09s0.793 2.084 2.996 1.642c3.451-0.693 0.17-2.644 11.396-6.296 3.605-1.169 7.812-0.809 9.549 2.978 1.959 4.286 0.082 7.898-1.916 9.643-2.788 2.44-5.162 10.595-5.162 10.595v0.01s-2.864 7.972-2.048 11.584c0.586 2.583-9e-3 6.611-4.126 8.93-3.621 2.036-7.24-0.138-9.468-3.207-6.943-9.551-3.145-9.205-5.518-11.793-1.527-1.655-3.368-0.4-3.368-0.4s-1.737 1.39-0.639 3.347c1.72 3.069 2.568-0.652 9.504 8.899 2.233 3.069 3.183 7.187 0.128 9.999-3.475 3.196-7.494 2.521-9.766 1.165-3.192-1.901-11.67-1.632-11.67-1.632h-0.015s-8.466-0.268-11.655 1.632c-2.271 1.352-6.283 2.033-9.763-1.165-3.064-2.813-2.104-6.93 0.129-9.999 6.935-9.551 7.779-5.83 9.502-8.899 1.104-1.957-0.661-3.324-0.661-3.324s-1.859-1.225-3.378 0.429c-2.389 2.587 1.411 2.243-5.525 11.792-2.235 3.07-5.848 5.249-9.477 3.208-4.109-2.319-4.706-6.349-4.124-8.93 0.822-3.612-2.048-11.604-2.048-11.604l-7e-3 -0.012s-2.366-8.131-5.154-10.575c-2-1.742-3.876-5.357-1.906-9.647 1.733-3.779 5.933-4.144 9.541-2.972 11.229 3.645 7.958 5.602 11.403 6.293 2.204 0.444 2.958-1.648 2.958-1.648s0.594-2.15-1.455-3.089c-3.198-1.471-1.692 2.038-12.921-1.613-3.609-1.17-6.798-3.938-5.976-8.014 0.933-4.629 4.578-6.439 7.215-6.683 3.693-0.335 10.406-5.537 10.406-5.537l9e-3 -9e-3s7.006-4.761 8.466-8.167c1.041-2.436 3.896-5.341 8.583-4.8 4.132 0.476 5.774 4.367 5.774 8.161 0 11.804-2.862 9.293-2.458 12.791 0.255 2.231 2.488 2.3 2.488 2.3s2.228-0.104 2.486-2.338c0.414-3.494-2.471-0.979-2.462-12.782 0-3.8 1.65-7.686 5.782-8.165 4.689-0.543 7.537 2.363 8.577 4.796 1.46 3.406 8.488 8.184 8.488 8.184l5e-3 7e-3s6.701 5.194 10.389 5.528c2.632 0.234 6.276 2.052 7.211 6.678 0.823 4.081-2.367 6.845-5.979 8.019-11.218 3.65-9.72 0.144-12.917 1.607-2.038 0.938-1.423 3.083-1.423 3.083" clip-path="url(#a)" clip-rule="evenodd" fill="#fff" fill-rule="evenodd"/>
		<path d="m202.23 139.98c0-17.675 14.33-32 32-32 17.677 0 32.001 14.328 32.001 32 0 17.675-14.324 32.001-32.001 32.001-17.67 0-32-14.325-32-32.001" clip-path="url(#a)" clip-rule="evenodd" fill="#0560A7" fill-rule="evenodd"/>
		<path d="m254.38 133.09s0.793 2.084 2.996 1.642c3.451-0.693 0.17-2.644 11.396-6.296 3.605-1.169 7.812-0.809 9.549 2.978 1.959 4.286 0.082 7.898-1.916 9.643-2.788 2.44-5.162 10.595-5.162 10.595v0.01s-2.864 7.972-2.048 11.584c0.586 2.583-9e-3 6.611-4.126 8.93-3.621 2.036-7.24-0.138-9.468-3.207-6.943-9.551-3.145-9.205-5.518-11.793-1.527-1.655-3.368-0.4-3.368-0.4s-1.737 1.39-0.639 3.347c1.72 3.069 2.568-0.652 9.504 8.899 2.233 3.069 3.183 7.187 0.128 9.999-3.475 3.196-7.494 2.521-9.766 1.165-3.192-1.901-11.67-1.632-11.67-1.632h-0.015s-8.466-0.268-11.655 1.632c-2.271 1.352-6.283 2.033-9.763-1.165-3.064-2.813-2.104-6.93 0.129-9.999 6.935-9.551 7.779-5.83 9.502-8.899 1.104-1.957-0.661-3.324-0.661-3.324s-1.859-1.225-3.378 0.429c-2.389 2.587 1.411 2.243-5.525 11.792-2.235 3.07-5.848 5.249-9.477 3.208-4.109-2.319-4.706-6.349-4.124-8.93 0.822-3.612-2.048-11.604-2.048-11.604l-7e-3 -0.012s-2.366-8.131-5.154-10.575c-2-1.742-3.876-5.357-1.906-9.647 1.733-3.779 5.933-4.144 9.541-2.972 11.229 3.645 7.958 5.602 11.403 6.293 2.204 0.444 2.958-1.648 2.958-1.648s0.594-2.15-1.455-3.089c-3.198-1.471-1.692 2.038-12.921-1.613-3.609-1.17-6.798-3.938-5.976-8.014 0.933-4.629 4.578-6.439 7.215-6.683 3.693-0.335 10.406-5.537 10.406-5.537l9e-3 -9e-3s7.006-4.761 8.466-8.167c1.041-2.436 3.896-5.341 8.583-4.8 4.132 0.476 5.774 4.367 5.774 8.161 0 11.804-2.862 9.293-2.458 12.791 0.255 2.231 2.488 2.3 2.488 2.3s2.228-0.104 2.486-2.338c0.414-3.494-2.471-0.979-2.462-12.782 0-3.8 1.65-7.686 5.782-8.165 4.689-0.543 7.537 2.363 8.577 4.796 1.46 3.406 8.488 8.184 8.488 8.184l5e-3 7e-3s6.701 5.194 10.389 5.528c2.632 0.234 6.276 2.052 7.211 6.678 0.823 4.081-2.367 6.845-5.979 8.019-11.218 3.65-9.72 0.144-12.917 1.607-2.038 0.938-1.423 3.083-1.423 3.083" clip-path="url(#a)" clip-rule="evenodd" fill="#fff" fill-rule="evenodd"/>
		<path d="m254.38 133.09s0.793 2.084 2.996 1.642c3.451-0.693 0.17-2.644 11.396-6.296 3.605-1.169 7.812-0.809 9.549 2.978 1.959 4.286 0.082 7.898-1.916 9.643-2.788 2.44-5.162 10.595-5.162 10.595v0.01s-2.864 7.972-2.048 11.584c0.586 2.583-9e-3 6.611-4.126 8.93-3.621 2.036-7.24-0.138-9.468-3.207-6.943-9.551-3.145-9.205-5.518-11.793-1.527-1.655-3.368-0.4-3.368-0.4s-1.737 1.39-0.639 3.347c1.72 3.069 2.568-0.652 9.504 8.899 2.233 3.069 3.183 7.187 0.128 9.999-3.475 3.196-7.494 2.521-9.766 1.165-3.192-1.901-11.67-1.632-11.67-1.632h-0.015s-8.466-0.268-11.655 1.632c-2.271 1.352-6.283 2.033-9.763-1.165-3.064-2.813-2.104-6.93 0.129-9.999 6.935-9.551 7.779-5.83 9.502-8.899 1.104-1.957-0.661-3.324-0.661-3.324s-1.859-1.225-3.378 0.429c-2.389 2.587 1.411 2.243-5.525 11.792-2.235 3.07-5.848 5.249-9.477 3.208-4.109-2.319-4.706-6.349-4.124-8.93 0.822-3.612-2.048-11.604-2.048-11.604l-7e-3 -0.012s-2.366-8.131-5.154-10.575c-2-1.742-3.876-5.357-1.906-9.647 1.733-3.779 5.933-4.144 9.541-2.972 11.229 3.645 7.958 5.602 11.403 6.293 2.204 0.444 2.958-1.648 2.958-1.648s0.594-2.15-1.455-3.089c-3.198-1.471-1.692 2.038-12.921-1.613-3.609-1.17-6.798-3.938-5.976-8.014 0.933-4.629 4.578-6.439 7.215-6.683 3.693-0.335 10.406-5.537 10.406-5.537l9e-3 -9e-3s7.006-4.761 8.466-8.167c1.041-2.436 3.896-5.341 8.583-4.8 4.132 0.476 5.774 4.367 5.774 8.161 0 11.804-2.862 9.293-2.458 12.791 0.255 2.231 2.488 2.3 2.488 2.3s2.228-0.104 2.486-2.338c0.414-3.494-2.462-0.979-2.462-12.782 0-3.8 1.65-7.686 5.782-8.165 4.689-0.543 7.537 2.363 8.577 4.796 1.46 3.406 8.488 8.184 8.488 8.184l5e-3 7e-3s6.701 5.194 10.389 5.528c2.632 0.234 6.276 2.052 7.211 6.678 0.823 4.081-2.367 6.845-5.979 8.019-11.218 3.65-9.72 0.144-12.917 1.607-2.038 0.938-1.423 3.083-1.423 3.083z" clip-path="url(#a)" fill="none" stroke="#0560A7" stroke-width="1.166"/>
		<polyline points="234.26 132.77 240.78 137.25 238.28 145.76 229.54 145.76 227.46 137.25 234.26 132.77" clip-path="url(#a)" clip-rule="evenodd" fill="#FFDF1A" fill-rule="evenodd"/>
		<polygon points="234.26 132.77 240.78 137.25 238.28 145.76 229.54 145.76 227.46 137.25" clip-path="url(#a)" fill="none" stroke="#0560A7" stroke-width=".491"/>
			<line x1="220.98" x2="227.46" y1="134.36" y2="137.25" clip-path="url(#a)" fill="none" stroke="#0560A7" stroke-width=".491"/>
			<line x1="234.26" x2="234.26" y1="125.2" y2="132.77" clip-path="url(#a)" fill="none" stroke="#0560A7" stroke-width=".491"/>
			<line x1="247.51" x2="240.65" y1="135.84" y2="137.79" clip-path="url(#a)" fill="none" stroke="#0560A7" stroke-width=".491"/>
			<line x1="229.43" x2="225.53" y1="145.67" y2="151.14" clip-path="url(#a)" fill="none" stroke="#0560A7" stroke-width=".491"/>
			<line x1="237.73" x2="242.36" y1="145.76" y2="151.14" clip-path="url(#a)" fill="none" stroke="#0560A7" stroke-width=".491"/>
		<path d="m228.68 123.74l5.572 1.532 5.772-1.608 0.154-2.111s-3.998-1.329-6.111-1.267c-1.407 0.037-5.498 0.939-5.498 0.939l0.111 2.515" clip-path="url(#a)" clip-rule="evenodd" fill="#FFDF1A" fill-rule="evenodd"/>
		<path d="m228.68 123.74l5.572 1.532 5.772-1.608 0.154-2.111s-3.998-1.329-6.111-1.267c-1.407 0.037-5.498 0.939-5.498 0.939l0.111 2.515z" clip-path="url(#a)" fill="none" stroke="#0560A7" stroke-width=".491"/>
		<path d="m247.8 130.04l-0.161 5.911 3.189 5.082 2.508-0.606s0.147-4.61-0.4-5.914c-0.556-1.304-2.582-5.386-2.582-5.386l-2.554 0.913" clip-path="url(#a)" clip-rule="evenodd" fill="#FFDF1A" fill-rule="evenodd"/>
		<path d="m247.8 130.04l-0.161 5.911 3.189 5.082 2.508-0.606s0.147-4.61-0.4-5.914c-0.556-1.304-2.582-5.386-2.582-5.386l-2.554 0.913z" clip-path="url(#a)" fill="none" stroke="#0560A7" stroke-width=".491"/>
		<path d="m248.05 149.1l-5.468 2.244-3.414 4.592 1.313 2.09s4.57-1.819 5.545-2.849c1.031-1.109 3.969-4.1 3.969-4.1l-1.945-1.977" clip-path="url(#a)" clip-rule="evenodd" fill="#FFDF1A" fill-rule="evenodd"/>
		<path d="m248.05 149.1l-5.468 2.244-3.414 4.592 1.313 2.09s4.57-1.819 5.545-2.849c1.031-1.109 3.969-4.1 3.969-4.1l-1.945-1.977z" clip-path="url(#a)" fill="none" stroke="#0560A7" stroke-width=".491"/>
		<path d="m229.1 155.82l-3.81-4.449-5.088-2.511-1.867 2.049s3.148 3.895 4.412 4.548c1.247 0.652 5.067 2.417 5.067 2.417l1.286-2.054" clip-path="url(#a)" clip-rule="evenodd" fill="#FFDF1A" fill-rule="evenodd"/>
		<path d="m229.1 155.82l-3.81-4.449-5.088-2.511-1.867 2.049s3.148 3.895 4.412 4.548c1.247 0.652 5.067 2.417 5.067 2.417l1.286-2.054z" clip-path="url(#a)" fill="none" stroke="#0560A7" stroke-width=".491"/>
		<path d="m217.24 138.94l3.741-4.583 0.567-5.969-1.916-0.901s-2.803 3.687-3.244 5.033c-0.523 1.639-1.433 5.628-1.433 5.628l2.285 0.792" clip-path="url(#a)" clip-rule="evenodd" fill="#FFDF1A" fill-rule="evenodd"/>
		<path d="m217.24 138.94l3.741-4.583 0.567-5.969-1.916-0.901s-2.803 3.687-3.244 5.033c-0.523 1.639-1.433 5.628-1.433 5.628l2.285 0.792z" clip-path="url(#a)" fill="none" stroke="#0560A7" stroke-width=".491"/>
		<path d="m215.04 139.67c0-10.607 8.6-19.206 19.217-19.206 10.602 0 19.192 8.599 19.192 19.206 0 10.608-8.59 19.207-19.192 19.207-10.618 0-19.217-8.599-19.217-19.207z" clip-path="url(#a)" fill="none" stroke="#0560A7" stroke-width=".935"/>
		<polyline points="207.36 102.43 217.35 97.47 209.68 105.62 199.57 110.41 207.36 102.43" clip-path="url(#a)" clip-rule="evenodd" fill="#0560A7" fill-rule="evenodd"/>
		<polyline points="234 185.34 223.01 183.49 234 181.41 244.99 183.47 234 185.34" clip-path="url(#a)" clip-rule="evenodd" fill="#0560A7" fill-rule="evenodd"/>
		<polyline points="277.65 153.85 272.49 163.73 273.91 152.63 279.26 142.81 277.65 153.85" clip-path="url(#a)" clip-rule="evenodd" fill="#0560A7" fill-rule="evenodd"/>
		<polyline points="261.18 102.61 268.98 110.57 258.88 105.79 251.19 97.66 261.18 102.61" clip-path="url(#a)" clip-rule="evenodd" fill="#0560A7" fill-rule="evenodd"/>
		<polyline points="190.56 153.57 188.93 142.54 194.31 152.35 195.74 163.44 190.56 153.57" clip-path="url(#a)" clip-rule="evenodd" fill="#0560A7" fill-rule="evenodd"/>
		<path d="m197.78 127.83s0.021-2.183-3.603-3.357c-3.617-1.176-13.304-2.134-13.304-2.134s8.404 4.912 12.02 6.085c3.627 1.178 4.887-0.594 4.887-0.594" clip-path="url(#a)" clip-rule="evenodd" fill="#0560A7" fill-rule="evenodd"/>
		<path d="m211.74 170.69s-2.068-0.693-4.308 2.392c-2.232 3.078-6.146 11.991-6.146 11.991s7.271-6.473 9.511-9.552c2.231-3.079 0.943-4.83 0.943-4.831" clip-path="url(#a)" clip-rule="evenodd" fill="#0560A7" fill-rule="evenodd"/>
		<path d="m262.53 276.46c0-0.65-0.898-0.325-1.216 0-0.337 0.322-6.744 6.413-11.138 6.576-4.376 0.164-10.965 0-19.159-4.222 2.674-4.469 8.194-14.295 10.715-23.719 7.881-1.38 14.134-5.53 16.566-8.687 2.762-3.576 3.824-8.449 1.709-10.559-4.139-4.143-14.86-3.656-20.952 8.039-1.275 2.452-2.463 5.068-3.573 7.73-2.572-0.312-5.271-1.617-5.775-2.042-0.56-0.491-0.97-0.735-0.887-0.083 0.085 0.652-0.083 1.381-0.083 1.381s-0.404 0.895 0.242 1.135c1.826 1.037 3.747 1.605 5.61 1.837-3.739 9.366-6.603 18.93-9.342 23.751-2.841-1.222-7.23-1.544-10.475-0.57-3.25 0.974-9.18 3.814-8.606 8.933 0.564 5.12 9.981 4.791 10.793 4.711 0.814-0.076 6.663-0.893 10.888-7.149 6.336 4.223 11.615 6.582 16.327 6.496 4.711-0.073 13.233-1.38 18.271-10.963 0.248-0.484 0.085-1.946 0.085-2.595" clip-path="url(#a)" clip-rule="evenodd" fill="#0560A7" fill-rule="evenodd"/>
		<path d="m223.46 280.44c-3.402-2.433-8.439-2.76-11.035 0.895-2.603 3.656 1.453 4.711 2.352 4.711 0.89 0 4.954 0.813 8.683-5.606" clip-path="url(#a)" clip-rule="evenodd" fill="#fff" fill-rule="evenodd"/>
		<path d="m251.48 343.4c0.646-0.201 1.216-0.041 1.374 0.361 0.171 0.407 1.855 4.089-0.014 7.714-1.56 3.037-5.113 4.79-9.714 4.174-3.405-0.454-8.251-4.371-8.337-8.92-1.541 2.278-6.745 9.415-17.04 8.006-11.448-1.587-5.566-15.21-4.009-17.583 4.603-7.034 13.271-22.407 14.186-24.306 0.915-1.892 2.7-6.5-0.11-7.687-2.817-1.188-6.906 0.979-9.101 4.602-0.668 1.11-0.807 0.493-1.184 0.221-0.382-0.273-0.594-0.712-0.817-1.088-0.211-0.38 0.624-1.189 0.897-1.569 0.27-0.376 5.091-6.438 12.505-4.627 5.821 1.415 6.536 4.68 6.254 7.551-0.274 2.864-14.782 26.426-16.729 31.561-1.944 5.15-0.761 8.186 2 8.4 2.761 0.213 9.526-0.604 13.968-10.292 4.446-9.697 11.479-24.578 13-27.666 1.514-3.087 3.784-7.365 4.214-8.013 0.447-0.652 0.386-0.919 1.692-0.756 1.291 0.164 4.486 0.596 5.133 0.596 0.652 0 0.246 1.32-0.244 1.971-0.481 0.654-15.35 30.13-17.293 36.199-1.952 6.07 1.691 7.536 2.433 7.746 1.255 0.347 5.192 0.601 5.802-2.437 0.311-1.58-0.223-2.848-0.341-3.173-0.112-0.328 0.215-0.461 0.215-0.461s0.608-0.319 1.26-0.524" clip-path="url(#a)" clip-rule="evenodd" fill="#0560A7" fill-rule="evenodd"/>
		<path d="m263.08 365.67c-0.245-0.496-0.885-0.542-1.286 0.166-0.392 0.709-1.491 2.438-3.655 2.863-6.604 1.32-11.775 0.673-19.135 0.236-7.371-0.43-17.003 0.161-19.765 3.656-2.764 3.487-1.617 5.988-1.053 6.982 0.806 1.461 2.515 2.768 4.868 3.412 2.357 0.654 4.138 0.083 4.954-0.482 0.813-0.569-0.57-1.225-1.056-1.548-0.487-0.319-3.64-1.054-3.713-2.517-0.037-0.646 0.319-2.516 2.269-3.406 1.945-0.896 6.567-1.38 10.461-0.896-0.166 3.82-2.437 13.889-4.139 17.545-2.523 0-10.544 0.439-12.345 5.194-0.899 2.356-0.16 4.386 0.643 5.03 0.814 0.651 1.384 0.577 1.384-0.24 0-0.808 0.078-2.425 0.894-3.322 0.809-0.888 3.978-2.278 8.283-1.468-1.383 4.872-5.525 17.139-9.908 19.406-4.383 2.279-7.179 0.571-7.544 0.076-0.81-1.098-1.062-2.108-1.062-2.68s-1.542-2.35-2.038 0.17c-0.484 2.516 1.863 6.315 5.583 7.242 6.62 1.661 10.425-2.203 11.649-3.183 1.218-0.972 7.693-7.485 11.106-20.253 2.768 0.331 6.744 0.244 8.287-0.401 3.613-1.543 4.926-3.89 5.172-5.35 0.238-1.461 0.127-2.663-0.201-3.39-0.326-0.735-1.46-1.789-1.623-0.899-0.172 0.899 0 2.441-1.545 3.578-0.46 0.339-2.842 2.196-8.695 1.215 1.137-3.573 3.903-17.865 3.903-17.865 3.086 0.246 9.897-0.243 11.932-0.816 2.032-0.563 5.696-2.225 6.897-4.63 0.899-1.776 0.73-2.927 0.478-3.425" clip-path="url(#a)" clip-rule="evenodd" fill="#0560A7" fill-rule="evenodd"/>
		<path d="m243.12 251.37c0.89-2.763 2.841-9.584 4.05-11.048 1.225-1.459 4.629-4.061 7.398-1.459 2.752 2.596-0.625 7.241-1.389 7.875-4.294 3.658-10.059 4.632-10.059 4.632" clip-path="url(#a)" clip-rule="evenodd" fill="#fff" fill-rule="evenodd"/>
		<path d="m254.56 434.57c2.939-4.664-0.133-10.549-3.002-11.572-1.113-0.409-7.859-2.589-17.01 3.234-8.936 5.689-18.834 15.188-20.991 30.121-2.156 14.935 8.212 20.246 9.378 20.572 1.159 0.334 11.171 4.191 18.088-4.563 4.065-5.141 4.065-6.551 4.398-7.383 0.334-0.829-1.164-1.822-1.827-0.829-0.667 0.994-4.48 6.64-7.301 8.139-2.824 1.485-8.712 2.235-11.201-1.335-2.671-3.836-3.154-9.369-1.827-14.854 1.33-5.477 5.562-18.252 13.525-25.063 7.97-6.795 12.946-6.385 14.603-5.222 1.662 1.166 2.619 5.282 1.303 7.77-0.496 0.936 1.138 2.143 1.864 0.985" clip-path="url(#a)" clip-rule="evenodd" fill="#0560A7" fill-rule="evenodd"/>
</svg>
