<svg xmlns="http://www.w3.org/2000/svg" xmlns:xlink="http://www.w3.org/1999/xlink" width="76.174" height="49.673" xmlns:v="https://vecta.io/nano"><defs><path id="A" d="M94.67 0h747.67v481H94.67z"/></defs><clipPath id="B"><use xlink:href="#A"/></clipPath><path d="M832.46 204.35c-20.78-10.17-56.92-21.9-56.92-21.9-1.55-.4-4.67-1.43-4.67-1.43s1.58-2.34 2.03-4.1c1.25-4.5 1-9.72-1.9-11.35 0 0 15.77.87 19.2-.46 9.7-3.78 13.42-16.8 10-26-1.78-4.82-9.37-7.84-10.93-11.87-1.48-3.82-2.45-6.82-6.5-8.88-6.55-3.3-23.14-6.2-30.44-5.57-6.16.54-7.34 7.65-11.15 9.3-15.23 6.56-22.02 3.48-21.87 26.2 0 0 0 1.07.17 1.97l-25.67-12.26V.47H243.2V138c-6.38 2.84-20.16 9.6-25.67 12.26.17-.9.17-1.97.17-1.97.15-22.73-6.65-19.65-21.87-26.2-3.8-1.64-5-8.75-11.15-9.3-7.3-.63-23.88 2.26-30.44 5.57-4.06 2.06-5.03 5.06-6.5 8.88-1.55 4.03-9.15 7.05-10.93 11.87-3.4 9.2.3 22.22 10 26 3.42 1.33 19.2.46 19.2.46-2.9 1.63-3.15 6.87-1.9 11.35.45 1.74 2.03 4.1 2.03 4.1s-3.13 1.03-4.67 1.43c0 0-36.14 11.73-56.93 21.9 0 0-24.92 11.7 5.98 9.47 1.5 0 24.66-1.8 48.82-5.38l-.15 1.36c-.03 7.8 1.67 7.77 8.16 10l-.2 1.44c-8.14 1.65-24.32 3.26-29.95 7.03-6.17 4.13-23.03.93-33.15 14.7-2.66 3.62-7.1 14.6-4.5 18.2 4.27 5.84 28.7 14.4 31.9 14.46 7.64.17 8.42-6.1 13.8-9.8 2.6-1.8 5.7-.6 8.56-1.34 4.32-1.15 6.72-5.08 10.52-7.06 2.22-1.14 6.98-2.24 10-.47 13.42 8.26 54.56-2.22 68.84-10.66v74.53c0 26.53 3.37 36.68 11.43 50.7l.67 1.1c45.85 68.57 123.56 107.9 213.2 107.9 89.65 0 167.28-39.22 213-107.6l.7-1.07c8.2-14.28 11.62-24.53 11.62-51.05V246.3c14.28 8.44 55.42 18.92 68.84 10.66 3.03-1.77 7.8-.67 10 .47 3.8 1.97 6.2 5.9 10.53 7.06 2.87.76 5.97-.45 8.56 1.34 5.4 3.7 6.18 9.96 13.8 9.8 3.2-.07 27.63-8.62 31.9-14.46 2.6-3.58-1.82-14.58-4.5-18.2-10.1-13.77-26.98-10.58-33.15-14.7-5.63-3.76-21.8-5.38-29.95-7.03l-.2-1.44c6.5-2.24 8.2-2.2 8.16-10l-.15-1.36c24.16 3.6 47.32 5.38 48.82 5.38 30.93 2.24 6-9.47 6-9.47z" clip-path="url(#B)" fill="#fff" transform="matrix(.099306 0 0 .099306 -8.3842 1.3075)"/><path d="M35.958 28.077a12.15 12.15 0 0 1-6.478-1.862c2.01 2.578 5.14 4.237 8.66 4.237 4.2 0 7.847-2.36 9.692-5.824l-.013-.004c-.216-.06-.54-.187-.913-.334-.42-.165-1.183-.466-1.443-.497a2.28 2.28 0 0 0-.212.16 4.72 4.72 0 0 1-.459.336 12.18 12.18 0 0 1-8.837 3.788z" fill="#dadada"/><path d="M70.046 16.413c.132-.196.134-.557.032-.77-.118-.242-.48-.315-.708-.4-.286.062.032.312-.215.42l-.553-.072c-.348-.36.38-.3.42-.502.06-.28-.204-.536-.03-.8-.03-.067-.07-.137-.144-.164-.285-.102-1.988-.51-2.223-.493l-.072.082c.07.094.356.356.368.38.113.206-.65.353-.78.38-.612.13-2.248.326-2.008 1.29.112.455 1.74 1.6 1.936 2.1.043.108.255.334.113.43-.3.204-1.804-.07-1.886.165.084.315.98.553 1.27.665.344.13.662.23 1.024.052.405-.2.668-.735.595-1.18a3.13 3.13 0 0 0-.379-.871c-.118-.157-1.107-.94-.83-1.046.334.106.79.01 1.025.328.623.177 1.29.285 1.927.4.41.074.875-.04 1.116-.4zm-13.63 7.685c.052-.113.072-.256.01-.38-.052-.05-.102-.112-.185-.123-.287.063-.574.195-.902.113-.3 0-.78-.267-.913.133-.052.256-.196.472-.257.718 0 .133.123.256.245.318.185.04.4.143.574.112.308-.215.287-.605.594-.83.165.04.185.267.37.246s.37-.134.463-.31zm7.472-4.765c.053-.3-.274-.337-.472-.4l-1.423-.44c-.35-.1-.704-.287-1.057-.36-.445-.092-.796-.1-1.107-.493l.072-.042c.42.168 1.097.53 1.538.236.21-.14.427-.513.328-.768-.074-.192-.3-.217-.472-.288l-2.042-1.008-4.27-2.148c-.646-.328-1.38-.705-2.1-.86-.58-.126-1.237.034-1.742.338s-.488 1.01-.86.933c-.054-.06-.098-.133-.092-.215-.15-.24-.623.433-1.004.625-.852.428-2.347 2.063-2.96 2.84-.388.5-.543 1.116-.686 1.71l.082.112c.187.045.358-.032.522-.112.155.04.14.235.225.348.622.837 2.273.35 3.177.655.013.056 0 .105-.062.112-.404.052-.94-.033-1.356-.044l-2.867-.09-.113.062-.697 1.413c-.128.14-.317.25-.453.4-.37.414-.64.916-1.104 1.238-.14.096-.42.15-.482.307l.072.082c1.412.115 1.555-1.366 2.5-1.7.052.01.072.066.06.113-.234.234-.488.572-.635.87-.552 1.118-.945.778-1.476 1.292l.082.123c1.562-.046 1.847-.925 2.357-.995.435-.062 2.065.702 2.603.85.27.074.536.167.82.162.095-.002.223-.053.306-.05.2.007.25.38.708.164.275-.13.293-.522.328-.79.042-.32-.357-.595-.328-.77.04-.246.35.083.42-.133.043-.13-.117-.392-.195-.492-.206-.263-.787-.713-.707-1.096a.25.25 0 0 1 .154-.112l1.896.235c.066.008.355.68.358.748.005.102-.27.795-.328.932-.16.376-.435.65-.43 1.086.005.534.365 1.032.636 1.475.298.492.776.257 1.2.4.178.06.37.182.544.26.55.24 1.167.49 1.75.633.32.077.815-.03 1.004-.328.138-.218-.328-.284-.122-.523.11-.127.245-.12.4-.102.33.037 2.016.24 2.193.052.06-.064-.03-.15-.08-.175-.34-.164-.866-.243-1.24-.348-.452-.128-.92-.16-1.373-.298-.385-.118-.36.276-.636.45-.414.265-1.525-.263-1.66-.74-.13-.457.287-1.035.584-1.342.233-.242.518-.277.75-.462.146-.117.042-.35.04-.5.227-.285 1.083.17 1.434.072.38-.105.096-.608.42-.707.286.08.5.287.79.39.207.075.57.114.707.297.108.146-.003.348-.03.5.1.2.42.25.615.277.316.046.658.027.98.062s.642.125.956.154l1.067.102c.257.123-.063.344.174.84-.253-.037-1.295-.348-1.414 0 .92.857 3.006 1.463 4.242 1.64.757.108 1.557.083 2.316.02.114-.01.215-.028.284-.087.002.005.406-.337.624-.302.297.05.644.62 1.26.855.42.237.82-.174 1.148.01.4.226.65 1.368 1.3 1.19.13-.037.684-.228.76-.303.21-.173-.145-.628-.328-.93-.066-.093-.1-.163-.188-.183-.743-.2-.392-1.037-1.454-1.238l-1.075-.218c-.13-.025-.422.04-.437-.146-.003 0 .08-.09.08-.09l.85-.02-.02-.112c-1.36-.17-2.696-.558-4.058-.72-.102-.06-.23-.374-.215-.47.04-.248.433.214.636-.277.118-.284-.166-.527.062-.666l1.793.236-10.167-2.284-2.203-.512.01-.08 8.926 1.455v-.072l-4.95-1.036-7.44-1.195-4.897-.7-.052.112c.11.134.262.197.4.277.02.033.023.076-.01.102-.21-.022-1.137.038-1.138-.184.346-.328.43-.5.93-.45l2.348.286c4.484.575 9 1.176 13.455 1.947l11.045 1.92c-1.312-.47-7.226-2.128-10.246-2.648-.138-.026-.318-.003-.385-.164zM62.78 24.6c.235.02.362.015.67.077.502.103 1.004.143 1.515.287a.34.34 0 0 1 .182.228c-.03.052-.104.066-.145.066l-1.998-.51zm-11.027-.82l.553-1.3c.02-.092.113-.185.206-.174.123.04.277.062.318.205l-.472 1.015c-.33.43-.092 1.025.02 1.455-.01.062-.072.093-.124.103-.327-.33-.625-.8-.5-1.303zm-4.21-.91c-.126.094-.348.042-.505.02-.19-.105-.232-.326-.254-.537 0-.052.01-.105.064-.148.22 0 .443.054.59.232.064.137.18.284.105.432zm6.723-5.313l.275.127-6.015-.86c-.082-.01-.337-.035-.294-.18.05-.03.112-.052.174-.04zm1.045-1.8l-.042.042c-1.036-.2-2.1-.445-3.115-.727-.078-.022-.26-.037-.236-.153.372-.072 2.074.377 2.5.52.2.065.302.02.493 0 .145.1.292.182.4.317zM19.854 23.72c-.062.123-.04.267.01.38.09.174.276.287.46.308s.205-.206.37-.246c.307.225.287.615.594.83.164.03.39-.072.574-.112.122-.062.245-.185.245-.318-.062-.245-.206-.46-.257-.718-.132-.4-.614-.133-.913-.133-.328.08-.614-.05-.902-.113-.08.01-.13.073-.183.124zm13.937-.236l.072-.082c-.062-.158-.342-.21-.482-.307-.465-.322-.734-.824-1.104-1.238-.136-.152-.326-.26-.453-.4-.083-.092-.608-1.217-.697-1.413l-.113-.062c-.954.053-1.912.064-2.867.09-.414.01-.95.095-1.356.044-.062-.007-.075-.057-.062-.112.904-.305 2.555.182 3.177-.655.085-.113.072-.31.226-.348.164.08.336.157.522.112l.082-.112c-.143-.595-.3-1.22-.686-1.71-.615-.777-2.1-2.4-2.96-2.84-.382-.192-.853-.864-1.004-.625.007.082-.04.156-.092.215-.373.075-.362-.632-.86-.933-.504-.304-1.163-.464-1.742-.338-.7.155-1.445.533-2.1.86l-4.27 2.148c-.674.337-1.352.707-2.042 1.008-.162.07-.397.096-.472.288-.1.254.12.63.328.768.44.293 1.117-.07 1.538-.236l.072.042c-.31.39-.662.4-1.107.493-.353.073-.705.26-1.057.36-.48.136-.95.286-1.423.44-.2.064-.525.1-.472.4-.07.16-.247.138-.388.163-3.02.52-8.935 2.178-10.246 2.648 3.86-.743 6.347-1.106 11.045-1.92 4.455-.772 8.97-1.372 13.455-1.947.78-.1 1.566-.215 2.348-.286.502-.047.586.124.93.45-.001.22-.93.162-1.138.184-.033-.026-.03-.07-.01-.102.148-.08.3-.142.4-.277l-.052-.112c-1.633.14-3.278.442-4.897.7l-7.44 1.195c-1.657.3-3.295.72-4.95 1.036v.072c2.993-.318 5.944-1.037 8.926-1.455l.01.08c-.72.223-1.47.34-2.203.512L8.03 22.55l1.793-.236c.227.14-.057.382.062.666.203.49.595.03.636.277.016.096-.113.41-.215.47-1.36.16-2.696.547-4.058.72l-.02.112.85.02a2.14 2.14 0 0 0 .079.089c-.015.186-.308.12-.437.146-.48.09-.597.13-1.075.218-1.062.202-.71 1.05-1.454 1.238-.076.02-.122.09-.188.183-.182.303-.538.76-.328.93.076.074.63.266.76.303.64.18.9-.962 1.3-1.19.328-.185.727.226 1.148-.01.618-.236.964-.805 1.26-.855.217-.035.623.307.625.302.07.06.17.078.284.087.76.063 1.56.088 2.316-.02 1.236-.177 3.323-.782 4.242-1.64-.12-.348-1.16-.037-1.415 0 .236-.497-.082-.717.174-.84l1.067-.102c.315-.03.637-.12.956-.154s.665-.016.98-.062c.196-.03.514-.087.615-.277-.028-.154-.14-.357-.03-.5.136-.182.5-.22.707-.297.28-.102.503-.308.79-.39.324.098.04.6.42.707.35.096 1.207-.358 1.434-.072-.001.153-.105.385.04.5.23.185.514.22.75.462.297.308.713.886.584 1.342-.134.476-1.246 1.004-1.66.74-.274-.175-.25-.57-.636-.45-.453.138-.922.17-1.373.298-.374.104-.9.183-1.24.348-.052.026-.14.11-.08.175.176.19 1.864-.015 2.193-.052.154-.017.29-.025.4.102.206.24-.26.305-.122.523.19.297.684.404 1.004.328.584-.14 1.2-.39 1.75-.633.175-.077.366-.2.544-.26.433-.142.91.092 1.2-.4.27-.443.63-.94.636-1.475.005-.436-.272-.7-.43-1.086-.057-.137-.333-.83-.328-.932.004-.068.293-.74.358-.748l1.896-.235a.25.25 0 0 1 .154.112c.08.383-.5.833-.707 1.096-.077.098-.237.36-.195.492.07.216.38-.112.42.133.03.175-.368.448-.328.77.034.267.053.66.328.79.458.216.5-.157.708-.164.08-.004.21.047.306.05.285.004.55-.088.82-.162.538-.148 2.168-.912 2.603-.85.51.07.794.95 2.357.995l.082-.123c-.53-.513-.924-.174-1.477-1.292-.147-.298-.4-.636-.635-.87-.01-.048.01-.103.06-.113.948.336 1.09 1.816 2.504 1.7zM13.5 24.6l-.224.148-1.998.51c-.04 0-.114-.015-.145-.066.01-.082.1-.198.182-.228.51-.144 1.014-.185 1.515-.287.308-.064.435-.06.67-.078zm11.027-.82c.123.513-.175.973-.5 1.302-.052-.01-.113-.042-.124-.103.113-.43.35-1.024.02-1.455l-.472-1.015c.042-.143.196-.164.318-.205.093-.01.185.08.206.174zm-.164-8.873c.023.116-.158.132-.236.153-1.016.282-2.08.526-3.115.727l-.042-.042c.108-.135.255-.226.4-.318.19.02.303.065.493 0 .428-.143 2.13-.592 2.502-.52zm3.39 1.916l-6.015.86.275-.127 5.86-.953c.062-.01.123.01.174.04.043.143-.212.17-.294.18zm1.743 5.53c-.022.212-.064.433-.254.537-.158.02-.38.073-.505-.02-.074-.147.042-.295.105-.432.147-.18.368-.232.59-.232.053.042.064.095.064.148zm-17.35-6.596c.24-.966-1.396-1.163-2.008-1.29-.127-.027-.892-.174-.78-.38.013-.024.3-.284.368-.38l-.072-.082c-.235-.018-1.938.4-2.223.493-.073.027-.113.097-.144.164.173.274-.1.53-.03.8.04.193.768.143.42.502l-.553.072c-.247-.108.072-.358-.215-.42-.228.084-.6.156-.708.4-.102.212-.1.572.032.77.24.36.707.474 1.117.4.638-.115 1.303-.223 1.927-.4.235-.317.7-.22 1.025-.328.278.105-.712.89-.83 1.046-.125.168-.345.666-.38.87-.073.445.19.98.595 1.18.36.178.68.08 1.024-.052.29-.11 1.187-.35 1.27-.665-.08-.233-1.587.04-1.886-.165-.142-.096.07-.323.112-.43.2-.5 1.825-1.657 1.937-2.11zM4.6 25.02c-.052-.162-1.063.018-1.118.214-.08.287.76.664 1.118-.214zm-2.262 1.76c.02.032.14.09.192.122.215.115.418.32.56.135.074-.094.47-.777.544-1.035.03-.104-.04-.252-.287-.262h-.05c-.644.065-.848.62-.96 1.04zM72.8 25.232c-.057-.196-1.068-.375-1.118-.214.36.878 1.2.5 1.118.214zm-.153.77c.074.257.47.94.544 1.035.143.185.347-.02.56-.135.053-.033.17-.1.192-.122-.112-.42-.317-.975-.96-1.04h-.05c-.247.01-.317.158-.287.262z" fill="#dd0741"/><path d="M59.336 33.168v-6.58h-1.227v6.58c0 2.337-.27 2.887-.814 3.836C53.137 43.22 46.11 46.62 38.14 46.62s-14.995-3.398-19.15-9.615c-.544-.95-.815-1.5-.815-3.836v-6.592h-1.228v6.592c0 2.484.298 3.263.98 4.45l.045.072c4.54 6.793 12.083 10.16 20.172 10.16s15.63-3.368 20.173-10.16l.044-.072c.68-1.185.977-1.964.977-4.45zM28.9 14.625c.59-1.316 1.234-2.442 1.563-2.99a11.01 11.01 0 0 0-2.192 3.032c.116.1.233.203.352.312l.277-.353zM47.89 40.49l2.04-1.28-.46-.734-1.277.8-1.83-5.755-.44-.704-2.04 1.28.46.734 1.277-.8 1.83 5.754zM46.886 15.7c-1.073-.745-2.665-1.535-2.665-1.535-1.133 1.596-2.075 3.568-2.075 3.568.558 1.166 1.393 2.482 1.852 3.295.618-.906.87-1.76 1.255-2.984.28-.9.656-1.37 1.634-2.344zm-9.435 2.077s-1.37-2.18-2.802-3.807c0 0-3.02 1.347-4.13 1.926l-.05.824c.017.056.416.63.584 1.253l.34 1.08.076.232a9.59 9.59 0 0 0 .306.781c.114.258.246.525.392.77.116.195.26.372.43.52s.346.238.54.292c.522.145 1.11.3 1.748.453 0 0 1.905-3.038 2.567-4.323zm.7-9.287a10.94 10.94 0 0 0-3.536.586l2.088 1.648s2.55-.24 4.84.053a5.5 5.5 0 0 0 .579-1.283c2.42 1.145 4.333 3.178 5.33 5.675a11.99 11.99 0 0 1 .567-.513c-1.784-3.65-5.53-6.166-9.867-6.166zm14.167 28.927l.614-.61-5.313-5.357-.614.6 5.28 5.323zm.43-5.82l2.09 1.32-.36.573-4.916-3.1.36-.573.662.418.462-.732-.428-.27c-.19-.12-.413-.185-.64-.185-.42 0-.8.2-1.02.56a1.21 1.21 0 0 0 .376 1.661l4.45 2.804c.192.12.413.185.64.185a1.2 1.2 0 0 0 1.022-.56c.354-.56.184-1.307-.378-1.66l-2.6-1.634-.64 1.014.733.462zM43.9 42.105l-.975-3.193.692-.212c.208-.063.382-.206.484-.398s.123-.417.06-.625l-.75-2.455c-.106-.348-.42-.58-.782-.58-.08 0-.162.012-.24.036l-1.52.465 2.204 7.214zm-1.23-4.022l-.722-2.364.647-.198.722 2.364zm-2.27 4.72l-.653-7.516-.862.075.653 7.516zm-3.26-.736l-1.53-.182.29-2.456 1.15.137.102-.86-1.15-.137.29-2.456 1.53.182.102-.86-1.578-.188c-.456-.055-.856.273-.91.717l-.696 5.865a.82.82 0 0 0 .716.91l1.578.188zm1-11.614c4.2 0 7.847-2.36 9.692-5.824l-.013-.004c-.216-.06-.54-.187-.913-.334-.017-.007-.037-.014-.054-.02a10.68 10.68 0 0 1-4.085 4.114l-.875-2.46-4.753.13-1.86 2.61s.78.585 2.175 1.078c-2.298-.024-4.416-.78-6.143-2.042a1.75 1.75 0 0 0 .157-.149s-1.288-1.854-2.075-3.268c-.006.003-.014.006-.02.008-.373.147-.696.274-.913.334l-.013.004c1.846 3.465 5.494 5.824 9.693 5.824zm-5.098 10.963l-1.458-.502 2.178-6.313-.817-.282-2.46 7.13 2.276.785zm-5.144-5.62a.75.75 0 0 0 .102.007c.19 0 .35-.083.504-.264l1.54-1.787a.81.81 0 0 0-.084-1.154l-1.204-1.038-4.926 5.716 1.204 1.038a.82.82 0 0 0 1.155-.086l1.48-1.716c.233-.272.308-.498.23-.716zm-.675-.046l-.02.024-1.636 1.898-.56-.484 1.655-1.922zm.52-.652l-.512-.442 1.615-1.873.512.442zm-3.727-2.838l.388.555-2.244 1.57c-.17.12-.297.322-.372.47l-.013.026.516.737.036-.072c.084-.173.164-.337.33-.453l2.035-1.424c.295-.207.42-.406.4-.637.07.028.15.05.24.05.132 0 .267-.05.41-.15l1.932-1.353a.81.81 0 0 0 .338-.528c.038-.215-.01-.432-.136-.612l-.912-1.302-6.18 4.327.496.708zm.664-.503l.026-.018 2.052-1.436.424.607-.026.018-2.052 1.436zm33.427-17.853l1.228.57V2.533h-42.39v11.93l1.228-.576V3.763h39.934z" fill="#001f47"/></svg>