<svg xmlns="http://www.w3.org/2000/svg" xmlns:xlink="http://www.w3.org/1999/xlink" width="287.737" height="347.539" viewBox="0 0 595.28 719" xmlns:v="https://vecta.io/nano"><style><![CDATA[.B{clip-path:url(#B)}]]></style><defs><path id="A" d="M0-57.445h595.28v841.9H0z"/></defs><clipPath id="B"><use xlink:href="#A"/></clipPath><path d="M478.747 358.1v-9.15l9.154-1.82v9.152l-9.154 1.82zm-348.69 69.36v-55.995l9.617-1.915v47.622l15.124-3.01v8.376l-24.74 4.92zm30.635-6.094V365.37l25.75-5.123v8.376l-16.133 3.21v14.426l12.41-2.468v8.376l-12.41 2.47v16.442l17.218-3.425v8.375l-26.835 5.338zm54.056-66.748l9.463-1.882-11.71 58.324-9.618 1.914-11.71-53.667 9.462-1.883 6.98 37.467 7.135-40.273zm23.5 30.536l7.755-1.542-3.8-23.287-3.955 24.83zm-3.103 21.403l-9.307 1.852 10.315-58.048 11.944-2.375 10.315 53.943-9.306 1.85-1.706-12.068-10.55 2.098-1.706 12.747zm28.85-5.74V344.82l8.918-1.774 11.712 29.702.154-32.062 8.687-1.728v55.995l-8.376 1.667-12.254-32.54-.155 35.008-8.686 1.727zm44.362-56.444l-9.306 1.85v-8.375l28.23-5.616v8.376l-9.306 1.85v47.62l-9.618 1.913v-47.62zm24.587 42.73v-55.996l25.75-5.12v8.375l-16.133 3.21v14.426l12.41-2.47v8.376l-12.41 2.47v16.442l17.217-3.424v8.375l-26.833 5.338zm51.65-66.27l9.616-1.913v42.27c0 4.084 1.707 5.787 5.12 5.108s5.118-3.06 5.118-7.145v-42.27l9.618-1.913v41.88c0 4.86-1.32 8.818-3.955 11.877-2.586 3.048-6.18 5.03-10.78 5.943s-8.22.37-10.858-1.64c-2.584-2.02-3.877-5.46-3.877-10.32v-41.88zm38.157 48.404v-9.15l9.152-1.822v9.152l-9.152 1.82zm27.455-13.37l3.335-.663c2.586-.514 4.37-1.438 5.353-2.77 1.034-1.343 1.55-3.488 1.55-6.435v-24.51c0-2.947-.517-4.887-1.55-5.818-.983-.942-2.767-1.157-5.353-.643l-3.335.664v40.175zm-9.617-46.172l14.27-2.84c5.015-.997 8.79-.38 11.324 1.858 2.585 2.227 3.877 6.234 3.877 12.025v22.183c0 5.8-1.292 10.312-3.877 13.567-2.533 3.245-6.3 5.365-11.324 6.362l-14.27 2.84v-55.996z" class="B"/><path d="M236.94 48.59c0-30.957.058-30.967 30.967-30.967 11.54 0 21.605 6.31 26.932 15.67h8.35c5.328-9.36 15.395-15.67 26.934-15.67 30.91 0 30.966.01 30.966 30.967 0 16.248-12.512 29.573-28.427 30.865-1.79 4.94-2.766 10.27-2.766 15.827 0 25.652 20.794 46.448 46.447 46.448s46.45-20.796 46.45-46.448c0-17.493-9.67-32.727-23.956-40.65l10.847-22.048c161.313 44.87 227.454 215.453 112.743 423.326 5.904 7.79 9.407 17.5 9.407 28.026 0 25.65-20.795 46.448-46.45 46.448-3.46 0-6.83-.378-10.07-1.095-33.642 45.953-75.975 93.14-127.826 140.698-45.202 41.46-51.86 41.363-96.852.11-51.903-47.594-94.272-94.813-127.94-140.798-3.23.7-6.584 1.085-10.026 1.085-25.652 0-46.447-20.797-46.447-46.448a46.24 46.24 0 0 1 9.373-27.985C-39.148 248.06 26.99 77.458 188.315 32.586l10.847 22.046c-14.288 7.92-23.96 23.156-23.96 40.65 0 25.652 20.796 46.448 46.45 46.448s46.447-20.796 46.447-46.448c0-5.56-.976-10.9-2.767-15.83-15.896-1.308-28.4-14.626-28.4-30.862m78.508 522.576c7.27-2.288 13.525-5.618 18.16-8.9a58.56 58.56 0 0 1-18.161 8.89m18.16-8.9c1.7-1.236 3.335-2.563 4.893-3.97-1.324 1.26-2.97 2.612-4.893 3.97" class="B"/><path fill="#fff" d="M478.748 358.1l9.152-1.82v-9.152l-9.152 1.82v9.15zm-348.692 69.36l24.74-4.92v-8.376l-15.123 3.01v-47.62l-9.617 1.914v55.995zm30.635-6.094l26.835-5.338v-8.375l-17.218 3.425v-16.442l12.41-2.47V383.8l-12.41 2.468v-14.426l16.132-3.21v-8.376l-25.75 5.124v55.994zm54.056-66.748l-7.135 40.275-6.98-37.467-9.463 1.882 11.712 53.667 9.617-1.914 11.712-58.325-9.463 1.882zm20.396 51.94l1.707-12.748 10.548-2.098 1.706 12.068 9.307-1.85-10.315-53.944-11.944 2.376-10.315 58.048 9.306-1.85zm28.852-5.74l8.686-1.728.155-35.008 12.253 32.54 8.377-1.667v-55.996l-8.687 1.728-.155 32.063-11.71-29.7-8.918 1.774v55.995zm44.36-56.444v47.62l9.62-1.913v-47.62l9.306-1.85v-8.375l-28.23 5.615v8.376l9.304-1.852zm24.587 42.73l26.834-5.338V373.4l-17.217 3.424V360.37l12.41-2.468v-8.376l-12.41 2.468V337.57l16.132-3.21v-8.375l-25.75 5.122v55.996zm51.65-66.27v41.88c0 4.86 1.293 8.3 3.877 10.32 2.638 2.007 6.257 2.553 10.858 1.638s8.194-2.896 10.78-5.943c2.636-3.06 3.955-7.018 3.955-11.878v-41.88l-9.617 1.913v42.268c0 4.085-1.706 6.466-5.118 7.145s-5.118-1.024-5.118-5.108v-42.27l-9.617 1.913zm38.158 48.404l9.15-1.82v-9.15l-9.15 1.82v9.15zm17.838-59.542v55.996l14.27-2.84c5.017-.997 8.79-3.117 11.325-6.362 2.585-3.255 3.876-7.777 3.876-13.568V320.74c0-5.79-1.29-9.8-3.876-12.025-2.534-2.237-6.31-2.856-11.325-1.858l-14.27 2.84zm77.07-23.096c2.014 22.644.486 47.24-5.063 73.41l-399.485 79.462c-11.114-23.35-19.285-45.91-24.773-67.475L517.66 286.6zm-279.413 98.554l3.955-24.83 3.8 23.287-7.754 1.542zm211.96-29.286v-40.175l3.335-.664c2.586-.514 4.368-.3 5.352.642 1.034.932 1.55 2.87 1.55 5.82v24.508c0 2.947-.517 5.093-1.55 6.436-.983 1.332-2.766 2.256-5.352 2.77l-3.335.664z" class="B"/><path fill="#b4053f" d="M435.413 521.784c-23.298 31.99-51.938 64.91-86.46 98.323v-62.97c9.737-11.43 15.616-26.25 15.616-42.442a65.22 65.22 0 0 0-15.616-42.442v-72.865l86.46-17.198v139.595zm-86.46-287.525c3.835 1.315 7.94 2.026 12.225 2.026 4.1 0 7.983-.83 11.887-1.805 4.803 11.18 14.815 19.602 26.953 22.234l35.396 7.04v32.38l-86.46 17.198V234.26zm-99.86 385.758c-34.537-33.435-63.18-66.372-86.476-98.38v-85.185l86.476-17.2v53.18c-9.65 11.404-15.468 26.155-15.468 42.265a65.21 65.21 0 0 0 15.468 42.266v63.056zM162.617 263.99l35.503-7.277c12.144-2.633 22.16-11.06 26.96-22.248 3.916.983 7.8 1.82 11.927 1.82 4.225 0 8.294-.697 12.086-1.978v98.887l-86.476 17.2V263.99z" class="B"/><path fill-rule="evenodd" fill="#dca43e" d="M351.613 541.12c-.56-10.408-10.983-16.987-24.356-13.267-.12-12.02-13.692-18.27-27.433-15.513-11.965-13.408-7.917-29.854 14.434-26.367 12.978 2.024 32.564 11.905 43.52 32.094a58.44 58.44 0 0 1-6.166 23.053m-101.5 6.07c9.217 4.464 19.927-1.262 23.38-14.52 10.482 5.978 22.72-2.655 27.214-15.96 17.6-3.665 29.824 8.065 15.63 25.68-8.198 10.172-26.392 22.117-49.176 21.653a59.08 59.08 0 0 1-17.046-16.853m14.816-80.33c-8.78 18.98-7.264 38.83-2.666 50.726 2.08 5.386 4.593 9.338 7.332 12.07-3.357 17.82-20.622 20.933-27.34.054-1.263-4.794-1.935-9.827-1.935-15.018 0-19.72 9.71-37.17 24.608-47.832m30.757-10.846c-8.83 5.647-9.376 18.003.532 27.76-10.362 6.107-8.995 20.99.26 31.515-5.628 17.07-21.896 21.8-30.052.69-4.73-12.238-5.97-34.107 5.993-53.674 7.052-3.598 14.926-5.814 23.266-6.3m61.95 53.354c-12.047-17.182-30.055-25.836-42.692-27.807-5.734-.896-10.434-.69-14.182.333-14.107-12.123-7.5-29.177 15.304-23.307 6.942 1.786 18.312 7.664 27.596 17.777 7.77 9.03 12.847 20.448 13.974 33.004m-24.027 52.907c1.924-1.358 3.57-2.71 4.894-3.97-1.56 1.408-3.193 2.734-4.894 3.97m-18.16 8.9c-5.19 1.5-10.677 2.304-16.35 2.304-8.67 0-16.9-1.876-24.31-5.246 20.712-1.95 37.05-13.14 45.022-23.03 3.647-4.526 5.82-8.703 6.807-12.462 17.58-6.203 29.086 8.058 12.584 24.887l-.698.69c-1.323 1.26-2.97 2.61-4.894 3.97-5.428 3.943-11.555 6.98-18.16 8.89m0 0c6.606-1.91 12.733-4.946 18.16-8.9-4.635 3.273-10.89 6.602-18.16 8.9" class="B"/><path fill="#005ca5" d="M255.788 465.592V417.92l86.468-17.198v64.74c-11.524-10.11-26.625-16.238-43.158-16.238-16.606 0-31.768 6.18-43.3 16.37m-99.866 46.662c-15.898-22.733-29.093-44.972-39.787-66.556l39.787-7.915v74.47zm186.334 114.27l-11.98 11.173c-3.223 2.958-25.39 25.55-30.69 25.694-5.695.153-28.464-22.7-31.728-25.694l-12.07-11.263v-62.638c11.542 10.188 26.704 16.37 43.3 16.37 16.533 0 31.634-6.128 43.158-16.236v62.595zM511 367.155c-10.602 44.647-32.8 93.676-68.882 145.253v-131.55L511 367.155zm-424.234-1.67c-8.304-35.856-9.117-68.85-3.654-98.04 5.165-27.595 19.404-41.127 29.63-41.127 4.89 0 8.85 3.963 8.85 8.85 0 4.816-3.89 8.85-9.105 8.847l-6.774-.001.33 28.98c-.043.13 9.777-.03 20.2-1.97l29.678-5.703v86.406l-69.166 13.758zm355.352-100.4l29.786 5.925c7.525 1.483 14.262 2.145 20.2 1.986l.33-28.98-6.774.001c-5.214.002-9.104-4.03-9.104-8.847a8.85 8.85 0 0 1 8.849-8.851c10.227 0 24.465 13.532 29.63 41.127.766 4.082 1.405 8.24 1.922 12.468l-74.85 14.89v-29.717zm-186.32-33.8c3.462-1.992 6.57-4.512 9.228-7.456 9.214 7.675 21.086 12.304 34.072 12.328 12.96 0 24.85-4.636 34.08-12.327 2.616 2.9 5.686 5.396 9.087 7.374v83.46l-86.468 17.2v-100.58z" class="B"/><path fill="#b2b2b2" d="M428.01 57.58C514.85 91.194 567.49 168.997 561.5 273.737c-1.328-72.9-34.878-130.252-90.21-163.94l-3.88-2.254c-7.23 35.697-36.563 63.41-74.437 63.41-22.444 0-41.995-9.306-55.315-23.985 10.7 7.926 23.927 12.616 38.26 12.616 35.514 0 64.302-28.788 64.302-64.3 0-14.093-4.536-27.12-12.212-37.705m-258.45 0c-7.675 10.585-12.212 23.613-12.212 37.705 0 35.513 28.79 64.3 64.302 64.3a64.02 64.02 0 0 0 38.261-12.616c-13.32 14.68-32.87 23.985-55.315 23.985-37.875 0-67.206-27.714-74.437-63.41l-3.88 2.254c-55.33 33.688-88.882 91.05-90.21 163.94-5.988-104.74 46.652-182.545 133.5-216.158" class="B"/><path fill="#fac400" d="M299.094 229.46a46.51 46.51 0 0 1-34.97-15.816c-5.3 9.512-15.457 15.946-27.117 15.946a31.08 31.08 0 0 1-7.677-.957 40.19 40.19 0 0 0 1.042-9.12 40.61 40.61 0 0 0-.654-7.271c2.19 1.187 4.7 1.86 7.366 1.86 8.562 0 15.504-6.94 15.504-15.504l-.035-10.478h15.987c2.48 14.632 15.216 25.773 30.554 25.773s28.074-11.14 30.554-25.773h15.987l-.04 10.478c0 8.563 6.94 15.504 15.503 15.504 2.647 0 5.137-.663 7.316-1.832a40.49 40.49 0 0 0-.65 7.243 40.23 40.23 0 0 0 1.045 9.131 31.07 31.07 0 0 1-7.633.946c-11.66 0-21.818-6.434-27.117-15.946-8.533 9.697-21.035 15.817-34.966 15.817m-170.817 5.708a15.55 15.55 0 0 0-15.546-15.546c-15.535 0-30.947 18.467-36.2 46.6-18.273 97.63 31.548 234 186.812 376.42 40.833 37.456 32.5 35.75 71.472 0C490.07 500.2 539.89 363.84 521.617 266.212c-5.264-28.123-20.675-46.6-36.21-46.6-8.586 0-15.545 6.96-15.545 15.546s6.96 15.545 15.803 15.543l-.18 15.588c-17.18 0-31.104-13.925-31.104-31.104s13.925-31.104 31.215-31.103c30.93.14 44.353 31.3 49.76 62.1 18.206 103.675-36.326 243.96-191.5 386.308-47.893 43.935-41.686 43.93-89.575 0C99.107 510.152 44.575 369.866 62.78 266.19c5.408-30.798 18.83-61.96 49.762-62.1 17.29-.001 31.215 13.925 31.215 31.103S129.832 266.3 112.654 266.3l-.18-15.588c8.842.002 15.802-6.958 15.802-15.543m58.576-46.685c.975-.22 2.062-.33 3.23-.33 17.32 0 31.36 14.04 31.36 31.36 0 15.03-10.574 27.585-24.687 30.645l-53.296 10.6c5.76-6.934 9.222-15.843 9.222-25.562 0-15.504-8.813-28.948-21.703-35.598l55.872-11.114zm224.433 0l55.87 11.114c-12.89 6.65-21.702 20.094-21.702 35.598 0 9.72 3.464 18.628 9.224 25.562l-53.295-10.6c-14.114-3.06-24.688-15.616-24.688-30.645 0-17.32 14.04-31.36 31.362-31.36 1.166 0 2.253.11 3.23.33" class="B"/></svg>