<?xml version="1.0" encoding="UTF-8"?>
<svg version="1.1" viewBox="0 0 500 700" xml:space="preserve" xmlns="http://www.w3.org/2000/svg" xmlns:cc="http://creativecommons.org/ns#" xmlns:dc="http://purl.org/dc/elements/1.1/" xmlns:rdf="http://www.w3.org/1999/02/22-rdf-syntax-ns#"><metadata><rdf:RDF><cc:Work rdf:about=""><dc:format>image/svg+xml</dc:format><dc:type rdf:resource="http://purl.org/dc/dcmitype/StillImage"/><dc:title/></cc:Work></rdf:RDF></metadata><g transform="matrix(1.0063 0 0 1.001 -2.5762 -.19675)"><path d="m215.08 699.02c-59.83-3.0155-117.17-12.365-160.69-26.203l-12.327-3.9194-0.2698-6.8958-0.2698-6.8958-6.6739-0.39255c-8.2734-0.48664-18.473-2.5551-26.97-5.4695-6.1762-2.1183-6.3479-2.2552-3.6792-2.933 6.8372-1.7365 20.061-10.776 20.061-13.713 0-0.49374-1.9165-2.7608-4.2589-5.038-5.8461-5.6832-12.484-20.531-12.526-28.018l-0.011075-1.9915 5.6678 2.29c7.3931 2.987 18.32 3.6888 34.339 2.2056 14.297-1.3237 19.449-0.55653 24.488 3.6458 3.0875 2.575 3.1638 2.8144 3.6205 11.352l0.46654 8.7215 12.597 3.0105c32.212 7.6983 73.491 13.527 114.29 16.137 19.166 1.2262 75.752 1.2236 95.658-5e-3 40.909-2.5236 81.987-8.2977 114.77-16.132l12.597-3.0105 0.46654-8.7216c0.45796-8.5611 0.5253-8.7706 3.6601-11.385 4.8029-4.0058 10.721-4.9774 22.862-3.7532 18.503 1.8658 31.051 0.83325 38.841-3.1961 2.6597-1.3757 2.7526-1.352 2.7419 0.69996-0.0392 7.5403-6.5817 22.301-12.515 28.236-2.3482 2.3488-4.2694 4.626-4.2694 5.0605s1.8516 2.4971 4.1147 4.5837c4.2586 3.9265 11.079 7.7849 15.947 9.0212 2.6686 0.67779 2.497 0.81465-3.6792 2.933-8.5131 2.9198-18.094 4.8568-26.685 5.3953l-6.959 0.4361-0.26988 6.9165-0.26989 6.9164-12.327 3.8799c-41.422 13.038-89.798 21.47-145.29 25.324-19.878 1.3807-67.938 1.8807-87.244 0.90768z" fill="#fe0000"/><path d="m75.285 612.42c-5.6658 5.3581-24.198-0.38674-33.201 2.3574 11.258 3.6976 22.196 8.2416 33.957 10.875l-0.46094-8.6055c-0.1041-1.946-0.19018-3.4173-0.29492-4.627z"/><path d="m426.73 612.19c-0.11275 1.2414-0.20061 2.7945-0.31054 4.8496l-0.4629 8.6621c11.852-2.6249 22.862-7.2088 34.197-10.932-9.125-2.7812-28.038 3.1578-33.424-2.5801z"/><g fill="#fff"><path d="m58.748 666.26 23.99 5.6698 1.8084-7.6517-15.258-3.6061 5.6379-23.855-8.732-2.0637-7.4462 31.507z"/><path d="m84.788 672.29 8.8215 1.8758 6.7336-31.667-8.8215-1.8758-6.7336 31.667z"/><path d="m97.477 675.09 8.734 1.6037 3.2073-17.468 10.394 19.965 7.7332 1.4199 5.8467-31.843-8.734-1.6037-3.0904 16.831-10.011-19.237-8.2336-1.5118-5.8467 31.843z"/><path d="m146.59 684.03c7.0966 1.0146 11.61-1.4704 15.227-5.2048l-6.0038-5.7173c-2.2568 2.0601-4.4481 3.3353-7.7903 2.8574-4.4869-0.64148-7.1092-4.8475-6.4219-9.6548l0.0131-0.0916c0.66767-4.67 4.3701-8.0185 8.857-7.377 3.0676 0.43856 4.9642 2.2048 6.4683 4.7558l7.4242-4.218c-2.2757-4.3433-6.0951-7.6926-12.642-8.6286-9.7063-1.3877-17.942 4.9101-19.277 14.25l-0.0131 0.0916c-1.3681 9.569 5.0017 17.628 14.159 18.937z"/><path d="m177.87 687.79c9.9406 0.99273 18.145-5.7642 19.069-15.014l9e-3 -0.092c0.92379-9.2502-5.6996-17.395-15.64-18.388-9.9406-0.99273-18.145 5.7642-19.069 15.014l-9e-3 0.092c-0.92379 9.2502 5.6996 17.395 15.64 18.388zm0.89634-8.0445c-4.8782-0.48718-7.8333-4.8725-7.3691-9.5207l9e-3 -0.092c0.46419-4.6481 4.1269-8.2796 9.0052-7.7924 4.9242 0.49177 7.8794 4.8771 7.4152 9.5253l-9e-3 0.092c-0.46419 4.6481-4.1269 8.2796-9.0512 7.7879z"/><path d="m197.96 688.97 24.609 1.4414 0.45973-7.849-15.652-0.91677 1.4333-24.471-8.9572-0.52464-1.893 32.32z"/><path d="m224.47 690.53 8.8786 0.15777 0.31554-17.757 13.511 18.003 7.8613 0.13969 0.5752-32.37-8.8786-0.15777-0.30403 17.11-13.014-17.346-8.3699-0.14873-0.57521 32.37z"/><path d="m287.21 690.76c7.1615-0.32218 11.134-3.6028 13.995-7.9445l-6.9619-4.5017c-1.8345 2.4437-3.7506 4.104-7.1234 4.2557-4.5279 0.20371-7.8864-3.4415-8.1046-8.2929l-4e-3 -0.0924c-0.21202-4.7127 2.8035-8.691 7.3314-8.8947 3.0956-0.13926 5.2875 1.2436 7.2395 3.4706l6.5108-5.5244c-3.0434-3.8446-7.4188-6.4256-14.026-6.1283-9.7951 0.44066-16.716 8.1595-16.292 17.585l4e-3 0.0924c0.43443 9.6565 8.1912 16.391 17.432 15.975z"/><path d="m303.44 689.18 8.9927-0.68534-2.4602-32.281-8.9927 0.68535 2.4602 32.281z"/><path d="m324.27 687.42 8.923-0.94143-2.572-24.377 9.6589-1.0191-0.82497-7.8191-28.241 2.9796 0.82497 7.8191 9.6589-1.0191 2.5719 24.377z"/><path d="m354.02 683.84 8.9216-1.3201-1.794-12.124 9.2251-21.703-9.9282 1.469-4.9077 12.648-8.3146-10.692-10.111 1.4961 15.135 18.239 1.7737 11.987z"/><path d="m388.47 678.19 8.7831-1.8337-2.363-11.318 14.986-3.1287-1.5218-7.2891-14.986 3.1287-1.1248-5.3876 16.57-3.4595-1.6069-7.6966-25.353 5.2932 6.6165 31.692z"/><path d="m431.13 669.25c6.9519-1.75 10.187-5.7598 12.12-10.586l-7.7224-3.0161c-1.3079 2.7616-2.8526 4.772-6.1268 5.5962-4.3954 1.1064-8.4159-1.7923-9.6014-6.5016l-0.0226-0.0897c-1.1516-4.5748 1.006-9.0764 5.4014-10.183 3.005-0.75644 5.4294 0.15943 7.788 1.9504l5.2724-6.7165c-3.7517-3.1572-8.5554-4.8095-14.969-3.195-9.5084 2.3935-14.744 11.342-12.44 20.492l0.0226 0.0897c2.3597 9.3738 11.308 14.418 20.278 12.16z"/></g></g><g><path d="m362.54 132.1c-10.975-0.88826-12.234 0.87205-16.928 10.359-2.3573 4.7643-2.7869 6.5529-2.3008 9.5778 1.1295 7.028-4.7449 18.192-12.483 23.724-3.5515 2.5387-4.6805 4.0263-5.5198 7.2731-3.8971 15.076-5.53 22.866-4.9283 23.511 0.38212 0.40953 3.6987 1.784 7.3702 3.0544 7.7594 2.6849 22.984 4.383 32.026 3.5721 9.0263-0.80946 22.801 0.96231 27.377 3.5214 2.1985 1.2294 5.1626 4.2002 7.1236 7.1398 8.1385 12.2 24.427 51.428 29.549 71.163 3.4944 13.465 3.7812 22.541 0.94535 29.919-2.2464 5.8439-14.905 29.233-19.147 35.378-9.0412 13.097-29.44 29.448-42.852 34.351-6.3784 2.3314-9.9157 5.3035-12.288 10.324l-2.115 4.4769 2.6931 1.8643c4.9925 3.4562 14.343 13.372 18.228 19.33 4.9596 7.6055 10.245 18.65 14.007 29.272 4.3519 12.285 2.9726 16.259-5.6638 16.319-9.8543 0.0683-24.924-6.8987-36.558-16.902-4.1096-3.5334-7.8864-6.4244-8.3927-6.4244-1.4641 0-3.5246 8.0376-8.9913 35.074-8.5456 42.263-12.019 64.637-12.105 77.968-0.0672 10.442 0.21899 12.617 2.7049 20.553 3.159 10.085 3.862 22.101 1.5454 26.417-2.3021 4.2891-9.6808 6.0072-18.888 4.398-13.195-2.3061-14.378-2.2631-22.986 0.83604-8.7798 3.1609-12.367 3.575-14.914 1.7214l-5e-5 -7e-5c-2.434-1.7708-3.5049-7.9181-2.4756-14.21 1.3065-7.9871 5.5091-16.058 11.579-22.235 2.9227-2.9746 6.0215-6.7583 6.8863-8.4081 2.0414-3.8944 2.0607-11.39 0.0643-24.954-0.86975-5.909-2.0165-14.838-2.5482-19.842-0.68386-6.435-1.8453-11.22-3.9681-16.349-4.1471-10.019-4.2726-19.409-0.37806-28.271 4.415-10.046 4.3426-10.873-1.7983-20.511-3.1632-4.9647-6.0114-8.45-6.9051-8.4495-2.1123 9.4e-4 -13.21 2.3278-28.751 6.0279-25.101 5.9763-41.222 7.57-52.581 5.198-6.4177-1.3402-23.878-7.3997-29.403-10.204-2.0341-1.0325-3.9617-2.5602-4.2836-3.3948-1.3803-3.579-0.57729-20.843 1.2397-26.651l1.8249-5.8341-8.6323-8.9861c-4.7478-4.9423-11.003-11.708-13.901-15.036-3.591-4.123-7.6931-7.4775-12.88-10.533-5.2531-3.0943-9.4387-6.5318-13.51-11.095-3.2443-3.6367-8.3233-8.253-11.287-10.258-6.2066-4.2-8.7373-6.6783-10.775-10.552-1.7128-3.2555-1.8411-11.602-0.22459-14.607 0.90945-1.6908 0.79885-4.8056-0.55064-15.507-1.48-11.736-1.5488-14.92-0.55646-25.761 0.62272-6.8035 1.7113-15.605 2.419-19.558 2.6957-15.059 12.967-33.402 26.344-47.048 7.7141-7.8693 9.3914-9.0741 19.248-13.826 11.407-5.4993 23.227-9.3068 34.21-11.02 7.3884-1.1526 13.54-4.1598 15.928-7.7869 1.2864-1.9535 1.3991-3.0427 0.6079-5.8772-0.53414-1.9136-0.97353-4.6175-0.9764-6.0086-4e-3 -1.8118-0.98171-3.2694-3.4475-5.1383-6.1162-4.6355-7.6743-6.5233-8.7916-10.652-0.78632-2.9055-2.5417-5.4347-6.1978-8.93-7.2284-6.9104-9.0845-11.527-8.3094-20.669 0.33584-3.9609 0.22439-8.2121-0.24767-9.4471-0.84603-2.2134-0.95779-2.1596-7.8263 3.7684-9.8782 8.5257-11.858 9.7474-18.546 11.447-8.0215 2.0385-13.529 1.911-18.12-0.41917-2.0909-1.0614-6.1937-2.3494-9.1173-2.8624-4.3512-0.76343-6.8433-2.0659-13.736-7.179-6.8885-5.1099-8.7484-7.0341-10.223-10.576-1.1663-2.8023-1.5772-5.2213-1.1647-6.8564 0.75543-2.9947 11.715-14.015 17.659-17.757l4.1856-2.6347-2.597-6.6546c-5.0118-12.842-5.8661-28.471-2.3019-42.111 2.6149-10.007 9.2208-21.964 16.055-29.06 3.4117-3.5424 5.902-5.5999 5.5339-4.5723-1.3272 3.7055-1.6244 23.022-0.43663 28.379 3.2828 14.806 13.07 25.256 23.71 25.319 3.0644 0.0179 3.5746-0.30126 4.0738-2.5486 1.4044-6.3225 3.5384-11.6 6.1293-15.159 2.6346-3.6187 9.4033-8.6792 13.222-9.8851 1.0435-0.32952 1.7096-1.4358 1.7096-2.8391 0-3.5049 5.2906-13.172 9.8814-18.055 6.6349-7.0576 11.263-8.8899 23.411-9.2693l10.289-0.32136 4.6922-4.1975c10.66-9.536 18.945-11.066 35.293-6.518 10.278 2.8594 13.038 2.9865 22.065 1.016 3.6149-0.78904 9.5303-2.0744 13.145-2.8564 10.311-2.2304 15.006-1.2484 24.23 5.0678 7.9829 5.4659 15.052 8.5112 19.9 8.5727 5.3296 0.06757 10.116 2.0582 14.443 6.0065 2.3848 2.1762 6.3225 5.0898 8.7505 6.4745 2.428 1.3848 5.1493 3.7553 6.0473 5.268 0.89803 1.5126 2.8558 3.2543 4.3507 3.8703 4.0818 1.6823 5.3726 3.4047 5.3957 7.2003 0.0391 6.4027 3.4315 24.125 5.1828 27.075 1.8826 3.1709 7.1551 5.7903 11.655 5.7903 5.5744 0 11.029-3.3996 13.725-8.5541 2.4961-4.7729 6.0987-19.013 7.0014-27.674 0.50069-4.8043 1.3888-9.6246 1.9736-10.712 1.0443-1.9414 1.0877-1.9445 2.4268-0.17352 2.705 3.5775 11.594 22.026 13.886 28.82 2.8321 8.3943 2.9712 14.761 0.46575 21.32-2.7219 7.1255-2.5256 7.8267 2.9672 10.596 9.4322 4.7556 17.623 15.412 17.669 22.987 0.023 3.8407-4.1946 15.471-7.8786 21.726-4.254 7.2225-14.129 10.276-28.851 8.9207-9.3221-0.85818-15.089-3.1099-19.117-7.4643-2.0661-2.2336-4.0525-2.9569-4.877-3.306z" fill="#fe0000"/><path d="m399.13 138.61c7.4819-0.85915 11.637-2.8376 11.266-5.3638-0.38932-2.6484-4.5168-3.8075-10.162-2.8534-2.3239 0.3928-6.2912 0.46798-8.8162 0.1671-4.5142-0.53793-6.7014-2.1344-9.5162-6.9458-0.63071-1.078-2.8818-1.9438-6.5374-2.5142-8.083-1.2612-12.964-3.6984-15.463-7.7207-3.0654-4.935-5.1606-4.2188-9.368 3.202-2.7724 4.8898-3.891 6.0725-5.7438 6.0725-2.1805 0-2.3065-0.30034-2.4088-5.7398-0.0818-4.3475-0.83749-7.2935-3.1153-12.145-4.3422-9.2485-4.2605-9.129-6.8857-10.06-1.9697-0.69867-2.9385-0.40393-5.3737 1.6349-1.634 1.368-3.5346 2.4872-4.2238 2.4872-1.4188 0-4.8622 3.9405-7.2446 8.2903-1.2082 2.2059-2.2482 2.9204-4.2509 2.9204-1.7708 0-3.4724 0.93086-5.1232 2.8027-2.228 2.5263-3.0244 2.8027-8.0752 2.8027-5.852 0-8.2254 1.3166-7.1941 3.9907 0.5718 1.4826 5.0753 2.8652 13.098 4.0209 3.6431 0.52486 5.3407 1.3775 7.5782 3.8062 1.5859 1.7214 3.5714 3.1298 4.4122 3.1298 1.7553 0 5.1899-4.2609 8.1321-10.088 1.1152-2.2088 2.6707-4.2615 3.4567-4.5616 3.2024-1.2227 3.3714 1.2308 0.9155 13.293-1.3362 6.5627-2.4352 13.442-2.4423 15.286-0.0284 7.4543-2.4261 9.8865-3.9558 4.0128-1.0792-4.144-3.8698-5.4718-6.3383-3.0157-1.0447 1.0394-1.902 2.8358-1.9052 3.9919-2e-3 1.1561-0.61758 3.269-1.3653 4.6953-0.74774 1.4263-1.7695 4.7895-2.2707 7.4738-0.50114 2.6843-1.3656 6.0641-1.921 7.5105-0.55539 1.4465-1.0098 3.8315-1.0098 5.3001 0 3.5345 4.1588 8.419 7.1682 8.419 2.7792 0 6.9159-3.8601 6.9159-6.4534 0-1.3018 1.2227-2.4054 4.0382-3.6445 6.5182-2.8688 10.775-7.194 12.383-12.581 2.1444-7.1847 1.8862-10.441-0.92882-11.718-3.3206-1.5054-2.9456-3.154 1.8848-8.2858 2.3277-2.4729 5.1797-6.5095 6.3379-8.9702 2.4297-5.1622 3.7504-5.7167 12.323-5.1735 4.5923 0.29096 6.9131 1.0059 10.204 3.1436l9.2443 3.7998z" fill="#fff"/><path d="m308.43 608.83c2.8474-3.8115 3.1969-12.146 0.85863-20.478-1.079-3.8451-2.2506-9.5136-2.6034-12.597-0.35288-3.083-2.0549-10.403-3.7824-16.267-2.2906-7.7751-3.1554-12.58-3.1949-17.75-0.0298-3.899-0.35132-8.7555-0.71458-10.792-0.62436-3.5004-0.75912-3.2037-2.4645 5.4263-0.99222 5.0211-2.3263 9.8399-2.9647 10.709-2.8922 3.9354-3.4218-8.1994-1.3785-31.584 1.1455-13.109 1.1196-14.823-0.27395-18.098-1.1918-2.8011-1.8162-3.389-2.7662-2.6045-0.93325 0.77062-1.5879 0.40667-2.735-1.5206-2.6808-4.5039-6.2534-7.2662-7.989-6.1769-5.9474 3.7327-5.068 21.794 1.9436 39.915l2.9552 7.6374-0.21263 18.508c-0.24644 21.451-0.5104 22.384-8.1928 28.984-5.9216 5.0866-9.7942 12.368-10.574 19.881-0.49506 4.7726-0.41161 5.0298 1.632 5.0298 1.1846 0 4.7982-1.4714 8.0302-3.2698 7.5668-4.2103 10.433-4.2324 13.742-0.10574 1.3955 1.7402 4.7757 4.2782 7.5116 5.64 6.2233 3.0978 10.616 2.9355 13.173-0.48654z" fill="#fff"/><path d="m303.48 496.62c0.98085-6.1091 0.67799-8.1667-2.2617-15.366-1.4906-3.6504-1.4902-4.0719 6e-3 -6.951 1.536-2.9554 1.5236-3.1208-0.34643-4.6274-1.0666-0.85937-3.691-1.8412-5.8319-2.1818-2.8792-0.45809-5.1547-1.7957-8.7403-5.1379-12.188-11.36-13.631-7.2266-4.475 12.812 2.506 5.4845 4.8645 11.023 5.2412 12.307 1.201 4.0962 3.2659 6.5396 5.5265 6.5396 1.7179 0 2.409 0.77006 3.2764 3.6509 0.60465 2.008 1.7901 5.2661 2.6344 7.2403l1.535 3.5894 1.2387-2.9532c0.68127-1.6243 1.67-5.6394 2.1971-8.9226z" fill="#fff"/><path d="m374.47 465.69c0.69861-1.8114-5.7782-23.666-8.7563-29.547-2.932-5.7893-14.126-17.685-18.948-20.135-3.1911-1.6216-3.2525-1.6146-5.066 0.57647-1.0097 1.2199-3.0668 4.8137-4.5713 7.9863-2.4922 5.2551-2.6432 6.1279-1.6974 9.8094 2.2935 8.9273 3.1434 10.167 15.034 21.921 4.01 3.9638 17.039 10.614 20.795 10.614 1.5057 0 2.9502-0.55123 3.21-1.225z" fill="#fff"/><path d="m303.22 462.18c4.034-1.5207 6.8685-4.6238 6.8685-7.5193 0-1.4216-0.34208-2.795-0.76019-3.0522-0.4181-0.25711-3.6156 0.39971-7.1055 1.4596-6.1234 1.8597-6.4727 1.8699-9.9872 0.29309-4.0864-1.8334-6.5597-1.3753-6.5597 1.215 0 2.3509 3.7393 5.681 8.1267 7.2375 4.4456 1.5771 6.0409 1.6391 9.4174 0.36624z" fill="#fff"/><path d="m179.81 452.47c2.8935-1.237 1.8088-3.2165-5.8833-10.738-8.6206-8.4287-15.531-13.315-18.276-12.924-3.2098 0.45758-5.6556 6.7589-5.613 14.461 0.056 10.142 0.41532 10.373 15.724 10.114 6.8232-0.11574 13.145-0.52663 14.049-0.91297z" fill="#fff"/><path d="m198.96 449.62c0.71133-1.8444-1.3029-4.2251-3.02-3.5695-1.3788 0.52642-1.8253 3.254-0.71381 4.36 1.1074 1.1018 3.1726 0.66462 3.7338-0.79042z" fill="#fff"/><path d="m186.52 441.14c1.9178-0.73226 2.9051-6.1927 1.5689-8.6769-0.57902-1.0764-2.4134-2.6369-4.0765-3.4677-4.2432-2.1198-12.883-10.706-12.883-12.803 0-1.4862 0.68529-1.2458 4.5994 1.6129 2.5296 1.8476 7.8005 4.8108 11.713 6.5848 7.2565 3.2903 18.724 11.488 19.734 14.107 1.0284 2.6665 2.6777 0.28332 2.1296-3.0771-0.70398-4.3163-4.5743-9.1911-9.1353-11.506-4.3698-2.2181-8.9177-8.08-10.337-13.323-1.2586-4.6506-0.76077-5.0079 7.2829-5.2281 5.9333-0.16241 6.2487-0.052 10.2 3.5718 4.9682 4.5565 8.0512 5.494 11.237 3.417 1.7921-1.1684 2.3405-2.3305 2.3405-4.9601 0-2.9313-0.71529-4.1024-4.8839-7.9965-7.1753-6.7027-10.964-8.3088-21.405-9.074-4.9066-0.35956-10.4-1.3138-12.207-2.1206-1.8075-0.8068-4.6143-1.9545-6.2373-2.5504-1.623-0.59592-5.7738-3.7838-9.224-7.0841s-6.6712-6.0006-7.1579-6.0006c-0.48664 0-1.5812 1.4529-2.4323 3.2287-0.85109 1.7758-2.1669 3.4652-2.924 3.7543-3.7493 1.4315-19.911-12.951-19.911-17.719 0-3.836-1.6036-5.9426-6.1382-8.0634-3.1809-1.4877-4.7968-3.0817-6.7666-6.675-3.144-5.7353-5.9913-7.1074-8.8487-4.2643-1.8659 1.8565-1.9547 2.6216-1.408 12.128 0.63217 10.993 2.0682 15.201 5.546 16.251 1.1676 0.35238 2.9738 1.4131 4.0136 2.3572 2.7539 2.5001 7.6882 4.2929 13.848 5.0313 4.6336 0.55545 5.6022 1.0174 6.7454 3.2171 0.73422 1.4127 1.9966 3.1149 2.8052 3.7826 3.5451 2.9274 0.24524 3.8106-5.4269 1.4525-4.3403-1.8044-11.296-1.8278-12.785-0.043-1.6119 1.9325 2.5713 6.8643 16.396 19.33 6.197 5.5879 12.567 11.942 14.154 14.121 2.2299 3.0595 4.2606 4.5059 8.92 6.3532 4.6946 1.8614 6.378 3.0672 7.5891 5.4363 2.162 4.2292 4.5343 6.6959 7.8332 8.1447 3.2959 1.4475 3.6028 1.4893 5.5313 0.75297z" fill="#fff"/><path d="m233.57 439.28c6.197-0.79165 17.816-1.7731 25.821-2.181 8.0045-0.40793 15.273-1.0498 16.151-1.4264 2.0201-0.86571 3.3878-5.1418 3.752-11.73 0.24164-4.3722 0.0499-5.0998-1.2858-4.8805-1.8926 0.31075-10.257 5.2709-15.056 8.928-4.0665 3.0991-6.2442 2.9671-8.1983-0.49691-1.8916-3.3532-0.26449-9.6321 4.2668-16.465 5.2252-7.8796 4.6191-9.0458-6.672-12.837-5.1642-1.7342-11.164-3.1656-13.334-3.181-5.6328-0.04-13.47 1.8001-14.047 3.2984-0.27055 0.70152 0.18106 3.9455 1.0036 7.2088 1.485 5.8915 2.0533 18.494 0.88643 19.655-0.335 0.33332-2.2376-0.85782-4.228-2.647-4.1591-3.7387-5.6864-3.9932-8.3082-1.3846-2.4559 2.4436-2.3698 5.2073 0.3529 11.331 1.2269 2.7597 2.4812 5.7533 2.7874 6.6525 0.67514 1.9831 1.7289 1.9933 16.108 0.15644z" fill="#fff"/><path d="m320.98 436.21c6.2832-4.6025 8.4325-7.6521 15.242-21.628 7.8456-16.101 11.868-20.724 22.78-26.183 9.4459-4.7254 22.646-12.435 28.436-16.609 4.906-3.5364 8.0379-8.8645 8.0734-13.735 0.0114-1.5556 0.76004-3.8442 1.6638-5.0859 0.90373-1.2416 4.1783-7.3259 7.2768-13.521 4.9019-9.8002 6.0782-11.47 9.0557-12.859 5.8242-2.7161 7.3758-5.5678 7.3758-13.556 0-12.145-6.7616-33.694-20.163-64.258-9.1195-20.799-13.289-26.887-19.576-28.582-2.1571-0.58136-12.377-1.1752-22.712-1.3196-20.748-0.28992-27.295-1.3638-38.184-6.2634l-6.2714-2.8217-5.7131 3.4531c-12.356 7.468-34.103 15.368-47.759 17.349-16.258 2.3584-35.749-2.6581-63.723-16.401-8.8691-4.3572-17.202-7.9221-18.517-7.9221-1.3151 0-4.1992 1.2647-6.4091 2.8104-2.8859 2.0186-6.139 3.18-11.546 4.1222-23.581 4.1091-41.456 12.053-52.496 23.33-10.866 11.1-22.028 31.009-24.435 43.583-0.74204 3.8769-1.862 12.635-2.4889 19.463-0.99757 10.866-0.93192 14.065 0.52625 25.649 1.5231 12.1 1.5413 13.652 0.21177 18.096-1.0779 3.6031-1.2192 5.708-0.54616 8.1333 1.1502 4.1447 6.7387 8.8221 11.44 9.5746 2.2908 0.36676 3.9177 1.2723 4.5747 2.5464 1.3665 2.65 5.609 7.1154 6.7603 7.1154 2.2107 0 4.3583-3.2374 4.3583-6.57 0-4.1539-0.88133-5.0016-9.6813-9.3119-7.947-3.8925-9.0294-5.6054-3.5422-5.6054 4.1506 0 4.2458-0.17867 3.8572-7.2403-0.15347-2.7888 0.06289-3.0362 2.6546-3.0362 3.1147 0 5.7756-2.0781 5.7674-4.5043-0.0113-3.4138-2.0494-8.6033-3.7302-9.4983-1.1887-0.63298-2.5915-0.63662-4.2453-0.0113-1.3585 0.5139-3.7158 0.93436-5.2384 0.93436-1.5226 0-3.6207 0.52551-4.6622 1.1678-4.2527 2.6224-4.6533-4.5271-0.81308-14.512 2.3744-6.1737 4.1155-6.7468 6.1049-2.0096 1.8639 4.4384 4.1214 3.9097 6.1036-1.4295 2.6629-7.1725 5.5074-5.9459 5.5326 2.3857 0.0266 8.7906 7.2159 14.851 10.929 9.2134 1.31-1.9893 1.4714-3.8734 0.98037-11.444-0.70632-10.89 0.21379-13.584 4.7904-14.027 3.6898-0.35653 6.4602-3.695 10.664-12.851 3.5398-7.7096 3.7518-11.974 0.96358-19.386-2.9646-7.8814-5.2002-21.574-3.9131-23.967 1.3105-2.4364 3.42-2.4175 4.7433 0.0426 0.57242 1.0642 1.2739 6.6346 1.5588 12.379 0.47703 9.616 0.7134 10.654 2.9828 13.093 4.2118 4.5277 5.595 4.8555 8.5604 2.0287 1.4401-1.3727 2.8548-2.1152 3.1439-1.6498 0.28906 0.46537-0.2984 3.4801-1.3054 6.6995-2.0026 6.4019-2.3144 9.9505-0.94831 10.791 0.88094 0.54171 1.2305 0.23357 4.7302-4.1694l1.8564-2.3356-0.1395 6.5507c-0.12441 5.8402 0.20665 7.1724 3.0518 12.283l3.1913 5.7319-2.0917 7.935c-3.6915 14.004-2.5242 18.051 6.7708 23.471 2.9338 1.7107 4.45 3.3616 5.2205 5.6845 0.8948 2.6976 1.545 3.2736 3.6956 3.2736h2.6097l-0.46404-11.211c-0.32768-7.9164-0.15551-11.211 0.5859-11.211 0.57747 0 1.3072 1.1561 1.6216 2.5691 1.383 6.2148 2.644 8.4168 6.9801 12.188 2.8717 2.4976 6.3135 4.4628 9.1125 5.2031 2.4738 0.65425 7.2041 2.9471 10.512 5.0952 6.4819 4.2095 9.6559 4.7682 14.501 2.5527 1.6273-0.74414 4.2263-1.4798 5.7756-1.6349 2.6565-0.26587 2.8042-0.49466 2.5958-4.0188-0.16781-2.8365-1.6045-5.7431-5.9623-12.063-6.3521-9.2115-6.9817-12.041-4.0963-18.407 1.7581-3.8792 3.9195-5.0669 2.7797-1.5274-0.37229 1.1561-0.8838 3.4128-1.1367 5.0149-1.0984 6.9578 6.7544 13.482 13.244 11.005 1.347-0.51429 2.0451-2.3645 3.793-10.052 0.57783-2.5414 0.69462-2.596 2.3557-1.1002 0.96127 0.86557 2.2586 2.8009 2.883 4.3006s2.5806 3.6157 4.3472 4.702c2.7371 1.6831 3.6035 1.8138 5.8595 0.88402 1.4561-0.60012 3.584-2.3515 4.7286-3.8919 1.5884-2.1376 2.3734-2.5594 3.3155-1.7814 1.9128 1.5795 2.2497 5.2277 1.1821 12.798-0.83365 5.9111-0.76352 7.1649 0.46946 8.3916 1.1713 1.1654 1.8463 1.231 3.5165 0.34163 2.9088-1.5489 4.7248-6.502 4.7248-12.887 0-5.1349 1.8358-9.9041 3.2651-8.482 0.94627 0.94153 3.1816 18.36 2.627 20.47-0.53114 2.0208 1.3429 12.402 2.7312 15.129 1.6844 3.309 9.093 1.3439 15.267-4.0495 2.215-1.935 4.7482-5.6961 6.6857-9.9263 2.4197-5.2831 3.5579-6.8109 5.074-6.8109 2.7199 0 3.9632 3.8289 3.3069 10.184-0.31876 3.0864-0.13191 5.8054 0.45578 6.6323 0.84999 1.1959 1.3033 1.0434 3.0918-1.0401 1.1526-1.3428 2.8731-3.8599 3.8232-5.5937 1.6523-3.015 1.7851-3.0738 3.0516-1.3505 1.6767 2.2815 1.6563 4.4925-0.0945 10.235-1.8512 6.0717-1.7671 7.6591 0.52706 9.9417 1.5428 1.535 2.8953 1.8599 6.8073 1.6349l4.882-0.28074-0.0972-3.2698c-0.0534-1.7984-0.4099-5.1616-0.79211-7.4738-0.64174-3.8824-0.43891-4.5364 2.6507-8.5484 2.6068-3.3849 3.7586-6.2271 5.2157-12.87 1.0285-4.6889 2.5202-9.4488 3.3149-10.578 2.1741-3.0885 1.7608-7.2563-1.5219-15.346-1.6317-4.021-3.0049-8.9651-3.0516-10.987-0.0829-3.5886 0.0136-3.7002 4.0529-4.6947 6.5146-1.6037 6.7026-2.8935 1.6526-11.337-4.9812-8.328-5.478-11.594-2.099-13.797 1.3064-0.8517 2.411-2.5961 2.5821-4.0779 0.27649-2.3939 0.68921-2.6344 5.4633-3.1833 2.8403-0.32657 5.8412-0.87322 6.6686-1.2148 2.1264-0.87774 7.4257 5.3058 7.3823 8.6142-0.0182 1.3952-0.63712 3.5876-1.3751 4.8722-0.77975 1.3572-1.3473 4.8794-1.3548 8.4081-0.0166 7.8149 2.1612 24.228 3.5598 26.828 1.8285 3.3994 1.2438 5.3251-3.1834 10.486-4.2544 4.9591-7.0027 9.3625-7.0027 11.22 0 1.9948 5.6587 0.88506 11.672-2.2892 7.3838-3.8975 9.3797-4.1722 8.4852-1.1678-1.2167 4.0869-5.8611 8.7094-14.524 14.456-11.296 7.4926-13.711 9.8694-15.511 15.263-2.1749 6.5152-6.6636 12.705-12.089 16.67-5.3715 3.9256-19.123 10.031-29.497 13.097-8.514 2.5159-25.127 10.556-28.555 13.82-3.4049 3.242-10.32 16.598-9.947 19.211 0.21409 1.4983 1.0412 2.1596 2.9764 2.3799 3.6286 0.41297 7.0497-2.9083 7.7992-7.5714 0.43698-2.719 1.2032-3.9124 3.0336-4.7253 1.3469-0.59814 7.4762-3.9068 13.621-7.3525 12.426-6.9686 14.65-7.1691 14.65-1.3212 0 2.5936-1.5248 4.8002-9.4639 13.696-10.091 11.307-13.071 15.963-13.071 20.423 0 3.4678 1.1072 4.1811 5.2811 3.402 4.381-0.81774 9.1563-5.2734 20.068-18.724 5.0018-6.1659 9.8593-11.841 10.794-12.611 1.62-1.3342 1.6761-1.0921 1.189 5.1383-0.31113 3.9797-2.0226 11.048-4.3734 18.063-2.1242 6.3387-3.6237 11.909-3.3321 12.379 0.91535 1.4736 2.8307 0.9442 6.6164-1.8288z" fill="#fff"/><path d="m209.02 419.1c1.4276-2.2693-0.80909-5.9362-4.7583-7.8008-4.1846-1.9757-5.9015-1.2449-5.9015 2.5122 0 5.9912 7.7872 9.8547 10.66 5.2886z" fill="#fff"/><path d="m228.87 388.92c11.091-1.8132 19.242-1.7753 23.981 0.11136 2.9317 1.1671 4.3499 1.2906 6.0375 0.5255 1.2132-0.54997 5.0025-0.99996 8.4208-0.99996 7.8095 0 15.931-2.2788 17.853-5.0092 3.3185-4.7141 0.89505-7.2525-6.924-7.2525-4.5377 0-4.8038-0.14271-6.1225-3.2829-1.7755-4.2281-3.0433-4.6347-10.239-3.2838-5.056 0.94922-6.4667 0.89523-9.4939-0.36325-6.1132-2.5414-7.696-2.054-10.368 3.193-2.5671 5.0405-3.6902 5.4775-8.1626 3.1764-4.3502-2.2382-8.441-1.8242-14.683 1.4861-9.584 5.0826-11.832 8.5875-7.4611 11.634 2.5993 1.8115 6.3938 1.826 17.162 0.0657z" fill="#fff"/><path d="m268.66 199.75c20.604-3.9063 31.129-11.822 35.822-26.941 2.4817-7.9945 2.441-13.371-0.11862-15.676-2.3187-2.0879-4.5986-6.2069-4.5986-8.3083 0-0.85812 1.7199-2.2145 4.0897-3.2252 4.0467-1.7259 5.2998-3.2822 5.2998-6.5824 0-2.1715-4.4225-3.7519-10.499-3.7519-5.8725 0-10.648-2.004-15.136-6.3517-3.537-3.4266-3.564-3.5083-2.9897-9.0631 0.52401-5.0691 0.33051-5.9827-2.0223-9.5494-3.2385-4.9092-4.236-5.2899-10.145-3.871-6.9812 1.6764-7.3064 2.2054-5.1812 8.4278 0.99252 2.9061 2.074 7.5646 2.4033 10.352 0.56335 4.7691 0.41953 5.2714-2.4351 8.5064-3.5671 4.0423-2.9235 5.6743 2.6113 6.6214 7.5682 1.2951 8.6518 1.6636 8.6518 2.9427 0 2.0324-8.6504 1.6894-16.613-0.65871-3.7147-1.0955-7.4664-1.7198-8.3371-1.3873-2.3734 0.90619-1.2123 7.6622 1.8386 10.698 2.3639 2.352 2.5054 2.37 20.492 2.6117l18.112 0.24331 3.0516 3.4739c1.6784 1.9107 3.0516 4.4595 3.0516 5.664 0 3.3267-3.6912 10.434-7.4445 14.335-5.293 5.5005-18.353 8.8789-47.014 12.162-10.827 1.2404-8.7567 1.2334-20.884 0.07-11.924-1.1441-24.55-3.9721-29.933-6.7047-4.6236-2.3469-7.5922-1.8434-9.1468 1.5516-0.92071 2.0106-0.87313 2.8663 0.2546 4.5788 1.8845 2.8616 5.9291 3.7938 8.0754 1.8612 1.5419-1.3884 1.9678-1.2892 5.758 1.3408 4.7045 3.2645 12.736 5.1808 27.873 6.6503 5.5121 0.53512 11.923 1.3497 14.247 1.8102 5.8454 1.1583 19.314 0.35955 30.865-1.8305z" fill="#fff"/><path d="m247.81 185.49c0.83111-0.82692 1.7131-3.5956 1.9601-6.1526 0.39735-4.1144 0.20409-4.7795-1.6802-5.7829-2.6955-1.4353-10.023-0.5213-12.307 1.5351-0.92202 0.83024-2.1529 2.9461-2.7353 4.7019-0.87837 2.6481-0.78881 3.6024 0.52539 5.5981 1.4678 2.2289 1.9939 2.3763 7.1551 2.0048 3.4106-0.24548 6.1568-0.98394 7.0819-1.9044z" fill="#fff"/><path d="m227.26 184.26c1.526-1.0635 2.0868-2.3964 2.0868-4.9597 0-5.092-1.6931-6.832-7.1556-7.3543-5.7538-0.55009-7.2672 0.89842-7.344 7.0295-0.0462 3.6871 0.28722 4.4886 2.2933 5.5128 3.1911 1.6293 7.5967 1.5299 10.119-0.2283z" fill="#fff"/><path d="m266.26 183.71c3.6543-1.9138 4.4477-5.0877 2.3932-9.5742-1.4143-3.0884-2.371-3.3437-8.2179-2.1934-3.8999 0.76724-5.136 1.4543-5.8153 3.2319-1.2012 3.1435-1.0764 7.155 0.26406 8.4887 1.4333 1.4261 8.6855 1.456 11.376 0.047z" fill="#fff"/><path d="m206.3 183.27c3.4969-1.3351 5.7139-10.686 3.1406-13.246-1.9943-1.9843-5.8054-1.2031-10.569 2.1664-2.556 1.8082-4.9451 3.7669-5.309 4.3529-1.1588 1.8655 0.2765 3.7381 4.2365 5.5275 4.1014 1.8533 6.0632 2.1301 8.5006 1.1995z" fill="#fff"/><path d="m280.05 179.18c2.0641-2.0538 2.5261-7.3258 0.90592-10.338-1.9586-3.6413-11.234-1.5001-11.234 2.5933 0 4.4039 3.8707 9.5022 7.2768 9.5846 0.64553 0.0156 2.0187-0.81241 3.0516-1.84z" fill="#fff"/><path d="m185.45 175.16c1.505-3.1328 2.6802-7.2406 3.9948-13.965 0.49318-2.5224 0.627-2.5691 7.3561-2.5691 9.3606 0 15.683-2.0019 19.313-6.1151 1.5979-1.8107 2.9052-3.6823 2.9052-4.1591s-2.6408-2.668-5.8684-4.8693c-4.8943-3.338-5.5218-4.0519-3.7804-4.3006 1.2041-0.17194 3.931 0.96347 6.4416 2.6821 3.4242 2.3441 5.628 3.0821 10.323 3.4571 9.0664 0.7241 13.564-1.7735 12.027-6.6791-0.92739-2.9601-1.9411-3.2503-9.3942-2.6895-4.4256 0.33305-7.8314 0.10799-9.6389-0.63693-2.6507-1.0924-5.7437-5.7407-5.7437-8.6319 0-3.3423 3.2157-12.887 7.4454-22.099 6.3906-13.918 6.5171-14.608 3.294-17.955-2.0166-2.0943-3.4857-2.7419-6.2203-2.7419-3.8789 0-4.4519 1.1101-2.1418 4.149 1.574 2.0706 1.806 6.3899 0.476 8.8625-0.49641 0.9229-3.8562 3.4536-7.4662 5.6239-3.9683 2.3856-7.302 5.1909-8.4308 7.0946-2.3888 4.0284-6.6105 5.3064-11.722 3.5485-2.0015-0.68843-5.2893-1.2517-7.3063-1.2517-4.2057 0-5.7097-2.0465-3.2803-4.4636 1.2976-1.2911 2.2558-1.3668 6.4578-0.5104 5.7954 1.1812 7.0866 0.85691 7.4782-1.8781 0.26326-1.8388 0.76281-1.9961 5.4862-1.7269 4.2298 0.24102 5.5101-0.0486 6.8822-1.5572 2.0273-2.2288 1.1983-4.2901-3.2096-7.9804-3.8195-3.1978-7.2226-3.0984-11.252 0.32838-1.788 1.5206-3.779 2.7818-4.4245 2.8027-1.9293 0.06244-1.3335-2.2896 1.1737-4.6332 6.5771-6.1478-2.3699-4.3173-9.6236 1.9689-3.2412 2.8089-4.4352 2.7747-8.8308-0.25249-1.3708-0.94404-3.3778-1.7164-4.46-1.7164-1.0822 0-1.9677-0.45123-1.9677-1.0027 0-0.55149-0.73942-0.86176-1.6432-0.68949-1.3317 0.25387-1.8211 1.9047-2.5821 8.7101-0.98826 8.8379-1.0189 8.8771-5.7973 7.432-1.6327-0.49373-2.3378-0.0473-3.521 2.2294-1.9778 3.8054-1.8641 8.6185 0.4129 17.477 1.2905 5.0204 1.8574 10.083 1.7823 15.915-0.12867 9.9878 0.26901 10.96 7.6376 18.664 3.6478 3.814 5.7731 6.9524 6.482 9.5721 1.3039 4.818 4.5844 8.235 6.2269 6.4859 0.60915-0.64867 1.3838-5.4247 1.7215-10.613 0.52236-8.0266 0.38864-9.6201-0.89627-10.681-1.3697-1.131-5.1287-7.5872-5.1287-8.8087 0-1.5688 1.619-0.10148 2.526 2.2893 1.8544 4.8882 7.9657 5.4906 12.676 1.2495 3.2311-2.9094 3.4326-0.64356 0.29347 3.2994-3.8037 4.7776-4.6943 8.5146-3.879 16.276 0.5846 5.565 2.687 9.4632 4.7468 8.8014 0.5541-0.17803 1.7463-1.8616 2.6493-3.7411z" fill="#fff"/><path d="m128.71 140.83c3.125-2.0763 7.8433-5.7087 10.485-8.072 3.7933-3.3934 4.7435-4.8095 4.5188-6.735l-0.28439-2.4381-9.8589 0.30557c-10.64 0.32979-18.054-1.2963-27.433-6.0173-6.0615-3.051-10.525-2.8884-15.759 0.57428-2.3239 1.5375-5.7041 3.0625-7.5116 3.3888-6.046 1.0915-8.4104 2.9387-8.4361 6.5905-0.02273 3.2231 2.8854 3.3972 13.646 0.81716 5.4801-1.314 10.564-2.3891 11.297-2.3891 2.4562 0 1.3676 1.7297-2.4225 3.8492-4.0378 2.258-4.8022 3.6247-2.0271 3.6247 1.6553 0 8.1944-1.8282 11.651-3.2575 1.0176-0.4207 1.6432-0.26331 1.6432 0.41343 0 0.60101-2.7464 2.3318-6.1032 3.8462-6.2133 2.8031-7.6664 4.9179-4.1436 6.0304 2.9338 0.92649 8.1868-0.33566 13.937-3.3486 2.8235-1.4795 5.3666-2.4541 5.6513-2.1657 0.28476 0.28838-1.1724 1.9574-3.2381 3.7091-4.5153 3.8288-3.6021 5.0127 3.8835 5.0349 4.0838 0.0125 5.6927-0.56391 10.504-3.7608z" fill="#fff"/><path d="m232.93 124.52c2.8766-2.4083 5.7003-2.9813 7.2603-1.4732 0.49059 0.47427 4.2747 1.1502 8.4092 1.5021 6.6647 0.5672 7.7777 0.42992 9.8137-1.2104 3.1085-2.5045 2.8869-6.7704-0.72131-13.882-6.1356-12.094-12.912-18.101-20.418-18.101-2.8746 0-4.147 0.66107-6.9002 3.5848-3.993 4.2404-10.517 19.165-11.145 25.496-0.40366 4.0698-0.2708 4.381 2.2617 5.2981 4.672 1.6918 8.4473 1.2912 11.439-1.2138z" fill="#fff"/><path d="m410.77 123.01c1.0131-0.53943 4.9711-1.2163 8.7957-1.5041 7.8586-0.59138 9.251-1.5857 9.1109-6.5061-0.14825-5.2043-1.3814-5.6611-7.5405-2.7935-2.9751 1.3852-8.1924 3.3522-11.594 4.3712-6.4503 1.9322-12.572 5.4043-12.359 7.0099 0.30719 2.3177 8.8305 1.9554 13.587-0.57751z" fill="#fff"/><path d="m97.322 112.03c5.7736-2.5066 11.961-4.852 13.749-5.2122 5.5741-1.1225 6.5378-1.5373 6.5378-2.8139 0-1.7503-2.2985-2.4482-10.032-3.0458-6.5304-0.50471-6.9994-0.39433-14.719 3.4641-9.5138 4.7554-14.685 8.7762-14.685 11.418 0 1.7535 0.39026 1.8742 4.3258 1.3375 2.3792-0.32446 9.0496-2.6408 14.823-5.1473z" fill="#fff"/><path d="m383.8 112.83c5.1642-1.1074 11.925-3.1101 15.023-4.4504 7.8238-3.3843 15.702-8.4538 15.251-9.8138-1.3287-4.0092-13.782-4.6638-23.772-1.2497-23.713 8.1039-29.205 11.958-24.174 16.963 1.789 1.78 3.1208 1.6707 17.672-1.4495z" fill="#fff"/><g fill="#fe0000"><path d="m177.44 127.71c-1.9534-0.45765-4.8054-1.4772-6.3379-2.2657-2.4971-1.2848-3.0732-1.286-5.5499-0.0113-3.2639 1.6794-4.9919 0.21197-2.2599-1.9191 2.0727-1.6168 6.5887-1.2575 12.535 0.99749 6.2679 2.3769 13.627 1.4526 22.269-2.797 6.7691-3.3286 9.1595-3.7077 6.9916-1.1087-1.5425 1.8493-10.527 6.0433-15.284 7.1344-4.8406 1.1103-7.5258 1.1039-12.364-0.0296z"/><path d="m244.53 419.91c-2.3445-2.4831-2.5667-3.4432-0.79681-3.4432 1.2618 0 5.3279 3.7891 5.3279 4.9649 0 1.396-2.6009 0.52248-4.5311-1.5218z"/><path d="m239.11 114.35c-0.84223-2.1838 0.0226-9.2824 1.1769-9.6596 1.4345-0.46886 2.511 4.6072 1.7287 8.1514-0.65196 2.9534-2.0652 3.687-2.9055 1.5082z"/><path d="m339.36 390.35c0.65706-1.8742 16.556-18.311 18.709-19.341 1.2435-0.59535 5.1656-2.3845 8.7157-3.9758 3.5501-1.5913 7.8957-4.1522 9.6569-5.6907s3.8626-2.7973 4.67-2.7973c1.2362 0 1.1631 0.47925-0.4634 3.0362-2.6143 4.1099-8.2712 7.9441-12.683 8.5966-5.3328 0.78866-8.2322 2.9029-11.391 8.306-2.0356 3.4821-4.5009 5.9194-8.8895 8.7888-5.8223 3.8068-8.9908 4.9783-8.3245 3.0777z"/><path d="m325.53 379.02c-0.80963-1.3034-0.92121-1.2255 7.8937-5.5115 8.0567-3.9173 9.5278-4.3539 9.5278-2.8276 0 2.5079-16.221 10.272-17.422 8.3391z"/><path d="m351.41 362.36c0-1.0237 5.2629-5.1431 11.737-9.1867 5.3778-3.359 9.5347-7.4788 12.962-12.846 6.3732-9.982 12.838-14.604 11.352-8.1172-1.782 7.7829-12.813 18.488-27.861 27.035-7.3574 4.1795-8.19 4.4962-8.19 3.1148z"/><path d="m385.21 348.92c0-1.5648 8.2888-10.462 9.0453-9.7097 1.0106 1.0056-0.52806 5.1026-3.0254 8.0556-2.4632 2.9127-6.0199 3.8899-6.0199 1.654z"/><path d="m317.05 328.42c1.2377-7.8307 2.5176-10.908 5.8055-13.957 4.0126-3.7217 5.2508-5.8053 5.9557-10.022 0.29357-1.7562 1.0204-3.3545 1.6152-3.5517 1.4448-0.47919 3.4381 5.7306 2.6413 8.2285-1.0208 3.2-14.489 23.273-15.615 23.273-0.68416 0-0.81926-1.3329-0.4024-3.9705z"/><path d="m281.9 322.53c-1.7798-3.6581-2.0261-5.3142-1.5696-10.553 0.63773-7.3186 10.485-41.923 12.595-44.262 2.3023-2.5516 2.9908-1.093 1.5068 3.1926-1.0441 3.0154-1.1537 5.1434-0.46853 9.1002 0.97934 5.6559 0.30345 8.5448-2.4517 10.48-4.248 2.9829-6.412 10.724-4.9834 17.826 1.1365 5.6502 0.18008 17.667-1.4488 18.204-0.58791 0.19379-2.0189-1.6002-3.18-3.9866z"/><path d="m397.41 325.96c0-0.45106 0.60931-2.2711 1.354-4.0445 0.74473-1.7734 1.7326-8.1328 2.1954-14.132 0.46273-5.9992 1.128-11.193 1.4785-11.542 1.5318-1.5242 2.7164 1.975 3.182 9.399 0.58656 9.3548-0.76161 15.342-4.2323 18.795-2.4031 2.391-3.9775 2.9941-3.9775 1.5237z"/><path d="m188.47 316.82c-4.1693-9.3802-5.1704-16.884-3.196-23.959 1.0572-3.7882 3.1374-5.3115 4.8823-3.5754 0.6096 0.60653 1.1754 5.0193 1.3249 10.333 0.20439 7.2644 0.69067 10.095 2.2439 13.06 1.5398 2.9393 1.7893 4.3639 1.1163 6.3738-1.5146 4.5231-3.7108 3.7536-6.3714-2.2322z"/><path d="m169.72 310.56c-2.6227-3.9826-3.0724-19.281-0.56674-19.281 0.41556 0 1.9005 2.6805 3.3 5.9567 1.8661 4.3688 2.4669 7.1683 2.2535 10.502-0.34105 5.3278-2.5235 6.5632-4.9867 2.8228z"/><path d="m247.06 308.91c-1.9547-3.708-2.131-5.149-1.9251-15.742 0.12465-6.413 0.53053-11.939 0.90195-12.28 0.37142-0.3411 2.0922-0.91763 3.824-1.2812l3.1487-0.66099-0.54902 5.0002c-0.30195 2.7501-0.81242 10.045-1.1344 16.211-0.32197 6.1659-0.92943 11.576-1.3499 12.023-0.42049 0.44651-1.7328-1.0249-2.9162-3.2698z"/><path d="m302.16 303.67c-0.36736-1.6642 0.17261-4.9251 1.4391-8.6911 1.5031-4.4694 2.0802-8.6841 2.2325-16.304 0.24913-12.464 3.7624-26.626 6.6053-26.626 1.4801 0 2.3937 10.482 1.2616 14.474-1.1555 4.0741-0.97009 12.466 0.35602 16.115 1.0159 2.7954 0.91061 3.5612-0.90831 6.6059-1.1316 1.8942-3.153 5.7562-4.492 8.5822-1.339 2.826-2.7562 5.7438-3.1493 6.484-1.2636 2.3791-2.7407 2.0962-3.3448-0.64051z"/><path d="m208.68 298.29c-1.7729-2.1255-3.2058-17.621-1.9587-21.181 0.56226-1.6048 1.0223-4.2992 1.0223-5.9874 0-6.5981 3.6265-10.533 5.3095-5.7604 0.40773 1.1561 0.61802 8.3526 0.46733 15.992-0.33311 16.888-1.4936 20.949-4.8404 16.936z"/><path d="m375.25 293.37c-4.4359-2.9201-5.77-15.134-2.5239-23.108 1.0459-2.5691 2.2864-5.9324 2.7567-7.4738 0.96583-3.1656 3.7384-3.7847 5.3767-1.2006 0.79856 1.2596 0.34152 2.9099-2.1378 7.7197-3.316 6.4328-3.434 8.2644-1.3707 21.274 0.54404 3.4303-0.0101 4.165-2.1009 2.7884z"/><path d="m388.61 289.65c-2.1323-7.3105-2.4238-9.5661-1.5362-11.889 0.68264-1.7865 0.58992-4.0604-0.32644-8.0071-0.70391-3.0316-1.0573-5.7335-0.78536-6.0041 3.4817-3.4642 6.635 13.58 4.9645 26.834-0.17097 1.3565-1.8453 0.68126-2.3165-0.93424z"/><path d="m99.423 285.96c-1.2771-1.2707-0.44306-4.1494 3.1051-10.717 2.0339-3.7647 4.5588-9.9527 5.6109-13.751 2.1577-7.7902 2.4893-8.3541 4.0178-6.8332 2.6453 2.632-2.7995 23.356-7.4916 28.515-2.0385 2.2412-4.4838 3.541-5.2421 2.7865z"/><path d="m265.05 281.5c-2.2748-2.7273-2.6931-8.0453-1.4022-17.83 1.4035-10.639 2.5691-13.762 4.9645-13.303 4.0073 0.76777 5.939 21.541 2.5885 27.837-2.5372 4.7675-4.1864 5.6513-6.1508 3.2963z"/><path d="m229.84 274.17c-2.0072-3.048-3.3919-15.804-2.3258-21.425 1.0461-5.5162 3.3339-10.044 5.0753-10.044 1.014 0 1.3165 1.57 1.3049 6.7732-9e-3 3.7252 0.44322 7.9566 1.0033 9.4031 1.9737 5.0973 0.38467 16.292-2.4429 17.21-0.6126 0.19895-1.7893-0.66394-2.6148-1.9176z"/><path d="m177.01 260.82c0.26825-2.368 0.10138-5.6977-0.37081-7.3992-0.74507-2.6849-0.40401-3.9165 2.5809-9.3197 3.5468-6.4202 5.367-8.0028 7.1566-6.2223 0.75203 0.74825 0.72593 2.0497-0.0958 4.7787-0.94282 3.131-0.88803 4.2146 0.33174 6.5615 1.9375 3.7279 1.1118 6.5238-3.4493 11.679-4.9987 5.6504-6.7997 5.6274-6.1533-0.0785z"/><path d="m147.65 252.49c0-3.3756 3.2782-10.682 9.1378-20.367 4.1658-6.8852 5.3992-6.0277 4.4767 3.112-0.54651 5.4146-1.176 7.2776-3.2637 9.6595-1.4226 1.6231-3.4971 4.7377-4.6099 6.9215-2.6558 5.2115-5.741 5.5737-5.741 0.67404z"/><path d="m376.76 107.82c0-1.4657 2.8131-2.413 7.2214-2.4318 3.622-0.0154 4.7838 1.3971 2.2561 2.7431-2.7799 1.4802-9.4775 1.2603-9.4775-0.31129z"/></g><path d="m297.01 99.733c1.4055-0.74843 1.8162-1.9737 1.8162-5.4185 0-2.4483-0.50702-4.9559-1.1267-5.5725-0.61972-0.61659-3.2816-1.1211-5.9154-1.1211s-5.2956 0.50448-5.9154 1.1211c-1.6443 1.636-1.408 8.7421 0.34876 10.49 1.6826 1.6742 8.0355 1.9691 10.793 0.50098z" fill="#fff"/><path d="m384.33 94.556c5.9705-2.7869 11.325-5.0671 11.9-5.0671 1.4414 0 6.6441-4.4636 7.8792-6.7598 1.72-3.1977 2.4958-12.073 1.6465-18.835-0.92209-7.3424-4.5584-14.577-7.3268-14.577-1.9591 0-3.8277 5.7916-3.8277 11.864 0 6.4545-1.6033 9.7249-7.493 15.284-5.0575 4.7735-6.1946 5.4022-10.807 5.9756-2.835 0.35243-6.0344 0.36291-7.1099 0.02327-1.0754-0.33961-3.038-0.34712-4.3612-0.01664-2.294 0.57285-2.3818 0.83256-1.8889 5.5841 0.3184 3.0694 1.4739 6.4917 3.0087 8.9107 3.0292 4.7745 3.0445 4.7725 18.38-2.3859z" fill="#fff"/><path d="m358.1 97.286c0.91186-1.0937 1.3224-4.7129 1.4042-12.379l0.11561-10.833-5.1368-10.526c-2.8253-5.7894-5.9565-10.963-6.9584-11.496-3.9965-2.1281-7.5102 1.122-9.1631 8.4758-1.0567 4.7013 0.44578 8.3829 3.4436 8.4378 0.89184 0.01639 2.4193 0.63066 3.3944 1.3651 1.3103 0.987 2.2481 1.0824 3.5944 0.36546 2.677-1.4255 4.4917-0.31772 4.4917 2.7421 0 1.4809 0.43712 3.9403 0.9714 5.4652 0.72381 2.0659 0.611 4.1493-0.44267 8.1742-1.2302 4.6992-1.2406 5.8147-0.0804 8.5776 1.4875 3.5421 2.4671 3.908 4.3661 1.6304z" fill="#fff"/><path d="m111.98 96.756c13.908 0.1748 19.127-0.64975 20.101-3.1761 0.30221-0.7836 0.51152-4.9183 0.46511-9.1883l-0.0842-7.7636-4.4446-0.58664c-16.25-2.1447-26.212-16.2-28.131-39.688l-0.58201-7.1219-2.8956 4.6711c-6.9232 11.168-10.039 22.297-10.068 35.968-0.02142 9.8024 0.70932 13.806 4.2275 23.162 1.8333 4.8753 1.9301 4.9607 4.8342 4.2635 1.6299-0.39126 9.0901-0.63438 16.578-0.54027z" fill="#fff"/><path d="m333.91 86.213c0.25963-0.67318-0.12867-3.4695-0.86287-6.214-0.73418-2.7445-1.3399-7.5778-1.346-10.741-0.0101-5.1767-0.33344-6.1344-3.2409-9.5969-1.7764-2.1155-3.5164-4.7828-3.8668-5.9273-1.032-3.371-3.3351-5.3508-6.2243-5.3508-1.4858 0-4.2724-0.66609-6.1924-1.4802-4.5798-1.9419-13.243-3.4098-20.955-3.5508-6.234-0.11398-9.2954-1.4177-9.2954-3.9585 0-1.633 0.0439-1.6381-4.8269 0.56099-5.5154 2.4901-9.8775 2.3624-14.421-0.42223-4.5666-2.7985-8.484-2.9319-26.862-0.915-7.2413 0.79471-13.941 1.2001-14.889 0.90078-0.94775-0.29929-3.4045 0.32782-5.4596 1.3936-5.8789 3.0489-14.48 4.3216-19.741 2.9214-2.4111-0.64164-5.1456-1.8525-6.0765-2.6908-1.5884-1.4303-1.9587-1.2478-6.0138 2.9628-8.4542 8.7784-19.78 11.531-25.852 6.2839-3.4332-2.9668-4.1857-2.8932-9.8696 0.96516-7.1224 4.8349-11.478 15.278-11.509 27.592-0.0126 4.9677 0.27274 5.9591 1.9758 6.866 1.6262 0.86597 2.4697 0.70743 4.609-0.86627 2.2706-1.6703 2.7699-1.7447 3.7581-0.55996 1.7318 2.0762 4.6039 1.649 5.5494-0.82544 0.46062-1.2054 1.1896-6.532 1.6199-11.837 0.43679-5.3843 1.2294-9.7919 1.7943-9.9775 2.1308-0.70003 3.6158 4.8545 3.6493 13.65 0.0237 6.2314 0.37941 8.911 1.22 9.1908 1.4326 0.47701 10.793-3.796 19.872-9.0718 7.3199-4.2536 8.216-6.1919 4.6222-9.998-1.6834-1.7828-1.7838-2.2274-0.60515-2.6775 0.77736-0.29681 2.8788 0.32063 4.6699 1.3721 4.8436 2.8435 11.417 4.5624 21.789 5.698 15.001 1.6424 19.941-0.0037 16.999-5.6647-0.84516-1.6261-1.362-3.1303-1.1487-3.3427 0.21341-0.21232 2.4628 0.71834 4.9987 2.0681 4.4286 2.3572 4.8425 2.4088 10.479 1.3057 5.068-0.99182 6.3921-0.94004 9.7068 0.37959l3.8383 1.5281 9.0721-4.1506c4.9897-2.2828 9.2116-3.7697 9.3821-3.3041 0.1705 0.46557-0.56892 1.9582-1.6432 3.317-2.4758 3.1317-2.4781 5.9737-7e-3 9.0993 2.8053 3.5479 5.591 3.1171 14.29-2.2096 7.3601-4.5067 10.993-5.7309 10.993-3.704 0 0.5319 0.73328 2.0806 1.6295 3.4416 0.93774 1.424 1.6353 4.2855 1.6432 6.7403 0.0134 4.1709 0.0942 4.2856 3.6384 5.1565 2.729 0.67053 5.1258 0.49897 9.698-0.69423 7.1888-1.876 9.0302-1.2533 10.639 3.5981 1.1336 3.4176 3.7661 5.1423 6.6883 4.382 0.88727-0.23086 1.8256-0.97054 2.0853-1.6437z" fill="#fff"/><path d="m337.28 55.493c2.0605-4.7828 2.8347-5.3888 8.4948-6.6491 3.8559-0.85859 4.2252-1.1852 4.2252-3.7369 0-2.431-0.62204-3.1011-4.7636-5.1317-2.62-1.2846-5.8797-3.0713-7.2438-3.9705-3.1644-2.086-4.6836-2.062-6.6544 0.10485-2.1546 2.3688-3.3944 7.0194-3.5822 13.437-0.13103 4.4773 0.20928 5.7553 2.0524 7.7074 3.3166 3.5126 5.4124 3.0186 7.4715-1.761z" fill="#fff"/><path d="m170.37 48.219c4.6436-1.3843 11.531-7.3551 13.969-12.11l1.8657-3.6387-3.3477-1.9653c-1.8412-1.0809-3.9769-3.1759-4.7459-4.6555-1.8342-3.5291-3.9097-3.3938-9.1633 0.5975-7.827 5.9464-12.428 14.669-10.06 19.072 1.9092 3.5494 5.6672 4.433 11.482 2.6997z" fill="#fff"/><path d="m210.15 39.097c0.54683-0.03066 1.7647-0.61622 2.7063-1.3013 1.6192-1.178 1.626-1.3764 0.12441-3.6566-1.5165-2.3029-1.5046-2.4372 0.26485-2.996 1.2814-0.40466 2.6298 0.18836 4.3738 1.9236 2.4899 2.4774 2.6339 2.5009 11.582 1.8913 15.27-1.0402 16.816-2.0519 11.944-7.8134-2.6633-3.1492-15.068-7.7341-20.837-7.7016-4.3901 0.02477-10.242 2.5482-16.489 7.1109-2.5452 1.859-6.7169 3.9893-9.2705 4.7341-3.3029 0.96336-4.6429 1.8314-4.6429 3.0076 0 4.0265 7.4661 6.7837 15.023 5.548 2.3239-0.38 4.6726-0.71599 5.2195-0.74662z" fill="#fff"/><path d="m316.48 35.333c3.402-2.452 5.8234-5.3607 5.8234-6.9955 0-0.30218-1.7258-2.4123-3.8352-4.6893-2.8087-3.0317-5.1454-4.5188-8.7298-5.5556-2.692-0.77866-8.8885-3.4822-13.77-6.0079-7.0141-3.6291-10.254-4.7421-15.448-5.3073-9.6596-1.0511-10.993-0.86468-13.354 1.8669-3.205 3.7073-2.7976 5.1547 1.3824 4.9106 2.9354-0.17143 3.5674 0.11874 3.8011 1.7446 0.39587 2.7549-0.8974 3.4978-12.017 6.903-5.4224 1.6606-10.169 3.501-10.549 4.0897-1.0616 1.6474-0.85126 3.1406 0.65335 4.6376 1.2033 1.1972 2.3034 1.1035 8.9487-0.76229 4.1673-1.17 9.3228-3.277 11.457-4.6821 7.058-4.6473 13.027-7.9321 14.413-7.9321 3.2133 0 0.79615 2.9675-7.5985 9.3284-9.0559 6.862-10.698 9.4946-6.3119 10.118 3.4537 0.49082 12.965-3.7416 20.083-8.9363 6.3522-4.6361 10.218-6.1199 10.218-3.922 0 0.54048-0.94378 2.6143-2.0973 4.6085-1.1535 1.9942-1.7792 3.9424-1.3904 4.3292 0.38881 0.38685 2.6032 0.60571 4.9208 0.48633 3.7453-0.1929 4.315 0.04754 5.1229 2.1619 1.1979 3.135 3.5352 3.0236 8.2774-0.39442z" fill="#fff"/><path d="m247.03 16.608c2.292-1.0349 3.9153-2.3531 3.7136-3.0157-0.50113-1.6465-7.8988-5.187-12.95-6.1977-2.3239-0.46501-6.9283-1.5627-10.232-2.4394-6.8011-1.8047-9.2643-1.5241-16.494 1.8788-5.2004 2.4478-7.2549 5.314-5.2398 7.31 0.64019 0.6341 4.619 1.1199 9.7175 1.1864 4.7484 0.06193 11.38 0.75651 14.737 1.5434 8.3242 1.9513 11.965 1.8935 16.748-0.26584z" fill="#fff"/></g></svg>
