<svg xmlns="http://www.w3.org/2000/svg" width="610.019" height="618.073" version="1"><defs><clipPath><path d="M0 841.98h595.2V0H0v841.98z"/></clipPath><clipPath><path d="M567.48 61h-540v720h540V61z" clip-rule="evenodd"/></clipPath></defs><g><g><g><path fill-rule="evenodd" d="M335.2 593.08c-2.5 7.3-10.3 25.15-29.4 25.15-21.65 0-28.93-23.64-29.43-24.4l-.5-2.26s18.6 1.5 28.66 1.5c10.3 0 27.92-1 30.68-1.5v1.5"/></g><g><path fill-rule="evenodd" d="M392.05 581.5l4.52.5c-5.53 13.84-14.84 29.44-33.7 29.44-18.1 0-26.9-10.56-30.94-17.6l-3-1.77s31.17-1.25 63.12-10.56"/></g><g><path fill-rule="evenodd" d="M220.54 581.5l-4.53.5c5.3 13.84 14.85 29.44 33.46 29.44 18.1 0 27.92-11.06 31.94-17.6l2-1.77s-31.17-1.25-62.86-10.56"/></g><g><path fill="#fff200" fill-rule="evenodd" d="M321.13 594.6c-3.02 4.27-5.03 4-8.56 4-1.76 0-4.27 1.53-4.27 4.04 0 2 1.76 3.77 4.53 3.77 6.54 0 11.3-8.8 12.82-12.57 0 0 3.78-.25 4.8-.25 0 0-6.8 20.13-24.4 20.13-17.6 0-24.66-19.87-24.66-19.87s14.83.76 23.38.76c8.3 0 13.83 0 16.35 0"/></g><g><path fill="#fff200" fill-rule="evenodd" d="M389.52 585.54c-11.3 3.27-19.6 5.8-38.72 8.05 0 0 .5 2 4.77 1.75 1.5 0 1.77-.5 2.52-.5 1-.26 3 1 2.75 3-.25 1.53-1.5 3.3-5.78 3.3-4.27 0-9.3-3.54-11.8-6.8 0 0-2.53.74-5.04.74 0 0 8.04 11.57 24.14 11.57 17.85 0 24.4-15.85 27.16-21.12"/></g><g><path fill="#ffdf00" fill-rule="evenodd" d="M377.7 596.85c0-2.76-.74-5.28-2.25-7.54-6.3 1.52-13.34 2.77-23.9 4.28 0 .25 0 .5-.25.75.75.5 2 1 4.27 1 1.5 0 1.76-.5 2.52-.5 1-.24 3 1 2.76 3.02-.25 1.52-1.5 3.28-5.8 3.28-1 0-2.25-.25-3.25-.5.5 1.76 1.5 3.52 2.77 5.03 2.26.74 5.03 1 7.8 1 5.78 0 10.3-1.5 14.08-4.02.75-1.76 1.26-3.78 1.26-5.8"/></g><g><path fill="#ffe100" fill-rule="evenodd" d="M377.46 596.85c0-2.76-.75-5.28-2.26-7.54-6.04 1.52-13.08 2.77-23.4 4.03 0 .5-.24.76-.24 1.26.75.5 1.76.74 4 .74 1.52 0 1.78-.5 2.53-.5 1-.25 3 1 2.76 3-.25 1.53-1.52 3.3-5.8 3.3-1 0-2-.26-3.25-.5.76 2 1.76 3.76 3.03 5.26 2.25.5 4.77.76 7.54.76 5.78 0 10.05-1.5 13.84-3.77.76-1.77 1.26-3.8 1.26-6.05"/></g><g><path fill="#ffe300" fill-rule="evenodd" d="M377.46 596.85c0-2.76-1-5.28-2.52-7.3-6.03 1.27-12.82 2.52-22.88 3.78-.25.5-.25 1-.25 1.26.5.5 1.76.74 3.77.74 1.5 0 1.77-.5 2.52-.5 1-.25 3 1 2.76 3-.25 1.53-1.52 3.3-5.8 3.3-1 0-2 0-3-.5.75 2 1.76 3.76 3 5.26 2.28.5 4.8.76 7.3.76 5.54 0 9.8-1.5 13.34-3.52 1-2 1.76-4.03 1.76-6.3"/></g><g><path fill="#fff200" fill-rule="evenodd" d="M222.8 585.54c11.58 3.27 19.63 5.8 39 8.05 0 0-.77 2-4.8 1.75-1.75 0-2-.5-2.5-.5-1.26-.26-3 1-2.77 3 0 1.53 1.27 3.3 5.54 3.3s9.3-3.54 11.82-6.8c0 0 2.5.74 5.27.74 0 0-8.3 11.57-24.4 11.57-17.85 0-24.4-15.85-27.16-21.12"/></g><g><path fill="#fff200" fill-rule="evenodd" d="M304.54 491c61.1 0 129-37.48 176.8-91.8 5-5.8 13.82-17.1 34.7-17.1 20.6 0 48.27 19.1 45 53.3-2.52 25.16-38.22 81.74-99.58 116.45-61.36 34.95-117.7 42.5-156.92 42.5-39.24 0-95.82-7.55-157.17-42.5-61.12-34.7-97.08-91.3-99.33-116.44-3.28-34.2 24.13-53.3 45-53.3 20.62 0 29.43 11.3 34.46 17.1 47.78 54.32 115.68 91.8 177.04 91.8"/></g><g><path fill-rule="evenodd" d="M304.54 488.98c29.67 0 60.85-9.05 90.78-24.64 30.94-16.1 60.36-39.23 84.24-66.64 2.78-3.02 6.3-7.3 12.07-11.07 5.8-3.77 13.33-6.54 24.4-6.54 1 0 2.26 0 3.52 0 10.06 1 20.88 5.78 29.42 14.32 8.55 8.3 14.33 20.38 14.33 35.72 0 1.76 0 3.5-.25 5.53-1.25 14.33-13.33 38.73-34.45 63.63-16.6 19.36-38.73 38.98-66.14 54.57-30.68 17.6-60.35 28.16-87.26 34.45-26.9 6.3-51.05 8.05-70.66 8.05-19.87 0-44-1.76-70.92-8.05-26.65-6.3-56.33-16.85-87.26-34.45-27.16-15.6-49.55-35.2-66.14-54.57-21.13-24.9-33.2-49.3-34.45-63.63-.26-2.02-.26-3.77-.26-5.53 0-15.34 6.06-27.4 14.35-35.72 8.55-8.54 19.62-13.32 29.43-14.33 1.25 0 2.5 0 3.77 0 10.8 0 18.6 2.76 24.4 6.53 5.52 3.77 9.04 8.05 11.8 11.07 24.15 27.4 53.32 50.54 84.5 66.64 29.68 15.6 61.1 24.64 90.8 24.64zm0 4.28c-30.43 0-62.62-9.05-92.8-24.9-31.7-16.34-61.36-39.73-85.75-67.65-2.53-3-6.05-7.03-11.08-10.3-5.03-3.27-12.07-6.03-21.87-6.03-1.26 0-2.26 0-3.27.25-9.06.76-19.12 5.28-26.66 12.83-7.8 7.8-13.33 18.6-13.33 32.7 0 1.75.25 3.5.25 5.27C51.3 449 63.12 472.38 83.5 496.28c16.33 19.1 38.22 38.47 65.12 53.82 30.43 17.35 59.6 27.66 86 33.94 26.66 6.28 50.3 8.05 69.92 8.05 19.36 0 43.25-1.78 69.66-8.06 26.4-6.28 55.83-16.6 86.25-33.94 26.66-15.35 48.54-34.72 64.9-53.82 20.6-23.9 32.17-47.3 33.43-60.86.25-1.77.25-3.52.25-5.28 0-14.08-5.53-24.9-13.08-32.7-7.8-7.54-17.85-12.06-26.9-12.82-1-.25-2.02-.25-3.02-.25-10.06 0-16.85 2.76-22.13 6.03-5.03 3.27-8.55 7.3-11.06 10.3-24.4 27.93-54.08 51.32-85.5 67.66-30.44 15.85-62.38 24.9-92.8 24.9"/></g><g><path fill="#e20e0e" fill-rule="evenodd" d="M120.72 404.5l-.75-.77c-4.8-5.53-11.58-13.32-27.42-13.32-9.3 0-19.87 5.04-26.9 12.83-5.3 5.8-11.32 15.85-9.8 31.18 2 21.13 35.7 75.95 95.3 109.9 48.03 27.42 99.58 41.26 152.9 41.26 53.06 0 104.6-13.84 152.64-41.25 59.84-33.95 93.3-88.77 95.3-109.9 1.5-15.32-4.53-25.38-9.8-31.17-6.8-7.8-17.36-12.82-26.67-12.82-16.1 0-22.88 7.8-27.66 13.33l-.75.76c-51.3 58.58-121.47 94.8-183.08 94.8-61.86 0-132.02-36.22-183.32-94.8"/></g><g><path fill="#fff200" fill-rule="evenodd" d="M501.43 335.58c0-29.42 23.9-53.3 53.06-53.3 29.42 0 53.3 23.88 53.3 53.3 0 29.42-23.88 53.32-53.3 53.32-29.17 0-53.07-23.9-53.07-53.32"/></g><g><path fill-rule="evenodd" d="M499.17 335.58c0-15.33 6.28-29.17 16.34-39.23 9.82-10.05 23.9-16.1 39-16.1 15.34 0 29.42 6.05 39.22 16.1 10.06 10.06 16.35 23.9 16.35 39.23 0 15.34-6.3 29.17-16.35 39.23-9.8 10.07-23.88 16.36-39.22 16.36-15.1 0-29.18-6.3-39-16.35-10.05-10.05-16.33-23.88-16.33-39.22zm4.27 0c0 14.1 5.78 26.9 15.1 36.22 9.3 9.3 21.88 14.83 35.96 14.83 14.33 0 26.9-5.53 36.2-14.83 9.32-9.3 14.84-22.13 14.84-36.22 0-14.08-5.52-26.9-14.83-35.96-9.3-9.3-21.87-15.1-36.2-15.1-14.08 0-26.66 5.8-35.97 15.1-9.3 9.06-15.1 21.88-15.1 35.96"/></g><g><path fill="#fff200" fill-rule="evenodd" d="M2.03 335.84c0-29.42 23.9-53.32 53.3-53.32 29.43 0 53.33 23.9 53.33 53.32s-23.9 53.06-53.32 53.06-53.3-23.64-53.3-53.06"/></g><g><path fill-rule="evenodd" d="M.02 335.84c0-15.34 6.03-29.17 16.1-39.23 10.05-10.04 23.88-16.34 39.22-16.34s29.18 6.3 39.24 16.35c10.05 10.07 16.34 23.9 16.34 39.24 0 15.1-6.3 29.17-16.34 39.23-10.06 9.8-23.9 16.1-39.24 16.1-15.34 0-29.17-6.3-39.23-16.1C6.06 365 .03 350.93.03 335.84zm4.27 0c0 14.08 5.77 26.66 15.07 35.97 9.06 9.3 21.9 15.1 35.97 15.1 14.1 0 26.9-5.8 36.2-15.1 9.32-9.3 14.85-21.88 14.85-35.96 0-14.1-5.54-26.9-14.85-36.2-9.3-9.32-22.12-14.85-36.2-14.85-14.1 0-26.92 5.52-35.98 14.83-9.3 9.3-15.08 22.12-15.08 36.2"/></g><g><path fill="#00000f" fill-opacity=".941" fill-rule="evenodd" d="M569.07 192.5l.5-14.32c4.28 3.26 12.57 3.5 17.36-1.77 2.26-2.26 3.52-6.02 3.27-9.8-.25-4.27-2-8.55-5.3-11.56-17.85-17.6-33.68-34.96-33.68-34.96-1.76-2.77-4.27-4.53-5.78-5.28-2.27-1-10.06-4.53-15.85 4.53-5.3 8.05-4.54 19.6-3.53 23.88l16.85 22.9c5.53 7.3 21.88 22.63 26.15 26.4"/></g><g><path fill="#231f20" fill-rule="evenodd" d="M210.74 44.14c21.12-7.04 40.23-12.83 66.4-15.34l-66.4 15.34"/></g><g><path fill-rule="evenodd" d="M210.74 44.14c21.12-7.04 40.23-12.83 66.4-15.1l4-2.25C266.58 15.2 252 7.4 237.65 7.4c-9.05 0-27.4 6.3-31.43 38.48l4.54-1.76"/></g><g><path fill-rule="evenodd" d="M398.33 44.14c-21.12-7.04-40.5-12.83-66.4-15.1l-4-2.25C342.5 15.2 356.82 7.4 371.16 7.4c9.05 0 27.4 6.3 31.43 38.48l-4.27-1.76"/></g><g><path fill="#231f20" fill-rule="evenodd" d="M287.2 25.8c4.26-.26 14.07-.5 18.1-.5 4 0 14.83.5 17.34.74l-35.45-.25"/></g><g><path fill-rule="evenodd" d="M280.64 27.8C291.2 7.4 301.02.12 306.3.12c6.8 0 14.58 10.56 20.87 24.4l1.25 3.26-5.28-.5c-3.77-.77-13.83-.77-17.85-.77-4.03 0-12.6 0-17.86.26l-6.8 1"/></g><g><path fill="#fff200" fill-rule="evenodd" d="M259.77 510.6l-9.56 35.47-17.84-42.76-10.82-3-13.58 50.3 12.08 3 9.55-35.7 18.1 43.25 10.56 2.77 13.58-50.04-12.07-3.27"/></g><g><path fill="#fff200" fill-rule="evenodd" d="M301.02 516.9l-13.58-.76-2.77 52.06 13.83.75 2.52-52.06"/></g><g><path fill="#fff200" fill-rule="evenodd" d="M313.33 516.4l1.02 6.78 14.58-2.02 6.3 44.77 13.57-2-6.3-44.52 14.35-2-1-6.8-42.52 5.8"/></g><g><path fill="#fff200" fill-rule="evenodd" d="M454.16 495.26c6.8 11.57 5.28 20.12-4.78 25.9l-4.78 2.78-19.1-32.96 5.02-3c12.32-7.05 19.1-1.02 23.64 7.28zm-26.4-13.83l-17.6 10.3 25.9 45.28 17.6-10.3c18.1-10.32 19.86-26.16 12.82-39-8.8-15.07-22.88-15.33-38.72-6.27"/></g><g><path fill="#fff200" fill-rule="evenodd" d="M394.56 545.56l-5.04-16.1 15.35-5.03-2.27-6.53-15.34 5.03-4.27-13.58 15.6-5.28-2.03-6.55-28.9 9.56 16.07 49.3 31.94-10.3-2.26-6.56-18.86 6.04"/></g><g><path fill="#fff200" fill-rule="evenodd" d="M196.9 488.22l-15.58 27.9c-4.53 8.32-9.3 13.6-17.1 9.08-7.8-4.28-6.04-10.82-1.26-19.37l15.34-27.92-12.32-6.78-16.35 29.43c-9.05 16.1 2.27 26.15 11.06 31.18 9.55 5.04 23.38 9.05 32.18-7.04L209.24 495l-12.33-6.8"/></g><g><path fill="#fff200" fill-rule="evenodd" d="M188.1 182.7v243.68l116.44 74.68 116.43-74.68V183.2c-3.52-3.27-11.32-10.57-17.6-14.33H204.95c-5.03 3.5-15.34 12.07-16.85 13.82"/></g><g><path fill-rule="evenodd" d="M190.12 182.7V425.1l114.42 73.43 114.17-73.43V183.2h4.53l-.25 243.18v1l-1 .76-116.44 74.94-1 .75-1.26-.75-116.43-74.94-1-.76v-244.7h4.27"/></g><g><path fill="#231f20" fill-rule="evenodd" d="M419.45 184.96c-1-1-.25-.25-1.26-1.26-4.03-3.77-10.57-9.8-15.86-12.82l2.27-3.77c5.54 3.53 12.33 9.57 16.6 13.34 0 0-.5-.5 1.27 1l-3.02 3.52"/></g><path d="M204.95 166.6v4.53h198.4v-4.53h-198.4z"/><g><path fill="#231f20" fill-rule="evenodd" d="M206.2 170.62c-2.5 1.77-5.77 4.54-8.8 7.04-3.76 2.78-6.78 5.78-7.8 6.54l-3.25-2.76c1-1.26 4.52-4.28 8.3-7.3 3.26-2.76 6.53-5.53 9.04-7.04l2.5 3.52"/></g><g><path fill="#e20e0e" fill-rule="evenodd" d="M312.57 287.06c-.75-.5-3.52 1.76-5.03 4.02-1.25 2-1.5 4.78.26 5.8 1.76 1 4.27-.26 4.77-3.54.26-2 1.02-6.03 0-6.28zm-22.12 6.28c.5 3.28 2.76 4.54 4.78 3.53 1.75-1 1.5-3.78 0-5.8-1.27-2.25-4.03-4.5-4.78-4-.76.24-.25 4.26 0 6.27zm11.57 32.2c4.02-6.3 5.52-13.08 5.52-13.08h-11.06s1.76 6.8 5.54 13.08zm2-48.04l9.06-15.84 7.04 15.84h11.57c-7.05 6.54-9.82 16.6-9.82 23.14v7.3c0 3.02-1.5 8.04-1.5 8.04s10.06 7.8 11.56 9.06c.75.5 1.5 1 1 2.26-.75 2.26-7.8 5.27-8.55 6.03-1.5 1.26-1.77 2-1.5 3.52.5 1.26 1.75 1.5 4.52.5 2.5-.75 8.04-3.77 12.82-5.53 4.53-2 10.8-1.76 10.8-1.76v-8.8h-17.6v-28.17l-3-4.8 7.8-13.82 7.53 13.83-3 4.8v14.83h9.04V293.1l-3.26-4.8 7.8-13.82 7.8 13.83-3.02 4.8v14.83h8.8V293.1l-3.02-4.8 7.54-13.82 7.8 13.83-3.02 4.8v28.15h-17.35v13.08c3.76 3.78 7.54 12.07 7.54 17.36 0 5.02-3.26 7.03-3.26 7.03 1.26 4.02 1 5.78.5 9.3-.5 3.78-5.02 9.56-5.02 9.56v67.13c0 4.78-10.57 4.28-10.57.26v-65.9c-6.03-6.54-22.37-11.56-22.37-11.56-6.05 5.78-9.8 16.34-9.8 16.34 2.75 1.75 6.77 0 8.28-1.76 1.52-1.76 4.53-2.27 6.3-1.26 1.75 1.26 2.25 1.5 1.5 4.27-.5 2.52-1.76 7.04-1.76 10.07 0 3 3.77 2.5 6.28 2.76 5.3.25 6.3 6.28 5.8 9.56-.5 3.27-2.02 10.3-2.02 14.84 0 4.27.25 8.8.76 11.3.24 2.28 1.25 5.04 1 8.06-.25 4.27-2.76 4.78-5.54 2.26-2.5-2.76-39.47-42-39.47-42-2.5 8.05 7.8 21.63 11.07 25.9 3.27 4.03 3.02 7.3.25 10.06-3.02 3.02-8.55 4.53-9.55 7.05-1 2.75 2.76 10.55 10.3 20.6 7.8 9.8-8.8 16.6-18.6 18.36-10.07 2-10.07-4.77-9.3-8.55.74-3.76.74-5.77.5-9.3-.26-3.26-3.28-7.8-7.55-13.3-4.27-5.56-4.27-10.58-2.52-23.4 1.77-12.83 1.27-20.88 1.27-20.88s-4.28.26-10.57 0c-6.53-.25-11.82-4.03-12.32-19.37-.26-15.6-.76-52.3-1.76-56.07-1-4.03-5.03-4.78-6.8-5.03-2-.5-2-3.27-.24-4.02 4.53-2.27 10.05-8.05 8.04-11.57-2-3.52-10.06-2.77-15.6 0-5.52 2.5-11.05 8.3-12.56 9.8-1.5 1.77-2.77 1.77-2.52 0 0-1.76-1-10.05-1.75-13.07-.77-3.03-3.53-8.56-4.3-10.07-1-1.5 0-2 1.52-1.5 1.5.75 4.52 2 7.8 2.76 3 1 6.03-.52 7.54-3.53 1.26-2.77 4.27-9.06 5.53-12.07 1.5-2.77 4-2 5.78-1.77 2 .5 3.77 1.77 5.53 2.52 1.76.76 3.27.5 3.78-.25.5-1 1.25-1.26 2.25-3.52 1-2.27 2.53-1.26 2.53-.25 5.28 31.68 19.1 32.94 19.1 32.94-2 5.53-7.04 13.83-8.04 15.85-1.26 2-1.76 4.77-2 7.03-.26 2.27.74 23.13 2.25 30.7 1.5 7.78 6.04 4.76 7.55 2.5 1.5-2.5 6.03-12.07 6.03-12.07s1.25-2.77 1.25-5.03c0-2-3.76-7.05-4.77-8.55-.75-1.26-4.02-4.28-4.02-11.57 0-7.3 6.55-12.58 8.8-14.58 2.53-1.77 2.53-4.53 2.27-6.04-1.26-5.78-7.3-17.6-10.06-22.12-3-4.77-8.8-13.33-8.8-13.33h12.08l7.55-15.84 8.3 15.85 8.8.25zm47.03 79.97v-9.06s-2.5-3.75-8.54-3.75c-5.78 0-9.3 1.75-9.3 3.26 0 2.53 5.27 9.57 17.85 9.57"/></g><path fill="#e20e0e" d="M197.16 243.55v14.58H411.9v-14.58H197.17z"/><path fill="#e20e0e" d="M197.16 177.67V236H411.9v-58.33H197.17z"/><g><path fill="#fff200" fill-rule="evenodd" d="M369.66 237.77V227.7h-15.6v-6.28h12.84v-28.16h-11.83l-4.02-7.8-4.02 7.8h-11.56v28.16h12.82v6.3h-30.7v-6.3h12.83v-28.16H318.6l-4-7.8-3.78 7.8H299v28.16h12.82v6.3h-31.18v-6.3h12.82v-28.16h-11.8l-4.04-7.8-4.03 7.8h-11.57v28.16h12.82v6.3l-24.64.24-24.63-5.8 5.02 15.6h139.06"/></g><g><path fill="#fff200" fill-rule="evenodd" d="M234.12 220.92l16.35 4.02 8.8-24.9v-6.28l-25.15 27.16"/></g><g><path fill="#fff200" fill-rule="evenodd" d="M273.85 27.3c-25.65 2.25-41.24 7.8-62.1 14.58 1.75-8.8 3.76-14.1 7.28-19.36-.25 4.52 3.52 9.54 11.07 9.54 7.54 0 11.56-4.27 11.56-7.03 0-2.5-1.5-6.3-5.53-6.3-4.02 0-5.03 3.03-4.53 4.03.26 1.27-.75 1.5-1.75 1.77-1.26.25-4.53-1.5-3.27-5.54 1.26-4.28 6.53-6.8 13.07-6.8 0 0 15.1-.5 34.2 15.1"/></g><g><path fill="#fff200" fill-rule="evenodd" d="M397.32 42.13c-20.87-7.05-37.22-12.32-62.6-14.58 11.55-8.3 22.62-15.1 34.7-15.1 6.28 0 11.56 2.27 12.8 6.8 1.27 4.02-2 5.78-3 5.54-1.26-.52-2-.77-1.76-1.78.25-1.26-.5-4.02-4.54-4.02-4 0-5.78 3.77-5.78 6.3 0 2.5 4.28 6.77 11.83 6.77 7.3 0 11.06-4.77 10.8-9.3 3.8 5.03 6.04 10.56 7.55 19.36"/></g><g><path fill="#fff200" fill-rule="evenodd" d="M289.45 22.52c-.75 1.25-1.25 2-2 3.26 4.26-.24 14.07-.5 17.84-.5 4 0 14.57.5 17.1.76-4.04-8.8-11.07-21.14-16.1-21.14-1 0-3.27-.5-7.3 4.3 0 0-.5 2 2.02 1.75 3.26-.5 4.52 2.76 4.27 4.52-.52 4.02-5.3 7.8-9.82 7.8-4.52 0-6.03-.75-6.03-.75"/></g><g><path fill-rule="evenodd" d="M67.4 166.1l16.86-22.9c1-4.27 1.76-15.83-3.53-23.87-6.03-9.06-13.83-5.55-16.1-4.54-1.25.75-4 2.5-5.52 5.28 0 0-16.33 17.85-34.2 35.2-2.26 2.52-5.27 7.05-5.53 11.32 0 3.77 1.5 7.55 3.53 10.06 5.03 5.03 13.58 4.77 17.85 1.5L41 192.5c4.53-3.77 20.63-19.1 26.4-26.4"/></g><g><path fill="#fff200" fill-rule="evenodd" d="M304.54 132.66c95.8 0 150.38 90.03 162.2 105.87 21.12 28.16 47.03 51.05 76.95 43.5 44.25-11.06 41.74-76.45 41.74-76.45-10.57-7.8-28.67-17.34-61.6-64.12C491.37 95.7 418.2 27.54 304.53 27.54 190.62 27.54 117.44 95.7 85 141.46c-32.94 46.78-51.05 56.33-61.6 64.12 0 0-2.27 65.4 41.74 76.45 29.92 7.55 55.82-15.34 76.94-43.5 11.82-15.84 66.4-105.87 162.46-105.87"/></g><g><path fill-rule="evenodd" d="M304.54 130.65c89.02 0 142.83 76.44 160.18 101.34 1.52 2.26 3.03 4 3.78 5.27 10.56 13.83 22.13 26.4 34.7 34.7 12.32 7.8 25.66 11.58 40 8.05 39.22-10.05 40.23-64.88 40.23-73.43-1-.5-1.76-1.26-2.76-1.76-11.08-7.8-28.93-20.12-58.6-62.12-18.62-26.4-50.8-60.1-96.57-83.74-33.2-17.36-73.44-29.18-120.96-29.18-47.53 0-88.02 11.82-121.22 29.18-45.76 23.63-77.95 57.34-96.3 83.74-29.68 42-47.54 54.3-58.86 62.12-.75.5-1.75 1.25-2.5 1.75-.26 8.54.75 63.37 39.98 73.42 14.33 3.53 27.66-.25 40.23-8.04 12.58-8.3 24.14-20.88 34.45-34.7 1-1.27 2.27-3.02 3.77-5.3 17.6-24.9 71.17-101.33 160.44-101.33zm0 4.27c-87 0-139.58 75.2-156.92 99.58-1.5 2.27-2.52 4.03-3.78 5.3-10.55 14.32-22.63 27.4-35.7 35.7-13.34 8.8-27.92 12.57-43.5 8.8-45.78-11.82-43.5-78.72-43.5-78.72v-1.25l1-.5c1.25-1 2.25-1.76 3.76-2.77 10.8-7.3 28.17-19.37 57.33-60.86 18.87-26.9 51.56-61.1 98.1-85.25C215 37.6 256.24 25.28 304.52 25.28s89.28 12.32 122.98 29.67c46.53 24.14 79.22 58.34 98.08 85.25 29.18 41.5 46.78 53.57 57.6 60.86 1.25 1 2.5 1.76 3.5 2.77l1.02.5v1.25s2.5 66.9-43.5 78.72c-15.6 3.77-30.2 0-43.5-8.8-13.1-8.3-24.9-21.38-35.72-35.7-1-1.27-2.27-3.03-3.78-5.3-17.1-24.4-69.9-99.58-156.66-99.58"/></g><g><path fill="#e20e0e" fill-rule="evenodd" d="M304.54 124.1c92.3 0 147.36 78.47 165.47 104.37 1.27 2 2.52 3.77 3.53 5.03 24.4 32.43 46.77 45.76 68.15 40.23 30.93-7.8 34.7-50.3 35.2-63.12v-.5l-.5-.24c-10.8-7.55-28.92-20.12-59.6-63.63-18.1-25.9-87.5-110.14-212.24-110.14-125 0-194.14 84.48-212.5 110.13-30.42 43-49.3 56.34-59.6 63.37l-.25.26v.5c.24 12.82 4.27 55.57 34.94 63.37 21.38 5.53 43.76-7.8 68.16-40.23 1-1.26 2.26-3.02 3.77-5.03C156.92 202.57 212 124.1 304.54 124.1"/></g><g><path fill="#fff200" fill-rule="evenodd" d="M105.63 160.32l-9.55 11.56 18.1 37.22-38.97-12.58-8.3 9.8 39.98 33.46 6.04-7.04-28.17-23.64 37.73 12.07 4.02-4.52-18.1-36.22 28.4 23.9 8.57-10.57-39.74-33.44"/></g><g><path fill="#fff200" fill-rule="evenodd" d="M155.92 152.52l-9.05 9.56-9.06-17.86 18.12 8.3zm-20.87-23.64l-9.05 9.56L151.15 188l6.02-6.56-6.78-13.08 12.06-13.07 13.58 5.78 10.06-10.57-51.05-21.62"/></g><g><path fill="#fff200" fill-rule="evenodd" d="M195.9 81.86l19.36 31.2-43.5-16.36-9.56 6.3 27.4 44 10.57-6.54-19.6-31.44 44 16.1 9.3-5.78-27.4-44.02-10.57 6.54"/></g><g><path fill="#fff200" fill-rule="evenodd" d="M360.36 107.26l5.53-15.84 15.33 5.27 2.26-6.54-15.35-5.28 4.53-13.58 15.85 5.53 2.25-6.54-28.67-10.07-17.08 49.3 31.68 10.8 2.27-6.53-18.6-6.54"/></g><g><path fill="#fff200" fill-rule="evenodd" d="M449.38 104l-4.8 5.27 11.08 9.8-30.18 33.45 10.06 9.06 30.18-33.45 10.8 9.8 4.54-5.27-31.7-28.67"/></g><g><path fill="#fff200" fill-rule="evenodd" d="M464.2 182.2l12.84-10.83 10.56 12.33 5.28-4.53-10.3-12.32 10.8-9.3 10.82 12.82 5.28-4.27-19.62-23.4-39.73 33.46 21.38 25.65 5.54-4.52-12.83-15.1"/></g><g><path fill="#fff200" fill-rule="evenodd" d="M524.56 195.53c3.53 4.02 3.53 8.8-.5 12.32-4.28 3.77-9.3 3-13.33-1.26l-2.5-2.77 13.3-11.82 3.03 3.53zm-7.04 25.4c.25.25 8.05 4.27 16.85-3.78 7.3-6.54 5.03-15.6-2.76-24.14l-14.08-15.83-38.73 34.95 9.05 10.06 15.34-13.82 4.5 5.02-9.54 21.88 11.56 9.3 7.8-23.63"/></g><g><path fill="#fff200" fill-rule="evenodd" d="M321.88 55.96l-.25 21.37-20.36-.5.25-21.12-13.58-.24-1 51.8 13.82.25.26-23.63 20.6.26-.5 23.88 13.6.27 1-52.06-13.84-.24"/></g><g><path fill="#fff200" fill-rule="evenodd" d="M396.07 133.16c9.56 6.03 20.37 5.03 25.15-3.26 3.77-5.8 3.77-10.32-.5-18.87-1.26-2.5-2.77-4.27-3.78-6.54-1.76-3.53-3.52-6.3-2-9.06 2-3.02 6.03-3.27 9.8-1 4.02 2.5 5.78 6.28 6.53 9.05l6.3-2.53c-2.02-5.28-4.78-9.8-11.32-13.82-11.07-6.55-20.12-4.8-23.9 1.5-3.76 6.3-2.76 11.57 0 16.85.26 0 2.02 3.27 3.03 5.28 2.5 4.28 5.28 9.3 3.26 12.83-2.5 4.03-6.8 5.04-10.8 2.5-5.54-3.5-6.8-7.27-7.8-11.3l-6.8 3.03c1.5 5.28 5.03 10.8 12.83 15.33"/></g><g><path fill="#fff200" fill-rule="evenodd" d="M254.25 58.72c-17.1 3.52-28.17 16.1-24.4 32.94 2 9.3 10.32 26.16 35.96 20.63 7.3-1.27 11.07-4.28 14.85-7.8l-4.78-5.54c-1.5 2-4.27 5.02-10.3 6.28-12.33 2.53-19.87-7.54-21.64-16.34-2.76-12.83 4.78-21.87 13.34-23.64 6.02-1.26 9.55.26 12.07 1.26l1.5-6.8c-4.02-1.5-9.05-2.75-16.6-1"/></g><g><path fill="#fff200" fill-rule="evenodd" d="M529.84 145.23c-.5-3.02-1.75-16.35 3.27-23.14 4.78-6.55 8.82-4.28 11.07-3.28 1.27.25 4.28 2.26 4.78 6.3.25 2-.25 5.02-2 7.3-3.02 4.26-10.32 7.02-10.32 7.02s9.3 18.1 28.67 35.97v12.08c-26.66-25.65-35.46-42.25-35.46-42.25"/></g><g><path fill="#fff200" fill-rule="evenodd" d="M543.42 141.46c2.52 4.53 9.3 15.6 26.15 31.43 2.77 2.76 9.8 4.76 13.58.5 1.52-1.76 2.53-4.28 2.27-7.05 0-3.27-2-7.04-4.03-8.55-3.28-3.02-17.87-17.6-28.17-28.92-.26 2.02-2 5.54-2 5.54-1.52 2-3.03 4.77-7.8 7.03"/></g><g><path fill="#fff200" fill-rule="evenodd" d="M44.77 186.72v-11.3c19.6-18.12 28.67-35.97 28.67-35.97s-7.05-2.77-10.32-7.05c-1.5-2.26-2.25-5.28-2-7.3.75-4 3.76-6.03 4.77-6.28 2.26-1 6.53-3.27 11.06 3.27 5.03 6.78 3.77 19.85 3 22.87 0 0-9.03 16.1-35.2 41.75"/></g><g><path fill="#fff200" fill-rule="evenodd" d="M66.4 141.46c-2.52 4.53-9.3 15.6-26.16 31.43-2.76 2.76-9.54 4.76-13.58.5-1.5-1.76-2.5-4.28-2.26-7.05 0-3.27 2.02-7.04 4.03-8.55 3.27-3.02 17.86-17.6 28.16-28.92.25 2.02 2 5.54 2 5.54 1.52 2 3.27 4.77 7.8 7.03"/></g><g><path fill="#e20e0e" fill-rule="evenodd" d="M12.1 336.08c0-23.88 19.35-43.25 43.5-43.25 23.88 0 43.25 19.37 43.25 43.25 0 24.15-19.37 43.5-43.26 43.5-24.15 0-43.5-19.35-43.5-43.5"/></g><g><path fill="#fff200" fill-rule="evenodd" d="M78.72 304.9c.75.5 2.76 2.02 2.76 2.02 3.78 3.27 7.05 7.3 9.06 12.07 2.5 5.78-5.28 14.83-7.55 16.84-10.06 9.3-16.35 9.3-19.88 9.8-3.5.5-5.77-1.75-5.77-4.52.25-7.8 5.77-21.38 7.54-23.9 1-1.75 2.75-2.75 2.75-2.75 3.78-1 7.3-2.52 9.06-4.78 2.02-2.03 2.02-4.8 2.02-4.8zm-36.2-5.77c4-1.26 8.3-2.26 12.8-2.26 6.8 0 13.08 1.25 18.62 4.78 1.5 1 1.76 2 1.76 3.5 0 5.3-8.05 7.06-13.32 7.06-5.28 0-11.83-2.26-16.6-3.77-4.53-1.26-5.54-4.02-5.54-5.28 0-1.26.75-3.52 2.27-4.02zM25.4 361.5c-5.52-5.3-9.3-15.1-9.3-25.4 0-3.78.5-7.55 1.5-11.32 0 0 1.02-1.52 2.02-.25.5 1 1.5 2 2.26 3.52.76 1.26 5.03 4.52 4.53 7.04-1.5 9.55 0 22.37.26 24.38.5 2.26-.25 3.26-1.26 2zm1-32.95c-2-1-4.26-5.8-5.02-7.3-.5-1-.5-4.02.25-5.27 3.27-5.8 7.8-10.82 13.58-13.6.76-.23 1.77-.23 1.77 1.27 0 1 .5 2.5.5 3.52 0 .76.5 2.77-.75 4.28-1.26 1.5-6.54 10.56-7.8 15.85-.24 1.25-.5 2.5-2.5 1.25zm29.7 46.77c-.27 0-.52 0-.77 0-7.3 0-15.1-2.5-19.87-5.28-4.77-2.76-6.53-15.08-6.53-21.38 0-20.36 8.3-32.68 9.55-35.2 1.5-2.26 4.53-2.5 6.8-2 2 .5 3 1 5.53 1.75 1.52.52 4.28 1.02 6.3 1.52 2 .5 4.27 1 3 4.78-1.5 4.02-5.78 13.32-6.28 24.4-.5 10.05.75 20.1 3.02 26.14 1.5 4.03 1.5 5.53-.75 5.28zm10.3-1.5c-2.27.75-3.28-.76-4.28-2-4.02-4.54-5.02-17.1-5.02-18.62 0-1.77.5-3.53 1.75-3.53 9.8-.25 16.6-3 23.13-8.3 6.3-5.28 9.07-11.3 9.57-12.32.75-1.25 2-1 2.26.76.25 1.26.76 3.78.76 6.3 0 17.85-12.08 32.44-28.17 37.72"/></g><g><path fill="#e20e0e" fill-rule="evenodd" d="M598.5 336.08c0-23.88-19.37-43.25-43.52-43.25-23.9 0-43.25 19.37-43.25 43.25 0 24.15 19.36 43.5 43.25 43.5 24.15 0 43.5-19.35 43.5-43.5"/></g><g><path fill="#fff200" fill-rule="evenodd" d="M533.87 309.7c1.75 2.25 5.27 3.76 9.05 4.77 0 0 1.77 1 2.77 2.76 1.75 2.5 7.28 16.1 7.53 23.9 0 2.76-2.26 5.02-5.78 4.52-3.52-.5-9.8-.5-19.86-9.8-2.28-2.02-10.07-11.07-7.56-16.86 2-4.78 5.28-8.8 9.05-12.08 0 0 2-1.5 2.76-2 0 0 0 2.75 2 4.77zm36.47-6.56c0 1.27-1 4.03-5.54 5.3-4.78 1.5-11.32 3.77-16.6 3.77-5.28 0-13.33-1.76-13.33-7.04 0-1.5.25-2.52 1.76-3.52 5.54-3.52 11.82-4.78 18.62-4.78 4.52 0 8.8 1 12.82 2.27 1.5.5 2.27 2.76 2.27 4zm13.58 56.34c.25-2 1.76-14.83.25-24.4-.5-2.5 3.76-5.78 4.52-7.03.74-1.5 1.75-2.52 2.25-3.52 1-1.27 2 .25 2 .25 1.02 3.77 1.52 7.54 1.52 11.3 0 10.32-3.76 20.13-9.3 25.4-1 1.26-1.76.26-1.25-2zm-2.27-32.18c-1.26-5.3-6.54-14.34-7.8-15.85-1.25-1.5-.75-3.52-.75-4.28 0-1 .5-2.52.5-3.52 0-1.5 1-1.5 1.76-1.26 5.78 2.76 10.32 7.8 13.58 13.58.76 1.25.76 4.27.26 5.27-.76 1.5-3.02 6.3-5.03 7.3-2.02 1.25-2.27 0-2.52-1.25zm-27.92 42.74c2.27-6.03 3.53-16.1 3.03-26.15-.5-11.08-5.04-20.38-6.3-24.4-1.26-3.78 1-4.28 3.02-4.78s4.8-1 6.3-1.5c2.5-.77 3.5-1.27 5.52-1.77 2.26-.5 5.3-.25 6.8 2 1.25 2.53 9.55 14.85 9.55 35.2 0 6.3-1.76 18.63-6.54 21.4-4.76 2.76-12.56 5.27-19.85 5.27-.26 0-.5 0-.76 0-2.28.25-2.28-1.25-.77-5.28zm-37.7-33.96c0-2.5.5-5.02.74-6.28.25-1.75 1.5-2 2.26-.75.5 1 3.27 7.03 9.56 12.33 6.52 5.28 13.32 8.04 23.12 8.3 1.26 0 1.76 1.75 1.76 3.52 0 1.5-1 14.08-5.03 18.6-1 1.26-2 2.77-4.27 2-16.1-5.27-28.16-19.85-28.16-37.72"/></g><g><path fill="#ffe600" fill-rule="evenodd" d="M512 335.84c0-11.82 4.77-22.9 12.8-30.68 7.8-7.8 18.62-12.83 30.7-12.83 12.07 0 22.88 5.03 30.68 12.83 8.04 7.8 12.82 18.86 12.82 30.68 0 12.07-4.78 23.14-12.82 30.93-7.8 7.8-18.6 12.83-30.68 12.83-12.08 0-22.9-5.03-30.7-12.83-8.03-7.8-12.8-18.86-12.8-30.93zm.5 0c0 12.07 4.77 22.9 12.56 30.68 7.8 7.8 18.6 12.58 30.44 12.58 11.8 0 22.62-4.78 30.42-12.58 7.8-7.8 12.58-18.6 12.58-30.68 0-11.82-4.8-22.63-12.58-30.43-7.8-7.8-18.6-12.56-30.42-12.56-11.83 0-22.64 4.77-30.44 12.57-7.8 7.8-12.56 18.62-12.56 30.44"/></g></g></g></svg>