<?xml version="1.0" encoding="UTF-8"?>
<svg width="344.15px" height="344.15px" enable-background="new 0 0 344.15 344.149" version="1.0" viewBox="0 0 344.15 344.149" xml:space="preserve" xmlns="http://www.w3.org/2000/svg" xmlns:cc="http://web.resource.org/cc/" xmlns:dc="http://purl.org/dc/elements/1.1/" xmlns:rdf="http://www.w3.org/1999/02/22-rdf-syntax-ns#"><metadata><rdf:RDF><cc:Work rdf:about=""><dc:format>image/svg+xml</dc:format><dc:type rdf:resource="http://purl.org/dc/dcmitype/StillImage"/></cc:Work></rdf:RDF></metadata>
<g transform="matrix(.92983 0 0 .92983 12.78 13.196)">
	<circle cx="172.08" cy="172.08" r="172.08" fill="#018202"/>
	<path d="m2.868 172.08c0 93.299 75.906 169.2 169.21 169.2s169.21-75.905 169.21-169.2c0-93.301-75.906-169.21-169.21-169.21s-169.21 75.905-169.21 169.21z" fill="#fff"/>
	<path d="m318.62 256.68l-30.752-53.267c2.714-9.996 4.185-20.499 4.185-31.343 0-55.521-37.918-102.32-89.214-115.93l-30.76-53.278-30.756 53.272c-51.295 13.616-89.217 60.415-89.217 115.94 0 10.844 1.471 21.344 4.187 31.338l-30.756 53.271h61.644c21.734 21.809 51.75 35.362 84.899 35.362 33.161 0 63.209-13.537 84.943-35.362h61.597zm-146.54 22.217c-24.483 0-47.044-8.309-65.079-22.217h105.19c7.354-3.501 14.177-7.936 20.326-13.146h-139.76-16.975-27.475c2.901-5.022 7.695-13.327 13.754-23.82 1.587 3.646 3.3 7.226 5.228 10.676h3.786 11.571c-5.099-7.791-9.196-16.289-12.14-25.306 0.01-0.019 0.021-0.034 0.031-0.054-1.976-6.054-3.458-12.328-4.322-18.802l-5e-3 9e-3c-0.62-4.638-0.957-9.364-0.957-14.167 0-44.504 27.368-82.714 66.148-98.747l-52.671 91.232c-0.2 2.481-0.331 4.983-0.331 7.516 0 5.697 0.557 11.259 1.542 16.676 22.999-39.834 52.495-90.922 72.528-125.62 2.073-3.59 4.048-7.011 5.901-10.221 6.034-10.452 10.819-18.742 13.712-23.75 2.896 5.016 7.677 13.294 13.719 23.762-3.886-0.446-7.825-0.709-11.814-0.772l-7.653 13.257c1.904-0.103 3.819-0.159 5.749-0.159 7.604 0 15.021 0.813 22.18 2.332 7e-3 0.01 0.012 0.019 0.019 0.031 6.396 1.358 12.576 3.291 18.495 5.741l-0.023-0.04c38.788 16.032 66.159 54.253 66.159 98.765 0 4.801-0.341 9.522-0.962 14.158l-52.653-91.196c-6.626-4.586-13.878-8.328-21.59-11.101 22.033 38.161 50.024 86.645 69.955 121.16 0.042 0.074 0.084 0.145 0.126 0.22 2.319 4.019 4.532 7.852 6.609 11.448 0.591 1.02 1.172 2.03 1.739 3.013v-2e-3c6.038 10.456 10.824 18.751 13.719 23.762h-27.489c2.361-3.172 4.572-6.46 6.616-9.861l-1.895-3.283c-1.825-3.163-3.761-6.515-5.774-10.004-4.29 8.421-9.67 16.193-15.941 23.148h-7e-3c-4.33 4.799-9.086 9.196-14.212 13.146h0.037c-18.032 13.919-40.615 22.216-65.108 22.216z" fill="#018202"/>
	<path d="m98.839 230.4h146.47c5.759-7.215 10.466-15.29 13.911-24.005-22.114-38.303-51.196-88.673-73.306-126.97-4.519-0.672-9.138-1.029-13.841-1.029s-9.322 0.357-13.841 1.029c-22.109 38.294-51.191 88.666-73.306 126.97 3.446 8.718 8.156 16.793 13.912 24.008z" fill="#018202"/>
	<g fill="#fff">
		<polygon points="179.35 148.7 192.28 126.3 215.72 166.9 230.9 166.9 200.74 114.65 183.83 114.65 172.08 135.02 160.32 114.65 143.41 114.65 113.25 166.9 128.43 166.9 151.86 126.3 164.79 148.7"/>
		<path d="m181.84 183.25h-61.617c1.724 2.985 2.089 3.618 3.693 6.397h51.141l11.737 20.334-8.047 13.938h-50.222l-7.59-13.146h51.141l-4.608-7.981h-51.143l-11.899-20.614 6.971-12.074h78.033l23.172 40.135 15.584-26.99h-12.462l7.591-13.145h9.44l9.101 15.761-21.973 38.054h-14.563l-23.48-40.669z"/>
	</g>
	<g fill="#018202">
		<path d="m94.463 292.07c1.123-1.837 1.515-3.83-0.543-5.242-2.885-1.979-5.437 0.931-8.115 4.831-2.677 3.902-4.473 7.331-1.588 9.311 2.885 1.979 5.468-1.326 7.009-3.573l-3.335-2.288 1.169-1.703 5.226 3.587-6.021 8.773-1.56-1.071 1.573-2.294-0.047-0.033c-1.439 1.135-3.599 1.394-5.443 0.126-4.398-3.018-2.274-7.786 0.841-12.325 2.921-4.258 6.801-8.239 11.46-5.042 4.848 3.326 2.126 7.546 1.549 8.438l-2.175-1.495z"/>
		<path d="m98.393 303.07c-1.118 2.069-2.809 5.197-0.21 6.603 2.019 1.09 3.442-0.878 3.987-1.889l2.119 1.146c-0.777 1.438-3.448 4.329-7.131 2.339-3.306-1.786-3.452-4.832-0.943-9.474 1.827-3.382 4.597-6.937 8.759-4.688 4.138 2.236 2.566 6.048 0.998 8.949l-0.463 0.858-7.116-3.844zm5.795 0.979l0.396-0.73c0.818-1.515 1.307-3.563-0.561-4.574-2.221-1.2-3.945 1.389-4.382 2.196l-0.273 0.504 4.82 2.604z"/>
		<path d="m116.39 318.66c-1.772 4.234-4.373 4.948-7.229 3.751-0.873-0.364-4.286-1.795-3.172-5.494l2.222 0.931c-0.437 1.34 0.358 2.265 1.521 2.752 2.857 1.195 3.67-1.045 4.081-2.023l0.775-1.851-0.052-0.023c-0.975 0.992-2.597 1.153-4 0.564-4.126-1.727-2.209-7.051-1.422-8.93 1.607-3.835 4.156-7.027 7.753-5.52 1.535 0.642 2.335 2.22 2.16 3.454l0.054 0.021 0.752-1.8 2.117 0.887-5.56 13.281zm-4.948-9.348c-0.964 2.302-1.828 5.329 0.396 6.26 2.406 1.009 3.836-1.066 5.054-3.977 1.152-2.752 1.85-5.756-0.531-6.753-2.063-0.863-3.501 1.083-4.919 4.47z"/>
		<path d="m126.09 306.8l2.293 0.737-0.702 2.185 0.055 0.017c1.102-1.181 2.353-2.075 3.991-1.547 0.464 0.149 0.775 0.308 0.958 0.487l-0.72 2.238c-0.209-0.096-0.457-0.266-1.193-0.504-1.147-0.366-3.337 0.072-4.118 2.504l-2.975 9.257-2.293-0.737 4.704-14.637z"/>
		<path d="m141.67 326.91l-2.236-0.513 0.405-1.763-0.056-0.012c-0.93 1.228-2.674 1.65-4.128 1.316-3.941-0.905-3.254-3.896-2.849-5.657l2.441-10.622 2.348 0.541-2.377 10.342c-0.264 1.146-0.61 3.037 1.515 3.524 1.258 0.29 3.156-0.156 3.656-2.336l2.377-10.342 2.348 0.539-3.444 14.983zm-3.552-22.446l2.181 0.502-0.649 2.821-2.181-0.499 0.649-2.824zm4.528 1.041l2.181 0.502-0.649 2.821-2.18-0.502 0.648-2.821z"/>
		<path d="m149.27 312.66l2.277 0.285-0.224 1.793 0.057 7e-3c0.801-1.316 2.494-1.914 3.974-1.729 4.012 0.504 3.632 3.548 3.407 5.34l-1.354 10.815-2.39-0.301 1.318-10.528c0.146-1.167 0.3-3.083-1.864-3.354-1.28-0.161-3.123 0.477-3.4 2.696l-1.318 10.528-2.391-0.299 1.908-15.253z"/>
		<path d="m173.31 329.85l-2.293-0.057 0.044-1.891-0.057-2e-3c-0.343 1.139-1.718 2.255-3.381 2.215-3.641-0.089-4.94-3.361-4.823-8.206 0.076-3.212 0.709-8.073 5.039-7.969 1.376 0.033 2.818 0.899 3.332 2.231h0.057l0.163-6.853 2.409 0.059-0.49 20.473zm-5.322-1.79c2.667 0.063 3.157-2.451 3.241-5.947 0.071-2.983-0.372-6.033-2.953-6.097-2.236-0.054-2.866 2.285-2.954 5.954s0.429 6.036 2.666 6.09z"/>
		<path d="m180.5 322.16c0.175 2.346 0.437 5.891 3.382 5.674 2.29-0.171 2.426-2.596 2.342-3.739l2.401-0.178c0.121 1.63-0.569 5.506-4.745 5.814-3.746 0.277-5.513-2.208-5.902-7.471-0.283-3.833 0.133-8.321 4.852-8.671 4.689-0.346 5.422 3.711 5.665 7.002l0.072 0.971-8.067 0.598zm5.41-2.299l-0.063-0.829c-0.126-1.715-0.819-3.706-2.937-3.55-2.516 0.187-2.574 3.296-2.507 4.211l0.042 0.571 5.465-0.403z"/>
		<path d="m191.75 308.53l2.381-0.366 0.682 4.423 2.637-0.406 0.287 1.869-2.635 0.406 1.501 9.751c0.188 1.219 0.574 1.653 1.82 1.462 0.511-0.08 0.786-0.18 1.036-0.248l0.301 1.956c-0.303 0.105-0.91 0.315-1.901 0.467-2.465 0.381-3.219-0.549-3.522-2.532l-1.615-10.489-2.213 0.341-0.287-1.869 2.211-0.341-0.683-4.424z"/>
		<path d="m208 308.24c2.402-0.878 4.561-1.86 3.84-4.638l1.647-0.499 5.88 19.435-2.307 0.698-4.418-14.604-4.146 1.255-0.496-1.647z"/>
		<path d="m228.7 314.48c0.646 1.533 2.03 2.383 3.615 1.715 3.121-1.313 1.335-6.07 0.934-7.022l-0.623-1.479-0.054 0.022c-0.079 0.843-0.626 2.722-2.688 3.59-3.252 1.37-5.903-0.345-7.383-3.86-1.524-3.622-0.896-7.153 2.593-8.624 5.18-2.18 7.665 2.687 9.29 6.545 1.804 4.282 4.033 10.313-1.387 12.597-4.36 1.836-6.255-1.63-6.621-2.503l2.324-0.981zm-2.871-13.913c-2.327 0.978-1.97 3.599-1.137 5.58 0.836 1.984 2.302 4.136 4.787 3.088 2.483-1.045 1.97-3.599 1.135-5.58-0.836-1.982-2.46-4.069-4.785-3.088z"/>
		<path d="m252.85 307.59l-9.95 5.476c-1.825-3.317-1.209-6.601-0.165-9.401l0.779-2.033c0.756-2.021 1.09-3.613 0.012-5.571-0.843-1.533-2.435-2.819-4.344-1.767-2.74 1.505-1.253 4.388-0.7 5.392l-2.21 1.218c-1.854-3.368-1.704-6.428 1.939-8.433 4.119-2.269 6.53 0.563 7.387 2.122 1.494 2.712 1.15 4.766 0.107 7.568l-1.31 3.569c-0.524 1.367-0.66 2.784-0.264 4.103l7.64-4.203 1.079 1.96z"/>
		<path d="m266.48 298.44l-9.329 6.479c-2.159-3.111-1.888-6.441-1.139-9.336l0.564-2.103c0.539-2.087 0.707-3.704-0.566-5.541-0.999-1.438-2.715-2.551-4.505-1.307-2.567 1.783-0.789 4.492-0.136 5.436l-2.072 1.44c-2.191-3.158-2.362-6.218 1.055-8.59 3.863-2.682 6.552-0.116 7.567 1.345 1.767 2.544 1.638 4.624 0.889 7.518l-0.931 3.686c-0.379 1.414-0.369 2.838 0.165 4.11l7.161-4.974 1.277 1.837z"/>
	</g>
	<g fill="#018202">
		<path d="m242.1 30.541l3.697 2.086-4.411 16.151 0.049 0.028 11.553-12.118 3.697 2.089-10.068 17.83-2.199-1.24 8.8-15.584-0.05-0.028-12.746 13.355-2.196-1.242 4.852-17.811-0.049-0.028-8.799 15.582-2.199-1.239 10.069-17.831z"/>
		<path d="m265.09 44.79l2.709 2.023-7.844 19.701-2.115-1.58 2.194-5.377-5.24-3.914-4.581 3.594-2.115-1.58 16.992-12.867zm-8.646 9.508l4.411 3.296 3.833-9.49-0.047-0.033-8.197 6.227z"/>
		<path d="m264.87 71.07l-1.874-1.692 12.226-13.537-3.81-3.44 1.499-1.659 9.516 8.591-1.501 1.659-3.83-3.459-12.226 13.537z"/>
		<path d="m274.58 80.943l-1.694-1.87 13.515-12.251-3.447-3.802 1.657-1.503 8.61 9.499-1.659 1.501-3.467-3.823-13.515 12.249z"/>
		<path d="m296 74.529l6.29 8.51-1.797 1.331-4.792-6.481-5.165 3.818 4.517 6.113-1.8 1.328-4.517-6.11-5.904 4.362 4.994 6.759-1.799 1.328-6.493-8.788 16.466-12.17z"/>
		<path d="m305.26 87.511l3.352 5.713c1.627 2.771 1.024 5.485-1.771 7.125-1.928 1.132-4.349 1.653-6.048-0.109l-0.051 0.03c0.729 1.634-0.025 3.24-1.478 4.225l-2.929 1.918c-1.898 1.246-2.204 1.858-2.22 2.565l-1.538-2.621c0.151-0.588 1.362-1.531 2.198-2.089l2.658-1.76c2.322-1.594 1.688-3.018 1.034-4.131l-1.728-2.943-7.865 4.617-1.276-2.178 17.662-10.362zm-6.739 6.878l1.263 2.152c0.756 1.286 2.133 3.637 5.548 1.634 1.731-1.015 2.138-2.817 0.947-4.845l-1.523-2.598-6.235 3.657z"/>
		<path d="m312.57 112.95c1.963-0.878 3.008-2.194 2.025-4.393-0.868-1.938-2.43-2.621-4.421-1.732-5.261 2.355 1.828 9.772-5.006 12.828-4.32 1.933-6.967-0.684-8.15-3.328-1.956-4.372-0.277-6.662 3.702-8.442l1.031 2.304c-2.096 0.936-4.287 2.075-2.777 5.452 0.819 1.832 2.761 2.661 4.752 1.771 5.286-2.367-1.723-9.819 5.137-12.888 1.728-0.772 5.485-1.573 7.604 3.165 1.594 3.562 0.539 5.979-2.866 7.566l-1.031-2.303z"/>
		<path d="m320.54 118.57l1.916 5.982c0.813 2.54 0.399 5.382-3.397 6.598-1.776 0.57-3.894 0.072-4.979-1.538l-0.057 0.019c0.196 2.586-1.293 4.238-3.696 5.008-3.959 1.268-6.288-0.457-7.593-4.525l-1.697-5.3 19.503-6.244zm-16.765 8.017l1.048 3.279c0.814 2.54 2.814 2.864 4.7 2.259 2.675-0.856 3.163-2.91 2.491-5.013l-0.92-2.869-7.319 2.344zm9.121-2.919l0.885 2.759c0.324 1.01 1.305 3.226 4.309 2.264 2.021-0.646 2.873-2.035 2.119-4.383l-0.866-2.705-6.447 2.065z"/>
		<path d="m325.54 135.23l0.494 2.474-14.118 2.822c-2.952 0.59-4.141 1.823-3.65 4.269 0.527 2.645 2.203 3.128 5.016 2.565l14.118-2.822 0.495 2.476-14.118 2.822c-3.854 0.768-6.75-0.7-7.536-4.638-0.803-4.021 1.048-6.32 5.182-7.146l14.117-2.822z"/>
		<path d="m328.7 152.77l0.563 6.601c0.275 3.202-1.438 5.392-4.668 5.667-2.229 0.191-4.638-0.38-5.412-2.703l-0.057 5e-3c-0.049 1.79-1.421 2.915-3.153 3.177l-3.473 0.471c-2.247 0.306-2.787 0.726-3.106 1.358l-0.259-3.029c0.392-0.465 1.888-0.794 2.885-0.936l3.157-0.443c2.782-0.439 2.822-1.998 2.713-3.284l-0.292-3.4-9.086 0.777-0.215-2.514 20.403-1.747zm-9.044 3.308l0.212 2.486c0.126 1.487 0.359 4.201 4.302 3.863 2-0.17 3.144-1.62 2.943-3.963l-0.257-3.001-7.2 0.615z"/>
		<path d="m323.94 179.88c2.154-0.059 4.038-0.811 4.105-3.306 0.094-3.496-3.736-4.059-8.468-4.185-4.729-0.126-8.584 0.231-8.678 3.728-0.093 3.496 4.087 3.867 6.811 3.939l0.107-4.042 2.063 0.056-0.168 6.335-10.636-0.283 0.049-1.893 2.782 0.075v-0.059c-1.734-0.591-3.123-2.262-3.064-4.5 0.142-5.331 5.3-6.141 10.806-5.994 5.161 0.138 10.61 1.23 10.459 6.878-0.156 5.877-5.177 5.886-6.239 5.886l0.071-2.635z"/>
	</g>
	<g fill="#018202">
		<path d="m19.753 166.43c-2.151-0.035-3.654 0.714-3.693 3.123-0.034 2.122 1.092 3.403 3.272 3.438 5.764 0.093 2.48-9.625 9.964-9.504 4.732 0.077 6.023 3.568 5.976 6.465-0.078 4.79-2.567 6.153-6.926 6.083l0.041-2.523c2.294 0.038 4.763-0.064 4.823-3.764 0.033-2.007-1.376-3.581-3.556-3.616-5.792-0.093-2.594 9.623-10.107 9.502-1.893-0.03-5.637-0.894-5.551-6.085 0.063-3.9 2.042-5.646 5.8-5.644l-0.043 2.525z"/>
		<path d="m14.906 158.08l0.631-5.181c0.216-1.765 0.767-6.292 6.604-5.581 3.786 0.462 5.598 3.139 5.178 6.584l-0.378 3.102 8.597 1.048-0.306 2.507-20.326-2.479zm9.985-1.326l0.364-2.987c0.223-1.823-0.843-3.513-3.548-3.842-2.221-0.271-3.801 0.604-4.102 3.081l-0.344 2.819 7.63 0.929z"/>
		<path d="m30.135 131.51c5.021 1.195 10.132 3.384 8.823 8.881-1.308 5.496-6.857 5.148-11.878 3.954-5.023-1.195-10.132-3.384-8.824-8.881s6.856-5.149 11.879-3.954zm-2.445 10.267c4.604 1.097 8.449 1.541 9.259-1.865 0.811-3.403-2.822-4.738-7.426-5.835s-8.448-1.541-9.259 1.865c-0.809 3.403 2.823 4.741 7.426 5.835z"/>
		<path d="m21.901 123.55l2.272-6.225c1.102-3.016 3.578-4.281 6.623-3.169 2.101 0.768 4.045 2.301 3.767 4.735l0.054 0.019c0.798-1.602 2.517-2.042 4.199-1.55l3.346 1.039c2.168 0.667 2.834 0.516 3.391 0.077l-1.042 2.857c-0.552 0.257-2.048-0.077-3.011-0.366l-3.049-0.932c-2.709-0.774-3.402 0.621-3.845 1.833l-1.17 3.207 8.568 3.127-0.866 2.371-19.237-7.023zm9.594 0.815l0.856-2.343c0.511-1.4 1.446-3.96-2.272-5.317-1.886-0.688-3.534 0.145-4.34 2.353l-1.033 2.829 6.789 2.478z"/>
		<path d="m49.173 111.06l-1.105 2.269-16.397-7.989-2.249 4.614-2.011-0.98 5.616-11.525 2.011 0.98-2.262 4.643 16.397 7.988z"/>
		<path d="m34.354 95.019l1.389-2.243 17.063 5.835 0.03-0.049-12.839-12.664 1.388-2.243 14.7 15.162-1.69 2.733-20.041-6.531z"/>
		<path d="m43.833 80.256l6.438-8.4 1.775 1.361-4.902 6.395 5.099 3.91 4.624-6.031 1.775 1.361-4.624 6.031 5.827 4.467 5.113-6.67 1.776 1.361-6.648 8.673-16.253-12.458z"/>
		<path d="m53.749 67.77l4.561-4.803c2.211-2.329 4.987-2.504 7.337-0.273 1.624 1.541 2.795 3.72 1.572 5.842l0.042 0.04c1.37-1.15 3.122-0.873 4.469 0.25l2.656 2.283c1.723 1.478 2.395 1.601 3.08 1.421l-2.092 2.206c-0.608 0.016-1.849-0.885-2.616-1.536l-2.428-2.066c-2.176-1.79-3.368-0.784-4.256 0.152l-2.35 2.474 6.614 6.281-1.738 1.83-14.851-14.101zm8.477 4.567l1.718-1.809c1.027-1.083 2.902-3.057 0.032-5.783-1.456-1.382-3.299-1.272-4.918 0.434l-2.074 2.182 5.242 4.976z"/>
		<path d="m66.079 55.299l8.052-6.869 1.452 1.704-6.131 5.228 4.168 4.89 5.782-4.934 1.452 1.704-5.782 4.932 4.765 5.585 6.394-5.452 1.452 1.702-8.314 7.09-13.29-15.58z"/>
		<path d="m78.179 45.44l2.038-1.491 12.085 16.531-2.038 1.492-12.085-16.532z"/>
		<path d="m84.91 40.558l2.792-1.699 14.67 11.082 0.049-0.03-8.889-14.602 2.156-1.312 10.648 17.491-2.964 1.804-14.23-10.743-0.049 0.03 8.621 14.158-2.155 1.314-10.649-17.493z"/>
	</g>
</g>
</svg>
