<svg xmlns="http://www.w3.org/2000/svg" width="799.831" height="805.925" version="1"><defs><clipPath><path d="M371.47 465.4H42.37V187.2h329.1v278.2z"/></clipPath><clipPath><path d="M43.88 463.92v-276H370.8v276H43.9"/></clipPath><clipPath><path d="M370.82 799.92h-157.8V582.24h157.8v217.68z"/></clipPath><clipPath><path d="M1.36 842.04h593.6V.54L1.36.57v841.48z"/></clipPath><clipPath><path d="M485.9 80.9h36.2V42.76h-36.2V80.9"/></clipPath></defs><g><g><path fill="#fff" stroke="#fff" stroke-width="11.700480000000002" stroke-miterlimit="3.864" d="M623.82 532.67s0 .3 0 .53c0-.13 0-.3 0-.53z"/><path fill="#fff" stroke="#fff" stroke-width="11.700480000000002" stroke-miterlimit="3.864" d="M623.82 533.22c0 .36.02.6 0 0z"/><path fill="#fff" stroke="#fff" stroke-width="11.700480000000002" stroke-miterlimit="3.864" d="M623.82 533.2c0 .02 0 .02 0 .02s0 0 0-.02z"/><path fill="#231f20" d="M623.82 532.67s0 .3 0 .53c0-.13 0-.3 0-.53"/><path fill="#231f20" d="M623.82 533.22c0 .36.02.6 0 0"/><path fill="#231f20" d="M623.82 533.2c0 .02 0 .02 0 .02s0 0 0-.02"/><path fill="#231f20" fill-rule="evenodd" d="M764.86 572.8c-7.14-13-5.85-33.54-24-37.38-18.87-.55-39.18 6.78-56.06 17.04-6.58 6.6 2.4 12.27 2.75 18.7 2.03 9.13 6.6 17.2 7.52 26.72-4.2 1.46-8.43 3.5-12.82 4.6-3.68 1.28-6.78-.56-9.17-2.76-10.8-4.94-21.62.74-30.6 5.3-3.84 6.23-11.17.93-16.66 3.13-15.75.9-35.35.55-48.55 12.65-8.97 8.78.55 19.05-.38 28.93-24.72 6.6-49.1 14.1-75.1 17.6-7.14 1.28-14.66 2.2-22 3.28-22.88 3.5-46.34 6.05-68.3 6.6l-.74-.7c.2-.94 1.1-1.66.73-2.76 15.73-19.62 38.1-34.63 59.9-45.45 3.1-1.65 6.03-4.2 9.5-5.3 2.76-3.68 6.98-3.32 9.9-6.8 18.7-11.54 39.2-25.1 48.73-45.8 2.94-4.38 3.66-9.5 5.52-14.48 1.45-4.4 1.45-8.23 2.9-12.63 4.6 11.17 5.33 25.08 17.24 31.7 14.82 11.16 34.08 14.08 52.2 7.68 23.44-9.17 36.28-34.44 38.47-58.43 1.1-3.13 4.75-3.68 5.68-6.78-3.3-2.94-4.96-7.52-3.3-11.55 1.28-4.2 7.34-3.47 7.9-7.88-1.13-1.1-2.6-1.46-3.88-2.37-4.4-3.12-6.78-8.06-5.68-13.4.37-4.2 5.86-5.84 6.58-9.87-3.3-1.1-7.14-1.65-9.14-4.58 0-1.48 1.83-2.2 2.93-2.56 11.17-2.02 29.67-5.87 37.74 6.76 11.92 14.68-2.93 31.15-1.83 46.9 1.3 3.5.2 8.8 3.84 10.63 0-12.82 12.85-16.3 19.8-25.45l1.84 2.74c4.4-6.58-.93-16.5 4.58-22.9 1.65-1.1 3.3 1.1 4.94 0v-2c-4.58-4.22-4.4-10.28-5.32-15.96.55-2.74 3.85-.9 4.96-3.1-3.3-2.2-5.87-5.87-7.5-9.53-1.1-6.78-7.7-11-12.66-14.46l3.48-4.24c1.3-3.67 3.87-6.97 5.32-10.62-4.03-1.1-8.97-2.2-12.65-4.96 6.4-9.9 5.67-23.44 6.05-33.52l-1.83 1.1c-.93-6.78-1.1-14.27-4.23-19.8-1.46.4-.37 2.76-2.2 2.2-3.5-7.32-6.23-15.36-12.65-21.23-3.1-.74-.36 2.74-2.18 3.3-5.68-4.04-8.44-9.9-9.16-16.3-1.64 0-2.02 1.63-2.38 2.73-2.55 19.24 6.42 38.48 1.1 57.17-2.58 5.13-2.58 11.36-6.78 15.94-4.22 11.72-15 19.4-25.1 26-.73-.17-1.66.2-2.02-.36-1.28-5.48 3.68-9.9 3.5-15-4.04-.74-7.7-4.04-9.92-7.14-.9-4.97.74-9.55 5.33-12.65 1.45-3.48-3.5-1.83-4.95-3.48-4.22-3.3-6.96-8.78-6.96-14.84-.36-4.4 4.58-7.14 4.58-10.98-4.75 0-8.43-4.6-10.62-8.43-2.4-6.78-2.58-16.13 1.1-22.9 4.4-19.06 30.95-18.87 31.3-39.57 1.1-4.03 7.36.17 9.92-3.84 1.64-1.84-1.3-1.3-1.84-1.84-5.5-2.93-4.4-9.52-4.94-14.1 2.55-.93 4 1.8 6.4.35 1.12-.9 3.67-1.28 2.76-3.12-3.48.38-4.4-3.46-6.6-5.3 1.45-1.1 2.93.55 4.6 0 1.07-.36 3.08-.72 2.36-2.75-3.3-2.2-5.3-6.04-5.3-9.52h2.56c4.94-1.65-1.1-4.4-.74-7.14.36-.74 1.12-.93 1.83-.74.7-.55 1.28-1.46.9-2-7.14-1.84-4.4-10.46-11.17-12.84 5.13-4.04-2.93-5.33-2.55-9.17-.74-2.02-2.75-2.2-4.23-2.75-.2-1.1.2-2 1.1-2.75 2.2-3.48-2-3.84-4.2-4.58 0-2.2.55-7.33-4.23-5.68 2.4-6.23-5.3-4.02-8.04-4.6.17-2.54 1.46-4.93.55-7.48-2.94-.74-4.58 1.3-6.97 1.1l-.36-4.95c-2.58-.73-3.86 1.28-6.06 1.1-6.4 6.4-5.5-5.5-10.8-6.77-1.28-.74-3.48-2.02-4.96-.38.74 3.32 3.68 6.42 2.03 10.27-1.1 1.47-2.92 4.03-4.95 2.93-2.4-3.12-4.94-6.23-8.07-9.16-1.43-1.66-1.62-4.96-4.56-5.3-1.84 4.38-1.3 9.68-1.84 14.45-2.74-.55-5.5-3.48-8.06-1.84-2 6.62.9 12.83 5.68 17.6-3.5 3.13-6.04 6.6-9.17 9.9-4.58 8.96-14.08 14.3-20.86 22.16-7.52 5.87-8.07 15.4-9.17 23.63 2.75 4.58 7.5 3.12 11.72 5.32.55 1.45-1.3 2-1.83 2.93-2.02.72-2.4-2.4-4.22-1.84-2.38.37-2.74 2.95-3.48 4.6.9 1.62.55 3.84 2.74 4.94 4.23 2.38 8.98 0 12.65-3.13 3.1.75 6.94-1.25 10.24.4v-.75c6.58-2 9.35-10.07 15.94-13 2.58.92 4.94-1.65 6.6 1.28-5.3 7.52-15.22 9.72-21.8 15.57-11.92 6.97-22.9 18.7-28.58 30.96-2.2 3.12-1.64 7.87-4.94 10.26-6.42-10.26-8.8-22.34-16.5-31.7-4.58-3.84-11.54-4.03-17.03-1.82-11 7.88-24.54 9.15-35.2 17.4l-.7-.73c-.2-3.3-1.65-6.04-3.87-8.8-3.46-1.64-6.95-2.73-10.98-2.92-6.04-.55-11.9 4.2-17.6.36-1.26-2.55-2-5.13-2.2-8.04-1.07-2.58.75-8.64-3.1-9.55-2.93-4.74-2.38-10.97-2.74-16.84-.38-1.26-2.03 0-2.57-1.1-2.56-8.97-1.1-19.78-1.84-28.2 1.12-3.85-2.75-8.63 1.84-11 .73-1.1 1.28-3.3-.36-3.83-.54-.55-.54-1.84.37-2.2 7.5-.74 6.03-11.9 14.1-10.8 1.1-.94.9-2.6 1.46-3.7-.36-4.2 1.3-8.22-.36-12.62l-11.72.37-.9-.74c-1.5-6.04-.75-13.36 3.83-17.57 3.85-1.12 6.97-3.48 10.82-1.47 2.74 1.63 4.2 4.57 4.58 7.5-.93 1.84-2.77 2.94-4.58 2.4-3.68-1.5-2.94-6.62-6.25-6.62-.9 5.5.93 11 5.7 14.1 2.36 1.3 6.23 1.3 8.42 0 3.5-2.2 5.5-5.3 6.23-9.52-2.74-6.78 6.23-2.2 8.6-5.3 6.6-2.57 4.58-9 4.94-14.5 0-3.45 5.13-5.84 5.13-8.77-2.2-.94-4.56-1.3-6.95-1.1-5.5 0-5.32 6.22-8.42 9.16l-.36-6.42c-1.3-2.4-3.67-4.94-6.06-6.23-1.84.2-3.84-1.64-5.3 0-.38 2.4 2.2 2.2 2.9 3.85-.7 6.42-8.03 5.13-12.43 6.97-5.87.9-6.42 8.05-11.9 9.16-8.43 5.12-8.62 15.93-7.52 24.73-4.6 1.1-.74 5.86-3.5 8.44-3.47-.93-4.2-5.13-5.3-8.07-2.02-5.87-1.1-13.37-.73-19.78 1.27-9 11.17-14.3 16.3-21.45-3.12-6.23 5.3-7.7 5.68-13-1.64-1.3-3.48 1.28-4.94-.75 0-.72 0-1.64.36-2.17 10.27-1.84 2.94-11.2 7.33-17.23-.36-2.94-2-3.85-3.84-6.04-2.02.7-3.86-.93-4.24-3.13-2.2-3.48-6.4-4.75-10.26-4.2-1.65-.74-3.46-2.2-5.3-1.1-3.84 4.75-9.72 6.4-13 12.27l-1.47-1.3c-2.2 2.95-4.94 6.24-4.94 10.46 1.8 4.76-4.6 4.6-6.62 7.5-3.3 3.5-2.55 8.8-6.4 11.55-4.4-7.15-11.74-10.8-15.2-18.32.17-9.7-12.65-15-7.33-26 24.54-15.03 52.56-2.02 79.32-.73 38.65 5.5 87.55 6.04 112.83-28.96.2-2.37 3.13-4.76 1.84-6.78-12.27 7.5-28.2 7.5-42.68 8.6-9.9-.35-21.24-.18-29.3-2.92-20.16-2.56-38.5-9.9-56.08-18.3-15.56-7.17-33.5-9.92-51.46-6.98-1.84.2-4.04 1.45-5.33.36.92-3.66-1.1-7.33-3.1-10.63-2.57-1.45-5.14-4.58-7.9-4.58-5.5-.9-10.8 1.3-14.45 5.32-3.32 4.03-3.68 10.97-1.3 15.37 2.02 3.48 5.3 5.87 8.05 7.9.93 22.53 0 41.77.74 62.27-.74 3.3-3.3 7.33-.74 10.62.55 14.1.55 32.25 0 47.27l-1.1 1.47c-.9 1.46-.16 3.1.75 4.2l.35 116.35c-2.36 2.38-5.3 3.65-6.75 6.78-.55 2.74 0 6.04 1.45 8.42 7.33 9.88 17.95 6.78 28.58 5.68l.74.72c-1.84 4.22-1.46 10.45 1.28 14.13 1.08 3.65-2.57 6.4-5.13 8.4-13.56 7.35-29.86 9.55-44.5 6.06-7.9-1.1.34-7.5-1.13-12.1-1.44-6.4-4.95-13.55-12.27-14.82-6.4-1.67-13.92.36-17.95 5.66-.17-5.3.55-11.9 6.23-14.47 5.32.92 10.45 2.4 14.84 6.07 3.3 4.02 5.67 7.14 10.97 7.3 2.58 4.6 1.67 10.08.74 15.22l1.3 1.08c6.42 1.3 13.56.74 20.15 1.84 3.84-6.04 10.45 1.48 14.1-5.68 1.3-1.3 4.6.55 4.6-2.2-6.24-9.88-17.6-14.46-26.03-21.43-9.7-13-27.12-13-39.58-21.98-23.08-5.68-21.96 22.54-32.05 34.26l-1.47-2c-6.42-22-27.85-38.84-47.26-48.37-2.4-1.64-5.87-3.28-6.6-6.4 10.44-5.3 14.48 11.7 24.9 12.1 7.72-2.75 11 5.86 19.42 3.84 1.65-.55 2.75-1.65 3.3-3.5.9-2.18.36-5.3-1.84-6.4-2.38-1.82-3.3 2.02-5.68 1.1-.74-.73-2-1.66-1.45-2.57 4.03-1.64 10.07-.9 12.07-6.23.93-13.9-10.07-24.18-20.14-32.6-9.15-5.5-11.17-16.3-19.8-22.53 2.95-2.74 5.14-5.68 6.43-9.16-.56-3.46 1.26-6.6-1.5-9.16-2.54.73-4.57 1.83-6.94 2.93-1.47-2.35-.35-6.03-.73-8.96-.55-2-.2-6.6-3.13-5.5-1.82 6.6-8.24 8.98-11.34 15.02h-1.1c-7.16-2.75-2.2-10.24-2.03-14.47-6.04-.37-8.6 5.86-11.34 9.88-2.96-1.82-6.07-2.92-9.55-3.47-2.75 1.28.38 3.48-1.08 5.3-2.22-.15-4.03-1.44-6.23-1.44-2.95 2.2.9 5.68-.76 8.78-1.8-.9-4.75-.9-6.76-.55 0 3.12-1.28 5.67-4.58 5.12-1.3 1.65.55 3.5 0 4.95-1.65.55-3.86 0-4.96 1.83.2 2.03.93 3.66 1.48 5.33-5.87-.38-2.56 6.94-8.07 7.68-1.28 1.66.73 2.76 1.28 4.24-6.95 2.36-4.04 10.98-11.17 12.8-.92 2.57 1.82 2.02 2.75 3.12-.2 2.4-2.93 3.3-2.74 5.68.37 3.13 3.85.36 4.95 2.4-1.84 2.73-2.2 6.76-5.68 8.22-.38 5.13 4.96 1.67 6.97 3.13-1.65 2.73-3.87 5.12-6.97 5.67 1.83 3.84 6.42 2.55 9.9 2.74.9 3.12-1.67 4.6-.74 7.7-1.48 2.94-2.57 6.97-6.78 6.78 1.46 4.22 6.6 2.58 10.25 3.48-.17 6.97 2.57 14.1 9.16 18.7 12.65 5.86 24.37 18.3 25.85 32.4-1.1 6.8-.18 14.3-6.4 19.06-2.02 1.48-4.23 2.38-6.6 2.93.9 3.13 4 4.97 4.58 8.07 1.1 6.23-.93 12.46-5.7 16.85-1.8 1.1-4.4.9-6.04 2.56 3.3 3.67 6.23 8.06 6.04 13.37-1.46 2.38-3.46 5.13-5.66 6.06-12.82 2.74 4.2 10.98-1.84 17.6-11.9-5.7-23.46-16.86-28.57-28.97-7.7-14.83-7.32-30.58-5.5-47.27 2.58-5.85 1.48-12.08 2.03-17.95.36-2.74-.55-6.42-2.75-8.06-1.48 6.23-4.03 12.65-9.52 16.5-.74-.37-.2-1.1-.38-1.66-.17-.55 0-2.2-1.1-1.84-7.88 4.95-9.7 14.3-13.75 21.8-.72-.9-.9-2.37-2.36-2.75-1.3 3.5-1.65 7.33-2.56 11-1.1 2.75.54 6.95-1.47 8.8-.55-.56-1.3-.73-2-.73v1.1c.55 11.72 1.45 23.08 6.6 32.78-2.02 1.64-4.6 1.47-6.6 3.12-1.67 1.65-6.04-.2-5.7 3.1 4.03 4.23 4.22 9.9 8.8 14.1-12.27 3.5-10.26 16.86-20.15 23.28.17 2.75 3.66.74 4.95 2.94-.55 6.4-1.65 12.27-5.5 17.2.17 3.3 2.94.37 4.6 1.1 2.18 1.85 2 4.6 3.1 6.98 1.64 5.3-1.84 11.36 1.45 15.92 2.03 1.48 1.1-1.63 2.4-2.36 5.67 7.13 15.93 11.36 19.4 20.33.92 1.46-.34 4 1.1 4.94 2.02-1.28 2.76-3.48 2.4-5.32 5.85-14.84-9.36-29.3-4.58-45.06 2.36-7.34 9.14-14.67 17.4-15.94 9.7-.55 19.05-1.1 27.1 3.3-1.47 3.46-5.3 4.58-8.8 4.94-1.07 1.65.56 2.93 1.65 3.84 3.68 2 5.14 6.23 4.95 10.27-.9 5.3-5.3 9.9-9.9 12.28.2 3.3 3.7 3.1 5.7 4.58 2.2 2.57 3.67 5.13 3.12 8.8-.55 2-2.2 3.66-3.87 5.3.2 2.94 3.13 4.6 4.95 6.4 2.4 18.52 8.6 35.55 22.55 49.3 16.1 15.2 41.75 16.5 61.35 7.5 17.06-5.48 20.7-22.9 25.5-37.18 1.25 2 .7 5.5 1.8 7.88 4.6 34.8 41.23 56.8 68.34 72.54 24.73 12.27 49.1 27.12 67.8 50.2v1.3c-22.92 1.82-45.63-2.76-68.54-5.15-28.2-3.48-54.4-8.8-81.32-15.94-6.6-2.74-13.92-3.64-20.53-6.4 1.1-9.9 8.07-23.07-2.2-30.97-16.3-12.27-38.83-9.88-58.43-10.62-9.9-6.94-22.36-12.07-34.63-8.78-2.93.72-4.6 4.75-8.44 3.5-5.13-1.85-10.62-2.4-15.2-5.33 3.67-12.64 7.5-25.48 13-37.4 1.46-4.4-1.83-7.87-4.58-10.43h-1.65c-12.65-7.68-27.28-10.98-41.58-14.84-8.42-1.46-18.86.55-24 9.16-4.4 9.9-8.05 19.95-11.37 30.2-4.37 16.7-15 31.9-13 50.2 8.63 22.54 32.43 36.48 52.58 46.9 3.86 2.2 7.7 3.86 11.93 4.96 3.45 3.3 8.22 3.12 11.7 5.87-3.48 9.7-6.96 22.72 1.65 31.15 10.8 8.6 23.6 12.46 35.36 18.7 30.6 14.26 64.12 21.2 96.54 30.92 6.6 1.48 14.1 3.3 20.16 4.23 51.1 11.34 105.34 14.46 157.38 13.17 53.85-.35 105.7-6.4 155.5-18.1 19.44-6.98 40.13-10.66 59.56-17.6 3.84-1.65 8.05-2.75 11.9-4.6 19.25-6.58 38.1-15.2 55.13-26.36 9.17-8.07 5.34-21.25 2.03-30.8l1.45-1.62c6.8-1.48 12.5-5.87 19.07-7.9 21.06-11.53 47.27-25.45 56.05-49.63.2-18.15-8.78-33.54-13-50.2zM595.6 495.3s19.45 19.23 21.86 23.5c2.4 4.24 6.3 11.78 6.36 13.87 0 0-2.92 12.2-18.6 13-15.7.8-29.26-11.7-28.73-26.34.52-14.64 10.8-19.05 19.1-24.04zm-63-57.72c.18-5 .9-10.48 5.5-12.6 4.6-2.12 4.8-1.6 4.8-1.6s8.48 14.37 11.16 18.08c2.66 3.74 15.6 20.4 22.7 31.76 0 0-27.85 24.12-29.1 53.2 0 0-.36-7.62-1.4-11.53-1.1-3.92-1.43-10.13 4.06-13.12l.36-2.14s-5.32-1.24-5.32-4.43c0-3.18 4.44-3.73 4.44-6.2 0-2.5-3.2-3.2-4.08-3.36-.9-.2-5.68-.36-7.8-8.17-2.12-7.8-8.7-32.27-8.7-32.27s3.2-2.66 3.4-7.62zm-93.9-108.2s2.66 1.34 6.65.54c4-.78 8.78-2.92 8.78-2.92l3.72 2.14-12.5 12.22s-2.92 4.25.27 4.25c3.2 0 4 1.1 4.52 2.42.53 1.33 4.52 1.85 6.65 1.33 2.1-.53 6.37 1.05 6.9 2.66l20.2-2.65 1.34-1.86s-2.1-9.32-.78-12.8c1.33-3.45 4.52-.8 7.7-4.78 3.2-4 11.45-10.65 17.03-10.37 5.58.25 7.17 5.6 8.22 13.83 0 0-4.5-7.18-12.75-6.12-8.26 1.07-15.17 2.13-17.83 17.57 0 0 .28 5.32 2.66 8.5 0 0-7.98 3.2-17.54 3.2-9.6 0-24.48-2.94-28.75-5.6-4.23-2.64-6.36-7.18-6.1-8.5.26-1.34 3.2-6.4 1.6-13.04zM235.72 522c-.27 3.47-.53 21.82-27.94 24.74 0 0-17.98.04-19.63-12.2-.86-6.4 12.72-23.18 16.16-26.1 3.46-2.93 12.77-12.03 12.77-12.03s13.92 8.88 17.6 14.84c0 0 1.28 7.28 1.03 10.75zm36.7-38.98c-.65.95-8.5 4.4-9.04 4.8-.53.42-1.6 1.2.4 3.73 1.98 2.52 4.4 4.78 2.9 5.98-1.45 1.2-1.98 1.62-1.98 1.62s-3.7.25-2.78 2.1c.93 1.9 2.9 4.8 4 6 1.04 1.2 1.17 3.07.77 4.52-.4 1.46-1.05 2.26-1.17 4.12-.15 1.86-.8 8.1-.8 8.1s-2.4-17.14-16.77-36.57c-6.06-8.2-12.76-13.03-12.76-13.03s.4-2.26 3.32-5.6c2.93-3.32 22.34-31.38 24.87-35.5 2.53-4.12 4.9-8.8 7.17-8.8 1.6 0 6.93 3.35 8.26 5.34 0 0 .53 11.45 4 17.03 0 0-9.72 35.26-10.4 36.17zm87.94-325.5c.55 0 .74.54 1.3.9-.56.74-1.1 1.64-.94 2.57 1.67 1.46 3.3 2.56 5.5 2.75 1.47 2.4-1.83 5.85 1.47 7.52 2.02-.55 4.77-1.84 6.78-.38-.17 1.48-2.2 1.83-3.3 2.74-2.2 3.32-5.32 5.5-9.14 4.94-2.58-.9-1.67-2.74-2.4-4.56l.73-16.5zm20.88 110.8l-3.08 2.26-2.53 16.6s-2.8-.3-3.1 3.08c-.28 3.38-1.4 12.1-2.82 12.65-1.4.56-3.65.56-5.04 1.13-1.42.55-3.1 1.4-4.8.27 0 0-2.24-83.52 0-108 0 0 13.22.28 16.3-.84v1.96s-1.66.85-3.92.57c-2.24-.28-6.74-.58-8.7.84v16.3s5.07.3 7 3.1c2 2.8 5.63 7.02 9.03 6.74v3.38s.53 2.54 1.65 2.54c1.14 0 2 .54 2 2.8s-2 34.6-2 34.6"/><path fill="#00b6f1" stroke="#00b6f1" stroke-width=".35904" stroke-miterlimit="3.864" d="M415.7 57.64l.36 7.7c-5.3-.56-11.53-1.28-17.05-2.75-1.08-3.3-1.44-7.15.4-9.9 5.68 1.1 12.1 1.46 16.3 4.94z"/><path fill="#00b6f1" stroke="#00b6f1" stroke-width=".35904" stroke-miterlimit="3.864" d="M379.42 54.16c0 2.74 2.2 8.43-1.82 8.8-6.06.17-11 2.92-16.87 3.47-1.82-2.37.2-5.5-.36-8.05 1.84-1.83 4.77-1.1 6.6-2.93 3.85-.74 8.24-3.1 12.45-1.3z"/><path fill="#00b6f1" stroke="#00b6f1" stroke-width=".35904" stroke-miterlimit="3.864" d="M415.7 84.4l.36 12.63c-5.87-.9-11.34-1.3-17.6-2.75-1.8-4.03.4-8.6-.35-14.1 2.4-.55 5.33-.55 7.7 0 3.67.55 6.8 2.2 9.9 4.22z"/><path fill="#00b6f1" stroke="#00b6f1" stroke-width=".35904" stroke-miterlimit="3.864" d="M379.06 80.18c1.83 4.94-.2 8.8.36 14.1-6.4 1.65-13 2.75-19.4 4.94v-13c5.48-4.57 11.7-5.3 19.04-6.04z"/><path fill="#ef3e2e" d="M393.88 54.16c1.48 4.4-1.8 12.1 4.23 13 6.24 1.66 12.85 1.3 17.96 5.33l-.36 5.84c-6.6-1.46-13-3.65-20.15-3.84-2.74 3.3-1.1 9.16-1.67 12.8l-.72 6.62c-3.84-1.47-11.72 3.5-9.88-4.22-.38-4.4 3.5-11.53-2.22-14.82-6.94 1.1-14.27 2-20.7 4.56V72.5c6.98-2.95 14.12-5.14 22.18-5.33l1.1-1.1V53.44c2.56-2.03 6.4-.74 9.52-1.1l.72 1.82"/><path fill="#ef3e2e" d="M538.08 78.34l7.68-1.27v.72c-13.9 17.58-34.25 21.23-54.23 24.9-25.1 4.04-47.62-2.2-71.25-4.93-1.46-2.75-.55-5.13-.74-8.43 0-9.52-.36-17.6.36-28.95l1.1-1.66c35.56 16.5 76.2 28.05 117.08 19.6"/><path fill="#bbbdbf" d="M233.05 235.7c9.9 12.47 27.66 20.9 28.2 37.75-2.37 1.65-5.3 4.75-9.15 3.12-3.5-2.38-6.78-8.6-12.08-6.23-2.75 1.65-4.4 4.95-3.13 8.05 1.1 1.1 1.1 2.57 1.47 3.83-2.94-.55-4.03-3.65-4.4-6.04.72-2-1.1-5.14-3.12-6.6-2.38-.38-4.75-.73-6.6-2.2-2.37-2.74 3.67-8.42-2.18-7.68-3.85 4-4.42 12.82-11.9 10.62-2.2-3.67-6.6 1.46-8.27-3.67-2.56.74-5.3.2-7.33-1.27-3.48-3.67-4.03-8.44-6.4-12.48h-.74c.2 8.62 4.04 17.42 12.46 22.37l.35 1.27c-1.65 2-5.68-.93-6.04 1.82 3.3 1.83 7.15 2.93 11 1.83-.72 2.55-6.95 1.45-3.3 4.22 3.3.36 6.23-1.84 9.54-1.12v1.12c-.74 0-1.12.9-1.64 1.27 0 .55.7.93 1.26 1.46 2.58.38 4.78-3.85 7.16-.72 24 10.07 46.36 33.34 51.1 58.98 7.15 7.7 8.05 18.33 9.53 27.85.38 7.13-.38 13.74-2.2 19.78-.9-6.42 1.46-14.65 0-20.88-.54-2.58-.37-6.23-3.12-7.33-2.9 2.38-.55 4.4-.72 7.33-.56 5.5 1.47 12.62-3.47 15.56-3.13 0-2.75-3.3-3.84-5.3.15-6.97 2.18-18.7-4.6-23.27-1.3 1.82.72 4.2 1.1 6.03.17 6.6-.2 12.84-1.1 18.7.17 3.1 2.37 5.12 4.2 7.3 10.27 10.1 23.28 21.62 31.32 33.9 6.8 13.38-3.65 26.77 1.48 40.87.2 6.04-1.48 12.44-3.1 18.3 0 9.54 4.4 25.84-6.04 32.07 3.46-8.26 5.5-18.14 4.56-27.12-.72-.2-1.3-1.45-1.84-.36-1.8 3.3-2.55 7.13-3.84 10.62-.36-4.6 4.58-8.24 1.12-12.65-1.67 0-3.13 0-4.23 1.3.2.18-.2-1.66-1.12-2.02-2.73.55-4.17 4.2-6.74 4.94-1.65 0-2.75 1.64-4.23 1.64 4.04-4.4 9.72-7.7 12.46-13 1.83.18 4.22-.18 3.86-2.4-.93-2.55-1.3-5.5-2.58-7.87 3.3-10.08 8.43-22.35 1.46-32.42 1.84-13.2-11.9-17.78-20.5-22.55-4.6-.53-9.17-2.92-13.04-6.04l-1.62 1.83c-1.84-.92-2.94-3.66-5.33-3.85-1.83-5.13-4.75-11.36-10.26-13.37-6.4 1.46-11.92-1.84-17.05-4.58-1.27.74-.9 2.36-.55 3.12 2.77 8.05 12.84 2.56 15.75 10.63 4.42 7.5 9.9 13.17 18.33 15.37 3.3 2 7.52 2.2 11 4.03-7.32 5.5-17.58 6.4-26.4 4.6-8.23 0-16.84-2.4-24.72-4.95-2-1.48-4.94-1.48-6.78-3.32-4.58-3.3-11.17-6.6-11.53-13-.9-4.57 1.3-7.7 2.75-11.9 7.87 9.17 19.78 12.46 32.05 13.37.2-.36.93-.55.74-1.1-4.97-3.3-11.56-2.74-16.86-4.94-5.87-2.38-13-6.58-15.2-13.36-.2-5.32 1.64-9.9 1.45-15.2 9.52 2 19.78-.74 24.9-9.17 2.2-5.68 1.1-13.75-3.47-18.7-3.1-2-6.23-3.83-9.9-4.2 3.12-1.1 6.8-.37 9.9 1.47 4.2.74 4.4 10.98 8.04 3.84.57-4.03-.7-8.07-3.1-11.36 4.03-1.3.2-4.94.38-7.33-2.4-2.94-6.6-4.76-5.32-8.8-3.3-6.4-10.43-11.55-17.2-11 1.44-.7 3.45.2 4.55-1.45-3.47-8.43-14.47-.74-18.67-9.17-16.12-15-15.74-35-10.63-54.95 2.57-6.42 8.06-12.1 14.12-16.68 4.2-1.27 10.43 0 13.36-5.5 7.5-3.3 13.75 3.66 19.8 7.34 1.62 3.28 5.84 5.67 6.4 9.5"/><path fill="#bbbdbf" d="M329.96 315.4c7.7 4.4 10.26 12.28 18.33 15.2 4.93 2.93 10.25 6.8 14.1 11-1.84.55-2.75 2.38-4.6 2.38-3.28-5.32-8.4-9.52-13.35-12.65-.74 3.87 4.75 5.87 6.03 9.17l2.4 3.84c-1.3.38-4.4 3.32-4.6-.36-2.38-4.94-4.57-10.07-9.16-14.1-.9 0-2.2 0-2.38 1.1l4.58 14.84-.74.9c-2.74-5.12-1.1-13.72-6.78-17.22-2 2.76.2 5.87 1.12 8.44.53 2.75 1.08 5.68 1.82 8.24-.9 1.65-2.75.17-4.23 0 .58-6.6-.7-13.37-5.65-18.14-5.5 1.12-6.06-6.23-11-8.43-5.85-3.47-13.56-8.05-20.15-3.47-2.55 3.48-10.26 2.03-7.32 8.42l1.83 4.95c-2.73 13.2-2 26.4-6.4 38.85-1.3-4.4-2-9.52-3.85-14.1-.55-5.52-5.5-10.63-2.58-16.3 2.94-8.45 4.6-17.6 7.16-26.4.72-4.76 5.5-8.43 9.9-9.53 13.35.93 23.07 10.45 35.53 13.4"/><path fill="#bbbdbf" d="M522.7 304.87c.02.36-.17.9.38 1.08.2-.17.38-.36.36-.74 5.45 7.44 5.26 17.88 9.63 26.05.44 4.58 4 9.1 1.7 13.34-3.73 7.2-4.5 15.47-6 23.37-4.27-12.56-5.08-27.22-7.48-40.18 1.4-2.6 3.18-5.93 1.3-8.82-.76-.9-1.86-1.25-3.15-1.06-4.27-2.85-9.25-5.32-14.9-3.57-7.27 2.7-12.87 7.73-17.35 14.05-.55-.74-1.83-.34-2.57-.34-4.67 4.67-6.02 11.3-5 17.5-1.25 1.13-2.73 1.5-4.2 1.36-.48-6.23 3.1-10.7 3.56-16.56l-1.3-1.08c-4.88 4.3-4 11.43-6.12 17.15-.36 0-.55.38-.72.57.08-5.32 3.3-10.5 3.93-16.2-.56-.9-1.5-.7-2.4-.7-4.33 4.5-7.33 10.2-9.63 15.74-.9.57-2.58-.3-3.5-1.03 1.07-1.83 2.32-3.86 3.4-5.72.67-2.4 6.14-4.33 4.07-7.4-4.7 3.92-10.12 7.87-13.14 13.23-1.3-.7-2.42-1.78-3.9-2.12 1.6-3.32 5.04-5.22 7.58-7.8 2.36-.25 2.9-2.46 4.88-3.58 5.28-2.28 9.77-6.23 13.17-11.24 2.18-1.5 5.07-3.57 7.06-5.43 14.05-2.1 25.3-19.32 39.92-10.96l.38 1.1"/><path fill="#f0b83d" d="M401.23 330.23c.74 2.94 2.2 5.52 2.37 8.8.38 4.04-.72 7.32-2 10.63-4.2 12.63-18.15 21.06-29.68 25.64-19.98 6.42-43.23 7.52-62.1-2-7.53-5.3-16.12-12.1-15.02-22.54-1.1-4.4 2-7.14 2.74-11 1.46-2.92 4.94-5.68 8.43-6.04 3.84-1.1 6.4 1.84 9.14 2.93 2.6 2.2 2.95 5.33 3.88 8.07 1.45 4.94-9.53 11.34 0 14.1 1.8.37 3.65.73 5.66 1.1 4.6 1.82 10.1 1.3 15.22 2 15.02-1.1 31.87-3.47 40.84-17.2 2.58-4.22-3.3-7.16-2.36-11-.57-2.94.72-4.94 2-7.7 2.56-3.83 7.14-4.2 11.37-3.47 3.5 1.84 7.7 3.84 9.53 7.68"/><path fill="#f0b83d" d="M433.3 328.78c0 3.84.35 8.78-2.76 11.72-1.12 5.68 4.4 9.16 8.05 12.65 15.93 8.95 40.47 12.08 57.5 3.48.92-3.67-1.25-4.96-2.56-7.7-.17-4.78-1.27-8.07 2.22-11.92 3.48-3.28 8.6-4.74 13.36-2.92 7.14 4.96 8.8 14.3 7.14 22.55-3.1 10.05-13 16.66-22.72 19.8-1.63 0-3.82 1.1-5.85 1.8-28.58 5.14-60.1-.92-76.6-24.72-4.38-7.5-3.28-19.42 2.02-26.37 3.68-3.67 9-5.5 14.1-4.22 2.04 1.65 4.97 3.13 6.07 5.88"/><path fill="#f0b83d" d="M410.02 321.1v1.45c-9.53 2.38-16.86-5.68-21.8-12.46 2.75-2.4 6.42-.37 9.53-.37 5.13 1.82 9.88 6.4 12.27 11.36"/><path fill="#f0b83d" d="M425.58 316.13c-3.1.38-6.4 2.38-9.88 2.74l-6.06-7.32c2.57-1.46 6.6-3.3 9.9-1.46 2.75 1.1 4.58 3.66 6.04 6.03"/><path fill="#f0b83d" d="M385.65 316.5c-3.85 0-5.3 2.92-8.8 3.47l-8.77-9.14.36-1.1c7.13-1.3 13.36 1.27 17.2 6.78"/><path fill="#f0b83d" d="M466.08 314.3c1.1 1.64 1.1 4.76 0 6.4-2.02 1.5-4.03 3.85-6.6 2.2-4.95-2.55-6.4-7.13-9.53-11.35 3.68-1.82 6.97-1.46 10.8-1.46 1.66 1.28 4.22 1.83 5.33 4.2"/><path fill="#f0b83d" d="M447.04 316.87c0 2 3.27 2.74 2.55 4.94-3.5 2.4-8.08 2.04-11.73.4-4.22-2.04-6.78-6.98-8.8-11 3.86-2.4 5.87-.2 10.26-.37 2.93 1.26 5.68 3.3 7.7 6.04"/><path fill="#f0b83d" d="M369.53 319.97v1.12c-6.94 1.64-15.75 2.55-20.14-3.85-.75-1.84-.2-4.04.7-5.7 7.9-3.85 14.66 2.02 19.43 8.42"/><path fill="#bbbdbf" d="M382.9 203.65c1.1 2-.72 5.14 1.48 6.6 4.56-.56 12.27 3.12 14.1-3.1V204c3.3-1.1 7.33-.7 10.8-.35 1.48 2-.36 6.42 2.93 6.6 3.86-1.65 10.83 2.02 12.28-3.1v-3.5c4.42-1.83 9.53.36 14.1-.36.94 1.45 1.66 3.3.75 4.94-2 .7-4.94 0-5.68 2.74 0 3.1-2.2 5.85-4.58 7.14-2 1.84-6.6-.55-6.4 3.48-.38 1.48.55 3.3-.93 4.23-11.17 1.26-23.63.55-34.26-.38-1.45-1.82.2-5.85-3.48-6.95-3.1-.93-7.33-.38-9.14-3.68-.55-1.83-.2-3.84-2.2-5.13-1.12-.9-3.13.54-3.87-1.1-2-8.98 9.7-4.95 14.1-4.95"/><path fill="#bbbdbf" d="M421.38 233.32c-.74 2.4 2.2 8.07-2.56 6.97l-29.33-.37c-1.83-2.2-.18-4.96 0-7.32 9.5-.54 20.88-.54 31.14 0l.74.72"/><path fill="#bbbdbf" d="M421.74 245.6l.93 26.75c-9.55.36-22.54 0-34.83-.36.38-8.8-.9-19.8 1.1-27.86l1.3-.74 30.4.38 1.1 1.83"/><path fill="#bbbdbf" d="M425.22 276.2c1.84 2.93.55 7.32 1.46 10.62l-1.46.74-41.58-.38c-.74-3.47 0-7.3.74-10.6 14.47-1.65 26.92-.2 40.84-.4"/><path fill="#bbbdbf" d="M430.9 293.6c1.1 2.02 1.1 5.5 0 7.32-16.66-.9-35.18.38-52.2-1.1-.93-1.83 0-4.56.72-6.58 17.6-.55 35.18-.55 51.48.35"/><path fill="#f0b83d" d="M380.7 162.07c-2.93 3.3 4.04 7.88-1.64 8.05-1.46-7.3-12.27.74-9.53-8.43-.74-1.47-4.03-1.28-3.3-2.92 1.85-.55 3.85-2.03 4.95-3.87-2-3.83-5.87 1.66-8.05-.7.55 0 4.95.35 6.04-2.03-.38-4.2-5.87-1.1-8.44-2.56l-.72 1.1c-1.28-5.86 2.2-10.44 1.66-15.55-1.48-1.84.74-3.13 1.1-4.6 3.65 11.2 21.43 17.77 17.94 31.52"/><path fill="#f0b83d" d="M460.76 160.23c.38 1.65-.55 3.85-2 5.33-3.13 2.74-9 2-9.9 6.4 3.3 2.74 5.67-1.27 8.8-1.46 2.55.2 5.1-.2 7.3-1.48 2.94-2.56 3.87-5.85 5.33-9.14.9-.74 2.18-.38 3.28-.38-4.58 5.32 1.65 15.75-6.4 19.04-2.57 1.12-6.42.57-8.8-1.45-1.65-1.66-3.1-3.67-5.3-3.5-2.2 3.87 4.75 5.87 4.2 9.9.55 3.66-1.1 6.98-4.2 8.8h-5.33c1.84-1.1 4.95-1.47 6.04-4.2 1.64-3.7-1.27-6.43-1.82-9.56-2.77-3.46-7.35-4.94-10.65-4.2-5.1 1.3-11.53 4.04-12.62 9.88-.73 4.23-.73 9.9-1.1 13.4-3.12-5.52-2.74-13.94 1.1-19.43 2.4-4.4 8.43-3.12 9.53-8.44 6.04-5.68 17.4-2.2 20.15-11.9 1.45 0 1.45 1.64 2.38 2.37"/><path fill="#f0b83d" d="M388.22 172.88c-.55 2.56-2.2 6.23 0 8.6 2.75.38 3.85-3.1 6.23-4l8.24-1.68c-3.7 2.4-7.15 6.06-11 8.07-1.28.73-1.66-1.1-2.76-1.1-2.17 1.3-1.63 4.77-4.56 5.68.9-1.65 1.82-3.65 1.27-5.32-.55-.36-.9-1.1-1.65-.72-2 1.82-2 4.4-4.2 6.05-.55-1.1 0-3.3-1.84-4.23-3.1.38-1.48 8.45-5.3 3.5-2.03-.18-2.94 2.38-4.58 2.92.7-.54.7-3.65-1.48-4.03l-3.85 2.95-.35-3.5c-2.94-1.25-4.78 2.4-6.97 3.5-1.1-2 6.6-3.3 2.38-6.04-2.37-.37-3.47 2.56-5.67 2.56 1.1-3.48 5.32-2.2 6.42-5.3 3.28 2 8.24 1.27 11.34-.74 4.77-5.5 11.9-6.97 18.32-7.14"/><path fill="#f0b83d" d="M408.92 180.76c-1.1 4.04-1.46 10.43.36 14.47v2.74c-4.94.9-11.72-.36-15.4 1.1-.9 2.58.38 4.58-1.07 6.97l-4.58-.38c-1.45-2.37 1.65-6.78-2.57-7.7-.9.37-2.37.37-3.1-.73-.37-3.3 2.74-4.03 4.93-5.3 3.5-4.4 8.98-5.87 12.65-9.9 2.92-.55 5.5-2.92 7.14-5.85 3.68-.2.55 2.93 1.65 4.58"/><path fill="#f0b83d" d="M423.38 116.46c1.3-.74 1.1-2.75 2.94-2.03 3.67 2.4 1.65 10.64 8.07 8.43 2.18 3.84-7.9 3.12-3.86 7.7 1.27-.38 3.1-.74 3.47 1.1-.16 1.84.4 4.4-1.8 4.94h-.94c0-1.45 2.03-3.3-.36-4.22-1.64-.36-2.2.93-2.93-.72.2-.93 1.83-1.84.74-3.12-2.02-.36-3.84-3.85-6.03-1.46-1.3-.74-.55-2.94-2.4-2.75-1.45-.38-3.1.74-4.2 2-.56-4.74-.92-8.6.37-13.74 2.74.56 4.2 3.67 6.94 3.86"/><path fill="#f0b83d" d="M360.73 123.6c-4.4 1.64.93 6.58-2.92 8.78.2 3.13 1.1 5.68-.73 8.45-2.74-1.84-4.03-5.13-5.32-8.07 1.12-3.67 2.03-7.88 4.4-10.62l.92-2.77c1.84.57 2.4 2.94 3.66 4.23"/><path fill="#f0b83d" d="M408 125.24c0 .55 0 2 1.28 2.56h1.1c.38 1.12-1.1.93-1.1 1.83-.17 1.84 1.3 3.5 2.93 3.87 1.3.17 2.2 0 3.12-.74-1.46.55-3.47 2.2-5.3 1.46-2.75-1.27.74-6.04-3.1-6.42-2.58 2.2-1.1 6.42-2.94 8.44-.74 3.1-3.68 5.85-2 9.53-.94 3.65-4.23 4.03-7.17 5.3-3.28.74-6.77.74-9.5 2.2 1.28-7.7 12.45-4.4 14.45-12.44-2.55-2.03-4.56 1.8-6.94 2.55l-3.86 1.3c-.36-1.85 1.3-3.5 2.4-4.97 2.18-.7 4.76-3.3 7.13-1.64 2.02-.17 1.1-2.74.92-3.84-2-1.84-1.3-4.2-.4-6.42l.75-.72c.93 1.46 2.4 2.93 4.23 3.1 2.2-2.2-1.48-6.04 1.45-8.42 1.48 1.1 4.2.55 2.58 3.48"/><path fill="#f0b83d" d="M408.56 152.17c-2.94 3.86-5.5 6.97-5.5 11.55.73.9 1.66 1.3 2.75 1.1-2.56 5.87-9.34 4.94-13.37 8.78.2-5.3 8.42-7.68 8.8-13.72-.55-.74-1.1-.93-1.84-.74-3.1 3.67-7.14 7.32-9.9 11.36-2.2-4.77 8.25-8.43 6.8-15.6 4.55.56 8.04-9.68 12.26-2.73"/><path fill="#f0b83d" d="M392.07 155.65c1.28 5.32-6.04 7.33-7.16 11.72-1.8-2.36-1.45-4.4-.52-7.5 1.1-3.3 4.56-4.03 7.7-4.22"/><path fill="#f0b83d" d="M415.32 142.64c-.17.93-1.08 1.3-1.46 2.03h-1.65c-.35-1.1.75-1.67.92-2.4.74.18 1.65-.18 2.2.37"/><path fill="#f0b83d" d="M429.42 146.5c.57 1.1-.7 1.1-1.07 1.47-2.03 0-2.2-2.2-2.77-3.68 0-.73.2-2.02 1.1-1.66 0 1.65 1.3 3.3 2.74 3.85"/><path fill="#f0b83d" d="M423.76 149.25c1.65 1.46 3.1 2.92 2.92 5.3-.17-.2-.36-.54-.72-.35-.2 1.1.72 2.2-.74 3.3-2-2.04-.55-7.17-4.22-8.25-2.37 1.63-.17 4.2-.36 6.4-1.65-1.84-5.32-2.74-3.84-5.68 1.83-1.1 2.57-4.03 4.94-4.58l2.02 3.85"/><path fill="#f0b83d" d="M417.7 161.7c-1.8-1.66-1.26-4.2-3.46-5.67 1.82.9 3.65 3.3 3.46 5.66"/><path fill="#f0b83d" d="M414.24 167.37l-1.12 2.4c.93-3.85-6.4-6.96-.53-9.9 1.07 2.37 2.72 4.95 1.64 7.5"/><path fill="#f0b83d" d="M409.45 141l-1.7-1.27s-.44 1.48.4 2.55c.87 1.06 1.3-1.28 1.3-1.28"/><path fill="#f0b83d" fill-rule="evenodd" d="M419.16 139.48s2.2-1.65 3.93-1.7c-.62.07-2.44.13-2.44.13s-.87-1.38-.87-4.04c-.53 2.9-1.4 4.7-1.4 4.7l.76.92"/><path fill="#bbbdbf" d="M613.9 223.08c7.9 2.37 15.22 10.62 17.96 18.3 5.32 20.54 3.5 43.62-14.46 57.16-5.3 1.28-12.44 0-14.85 5.87.55 2.4 3.12 0 4.22 1.84-6.23-.73-11.55 3.66-15.75 8.43-.38 2-2.2 4.03-1.48 6.04-3.65 3.14-6.6 6.62-6.04 11.37.38.74 1.1.93 1.84.93-2.75 3.84-4.58 9.15-2.2 13.18.36.55.74 1.1 1.46.9 2.4-4.2 5.32-7.13 9.88-8.42h5.68c-4.94 1.48-10.98 3.5-12.82 9.17-2.36 4.4-2.36 10.07 0 14.46 4.4 6.22 11.75 10.26 20.17 9.54l3.83-1.12c.38 7.16 4.42 15.94-2 21.26-7.14 8.24-17.4 9.34-27.1 11.53-.38.37-1.12.75-1.12 1.47 2.78 2.22 6.05-.9 9.54-.36 8.45-2.54 16.87-4.93 23.27-12.26 2.02 4.78 4.23 11.17 1.1 16.12-3.67 4.22-8.78 8.42-14.1 10.26-12.82 6.06-28.38 9.16-43.42 6.78h-1.1c-.7-.9-2.55-.9-3.84-1.46-1.3-1.84-5.13-.55-4.94-3.48 12.27-2.75 24.73-9.17 30.6-20.9 3.46-5.67 13.73-2.2 14.47-11.16-2.03-1.46-3.85 1.3-5.87 2-4.4 1.12-7.88 2.75-12.46 1.84-5.5 2.2-8.24 8.26-9.5 13.37-2.4.2-3.5 2.95-5.33 3.85-2.73-4-5.5 2.58-8.42 3.13-2.76.74-4.4.17-6.96 1.48-6.97 4.2-17.05 7.5-19.4 16.66.7 8.07-5.88 14.66-3.33 21.8.73 7.7 8.25 15.56 2.2 23.27-.73 1.63 1.1 2.9 2.2 3.1 2.37-.92 2.56 1.47 3.5 2.57 3.1 3.65 7.5 6.6 11.16 9.88-4.22.36-8.25-3.1-10.8-6.04-.56.56-1.87.56-1.87 1.47 2.76 4.77 4.95 11.17 10.64 13 .73.55.2 1.65 1.1 1.84.37-2 2.74-.73 3.86-.73.36.55.9.74.72 1.3-8.62 2.38-11.72-6.98-15.95-12.28.2-1.65-.55-3.13-1.8-3.85-1.66 0-3.5 0-3.88 1.46 1.83 9.17 4.38 18.9 12.45 25.66-10.24-4.6-9.33-16.87-14.1-25.1-1.1-.55-2 .73-2.2 1.45.38 9.37 1.48 18.5 5.68 26.22-5.87-1.1-6.23-7.88-7.52-12.46-.9-10.62 2.42-20.9-2-30.22.2-11.17 1.46-24.37-1.1-35.73.94-4.93.75-10.42 3.1-14.84 4.23-5.5 8.46-10.8 13.57-15.37l.57.35 1.46-2.94 17.6-17.56c.9-7.52-1.68-16.5.35-24.37 0-1.3 2.2-2.74.35-3.84-3.1 1.27-3.48 4.94-4.56 7.7-.76 7.12 1.46 14.1-2.02 20.13-2.75 1.3-3.85-.2-4.6-2.74 0-5.68-1.63-10.82 0-15.93.2-1.32-.18-2.4-1.08-3.5-3.85.92-2 5.5-2.94 8.06v20.14c-4.4-16.85-3.1-34.8 7.52-49.46 4.2-22.34 22.17-44.13 43.42-53.5 4.03-1.45 8.04-7.5 12.65-3.28.7 0 1.44-.2 1.8-.74.36-1.65-1.45-1.27-1.8-2.4 2.73-2.54 6.38 2.04 10.6.4.73-.2.37-.94.37-1.5-1.3-1.08-2.94-.9-4.23-2.35 4.04 1.27 8.62-.2 10.82-2.94-2-1.3-4.02.9-5.66-.74 1.1-2.37 4-4.95 6.4-6.98 2.38-5.3 7.68-10.43 5.68-16.66-2.94.9-2.4 4.6-3.5 6.78-1.83 2.4-2 6.23-5.67 6.78-3.1 0-5.67-.2-8.06 2.75-2.9-2.4-5.13 3.12-8.23 1.1-5.86-1.27-5.12-8.6-9.88-11-2.57 2.76 1.82 8.8-3.84 9.54-2.77.56-5.87 1.65-7 4.6.2 3.47.4 7.32-3.26 8.77l-1.3-.35c1.3-2.4 3.3-4.95 2.02-8.07-.36-2-2.75-2.94-4.2-3.85-7.7-.9-12.28 13.18-19.8 4.23-1.26-21.08 24.73-27.67 31.15-44.9 5.84-5.5 12.62-11.72 21.05-11.17 3.48 2.2 6.42 6.04 11.36 5.32"/><path fill="#bbbdbf" d="M621.24 425.88c-12.82 13.9-30.6 19.6-48.9 18.3-4.6-.9-7.72-2.2-12.1-3.84-4.76-2.38-6.4-7.5-8.8-11.74 19.8 4.23 39.94.2 56.07-9.52 3.67-3.1 7.5-6.04 11.35-9.15 1.84 4.95 6.04 10.63 2.4 15.95"/><path fill="#bbbdbf" d="M628.38 432.47c1.48 2.55 1.28 6.23.74 9.16-6.04 11.17-18.88 15.74-30.77 17.76-13-.2-30.05 2.93-35.54-12.83l-.35-.38c3.48-.37 8.23 2.38 12.98 1.83 18.88 1.48 37.2-6.4 49.1-20.5 2.94.35 2.2 3.48 3.85 4.94"/><path fill="#bbbdbf" d="M636.08 451.16c1.46 5.5-3.12 8.6-5.32 12.46-13.36 10.07-33.9 16.85-49.65 7.32-2-2.93-4.38-5.68-6.03-8.8 8.62.74 19.98 3.67 29.32.38 8.4-1.84 15.55-6.23 22.52-11.74 1.84-2 3.67-5.14 6.04-5.85l3.12 6.23"/><path fill="#bbbdbf" d="M642.12 466.72c-1.45 9.7-12.46 17.6-21.24 20.15-8.8 2.57-20.53 4.03-27.83-2.56l-4.6-5.3c7.32-.2 17.58.73 25.1-2.38 5.85-1.28 11.72-5.32 17.2-8.44 3.14-2.75 4.8-6.95 8.44-9.15 1.64 2.2 1.47 5.3 2.92 7.7"/><path fill="#bbbdbf" d="M646 478.08c1.45 4.2.7 9.53-2.42 12.65-7.3 9.88-19.76 12.82-31.87 10.62-4.93-1.47-8.05-4.22-11.16-8.25 16.5 1.83 35.16-3.85 42.68-19.96 1.84.72 1.65 3.48 2.77 4.94"/><path fill="#bbbdbf" d="M648.16 503.72c-6.94 8.97-19.78 9.9-29.67 8.07-2.75-1.1-4.6-3.86-6.05-6.24 13.54 2.02 28.58-2.75 36.28-15.57 2 4 2.37 9.88-.57 13.72"/><path fill="#bbbdbf" d="M650.93 518.2c-7.35 5.14-18.33 6.6-26.76 3.1-2-.73-2.2-3.1-3.3-4.57 10.82.38 23.28-.9 30.42-11.17 1.64 3.67 2 9.35-.37 12.65"/><path fill="#bbbdbf" d="M649.8 531.93c-5.65 3.5-14.62 3.13-21.04.38-1.1-1.66-2.94-3.47-2.2-5.3 8.98 1.64 18.12-.75 25.47-5.33-.74 2.58 1.65 8.26-2.22 10.26"/><path fill="#bbbdbf" d="M649.07 541.84c-5.1 4.2-13.18 3.3-18.67.74-2.2-1.67-1.45-3.13-1.64-5.7 6.23 1.83 15.4 3.3 21.43-1.1.16 1.83-.2 4.22-1.13 6.06"/><path fill="#bbbdbf" d="M647.07 547.14c-.9 3.67-2.92 6.78-4.95 9.9-4.2.74-9.16.9-12.07-2.57-1.1-2.75-2.58-4.76-.93-7.7 5.68 1.85 12.3 3.1 17.95.37"/><path fill="#bbbdbf" d="M635 560.9c1.44-1.1 3.45-.75 4.93-.4-7.88 10.82-18.7 19.07-30.96 21.27-8.62-.2-17.04 3.1-22.9-4.03-1.1-2.75.18-5.5 2-7.7 9.9-7.32 21.64-7.32 32.8-11.9l.37.55c-2.56 5.12-8.24 9.5-13 12.45v1.1c5.12 1.64 8.23-4.04 13-4.97.55 3.13 4.03 3.13 6.06 3.5.36-.37 1.08-.73 1.08-1.47-2-1.45-4.4-2.18-4.94-4.93.92-2.75 1.28-5.68 3.86-7.7 1.65 2.57 4.75 3.67 7.7 4.22"/><path fill="#bbbdbf" d="M596.32 207.88l-2.2-2.22-1.07 1.48c.52.36.17 1.1.36 1.46-1.28-3.3-2.38-7.14-2.02-10.63 2.57 2.94 4.58 6.04 4.94 9.9"/><path fill="#bbbdbf" d="M587.72 211.34c.36.74-2.2-1.46-2.74.74v1.84c-1.65-1.84-3.32-4.23-2.2-6.78 2 .36 4.02 2.2 4.94 4.2"/><path fill="#f0b83d" d="M523.23 368c1.1 8.23 5.13 15.18 6.78 23.24-3.64 3.13-8.42-1.83-10.97 3.13-6.04 7.5 2.93 19.96-6.42 26.2-5.3 11.54-1.64 26.17-1.28 37.37-1.27 8.42-1.1 18.1 1.67 27.1-8.46-33.7-24.76-69.62-9.56-104.42 4.04-6.6 10.46-13.75 18.7-13.75l1.1 1.12"/><path fill="#f0b83d" d="M613.9 203.3c1.1 3.65-3.66 6.94-.35 9.14 4.04-2.92 3.85-10.62 10.27-10.98 0 4.2-2.58 8.23-3.32 12.46l.74.9c4.58-2.74 4.58-8.78 10.26-9.7.36 4.76-3.12 8.8-4.58 13 2.94 1.3 3.84-2.56 6.42-3.84 1.65-.55 2.93-2 4.94-1.46-1.46 3.84-6.6 6.6-5.68 10.62 3.67 0 5.32-6.04 9.52-5.68-1.83 4.03-7.68 6.23-6.04 10.62 4.02-.74 6.04-6.23 10.63-5.3-1.1 3.85-8.97 6.4-6.4 11.17 2.75-.74 4.57-4.22 7.86-3.48-2.74 2.2-8.23 4.58-7.13 8.78 4.03-1.1 7.32-6.04 11.72-4.2-.53 1.27-2.94 1.84-2.56 3.85.35 2 2.55 1.45 3.84 2.55-3.1-1.65-6.42-.17-8.8 1.65.75 2.93 4.2.38 5.7 2.2-.94.37-2.2 0-2.78 1.1.9 2.76 4.42 3.48 7.33 3.48 3.12 1.47 4.57 4.58 6.05 7.32-5.13 0-7.32-4.58-12.1-4.94-1.1 0-1.64 1.65-.72 2.2 4.2 4.4 12.27 7.16 12.44 14.1-4.58-2.2-8.6-5.86-14.1-6.03-1.46 3.65 3.48 3.84 5.32 5.68 2.54 2.4 4.74 4.95 5.3 8.07-3.3-3.3-7.7-7.35-12.47-6.97-.72.55-.36 1.65-.36 2.4.55 1.64 2.4.7 3.3 1.45 7.87 5.13 6.6 14.84 10.1 22.17-7.72-2.55-7.34-12.1-14.7-14.84-2.54 2.55 2.78 4.94 3.5 7.5 3.67 6.6 6.06 15.77 2.38 22.9-10.26 10.27-25.82 15.04-28.95 30.06-4.58 10.43-20.5 8.6-19.96 21.8-2.57-2.2-.93-5.88-.38-8.44 4.04-7.68 15.04-4.58 17.24-13-.55-.9-1.48-.74-2.4-.74-6.77 5.5-18.85 6.8-20.14 17.6-.38 2.75 1.46 4.76 2 7.32-3.45-1.65-6.03-5.85-6.58-9.53.36-5.13 2.77-9.52 7.7-11.9 7.12-1.85 15.57-3.3 21.6-9.15.2-.74 0-1.48-.73-1.84-4.75 1.65-10.43 3.3-15.56 1.46-5.5-2.2-11.73.55-16.5 3.48 0-2.93 2.74-5.13 4.94-6.97 9.35-3.46 18.5 2.94 28.76 1.3 1.12-1.1 2.2-2.6 1.84-4.6 1.83-.7 4.22-1.64 4.96-3.48-1.84-.9-5.32 0-7.7-.7-6.4-2.4-5.86-11.38-13.76-11.57h-6.75c2.35-2.2 6-2.2 9.13-1.45 8.43 2.93 10.26 16.3 21.24 11.36 1.3-.94 3.32-.4 4.23-2.23l-1.46-1.46c-3.67-.53-8.07.92-11-1.25-3.5-4.42-3.84-10.46-9.15-13.75 2.74-.38 5.65.74 8.4 2 5.13 5.88 10.8 12.85 19.43 9.9 1.1-.73 2.74-.73 3.65-2.38l-.36-1.1c-5.3-.73-13.56 1.1-16.3-5.68-.93-1.28 0-2.55.38-3.86 3.82 4.05 9.7 9.36 16.85 7.35 1.84-1.65 5.85-1.1 6.04-4.58-2.4-3.13-4.4.9-6.98.74-3.12.15-6.23 0-8.23-2.4-3.88-9.9 8.05-16.13 6.77-26.57 3.84-20.33-.93-45.25-20.15-58.07-4.96-2.75-10.3-5.13-15.78-6.78-1.45-2.94 2.58-4.94 3.87-6.97.54-2 2-3.83 1.63-6.4 1.3.92 2.03 2.95 2.58 4.6"/><path fill="#f0b83d" d="M615 328.04c-7.68 2.2-14.1-10.07-23.26-5.13 3.48-3.84 8.8-3.48 13.36-2.55 4.06 1.46 5.33 7.33 9.9 7.7"/><path fill="#f0b83d" d="M628.02 374.4c-1.3 5.48-4.2 13.55-.36 19.04 1.65 3.68 4.94 6.23 7.7 8.8-2.93 4.95-5.5 11-1.66 16.12 2.38 4.4 11.36 4.58 5.87 10.62-1.48 3.3-1.3 6.04-1.3 9.9-10.06-22.17-19.6-46.18-18.32-71.63 2.4 2.56 4.94 6.04 8.07 7.14"/><path fill="#f0b83d" d="M650.2 452.6c-.75 4.4-4.97 8.25-2.4 13.02 2 3.66 5.33 6.97 8.8 8.8-1.66 3.1-2.56 6.77-3.85 10.27-4.75-13.2-7.14-27.5-12.46-40.5 2.75 3.47 6.6 5.67 9.9 8.4"/><path fill="#f0b83d" d="M659.72 499.52l-3.85 4.2c-.93-3.65-1.1-7.7-1.48-11.53 1.3 3.28 4.22 3.83 5.32 7.32"/><path fill="#231f20" fill-rule="evenodd" d="M519.24 361.6c-1.18.35 1.35-1.84 1.52-3.2.17-1.37.84 3.05.84 3.05s-1.18-.17-2.36.14"/><path fill="#bbbdbf" d="M588.82 329.16l1.46-1.12h1.1l-2.56 1.12"/><path fill="#f0b83d" d="M610.43 358.1c1.45 2.54.57 5.84.9 8.77-1.1 1.65-2.72 0-3.82 0-2.2-1.45-3.47-4-2.4-6.58.93-1.3 1.3-3.3 2.77-4.05 1.84-.74 1.65 1.65 2.56 1.84"/><path fill="#231f20" d="M597.97 231.5c2.02-.73 4.4-.18 6.06 1.1.93 2-1.48 2.2-2.2 3.1-7.7 1.85-13.75 9.9-22.53 5.7.36-2.04 2-3.68 2.93-5.7 1.46-2 3.47-3.83 5.85-4.57 3.3.2 6.97 4.94 9.9.38"/><path fill="#bbbdbf" d="M652.03 461.78c-1.48-4.96 11.9-12.1 0-13-2.22-1.5-4.96-2.95-6.04-5.7 7.13-1.64 14.43-2.74 22.14-3.48 1.1.74 2.75.38 3.66 1.65 2.2 1.1 1.64 4.4 1.28 6.42-2 2-4.22 4.58-6.23 5.68 0 .74-1.45 1.84 0 2.4-4.43 2.7-13.36 5.67-14.82 6.03"/><path fill="#f0b83d" d="M678.4 348.2c3.5 3.47 5.85 8.05 10.63 10.25 1.1-.17 1.64-1.3 2-2.2 4.97 5.68 6.97 13.56 9.9 20.53.75 0 1.66.2 2.2-.74 2 5.3.74 10.07 1.08 16.3 3.7 6.04 1.32 14.3-.7 20.34-1.3 5.13-7.5 6.23-8.8 11.36 1.85 2.2 3.3 0 5.3-.38 4.4-.72 7.72.93 10.82 3.13-1.46 4.57-4.4 9.5-9.14 11.7-1.1.4-1.48 1.48-1.1 2.75 3.63 2.77 8.97 1.65 12.08 6.04 3.84 4.03 5.3 9 7.33 13.74-3.67 1.84.18 5.13-.37 7.88-.57 4.22 5.1 9.52.36 13-1.3 4.78-2.95 9.36-2.76 14.47-4.03 4.76-5.32 10.63-11.36 13.38-3.3 2-6.42 5.5-8.8 8.43-1.82-3.67 1.66-7.68 1.47-11.9 2.75-8.8 8.24-17.4 4.58-27.67-2.38-9.52-10.45-16.85-19.78-19.24-9.17-1.1-18.7-1.1-26.76 1.28-1.47.36-3.1.74-4.57 1.1 7.14-2.64 10.28-4.08 14.82-6.04 4.04-2.77 9.9-5.32 10.82-10.8-.55-2.23-.74-4.8-2-6.8-4.6-4.22-9.72-1.47-15.24-2.38l-8.04.9c14.45-9.68 25.46-25.63 28.2-43.22 1.82-14.82-1.48-30.77-2.93-45.23h.74"/><path fill="#231f20" d="M685.18 359.55c6.78 20.14 4.4 43.25-3.84 61.75-.74 1.45-2.4 3.3-4.03 2-1.28-2.93 1.46-6.04 2.92-8.8 5.5-14.83 9.17-31.87 4.23-47.98-.9-2.58-1.65-5.3-.74-8.07.55 0 1.1.74 1.48 1.1"/><path fill="#231f20" d="M698.2 388.86v1.3h-1.1v-2.02c.52 0 1.1.17 1.1.72"/><path fill="#231f20" d="M693.6 415.6c-2.74 3.48-4.02 9.18-9.15 9.9-2.2-4.75 4.77-6.78 5.68-11.34 4.03-6.25 4.94-13.75 6.58-21.08l1.1-.74c.4 8.07-1.8 15.95-4.2 23.27"/><path fill="#231f20" d="M710.1 458.3c4.04 6.6 6.04 15.56 4.04 23.27-1.48-2-.2-3.85-1.12-6.04-1.65-9.36-6.04-18.16-14.83-24.37-.2-1.3.54-2.94 2.38-2.4 3.63 2.57 6.76 5.88 9.52 9.53"/><path fill="#231f20" d="M708.44 487.6c-1.65 8.43-3.83 17.6-8.43 25.28-.54-.35-.73-1.28-.73-2.36.74-1.86 1.86-3.68 2.03-6.06 1.83-6.6 4.22-13 4.96-20.15-.38-8.25-4.4-15.74-10.26-22.16-.38-.9 0-2 1.1-2.2 9.16 6.06 12.64 17.78 11.34 27.67"/><path fill="#00b6f1" stroke="#fff" stroke-width=".35904" stroke-miterlimit="3.864" d="M737.75 555.92c1.48 12.1-10.25 22.92-19.05 29.34l-6.78 4.2c-3.65-8.24-6.78-17.6-9.17-26.74 7.35-6.23 16.7-7.87 26.02-10.26 3.32 1.65 6.97-.55 8.98 3.46z"/><path fill="#00b6f1" stroke="#fff" stroke-width=".35904" stroke-miterlimit="3.864" d="M759.92 572.8c4.03 17.2 15.4 32.6 12.27 52.2-12.1 25.83-40.5 37.74-64.12 48.74-2.75.72-5.33 1.82-8.43 1.82-6.97-18.86-12.27-38.3-17.4-57.9 2.4-1.26 6.4-.9 9.16-2.73 25.1-8.43 54.05-21.44 64.68-49.1 1.8 1.3 2.57 4.58 3.84 6.97z"/><path fill="#00b6f1" stroke="#00b6f1" stroke-width=".35904" stroke-miterlimit="3.864" d="M659.36 614.93c-.38 1.64-2.22 3.1-3.5 3.84-2.92 1.84-5.67 3.67-8.8 4.94 1.84-2.9 7.52-7.3 12.3-8.77z"/><path fill="#00b6f1" stroke="#fff" stroke-width=".35904" stroke-miterlimit="3.864" d="M194.2 655.8c30.78 8.96 61.2 18.3 93.08 24.34 25.28 6.78 53.3 8.8 80.8 11.55 40.1 5.12 80.77-1.1 118.87-4.97 29.7-4.2 58.43-10.98 86.67-19.03 33.34-9.35 67.22-17.23 96.34-36.64l7.35-8.45 1.46 1.5c5.5 21.8 12.65 42.86 20.15 63.75 1.85 7.5 3.7 17.4-2.9 22.9-50.2 28.56-104.98 41.93-161.77 54.4-11.55 1.28-24 3.66-35.37 5.3-41.2 5.14-86.82 6.22-129.33 5.14-14.65-.58-28.02-1.85-42.32-3.5-21.04-.9-40.83-5.3-61-8.8-52.94-11.34-106.24-25.07-153.14-51.46-5.88-4.2-7.14-10.44-6.04-16.86 5.5-20.14 13.36-39.2 19.04-59.36 1.3-4.75 2.2-9.52 4.6-13.72 17.58 19.23 41.02 25.82 63.55 33.9z"/><path fill="#00b6f1" stroke="#00b6f1" stroke-width=".35904" stroke-miterlimit="3.864" d="M617.04 623.7c-6.6 3.88-13.56 5.5-21.08 4.97-.74-2.2 2.75-1.47 3.84-2.93 5.87-1.65 10.82-1.65 17.24-2.03z"/><path fill="#00b6f1" stroke="#00b6f1" stroke-width=".35904" stroke-miterlimit="3.864" d="M591.74 645.17c-1.82.9-5.85 2.2-9.5 2.2-.94-1.1-.75-3.32-.75-4.6l10.24 2.4z"/><path fill="#f0b83d" d="M749.68 546.4c6.76 15.22-2.77 29.7-13.4 39.95-13.74 12.08-30.4 19.05-47.25 24.54l-8.07 1.1c.74-1.83-1.46-2.75-.74-4.6 23.65-7.68 48.2-17.75 61.75-41.93 1.65-4.04 2.03-8.98 0-13-4.22-5.7-10.26-4.04-16.3-3.85-9.53 2.74-19.05 5.13-27.12 11.17l-1.1 2.54c3.68 9.72 6.42 19.62 9.53 29.5-1.84 1.3-4.4 2.2-6.4 3.3-4.03-5.85-4.77-13.92-8.07-20.5-.35-6.98-10.25-15.95-1.1-21.08 13.74-7.16 28.78-12.65 44.53-14.1 4.94.18 10.43 2.2 13.75 6.94"/><path fill="#f0b83d" d="M199.9 632.16c6.58 1.46 15 2.72 19.95-2.58 1.48-3.84-3.1-5.68-5.1-7.33-10.27-4.94-23.28-4.4-35-4.94-1.84-1.47-3.68-2.56-5.33-4.57 14.3-1.65 29.5.9 43.06 3.84 4.4 3.1 11.53 4.04 12.65 10.63.9 4.22-1.28 8.06-4.6 9.54-10.62 4.4-19.77 1.82-30.96.36-10.98-2.03-20.3-8.26-28.57-17.04-6.42-6.23-13.37-14.1-22.15-11.17-1.65 1.63-1.86 4.38-1.1 6.58l2 3.3c14.47 11.35 30.96 17.58 47.65 23.26 6.04 1.84 12.62 4.75 19.4 6.6 40.85 10.8 79.5 23.45 123.12 27.85 18.12 3.1 39.2 3.83 57.5 5.65l.74-.72c53.88.17 102.05-6.04 152.22-18.33 10.82-2.92 20.17-5.85 31.15-8.43 24.18-6.04 48.36-14.47 71.28-25.1 6.78-5.12 19.98-7.32 17.98-18.68-1.48-2.94-5.35-2.4-8.07-2-14.84 6.58-23.45 25.65-39.95 27.84-13.17 1.46-29.12 8.05-38.83-4.22-.17-3.13-.17-6.42 1.84-8.8 8.78-8.4 21.07-8.6 32.8-10.63h21.07c-3.5 9.34-14.3 2.92-20.36 5.3-8.05 1.28-17.4 1.47-24 7.34-.73 1.46-2 3.46-.35 4.94 8.98 6.78 21.25.74 30.58-2.4 16.5-8.4 28.57-31.85 50.2-24.33 2.74 1.07 4.58 4.2 4.96 6.94-.2 6.96-4.96 13-10.64 16.68-12.44 9.7-27.1 15-41.58 20.7-49.65 16.68-102.6 29.1-156.26 36.08-15.58.74-31.34 3.1-47.28 3.85-37.72.36-74.9-2.55-111.74-9.16-2.93.74-5.68-1.27-8.78-1.1-48-10.8-95.8-21.24-140.52-41.2-10.45-6.06-28.02-13.4-25.66-28.6 2.2-4.2 6.23-5.86 10.65-6.77 22.7.74 34.42 26.92 56.04 30.8"/><path fill="#00b6f1" stroke="#fff" stroke-width=".35904" stroke-miterlimit="3.864" d="M106.1 561.98l-9.16 26.38c-11.36-5.5-21.98-15.18-26.56-27.47-.2-2.57-.2-5.34 1.45-7.34 7.16-3.5 15.04 0 21.8 1.64 4.4 1.84 8.8 4.4 12.48 6.78z"/><path fill="#00b6f1" stroke="#fff" stroke-width=".35904" stroke-miterlimit="3.864" d="M61.57 581.77c16.5 20.34 41.05 27.48 64.13 35.18-.54 6.76-3.67 13.37-5.13 20.15-3.3 10.8-6.78 21.4-10.26 32.06-2.2 1.64 0 8.23-4.93 5.68-21.82-7.14-42.5-17.6-59.72-35-7.52-8.42-14.5-18.85-10.46-30.24 3.86-14.46 10.62-27.83 14.84-42.32l1.65-2.9c2.18 6.22 5.67 12.26 9.87 17.4z"/><path fill="#00b6f1" stroke="#00b6f1" stroke-width=".35904" stroke-miterlimit="3.864" d="M161.8 623.35c-4.6-1.8-10.46-4.94-12.1-9.16 4.77 1.47 8.6 5.67 12.1 9.15z"/><path fill="#00b6f1" stroke="#00b6f1" stroke-width=".35904" stroke-miterlimit="3.864" d="M212.9 627.2c0 2.2-2.74.55-3.84 1.47-5.13-1.1-11.9-1.64-16.33-5.32 7.16.36 14.32.36 20.17 3.85z"/><path fill="#00b6f1" stroke="#00b6f1" stroke-width=".35904" stroke-miterlimit="3.864" d="M227.75 642.4c-.74 1.65 0 4.22-1.84 4.96l-8.8-2.57c3.5-1.1 7.16-1.47 10.65-2.4z"/><path fill="#f0b83d" d="M104.63 546.78c5.68 2.93 12.1 4.4 16.85 9.52-1.3 8.07-5.3 14.85-7.33 22.54-2.55 4.94-2.74 10.8-5.68 15.58-2.36-.38-4.75-2.03-6.4-3.12.55-4.6 2.75-9.9 3.66-14.47 2.02-4.58 4.22-9.17 5.32-14.1 1.1-3.85-3.3-5.33-5.68-6.8-9.9-5.67-22.18-9.53-33.54-8.4-2.74.73-5.5 3.1-6.4 5.67-2.2 16.85 13.73 28.57 25.83 37.36 11.53 6.97 23.63 11.9 36.26 16.13.93 1.26 0 3.47-.72 4.93-14.84-2.93-28.76-8.6-41.6-16.5-16.1-8.97-31.32-25.46-28.57-44.13 1.1-6.06 6.97-11.2 13-12.3 12.28-.16 24.2 4.24 35 8.08"/><path fill="#231f20" d="M130.96 697.77c3.2.9 4.78 1.1 6.15-2.26l9.77-24.15c-1.44-4.66-2.2-5.15-2.86-5.42l.52-1.27 10.75 4.35 8.9 28.92.1.02 6.25-15.44c1.22-3.06 1.3-4.98-2.7-6.96l.5-1.25 10.96 4.4-.5 1.27c-3.87-1-4.65.04-5.64 2.5l-12.13 30-1.42-.6-11.5-36.78-.12-.05-8.23 20.4c-1.48 3.67-.8 5.07 2.8 7l-.5 1.28-11.57-4.67.5-1.3"/><path fill="#231f20" d="M179.7 679.04l30.16 9.8-3.4 10.52-1.3-.43c1.2-7.83-2.08-10.32-9.13-12.62-2.9-.92-3.9-1-4.63 1.2l-3.95 12.15c5 1.67 8.13 1.18 11.03-5.05l1.35.45-5.74 17.67-1.4-.44c1.5-6.74-.64-9.16-5.82-10.85l-4.1 12.65c-.75 2.3.05 3.25 3.43 4.35 5.14 1.66 10.9 2.04 16.78-4.78l1.45.47-5.6 10.2-30.6-9.93.43-1.32c3.08.66 4.75 1.02 5.8-2.24l8.22-25.27c1.12-3.47-1.03-4.3-3.4-5.22l.42-1.3"/><path fill="#231f20" d="M262.23 702.93c-1.9-.28-3.38.73-4.5 2.57l-18.14 29.78-1.44-.36-3.23-27.14-.36-.06-15.54 22.8-1.5-.35-3.9-34.87c-.33-2.8-.75-3.42-2.9-4.26l.3-1.36 15.75 3.64-.32 1.35c-1.97-.3-3.5-.53-3.95 1.46-.12.57-.1 1.2 0 1.85l1.9 20.8.1.03 10.05-14.88-.7-5.58c-.42-1.33-.9-2.07-3.42-2.76l.3-1.33 16.72 3.84-.32 1.34c-2.34-.38-3.9-.68-4.33 1.14-.14.63 0 2.03.07 3.13l1.62 19.14.1.04 10.14-16.83c.3-.5.65-1.03.9-2.17.5-2.2-1.35-2.7-3.16-3.2l.3-1.34 9.77 2.25-.32 1.33"/><path fill="#231f20" d="M291.42 736.7c-4.67 3.88-9.44 6.62-16.4 5.53-12.64-2-18.07-12-16.46-22.14 1.75-11.03 10.9-18.25 22.3-16.46 4.88.78 8.66 4.1 10.05 4.33 1.47.23 2.14-.82 2.9-2.1l1.48.22-2.02 12.7-1.36-.23c-1.16-5-4.7-12.08-10.9-13.07-7.9-1.24-11.35 6.72-12.8 15.88-.52 3.28-1 8.53.43 12.3 1.67 4.3 5.83 5.78 7.52 6.05 4.22.68 8.55-.3 13.85-4.64l1.42 1.6"/><path fill="#231f20" d="M325.95 748.35l-17.68-2.2.17-1.35c3.42.15 4.4.2 4.62-1.58.17-1.46-1.07-5.72-1.62-7.56l-12.27-1.5c-2 3.74-3.15 5.85-3.28 6.74-.26 2.06 2.34 2.55 4.2 2.87l-.2 1.37-11.06-1.35.17-1.38c3.03-.07 4-1.82 6.13-5.7l15.8-28.43 1.52.18 8.64 30.2c1.72 6.12 2.38 8.1 5 8.3l-.15 1.37zm-15.06-14.93L307 719.5l-6.75 12.63 10.64 1.3"/><path fill="#231f20" d="M352.96 723.8c-.72-3.92-3.57-10.44-10.04-10.9-2.87-.2-6 1.24-6.25 4.8-.2 2.96.76 4.23 5.22 6.87l7.76 4.56c1.8 1.06 5.75 4.52 5.32 10.52-.33 4.8-4.3 11.2-14.4 10.5-5.22-.4-7.54-2.4-9.25-2.54-1.14-.07-1.5.9-1.77 1.76l-1.6-.1.96-13.54 1.6.1c.7 5.62 3.45 12.02 10.4 12.53 6.6.44 7.24-4.94 7.28-5.66.28-3.68-2.2-5.18-5.66-7.13l-3.54-2c-9.08-5.18-8.75-9.9-8.58-12.4.26-3.34 2.47-10.68 12.88-9.95 4.4.3 6.85 2.3 8.43 2.4 1.27.1 1.58-.7 1.94-1.74l1.65.13-.82 11.9-1.54-.1"/><path fill="#231f20" d="M383.1 751.4l-19.6-.7.04-1.38c4.03-.2 5.34-.25 5.5-4.88l1.02-28.93c-3.84.1-9.52.18-10.94 8.92l-1.58-.06.55-11.02 32.95 1.16-.27 11.04-1.6-.06c-.8-8.83-6.45-9.3-10.23-9.65l-1 28.95c-.18 4.65 1.15 4.82 5.2 5.22l-.06 1.4"/><path fill="#231f20" d="M424.38 751.75h-31.76v-1.37c3.08-.38 4.73-.55 4.73-3.9v-26.6c0-3.63-2.26-3.73-4.73-3.88v-1.4h19.17v1.4c-3.85.15-5.54.2-5.54 5.04v25.92c0 2.64 1.2 3.08 4.88 3.08 8.3 0 11.38-4.56 13.9-10.75h1.6l-2.26 12.45"/><path fill="#231f20" d="M425.52 714.52l31.65-1.65.6 11.03-1.38.08c-1.68-7.75-5.67-8.9-13.06-8.53-3.02.17-4 .44-3.88 2.8l.67 12.72c5.28-.2 8-1.77 8.47-8.64l1.4-.06 1 18.54-1.43.07c-1-6.82-3.9-8.32-9.33-8.02l.7 13.26c.12 2.44 1.2 3.05 4.74 2.84 5.4-.25 10.92-1.98 13.94-10.45l1.54-.1-1.6 11.53-32.1 1.67-.08-1.35c3.12-.5 4.8-.76 4.64-4.16l-1.4-26.55c-.18-3.64-2.5-3.62-5.04-3.66l-.06-1.38"/><path fill="#231f20" d="M508.2 709.6c-2.96.74-4.17 1.48-3.8 5.1l1.85 17.43c.34 3.2.1 8.17-1.94 10.86-2.42 3.24-7.07 4.78-10.36 5.1-2.4.25-7.56.46-11.45-2.26-2.56-1.84-4.2-3.6-4.82-9.5l-1.92-18.25c-.5-4.62-1.9-4.57-5-4.57l-.16-1.36 18.48-1.94.15 1.35c-3.6.55-5.28.78-4.77 5.6l1.92 18.25c.32 3.12 1.12 10.64 8.97 9.82 9.63-1 8.87-9.38 8.5-12.87l-1.76-16.68c-.35-3.34-1.2-5.1-5.92-4.86l-.15-1.35 12.02-1.25.14 1.35"/><path fill="#231f20" d="M513.7 743.28c3.2-.9 4.65-1.52 4.1-5.1l-4.1-25.73c-3.63-3.27-4.5-3.3-5.2-3.17l-.24-1.37 11.46-1.8 22.52 20.2.08-.02-2.6-16.45c-.5-3.25-1.45-4.94-5.9-4.58l-.2-1.35 11.66-1.84.2 1.35c-3.8 1.1-3.94 2.42-3.52 5.02L547 740.4l-1.5.22-28.82-25.57-.1.02 3.44 21.7c.6 3.9 1.92 4.76 6 4.55l.2 1.37-12.3 1.93-.2-1.35"/><path fill="#231f20" d="M572.03 733.84l-18.8 4-.3-1.34c2.84-.88 4.9-1.56 4.2-4.88l-5.54-26c-.77-3.56-3.32-3.14-5.84-2.78l-.27-1.33 18.8-4 .28 1.35c-2.5.63-5.07 1.25-4.3 4.9l5.55 26.02c.73 3.44 2.9 3.14 5.9 2.72l.3 1.34"/><path fill="#231f20" d="M600.3 726.47l-18.95 5.1-.34-1.34c3.8-1.37 5.04-1.82 3.85-6.27l-7.52-27.98c-3.65 1.2-9.06 2.95-7.83 11.72l-1.54.4-2.68-10.7 31.84-8.54 2.96 10.64-1.54.43c-3.34-8.22-8.87-7-12.6-6.25l7.5 27.98c1.2 4.52 2.52 4.26 6.5 3.48l.37 1.33"/><path fill="#231f20" d="M599.34 688.2l29.97-10.3 3.62 10.45-1.3.43c-3.75-6.95-7.87-7-14.88-4.6-2.87 1-3.74 1.53-2.98 3.77l4.16 12.06c5-1.66 7.2-3.92 5.77-10.63l1.34-.47 6.04 17.57-1.35.47c-2.87-6.27-6.04-6.93-11.2-5.16l4.33 12.57c.8 2.3 2 2.58 5.37 1.4 5.1-1.74 9.95-4.93 10.52-13.9l1.43-.5 1.65 11.54-30.4 10.45-.43-1.3c2.83-1.32 4.4-2.04 3.3-5.27l-8.67-25.15c-1.18-3.42-3.42-2.77-5.85-2.1l-.44-1.32"/><path fill="#231f20" d="M646.54 709.37c3.17-1.42 3.5-3.32 2.68-5.16l-11.02-24.76c-1.35-3.06-3.6-2.17-5.66-1.5l-.57-1.26 15.33-6.8c14.06-6.28 22.5.42 25.95 8.15 4.1 9.25 2.18 19.5-10.28 25.53l-15.88 7.07-.56-1.26zm10.77-8.9c.92 2 1.76 2.7 4.17 1.65 5.62-2.5 8.6-7.68 3.27-19.68-2.05-4.58-7.94-14.76-16.58-10.92-3.23 1.44-2.6 2.66-2.07 3.76l11.2 25.2"/><path fill="#231f20" d="M218.22 233.32c2-2 4.94-2 7.3-.7 2.76 2.18 4.78 6.03 6.43 9.13-4.03-.17-9.7 2.4-13.37-.72-3.3-3.3-7.33-4.4-11.36-6.06-.17-.55-.74-1.46 0-2 1.1-1.46 2.94-1.46 4.94-1.46 2.03.73 3.68 3.47 6.06 1.82"/><path fill="#231f20" d="M252.48 261.18c-.2.55-.93.74-.74 1.3 1.64-.2 3.84.16 5.32 1.1 2 2 .55 4.38.55 6.76-1.1 1.27-3.12.9-4.22.36-1.83-.9-1.64-2.93-3.1-4.03-.74.74-.2 2.93-1.84 2.55-1.64-2.55-3.3-5.1-4.22-8.04.93.2 2.77 1.46 4.22.36.9-1.1 2.2-2 3.66-2.2.74.38.38 1.3.38 1.84"/><path fill="#fff" d="M227.1 240.1l-3.77.47c-1.03.12-2.26-.2-3.3-1.27-.3-.27-.56-.76-.98-1 .48-.08.8-.16 1.18-.6 0 0 .4 2.1 2.68 2.1 1.62 0 2.38-1.7 2.38-1.7l1.83 2"/><path fill="#231f20" d="M565.93 260.82H567c-.7 2.37-3.1 4.94-3.84 7.7-1.83.54-1.83-1.66-2.2-2.76-1.26 1.65-1.64 4.04-3.84 4.94-1.45.36-2.74 0-3.84-1.1.72-2.38-1.65-6.4 2-7.13.92-.2 1.84-.55 2.94-.38l.9.73c.58-.9-.7-2.2-.54-3.5 3.3-1.45 4.42 4.6 7.35 1.5"/><path fill="#fff" d="M582.87 239.9s1.62.86 2.85.82c1.18-.05 3.17-.34 4.24-1.38.34-.25.62-.72 1.04-1-.5-.07-.8-.16-1.16-.6 0 0-.47 2.07-2.77 2-1.58-.06-2.3-1.8-2.3-1.8l-1.9 1.95"/><path fill="#bbbdbf" d="M224.26 331.33c-1.64-1.64-4.03-2.55-5.68-3.84 2.2.92 4.4 2.2 5.68 3.83"/><path fill="#f0b83d" d="M205.2 210.24v1.84c-13.9 3.84-29.32 14.85-33.52 29.67-6.23 17.6-5.5 41.22 5.32 56.8.55 3.47-.55 5.7-2.93 7.34-3.5 1.25-8.26.9-11.18-1.1-.9-.2-2.22 0-2.22 1.1.57 4.2 5.5 4 8.8 4.93 5.87 0 11.17-3.5 14.1-8.45 1.3 1.86.18 3.5 0 5.32-3.12 6.6-11.7 3.3-16.48 5.68 2.2 4.78 7.87 2.56 11.55 2.75 8.04-2 10.62-14.1 20.14-11.72-7.88 3.5-4.04 15.76-14.47 15.57-2.58 0-5.32-1.8-7.33.38 2.75 2.75 7.14 4.2 11.53 3.1 7.9-2.55 10.26-15.75 20.9-11.9.9.38 1.63 1.1 2.73 1.1-4.2 0-8.78 0-12.63 2.76-3.48 3.1-4.22 10.08-10.26 9.53-2 .9-5.13-2.02-5.68 1.1 1.45 2.75 7.32 1.46 5.3 5.68 4.4 3.67 11.18 1.47 15.93.37l.38.55c2.57-.74 4.96-1.84 7.7-2.03 4.2.92 9.34 1.66 11.36 6.4l.55 2.04c-5.67-3.67-14.3-5.87-20.32-2.74-4.95.16-8.05-.93-12.46-2.22-1.1.38-1.1 1.67-.36 2.22 8.6 10.98 32.4 3.46 28.95 23.63-1.3 2.55-3.12 5.5-5.86 6.6 1.65-2.95 2-6.6 1.3-9.9-3.33-9.54-13.76-9.35-20.37-15.03-.72 0-1.27.2-1.82.9-.74 2.94 2.92 4.04 4.6 5.33 4.57 2.38 11.16 2.38 13.35 8.8.2 2 1.1 5.1-.74 6.78-.16-4.57-4.2-9.9-9.16-12.64-6.95-2.03-12.27-7.88-13.73-15.2-5.5-12.27-20.14-13.56-27.5-24.37-4.58-10.28 1.13-19.8 7.36-27.5 0-.92-.2-2.18-1.3-2.18-6.96 2.93-6.77 12.8-14.46 14.82 3.65-7.86 2.56-20.32 13-22.9.37-.73.92-1.28.73-2.38-3.1-2.36-6.6 1.3-9.53 2.77-1.47 1.1-2.55 3.1-4.2 3.46 1.82-4.2 5.68-9.34 10.26-10.63.9-.55 1.27-1.65 1.63-2.4-1.82-1.63-3.84 0-5.85 0l-8.6 5.33c-.55-7.32 8.8-9.7 12.45-15.56-2.93-1.3-6.06 2-9.16 3.1l-4.2 1.1c.16-1.83 2.54-3.84 3.83-5.68 2.94-1.8 6.42-2.55 9.52-3.84.38-1.1-.54-1.65-1.1-2.4h-1.83c1.65-1.28 5.13-.35 6.04-2.18-2.37-1.84-5.3-2.94-8.4-2 0-.2 4.2-.56 3.46-3.33-.9-.7-1.65-2-2.75-2.35v-.74c4.58-1.1 8.24 2.95 11.9 4.6.56-.37.75-1.1.75-1.84-1.48-3.5-5.13-4.95-8.07-6.95 2.75-1.1 5.33 2 8.07 3.1 2.4-5.12-4.77-6.03-6.42-10.25 4.23-2.4 6.97 3.84 10.62 4.94 1.46-.56.55-2.2.38-3.1-1.66-3.12-4.58-4.6-6.42-7.7 3.85-.93 5.7 4.4 9.53 5.85.75-1.1 0-3.3-.9-4.58-2.2-1.65-3.3-4.4-4.94-6.6 4.75-.35 7.3 4.6 11.17 6.05.2-4.6-5.13-8.05-4.22-13.56 5.88.2 6.24 7.33 10.63 9.54.74-4.58-2.56-8.44-3.1-13.02 1.8-1.1 3.84 1.47 5.87 2.2 2.17 2.57 1.26 9.35 6.04 7.34-1.48-4.03-2.4-9.35.7-13 .94 4.03 2.4 8.78 6.07 11.52"/><path fill="#f0b83d" d="M218.94 323.46c.2.38-.9-.17-2.2 0-3.48-.9-7.5.54-10.98 2.2-2.93 1.47-5.68 4.03-8.8 3.12 5.5-3.1 9.52-11.53 18.7-7.7l3.28 2.38"/><path fill="#f0b83d" d="M206.12 360.3c.55 2.56.55 5.84-2 6.95-1.1.9-2.22 1.27-3.87 1.1-.72-4.03-.36-8.8 2.77-11.36 1.65.16 2.36 2 3.1 3.3"/><path fill="#bbbdbf" d="M203.38 419.08c9.33 6.06 19.78 11 31.3 11 8.27 2.56 17.97.2 25.86-.74-2.4 7.52-9 13-16.32 14.85-15.56 2.37-31.5.18-44.33-8.44-5.33-4.75-13.2-9.33-10.63-17.78 1.65-2 1.46-7.3 4.94-6.2 2.76 3.1 5.7 5.84 9.18 7.3"/><path fill="#bbbdbf" d="M244.22 448.4l4.94-1.83c0 3.3-4.2 5.68-5.68 8.8-9.33 5.86-21.4 6.77-32.78 4.57-11-2.38-23.08-6.42-28.2-17.23-1.85-5.1 1.1-10.06 4.02-14.1 15.02 17.04 36.45 22.92 57.7 19.8"/><path fill="#bbbdbf" d="M227.75 464.52c2-.74 4.75-.35 6.6-.54.54-.2.15-.93 1.08-.74h1.1c-3.3 7.87-10.62 13-19.05 13.38-13.9.55-26.94-3.48-37.38-12.64-1.83-3.5-6.22-6.6-4.58-11.37 1.65-2 1.12-4.93 3.5-6.77 12.28 14.1 29.85 22.35 48.73 18.7"/><path fill="#bbbdbf" d="M173.33 460.68c12.1 15.75 30.6 21.44 49.83 19.05-4.03 7.7-11.72 11.17-20.14 10.62-12.1-.17-25.85-5.66-32.08-17.2-3.65-4.4.74-7.9 1.48-12.47h.9"/><path fill="#bbbdbf" d="M211.06 494.2c-3.65 6.22-9.33 8.42-15.75 9.52-12.26.57-24.36-4.56-30.04-15.56-1.46-4.6.93-9.36 2.22-13.75 8.6 16.14 26 21.63 43.58 19.8"/><path fill="#bbbdbf" d="M199.15 507.2c-3.84 8.62-13.72 6.78-22.15 6.42-6.97-1.47-14.3-6.6-15.94-13.74.74-2.56 0-5.88 1.83-8.07 8.04 12.66 22.9 17.05 36.25 15.4"/><path fill="#bbbdbf" d="M190.73 518.2c-.72 2.2-2.4 4.76-4.94 5.3-6.24 2.4-14.3 1.65-20.54-.35-2.18-1.48-5.13-3.13-6.04-5.68-.9-3.5-.17-7.14.74-10.27 7.14 10.08 19.24 11.56 30.77 11"/><path fill="#bbbdbf" d="M185.43 528.47c0 2.36-1.1 4.2-2.94 5.66-4.95 1.65-12.1 3.67-17.6 1.3-2.56-.56-3.84-2.76-5.32-4.6v-7.32c7.16 5.14 17.06 6.24 25.85 4.97"/><path fill="#bbbdbf" d="M183.23 538.35c.2 2.56-.2 5.13-2.77 6.23-5.66 2.56-12.43 3.5-17.57-.9-1.84-1.48-1.1-4.04-1.84-6.07 6.6 3.12 15.2 4.05 22.17.75"/><path fill="#bbbdbf" d="M183.6 549.88c.9 2.58-1.85 3.68-1.66 6.04-2.38 1.67-4.77 3.87-7.87 3.5-1.3-.37-3.3-.54-4.95-.73-1.47-3.3-3.67-6.07-4.22-9.73 5.68 2.94 12.1 1.46 17.97-.35l.72 1.26"/><path fill="#bbbdbf" d="M188.53 565.1c1.1 4.95-6.6 3.1-4.2 7.15 2.93.93 4.58-1.1 6.4-2.58v-.72c4.58.9 7.87 5.85 12.65 5.3.74-.36.36-1.26.36-2-3.66-2.03-7.7-4.4-10.25-8.26-.77-1.47-2.4-2.57-2.4-4.2 11 5.67 25.45 3.64 34.43 13.38.57 1.8 2.03 4.56.38 6.4-8.42 7.5-19.6 3.46-29.3 1.83-9.72-3.83-18.88-10.63-24.92-19.42 4.2 1.3 9.7 0 12.65-3.3 2.55.92 2.74 4.23 4.2 6.4"/><path fill="#bbbdbf" d="M144.75 457.2l.36-.38c-2-4.76-10.06-6.6-6.94-13 3.83-4.38 8.6-.92 13.73-1.47 4.2 1.3 9.16.74 13.36 1.84-1.82 4.93-7.86 5.48-10.98 8.77.36 4.04 6.4 5.5 4.94 10.27-2.72-1.2-11.45-5.07-14.47-6.04"/><path fill="#bbbdbf" d="M219.85 198.7c-.17 3.67-.9 6.4-2 9.18-.37.72.73-1.84-.75-1.48-1.07-.55-2 .74-2.36 1.48-.93-3.13 2.9-6.06 4.2-9.17h.9"/><path fill="#bbbdbf" d="M228.1 207.5c.9 2.57-.54 4.94-2.2 6.78v-2.56h-2.74c1.27-1.48 2.75-4.03 4.95-4.22"/><path fill="#f0b83d" d="M129.74 375.3c-.93 18.33 1.46 35.73 14.1 49.48 4.57 4.75 9.15 9.14 14.47 13-7.15.54-15.74-2.93-22.7 1.47-2.2 2.38-2.2 6.23-1.66 9.14 2.75 4.4 6.4 6.98 10.8 8.8 2.04.14 10.97 3.76 14.48 6.04-12.27-3.5-29.12-5.14-40.48 1.66-10.08 6.04-12.27 17.57-11.37 27.84 1.65 9.52 7.16 17.6 7.16 27.66-5.7-8.44-18.7-11.55-20.9-22.72.2-6.23-1.46-11.72-4.56-16.5 1.1-4.94 2.2-10.07 3.3-15.18.18-1.3-.2-2.38-1.1-3.12h-.4v-1.1c2.95-8.26 8.82-17.4 18.7-17.95 3.3-4.04-4-4.23-5.3-7.16-2.2-2.37-2.75-5.3-4.22-8.07 3.3-2.72 8.06-4.37 12.27-2.72.74.36 1.47 1.1 2.57.9 1.83-.9.73-2.38.35-3.48-8.97-5.68-11.53-17.2-10.62-27.1 3.84-4.77 0-12.28 2.4-18.32.34-.74 1.25 1.1 2.54.36 2.58-6.97 5.5-13.92 9.17-20.53l1.1-.35c0 .93.35 1.65 1.28 2.2h1.46l9.9-10.27c1.65 8.43-2.93 16.86-2.74 26.02"/><path fill="#f0b83d" d="M175.16 435.02l-1.83 4.58c1.83-6.42-8.98-14.46 1.47-17.4 2.56-1.64 3.85-4.4 4.95-6.97 2.36-6.04-8.98-11.72 0-15.2 5.5-5.13 7.13-13.73 4.58-20.15-1.1-.9-.74-2.57-1.84-3.46 3.48-2.4 6.22-5.5 9.16-8.8.36 24.9-6.97 46.7-16.5 67.4"/><path fill="#231f20" d="M127.16 359.93c-.55 12.27-5.68 24.73-1.46 37.73.9 9.15 4.6 17.03 8.6 24.9.38 1.3-.36 2.4-1.46 2.58-2.93.36-3.3-2.94-4.58-4.58-8.24-18.5-8.97-41.04-2.2-60.63h1.1"/><path fill="#231f20" d="M113.8 390.5v1.12c-.55 0-1.3.36-1.48-.38-.17-.73 0-1.45.74-1.83.2.56.92.2.73 1.1"/><path fill="#231f20" d="M114.15 394.73c2.03 10.98 4.95 21.62 13.37 30.05.38 1.1-.72 2-1.46 2.37-3.48-.36-5.13-4.2-6.96-6.6-4.57-7.7-6.04-16.85-6.78-26.18.74-.74 1.12 0 1.83.36"/><path fill="#231f20" d="M113.06 451.52c0 2.93-2.94 2.57-4.23 4.94-8.04 6.97-10.43 17.04-11.9 27.1h-.73c-2-13.9 3.68-26 14.47-33.14 1.1-.36 1.65.55 2.4 1.1"/><path fill="#231f20" d="M110.3 470.2c-10.6 14.1-1.47 30.06 1.3 44.52-2.03-.36-2.4-2.93-3.13-4.58-4.94-13-11.34-31.87 0-44.14 1.84-1.48 3.13-3.86 5.32-4.58 3.84 3.65-2.75 5.66-3.5 8.78"/><path fill="#bbbdbf" d="M345.9 347.1c-.55-.56-1.83-1.83-1.45-3.12.54.9 1.26 2 1.45 3.1"/><path fill="#bbbdbf" d="M466.44 347.1c-.9-.56-.2-2.02.74-2.76-.2.93-.38 2-.74 2.75"/><path fill="#bbbdbf" d="M235.05 483.57c1.3 5.87 3.68 12.46 2.22 18.7.55.35.9.9 1.63.73 3.86-4.96 2.02-12.27 1.48-17.6 6.77 8.25 7.5 19.8 8.06 30.42.36.9 1.1.9 1.84.55 3.82-4.4.36-10.62 1.46-16.1 5.5 8.03 5.32 19.75 4.58 28.92.55.37.9 1.1 1.65.73 1.3-1.3 2.02-2.94 2.2-4.95 1.83 9.34.37 19.96-3.1 29.13 1.62-25.63-15.77-47.45-36.46-61.36.37-2.56 2.92-5.68 5.67-6.97.55 2.93-1.46 6.97 1.1 8.8 4.4-4.22-1.27-13.74 4.94-16.5l2.75 5.5"/><path fill="#bbbdbf" d="M585.34 493.48c2-2.75-.74-5.87.74-8.8 2.38 1.64 4.75 3.67 5.66 6.4-20.7 14.67-38.1 35.9-36.45 62.12-3.5-7.9-4.95-19.24-3.12-30.05.36 2.2.72 4.58 2.75 5.68 3.1-1.84-1.3-6.42.74-9.9 0-6.97.53-14.64 5.3-20.15 0 5.87-2 12.46 1.48 16.68.9.36 1.64-.38 2-1.1-1.3-10.26 1.1-21.07 7.14-29.3.35 5.84-2.75 12.8 2.74 16.65l.73-.73c-.54-8.42 0-17.6 5.33-24 5.68 4.03-.2 12.64 4.94 16.5"/><path fill="#fff" d="M270.43 503.36l-2.2-.36c2.2-1.84 5.85-1.1 8.43-3.12 3.12-2.75 4.2-6.4 7.13-9.53-3.13 5.32-6.43 12.46-13.37 13"/><path fill="#fff" d="M278.47 507.2c-2.2-2.36 2.2-3.48 3.13-5.85.2 2.56-2.56 3.66-3.13 5.85"/><path fill="#fff" d="M278.1 513.62c3.7-3.48 6.8-8.42 8.82-13.36.17 5.3-4.77 10.07-8.8 13.36"/><path fill="#fff" d="M534.23 507.2c-1.48-2.36-3.3-4.58-4.22-7.32.94 2.93 6.6 3.48 4.23 7.32"/><path fill="#fff" d="M539.53 507.94v1.46c-.55.2-.7-.36-1.1-.74v-1.46c.55-.17.74.38 1.1.74"/><path fill="#fff" d="M273.17 510.52c-.93-.38 0-1.48.36-2.22h.74l-1.1 2.22"/><path fill="#231f20" fill-rule="evenodd" d="M293.47 362.2c1.12.54-1-2.06-.93-3.43.06-1.36-1.38 2.85-1.38 2.85s1.2.04 2.3.6"/><path fill="#fff" fill-rule="evenodd" d="M356.14 144.67c.2 10.07-.16 21.6-.35 31.13-.37.74-1.1.38-1.83.38-.55-11.55-.55-21.98 0-32.8.9 0 2.17.2 2.17 1.3"/><path fill="#fff" fill-rule="evenodd" d="M241.47 278.75s4.54.46 6.13 2.58c1.6 2.13 5.9 8.7 11.47 5.85 0 0 1.66 2.85-3.5 2.85-4.95 0-7.78-3.74-9.2-6.2-1.4-2.5-3.2-3.3-4.52-3.6l-.38-1.48"/><path fill="#fff" fill-rule="evenodd" d="M569.75 278.4s-1.58 3.14-4.1 4.2c-2.55 1.05-2.23 2.72-2.5 3.12 0 0-4.12 4.12-7.67 4.12-3.57 0-3.1-.5-3.38-1.76-.3-1.26 1.24-1.6 2.13-1.07.9.53 3.02 1.78 6.04-2.3 3-4.07 7.8-6.75 9.48-6.3"/><path fill="#f0b83d" d="M311.65 388.86c8.97 33.53-4.03 65.04-11.9 95.83 1.26-6.8 2.37-14.85 2-22.18-4.04-11.74 4.4-22.73-.74-33.54.4-4.75-2.17-9.35-5.65-13-.38-8.24 1.07-17.4-4.23-23.64-2.93.36-6.78 1.3-9.16-.72 2.02-8.44 4.96-16.32 7.52-24.37 11.17 1.27 19.23 11.73 22.17 21.6"/><path fill="#fff" fill-rule="evenodd" d="M363.85 44.28c1.3 1.64.9 4.4.38 6.23-.93 1.1-1.83 1.65-2.95 1.84.55-2.38 2.2-4.58 1.12-7.16-2.03-2.36-4.4-5.5-7.7-5.5-3.12.37-5.86 2.4-7.5 4.95-2.94 4.6 1.8 8.26 2.2 11.92-2.2-1.1-3.86-2.75-4.95-4.95-.93-3.3-.38-6.78 1.45-9.52 4.04-2.2 8.98-5.68 13.75-2.75 1.82 1.65 3.1 3.1 4.2 4.95"/><path fill="#fff" fill-rule="evenodd" d="M356.7 48.48l-.9 4.96c.34 20.5 1.08 40.3.9 61.35-.9.92-1.08 2.92-2.73 2.76-.2-25.47-1.48-47.46-.38-70.54 1.28 0 3.1-.2 3.1 1.46"/><path fill="#f0b83d" d="M158.86 485.77c-1.46-3.3-1.84-6.78-4.22-9.53 4.58-2.2 9.52-6.96 9.52-12.62.38-3.5-2-6.06-3.1-9.17 2.93-3.12 7.32-5.13 9.88-9.16-5.3 13-8.05 27.46-12.08 40.47"/><path fill="#f0b83d" d="M155.73 504.84c-1.1 0-2.74-3.13-4.2-4.23 1.84-1.63 4.2-4.38 5.68-6.76-.35 3.65-.35 7.68-1.47 11"/><path fill="#f0b83d" d="M539.9 516.73c1.66 2.38 1.66 6.78 1.66 9.9 2.4 30.77-10.62 57.9-36.64 73.1-32.63 23.8-70.72 38.28-98 70.88l-1.1.37c-15.4-19.76-37.93-32.4-57.9-45.6-7.34-3.12-13.57-8.06-20.7-11.54-4.4-3.3-9.53-5.32-13.73-9.17-26.22-14.82-43.26-38.28-42.7-68.5 1.44-5.33-1.28-12.82.9-17.6 2.2-1.28 5.5.93 8.25-.35l1.65-.73c.36 1.3-1.3 3.65 1.1 4.94 2.93.2 5.32-.73 8.06-1.64-3.3 31.15 12.08 57.9 38.84 72.18 26.38 14.66 54.23 27.48 76.57 50.75 3.47.18 3.47-3.85 5.68-5.5 25.47-24.73 58.44-35 85.74-55.88 18.3-15.94 26.73-38.3 23.8-62.3 3.3 0 7.32 3.5 9.9 0l-1.3-4.2c2.75 2.4 6.98 2.55 9.9.9"/><path fill="#fff" d="M347.93 386.66s25.5-4.28 33.87-8.78v236.7s-.48 1.4-4.03-1.43c-3.53-2.85-30.22-17.27-30.22-17.27l.38-209.22"/><path fill="#fff" d="M429.9 377.88s13.12 5.07 20.24 6.14c7.08 1.06 12.93 1.82 13.56 3.74v208.67s-30.1 16.8-33.54 19.4l-.25-237.95"/><path fill="#fff" d="M355.4 194.9l.28 100.95-1.14 9s-1.12-15.16-1.12-23.33c0-8.16 0-84.1 0-84.1s0-2.53 2-2.53"/></g></g></svg>