<svg version="1.1" xmlns="http://www.w3.org/2000/svg"  xmlns:xlink="http://www.w3.org/1999/xlink" height="276.27" width="209.12" viewBox="0 0 209.117 276.27">
<title>Northampton Town FC</title>
<defs><rect id="XMLID_1_" width="209.12" height="276.27"/></defs>
<clipPath id="XMLID_3_"><use xlink:href="#XMLID_1_"/></clipPath>
<g clip-path="url(#XMLID_3_)">
<path d="M0.016,193.19v-193.19l208.59,0.488-0.496,192.7h-208.09" fill="#871A3C"/>
<path d="M13.551,213.08c1.098,1.211,1.996,2.547,2.832,3.926,0.254-0.105,0.492-0.215,0.758-0.316,12.875-4.883,21.539,0.172,42.758,18.945,19.277,17.055,40.563,17.344,44.691,17.23,4.074,0.113,25.352-0.176,44.633-17.23,21.211-18.773,29.879-23.828,42.754-18.945,0.094,0.031,0.172,0.07,0.258,0.105,0.805-1.301,1.664-2.563,2.707-3.715,2.121-2.344,4.621-4.609,6.746-6.965,3.645-4.043,9.637-12.777,4.164-17.422-7.039-5.973-18.07-1.402-26.184-2.227-9.594-0.977-18.438-5.281-27.867-7.016-14.969-2.754-31.859-4.535-47.551-2.98-15.699-1.555-32.59,0.227-47.563,2.98-9.426,1.734-18.27,6.039-27.863,7.016-8.117,0.824-19.145-3.746-26.184,2.227-5.473,4.645,0.52,13.379,4.164,17.422,2.126,2.35,4.626,4.62,6.747,6.96" fill="#69B25A"/>
<path d="M173.73,203.38c-6.566-8.754-15.246-8.645-19.504-7.926-1.453-1.816-6.219-6.82-14.57-6.82-0.219,0-0.43,0.008-0.641,0.016-3.086-11.277-4.43-39.035-4.656-44.211h2.836v-8.969h-9.34v-6.508l-0.18-0.227-1.211-1.516-0.105-0.141,2.047-1.594v-47.488h-2.199c-0.734-3.5-2.324-10.313-4.172-13.559,1.074-1.617,5.109-8.258,4.613-16.313l-0.039-0.641h-4.555v-10.756l1.805-1.797,0.102-0.105v-2.531h-3.477v1.559h-0.738v-1.559h-3.477v1.559h-0.738v-1.559h-3.477v2.531l0.109,0.105,2.156,2.156v10.398h-5.375v-18.257l3.125-3.125,0.156-0.16v-3.793h-2.793v2.336h-0.902v-2.32h-2.867v2.32h-2.469v-2.32h-2.867v2.32h-0.879v-2.336h-2.816v3.793l0.156,0.16,3.125,3.125v18.257h-5.375v-10.578l1.98-1.977,0.105-0.105v-2.531h-3.48v1.559h-0.73v-1.559h-3.477v1.559h-0.738v-1.559h-3.477v2.531l0.102,0.105,1.977,1.977v10.578h-4.555l-0.039,0.641c-0.492,8.055,3.539,14.695,4.613,16.313-1.844,3.246-3.43,10.059-4.168,13.559h-2.109v47.488l2.055,1.594-1.324,1.656-0.18,0.227v6.508h-9.34v8.969h2.836c-0.223,5.176-1.566,32.934-4.652,44.211-0.203-0.008-0.391-0.016-0.598-0.016-8.355,0-13.121,5.004-14.574,6.82-4.258-0.719-12.934-0.828-19.5,7.926l-0.574,0.762,0.953-0.063c0.078-0.008,8.07-0.516,13.059,1.059,2.289,0.723,3.477,1.738,4.52,2.637,0.992,0.848,1.891,1.594,3.395,1.789-0.801,3.273,0.773,7.809,7.871,10.008,5.477,1.699,9.789,1.82,13.027,1.355,0.492-1.77,1.738-3.512,4.363-4.41,0.227-0.102,1.012-0.414,2.293-0.461-0.379-0.664-0.875-1.492-1.52-2.414l0.121-0.047c-2.965-4.281-0.25-8.078,1.637-9.5,2.199-1.605,4.035-2.035,5.254-2.109,0.395-1.125,1.371-2.707,3.738-4.426,1.953-1.363,6.457-2.789,9.613,1.484,0.258,0.277,0.988,1.23,1.43,3.004,0.434-1.773,1.164-2.727,1.418-3.004,3.16-4.273,7.668-2.848,9.621-1.484,2.363,1.719,3.34,3.301,3.738,4.426,1.211,0.074,3.051,0.504,5.254,2.109,1.883,1.418,4.582,5.191,1.656,9.465l0.211,0.082c-0.645,0.93-1.148,1.754-1.523,2.422,1.215,0.063,1.969,0.359,2.18,0.453,2.625,0.898,3.867,2.629,4.367,4.398,3.246,0.477,7.598,0.375,13.141-1.344,7.094-2.199,8.672-6.734,7.871-10.008,1.504-0.195,2.402-0.941,3.395-1.789,1.043-0.898,2.23-1.914,4.52-2.637,4.984-1.574,12.98-1.066,13.059-1.059l0.949,0.063-0.58-0.77" fill="#231F20"/>
<path d="M125.57,128.73l0.645,0.805v5.934h-9.297l8.65-6.74" fill="#BAC1CA"/>
<path d="M82.734,129.53l0.645-0.805,8.656,6.738h-9.301v-5.929" fill="#BAC1CA"/>
<path d="M82.094,79.547v45.176s20.645,16.063,22.383,17.414c1.734-1.352,22.379-17.414,22.379-17.414v-45.173h-44.766" fill="#FFF"/>
<path d="M87.617,81.363v43.039l16.656,14.918,16.656-14.918v-43.037h-33.313" fill="#871A3C"/>
<path d="M98.82,103.84c-0.133,0.121-0.27,0.246-0.402,0.363-1.461,1.359-2.813,2.828-4.277,4.184-3.336,3.086-6.383,7.043-7.676,11.453-0.309,1.059-0.449,2.477,0.492,3.285,0.891,0.766,2.02,0.395,3.047,0.219,2.813-0.488,5.48-1.859,8.039-3.082,2.316-1.105,4.551-1.98,6.492-3.676,1.613-1.402,3.063-3.148,4.039-5.063,1.137-2.23,1.809-4.496,3.238-6.59,1.395-2.055,3.113-3.859,4.832-5.641,0.98-1.023,2.344-2.395,2.984-3.668,0.609-1.223,0.992-2.813,1.012-4.16,0.043-2.781-0.977-5.602-3.875-6.484-2.684-0.824-5.316,0.477-7.152,2.477-1.391,1.512-2.367,2.898-3.16,4.75-0.844,1.977-1.797,4.121-2.984,5.914-0.48,0.723-0.93,1.469-1.395,2.211-0.83,1.31-2.1,2.45-3.26,3.51" fill="#9B7431"/>
<path d="M104.54,116.59c-1.941,1.695-4.176,2.57-6.492,3.676-2.559,1.223-5.227,2.594-8.039,3.082-1.027,0.176-2.156,0.547-3.047-0.219-0.941-0.809-0.801-2.227-0.492-3.285,0.918-3.125,2.723-6.016,4.883-8.539-2.613,2.777-4.855,6.078-5.914,9.691-0.309,1.059-0.449,2.469,0.488,3.281,0.891,0.766,2.023,0.398,3.055,0.219,2.813-0.488,5.473-1.855,8.035-3.082,2.32-1.102,4.547-1.977,6.496-3.676,0.75-0.652,1.457-1.387,2.109-2.172-0.35,0.36-0.71,0.71-1.08,1.03" fill="#231F20"/>
<path d="M96.484,109.87c-0.305,0.309-0.293,0.805,0.016,1.105l4.008,3.902c0.313,0.297,0.805,0.293,1.102-0.02,0.305-0.309,0.301-0.801-0.012-1.105l-4.012-3.895c-0.315-0.3-0.807-0.29-1.104,0.01" fill="#871A3C"/>
<path d="M99.59,106.32c-0.293,0.313-0.273,0.813,0.039,1.105l4.059,3.777c0.316,0.301,0.809,0.281,1.102-0.039,0.293-0.313,0.281-0.805-0.039-1.102l-4.055-3.781c-0.32-0.29-0.813-0.28-1.11,0.04" fill="#871A3C"/>
<path d="M101.92,103.32c-0.285,0.324-0.254,0.816,0.07,1.102l3.895,3.453c0.324,0.285,0.816,0.258,1.105-0.066,0.285-0.324,0.254-0.816-0.07-1.098l-3.895-3.457c-0.32-0.27-0.81-0.24-1.1,0.08" fill="#871A3C"/>
<path d="M103.9,100.78c-0.27,0.336-0.223,0.832,0.117,1.102l4.008,3.23c0.336,0.273,0.832,0.219,1.098-0.117,0.273-0.336,0.219-0.832-0.117-1.098l-4.01-3.22c-0.34-0.27-0.83-0.22-1.1,0.11" fill="#871A3C"/>
<path d="M105.29,98.527c-0.223,0.363-0.113,0.848,0.254,1.07l4.121,2.566c0.367,0.23,0.844,0.117,1.074-0.25s0.117-0.848-0.25-1.074l-4.125-2.563c-0.36-0.23-0.84-0.117-1.07,0.25" fill="#871A3C"/>
<path d="M109.22,93.438c0.52-2.289,2.66-4.738,4.965-5.328,0.523-0.137,1.094-0.141,1.625,0.031-0.09-0.094-0.184-0.188-0.301-0.254-0.625-0.359-1.391-0.391-2.059-0.219-2.305,0.594-4.449,3.039-4.961,5.328-0.332,1.461,0.215,2.254,1.086,2.523-0.39-0.425-0.57-1.101-0.35-2.081" fill="#871A3C"/>
<path d="M113.12,95.492c1.391-0.77,2.715-1.941,3.379-3.418,0.438-0.977,0.906-3.086-0.25-3.742-0.625-0.359-1.391-0.398-2.063-0.223-2.305,0.59-4.445,3.039-4.965,5.328-0.62,2.778,1.9,3.165,3.9,2.055" fill="#FFF"/>
<path d="M122.5,167.72v-5.945h-2.5l-0.004-0.684v-0.902c0-8.258-5.262-14.508-12.816-15.758h-5.367c-7.617,1.25-12.906,7.5-12.906,15.762l-0.004,0.898-0.004,0.684h-2.414v5.945h2.387v0.691s-0.008,2.441-0.008,2.445l-0.133,22.809c1.891,0.605,3.609,1.551,5.121,2.82,2.785-1.477,6.836-1.746,9.68,2.086,0.148,0.172,0.527,0.641,0.914,1.43,0.375-0.785,0.742-1.238,0.867-1.375,3.082-4.156,7.414-3.367,9.789-2.105,1.5-1.266,3.199-2.211,5.07-2.828-0.02-3.309-0.133-22.84-0.133-22.84l-0.008-2.441-0.008-0.691h2.48" fill="#BAC1CA"/>
<path d="M105.13,170.21v-2.867h3.664v2.867h-3.657zm-5.03,0v-2.867h3.668v2.867h-3.672zm-5.026,0l0.012-2.867h3.645v2.867h-3.657zm3.656-17.99v1.039h-1.16c0.352-0.38,0.735-0.73,1.16-1.04zm12.6,1.04h-1.168v-1.039c0.43,0.31,0.82,0.66,1.17,1.04zm-1.17,14.08h3.645l0.02,2.867h-3.664v-2.87zm-5.03-4.24h3.664v2.863h-3.664v-2.858zm-5.03,0h3.668v2.863h-3.668v-2.858zm-4.991,0h3.621v2.863h-3.637l0.016-2.86zm8.661-9.84h-3.668v-1.855c1.113-0.543,2.363-0.871,3.668-0.961v2.822zm5.03,0h-3.664v-2.816c1.309,0.09,2.555,0.418,3.664,0.961v1.862zm1.36,9.84h3.629l0.012,2.863h-3.641v-2.858zm-5.03-4.23h3.664v2.867h-3.664v-2.873zm-5.03,0h3.668v2.867h-3.668v-2.873zm3.67-1.37h-3.668v-2.867h3.668v2.87zm5.03,0h-3.664v-2.867h3.664v2.87zm4.98,2.69l0.004,1.543h-3.625v-2.867h3.543c0.05,0.46,0.08,0.9,0.08,1.33zm-1.42-5.56c0.508,0.848,0.883,1.809,1.117,2.867h-3.316v-2.867h2.203zm-13.63,0v2.867h-3.309c0.234-1.059,0.602-2.02,1.117-2.867h2.192zm-3.535,4.24h3.535v2.867h-3.617v-1.543c0-0.44,0.035-0.88,0.082-1.33zm20.005,12.01l-0.023-4.23-0.02-4.234v-0.402l-0.004-1.824c0-0.438-0.043-1.324-0.043-1.324l-0.117-0.781v-0.004l-0.09-0.582h-0.027c-0.203-1.031-0.848-2.867-0.848-2.867l-0.699-1.055s0-0.004-0.004-0.008l-0.199-0.309h-0.031c-0.773-1.078-2.93-2.699-2.93-2.699l-0.355-0.195-1.012-0.465c-1.137-0.473-3.664-0.879-3.664-0.879l-0.684,0.004s-0.684,0.016-0.684,0.047c-1.285,0.082-3.668,0.746-3.668,0.746l-1.012,0.547-0.355,0.223c-1.168,0.695-2.148,1.594-2.926,2.672h-0.027l-0.207,0.309-0.605,1.063c-0.43,0.871-0.738,1.836-0.941,2.867h-0.031l-0.086,0.582v0.004l-0.086,0.781c-0.047,0.449-0.074,0.887-0.074,1.324l-0.004,2.227-0.023,4.234-0.016,4.23-0.008,0.691h21.504v-0.697" fill="#231F20"/>
<path d="M103.02,199.04c0.258,0.277,0.988,1.23,1.43,3.004,0.434-1.773,1.164-2.727,1.418-3.004,3.098-4.184,7.473-2.902,9.488-1.566l-0.004-0.414-0.148-25.484h-21.515l-0.145,25.48v0.406c2.016-1.34,6.38-2.61,9.47,1.57" fill="#231F20"/>
<path d="M130.27,170.81v6.363h5.023c-0.27-2.059-0.516-4.199-0.734-6.363h-4.294" fill="#BAC1CA"/>
<path d="M136.61,185.52c-0.406-2.07-0.789-4.402-1.133-6.879h-14.027l0.043,6.879h15.119" fill="#BAC1CA"/>
<path d="M128.99,152.49h-9.227c1.027,2.289,1.602,4.883,1.602,7.695v0.074h7.625v-7.762" fill="#BAC1CA"/>
<path d="M129.05,170.81h-7.641v0.039l0.039,6.324h7.602v-6.361" fill="#BAC1CA"/>
<path d="M129.1,187h-7.6l0.039,7.008c2.219-0.543,4.258-0.527,5.648-0.395,0.477-0.668,1.129-1.328,1.918-1.945v-4.684" fill="#BAC1CA"/>
<path d="M119.06,151.12h1.645v-6.688h-8.875c3.08,1.43,5.58,3.75,7.24,6.69" fill="#BAC1CA"/>
<path d="M130.32,152.49v7.77h3.32c-0.207-2.809-0.379-5.441-0.512-7.77h-2.81" fill="#BAC1CA"/>
<path d="M130.2,187v3.918c1.758-1.07,4.098-1.902,7.137-2.18-0.145-0.547-0.277-1.133-0.418-1.738h-6.717" fill="#BAC1CA"/>
<path d="M133.05,151.12c-0.172-3.109-0.281-5.508-0.332-6.688h-10.809v6.688h11.137" fill="#BAC1CA"/>
<path d="M75.824,152.49c-0.137,2.328-0.309,4.961-0.516,7.77h3.363v-7.77h-2.847" fill="#BAC1CA"/>
<path d="M74.395,170.81c-0.219,2.164-0.465,4.305-0.727,6.363h5.059v-6.363h-4.332" fill="#BAC1CA"/>
<path d="M79.945,177.17h7.512c0.02-3.59,0.035-6.324,0.035-6.324v-0.039h-7.547v6.362" fill="#BAC1CA"/>
<path d="M87.406,185.52c0.016-2.254,0.023-4.668,0.039-6.879h-13.972c-0.344,2.477-0.719,4.809-1.133,6.879h15.066" fill="#BAC1CA"/>
<path d="M133.71,161.73c0.191,2.473,0.402,5.043,0.652,7.617h-10.406v-7.617h9.757,0.003" fill="#BAC1CA"/>
<path d="M75.199,161.73c-0.191,2.473-0.41,5.043-0.66,7.617h10.414v-7.617h-9.754" fill="#BAC1CA"/>
<path d="M79.883,187v4.668c0.797,0.617,1.445,1.277,1.922,1.945,1.375-0.133,3.371-0.148,5.555,0.371,0.004-0.684,0.02-3.523,0.039-6.984h-7.516" fill="#BAC1CA"/>
<path d="M87.09,151.12v-6.688h-10.856c-0.047,1.18-0.156,3.578-0.332,6.688h11.188" fill="#BAC1CA"/>
<path d="M80.004,160.26h7.531v-0.066c0-2.82,0.574-5.414,1.609-7.703h-9.141v7.768" fill="#BAC1CA"/>
<path d="M78.789,187h-6.762c-0.133,0.602-0.273,1.188-0.418,1.734,3.063,0.277,5.414,1.113,7.18,2.184v-3.914" fill="#BAC1CA"/>
<path d="M89.848,151.12c1.68-2.941,4.184-5.262,7.285-6.688h-8.848v6.688h1.563" fill="#BAC1CA"/>
<path d="M95.484,137.1h-22.086v5.688h29.391l-7.306-5.69" fill="#BAC1CA"/>
<path d="M113.47,137.1l-7.309,5.688h29.391v-5.688h-22.077" fill="#BAC1CA"/>
<path d="M113.6,53.637h5.75v-4.926h-5.75v4.926z" fill="#231F20"/>
<path d="M89.508,53.637h5.75v-4.926h-5.75v4.926z" fill="#231F20"/>
<path d="M101.48,53.637h5.75v-4.926h-5.75v4.926z" fill="#231F20"/>
<path d="M108.17,28.453h-7.488l-2.965-2.969v-2.254h0.641v2.34h3.055v-2.328h0.691v2.328h4.648v-2.328h0.691v2.328h3.078v-2.34h0.613v2.254l-2.96,2.969" fill="#BAC1CA"/>
<path d="M121.25,36.5h-6.492l-1.984-1.98v-1.5h2.031v1.555h2.184v-1.555h2.027v1.555h2.191v-1.555h2.027v1.5l-1.99,1.98" fill="#BAC1CA"/>
<path d="M93.922,36.5h-6.5l-1.977-1.98v-1.5h2.023v1.555h2.195v-1.555h2.02v1.555h2.188v-1.555h2.027v1.5l-1.976,1.98" fill="#BAC1CA"/>
<path d="M110.97,77.992c-0.273-2.746-1.453-9.242-6.453-9.41-5.031,0.168-6.215,6.664-6.492,9.41h12.941" fill="#231F20"/>
<path d="M95.898,63.359h17.063v-8.398h-17.062v8.398z" fill="#BAC1CA"/>
<path d="M108.33,53.594h4.176v-4.746h-4.176v4.746z" fill="#BAC1CA"/>
<path d="M114.33,54.961v8.398h6.762c0.801-1.285,2.547-4.387,3.523-8.398h-10.278" fill="#BAC1CA"/>
<path d="M88.211,64.777c-0.961,1.512-1.883,4.23-2.645,6.977h12.66c1.141-2.379,3.055-4.43,6.289-4.539,3.223,0.109,5.125,2.16,6.258,4.539h12.516c-0.758-2.746-1.68-5.465-2.645-6.977,0,0-0.016-0.027-0.027-0.051h-32.388l-0.031,0.051" fill="#BAC1CA"/>
<path d="M124.91,53.594c0.281-1.5,0.441-3.09,0.391-4.746h-4.852v4.746h4.456" fill="#BAC1CA"/>
<path d="M87.77,63.359h6.758v-8.398h-10.286c0.973,4.012,2.719,7.113,3.528,8.398" fill="#BAC1CA"/>
<path d="M91.789,73.125v4.867h4.852c0.109-1.172,0.371-3.027,1.02-4.867h-5.872" fill="#BAC1CA"/>
<path d="M117.07,73.125h-5.738c0.645,1.84,0.914,3.695,1.016,4.867h4.723v-4.867" fill="#BAC1CA"/>
<path d="M118.44,73.125v4.867h6.367c-0.281-1.324-0.68-3.059-1.148-4.867h-5.222" fill="#BAC1CA"/>
<path d="M88.414,53.594v-4.746h-4.855c-0.047,1.656,0.113,3.246,0.391,4.746h4.464" fill="#BAC1CA"/>
<path d="M90.422,73.125h-5.223c-0.469,1.809-0.863,3.543-1.145,4.867h6.367v-4.867" fill="#BAC1CA"/>
<path d="M96.352,53.594h4.039v-4.746h-4.039v4.746z" fill="#BAC1CA"/>
<path d="M115.35,42.23h5.676v-4.844h-5.676v4.844z" fill="#BAC1CA"/>
<path d="M115.35,47.48h5.676v-4.156h-5.676v4.156z" fill="#BAC1CA"/>
<path d="M87.832,42.23h5.68v-4.844h-5.68v4.844z" fill="#BAC1CA"/>
<path d="M87.832,47.48h5.68v-4.156h-5.68v4.156z" fill="#BAC1CA"/>
<path d="M101,34.41h6.855v-5.148h-6.86v5.148z" fill="#BAC1CA"/>
<path d="M104.96,40.98h2.891v-5.359h-2.891v5.359z" fill="#BAC1CA"/>
<path d="M101,40.98h2.754v-5.359h-2.75v5.359z" fill="#BAC1CA"/>
<path d="M101,47.48h6.855v-5.293h-6.86v5.293z" fill="#BAC1CA"/>
<path d="M69.34,202.63c-7.781,0-12.199-4.715-13.465-6.293,1.258-1.578,5.668-6.285,13.465-6.285,9.004,0,11.816,4.457,12.18,6.289-0.364,1.82-3.176,6.28-12.18,6.28zm70.32,0c7.781,0,12.199-4.715,13.465-6.293-1.262-1.578-5.668-6.285-13.465-6.285-9.008,0-11.82,4.457-12.18,6.289,0.36,1.82,3.17,6.28,12.18,6.28" fill="#BAC1CA"/>
<path d="M64.906,218.21c-6.199-1.922-7.594-5.719-6.895-8.383,0.84-3.211,4.691-5.996,10.176-4.82,9.055,1.938,13.848,9.973,15.137,12.461-1.808,1.11-7.898,3.99-18.418,0.74zm79.184,0c6.203-1.922,7.594-5.719,6.895-8.383-0.84-3.211-4.691-5.996-10.176-4.82-9.051,1.938-13.848,9.973-15.137,12.461,1.82,1.11,7.91,3.99,18.43,0.74" fill="#BAC1CA"/>
<path d="M56.57,208.1c-0.91-0.184-1.527-0.641-2.422-1.414-1.094-0.93-2.453-2.098-5.016-2.91-3.605-1.137-8.5-1.25-11.336-1.207,5.516-6.02,12.141-6.305,15.922-5.828l0.105,0.152c0.121,0.184,2.887,4.246,8.434,6.395-2.577,0.82-4.655,2.56-5.687,4.82zm95.85,0c0.914-0.184,1.527-0.641,2.426-1.414,1.09-0.93,2.453-2.098,5.016-2.91,3.605-1.137,8.496-1.25,11.332-1.207-5.508-6.02-12.137-6.305-15.922-5.828l-0.102,0.152c-0.125,0.184-2.887,4.246-8.434,6.395,2.57,0.82,4.64,2.56,5.67,4.82" fill="#BAC1CA"/>
<path d="M89.512,209.35l-7.215,2.898c-2.039-2.656-5.23-5.906-9.715-7.875,7.262-0.969,10.52-5.094,10.918-7.891l0.012-0.059,0.012-0.078-0.012-0.082-0.012-0.063c-0.059-0.406-0.184-0.824-0.344-1.242,2.801-0.051,7.277,0.609,10.785,4.551l-4.429,9.83zm29.968,0l7.215,2.898c2.035-2.656,5.234-5.906,9.711-7.875-7.262-0.969-10.516-5.094-10.918-7.891l-0.008-0.059-0.012-0.078,0.02-0.145c0.059-0.406,0.188-0.824,0.348-1.242-2.801-0.051-7.281,0.609-10.785,4.551l4.42,9.84" fill="#BAC1CA"/>
<path d="M104.41,191.58c-2.813,2.816-2.734,5.531-2.734,5.531,0,2.871,2.734,2.773,2.734,2.773s2.738,0.098,2.738-2.773,0.08-2.71-2.74-5.53" fill="#9B7431"/>
<path d="M75.234,212.73c1.813,3.555,4.414,4.313,4.414,4.313,2.734,0.887,3.48-1.754,3.48-1.754s0.941-2.563-1.785-3.453c0.001,0-2.554-0.92-6.109,0.89" fill="#9B7431"/>
<path d="M86.336,247.02c3.938-0.617,5.465-2.867,5.465-2.867,1.691-2.32-0.582-3.852-0.582-3.852s-2.152-1.691-3.84,0.637-1.668,2.14-1.043,6.08" fill="#9B7431"/>
<path d="M133.55,212.79c-3.551-1.813-6.109-0.895-6.109-0.895-2.73,0.887-1.793,3.457-1.793,3.457s0.754,2.637,3.484,1.75c0-0.01,2.61-0.77,4.42-4.32" fill="#9B7431"/>
<path d="M122.38,247.06c0.621-3.934-1.043-6.086-1.043-6.086-1.684-2.32-3.84-0.633-3.84-0.633s-2.277,1.523-0.586,3.852,1.53,2.24,5.47,2.87" fill="#9B7431"/>
<path d="M127,216.51c-0.289-0.129-1.586-0.641-3.715-0.406,1.797-0.988,2.543-2.047,2.762-2.41,3.078-4.332,0.328-8.172-1.57-9.605-2.203-1.605-4.043-2.035-5.254-2.109-0.398-1.125-1.375-2.707-3.738-4.426-1.953-1.363-6.461-2.789-9.621,1.484-0.254,0.277-0.984,1.23-1.418,3.004-0.441-1.773-1.172-2.727-1.43-3.004-3.156-4.273-7.66-2.848-9.613-1.484-2.367,1.719-3.344,3.301-3.738,4.426-1.219,0.074-3.055,0.504-5.254,2.109-1.902,1.434-4.652,5.273-1.566,9.605,0.211,0.363,0.953,1.422,2.758,2.41-2.133-0.234-3.418,0.277-3.723,0.406-4.973,1.707-5.012,6.406-4.332,8.672,0.91,2.781,2.109,4.195,3.059,4.922-0.309,1.18-0.453,3.063,0.379,5.652,0.781,2.246,3.582,6.043,8.648,4.457,0.391-0.086,1.613-0.461,3.102-1.832-0.703,1.5-0.828,2.637-0.828,3.23,0,0.141,0.012,0.203,0.016,0.277,0.031,5.355,4.527,6.855,6.91,6.898,2.746,0,4.48-0.738,5.5-1.391,0.977,0.684,2.668,1.391,5.598,1.391,2.41-0.043,6.91-1.547,6.938-6.91,0.008-0.082,0.012-0.148,0.012-0.301,0-0.613-0.121-1.77-0.789-3.254,1.52,1.422,2.762,1.805,3.164,1.891,5.063,1.586,7.863-2.211,8.637-4.457,0.844-2.59,0.695-4.473,0.387-5.652,0.949-0.727,2.148-2.141,3.051-4.922,0.69-2.26,0.66-6.96-4.33-8.67" fill="#871A3C"/>
<path d="M104.38,234.98c-6.004,3.191-12.434-1.473-11.219-8.145-4.914-4.73-2.457-12.281,4.281-13.18,2.961-6.145,10.895-6.145,13.852,0,6.734,0.898,9.191,8.449,4.281,13.18,1.21,6.67-5.21,11.34-11.19,8.14" fill="#231F20"/>
<path d="M104.43,215.97c1.293,0,2.5,0.379,3.527,1.023l2.938-4.043c-3.055-5.152-9.891-5.184-13-0.098l3.008,4.141c1.02-0.64,2.22-1.02,3.52-1.02" fill="#FFF"/>
<path d="M112.27,213.86l-3.043,4.18c1.141,1.195,1.836,2.801,1.836,4.566,0,0.645-0.094,1.262-0.266,1.852l5.367,1.742c3.87-4.5,1.81-10.95-3.9-12.34" fill="#FFF"/>
<path d="M115.68,227.76l-5.543-1.797c-1.023,1.73-2.805,2.957-4.887,3.215v6.195c5.43,2.21,10.89-1.76,10.43-7.62" fill="#FFF"/>
<path d="M98.727,225.96l-5.676,1.844c-0.434,5.863,5.09,9.82,10.563,7.527v-6.156c-2.08-0.25-3.864-1.47-4.883-3.21" fill="#FFF"/>
<path d="M97.805,222.6c0-1.766,0.695-3.371,1.828-4.566l-3.051-4.203c-5.805,1.348-7.906,7.871-3.973,12.395l5.457-1.777c-0.171-0.58-0.261-1.19-0.261-1.84" fill="#FFF"/>
<path d="M109.42,222.6c0,2.754-2.238,4.992-4.988,4.992-2.754,0-4.988-2.238-4.988-4.992,0-2.746,2.234-4.984,4.988-4.984,2.75,0,4.99,2.24,4.99,4.98" fill="#FFF"/>
<path d="M194.77,85.18l0.035,0.59c0.172,3.215,0.352,6.531,1.949,9.52,0.977,1.82,1.828,3.793,1.828,6.035,0,0.773-0.105,1.582-0.336,2.422-0.5,1.82-1.492,3.285-2.543,4.836,0,0-0.848,1.277-0.883,1.328-0.043-0.258-0.207-1.223-0.207-1.223-0.133-1.066-0.742-1.945-1.664-2.422-0.383-0.199-0.809-0.273-1.234-0.305,0.18-1.141,0.711-2.066,1.508-3.25,1.227-1.836,1.656-3.254,1.695-5.617,0,0-1.008-0.164-1.605-0.262,0.648-1.652,0.766-3.445,0.781-5.359,0,0-1.77-0.297-2.004-0.336,0.383-1,0.52-1.98,0.52-2.828,0-0.328-0.016-0.637-0.035-0.922-0.082-1.086-0.258-1.996-0.539-2.777l-0.676-1.16-0.332-0.508-2.102,0.625c0.047,0.145,0.063,0.289,0.063,0.441,0,0.309-0.082,0.645-0.199,1.129l-0.113,0.453c-0.414,1.777-0.734,2.441-0.949,2.707-0.211-0.348-0.484-1.211-0.59-2.414-0.086-0.996-0.125-2.02-0.125-3.043,0-2.043,0.168-4.086,0.484-5.875l0.121-0.672c0.523-2.945,1.016-5.723,2.176-8.422,0.793-1.867,1.523-3.383,2.277-4.773l1.434-2.25,0.301-0.418c1.703-2.355,2.348-3.059,4.547-2.113,1.59,0.68,1.973,2.566,1.973,4.223,0,0.84-0.098,1.617-0.191,2.145l-0.039,0.234c-0.508,3.074-1.039,6.254-2.211,8.977l-0.547,1.25c-1.27,2.883-2.582,5.859-2.582,9.293,0,0.246,0,0.496,0.01,0.742zm7.87,4.722c-0.84-0.762-1.637-1.48-2.055-2.465-0.645-1.504-0.793-3.043-0.391-4.117,0.309-0.836,0.375-0.836,1.25-0.844l3.551-0.332-1.438-1.574c-0.66-0.801-1.211-2.277-1.035-2.777,0.238-0.703,1.637-1.438,2.629-1.566l2.383-0.332-1.809-1.578c-0.895-0.781-0.574-2.195-0.066-3.965l0.129-0.457c0.59-2.125,1.34-5.309,1.047-8.391-0.305-3.133-1.906-7.164-5.512-9.07-3.648-1.941-8.316-0.094-11.109,2.438-3.359,3.055-4.883,7.523-5.934,11.492l-0.371,1.383c-1.133,4.207-2.305,8.559-1.922,12.969,0.117,1.313,0.027,2.66-0.066,4.09l-0.121,2.93c0.004,2.398,0.137,4.859,0.395,7.324,0.363,3.473,0.84,7.496,1.988,11.281l3.004,10.352,1.129,4.988,0.703,3.277c0.551,2.383,0.656,3.523-0.633,4.207-1.258,0.668-3.672-0.09-4.688-1.16-0.672-0.711-0.938-2.055-1.191-3.359l-0.559-2.258-3.387-9.313-1.113-2.879c-0.852-2.148-1.66-4.18-2.168-6.43-0.832-3.664-1.129-7.375-1.313-10.832-0.043-0.805-0.098-1.789-0.098-2.82,0-1.164,0.082-2.375,0.309-3.488,0.348,0.723,0.801,1.379,1.469,1.758l0.809,0.461,0.582-0.734c0.84-1.051,1.34-2.551,1.816-4.008l0.609-1.719c0.805-1.902,1.559-3.777,2.043-5.758,0.801-3.266,1.188-6.02,1.188-8.523,0-1.246-0.094-2.426-0.285-3.582l-1.074-5.258c-0.004-0.027-0.746-2.242-1.668-3.574,0.73-1.016,1.367-2.121,1.75-3.27l0.75-2.688c0.234-1.32,0.535-3.039,0.535-4.785,0-1.723-0.332-3.441-1.289-4.84,0.191-0.164,0.422-0.355,0.422-0.355,1.348-1.098,2.879-2.34,3.383-4.266l0.496-1.914-2.156,0.676c-0.094,0.031-0.133,0.027-0.215,0.051,1.027-1.293,1.992-2.797,2.109-4.387l0.145-1.926-1.727,0.867c-0.18,0.094-0.383,0.137-0.582,0.188,1.164-1.406,2.336-2.961,2.336-4.59,0-0.031-0.074-2.797-0.074-2.797l-1.828,1.996c-0.719,0.785-3.445,0.82-4.469,0.828-0.09,0-1.063,0.02-1.063,0.02s-0.977-0.016-1.906-0.023c0.047-0.195,0.117-0.434,0.117-0.434l-1.277-0.223-0.742-0.031c-0.648-0.023-1.215-0.047-1.762-0.195l-1.242-0.527-1.93-0.758-3.18-0.531c-1.875-0.41-3.477-0.547-5.039-0.441-2.105,0.148-3.797,0.527-5.02,1.133l-1.734,1.113c-0.531,0.391-1.039,0.762-1.578,0.98-0.559,0.223-1.957,0.379-2.461,0.246-0.09-0.238-0.215-0.531-0.215-0.531,0-0.004-0.141-0.211-0.141-0.211-0.336-0.504-0.664-0.977-1.66-1.434-1.691-0.781-4.223-1.063-5.77,0.719-2.344,2.703-1.668,7.422,0.477,9.684,2.773,2.926,7.977,3.355,10.828,3.352,2.059,0,5.406-0.246,7.563-1.52,0.047,0.238,0.094,0.484,0.094,0.742,0,0.355-0.047,0.719-0.148,1.047-0.164,0.492-0.168,0.516-1.414,0.438-1.672-0.102-3.324-0.008-4.883,0.086-3.852,0.25-6.797,1.043-9.266,2.488-2.348,1.375-3.559,3.316-3.406,5.457,0.055,0.875,0.438,1.602,1.086,2.105,1.289,0.992,3.313,0.871,4.777,0.59,2.043-0.383,3.965-0.703,5.848-0.633-1.969,1.723-3.664,3.555-4.992,5.121-0.023-0.023-0.035-0.035-0.055-0.059l-0.922-0.98-3.27-2.18-0.938-0.586c-2.156-1.355-4.434-2.852-6.445-4.566-1.77-1.508-3.496-3.172-4.07-5.109-0.41-1.375-0.41-3.004-0.418-4.586l-0.051-2.402c-0.207-3.023-0.918-5.402-3.762-7.223-2.602-1.664-6.281-1.898-8.289,0.422l-0.242-0.031c-0.301-0.039-3.008-0.305-4.719,1.078-0.762,0.621-1.219,1.484-1.313,2.508l-0.133,1.406,1.395-0.219c1.48-0.242,3.176-0.203,3.559,0.086l1.262,0.93c0.465,0.418,1.004,0.668,1.5,0.891,0.41,0.188,0.805,0.367,1.02,0.605h0.641v2.531l-0.102,0.105-1.805,1.797v10.752h4.555l0.039,0.641c0.086,1.355,0.031,2.664-0.105,3.922,0.84,1.461,0.961,3.18,0.293,4.855l-0.594,1.496h1.461l1.523,0.008c0.793-0.055,1.262-0.066,1.719,0.23,0.676,0.434,0.695,1.379,0.508,2.059l-0.648,2.344,2.188-1.066c0.992-0.488,2.629-0.418,3.648,0.156,0.477,0.273,0.594,0.801,0.742,1.949,0.094,0.719,0.195,1.531,0.547,2.305,0.852,1.867,2.5,3.051,4.523,3.242,1.336,0.125,2.641-0.242,3.738-0.934,0.012,0.234,0.035,0.465,0.035,0.707,0,0.465-0.02,0.941-0.035,1.426-0.016,0.496-0.035,1-0.035,1.504,0,0.516,0.031,1.035,0.086,1.547-4.254-1.406-8.484-2.66-12.922-3.207l-2.234-0.219c-2.824-0.25-5.742-0.508-7.824-1.957l-0.715-0.504c-2.273-1.605-4.418-3.129-7.906-2.879-2.027,0.152-2.898,0.848-3.961,2.25-0.93,1.211-1.574,2.941-1.734,4.625-0.211,2.223,0.18,4.254,1.141,6.012h18.32v12.465c0.258,0.32,0.43,0.625,0.504,0.914l2.125-0.523c-0.152-0.617-0.074-0.93,0.012-0.984,0.328-0.199,1.43,0.023,2.273,0.75,1.258,1.082,2.563,2.355,4.102,4.008l1.801-1.188c-0.129-0.305-0.203-0.711-0.203-0.996,0-0.078,0.02-0.121,0.027-0.176,0.078,0.066,0.555,0.473,0.555,0.473l0.871,0.707c0.387,0.219,0.742,0.371,1.09,0.492-0.078,0.613-0.188,1.219-0.188,1.824,0,4.715,2.328,9.281,6.445,12.387l2.172,1.582c1.891,1.363,3.855,2.77,5.438,4.363,2.023,2.043,4.313,4.352,6.02,6.953,0.715,1.082,1.184,2.141,1.582,3.531,0.102,0.375,0.133,0.715,0.133,1.07,0,0.074-0.004,0.16-0.004,0.234-1.066-0.453-2.121-0.84-3.398-1.07-2.188-0.383-4.133-0.512-6.113-0.395-2.102,0.117-4.98,0.285-6.777,2.449-2.887,3.488-1.793,7.359-0.82,10.777,0.453,1.605,0.883,3.125,0.957,4.598,0.055,1.121,0.18,3.742-0.914,4.938-0.332,0.363-0.75,0.523-1.281,0.496-1.172-0.059-2.547-1.004-3.207-1.875-1.719-2.293-2.238-5.035-2.551-7.656l-0.09-0.809c-0.25-2.313-0.535-4.938-2.559-6.781-1.438-1.309-3.5-1.617-4.695-0.703-0.148,0.113-0.402,0.363-0.602,0.734-1-0.527-2.148-0.762-3.254-0.656v5.539h9.34v8.969h-2.836c0.063,1.445,0.215,4.664,0.465,8.789l0.254,0.156c0.961,0.563,1.793,1.047,2.168,1.922l0.289,1.047c0.176,0.801,0.375,1.703,1.023,2.441l0.859,0.727c0.344,0.234,0.426,0.305,0.5,0.547l2.09-0.652c-0.074-0.211-0.039-0.324,0-0.391,0.102-0.191,0.375-0.367,0.723-0.453,0.559-0.148,0.898,0.133,1.723,1.434,0,0,1.582-1.23,1.672-1.301-0.008,0.047-0.012,0.102-0.035,0.117,0.023-0.023,0.156-0.094,0.32-0.066,0.305,0.051,0.625,0.449,0.965,0.863l0.625,0.719,1.648-1.438c-0.082-0.105-0.098-0.172-0.098-0.207,0.02-0.016,0.074-0.043,0.211-0.051,0.66-0.008,1.742,0.664,2.23,1.391l1.984-0.824c-0.008-0.035-0.012-0.066-0.012-0.102,0-0.449,0.621-0.844,1.938-1.512,0.168-0.086,0.328-0.188,0.5-0.273,0.023,0.586,0.086,1.211,0.348,1.926,0.82,2.258,2.551,4.191,4.078,5.895l0.715,0.801c2.598,2.953,4.652,5.547,6.285,7.93,1.762,2.566,2.891,5.355,4.086,8.305,0.57,1.402,1.273,3.141,1.273,4.68,0,0.23-0.016,0.457-0.047,0.676-0.07,0.445-0.281,1.805-3.523,2.227l-4.008,0.27c-1.68,0.059-3.414,0.121-5.141,0.426-0.004,0-0.406,0.07-0.406,0.07-1.695,0.277-4.844,0.805-5.125,3.598-0.016,0.152-0.02,0.297-0.02,0.438,0,0.285,0.043,0.539,0.102,0.777,3.965-0.512,10.73-0.258,16.523,5.539,0.414-0.258,0.797-0.547,1.148-0.828l0.805-0.605c0.898-0.559,1.934-1.184,2.91-1.551l2.211-0.719c2.98-0.902,6.359-1.93,7.563-4.523,0.285-0.609,0.426-1.262,0.426-1.969,0-0.43-0.051-0.883-0.16-1.344,0.996-0.172,2.031-0.539,2.781-1.234,0.379-0.348,0.621-0.961,0.953-1.852l1.164-2.988-2.391,1c-0.16,0.074-0.395,0.117-0.648,0.121,1.219-0.863,2.422-2.023,3.105-3.086l1.25-1.945-2.301,0.266c-1.969,0.23-2.453-0.184-2.504-0.234-0.02-0.02-0.074-0.07-0.074-0.25,0-0.031,0-0.07,0.008-0.117,0.078-0.742,0.355-0.871,1.605-1.156l3.121-0.906-1.367-1.266c-0.617-0.645-1.688-1.219-2.77-1.375,0.004-0.008,0.004-0.016,0.012-0.023,0.477-0.496,1.367-0.789,2.305-0.754l3.281,0.121-2.551-2.066c-0.762-0.621-1.754-1.238-3.059-1.273,0.5-0.465,1.766-0.563,2.469-0.609l1.605-0.109-0.688-1.449c-0.504-1.059-1.328-1.945-2.336-2.496l-0.848-0.359s-0.305-0.129-0.359-0.152c-0.004-0.031-0.008-0.063-0.008-0.063-0.008-0.047-0.008-0.086-0.008-0.125,0-0.652,0.727-1.02,2.195-1.516l2.973-1.012-2.73-1.105c-2.875-1.16-5-2.422-6.055-4.777-0.652-1.48-1.004-3.129-1.004-4.688,0-0.66,0.063-1.301,0.195-1.906,0.258-1.211,0.723-2.363,1.215-3.59,0.488-1.203,0.992-2.453,1.289-3.781s0.625-3.215,0.66-4.879c0.258,0.094,0.465,0.254,0.754,0.309,1.984,0.375,4.297-0.211,5.613-1.422,2.246-2.063,2.707-5.152,2.852-7.621,0.16-2.727-0.191-5.309-0.563-7.723-0.477-3.078-1.508-5.848-2.418-8.293l-0.383-0.887c-0.219-0.492-0.82-1.801-0.688-2.16,0,0,0.039-0.074,0.047-0.094,0.121-0.039,0.5,0.016,0.727,0.043,0,0,1.637,0.191,1.848,0.215-0.285,0.426-0.77,1.148-0.77,1.148l1.828,0.172c3.477,0.332,6.098-4.598,7.219-6.699,0.59-1.102,1.605-3.395,1.668-5.867,0.301,0.34,0.609,0.68,0.609,0.68l0.535-1.938c0.609-2.23-0.398-4.57-1.441-5.895l-1.76-1.798" fill="#871A3C"/>
<path d="M133.04,31.836l0.004,0.324c0.203,0.434,0.422,0.871,0.656,1.32,2.258,4.328,7.906,5.66,12.578,5.977,2.391-1.313,5.223-2.047,8.883-2.281,1.559-0.094,3.211-0.188,4.883-0.086,1.246,0.078,1.25,0.055,1.414-0.438,0.102-0.328,0.148-0.691,0.148-1.047,0-0.258-0.047-0.504-0.094-0.742-2.156,1.273-5.504,1.52-7.563,1.52-2.852,0.004-8.055-0.426-10.828-3.352-0.531-0.555-0.969-1.262-1.293-2.055-2.023-0.957-3.637-2.281-4.414-4.059-0.707-1.609-1.004-2.918-1.004-4.031,0-2.52,1.512-4.02,3.176-5.676l2.734-2.723-3.383,0.566c-1.762,0.293-5.207,1.691-6.891,5.082-0.652,1.309-0.977,2.77-0.977,4.371,0,0.574,0.051,1.18,0.137,1.797,1.26,1.537,1.68,3.369,1.82,5.533" fill="#231F20"/>
<path d="M148.55,38.438c1.887-0.68,4.047-1.094,6.617-1.262,1.559-0.094,3.211-0.188,4.883-0.086,1.246,0.078,1.25,0.055,1.414-0.438,0.102-0.328,0.148-0.691,0.148-1.047,0-0.258-0.047-0.504-0.094-0.742-2.156,1.273-5.504,1.52-7.563,1.52-2.852,0.004-8.055-0.426-10.828-3.352-0.148-0.152-0.281-0.316-0.41-0.488-2.906-1.094-5.25-2.773-6.305-5.184-2.707-6.191,0.195-8.711,2.711-11.227-2.324,0.387-11.227,3.871-4.453,16.84,2.37,4.548,9.18,5.43,13.87,5.466" fill="#FFF"/>
<path d="M161.31,38.441c-0.406,0.07-0.863,0.047-1.348,0.016-1.598-0.098-3.199-0.008-4.715,0.086-3.629,0.234-6.383,0.969-8.656,2.301-1.328,0.777-2.883,2.137-2.742,4.18,0.039,0.488,0.219,0.852,0.563,1.113,0.973,0.75,2.898,0.484,3.688,0.336,2.602-0.492,5.211-0.98,7.832-0.535,4.39-2.762,5.28-5.825,5.39-7.497" fill="#9B7431"/>
<path d="M153.95,35.016c1.836-0.004,6.262-0.207,7.766-2.035l0.203-0.25,0.211,0.242c0.93,1.07,1.023,2.867,0.633,4.094-0.031,0.098-0.074,0.164-0.105,0.254,0.145,1.336,0.109,5.508-5.152,9.223,1.641,0.238,3.16,0.176,3.453-0.355l1.281,0.418-0.723,5.754c2.027-1.523,3.816-3.313,3.738-4.137l1.348-0.219c0.48,1.977,1.109,4.172,1.555,5.281,1.074-0.965,2.652-2.641,2.758-3.898l1.324-0.184c0.117,0.313,1.02,2.766,1.367,3.879,0.727-0.191,2.242-1.133,2.402-1.621,0.02-0.113,0.039-0.184,0.043-0.199l1.336,0.188c0,0.109-0.016,0.219-0.047,0.332-0.07,0.441-0.109,1.77,1.371,2.965,0.598-0.859,1.082-1.813,1.406-2.77l0.695-2.484c0.219-1.254,0.512-2.91,0.512-4.543,0-1.824-0.367-3.621-1.617-4.793l-0.219-0.211,1.477-1.258c1.094-0.891,2.188-1.824,2.703-3.047-0.922,0.285-1.922,0.527-2.77-0.129l-0.23-0.18,0.375-0.422c1.063-1.215,2.578-2.992,2.922-4.664-0.969,0.32-2.008,0.301-3.012,0.238l-0.523-0.035,0.305-0.395,1.145-1.465c0.977-1.168,2.016-2.469,2.266-3.648-1.238,0.762-3.285,0.879-4.625,0.898v0.004c-0.719,0.078-1.891,2.184-2.527,4.098l-1.297-0.43c0.168-0.516,0.824-2.348,1.793-3.656l-3.094-0.039,0.203-0.449s0.043-0.117,0.07-0.199c-0.172-0.008-0.34-0.016-0.34-0.016-0.078,0-0.16-0.012-0.238-0.016-1.691,0.813-6.016,2.75-6.234,2.844l-0.555-1.25c0.977-0.438,2.914-1.313,4.469-2.023l-1.012-0.422-1.613-0.641-3.172-0.535c-1.742-0.379-3.223-0.508-4.656-0.41-1.902,0.133-3.461,0.477-4.508,0.992l-1.523,0.992c-0.582,0.422-1.184,0.863-1.887,1.148-0.762,0.301-2.992,0.664-3.813,0.121l-0.387-0.617-0.105-0.281-0.152-0.223c-0.297-0.441-0.449-0.664-1.098-0.965-1.363-0.625-3.184-0.754-4.168,0.379-1.852,2.141-1.273,6.039,0.438,7.844,2.42,2.555,7.2,2.926,9.83,2.926" fill="#9B7431"/>
<path d="M146.75,66.352l0.32-0.453,0.16,0.535c0.047,0.148,0.066,0.305,0.102,0.453,1.02-1.121,2.387-2.848,2.789-4.469l1.344,0.234c-0.367,3.613-0.527,9.574,0.383,11.934,0.418-0.484,0.941-1.191,1.211-1.996l0.473,0.156c-1.441-5.266,1.051-11.551,1.188-11.883l1.262,0.52c-0.031,0.086-3.52,8.879,0.211,13.738,0.984-0.84,3.039-2.883,3.039-5.238l1.367-0.066c0.172,1.68,0.727,4.461,1.551,5.789,0.637-0.734,1.723-2.266,2.27-4.652,0.039-1.98,0.223-3.789,0.289-4.43l1.363,0.02c0.141,1.727,0.012,3.242-0.273,4.539-0.027,1.789,0.063,3.504,0.371,4.492,0.875-0.773,2.375-2.422,2.375-4.594h1.367c0,0.988,0.172,3.512,0.891,4.957,0.41-0.496,0.93-1.395,1.027-2.813l1.367,0.078v0.012c0,0.004,0,0.004-0.004,0.004-0.156,3.328,0.164,6.547,0.707,7.496,0.621-0.422,1.758-1.469,1.758-3.531h1.371c0,2.051-0.875,3.348-1.68,4.109l-0.297,3.867c0.266,0.738,0.602,1.445,1.055,1.836,0.602-0.863,1.039-2.094,1.445-3.324l0.648-1.816c0.777-1.855,1.516-3.672,1.973-5.551,0.77-3.164,1.148-5.813,1.148-8.207,0-1.168-0.094-2.277-0.266-3.355l-1.055-5.148c-0.09-0.348-1.184-2.793-1.652-3.422-1.379-0.922-1.988-1.98-2.238-2.887-0.863,0.645-1.941,1.117-2.527,1.191-0.734,0.09-1.094-0.285-1.195-0.672-0.082-0.34-0.445-1.398-0.805-2.398-1.055,1.754-2.934,3.277-3.211,3.5l-0.539,0.422-0.422-0.535c-0.52-0.648-1.188-2.859-1.648-4.555-1.387,1.852-4.043,3.691-4.742,4.152l-1.242,0.828,0.188-1.484,0.734-5.879c-1.641,0.449-3.984-0.027-4.906-0.25-1.813,1.52-3.719,3.43-5.531,5.555l0.184,0.121c-0.04,0.077-4.51,7.054-3.69,13.07" fill="#9B7431"/>
<path d="M156.66,28.488c-0.609-0.398-0.746-1.289-0.426-1.883,0.352-0.645,1.27-0.809,1.945-0.98,1.328-0.328,2.559-0.934,3.887-1.168,0.473-0.086,1.352-0.367,1.668,0.219,0.297,0.539-0.398,1.039-0.82,1.246-0.695,0.344-1.563,0.484-2.023,1.152-0.211,0.313-0.219,0.688-0.453,0.977-0.219,0.273-0.602,0.465-0.93,0.578-0.89,0.297-2.07,0.375-2.86-0.141" fill="#871A3C"/>
<path d="M148.61,53.699c-0.191-0.184-0.363-0.391-0.523-0.594l-0.707-0.766-3.133-2.09-0.949-0.59c-2.203-1.391-4.527-2.914-6.605-4.68-1.934-1.645-3.82-3.484-4.5-5.766-0.461-1.559-0.469-3.297-0.469-4.973l-0.051-2.316c-0.188-2.75-0.758-4.637-3.129-6.16-1.82-1.168-5.234-1.809-6.785,0.508-0.375,0.563-0.637,1.324-0.637,2.027,0,0.449,0.105,0.879,0.355,1.219,0.32,0.438,0.832,0.672,1.379,0.922,0.535,0.238,1.082,0.484,1.492,0.941,0.414,0.465,0.625,0.934,0.625,1.395,0,0.094-0.012,0.188-0.031,0.281-0.098,0.551-0.484,1.02-0.984,1.445v0.316l-0.102,0.105-1.805,1.797v10.76h4.555l0.039,0.641c0.039,0.633,0.039,1.254,0.031,1.863,0.098,0.098,0.203,0.176,0.297,0.289,1.094,1.285,1.656,2.848,1.656,4.453,0,0.77-0.191,1.543-0.453,2.309h0.961c0.828-0.055,1.688-0.105,2.547,0.445,0.914,0.59,1.238,1.563,1.238,2.48,0,0.219-0.055,0.418-0.09,0.625,1.375-0.484,3.203-0.371,4.473,0.348,1.133,0.633,1.285,1.82,1.434,2.969,0.082,0.652,0.168,1.328,0.434,1.906,0.645,1.414,1.883,2.305,3.402,2.449,1.063,0.102,2.109-0.184,2.973-0.746-1.22-5.32,1.66-11.323,3.05-13.812" fill="#9B7431"/>
<path d="M159.53,126.16c-2.086-0.363-3.926-0.48-5.801-0.375-1.953,0.105-4.387,0.25-5.801,1.957-2.426,2.93-1.52,6.141-0.563,9.531,0.457,1.613,0.926,3.273,1.012,4.902,0.102,2.129,0.031,4.504-1.27,5.93-0.613,0.66-1.422,0.984-2.359,0.938-1.652-0.078-3.379-1.281-4.234-2.422-1.918-2.555-2.5-5.641-2.816-8.316l-0.094-0.816c-0.234-2.176-0.477-4.426-2.113-5.922-1.031-0.934-2.359-1.078-2.949-0.625-0.469,0.355-0.469,1.066,0,1.992l-0.473,0.273c-0.859-1.34-2.617-2.129-4.211-1.914v4.176h9.34v8.969h-2.836c0.055,1.246,0.176,3.797,0.367,7.113l1.039,0.645c1.074,0.633,2.188,1.281,2.742,2.578l0.363,1.285c0.152,0.699,0.301,1.355,0.715,1.832l0.609,0.5c0.172,0.117,0.344,0.258,0.5,0.406,0.031-0.141,0.031-0.293,0.105-0.422,0.285-0.535,0.863-0.945,1.582-1.129,1.148-0.301,1.898,0.262,2.492,0.996,0.012-0.031,0.008-0.059,0.023-0.086,0.293-0.555,1.031-0.871,1.742-0.754,0.695,0.117,1.156,0.613,1.566,1.105,0.02-0.145,0.035-0.297,0.105-0.434,0.242-0.492,0.773-0.789,1.422-0.805,1.031-0.012,2.188,0.688,2.941,1.48,0.223-1.113,1.457-1.793,2.605-2.375,0.324-0.164,0.633-0.328,0.914-0.488-0.148-1.531-0.258-3.465-0.059-4.871,0.176-1.234,1.324-3.555,2.652-6.242,1.578-3.18,3.359-6.781,3.551-8.695,0.293-2.914,0.469-7.285,0.52-8.859-1.08-0.49-2.07-0.84-3.32-1.06" fill="#9B7431"/>
<path d="M119.81,28.941c-0.156-0.922,0.047-1.898,0.426-2.719-1.098-0.051-4.191,0.051-4.426,2.625,0,0.001,2.67-0.429,4,0.094" fill="#9B7431"/>
<path d="M201.72,90.918c-0.914-0.824-1.859-1.684-2.398-2.945-0.262-0.609-0.723-1.895-0.723-3.301,0-0.598,0.082-1.223,0.309-1.824,0.629-1.715,1.547-1.73,2.516-1.742,0,0,0.43-0.035,0.797-0.07-0.52-0.773-1.102-1.988-1.102-3.016,0-0.242,0.035-0.465,0.102-0.676,0.438-1.266,2.109-2.094,3.336-2.371-0.512-0.621-0.762-1.336-0.762-2.098,0-0.996,0.301-2.031,0.547-2.898l0.129-0.449c0.473-1.715,1.059-4.148,1.059-6.586,0-0.441-0.02-0.875-0.059-1.305-0.27-2.781-1.664-6.34-4.789-8-2.93-1.551-7.023-0.043-9.547,2.25-3.094,2.809-4.535,7.047-5.531,10.828l-0.371,1.387c-1.105,4.09-2.242,8.324-1.879,12.488,0.117,1.422,0.023,2.887-0.066,4.297l-0.121,2.848c0.008,2.348,0.137,4.766,0.391,7.184,0.352,3.406,0.824,7.352,1.934,11.023l3.012,10.387,1.152,5.078,0.691,3.242c0.477,2.055,1.043,4.473-1.32,5.727-1.855,0.98-4.922,0.039-6.32-1.426-0.945-1-1.25-2.543-1.539-4.043l-0.504-2.055-3.391-9.309-1.098-2.844c-0.875-2.199-1.695-4.277-2.23-6.625-0.855-3.766-1.152-7.547-1.344-11.066-0.141-2.535-0.348-6.68,1.195-9.281l0.113-1.465-0.156,0.066-0.293-0.164c-1.117-0.621-1.512-3.063-1.629-5.328-0.398,0.473-0.73,0.715-0.766,0.738l-0.492,0.328-0.395-0.445c-0.652-0.734-1.043-1.883-1.277-3.008-1.027,1.703-2.484,2.695-2.574,2.758l-0.523,0.348-0.395-0.488c-0.43-0.543-0.688-1.496-0.832-2.609-0.922,1.738-1.938,2.629-2.02,2.703l-0.453,0.383-0.445-0.395c-0.938-0.832-1.535-2.598-1.906-4.18-1.172,2.152-3.148,3.594-3.266,3.676l-0.492,0.352-0.41-0.438c-0.73-0.789-1.246-1.676-1.633-2.609-0.707,1.313-1.742,2.242-1.797,2.289l-0.52,0.461-0.453-0.531c-1.43-1.695-1.473-6.75-1.313-10.234-0.82,1.16-1.734,2.125-2.293,2.68,0.035,0.746,0.008,1.508-0.016,2.25-0.051,1.535-0.102,3.125,0.379,4.551l0.184,0.523-0.527-0.176c-4.797-1.625-9.504-3.129-14.445-3.742l-2.188-0.211c-2.859-0.258-6.098-0.539-8.48-2.199l-0.723-0.508c-2.246-1.59-4.02-2.848-7.016-2.629-1.531,0.113-2.055,0.504-2.977,1.711-0.773,1.016-1.32,2.484-1.457,3.93-0.035,0.359-0.055,0.711-0.055,1.051,0,1.82,0.488,3.434,1.434,4.828h16.719v10.586c0.48,0.422,0.914,0.875,1.246,1.348,0.09-0.629,0.363-1.035,0.68-1.23,1.043-0.637,2.793-0.059,3.883,0.879,1.09,0.934,2.234,2.063,3.496,3.379-0.023-0.164-0.059-0.324-0.059-0.492,0-0.426,0.086-0.844,0.324-1.148,0.207-0.262,0.613-0.547,1.379-0.402,0.375,0.066,0.785,0.453,1.188,0.828l0.598,0.512c0.461,0.262,0.875,0.43,1.211,0.508,1.57-1.25,4.422-2.328,8.309-3.098l0.262,1.336c-5.379,1.078-7.371,2.453-8.074,3.141-0.613,4.836,1.551,9.715,5.801,12.918l2.137,1.559c1.945,1.391,3.957,2.836,5.617,4.512,2.066,2.086,4.41,4.453,6.191,7.168,0.789,1.207,1.316,2.375,1.75,3.91,0.227,0.797,0.203,1.445,0.168,2.137l-0.012,1.625-0.289-0.129c-0.074,1.902-0.246,5.723-0.508,8.375-0.219,2.164-1.98,5.723-3.684,9.164-1.172,2.371-2.383,4.809-2.527,5.832-0.141,0.977-0.109,2.281-0.023,3.496l0.188-0.262,0.082,2.086c0,0.336,0,0.664,0.031,1,0.047,0.359,0.086,0.582,0.086,0.594h-0.004c0.043,0.211,0.102,0.422,0.188,0.652,0.727,2.008,2.293,3.762,3.813,5.449l0.723,0.813c2.629,2.992,4.723,5.633,6.379,8.063,1.848,2.688,3.004,5.539,4.23,8.563,0.715,1.758,1.629,4.008,1.309,6.074-0.289,1.875-1.867,3.008-4.691,3.379l-4.141,0.277c-1.633,0.059-3.32,0.117-4.957,0.406l-0.414,0.074c-1.613,0.262-3.813,0.629-3.992,2.383-0.039,0.418,0,0.734,0.125,0.945,0.805-0.047,1.684-0.063,2.621-0.004l0.465-0.098c0.691-0.617,3.152-2.621,5.457-2.496l-0.063,1.094c-1.449-0.078-3.074,0.973-4.012,1.695,1.262,0.191,2.59,0.527,3.945,1.051,0.902-0.828,2.984-2.512,4.797-2.273l-0.145,1.09c-1.086-0.145-2.555,0.848-3.527,1.656,1.52,0.703,3.043,1.676,4.527,2.969,0.457-0.211,0.91-0.563,1.348-0.91l0.934-0.691c0.949-0.602,2.059-1.27,3.16-1.68l2.293-0.742c2.699-0.82,5.766-1.754,6.719-3.789,0.465-0.996,0.391-2.172-0.219-3.598l-0.168-0.398,0.426,0.016c1.004,0.031,2.473-0.215,3.316-0.996,0.164-0.156,0.449-0.922,0.602-1.328,0.031-0.078,0.039-0.09,0.063-0.152-0.609,0.141-1.281,0.156-1.855-0.07-0.563-0.227-0.965-0.598-1.16-1.074l-0.094-0.254,0.246-0.102c1.215-0.508,2.844-1.871,3.793-3.098-1.422,0.09-2.449-0.121-2.996-0.66-0.324-0.316-0.48-0.727-0.48-1.227,0-0.082,0.008-0.168,0.012-0.258,0.191-1.785,1.504-2.086,2.668-2.352,0,0,0.328-0.094,0.652-0.188-0.512-0.395-1.176-0.758-1.797-0.762-0.367-0.008-0.668,0.105-0.898,0.332l-0.418,0.41-0.047-0.586c-0.004-0.098-0.008-0.191-0.008-0.281,0-0.82,0.281-1.543,0.824-2.105,0.598-0.625,1.535-0.961,2.551-1.078-0.953-0.598-1.813-0.742-2.863-0.371l-0.328,0.113-0.035-0.344c-0.016-0.176-0.027-0.336-0.027-0.5,0-0.691,0.18-1.242,0.543-1.672,0.664-0.793,1.836-1.008,3.035-1.109-0.379-0.629-0.883-1.18-1.512-1.523l-0.664-0.281c-0.563-0.207-1.145-0.418-1.262-1.328-0.008-0.113-0.02-0.223-0.02-0.328,0-1.523,1.453-2.184,2.664-2.609-2.383-1.016-4.891-2.375-6.156-5.215-0.742-1.664-1.125-3.48-1.125-5.219,0-0.758,0.07-1.504,0.223-2.211,0.285-1.332,0.797-2.598,1.289-3.82,0.465-1.156,0.949-2.348,1.223-3.566,0.375-1.68,0.648-3.57,0.648-4.961,0-0.914-0.117-1.617-0.395-1.922l0.441-0.305c0.504,1.031,1.535,1.422,2.305,1.566,1.57,0.297,3.434-0.156,4.441-1.082,1.883-1.727,2.273-4.484,2.406-6.691,0.152-2.594-0.184-5.094-0.547-7.438-0.457-2.941-1.422-5.523-2.348-8.023l-0.348-0.793c-0.48-1.051-1.074-2.355-0.715-3.25,0.461-1.133,1.492-0.992,2.238-0.883,0,0,0.051,0.004,0.063,0.004-0.145-0.434-0.398-0.809-0.805-1.02-0.512-0.27-1.113-0.266-1.641,0.016l-0.371,0.199-0.031-0.426c-0.008-0.172-0.012-0.336-0.012-0.496,0-1.945,0.762-3.242,1.82-4.824,0.855-1.281,1.238-2.273,1.387-3.656-0.422,0.637-0.93,1.199-1.543,1.492-0.707,0.332-1.457,0.359-2.168,0.074l-0.445-0.176,0.375-0.293c2.332-1.816,2.848-3.973,2.977-6.496-0.816,1.547-1.953,2.703-3.156,3.883l-0.352,0.352-0.223-1.02c-0.191-0.84-0.348-1.594-0.348-2.125,0-0.18,0.02-0.336,0.063-0.465,0.09-0.273,0.414-0.566,0.898-0.984l0.465-0.438c0.836-1.047,1.227-2.242,1.227-3.805,0-0.258-0.016-0.523-0.035-0.805-0.074-0.965-0.227-1.758-0.461-2.422,0,0-0.328-0.539-0.441-0.73-0.039,0.379-0.094,0.754-0.188,1.133l-0.105,0.434c-0.297,1.273-0.918,3.93-2.363,3.883-1.402-0.043-1.777-2.66-1.875-3.785-0.262-3.098-0.121-6.48,0.375-9.277l0.121-0.668c0.531-3.023,1.039-5.879,2.262-8.727,0.816-1.902,1.559-3.457,2.34-4.887l1.527-2.398,0.297-0.414c1.551-2.141,2.887-3.988,6.191-2.574,2.277,0.977,2.797,3.457,2.797,5.523,0,0.914-0.102,1.746-0.199,2.328l-0.039,0.234c-0.496,3.008-1.066,6.418-2.309,9.297l-0.551,1.262c-1.266,2.871-2.465,5.594-2.465,8.727,0,0.223,0.004,0.453,0.016,0.68l0.031,0.594c0.164,3.063,0.344,6.219,1.793,8.945,1.063,1.992,1.996,4.156,1.996,6.656,0,0.891-0.121,1.824-0.391,2.813-0.563,2.035-1.664,3.66-2.73,5.238,0,0-0.203,0.313-0.402,0.609,2.359-0.34,4.508-4.336,5.355-5.918,0.543-1.031,1.531-3.203,1.531-5.449,0-0.875-0.145-1.762-0.531-2.598l-0.348-0.758,0.727,0.402c0.504,0.277,0.934,0.688,1.375,1.117,0.027-0.207,0.078-0.402,0.078-0.605,0-1.344-0.605-2.719-1.328-3.641l-1.61-1.61" fill="#9B7431"/>
<path d="M14.211,134.9c-1.086,1.195-2.906,2.137-4.527,1.617-1.512-0.48-1.477-2.23-1.086-3.492,0.191-0.621,0.465-1.328,0.973-1.746,0.633-0.516,1.566-0.652,2.352-0.777,0.891-0.141,1.82-0.023,2.469,0.66,1.014,1.06,0.741,2.72-0.181,3.74zm24.691,65.07c0.008-0.016,0.023-0.027,0.035-0.035,0.313-0.301,0.477-0.707,0.477-1.172,0-0.055,0-0.113-0.004-0.168-0.027-0.254-0.113-0.484-0.23-0.703,0.539,0.152,1.07,0.359,1.609,0.57,2.328-1.613,4.711-2.5,6.922-2.938-0.313-0.688-0.836-1.336-1.344-1.93-2.402-2.762-6.078-4.199-9.836-3.836l-1.813,0.379c-1.516,0.402-2.488,0.605-3.316-0.246-1.402-1.445-1.684-3.891-1.684-6.297,0-0.867,0.031-1.734,0.066-2.543l0.055-1.512s0.199-6.875,0.219-7.602c12.012-8.27,15.027-16.953,15.785-20.688,0.793,0.957,1.422,1.875,1.766,3.293,0.117,0.492,0.16,0.957,0.16,1.406,0,0.793-0.145,1.559-0.305,2.387l-0.352,2.492c0,0.063-0.004,0.125-0.004,0.195,0,2.27,1.988,4.699,4.199,5.066,1.004,0.168,1.969,0.043,2.895-0.078l1.367-0.141,2.359,0.078,0.802,0.05c2.02,0.113,4.309,0.383,5.977,1.535,2.871,1.992,5.766,11.082,6.738,14.77,0.008-0.066,0.02-0.137,0.031-0.207,0.121-0.75,0.238-1.531,0.355-2.328,0.02-0.145,0.039-0.289,0.063-0.434,0.113-0.809,0.219-1.645,0.328-2.488,0.023-0.203,0.047-0.391,0.074-0.594,0.102-0.824,0.199-1.664,0.289-2.508,0.031-0.23,0.055-0.453,0.078-0.688,0.094-0.828,0.184-1.664,0.266-2.5,0.023-0.258,0.047-0.508,0.074-0.77,0.082-0.828,0.16-1.664,0.234-2.496,0.023-0.246,0.047-0.5,0.066-0.75,0.074-0.84,0.148-1.676,0.215-2.504,0.02-0.23,0.035-0.457,0.055-0.68,0.066-0.855,0.137-1.707,0.195-2.543,0.016-0.156,0.023-0.32,0.039-0.477,0.063-0.898,0.129-1.781,0.184-2.641,0-0.008,0.008-0.02,0.008-0.027-0.711,0-1.414,0.063-1.965,0.137,0.059-2.98,0.715-5.117,1.949-6.168,0.137-0.113,0.273-0.211,0.41-0.293,0.012-0.219,0.023-0.445,0.035-0.656,0-0.012,0.004-0.027,0.004-0.043,0.043-0.789,0.082-1.523,0.117-2.199,0.004-0.07,0.012-0.133,0.012-0.195,0.012-0.242,0.023-0.469,0.039-0.695,0-0.102,0.008-0.203,0.012-0.305,0.012-0.242,0.027-0.48,0.035-0.707,0.004-0.105,0.008-0.203,0.016-0.309,0.008-0.168,0.016-0.344,0.023-0.508,0-0.043,0.004-0.086,0.004-0.129,0.004-0.074,0.004-0.133,0.012-0.195-2.789,0.805-5.359,3.578-6.402,5.809-1.082,2.32-1.117,4.734-1.148,7.066,0,0-0.027,0.949-0.047,1.621-2.402,0.359-5.734-0.297-7.215-2.051-0.48-0.574-0.727-1.211-0.727-1.926,0-0.496,0.125-1.031,0.359-1.609,0.652-1.582,1.887-2.766,3.195-4.008l1.711-1.719c1.973-2.195,3.445-4.289,4.512-6.414,0.781-1.555,0.957-3.305,0.957-5.008,0-0.734-0.035-1.453-0.063-2.152l-0.012-0.23-0.289-2.594-0.156-1.148c-0.129-1.039-0.418-2.082-0.699-3.09l-1.438-5.531-0.191-0.68s-0.973-3.355-1.371-4.73c6.492-4.004,11.699-9.379,14.965-13.234v-25.788h2.086c0.121-0.574,0.262-1.246,0.43-1.973,0.004-0.027,0.008-0.059,0.02-0.086v-0.012c0.055-0.223,0.102-0.453,0.156-0.688,0.027-0.105,0.047-0.211,0.07-0.316,0.008-0.008,0.008-0.012,0.008-0.012,0.082-0.352,0.172-0.715,0.262-1.082,0.02-0.09,0.039-0.176,0.066-0.266,0.004-0.02,0.008-0.031,0.012-0.055,0.176-0.703,0.363-1.422,0.563-2.148,0.004-0.008,0.004-0.012,0.012-0.023,0.004-0.016,0.004-0.031,0.008-0.047,0.23-0.816,0.469-1.625,0.723-2.418,0,0,0.004-0.004,0.004-0.012,0.035-0.102,0.063-0.203,0.098-0.301,0-0.004,0-0.004,0.004-0.012,0.242-0.734,0.496-1.438,0.754-2.094h0.004c0.035-0.086,0.07-0.176,0.109-0.258,0-0.004,0-0.004,0.004-0.008,0.098-0.234,0.195-0.465,0.293-0.688,0.004,0,0.004-0.004,0.004-0.004,0.016-0.035,0.031-0.063,0.043-0.098,0.164-0.34,0.324-0.668,0.484-0.961-1.063-1.617-5.059-8.258-4.57-16.313l0.039-0.641h4.352c-0.125-0.723-0.5-1.348-1.094-1.777-0.898-0.648-2.117-0.762-3.188-0.289-1.457,0.641-2.633,2.227-3.578,3.504l-0.352,0.469c-1.402,1.852-2.609,3.867-3.773,5.805,0,0-0.781,1.277-1.238,2.031-0.379-0.27-0.777-0.637-1.117-0.996l-0.582-0.59c-2.984-2.824-4.887-5.367-6.18-8.254-0.898-1.992-1.023-4.098-1.023-5.895l-0.008-0.422c-0.008-0.129-0.012-0.23-0.012-0.32,0-0.316,0.035-0.383,0.109-0.438,0.559-0.406,1.922-0.484,2.734-0.527l0.297-0.02c0.004,0,2.543-0.016,2.543-0.016l1.867,0.016c1.172-0.023,2.836-0.164,3.781-1.09,0.793-0.777,0.805-1.824,0.813-2.52,0.055-1.648-0.035-2.113-0.449-2.414l-0.293-0.207-0.516,0.113-1.109,0.238-3.098,0.57c-0.605,0.141-1.309,0.238-2.004,0.301,0.207-0.133,0.406-0.234,0.617-0.395,0.813-0.613,1.711-1.152,2.828-1.691,0.906-0.441,1.586-0.594,2.324-0.535l0.426,0.039c0.875,0.09,1.863,0.188,2.742-0.09,1.27-0.402,2.121-1.32,2.785-2.164,0.586-0.754,0.828-0.871,1.621-0.797,0.723,0.063,2.875-0.07,3.273-1.48,0.383-1.363-0.754-2.5-2.078-2.918-0.941-0.305-1.793-0.191-2.613-0.09l-0.566,0.07c-1.5,0.156-3.426-0.395-4.047-1.719l-0.074-0.223c-0.086-0.305-0.293-1.031-1.391-1.055l-1.078,0.359-0.266,0.133c-1.59,0.48-3.559,0.652-5.293,0.805l-0.473,0.043c-0.801,0.074-1.539-0.328-2.395-0.785-0.836-0.453-1.789-0.969-2.898-0.992-1.543-0.031-3.25,0.191-5.086,0.566,0.047-0.301,0.117-0.602,0.117-0.926,0-1.785-0.621-3.773-0.906-4.453l-0.684-1.172c-0.254-0.367-0.492-0.715-0.582-1.051l-0.066-0.301c-0.156-0.691-0.371-1.641-1.191-1.82-0.512-0.109-1.008,0.137-1.465,0.75-1.289,1.711-1.363,4.516-0.777,6.277,0.293,0.883,0.422,1.457,0.348,2.332-0.117,1.418-0.418,1.594-0.43,1.598-0.023,0.016-0.172,0.027-0.492-0.152l-1.148-0.891c-0.691-0.609-1.473-1.301-2.41-1.5l-0.648,1.469c1.008,0.734,2.027,2.082,2.727,3.605,0,0,0.07,0.137,0.07,0.141-0.469-0.16-1.398-0.48-1.398-0.48l-1.953-0.633,0.395,1.465c0.152,0.566,0.508,1.031,0.82,1.441l0.316,0.438c0.211,0.313,0.266,0.453,0.297,0.531-0.008,0.008-0.246,0.273-0.246,0.273-1.379,1.852-2.121,3.852-2.328,6.277-0.168,1.91-0.25,3.906-0.25,6.105v0.027c0.004,4.141,0.859,8.227,1.781,12.02,1.191,4.914,1.895,8.992,2.199,12.848l0.105,1.223c0.113,1.273,0.227,2.578,0.227,3.867,0,0.656-0.031,1.313-0.105,1.961-0.227,1.953-0.617,3.301-1.16,4.027-0.328-0.496-0.699-0.945-1.07-1.336-0.441-0.469-0.867-0.91-1.074-1.383-0.5-1.16-0.586-2.758-0.586-4.23,0-0.383,0.008-0.758,0.012-1.121l0.004-0.434,0.023-0.41-0.066-1.328-0.48-0.941-0.215-0.352-0.113-0.77c-0.023-0.508-0.047-1.133-0.563-1.848-0.375-0.523-0.563-0.973-0.563-1.453,0-0.563,0.262-1.156,0.797-1.941,0.938-1.371,1.398-2.93,1.398-4.707,0-0.918-0.121-1.895-0.371-2.938-0.586-2.5-1.34-5.145-2.238-7.855l-1.25-3.535-1.555-4.484c-0.359-1.18-0.602-2.625-0.602-3.945,0-1.027,0.148-1.98,0.484-2.668l-1.246-1c-3.504,2.941-4.754,8.277-4.754,12.289,0,1.488,0.293,2.84,0.578,4.145l0.309,1.52c0.449,2.445-0.066,2.875-0.234,2.949-0.082,0.035-0.395-0.117-0.586-0.203-0.508-0.246-1.27-0.613-2.074-0.152-1.547,0.887-0.387,3.004,0.313,4.266l0.328,0.637,0.938,2.723,0.305,0.934,2.992,9.137,5.516,17.387c0.016,0.035,0.18,0.484,0.18,0.484,0.5,1.328,1.117,2.977,0.477,4.051-0.152,0.25-0.387,0.406-0.711,0.48-0.801,0.176-1.895-0.195-2.559-0.656-0.582-0.395-0.848-1.035-1.16-1.777-0.344-0.809-0.734-1.73-1.598-2.465l-1-0.664c-0.41-0.234-0.793-0.461-1.02-0.758-0.23-0.301-0.234-0.578-0.219-1.137l-0.031-0.996c-0.18-1.352-0.738-2.391-1.656-3.09l-0.758-0.496c-0.527-0.313-0.766-0.457-0.902-0.977l-0.09-1.395-0.09-1.652c-0.211-1.105-0.441-1.852-1.109-2.875l-0.566-0.766c-0.391-0.5-0.762-0.969-0.852-1.449-0.156-0.855-0.16-1.84-0.016-2.57l0.531-1.824c0.457-1.344,0.926-2.73,0.668-4.242-0.352-2.098-1.973-3.742-3.395-5.195l-1-1.043-3.066-3.281c-2.578-2.719-5.016-5.281-7.176-8.32l-2.215-3.27-1.504-2.258c-0.727-1.063-1.336-2.246-1.93-3.391l-1.766-3.152c-0.383-0.59-0.957-1.484-1.891-1.57-0.551-0.055-1.082,0.184-1.582,0.707-0.949,0.996-1.098,2.77-1.117,3.484-0.004,0.207-0.012,0.418-0.012,0.633,0,0.809,0.063,1.66,0.344,2.547l0.352,0.922c0.211,0.504,0.395,0.938,0.406,1.402l-0.056,0.477-0.043,1.082,0.551,1.133,0.23,0.324c0.359,0.652,0.559,1.93,0.559,2.938,0,0.258-0.012,0.496-0.039,0.707-0.16,1.199-0.473,2.5-0.984,4.09-0.566,1.766-1.203,3.391-1.895,4.836l-0.258,0.531,0.426,0.414c0.676,0.66,0.941,1.98,0.941,3.582,0,2.898-0.859,6.738-1.699,9.316l-0.281,0.859,0.875,0.199c2.594,0.59,3.141,4.977,3.141,7.617,0,0.445-0.016,0.844-0.039,1.16l-0.063,0.844,0.828,0.043c1.336,0.074,2.242,0.496,2.781,1.297,0.445,0.676,0.594,1.539,0.594,2.363,0,1.492-0.469,2.875-0.473,2.898l-0.301,0.867,0.891,0.199c2.113,0.484,2.555,4.371,2.555,6.184,0,0.109,0,0.215-0.008,0.305l-0.016,0.664,0.633,0.164c3.93,0.992,6.555,7.742,6.578,7.813l0.145,0.383,0.395,0.113c2.203,0.613,6.859,4.137,9.234,6.066-1.527,1.242-2.859,2.938-3.953,4.367,0,0-5.383,7.742-6,9.367l-0.895,1.645s-1.094,2.227-1.199,2.617c-1.992-2.082-5.707-1.41-5.707-1.41-0.273-0.398-0.527-1.27-0.668-2.324-0.035-0.238-0.055-0.465-0.055-0.668,0-0.176,0.035-0.328,0.059-0.484,0.988,0.695,2.18,0.93,2.66,1.016,2.859,0.527,4.879-0.164,6.184-2.125,1.266-1.895,1.484-4.992,0.504-7.055-0.855-1.781-2.434-2.875-4.438-3.078-2.316-0.227-4.84,0.777-6.551,2.461-0.547-0.824-0.902-1.691-0.965-2.813-0.016-0.184-0.031-0.477-0.031-0.809,0-0.367,0.031-0.781,0.098-1.16,0.211,0.25,0.402,0.531,0.691,0.715,0.773,0.512,1.641,0.613,2.367,0.273,1.293-0.598,1.438-2.246,1.539-3.332l0.027-0.301c0.141-1.363,0.336-2.563,0.609-3.672l0.34-0.922c0.34-0.844,0.73-1.809,0.559-2.629l-0.242-1.137-0.98,0.613c-2.105,1.313-4.766,1.945-6.785,1.617-3.105-0.496-5.207,1.461-5.301,1.547l-1.125,1.061,1.508,0.332c1.383,0.305,2.047,1.438,2.352,2.141-0.832,0.762-1.48,2.449-1.738,3.234-0.309,0.945-0.457,1.887-0.457,2.938,0,0.477,0.031,0.977,0.094,1.508,0.176,1.559,0.367,3.25,1.516,4.555l0.172,0.203c0.422,0.492,0.965,1.078,1.609,1.461-1.125,1.836-2.055,3.543-2.23,5.969-0.035,0.512-0.066,1.047-0.066,1.578,0,0.945-0.086,1.422,0.188,2.266-1.289,0.566-2.094,2.125-2.805,3.789-0.625,1.473-0.926,2.996-0.926,4.492,0,3.547,1.715,6.934,4.867,9.164,3.551,2.52,8.727,0.645,11.617-1.602,1.734,1.914,2.406,5.27,2.406,7.813v0.121c-0.012,2.098-0.66,4.098-1.371,6.137-0.395,1.121-0.875,2.414-1.469,3.551-0.332,0.641-0.832,1.199-1.363,1.793l-0.766,0.895c-0.637,0.789-0.957,1.605-0.957,2.371,0,0.52,0.141,1.012,0.438,1.461,0.48,0.734,1.09,1.281,1.676,1.813,0.547,0.492,1.066,0.961,1.441,1.543,0.801,1.238,1.488,2.652,2.055,4.199,1.273,3.496,1.895,7.48,1.895,12.164,0,0.375-0.004,0.754-0.012,1.141-0.008,0.367-0.266,4.098-0.434,5.68-2.379-0.406-4.539-0.621-7.234-0.008-2.152,0.492-3.785,1.281-4.855,2.355-0.34,0.348-1.609,1.895-1.508,3.145,0.039,0.449,0.25,0.836,0.602,1.086l0.641,0.461,0.477-0.629c0.664-0.875,2.563-1.523,3.891-1.563,0.168,0.684,0.578,1.039,0.859,1.195,1.469,0.832,3.914-0.496,4.656-1.023,1.336-0.969,2.84-1.113,4.348-0.43,0.898,0.41,1.602,1.012,2.348,1.645l1.477,1.168c1.836,1.289,3.164,1.691,4.18,1.277,1.348-0.555,1.359-1.891,1.367-2.766v-0.063c1.527,0.613,3.102,1.195,4.668,1.457,1.265,0.23,2.195,0.09,2.745-0.41" fill="#871A3C"/>
<path d="M5.387,114.45c0.387,0.453,0.883,1.031,1.395,1.293,0.656-0.938,1.621-2.266,2.563-3.367-0.828-1.113-1.273-2.305-1.359-3.801-0.086-1.504-0.039-3.328,1.133-4.145l0.695-0.488-0.016,0.855c-0.008,0.477,0.352,1.055,0.871,1.395,0.195,0.133,0.699,0.406,1.168,0.188,0.641-0.301,0.742-1.461,0.82-2.309l0.031-0.309c0.145-1.426,0.352-2.684,0.637-3.844l0.391-1.105c0.172-0.414,0.332-0.867,0.426-1.273-2.242,1.203-4.805,1.809-6.914,1.465-1.625-0.262-2.883,0.316-3.598,0.77,2.055,0.941,2.637,3.242,2.66,3.352l0.141,0.594s-0.57-0.066-0.652-0.07c-0.316,0.094-1.02,1.438-1.473,2.828-0.262,0.809-0.391,1.629-0.391,2.547,0,0.43,0.027,0.875,0.086,1.359,0.16,1.434,0.32,2.852,1.203,3.859l0.183,0.21" fill="#9B7431"/>
<path d="M20.063,112.48c-0.844-1.758-2.336-2.234-3.438-2.375-3.93-0.477-6.586,3.133-6.586,3.133-0.668,0.801-1.391,1.762-2.047,2.676h0.035l-0.566,0.918c-1.242,2.012-2.223,3.602-2.391,5.969-0.035,0.492-0.063,1-0.063,1.508,0,0.59-0.039,0.797,0.07,1.336,2.32-1.508,4.488-1.777,6.059-2.012-0.297-0.742-0.457-1.652-0.535-2.207-0.098-0.707-0.086-1.313,0.055-1.844,0.07-0.27,0.234-0.77,0.457-1.082,0.922-1.941,2.754-5.215,4.457-4.582,0.602,0.219,0.922,0.555,0.953,1.004,0.016,0.246-0.059,0.715-0.738,1.07-0.316,0.164-1.184,0.492-1.762,0.238-0.5,0.668-1.074,1.625-1.617,2.734,0.52,0.414,1.273,0.719,2.32,0.914,2.379,0.434,3.898-0.055,4.922-1.594,1.024-1.54,1.211-4.14,0.415-5.81" fill="#9B7431"/>
<path d="M85.828,27.641c-0.398,1.41-2.551,1.543-3.273,1.48-0.793-0.074-1.035,0.043-1.621,0.797-0.664,0.844-1.516,1.762-2.785,2.164-0.879,0.277-1.867,0.18-2.742,0.09l-0.426-0.039c-0.738-0.059-1.418,0.094-2.324,0.535-1.117,0.539-2.016,1.078-2.828,1.691-0.211,0.16-0.41,0.262-0.617,0.395,0.695-0.063,1.398-0.16,2.004-0.301l3.098-0.57,1.109-0.238,0.516-0.113,0.293,0.207c0.414,0.301,0.504,0.766,0.449,2.414,0,0.039-0.004,0.086-0.004,0.133l0.609-0.047,0.426-0.082,1.395-0.316,0.145-0.039c0.746-0.215,1.672-0.488,2.367-1.234l0.684-0.879,0.566-0.73c0.762-0.742,2.648-0.746,3.457-0.746,1.473,0,3.098-0.309,3.969-2.574,0.512-1.34,0.582-2.641,0.609-3.969l0.078-3.691-2.027,3-0.445,0.664-0.602,0.777-1.363,0.883c-0.199,0.105-0.441,0.172-0.699,0.223-0.01,0.037-0.006,0.072-0.018,0.115" fill="#231F20"/>
<path d="M82.555,29.121c-0.793-0.074-1.035,0.043-1.621,0.797-0.664,0.844-1.516,1.762-2.785,2.164-0.879,0.277-1.867,0.18-2.742,0.09l-0.426-0.039c-0.738-0.059-1.418,0.094-2.324,0.535-1.117,0.539-2.016,1.078-2.828,1.691-0.211,0.16-0.41,0.262-0.617,0.395,0.695-0.063,1.398-0.16,2.004-0.301l3.098-0.57,1.109-0.238,0.516-0.113,0.293,0.207c0.324,0.23,0.449,0.574,0.457,1.477,0.129-0.008,0.258-0.02,0.387-0.047,0.578-0.117,1.152-0.207,1.73-0.379,0.711-0.207,1.5-0.41,2.016-0.973,0.473-0.512,0.789-1.156,1.289-1.645,1.012-0.984,2.895-1.055,4.215-1.055,1.535-0.004,2.395-0.41,2.953-1.875,0.449-1.176,0.512-2.348,0.535-3.598-0.422,0.563-0.652,1.156-1.227,1.625-0.461,0.371-1.023,0.723-1.535,1-0.66,0.348-1.457,0.422-2.23,0.469-0.795,0.383-1.814,0.422-2.267,0.383" fill="#FFF"/>
<path d="M86.859,64.434c-1.063-1.617-5.059-8.258-4.57-16.313l0.039-0.641h3.07c-0.102-0.305-0.277-0.566-0.539-0.758-0.531-0.379-1.305-0.445-1.965-0.156-1.152,0.508-2.223,1.949-3.082,3.105l-0.355,0.48c-1.363,1.801-2.547,3.777-3.695,5.691l-1.195,1.965c2.07,1.707,7.109,6.383,9.863,13.152,0.703-2.494,1.539-4.939,2.429-6.525" fill="#9B7431"/>
<path d="M15.008,135.63c-1.305,1.445-3.563,2.598-5.652,1.93-1.797-0.578-2.516-2.531-1.793-4.867,0.246-0.789,0.594-1.672,1.324-2.266,0.855-0.699,1.949-0.867,2.832-1.008l0.039-0.004c1.41-0.219,2.594,0.121,3.414,0.988,1.473,1.54,1.074,3.87-0.164,5.23zm23.07,63.4c0.047-0.047,0.105-0.125,0.086-0.32-0.031-0.367-0.629-0.859-1.031-1.191l-1.242-1.074,1.059-0.063c1.723-0.145,3.215,0.469,4.66,1.059l0.496,0.195c1.465-0.848,2.938-1.426,4.359-1.813-0.258-0.469-0.648-0.949-1.035-1.391-2.141-2.461-5.422-3.738-8.781-3.414l-1.613,0.34c-1.477,0.398-3.145,0.836-4.527-0.586-2.281-2.352-2.109-6.461-1.969-9.77l0.055-1.488,0.238-8.238,0.188-0.121c15.309-10.375,15.832-21.711,15.84-21.82l0.031-1.125,1.316,1.535c1.137,1.324,2.117,2.461,2.613,4.504,0.391,1.633,0.125,3.008-0.129,4.336l-0.332,2.313c-0.082,1.684,1.504,3.68,3.156,3.953,0.824,0.137,1.652,0.031,2.527-0.082l1.473-0.145,2.496,0.07,0.785,0.051c2.195,0.121,4.688,0.426,6.617,1.758,2.805,1.941,5.25,8.848,6.477,12.852,0.004-0.02,0.004-0.039,0.008-0.055,0.098-0.691,0.191-1.406,0.281-2.121,0.023-0.184,0.047-0.367,0.07-0.559,0.09-0.73,0.18-1.461,0.266-2.207,0.004-0.035,0.008-0.074,0.016-0.113,0.082-0.719,0.16-1.441,0.238-2.172,0.02-0.207,0.039-0.406,0.063-0.613,0.074-0.734,0.152-1.473,0.219-2.215,0.016-0.145,0.031-0.297,0.043-0.449,0.063-0.625,0.117-1.246,0.172-1.867,0.02-0.238,0.047-0.477,0.063-0.715,0.066-0.699,0.125-1.398,0.18-2.09,0.023-0.246,0.043-0.492,0.063-0.742,0.039-0.504,0.078-1.008,0.117-1.504,0.02-0.273,0.043-0.551,0.063-0.824,0.047-0.652,0.098-1.289,0.141-1.926,0.008-0.078,0.012-0.156,0.016-0.234-0.746,0.016-1.656,0.094-2.625,0.254l-0.496,0.082-0.012-0.504c-0.09-3.961,0.73-6.695,2.438-8.125,0.422-0.355,0.855-0.59,1.262-0.742,0-0.023,0.004-0.051,0.004-0.078,0.031-0.551,0.059-1.066,0.086-1.551,0.004-0.082,0.008-0.156,0.008-0.238,0.02-0.387,0.039-0.754,0.059-1.102,0.004-0.063,0.004-0.125,0.012-0.184-2.203,0.836-4.336,3.137-5.211,4.996-0.969,2.07-0.996,4.242-1.031,6.547l-0.078,2.695-0.32,0.07c-2.824,0.676-7.137-0.125-9.055-2.398-0.523-0.621-1.023-1.531-1.023-2.746,0-0.613,0.129-1.313,0.445-2.09,0.754-1.824,2.148-3.156,3.5-4.441l1.641-1.645c1.891-2.109,3.309-4.117,4.32-6.133,0.668-1.336,0.824-2.859,0.824-4.414,0-0.711-0.035-1.422-0.063-2.125l-0.012-0.23-0.277-2.465-0.16-1.18c-0.117-0.945-0.391-1.941-0.66-2.902l-1.441-5.535-0.188-0.676-0.797-2.762c-12.355-0.109-18.25,12.746-18.25,12.746,2.977-12.473,14.293-15.113,17.414-15.625l0.289-0.176c7.211-4.313,12.961-10.57,16.137-14.469v-23.838h2.086c0.059-0.281,0.125-0.594,0.195-0.918,0.012-0.063,0.023-0.125,0.039-0.188,0.234-1.066,0.516-2.313,0.848-3.617-2.484-7.645-8.398-12.992-10.332-14.578-0.777-0.273-1.449-0.969-2.043-1.602l-0.531-0.539c-3.109-2.938-5.105-5.609-6.469-8.648-1-2.223-1.125-4.594-1.133-6.414l-0.008-0.383c-0.02-0.66-0.047-1.352,0.625-1.828,0.848-0.609,2.32-0.695,3.387-0.758l0.289-0.02,2.652-0.012,1.813,0.012c1.484-0.027,2.469-0.273,2.934-0.73,0.391-0.383,0.43-0.961,0.434-1.633,0.008-0.297,0.016-0.531,0.016-0.727,0-0.242-0.012-0.375-0.016-0.492-0.406,0.094-0.93,0.215-0.93,0.215l-3,0.547c-0.82,0.195-3.625,0.766-5.266,0.035l-0.898-0.398,1.035-0.469c0.977-0.438,1.816-0.82,2.711-1.492,0.879-0.664,1.84-1.246,3.035-1.82,0.789-0.383,1.75-0.758,2.969-0.656l0.438,0.043c0.758,0.074,1.617,0.156,2.254-0.043,0.941-0.297,1.605-1.012,2.18-1.742,0.73-0.938,1.352-1.391,2.707-1.27,0.77,0.066,1.859-0.195,1.965-0.574,0.191-0.676-0.762-1.215-1.25-1.371-0.684-0.219-1.332-0.137-2.086-0.039l-0.598,0.074c-1.969,0.199-4.422-0.57-5.301-2.43l-0.145-0.418s-0.023-0.082-0.039-0.117c-0.035-0.008-0.172-0.023-0.172-0.023l-0.449,0.195-0.512,0.238c-1.719,0.523-3.75,0.699-5.547,0.855l-0.469,0.043c-1.18,0.102-2.148-0.418-3.098-0.93-0.781-0.426-1.523-0.828-2.332-0.844-1.852-0.039-3.898,0.234-6.242,0.832l-1.617,0.406,1.211-1.152c0.336-0.32,0.461-0.938,0.461-1.676,0-1.324-0.414-3.027-0.816-4l-0.561-0.936c-0.305-0.438-0.613-0.895-0.758-1.434l-0.09-0.352c-0.043-0.207-0.141-0.605-0.242-0.793-0.082,0.082-0.195,0.199-0.195,0.199-0.996,1.32-1.086,3.641-0.59,5.117,0.332,1.008,0.496,1.758,0.402,2.84-0.078,0.98-0.277,2.168-1.078,2.602-0.461,0.254-1.023,0.199-1.68-0.156,0,0-0.273-0.211-0.566-0.434,0.371,0.602,0.664,1.152,0.816,1.484l0.059,0.121c0.133,0.27,0.293,0.613,0.293,0.992,0,0.117-0.016,0.234-0.055,0.359l-0.492,0.668-0.816-0.105-0.219-0.098s-0.582-0.195-1.043-0.355c0.023,0.039,0.031,0.074,0.063,0.105l0.371,0.516c0.27,0.402,0.527,0.867,0.527,1.313,0,0.094-0.012,0.18-0.035,0.266l-0.371,0.559-0.117,0.121c-1.23,1.656-1.895,3.445-2.078,5.625-0.168,1.875-0.246,3.84-0.246,6.027,0,4.008,0.84,8.004,1.742,11.723,1.211,4.977,1.918,9.121,2.23,13.043l0.105,1.211c0.117,1.301,0.234,2.637,0.234,3.973,0,0.711-0.035,1.414-0.117,2.117-0.23,1.977-0.738,4.699-2.441,5.531l-0.441,0.215-0.156-0.469c-0.238-0.719-0.766-1.27-1.328-1.863-0.504-0.523-1.02-1.07-1.316-1.746-0.598-1.383-0.695-3.137-0.695-4.73,0-0.398,0.008-0.777,0.012-1.145l0.008-0.43,0.027-0.492-0.035-0.918-0.277-0.516-0.379-0.664-0.184-1.145c-0.02-0.418-0.035-0.758-0.332-1.168-0.563-0.789-0.801-1.508-0.801-2.195,0-0.898,0.41-1.75,1.02-2.648,0.785-1.156,1.176-2.48,1.176-4.012,0-0.816-0.109-1.691-0.332-2.621-0.582-2.469-1.328-5.074-2.211-7.75l-1.238-3.5-1.574-4.547c-0.316-1.031-0.664-2.695-0.664-4.348,0-0.504,0.051-0.996,0.129-1.48-2.289,2.781-3.141,6.902-3.141,10.129,0,1.352,0.262,2.578,0.547,3.879l0.32,1.555c0.07,0.387,0.203,1.105,0.203,1.852,0,1.012-0.242,2.078-1.172,2.484-0.602,0.266-1.164-0.008-1.617-0.223-0.426-0.207-0.695-0.324-0.922-0.191-0.469,0.27,0.441,1.934,0.785,2.559l0.41,0.805,0.945,2.77,0.309,0.93,2.992,9.148,5.523,17.391c-0.004-0.016,0.156,0.418,0.156,0.418,0.563,1.504,1.332,3.555,0.371,5.156-0.328,0.547-0.852,0.91-1.508,1.055-1.203,0.27-2.637-0.23-3.527-0.84-0.883-0.605-1.25-1.484-1.605-2.328-0.316-0.75-0.617-1.457-1.25-1.992l-0.824-0.539c-0.496-0.289-1.008-0.586-1.383-1.086-0.52-0.668-0.492-1.344-0.48-1.941l-0.016-0.785c-0.133-1.012-0.531-1.77-1.172-2.258l-0.641-0.414c-0.598-0.355-1.207-0.719-1.477-1.738l-0.133-1.738-0.066-1.398c-0.184-0.98-0.363-1.563-0.918-2.41l-0.508-0.684c-0.469-0.594-0.957-1.215-1.098-2-0.188-1.016-0.195-2.156-0.02-3.043l0.578-1.988c0.422-1.25,0.82-2.43,0.621-3.625-0.293-1.703-1.691-3.133-3.055-4.52l-1.031-1.078-3.051-3.262c-2.496-2.633-5.074-5.352-7.285-8.453l-2.242-3.313-1.488-2.238c-0.773-1.125-1.402-2.344-2.012-3.52l-1.698-3.049c-0.227-0.344-0.633-0.977-0.969-1.008-0.188-0.02-0.414,0.164-0.566,0.328-0.527,0.555-0.746,1.734-0.77,2.645-0.008,0.191-0.012,0.387-0.012,0.582,0,0.711,0.055,1.445,0.285,2.18l0.316,0.82c0.238,0.563,0.484,1.148,0.504,1.848l-0.074,0.722-0.043,0.656,0.313,0.578,0.32,0.48c0.484,0.859,0.727,2.332,0.727,3.539,0,0.316-0.016,0.621-0.051,0.887-0.172,1.273-0.5,2.645-1.035,4.313-0.555,1.727-1.18,3.313-1.852,4.754,0.797,0.973,1.109,2.512,1.109,4.258,0,3.621-1.219,7.953-1.625,9.285,3.234,1.168,3.68,6.168,3.68,8.617,0,0.391-0.008,0.711-0.023,0.938,1.477,0.184,2.633,0.73,3.32,1.758,0.605,0.922,0.797,2.039,0.797,3.082,0,1.23-0.266,2.344-0.422,2.906,2.871,1.129,3.094,5.996,3.094,7.277,3.348,1.078,5.66,5.25,6.602,7.273,2.496-1.293,15.219-7.813,17.434-7.391,0,0,4.469,0.461,3.543,2.484,0,0-8.164,6.371-10.16,8.391,0,0,0-3.883-4.465-4.973,0,0-1.898,0.957-5.266,2.723,2.75,1.184,7.035,4.527,8.809,5.961,3.496-0.473,9.234,0.223,15.34,7.07l-1.004,0.914c-5.324-5.961-10.176-6.977-13.348-6.762l-0.227,0.141c-1.719,1.113-3.262,3.137-4.5,4.762l-3.727,5.219c-0.719,1.051-1.531,2.324-2.102,3.824l-1.004,1.871c-0.246,0.496-0.457,0.945-0.652,1.465-0.227,0.598-1.254,2.078-1.219,2.715-0.816-1.441-1.949-2.363-3.133-2.641-1.672-0.398-3.344-0.047-4.984,0.336-3.414,0.789-6.758,2.543-8.188,5.922-0.57,1.348-0.848,2.719-0.848,4.055,0,3.129,1.523,6.07,4.355,8.078,3.129,2.219,8.25,0.254,10.746-2.016l0.285-0.258,0.289,0.25c2.43,2.086,3.266,6.371,3.238,9.398-0.02,2.289-0.699,4.402-1.449,6.547-0.406,1.164-0.902,2.508-1.531,3.715-0.414,0.777-0.988,1.422-1.547,2.047l-0.727,0.844c-0.496,0.621-0.98,1.535-0.445,2.344,0.391,0.602,0.914,1.07,1.469,1.566,0.586,0.535,1.184,1.078,1.652,1.797,0.852,1.32,1.59,2.82,2.184,4.453,1.43,3.93,2.07,8.43,1.957,13.773,0,0.063-0.277,6.547-0.727,6.922l-0.152,0.125-0.203-0.031c-2.586-0.469-4.781-0.777-7.559-0.141-1.918,0.434-3.352,1.109-4.246,2.008-0.379,0.383-0.984,1.289-1.102,1.902,1.32-1.113,3.664-1.75,5.125-1.516l0.391,0.059-0.023,0.402c-0.043,0.672,0.211,0.816,0.293,0.863,0.676,0.383,2.449-0.32,3.32-0.957,1.699-1.215,3.684-1.41,5.586-0.547,1.059,0.484,1.867,1.168,2.648,1.824l1.379,1.102c1.859,1.309,2.68,1.277,3,1.148,0.547-0.227,0.582-0.766,0.586-1.617,0.004-0.469,0.008-0.957,0.188-1.359l0.164-0.391,0.391,0.168c1.754,0.715,3.609,1.449,5.387,1.754,0.806,0.16,1.482,0.11,1.716-0.1" fill="#9B7431"/>
<path d="M16.715,88.93s13.551-4.043,14.008-3.887c0.465,0.156,5.082,0.465,5.391,1.867,0,0-7.699,5.594-10.934,7.461,0,0-2.465-4.199-5.082-4.508,0,0-2.926,0.621-3.383,1.086,0,0-1.082-0.308,0-2.019" fill="#871A3C"/>
<path d="M12.359,77.422l16.316,0.777s6.473,2.953,2.16,4.664c-4.313,1.707-11.547,3.727-11.547,3.727s0.305-5.125-1.695-5.125-1.387-0.156-1.078,0.621c0.305,0.777,1.539,3.109,1.078,4.504-0.465,1.402-2.004,0.313-2.004,0.313s0.152-4.816-2.926-5.75c0.001-0.001,0.927-1.712-0.304-3.731" fill="#871A3C"/>
<path d="M8.969,54.418s4.313,5.598,3.695,7.461c0,0,0.77,0.777,1.234,0,0.461-0.773,0.461-3.262-0.309-3.73,0,0,2.773,1.711,2,4.195,0,0,8.469,1.09,10.777,0.781,0,0,1.078-2.953-1.844-4.508-2.924-1.558-15.553-4.199-15.553-4.199" fill="#871A3C"/>
<path d="M9.125,66.23s5.852,5.906,4.465,9.484c0,0,1.078,0.773,1.387,0.156,0.305-0.625,0.766-4.508,0-5.133,0,0,2.152,3.422,1.387,5.133,0,0,10.004,0.305,11.391-2.492,1.386-2.792-6.403-8.546-18.63-7.148" fill="#871A3C"/>
<path d="M22.871,54.738l-12.012-9.328s-0.309-2.641,1.852-0.777c2.152,1.867,9.547,9.015,10.16,10.105" fill="#871A3C"/>
<path d="M57.594,41.227c-2.297,8.207,4.391,18.164,7.367,22.066,3.789,4.953,7.363,10.324,7.871,16.016,0.602,6.727,0.051,16.102-5.992,22.5-2.508,2.656-5.52,4.516-8.711,6.488-0.824,0.508-1.676,1.035-2.508,1.57l0.727,1.152c0.824-0.527,1.668-1.047,2.488-1.555,3.125-1.93,6.355-3.93,8.984-6.715,6.391-6.77,6.988-16.555,6.363-23.57-0.535-6.035-4.23-11.602-8.148-16.723-2.227-2.914-9.324-13.031-7.133-20.859l-1.308-0.361" fill="#871A3C"/>
<path d="M59.742,41.305c-2.008,5.355,2.063,10.102,5.656,14.293,1.805,2.102,3.508,4.086,4.336,5.969l1.238-0.555c-0.91-2.07-2.676-4.133-4.547-6.309-3.512-4.094-7.137-8.32-5.414-12.918l-1.269-0.48" fill="#871A3C"/>
<path d="M51.23,89.465c-0.605,3.176-2.09,7.727-5.367,9.039,0.004,0.016-0.238-0.172-0.234-0.172,0.184-2.586,2.492-4.719,2.902-7.359,0.211-1.34-0.426-5.895,0.434-6.816,2.605-2.813,2.461,4.296,2.265,5.308" fill="#871A3C"/>
<path d="M65.18,25.457c1.219,0.141,3.98,0.859,3.551,2.578-0.426,1.734-3.109,1.547-3.879,0.309-0.457-0.742,0.125-1.68-1.43-1.43-0.809,0.133-1.578,1.832-2.461,1.406-1.328-0.637,0.582-2.188,1.234-2.504,0.895-0.437,2.02-0.464,2.985-0.359" fill="#871A3C"/>
<path d="M149.22,235.64c-19.281,17.055-40.559,17.344-44.633,17.23-4.129,0.113-25.414-0.176-44.691-17.23-21.219-18.773-29.883-23.828-42.758-18.945-4.813,1.824-7.906,4.336-9.211,7.461-0.5,1.188-0.66,2.313-0.66,3.254,0,1.641,0.48,2.754,0.512,2.828,0,0.004,2.066,4.59,3.133,6.957-1.82,0.148-5.125,0.246-8.547-0.555l-2.368-0.56,1.156,2.145c2.273,4.211,8.102,15.961,7.785,19.797l-0.074,0.891,0.863,0.25c1.191,0.344,28.34,7.883,35.23-4.836,5.273,3.863,31.188,21.703,59.59,21.945,28.414-0.242,54.332-18.082,59.609-21.938,4.977,9.184,20.52,7.836,29.629,6.109,6.391-1.219,6.391-1.457,6.391-2.336-0.32-3.922,5.508-15.672,7.781-19.883l1.156-2.145-2.367,0.559c-3.438,0.805-6.73,0.707-8.547,0.555,0.863-1.914,3.129-6.953,3.129-6.953,0.035-0.07,0.52-1.191,0.52-2.832,0-0.941-0.164-2.059-0.66-3.25-1.305-3.129-4.402-5.641-9.215-7.465-12.88-4.87-21.55,0.18-42.76,18.96" fill="#231F20"/>
<path d="M11.914,236.75l0.086-0.03c0.051,0.129,5.105,12.758,10.586,19.809,1.473,0.289,11.691,1.898,19.969-6.523-0.648-0.512-1.457-1.121-2.375-1.766-1.277,0.922-7.508,5.266-11.137,5.266-4.375,0-9.488-1.336-9.488-5.109,0-3.914,4.891-6.023,9.488-6.023,6.703,0,15.547,7.875,15.887,8.188,0.285,0.219,28.523,22.098,59.633,22.359h0.129c31.113-0.262,59.352-22.141,59.605-22.336,0.371-0.336,9.211-8.211,15.914-8.211,4.602,0,9.492,2.109,9.492,6.023,0,3.773-5.113,5.109-9.492,5.109-3.625,0-9.855-4.344-11.133-5.266-0.918,0.645-1.727,1.254-2.379,1.766,8.281,8.422,18.5,6.813,19.973,6.523,4.398-5.652,8.516-14.891,10-18.398-0.051-0.004-0.086-0.008-0.086-0.008l3.75-8.332s3.332-7.496-8.742-12.074c-12.082-4.578-19.992-0.422-41.648,18.742-19.691,17.422-41.582,17.609-45.383,17.504-3.805,0.105-25.699-0.082-45.391-17.504-21.656-19.164-29.566-23.32-41.641-18.742-12.078,4.578-8.746,12.074-8.746,12.074l3.132,6.96" fill="#BAC1CA"/>
<path d="M33.613,223.8l1.734,1.551-0.969,5.633,3.234-3.59,1.738,1.566-5.836,6.488-1.742-1.566,0.961-5.594-3.211,3.566-1.746-1.566,5.837-6.49" fill="#231F20"/>
<path d="M36.402,235.51c-0.133,0.762-0.066,1.453,0.207,2.066,0.273,0.621,0.766,1.211,1.477,1.781,0.703,0.559,1.402,0.879,2.102,0.969,0.695,0.09,1.371-0.02,2.023-0.34,0.656-0.313,1.301-0.867,1.938-1.664,0.875-1.102,1.273-2.188,1.188-3.25-0.082-1.063-0.648-2.012-1.703-2.852-1.023-0.816-2.074-1.141-3.145-0.977s-2.047,0.809-2.934,1.922c-0.637,0.8-1.024,1.58-1.153,2.34zm4.653-1.99c0.477-0.113,0.918-0.016,1.309,0.297,0.41,0.328,0.621,0.738,0.621,1.227,0.004,0.488-0.254,1.055-0.766,1.695-0.613,0.766-1.148,1.211-1.613,1.324-0.465,0.109-0.902,0.004-1.324-0.328-0.41-0.328-0.609-0.734-0.605-1.227,0-0.488,0.277-1.078,0.832-1.773,0.55-0.69,1.069-1.1,1.546-1.21" fill="#231F20"/>
<path d="M47.883,240.06l0.852,0.605c0.094,0.063,0.293,0.156,0.605,0.281,0.156,0.066,0.316,0.066,0.488,0.008,0.168-0.063,0.309-0.172,0.422-0.328,0.16-0.227,0.219-0.453,0.176-0.672-0.051-0.215-0.262-0.453-0.625-0.719l-0.895-0.629-1.023,1.46zm-5.047,2.79l5.035-7.133,3.398,2.402c0.629,0.445,1.07,0.84,1.316,1.191,0.258,0.352,0.367,0.754,0.348,1.219-0.012,0.461-0.184,0.918-0.508,1.371-0.277,0.398-0.594,0.68-0.957,0.859-0.355,0.18-0.734,0.258-1.141,0.242-0.254-0.012-0.563-0.086-0.914-0.227,0.18,0.258,0.293,0.469,0.344,0.637,0.027,0.113,0.047,0.313,0.055,0.605s-0.004,0.5-0.027,0.645l-0.465,2.762-2.305-1.625,0.453-2.945c0.066-0.379,0.07-0.648,0.027-0.805-0.074-0.219-0.199-0.391-0.383-0.516l-0.18-0.129-2.043,2.891-2.053-1.45" fill="#231F20"/>
<path d="M54.355,240.28l6.434,4.031-1.141,1.828-2.164-1.355-3.484,5.58-2.121-1.32,3.492-5.574-2.164-1.352,1.148-1.84" fill="#231F20"/>
<path d="M61.609,244.8l2.199,1.191-1.461,2.691,2.395,1.297,1.461-2.695,2.195,1.191-4.16,7.672-2.191-1.188,1.68-3.102-2.395-1.297-1.68,3.102-2.195-1.191,4.152-7.66" fill="#231F20"/>
<path d="M71.012,259.28l2.383,1.07,0.816-9.203-2.5-1.121-6.34,6.719,2.324,1.047,0.961-1.148,2.574,1.156-0.218,1.47zm-1.098-4.14l2.094-2.5-0.484,3.227-1.61-0.73" fill="#231F20"/>
<path d="M77.441,252.6l3.121,1.063-0.539,5.438,2.902-4.625,3.113,1.063-2.828,8.258-1.941-0.664,2.152-6.293-3.633,5.785-1.75-0.602,0.672-6.797-2.152,6.297-1.941-0.664,2.824-8.28" fill="#231F20"/>
<path d="M88.871,260.02l0.598,0.137c0.461,0.102,0.813,0.094,1.043-0.047,0.23-0.129,0.379-0.336,0.441-0.609,0.063-0.266,0.027-0.516-0.094-0.734-0.125-0.227-0.41-0.391-0.863-0.492l-0.695-0.156-0.43,1.9zm-1.613-4.2l4.039,0.914c0.883,0.199,1.484,0.578,1.824,1.129,0.336,0.551,0.41,1.25,0.219,2.082-0.191,0.859-0.586,1.48-1.172,1.859-0.586,0.375-1.371,0.445-2.355,0.227l-1.332-0.301-0.711,3.152-2.438-0.551,1.926-8.51" fill="#231F20"/>
<path d="M94.32,257.43l7.551,0.859-0.238,2.145-2.535-0.289-0.746,6.527-2.484-0.281,0.742-6.527-2.527-0.289,0.24-2.15" fill="#231F20"/>
<path d="M102.73,265.28c0.398,0.656,0.906,1.133,1.52,1.418,0.609,0.289,1.371,0.41,2.277,0.367,0.898-0.039,1.637-0.254,2.223-0.645,0.582-0.391,1.016-0.918,1.305-1.586,0.289-0.672,0.406-1.508,0.363-2.531-0.066-1.406-0.48-2.48-1.242-3.23-0.762-0.742-1.813-1.09-3.156-1.027-1.313,0.059-2.313,0.504-3.012,1.328-0.699,0.832-1.016,1.953-0.945,3.379,0.05,1.03,0.28,1.87,0.67,2.53zm2.2-4.56c0.285-0.402,0.68-0.613,1.184-0.637,0.523-0.023,0.949,0.148,1.27,0.52,0.32,0.363,0.504,0.957,0.543,1.781,0.043,0.977-0.074,1.66-0.348,2.051-0.277,0.395-0.68,0.602-1.215,0.625-0.523,0.023-0.941-0.152-1.262-0.523s-0.5-1-0.539-1.883c-0.04-0.9,0.08-1.54,0.37-1.94" fill="#231F20"/>
<path d="M111.15,257.87l2.289-0.418,3.863,4.207-0.863-4.754,2.305-0.418,1.566,8.582-2.305,0.422-3.844-4.18,0.867,4.727-2.313,0.422-1.57-8.59" fill="#231F20"/>
<path d="M123.01,255.33l7.191-2.453,0.699,2.043-2.418,0.824,2.121,6.223-2.363,0.805-2.117-6.223-2.414,0.82-0.7-2.03" fill="#231F20"/>
<path d="M133.64,258.95c0.613,0.48,1.258,0.738,1.926,0.793,0.676,0.047,1.43-0.109,2.266-0.469,0.82-0.355,1.434-0.82,1.84-1.398,0.406-0.57,0.625-1.219,0.656-1.949,0.031-0.719-0.156-1.551-0.563-2.488-0.563-1.293-1.328-2.148-2.305-2.578-0.98-0.426-2.086-0.371-3.32,0.168-1.203,0.52-1.984,1.293-2.34,2.313s-0.246,2.184,0.316,3.492c0.38,0.95,0.89,1.66,1.5,2.13zm0.43-5.04c0.129-0.48,0.422-0.809,0.887-1.016,0.477-0.207,0.938-0.199,1.367,0.027,0.43,0.23,0.809,0.719,1.141,1.477,0.387,0.898,0.523,1.582,0.406,2.039-0.117,0.465-0.426,0.809-0.914,1.016-0.477,0.211-0.934,0.195-1.367-0.039-0.43-0.234-0.82-0.754-1.172-1.566-0.37-0.82-0.49-1.47-0.36-1.94" fill="#231F20"/>
<path d="M138.13,249.51l2.086-1.125,3.063,3.875-1.203-4.875,2.074-1.117,3.41,3.691-1.56-4.67,2.078-1.117,2.57,8.523-2.156,1.164-3.848-4.172,1.363,5.508-2.16,1.16-5.71-6.83" fill="#231F20"/>
<path d="M148.57,243.78l1.965-1.258,5.164,2.438-2.598-4.07,1.977-1.262,4.691,7.359-1.977,1.262-5.133-2.422,2.578,4.047-1.977,1.266-4.69-7.37" fill="#231F20"/>
<path d="M159.34,236.62l4.934-3.719,1.133,1.504-2.926,2.203,0.918,1.219,2.5-1.891,1.059,1.414-2.5,1.883,2.145,2.844-2.008,1.512-5.25-6.95" fill="#231F20"/>
<path d="M167.7,238.19l1.875-1.484,1.508,1.906-1.875,1.488-1.52-1.92" fill="#231F20"/>
<path d="M174.2,231.35l2.125-0.883c0.32,0.594,0.5,1.164,0.551,1.707,0.047,0.543-0.031,1.055-0.234,1.527-0.211,0.477-0.586,0.949-1.137,1.422-0.664,0.57-1.301,0.934-1.902,1.086-0.605,0.156-1.285,0.098-2.039-0.164-0.762-0.266-1.496-0.809-2.199-1.629-0.941-1.098-1.395-2.172-1.367-3.223,0.035-1.055,0.543-2,1.531-2.848,0.77-0.664,1.523-1.016,2.25-1.055,0.727-0.043,1.5,0.195,2.313,0.703l-1.332,1.84c-0.23-0.156-0.414-0.246-0.563-0.281-0.238-0.063-0.469-0.074-0.691-0.023-0.227,0.047-0.43,0.148-0.621,0.313-0.43,0.371-0.598,0.84-0.504,1.406,0.07,0.422,0.359,0.93,0.871,1.527,0.629,0.738,1.168,1.152,1.605,1.25,0.438,0.094,0.852-0.016,1.219-0.336,0.363-0.313,0.543-0.66,0.539-1.035-0.02-0.39-0.15-0.82-0.42-1.31" fill="#231F20"/>
<path d="M177.55,229.83l1.75-1.633,1.664,1.773-1.746,1.633-1.66-1.77" fill="#231F20"/>
<path d="M207,237.71c-3.754,0.871-7.371,0.719-9.191,0.555-1.398,3.324-5.742,13.199-10.391,19.102l-0.117,0.152-0.188,0.043c-0.121,0.031-11.914,2.73-21.258-6.859-0.52,0.43-0.832,0.703-0.852,0.719-0.281,0.223-28.805,22.332-60.305,22.594h-0.141c-31.492-0.262-60.016-22.371-60.328-22.617-0.012-0.012-0.316-0.281-0.82-0.695-9.348,9.59-21.137,6.891-21.258,6.859l-0.18-0.043-0.125-0.152c-4.652-5.914-9-15.801-10.398-19.117-1.766,0.176-5.469,0.359-9.328-0.539,0,0,8.332,15.402,7.918,20.398,0,0,29.145,8.328,34.559-5.41,0,0,28.297,22.207,59.969,22.48,31.668-0.273,59.961-22.48,59.961-22.48,5.414,13.738,34.563,5.41,34.563,5.41-0.42-4.98,7.91-20.38,7.91-20.38" fill="#BAC1CA"/>
<path d="M188.61,248.4c0-3.082-4.27-4.93-8.398-4.93-3.234,0-7.125,2.082-10.172,4.109,1.727,1.211,7.148,4.836,10.172,4.836,3.12-0.01,8.4-0.85,8.4-4.02" fill="#231F20"/>
<path d="M20.648,248.4c0,3.172,5.281,4.016,8.395,4.016,3.027,0,8.449-3.625,10.172-4.836-3.039-2.027-6.934-4.109-10.172-4.109-4.125-0.01-8.395,1.84-8.395,4.93" fill="#231F20"/>
</g></svg>
