<?xml version="1.0" encoding="UTF-8"?>
<svg viewBox="0 0 238.27 419" xmlns="http://www.w3.org/2000/svg">
<path transform="matrix(.32691 0 0 .32691 -5.9624 41.064)" d="m412.57 1155.1c-24.247-3.1412-48.078-14.072-62.23-28.545-10.359-10.593-15.42-19.171-19.009-32.216-1.9182-6.9729-2.1535-11.153-2.6819-47.644-0.56896-39.291-0.61924-40.064-2.8381-43.632-2.1863-3.5157-4.7384-5.0496-10.491-6.3055l-2.75-0.6003v106.04h-44v-227l26.25 0.034c14.438 0.019 30.75 0.4439 36.25 0.9453 23.276 2.1221 35.398 9.8427 40.052 25.511 1.9958 6.7184 2.9355 31.76 1.6207 43.189-0.58078 5.0482-2.0084 11.393-3.1726 14.099-4.0565 9.4295-14.102 16.618-25.031 17.912-8.4731 1.0035-7.4979 2.4714 2.5302 3.8086 9.8582 1.3145 17.773 6.2898 21.487 13.507 3.6353 7.0641 4.0586 11.478 4.3335 45.193 0.26779 32.843 0.3073 33.408 2.8673 41.046 3.2932 9.8247 7.4332 16.264 14.902 23.179 11.235 10.402 24.494 14.797 45.156 14.97l12.746 0.1067 4e-3 18.108 4e-3 18.108-6.1467 0.6424c-7.9122 0.827-21.575 0.6199-29.853-0.4526zm-89.613-189.86c5.2566-1.9986 5.7399-4.8272 5.4124-31.677l-0.29939-24.542-2.8058-2.4119c-2.147-1.8456-3.9666-2.4118-7.75-2.4118h-4.9442v62h3.9349c2.1642 0 5.0676-0.4307 6.4521-0.957zm-128.65 140.9c-22.709-3.1424-34.425-14.568-38.368-37.419-1.1985-6.9447-1.3884-21.414-1.1055-84.204 0.312-69.228 0.4966-76.335 2.1237-81.764 6.8218-22.761 20.968-31.836 49.617-31.83 30.168 7e-3 44.14 9.1721 50.724 33.275 1.6301 5.9673 1.7756 12.893 1.7756 84.5 0 71.607-0.14553 78.533-1.7756 84.5-4.9339 18.062-13.689 27.151-30.326 31.484-7.3018 1.9019-24.053 2.6491-32.666 1.4572zm18.173-34.848c1.3619-1.3619 2.0949-4.0018 2.5684-9.25 0.3644-4.0392 0.51926-40.571 0.34414-81.181l-0.3184-73.837-2.8058-2.4129c-3.583-3.0813-7.1312-3.0669-10.24 0.042l-2.4546 2.4546v81.045c0 79.712 0.0329 81.078 2 83.045 2.604 2.604 8.3464 2.6536 10.906 0.094zm209.27 34.898c-21.108-2.9624-32.674-13.215-37.905-33.601-1.6162-6.2984-1.7684-13.517-1.7684-83.891 0-72.205 0.11704-77.436 1.8795-84 6.5422-24.366 20.59-33.743 50.62-33.793 30.282-0.0501 45.248 10.489 50.409 35.501 1.2934 6.2673 1.5907 14.911 1.5907 46.25v38.542h-60.067l0.28362 39.089 0.28362 39.089 2.3608 1.9108c3.0147 2.4402 7.2632 2.4404 10.278 6e-4 2.3594-1.9091 2.361-1.9258 2.6574-28.5l0.29662-26.59h43.907v23.542c0 17.547-0.40267 25.505-1.5811 31.25-3.9292 19.154-13.564 29.719-30.736 33.702-8.1536 1.891-24.383 2.6391-32.51 1.4985zm20.623-173.46c-0.33569-29.952-0.34522-29.989-7.7966-29.989s-7.4609 0.037-7.7966 29.989l-0.29662 26.466h16.186zm94.203 173.53c-22.224-3.2275-34.491-13.339-39.457-32.525-1.1965-4.6222-1.5429-11.749-1.5429-31.75v-25.79h44l6e-3 23.75c6e-3 24.633 0.72897 30.502 3.9724 32.238 3.1892 1.7069 6.9912 1.1335 9.5674-1.4427 2.4265-2.4266 2.4546-2.6626 2.4546-20.684 0-16.29-0.21649-18.677-2.035-22.434-1.1192-2.312-13.031-16.66-26.471-31.883-18.522-20.981-25.229-29.291-27.715-34.337l-3.2794-6.6573-0.33082-22.685c-0.26889-18.439-0.028-23.868 1.287-29.001 5.3589-20.918 23.181-32.139 51.044-32.139 29.899 0 47.533 12.743 51.581 37.275 0.49915 3.025 0.91015 14.612 0.91334 25.75l5e-3 20.25h-45v-47.091l-2.4546-2.4546c-2.7032-2.7031-5.1366-3.0536-8.9953-1.2954-3.5637 1.6237-4.538 6.1064-4.5445 20.909-9e-3 20.056-0.94653 18.355 27.25 49.417 26.402 29.085 28.962 32.34 31.396 39.931 2.0542 6.4046 3.1108 45.69 1.5062 55.997-2.8248 18.144-14.049 30.198-32.626 35.036-6.9906 1.8208-23.208 2.6786-30.532 1.6149zm-471-117.56v-113.5h84v31h-39v53h38v32h-38v111h-45zm569 16v-97.5h-29v-32h103v32h-30v195h-44zm-267.67-168.52c-20.59-1.9935-43.105-7.3923-62.829-15.065-6.05-2.3536-22.911-10.334-37.47-17.734-36.15-18.375-55.804-26.029-81.53-31.751-9.9031-2.2027-34.925-3.0249-43.865-1.4414-20.952 3.7109-42.764 16.364-66.385 38.51l-9.25 8.6722v-69.981l5.0872-4.5739c15.495-13.931 41.258-25.941 64.913-30.261 14.288-2.609 38.186-2.3699 52.926 0.52947 22.399 4.4058 43.119 12.881 67.574 27.64 34.128 20.597 62.442 31.804 95 37.602 16.998 3.0273 52.089 3.3108 68 0.54933 34.2-5.9356 64.501-17.702 98.5-38.25 24.153-14.597 40.903-21.721 63.579-27.042 10.858-2.5476 13.661-2.8009 31.421-2.8386 21.731-0.0461 28.728 0.99796 46.66 6.9632 17.161 5.7087 33.718 15.011 43.962 24.699l5.3781 5.0863v70.16l-7.25-7.0868c-21.739-21.25-41.581-33.596-62.628-38.969-7.722-1.9713-11.872-2.3934-23.5-2.3901-31.442 9e-3 -60.297 8.1988-93.122 26.43-33.476 18.593-56.04 27.888-84 34.603-23.12 5.5526-51.075 7.8857-71.171 5.94zm-3.8287-83.649c-20.323-2.5219-40.944-7.7143-59.136-14.891-6.525-2.574-24.914-11.265-40.864-19.313-35.89-18.11-56.338-25.79-82-30.8-11.866-2.3163-37.31-2.3216-50.136-0.0103-23.566 4.2467-44.7 14.36-59.614 28.528l-5.75 5.4623v-64.659l3.25-2.8724c14.747-13.034 38.131-23.403 61.562-27.3 14.025-2.3322 42.412-1.6093 56.056 1.4274 23.148 5.1523 43.671 13.783 69.702 29.312 48.625 29.008 85.026 40.219 130.43 40.173 21.128-0.0217 34.249-1.6748 54.464-6.8621 23.939-6.1428 49.275-17.067 73.594-31.733 31.777-19.163 52.83-27.698 79.941-32.411 12.98-2.2564 36.419-2.2188 49.5 0.0795 23.304 4.0943 46.55 14.557 60.654 27.3l3.8455 3.4742v63.861l-7.1977-6.1949c-31.135-26.797-71.834-35.562-119.99-25.841-21.397 4.319-32.483 8.9603-76.067 31.848-31.66 16.626-61.615 26.464-93.044 30.558-10.689 1.3923-40.698 1.9201-49.199 0.86523zm-6-83.436c-28.889-7.0886-58.439-18.985-90.748-36.532-32.283-17.534-60.486-27.623-88.88-31.797-12.491-1.8362-19.439-1.944-32.661-0.50696-30.688 3.3354-61.675 14.874-75.96 28.286l-3.25 3.0512v-64.16l4.0569-3.6652c8.7652-7.9188 20.681-14.148 37.153-19.423 33.986-10.883 70.298-9.0462 114.79 5.8057 22.87 7.6342 41.27 15.556 69.75 30.029l23.25 11.816v-138.96l-3.25 1.9992c-7.5436 4.6405-20.119 10.28-28.048 12.577-42.857 12.419-89.423-4.7607-114.37-42.194-3.1954-4.7954-5.8155-8.7909-5.8223-8.8789-0.01-0.088-3.3866 0.94171-7.5105 2.2882-22.612 7.3827-46.96 6.8404-69.973-1.5585-33.814-12.341-58.608-41.414-66.152-77.57-1.6122-7.7267-1.6122-28.273 0-36 3.1795-15.239 9.6725-30.1 18.143-41.527 5.4592-7.3641 17.682-19.424 23.768-23.451l3.8661-2.5584-1.3059-6.2318c-5.8527-27.928 8.6569-57.486 35.769-72.867 4.6663-2.6472 5.8418-3.7911 5.513-5.3647-0.2299-1.1-1.3656-5.5595-2.5239-9.91-2.3597-8.8634-2.7973-22.13-1.0158-30.791 1.8208-8.8514 8.308-21.083 14.945-28.177 10.463-11.184 23.168-18.062 39.176-21.208l8.4196-1.6543-2.5056-8.13c-2.2421-7.2753-2.5118-9.9173-2.5652-25.13-0.064-18.214 0.5588-21.802 6.1622-35.5 8.682-21.225 24.913-38.433 45.778-48.536 14.937-7.2328 22.246-8.7906 41.75-8.8982l16.75-0.09242 3.6526-5.4866c5.2353-7.8639 23.555-25.812 32.355-31.699 13.898-9.2965 27.301-15.155 44.396-19.404 11.72-2.9135 35.83-3.6221 49.094-1.4429 19.665 3.2307 39.262 11.428 55.814 23.345 9.5509 6.8767 24.714 22.454 30.189 31.012 3.3079 5.1715 4.3754 6.1627 6.1697 5.7289 30.95-7.4815 68.507 3.7319 90.009 26.874 15.119 16.272 21.187 31.879 22.052 56.719 0.46963 13.48-0.63738 25.466-3.2676 35.38-0.45532 1.7163 0.54455 2.4006 7.0483 4.8241 21.735 8.099 44.747 31.111 53.811 53.812 3.9573 9.9106 4.9802 16.132 4.4529 27.083l-0.4734 9.8312 7.099 3.6812c14.368 7.4507 26.65 22.922 31.174 39.269 2.2966 8.3 2.8406 27.816 1.0592 38-1.7089 9.7694-2.8539 7.7183 10.163 18.205 14.381 11.585 26.714 30.476 30.879 47.295 2.6673 10.772 2.4009 32.328-0.5438 44-7.2712 28.82-27.478 53.637-54.632 67.098-16.483 8.1704-27.185 10.645-46.5 10.752-11.447 0.0635-17.679-0.38495-23.834-1.715-4.5836-0.99058-8.4416-1.6512-8.5734-1.4681-12.598 17.5-25.521 28.767-43.093 37.572-18.85 9.4454-36.008 13.549-57 13.632-16.184 0.0639-24.269-1.6527-39.75-8.4396-5.0877-2.2305-9.8129-4.3006-10.5-4.6002-0.99325-0.43291-1.25 13.753-1.25 69.062 0 38.284 0.15747 69.607 0.34994 69.607s4.58-2.3006 9.75-5.1124c52.743-28.685 99.285-45.203 137.9-48.941 36.503-3.5336 75.587 5.8522 94.968 22.806l5.0324 4.4022v64.078l-3.864-3.4909c-20.324-18.361-70.366-30.408-105.14-25.31-29.253 4.2891-57.105 14.197-89.752 31.928-25.984 14.113-49.961 24.491-72.748 31.49-11.157 3.4265-26.072 7.1325-28.75 7.1433-1.659 7e-3 -1.75-7.9237-1.75-152.59v-152.6l5.6498 5.1636c15.142 13.839 40.248 23.52 67.686 26.1 48.942 4.6016 94.82-18.776 105.67-53.846l1.6522-5.3399 3.6691 4.4777c2.018 2.4627 6.3626 6.2763 9.6548 8.4747 20.392 13.617 46.925 11.211 64.078-5.8115 23.199-23.023 16.4-62.643-13.3-77.501-3.7365-1.8693-8.7724-3.6955-11.191-4.0581l-4.3972-0.65939 2.9557-4.6493c4.9927-7.8536 7.1692-16.821 6.6979-27.598-0.36306-8.301-0.81433-10.145-4.1191-16.832-6.7443-13.646-18.638-22.334-34.834-25.442-4.6047-0.88392-8.5206-1.719-8.702-1.8556-0.18145-0.13668 0.37486-1.3241 1.2362-2.6388 2.552-3.8948 5.5156-13.557 6.1779-20.141 2.3738-23.599-14.575-47.246-40.25-56.156-7.8994-2.7413-17.571-4.4683-25.085-4.4791-2.8875-4e-3 -5.25-0.19327-5.25-0.42027 0-0.22699 1.5834-2.8145 3.5187-5.75 7.5289-11.42 10.854-24.683 10.238-40.837-0.3466-9.0897-1.0096-13.177-3.1635-19.5-9.5165-27.939-34.657-46.413-63.255-46.483-8.6955-0.0211-20.139 2.0804-26.671 4.898-2.6581 1.1466-4.9757 2.0846-5.1502 2.0846-0.17455 0-0.85871-2.3625-1.5204-5.25-1.9677-8.5873-7.7056-19.143-14.35-26.399-12.619-13.78-28.557-21.158-47.744-22.1-13.564-0.66595-23.085 1.3083-35.814 7.4266-16.322 7.8452-29.116 23.081-33.48 39.869-1.4455 5.5614-1.032 5.4705-11.109 2.4414-8.7945-2.6436-25.079-2.9085-34-0.55309-34.271 9.0489-55.725 42.828-49.16 77.401 1.739 9.1581 6.4768 20.429 11.204 26.655 1.6742 2.2048 3.321 4.4624 3.6597 5.0171 0.39196 0.64194-2.5314 1.0842-8.044 1.217-18.971 0.45698-34.889 7.0436-47.768 19.765-12.66 12.506-17.098 23.769-16.138 40.959 0.5508 9.8681 2.8063 16.885 7.8108 24.3 1.6146 2.3924 2.9356 4.5522 2.9356 4.7996s-4.2529 0.44987-9.4508 0.44987c-5.198 0-11.836 0.49577-14.75 1.1017-12.691 2.6384-24.506 11.459-29.02 21.665-6.2307 14.085-1.2746 33.777 12.217 48.538l4.9756 5.4442-3.7356 0.60401c-6.6053 1.068-18.04 7.3192-24.286 13.276-11.267 10.747-16.042 21.235-16.103 35.371-0.058 13.523 5.3937 25.169 15.569 33.257 19.16 15.23 48.277 14.171 68.72-2.4976l5.6351-4.5949 1.7998 4.168c3.027 7.01 10.045 17.014 15.627 22.278 19.432 18.322 47.896 28.382 80.303 28.382 32.738 0 61.033-10.104 80.75-28.834l5.75-5.4623v305.3l-2.25-0.0724c-1.2375-0.0398-5.85-0.95576-10.25-2.0354z" fill="#e53233"/>
</svg>
