<svg xmlns="http://www.w3.org/2000/svg" xmlns:xlink="http://www.w3.org/1999/xlink" width="620" height="700"><defs><linearGradient x1="247.286" y1="550.153" x2="247.286" y2="17.179" gradientUnits="userSpaceOnUse" spreadMethod="pad" id="A"><stop offset="0" stop-color="#3f52ac"/><stop offset=".589" stop-color="#1c2a4f"/><stop offset="1" stop-color="#1c2a4f"/></linearGradient><path id="B" d="M259.177 315.655c0 1.054-.853 1.908-1.905 1.908s-1.906-.854-1.906-1.908.853-1.907 1.906-1.907 1.905.854 1.905 1.907"/></defs><path d="M66.678 76.34s229.722-132.043 483.9 0c5.24 11.366 6.987 20.11 6.987 20.11l18.344 7.87s34.938 90.943 31.444 188.006c4.368 237.85-296.98 392.626-296.98 392.626S11.306 529.538 12.404 293.27c1.097-102.2 30.735-187.914 30.735-187.914l18.66-8.79 4.88-20.225" fill="#1c284e"/><path d="M45.435 485.44l4.878 17.704 35.98 15.874 21.953 7.326 37.2 10.99 37.81 7.936 32.32 4.274 32.93.61 28.662-1.222 31.7-3.663 33.542-6.104 27.442-7.326 24.392-6.716 18.904-8.547 19.515-7.937 11.586-6.104 4.88-15.874 7.318-31.746 7.318-45.178 4.88-48.23-.61-47-3.048-32.357-10.977-36.63L440.6 211.93l-17.074-29.304-21.344-31.136-21.954-26.862-20.733-21.368-30.492-28.083-34.15-28.083-46.957-29.915-51.835 33.578-50.006 43.346-45.737 51.283-29.88 41.515-9.147 17.704-15.855 34.188-13.416 48.23-6.098 48.84 3.66 51.893 7.927 60.44 7.928 37.24" fill="url(#A)" transform="matrix(1.25 0 0 -1.25 0 699.99999)"/><path d="M58.477 84.736s-29.914 133.46-25.31 214.696C53.875 538.5 312.158 680.05 312.158 680.05s270.96-157.8 274.41-386.42c6.11-58.486-25.31-208.894-25.31-208.894l-11.505-20.89-126.558-45.26L309.292 5.822l-111.6 15.086-133.46 45.26-5.753 18.568z" fill="none" stroke="#fff" stroke-miterlimit="10" stroke-width="11.555"/><path d="M310.376 686.098S11.306 530.682 12.404 294.415C13.5 192.216 43.138 106.5 43.138 106.5l18.66-8.79 4.88-20.225s229.722-132.043 483.9 0c5.24 11.366 6.987 20.11 6.987 20.11l18.344 7.87s34.938 90.943 31.444 188.006c4.368 237.85-296.98 392.626-296.98 392.626zM586.99 95.174l-19.108-8.197s-1.82-9.1-7.28-20.95c-264.768-137.544-504.063 0-504.063 0l-5.083 21.068-19.438 9.158S1.147 185.54.004 291.997C-1.14 538.108 310.392 700 310.392 700s313.9-161.227 309.353-408.986c3.638-101.107-32.756-195.84-32.756-195.84" fill="#cdc692"/><path d="M311.395 676.237S116.25 571.688 64.416 413.72c32.016-30.526 115.866-115.234 115.866-115.234l9.9-21.368 4.574-4.58v-6.105l3.81-4.58 3.05-5.342-1.525-5.34-10.672-1.527-.763-6.105-3.048-3.815v-9.92l-9.9-14.5-6.86-.762-5.336-7.632-3.81-6.105 2.287-7.632 3.05-2.29v-6.868l6.098-7.632h22.106l7.623 7.632 5.336 7.632 3.81 6.105 6.098 3.053 5.336 11.447 3.81 2.29 8.386 1.526 3.048-3.815 10.673.762 6.098 11.447 57.934-57.235 78.514 77.84 4.574-.762h6.1l3.048 2.29 6.86-2.29 5.335-2.29 3.812-.764 3.048-8.394s.764-3.815 3.812-5.342 8.386-6.105 8.386-6.105l5.335-3.816 9.147-3.815 2.287 3.053 6.86-4.58 6.1-4.58 6.097-3.816 9.147-2.29 1.525 4.58 6.86.764 3.048 6.105-.762 7.632-1.525 4.58-2.287 6.105-.762 6.868-3.812 4.58-2.287 6.868-3.8 6.868-4.574 3.053-5.338.764h-6.86l-13.72 7.63v5.342l-3.048 4.58-4.574 3.815-5.335 6.868L557.6 414.483s-39.638 144.232-246.215 261.755" fill="#f2f2f2"/><path d="M460.04 557.95s-51.835 58.762-149.407 113.708c0 0-102.908-58.762-153.218-118.287s-.762-54.946-.762-54.946l9.147-45.788 3.8-35.867 55.648-55.71 4.574-90.813 9.91-17.553 69.368 4.58 53.36 1.527 48.024 12.21 9.9 29 8.385 44.26-7.622 48.84 6.86 63.34 34.303 66.393-2.287 35.103" fill="#c1bfbd"/><path d="M316.73 474.77l5.335 10.684 3.05 7.632 4.574 6.868 2.287 5.34 5.336-1.526h5.335l3.05 16.8-3.8 3.052-7.623 3.816-2.287 8.394 8.385 16.8s12.196 12.973 13.72 15.262 13.72 10.684 13.72 10.684l18.295 9.92 8.386 10.684 7.622 12.2-13.72 10.684-17.532-10.684-4.574-6.868-1.524-6.104h-9.9l-2.287-13.736-11.434-19.08-5.336-12.2-9.147-7.63-5.335-8.395-6.1 7.632-5.335 5.342-6.86-.764-6.86-2.3-4.574 3.053-2.287 9.92-.763 6.868-9.147-5.34.763-14.5 6.86-22.894 9.147-10.684 12.196 5.34 6.86-4.58 1.525-39.682m59.447-125.908l7.623 1.527 6.86-.764 5.335-3.815 4.574-6.105 3.812-6.106 3.048-5.342 3.05 4.58 3.05 5.342.762 6.868-1.524 7.632-4.574 6.868-6.098 1.526-5.336 3.816-4.574 6.105-4.574 3.815-2.287 3.816 5.336 3.052 3.048 3.816-.763 4.58h-6.098l-6.098 2.3-4.574 5.34-4.574 3.816-10.673 6.868 4.574 3.052 5.336-.762 9.15-6.105 21.344-3.052.762 4.58-3.048 7.63-6.1 4.58-6.098 5.342 8.385 2.3 6.86.764.763 7.63-.763 5.342 7.623 10.684-3.05 6.106-5.335 4.58-1.525 6.868 11.435 7.63-3.05 4.58-6.86 2.3-3.8 3.053-.763 7.632-3.8 6.105.762 6.105 8.386-1.526 5.335-4.58 7.623.764 1.524 6.868 6.86 3.052 9.147 2.3 3.05 6.868 3.05 5.342-5.336 3.815v12.974l-3.8 1.526-5.336-1.526-9.9-3.053h-5.335l-1.525 4.58 2.287 3.053 9.147 7.63 6.1 4.58 3.048 6.868.763 27.473s18.295-14.5 21.343-19.078c1.524-5.34 12.197-25.183 12.197-25.183l3.05-22.132-22.106-33.578-16.008-24.42 1.524-30.526-5.336-32.815c0-2.3 6.1-46.55 6.1-46.55l-.763-33.58-6.098-19.84-11.434-14.5-12.197 3.053-22.868 55.708m-9.926-81.708l-3.8 3.04-6.098 3.797-3.05 6.075-.763 5.317v5.316l-6.098 3.797h-5.336l-6.098.76h-5.336l-4.574 3.038-5.335 3.797-2.287 3.038 6.86 12.9 1.524 5.316-8.385 1.52-6.86-.76-6.1-5.317-10.672-9.873-6.86-3.038-8.385-2.278 18.295 25.822 3.8 5.316-2.287 6.075-4.574 1.52h-6.098l-4.574 6.835 6.86 8.356 3.048 7.594 2.287 5.316 1.525 6.835-4.574 8.354-6.1 4.557h-25.155l-7.622 2.28-6.86 3.798-3.812 3.036 6.1 1.52 6.86 3.798-6.86 3.796-8.386 1.52-4.574 3.037-8.385.76-3.8 4.557-2.287 6.075c3.048 1.52 12.196-1.518 12.196-1.518l8.386-3.798h4.574l-7.623 10.632-9.147 7.596-1.524 12.15 3.048 6.077 3.812 5.315-4.574 4.557-9.147 4.557-6.1 3.798-1.524 3.037 6.098 3.038 3.05 6.836 2.287 5.317v6.075l-1.524 3.038-5.336-.76-6.86.76h-7.623l-3.8 1.52-5.336 6.075-2.287 6.077-.762 3.036 2.287 3.04v6.835l-3.812 6.076-3.8 4.556-.763 5.317 3.812 2.278-1.525 6.076-3.048 3.038-3.05 5.316-2.287 4.557-1.524 9.114-10.673-10.633-6.098-28.86 3.8-63.797-.762-37.213L200.1 383.35l16.008-68.352 11.434-34.176 16.77-23.544 36.6 3.038 25.155 1.52 47.26-.76 12.958 6.075" fill="#9e9e9d"/><path d="M207.725 248.88l-6.86-1.526-5.336-3.053v-13.736l5.336-.764-6.86-4.58-6.86-6.868-6.86-8.394-6.86-2.3-.763-5.342-4.574-3.815 6.098-2.3-.762-10.684 3.8-1.527 9.9.764 3.8-3.053 16.77 25.947 4.574-.764 7.622 14.5 6.1 4.58 3.8-4.58 12.197 8.394.762-10.684 6.86 9.158 9.147 6.868 11.434 7.632 11.434 3.815 12.96 3.053 9.9 2.3 7.623 1.526-.763-6.105 6.86 3.815 3.05-5.342 4.574 6.106 13.72-2.3 1.524 6.105 19.057 1.526 12.197 2.3 9.9-1.526 8.386-3.053 6.86-5.34 2.287 6.868 6.86-2.3 10.672-6.106 3.8 6.106 12.197-22.132 6.86-.762 8.385-8.395 3.812 4.58 22.106-17.552 3.05 3.815h8.385l-3.05 4.58 2.287 7.632-6.098 3.815 3.8 6.106-10.672 2.3 3.05 6.868-1.525 3.815-3.048 4.58h-7.623l-12.958 4.58-12.96 8.394 4.574 9.158H430.3l1.525 6.868-6.86 2.3-1.525 6.868 5.336 10.685 5.336 16.026 2.278 12.97 3.048 19.08-5.335 3.052 3.048 9.92v9.158l-.762 9.158-1.525 9.158v9.158l1.524 7.632 3.05 7.632 4.574 9.92-6.1.764 9.147 35.867-6.098-1.526v9.158l6.86 11.447 7.623 9.158 9.147 10.684 7.622 9.158 5.336 10.685 8.385 14.5s-19.056 27.474-38.114 40.447c-6.098-15.263-16.77-22.132-16.77-22.132l9.147-4.58 5.336-2.3h7.623l-3.812-9.158-3.048-8.394 7.622 1.526-4.574-9.92-7.622-11.447-6.1-7.632-9.9-8.394-6.86-1.527 5.335-6.868-11.434-12.973 1.525-6.105 9.147-.764-4.574-7.632 2.287-5.34-5.336-1.527 4.574-4.58-3.05-4.58-4.574-.762v-18.315l-9.9 3.052 7.622-9.158 3.812-6.105-3.05-4.58-9.147-.764h-9.147l-10.672 3.053-7.623.764-9.147.762-7.623-1.526 9.147-4.58 2.287-7.632 8.386 3.816 6.86-1.527 6.098.764 15.245-12.2-5.335-6.105 5.335-3.053 9.147-7.63 4.574-7.632 5.336-7.632-5.336-4.578 6.1-3.054v-18.315l-7.623-.762 3.8-8.395-2.287-9.92-6.86-12.974-2.287 5.342-4.574-3.815-1.524 6.868-.763 5.34-3.048 4.58 2.287 8.395-3.05 9.92-6.098 8.395-6.1 4.58-6.86 3.816-11.434 1.525 1.525 6.87 6.098 5.34-5.336 2.3 4.574 10.685-16.008-13.736h-6.86l2.287-8.395-2.287-8.394-3.8-6.868-5.336 4.58v7.63l-4.574 3.816-4.574 1.526 3.812 8.395-5.336 1.526 3.8 7.632-4.574 3.052 1.525 10.685-1.525 10.684-2.287 7.632-4.574 8.394-5.335 11.447-8.386-10.684-3.8-11.447-2.287-14.5v-9.158l-.763-8.394-4.574-4.58 6.86-6.106-.762-6.868 6.098-1.526 3.05-5.34 11.434-3.054 3.048-9.92 6.1-1.527 3.8-3.815 9.9-.764 9.9-6.868 8.386-7.63 6.86-9.158 7.622-7.632 2.287-12.2 6.1 2.3 3.048-6.105-5.335-3.815-4.574-6.106-4.574.764-3.812 4.58-6.86-5.342-9.147-1.526-16.008-3.053-1.524 16.026-7.623-.762-.762 6.868-7.623-.764-6.098 4.58-9.9-6.105-3.8 2.3-.763 6.105 1.524 6.868 5.336 8.394 7.623 9.158H315.2l-3.05 4.58-16.008-25.946-6.098 1.526-6.098-2.3-6.86-7.632-6.86-8.394-6.86-6.868-7.623-6.105-6.098-.764 2.287 5.342 3.8 6.105v6.868l1.524 4.58 5.336 6.868 32.016 35.105 2.287 5.34h-9.147l-3.8 4.58-6.86 3.816-4.574 1.527 4.574 5.34 4.574 4.58L287 360.3l2.287 6.105 3.812 6.868-.763 5.342-4.574 3.052-3.8 3.053-6.86-3.053-5.336-3.815h-8.385l-9.147 3.053-9.9 4.58-12.197 6.868-10.672 8.394-8.385 7.632-8.386 9.158-3.048-3.816-11.434 10.685-7.623 5.34-5.336 6.868 1.525 3.816h11.434l-9.9 14.5-.763 6.868 5.336.764-.763 4.58-4.574 6.868 7.623 2.3-2.287 5.342.763 5.34 5.335 1.527h8.386l6.098 1.526-8.385 9.158-6.86 8.394-5.336 6.868-3.8 8.395 6.098 2.3-.763 6.105-5.335 8.394-1.525 5.342 3.05 6.868-5.336 4.58-4.574 2.3-.762 9.158s-38.876-34.34-54.884-61.05c20.582-25.183 31.253-42.736 31.253-42.736l.763-6.868-5.336-.762 2.287-9.158-6.86 4.58v-7.632l4.574-4.58 1.524-9.92-11.434 6.868 2.287-9.158 6.86-7.63 6.1-6.868 6.86-4.58 7.622-11.447-7.622.762L162 388.54l2.287-12.973 3.8-9.92 7.623-10.683 3.8-9.158.763-10.685-4.574-3.815 6.098-4.58 8.386-14.5-6.86-2.3 4.574-9.92 6.098-9.158 5.336-9.158 5.335-8.395 3.05-3.815 3.8-9.158-3.8-11.447m141.75 164.07l-1.524 6.868 4.574 6.868 5.336 7.63 1.524-9.158-4.574-5.34-5.336-6.868m31.255 36.63l-3.05 29-3.05-16.026 6.1-12.974M370.1 480.112l8.386 7.632 5.335-6.868-1.524 22.894-12.197-23.658m25.154 24.42l4.574-1.526 2.287-14.5 3.812 1.527-2.287 31.288-8.386-16.8m12.96 6.107l5.335-.764 16.008 29-3.8 2.3-1.524 6.868-6.1-7.63-7.622-2.3-2.287-5.342 5.335-3.053-5.335-19.078m29.73 23.655l2.287 5.342 5.335.764-3.048-6.106h-4.574m-73.18-60.287s4.574 45.787 22.868 76.313c9.147 14.5 7.622 19.842 7.622 19.842l-10.672-8.395-12.197-1.526-3.048-12.973-5.336-9.92-11.434-7.632 9.147-2.3 3.05-7.63-3.812-10.685-1.524-12.2.763-11.447 4.574-11.447m-16.01 16.026l2.287 14.5 1.524 9.92-.763 7.632-9.9-2.3-5.336-8.395 6.098-.762 6.1-20.605M333.5 532.005l5.336 9.158 6.098 6.106 3.812-6.106 2.287-6.868 12.958 19.842 1.524 14.5 9.147 5.342 12.96 1.526 12.196 3.816 8.386 4.58 7.622 8.394 3.05 6.105-3.05 3.816-7.622-3.816-9.9-.762-8.385-3.053 3.8 7.632 6.098 7.63-3.8 7.632-8.385-4.58-9.9-7.632-5.336-9.92-3.048-6.106-9.147 3.053-6.86-.763v-8.394l-3.05-9.92-6.098-5.34-7.623-1.527 8.385-3.815-5.335-5.342-6.1-8.394v-16.8m-16.8-74.79l6.098 23.658 2.287 18.315v23.656l-3.8 5.342-7.623 16.026-3.05-10.683-4.574-7.632-5.335-3.053-4.574 6.106-2.287 7.63-2.287 10.685-.763 7.63-4.574-3.815-1.524 11.447-2.287 7.632-4.574-15.263v-13.736l-1.525-8.394-3.048-5.342-2.287-13.736-.763-14.5 1.524-13.736 3.05-13.736 2.287 10.684 2.287 12.973s3.8 6.105 3.8 9.158 3.05 8.395 3.05 8.395l6.098-3.816 5.336-3.815v-9.92l5.336 2.3 2.287 6.106 4.574 4.58 6.098.762 1.524-15.262v-17.552l-.762-19.08m-70.13 79.36l5.336 14.5 3.05 11.447 6.098-.764 3.05-6.868 3.048 9.92 4.574 8.394.763 4.58 4.574 3.816.763 7.63v8.395l-6.1-3.816L266.42 590l-1.525-3.815-3.8-7.632-.763-6.868-5.335-2.3-11.434-1.526 3.048-31.3m-33.542 7.635s-1.524 18.316 1.524 28.236c5.336 1.526 9.9-15.263 9.9-15.263s1.525 32.052 3.05 36.63 6.098.763 6.098.763l11.434-5.342-6.098 9.92.762 5.343-3.8 4.58 4.574 6.868 8.385 9.92-5.335 3.053-44.975-34.34-.762-20.604h6.098s0-23.658 9.147-29.762m8.392-47.317l-3.8-8.395-3.8-.762-3.812 9.92-3.048 12.974-1.525 11.447v9.92l3.05 5.342 6.86-2.3 9.147-12.2 3.8 5.342 1.525-12.2 9.147-30.525 4.574-22.894-12.96 25.183-9.147 9.158m28.205-75.55l-11.434 3.815-9.9 6.868-9.9.764-5.336 3.052-4.574 7.632-5.336 6.105-6.098 5.342-3.8 6.868 4.574 6.105s-3.05 3.816-3.05 6.106 3.8 3.815 3.8 3.815l9.147-3.053 9.9-5.34 10.672-6.106 8.386-5.34-3.812-8.395 6.1-4.58-4.574-6.105 15.245-17.552" fill="#100f0d"/><path d="M238.697 308.995c1.255 0 10.683.314 10.683.314s.942 21.4 10.055 22.02 14.14-9.437 14.14-9.437l11.626 9.437s-3.458 8.178-20.738 8.178-21.682-18.56-21.682-18.56l-4.084-11.953m140.767 5.033l4.085-4.718 3.142-.314s0 1.573.628 2.516 5.03 3.775 5.03 3.775l2.827 4.1 1.258 5.348-1.258 5.976-2.513 4.404-3.77 4.1-4.084 2.832-4.084 1.886-4.084.946H371.3l-5.657-.946-4.4-2.83-2.514-4.405.316-3.774 2.828-.63 4.084 3.146 5.028 1.573 5.657-.63 4.713-3.774 1.884-4.1.314-4.405-1.57-5.347-2.514-4.72" fill="#f69c0f"/><g fill="#fff"><use xlink:href="#B"/><use xlink:href="#B" x="118.916" y="7.249"/><path d="M97.465 89.442c-2.82.957-4.854 2.83-6.1 5.614s-1.178 6.224.2 10.316c1.227 3.617 3.176 6.18 5.85 7.694s5.447 1.78 8.32.804c2.82-.958 4.856-2.834 6.1-5.63s1.2-6.197-.156-10.203c-1.214-3.58-3.14-6.163-5.78-7.746s-5.457-1.865-8.452-.847zm-2.278-6.723c6.345-2.154 11.958-2.015 16.84.42s8.22 6.288 10.006 11.563c1.794 5.293 1.486 10.4-.92 15.3s-6.774 8.425-13.1 10.575c-6.574 2.232-12.26 2.064-17.063-.506s-8.062-6.395-9.785-11.477c-1.782-5.256-1.485-10.34.9-15.25s6.752-8.446 13.132-10.614m37.455 29.494l-1.682-6 4.087-1.147-7.125-25.428-4.085 1.147-1.682-6 12.4-3.48 8.805 31.43 3.737-1.05 1.68 6-16.127 4.528m35.077-23.194c-.597-2.52-1.56-4.187-2.9-5s-2.685-1.058-4.06-.73c-1.648.4-2.768 1.332-3.362 2.823s-.644 3.278-.15 5.363c.468 1.976 1.305 3.535 2.512 4.674s2.653 1.5 4.336 1.1c1.395-.332 2.493-1.17 3.292-2.52s.908-3.254.324-5.72zm14.324 4.154l1.436 6.065-12.713 3.016-.74-3.134c-1.783 2.898-4.04 4.672-6.774 5.32-3.278.778-6.3.1-9.096-2.063s-4.627-5.125-5.524-8.914c-.9-3.844-.573-7.346 1.012-10.508s3.97-5.12 7.158-5.878c3.06-.726 5.868-.13 8.426 1.785l-1.982-8.368-4.1.973-1.435-6.065 12.494-2.965 7.52 31.76 4.32-1.024m3.482 5.648l-1.12-6.13 4.283-.784-4.75-25.978-4.284.784-1.12-6.13 12.74-2.335 2.52 13.772c2.33-2.358 4.677-3.755 7.038-4.187 5.437-.996 8.754 1.777 9.95 8.32l2.07 11.326 3.9-.714 1.122 6.13-12.384 2.27-3.122-17.072c-.23-1.245-.6-2.062-1.142-2.446s-1.25-.496-2.147-.332c-1.262.232-2.67 1.068-4.224 2.508l2.3 12.536 3.8-.695 1.12 6.13-16.53 3.03m51.19-18.515c-2.235-1.023-3.972-1.454-5.208-1.292a4.53 4.53 0 0 0-2.558 1.209c-.728.678-1.022 1.56-.88 2.652a3.62 3.62 0 0 0 1.298 2.395c.738.618 1.615.86 2.63.727 1.586-.208 3.254-1.375 5.004-3.502l-.286-2.2zm13.36 2.056l.807 6.18-12.87 1.685-.277-2.12c-2.1 1.975-4.415 3.128-6.98 3.464-2.658.348-5.05-.1-7.176-1.372s-3.355-3.167-3.7-5.717c-.335-2.568.4-4.854 2.202-6.856s4.3-3.213 7.52-3.633c1.8-.235 3.906-.052 6.35.55l-.214-1.636c-.178-1.366-.787-2.428-1.824-3.185s-2.33-1.034-3.88-.83c-1.92.25-3.47 1.17-4.65 2.75l-7.056-.345c1.44-4.492 5.492-7.173 12.153-8.045 2.583-.34 4.762-.327 6.536.032s3.136.948 4.087 1.762 1.67 1.75 2.154 2.806.9 2.82 1.213 5.294l1.277 9.78 4.318-.564m1.34-15.166l-.376-6.22 13.07-.8.133 2.205c2.83-1.925 5.693-2.976 8.6-3.153 3.475-.2 6.242.854 8.304 3.194 3.325-2.665 6.883-4.113 10.673-4.342 2.248-.136 4.098.167 5.55.9s2.48 1.796 3.085 3.158 1 3.46 1.163 6.286l.62 10.294 4.458-.27.376 6.22-13.068.8-.956-15.816c-.17-2.827-1.473-4.167-3.906-4.02-1.914.117-3.947.855-6.102 2.218l.724 11.994 4.458-.27.376 6.22-13.068.8-.94-15.566c-.18-2.995-1.44-4.42-3.78-4.28-1.82.1-3.874.85-6.158 2.22l.724 11.996 4.458-.27.376 6.22-17.526 1.06-.376-6.22 4.458-.27-.88-14.562-4.458.27m92.67-.2l-2.72-11.84-4 11.543 6.72.298zm16.998 13.142l-.3 6.56-19.076-.842.3-6.56 4.964.22-1.547-6.753-10.067-.445-2.36 6.582 5.188.23-.3 6.56-17.18-.758.3-6.56 4.797.212 8.7-25.38-5.16-.228.288-6.56 25.322 1.117-.288 6.56-5.215-.23 7 26.073 4.63.205m2.217-13.833l.604-6.203 3.418.334.413-4.227 9.186-5.337-1.014 10.403 4.945.483-.604 6.202-4.945-.483-1.14 11.677c-.103 1.06-.038 1.783.196 2.17s.83.63 1.794.723c.796.078 1.713-.02 2.75-.293l-.58 5.954c-2.293.693-4.495.936-6.607.73-4.705-.46-6.83-3.03-6.372-7.707l1.373-14.094-3.417-.333M380.9 88.8l.923-6.162 4.306.647 3.914-26.12-4.306-.647.923-6.163 12.8 1.923-2.074 13.847c2.968-1.476 5.64-2.036 8.014-1.68 5.466.82 7.706 4.52 6.72 11.098l-1.707 11.388 3.92.588-.924 6.163-12.45-1.87 2.572-17.163c.188-1.252.1-2.147-.3-2.685s-1.022-.875-1.923-1c-1.27-.2-2.872.143-4.808 1.002l-1.888 12.603 3.8.572-.924 6.162L380.9 88.8m35.295 5.607l1.254-6.105 4.156.856L426.92 63.3l-4.156-.855 1.254-6.106 12.605 2.597-6.57 31.972 3.8.783-1.254 6.105-16.406-3.38m42.95-7c.188-1.5-.058-2.904-.738-4.18s-1.84-2.128-3.477-2.557c-3.06-.8-5.303.5-6.724 3.874l10.94 2.863zm-.525 8.528l5.938 3.78c-3.834 3.56-8.642 4.585-14.42 3.072-4.6-1.208-7.888-3.365-9.837-6.474s-2.405-6.647-1.37-10.614c1.054-4.037 3.267-7.06 6.64-9.066s7.117-2.47 11.24-1.4c2.988.783 5.374 2.216 7.157 4.3s2.805 4.364 3.062 6.838.025 5.1-.7 7.876l-19.472-5.096c-.496 2.412-.184 4.295.934 5.646s2.443 2.23 3.973 2.63c2 .523 4.283.023 6.855-1.5m13.438-9.316l1.895-5.936 3.27 1.046 1.3-4.045 10.103-3.282-3.178 9.957 4.733 1.513-1.895 5.936-4.733-1.513-3.567 11.175c-.324 1.014-.412 1.735-.265 2.165s.68.8 1.602 1.085c.762.244 1.68.342 2.75.293l-1.82 5.697c-2.387.195-4.6-.03-6.6-.678-4.504-1.44-6.04-4.4-4.6-8.878l4.306-13.488-3.27-1.046"/><path d="M500.846 81.433c.447-1.22 1.262-2.1 2.446-2.665s2.4-.6 3.6-.16a4.51 4.51 0 0 1 2.668 2.461 4.6 4.6 0 0 1 .137 3.61 4.53 4.53 0 0 1-2.44 2.652 4.55 4.55 0 0 1-3.607.147 4.54 4.54 0 0 1-2.64-2.451c-.556-1.193-.613-2.4-.174-3.594zm-8.365 11.83l2.138-5.853 11.954 4.38-7.146 19.553 3.774 1.383-2.138 5.853-15.73-5.762 2.14-5.852 3.853 1.4 5.008-13.7-3.853-1.4m47.363 12.325l-4.332 10.1-5.643-2.428c-.1-3.325-1.505-5.576-4.24-6.754-1.744-.75-3.38-.77-4.912-.06s-2.7 2.032-3.54 3.968c-1.007 2.346-1.204 4.313-.6 5.906s1.714 2.73 3.304 3.413c1.265.545 2.618.696 4.06.454a8.95 8.95 0 0 0 3.96-1.72l4.992 5.357c-4.44 4.02-9.533 4.795-15.278 2.324-4.326-1.86-7.268-4.526-8.827-7.996s-1.5-7.18.207-11.136 4.298-6.53 7.803-7.73 6.93-1.08 10.28.363c2.684 1.156 4.84 3.047 6.467 5.673l.882-2.054 5.412 2.328m-253.686 14.675l-4.135-13.012h-.424l-4.303 13.012h8.862zm1.17 3.645H276.14l-2.376 7.042h3.774v3.9H265.3v-3.9h3.76l8.48-23.7h-3.754v-3.5h15.88v3.5h-3.883l8.693 23.7h3.475v3.9h-12.17v-3.9h3.862l-2.3-7.042m15.01 7.042v-23.32h-3.93v-3.9h24.096v9.367h-3.84v-5.477H307.04v9.2h10.028v3.9H307.04v10.216h3.976v3.9H298.42v-3.9h3.93"/><path d="M351.348 122.186l4.042 2.26c-.908 3.458-2.743 6.137-5.504 8.037s-5.937 2.85-9.525 2.85c-4.705 0-8.48-1.528-11.322-4.583s-4.266-6.834-4.266-11.336c0-4.933 1.43-8.86 4.288-11.782s6.588-4.382 11.188-4.382c4.065 0 7.48 1.1 10.25 3.33v-2.84h4.02v9.993h-4.02c-.893-2.026-2.27-3.596-4.13-4.706s-3.82-1.666-5.874-1.666c-3.098 0-5.64 1.117-7.627 3.354s-2.98 5.06-2.98 8.473c0 3.503 1.063 6.365 3.194 8.585s4.65 3.33 7.57 3.33c2.397 0 4.578-.772 6.544-2.313s3.35-3.745 4.153-6.607"/></g><path d="M276.5 632.825v-23.542h-4.243v-3.734h8.486v27.276h4.042v3.78h-12.528v-3.78h4.243m18.348-19.25c0 1.64.52 2.887 1.564 3.744s2.463 1.286 4.265 1.286c1.533 0 2.844-.413 3.93-1.24s1.63-2.1 1.63-3.8c0-3.25-1.943-4.874-5.828-4.874-1.683 0-3.03.417-4.042 1.252s-1.52 2.042-1.52 3.62zm-.647 14.286c0 1.64.566 2.986 1.697 4.035s2.68 1.576 4.646 1.576c1.86 0 3.383-.506 4.567-1.52s1.776-2.385 1.776-4.113c0-1.655-.556-3.004-1.664-4.048s-2.713-1.565-4.813-1.565c-1.817 0-3.306.5-4.467 1.498s-1.74 2.377-1.74 4.136zm1.005-7.5c-3.037-1.775-4.555-4.167-4.555-7.178 0-2.64.944-4.657 2.836-6.06s4.16-2.102 6.8-2.102c3.126 0 5.598.73 7.414 2.2s2.725 3.45 2.725 5.97c0 2.982-1.518 5.373-4.555 7.178 3.677 1.444 5.516 4 5.516 7.7 0 2.743-.957 4.938-2.87 6.585s-4.493 2.47-7.738 2.47c-3.65 0-6.4-.824-8.285-2.47s-2.814-3.842-2.814-6.585c0-3.68 1.84-6.245 5.516-7.7m33.267-3.197c-.64-5.634-2.696-8.45-6.164-8.45-1.713 0-3.07.636-4.075 1.912s-1.508 2.835-1.508 4.684c0 1.684.443 3.093 1.33 4.225s2.17 1.7 3.853 1.7c2.202 0 4.4-1.355 6.566-4.07zm-15.476 10.26h3.773c.224 1.774.85 3.22 1.876 4.34s2.262 1.675 3.707 1.675c1.994 0 3.543-1.035 4.646-3.106s1.667-4.897 1.697-8.474c-2.1 2.295-4.527 3.443-7.28 3.443-2.457 0-4.5-.886-6.164-2.66s-2.48-4.106-2.48-6.997c0-2.92.834-5.423 2.502-7.5s3.953-3.12 6.856-3.12c3.23 0 5.813 1.33 7.75 4s2.903 6.615 2.903 11.862c0 4.993-.934 8.946-2.803 11.86s-4.575 4.372-8.118 4.372c-2.755 0-4.898-.913-6.432-2.74s-2.344-4.14-2.433-6.943m21.81-.748h4.02c.238 2.086.92 3.748 2.043 4.985s2.6 1.857 4.456 1.857c1.86 0 3.357-.64 4.5-1.923s1.697-2.93 1.697-4.942c0-2.13-.55-3.76-1.652-4.884s-2.472-1.688-4.1-1.688c-2.456 0-4.534 1.244-6.23 3.734a11.63 11.63 0 0 0-3.238-2.259l1.273-16.007h16.57v8.25h-3.84v-4.248h-9.513l-.693 9.1c1.9-1.535 3.997-2.302 6.32-2.302 2.95 0 5.275.983 6.98 2.95s2.557 4.404 2.557 7.3c0 3.07-.934 5.586-2.803 7.546s-4.486 2.94-7.85 2.94c-3.126 0-5.6-.887-7.414-2.66s-2.837-4.36-3.06-7.758" fill="#100f0d"/></svg>