<svg xmlns="http://www.w3.org/2000/svg" width="205" height="250" xmlns:v="https://vecta.io/nano"><path d="M.03 62.03l.2 64.37.27 3.7a178.34 178.34 0 0 0 .35 3.55 145.34 145.34 0 0 0 .5 4l.46 3 .5 2.75.55 2.7.7 2.95.75 2.9a149.04 149.04 0 0 0 .94 3.15l1.23 3.7a126.71 126.71 0 0 0 1.35 3.55l1.6 3.8 2 4.2a133.41 133.41 0 0 0 2.23 4.25l1.8 3.15 1.5 2.45s1.4 2.2 2.18 3.35l2.7 3.9 2.4 3.25 2.46 3.15 2.6 3.2 3.27 3.8L36 204.7l3.86 4.1 4.8 4.8 3.63 3.4 2.7 2.4 2.7 2.3 2.95 2.4 3.35 2.6 4.1 3 4.25 2.95 3.45 2.25 3.4 2.1 3.4 2 3.55 1.98 4.75 2.46 5.05 2.42a138.16 138.16 0 0 0 3.65 1.59l2.6 1.06 2.63.96 1.65.5c.1 0 .8-.2 1.57-.46l3.3-1.2 2.95-1.2 2.95-1.3 4.85-2.33 3.85-1.96 1.8-.98 3.15-1.78 4.2-2.5 4.4-2.82a158.24 158.24 0 0 0 4.15-2.8 152.32 152.32 0 0 0 3.4-2.44l3.7-2.8a189.86 189.86 0 0 0 3.75-2.99l3.15-2.65 2.45-2.16a244.79 244.79 0 0 0 3.15-2.91l4.3-4.2 4.1-4.3 2.86-3.1 2.35-2.65 2.9-3.4a187.78 187.78 0 0 0 3.15-3.9l2.4-3.1 1.8-2.45 2.1-3 2.15-3.25 2.05-3.3 1.98-3.45a121.6 121.6 0 0 0 2.25-4.3l1.98-4.15 1.22-2.85 1.02-2.6 1.24-3.5 1.24-3.9s.75-2.66 1-3.65.63-2.6.85-3.6l.58-2.85.4-2.25.45-2.85.5-3.95.3-2.85.27-3.3.22-2.75L205 0H0l.03 62.03z" fill="#fff"/><path d="M2.95 2.97C2.9 3 2.87 29 2.88 60.74L3 121.8l.15 4.05.1 1.6.16 2.15c.05.7.18 2.13.3 3.2l.4 3.45a138.95 138.95 0 0 0 .54 3.6 150.38 150.38 0 0 0 .75 4.1c.23 1.1.63 2.9.9 4.02a105.74 105.74 0 0 0 1.14 4.25c.35 1.23.9 2.95 1.2 3.83.3.88.72 2.1.94 2.7a88.26 88.26 0 0 0 1.15 2.95 163.17 163.17 0 0 0 1.32 3.15c.32.72 1.06 2.3 1.64 3.5a107.76 107.76 0 0 0 2.03 3.95c.52.96 1.35 2.43 1.83 3.25a129.12 129.12 0 0 0 1.88 3.1c.55.88 1.65 2.57 2.45 3.75l2.72 3.9 2.54 3.4c.7.9 1.98 2.53 2.86 3.6l2.95 3.55 2.83 3.25 3.46 3.8c1.1 1.18 3.42 3.57 5.15 5.3 1.74 1.74 4.04 3.96 5.1 4.94a232.58 232.58 0 0 0 4.1 3.63l4.1 3.4 3.05 2.42 2.8 2.1 3.2 2.3 3.75 2.55 4.1 2.65 3.83 2.32a175.54 175.54 0 0 0 4.25 2.41c1.25.7 3.7 1.97 5.42 2.83 1.73.87 3.98 1.96 5 2.4l3.15 1.38 2.45 1a81.77 81.77 0 0 0 2.5.93l1.35.48c2.1-.74 3.4-1.24 4.25-1.58l3-1.25 2.6-1.15c.63-.28 2.4-1.14 3.95-1.9a159.38 159.38 0 0 0 4.9-2.53c1.16-.62 2.9-1.6 3.9-2.17l3.8-2.25 3.75-2.35 3.3-2.18 3.3-2.3c.96-.68 2.63-1.9 3.7-2.7l3.8-2.95 3.4-2.8 2.9-2.5 2.55-2.3 3.24-3.06c1.12-1.07 3.12-3.1 4.45-4.5l3.76-4a168.55 168.55 0 0 0 3.09-3.46l3.02-3.5 2.74-3.34a158.62 158.62 0 0 0 3.2-4.15 190.07 190.07 0 0 0 3.21-4.45 167.35 167.35 0 0 0 2.7-4.05l2.24-3.65 1.98-3.5 1.62-3.1 1.4-2.9 1.37-3.1c.36-.85.97-2.36 1.35-3.35a117.97 117.97 0 0 0 1.38-3.85c.38-1.13.93-2.9 1.24-3.95l1-3.7c.25-1 .65-2.77.9-3.95l.8-4.25.6-4 .4-3.35.25-2.6.16-1.97.1-1.6a145.44 145.44 0 0 0 .15-3.08c.06-1.4.1-25.75.1-61.52V2.9L2.95 2.97z" fill="#2a3885"/><path d="M10.6 26.6v15.6h183.9V11H10.6v15.6z" fill="#fcd206"/><path d="M111.75 15.26c-.38.08-1.04.3-1.45.5-.54.26-.94.55-1.4 1.02-.36.37-.82.96-1 1.32-.2.36-.47 1-.6 1.45a12.43 12.43 0 0 0-.36 1.5c-.07.4-.16 1.26-.2 1.95-.05.7-.08 2.38-.08 3.75l.08 3.7.2 1.9c.06.4.2 1.03.3 1.42a8.72 8.72 0 0 0 .52 1.4c.2.43.54.9.92 1.28.4.4.87.73 1.35.97.4.2 1.04.46 1.4.55.48.13 1.03.18 2.1.18 1.2-.01 1.6-.05 2.23-.23a10.45 10.45 0 0 0 1.4-.53 5.57 5.57 0 0 0 1.22-.93c.4-.4.74-.88.98-1.36.2-.4.46-1.1.57-1.55a9.09 9.09 0 0 0 .22-1.66l.03-.87c-.7-.1-1.6-.12-2.47-.12-1.48 0-1.6.01-1.68.2-.05.1-.1.4-.1.65a5.88 5.88 0 0 1-.11.98c-.06.28-.22.73-.35 1-.15.3-.4.57-.66.75-.36.23-.52.27-1.12.27-.53 0-.8-.06-1.06-.2-.2-.1-.5-.38-.65-.6-.17-.2-.38-.64-.48-.94-.1-.3-.2-.98-.26-1.5-.06-.52-.08-2.93-.07-5.35l.15-5.05c.07-.36.2-.85.32-1.1s.32-.58.47-.73c.15-.16.44-.37.65-.48.23-.12.58-.2.92-.2.32 0 .7.07.92.18a2.26 2.26 0 0 1 .65.52 3.07 3.07 0 0 1 .43.8c.1.25.2.78.23 1.18.04.47.12.76.22.82.08.05.95.1 1.92.1 1.55 0 1.8-.02 1.94-.17.14-.15.16-.3.1-.98a16.36 16.36 0 0 0-.22-1.5 7.66 7.66 0 0 0-.45-1.3c-.16-.33-.48-.82-.72-1.1-.24-.27-.72-.7-1.08-.93-.35-.24-.9-.52-1.2-.64-.3-.1-.93-.26-1.4-.34s-1.23-.14-1.7-.13c-.47 0-1.17.07-1.55.15zm44.45-.01c-.36.07-.85.2-1.1.3s-.63.3-.85.43a6.09 6.09 0 0 0-.88.7c-.27.25-.7.77-.92 1.16-.24.38-.57 1.1-.74 1.6a12.63 12.63 0 0 0-.4 1.65c-.06.4-.15 1.44-.2 2.28l-.1 3.4.1 3.32.2 2.2a13.32 13.32 0 0 0 .31 1.5 8.08 8.08 0 0 0 .57 1.45 5.98 5.98 0 0 0 .91 1.25c.34.34.84.7 1.3.92.4.2 1.04.46 1.4.55.47.13 1.04.18 2.05.18 1.05 0 1.6-.05 2.15-.2a8.92 8.92 0 0 0 1.4-.5c.42-.2.88-.54 1.3-.96.5-.5.76-.86 1.07-1.5.22-.47.47-1.16.55-1.55.1-.4.2-1.08.22-1.55l.07-.85c-.75-.12-1.67-.15-2.52-.15l-1.66.08c-.06.04-.12.34-.13.67s-.06.83-.12 1.1a4.21 4.21 0 0 1-.37 1c-.15.27-.43.6-.62.72a2.09 2.09 0 0 1-.75.29c-.22.04-.65 0-.95-.07a1.72 1.72 0 0 1-.97-.56c-.33-.33-.48-.6-.63-1.1-.1-.37-.24-1.16-.3-1.77-.05-.6-.1-2.52-.1-4.25l.1-4.6.24-1.95a3.86 3.86 0 0 1 .48-.95c.2-.25.52-.55.74-.67.28-.16.56-.23.97-.23.34 0 .72.07.94.18a2.26 2.26 0 0 1 .65.52c.16.2.38.64.5 1 .1.36.2.86.2 1.13 0 .3.06.53.15.62.12.12.5.15 2.13.15h1.97l-.3-2.7a6.22 6.22 0 0 0-.45-1.25c-.16-.33-.5-.84-.77-1.14-.26-.3-.74-.72-1.07-.93a7.4 7.4 0 0 0-1.15-.59c-.3-.12-.93-.27-1.4-.35s-1.23-.14-1.7-.13c-.47 0-1.14.07-1.5.14zm24.3 0c-.36.08-.97.3-1.35.5-.38.2-.96.56-1.27.8-.35.27-.76.73-1.05 1.18a7.91 7.91 0 0 0-.74 1.52 14 14 0 0 0-.43 1.75l-.28 1.95c-.07.6-.12 2.25-.12 4.05l.17 4.25.37 2c.1.44.36 1.12.54 1.5.2.4.58.96.87 1.3a7.58 7.58 0 0 0 1.19 1.01 6.71 6.71 0 0 0 1.4.68c.4.14 1.2.3 1.75.37.74.1 1.22.1 1.85.01.47-.06 1.12-.2 1.45-.3.33-.12.85-.34 1.15-.5.3-.16.77-.48 1.04-.72.27-.23.7-.73.98-1.12.33-.47.58-1 .78-1.62.17-.5.37-1.32.45-1.8.1-.48.2-1.6.26-2.47.07-.95.1-2.74.05-4.4l-.2-3.85a13.34 13.34 0 0 0-.36-1.7c-.12-.36-.38-.96-.57-1.35-.23-.47-.57-.92-1.03-1.37-.48-.47-.9-.8-1.4-1.02-.4-.2-1-.42-1.33-.52-.4-.1-1.1-.18-2.05-.2-1.03-.03-1.64.01-2.1.1zm-147.45.47l-.8 3.08-2.7 10.7-1.98 7.93c-.03.16.1.18 2.1.18l2.2-.07c.03-.03.3-1.06.56-2.28l.5-2.2h4.9l1 4.56 4.28-.18c-.01-.1-.22-1.06-.47-2.13l-1.47-6.4-3.04-13.25c-4.5-.05-5.06-.03-5.1.07zm54.06.26l-1.5 5.97-2.66 10.53-1.24 5.04c0 .1.47.12 2.17.08l2.18-.05 1.04-4.47c.01-.05 1.1-.08 2.46-.08s2.45.03 2.45.08c0 .04.2 1.04.46 2.22l.53 2.23c.03.04 1 .07 2.15.08l2.12-.03c.02-.02-.4-2-.95-4.38L94 23.15l-1.54-6.63-.22-.92H87.2l-.1.38zm39.14-.25c-.02.06-.9 3.54-1.95 7.72l-2.7 10.73-.8 3.3c0 .16.16.17 2.12.15l2.18-.08c.03-.04.28-1.07.56-2.28l.5-2.22 4.9-.05 1 4.6 4.28-.06s-.2-1.14-.5-2.4l-4.5-19.55-5.1.13zM15.5 26.64V37.6l4.08.03c.04.01.1-1.9.12-4.23l.05-4.25 4.35-.3c.36-.1 1-.34 1.45-.55.58-.28.95-.55 1.35-.97.32-.34.72-.9.93-1.34.2-.4.46-1.1.57-1.55a10.41 10.41 0 0 0 .24-1.75c.02-.52-.01-1.26-.06-1.65-.05-.38-.2-1.03-.34-1.42-.13-.4-.4-.98-.6-1.28a6.51 6.51 0 0 0-.82-1c-.27-.25-.77-.6-1.13-.8a9.03 9.03 0 0 0-1.5-.56c-.8-.2-1.12-.22-4.77-.26l-3.9-.05-.01 10.96zm29.7.01l.03 10.96h4.2l.05-9 3.44.2c.16.08.38.33.5.55.2.38.2.53.2 3.6l.2 3.8c.1.33.2.66.24.73.05.1.56.13 2.27.12l2.23-.06c.01-.02-.1-.23-.23-.46-.13-.24-.32-.77-.4-1.18-.13-.6-.15-1.3-.13-3.6l-.14-3.4c-.1-.3-.32-.77-.5-1.04-.2-.3-.57-.65-.96-.9-.34-.23-.62-.44-.62-.48 0-.05.15-.17.33-.27.17-.1.53-.42.8-.7.26-.28.6-.77.73-1.08.14-.32.32-.87.4-1.23.07-.36.14-1 .14-1.4s-.07-1.13-.16-1.6-.32-1.2-.5-1.6c-.23-.5-.54-.95-.9-1.33-.33-.33-.85-.72-1.22-.92-.36-.18-.92-.4-1.25-.5-.5-.13-1.3-.16-4.68-.16H45.2l.02 10.95zm16.6 0l.02 10.96h3.7l.15-13.54c.03-.03.74 2.97 1.6 6.66l1.6 6.8c.03.04.85.08 1.8.08 1.34 0 1.77-.03 1.82-.13.05-.07.37-1.37.73-2.88l2.15-9.02c.14-.63.24-.88.35-.88.13 0 .14.73.08 6.23v6.47l.06.25c3.64 0 3.72-.01 3.77-.2.02-.1.03-5.04.02-10.95l-.03-10.75-5.45-.05c-.15.58-.76 3.14-1.45 6.05l-1.6 6.75c-.18.8-.37 1.46-.42 1.48-.05.01-.28-.9-.52-2.05-.24-1.15-.96-4.35-1.6-7.13l-1.17-5.05-5.64-.05.03 10.95zm76.52-10.88c-.05.03-.08 4.92-.07 10.85l.07 10.9c.04.1 1.2.13 5.43.1l5.37-.03.05-3.5h-6.6V15.7c-3.23 0-4.2.03-4.25.07zm29.15 10.88V37.6l4.05.05c.13.04.15-1.22.15-10.95v-11h-4.2v10.95z" fill="#2a3885"/><path d="M181.43 18.7a2.28 2.28 0 0 0-.75.68c-.18.25-.4.7-.5 1s-.2.84-.24 1.2l-.1 1c-.02.2-.06 1.72-.1 3.4l.04 4.55c.06.92.18 1.75.3 2.15.1.36.33.83.48 1.05.18.24.48.5.78.64.4.2.62.23 1.16.2.5-.03.75-.1 1.07-.32a2.69 2.69 0 0 0 .66-.64c.13-.2.3-.63.4-.93.1-.3.22-1.04.28-1.65.07-.64.13-2.73.13-5l-.12-4.7c-.07-.44-.2-1-.27-1.25-.08-.25-.3-.63-.47-.84a2.46 2.46 0 0 0-.73-.58c-.24-.1-.64-.18-1-.18-.42 0-.73.07-1.02.2zM19.7 22.34v3.16l2.28-.1c.34-.06.8-.2 1-.3a3.06 3.06 0 0 0 .64-.48c.15-.15.36-.48.46-.73a3.97 3.97 0 0 0 .26-1c.04-.3.02-.85-.04-1.22-.05-.38-.2-.9-.35-1.18-.14-.27-.37-.6-.52-.7a3.82 3.82 0 0 0-.73-.36c-.3-.1-.9-.2-1.7-.22l-1.26-.06-.02 3.17zm29.8-.25V25c1.5 0 2.06-.06 2.4-.16a4.39 4.39 0 0 0 .98-.45c.3-.2.5-.46.7-.86.23-.5.27-.7.27-1.43-.01-.64-.06-.96-.2-1.3-.12-.25-.34-.6-.5-.8-.16-.18-.47-.43-.7-.54-.32-.17-.64-.22-1.66-.25l-1.27-.04-.01 2.9zm-14.08.32c-.06.13-.44 1.68-.84 3.44l-.75 3.33c-.03.1.34.12 1.6.12 1.52 0 1.65-.01 1.6-.17l-.44-2.03-.67-3.3-.33-1.54c-.04-.05-.12.02-.18.15zm54.12-.08c-.03.06-.36 1.5-.75 3.22l-.8 3.43-.1.32 3.24-.07c.02-.05-.2-1.2-.48-2.58l-.7-3.47c-.1-.54-.2-.98-.26-.98-.06 0-.13.06-.15.13zm38.3 3.4l-.8 3.53h3.15c.1-.04.07-.25-.1-.92l-.72-3.47-.62-2.63c-.06-.02-.45 1.5-.9 3.5z" fill="#fcd206"/><path d="M45.96 49.25c-.03.08-.06 13.22-.06 29.2v29.05H10.45l.2 17.7.1 1.55.05 1.18v.47h35.1v72.75l7.4 7.26 2.9 2.6 2.75 2.36 2.7 2.2 3.25 2.52c.96.72 1.8 1.32 1.88 1.3.1 0 .12-9.17.12-45.5v-45.5h35.3v-20.9H66.9l-.05-58.25c-.04-.13-1.3-.15-10.44-.15s-10.4.02-10.45.15z" fill="#1d1c1a"/><path d="M10.6 78.35v29.15h35.3l.05-58.3H10.6v29.15zm56.28 0l.02 29.15h35.3V49.2H66.85l.03 29.15z" fill="#fff"/><path d="M116.8 140.88l.07 91.74c.04.04.46-.13.93-.4l2.25-1.2 3.4-1.9s2.8-1.65 3.8-2.25l2.93-1.84 1.12-.73V49.2h-14.5v91.68zm29.3-9.68l.08 82c.04 0 .68-.52 1.42-1.16l3.2-2.8 5.78-5.6 3.92-3.93V49.2h-14.4v82zm28.9-15.52l.1 66.37a138.28 138.28 0 0 0 1.39-2l2.34-3.55a121.27 121.27 0 0 0 1.9-3.1l1.74-3.05 2.05-4 1.84-3.95s.95-2.27 1.3-3.15a124.29 124.29 0 0 0 1.19-3.22l.56-1.63V49.2H175v66.48z" fill="#fcd206"/><path d="M10.9 128.83c0 .23.07 1.2.15 2.17l.3 3.15.45 3.5.65 4.05.8 3.95.75 3.15.7 2.55.9 2.95 1.13 3.25 1.1 2.85 1.22 2.85L21 167.3l2.2 4.15 2.12 3.6 2.2 3.45 2.05 3 2.3 3.15 3.07 3.95 3.35 4.05 2.93 3.35 2.96 3.23 1.7 1.77c.01 0 .02-16.33.02-36.3v-36.3h-35v.43zm56 45.15v45.57l5.6 3.92 3.3 2.15 3.2 1.98 3.35 1.95 3.15 1.75c.74.4 2.6 1.34 4.1 2.1s3.52 1.7 4.45 2.13l2.65 1.16 2.25.92a87.48 87.48 0 0 0 2.25.86c.52.2.96.34.98.34.01 0 .02-24.84.02-55.2v-55.2H66.9v45.58z" fill="#fff"/></svg>