<?xml version="1.0" encoding="UTF-8"?>
<svg width="261.36" height="382.61" fill-rule="evenodd" viewBox="0 0 388 568" xmlns="http://www.w3.org/2000/svg">
<rect class="" width="100%" height="100%" fill="none"/>
<g class="currentLayer">
<title>Layer 1</title>
<g class="">
<path d="m136.66 156.38c1.008-7.056 2.88-14.328 5.688-21.96 0.792-2.016 3.528-2.664 5.112-1.152l9.36 8.784 11.664-15.84c1.008-1.44 3.384-1.656 4.68-0.432l5.76 5.472 5.832-15.552c0.72-1.872 3.168-2.664 4.752-1.44 0.936 0.648-0.072-0.072 0.792 0.576 1.08 0.792 2.232 1.656 3.528 2.376 1.296-0.72 2.448-1.584 3.528-2.376 0.864-0.648-0.144 0.072 0.792-0.576 1.584-1.224 4.032-0.432 4.752 1.44l5.832 15.552 5.76-5.472c1.296-1.224 3.672-1.008 4.68 0.432l11.664 15.84 9.36-8.784c1.584-1.512 4.32-0.864 5.112 1.152 2.808 7.632 4.68 14.904 5.688 21.96 78.984 24.48 136.66 98.28 136.66 185.11 0 90.504-62.64 166.82-146.74 187.99l-44.64 37.008c-1.224 1.008-3.672 1.008-4.896 0l-44.64-37.008c-84.096-21.168-146.74-97.488-146.74-187.99 2.404e-26 -86.832 57.672-160.63 136.66-185.11z" fill="#1f211d"/>
<path d="m222.84 221.98c10.656-12.096 17.856-24.696 21.024-38.376 2.952-12.96 2.232-27-2.88-42.48l-8.424 7.92c-1.224 1.224-3.6 1.008-4.68-0.36l-11.664-15.912-6.624 6.264c-1.584 1.512-4.32 0.864-5.112-1.152l-6.048-16.2c-1.008 0.648-2.088 1.296-3.384 1.872-0.504 0.216-1.944 0.216-2.448 0-1.296-0.576-2.376-1.224-3.384-1.872l-6.048 16.2c-0.792 2.016-3.528 2.664-5.112 1.152l-6.624-6.264-11.664 15.912c-1.08 1.368-3.456 1.584-4.68 0.36l-8.424-7.92c-5.112 15.48-5.832 29.52-2.88 42.48 3.168 13.68 10.368 26.28 21.024 38.376 9.36-2.304 19.08-3.456 29.016-3.456 9.936 0 19.656 1.152 29.016 3.456z" fill="#fff"/>
<path d="m135.94 173.02c-0.144-2.664-0.144-5.4-0.072-8.208-74.232 24.48-128.02 94.536-128.02 176.69 0 86.832 60.048 160.13 140.76 180.43 1.152 0.288 1.872 0.504 2.808 1.296l42.408 35.208 42.408-35.208c0.936-0.792 1.656-1.008 2.808-1.296 80.712-20.304 140.76-93.6 140.76-180.43 0-82.152-53.784-152.21-128.02-176.69 0.072 2.808 0.072 5.544-0.072 8.208 69.84 24.12 120.31 90.648 120.31 168.48 0 86.832-62.712 159.55-145.22 175.1v4.392l-8.352 6.912v-65.88c-1.08 0.216-2.088 0.432-3.168 0.648v67.824l-8.424 6.912v-73.584c-1.008 0.144-2.016 0.216-3.096 0.288v75.888l-8.424 6.984v-82.44h-1.512-1.512v82.44l-8.424-6.984v-75.888c-1.08-0.072-2.088-0.144-3.096-0.288v73.584l-8.424-6.912v-67.824c-1.08-0.216-2.088-0.432-3.168-0.648v65.88l-8.352-6.912v-4.392c-82.512-15.552-145.22-88.272-145.22-175.1 0-77.832 50.472-144.36 120.31-168.48z" fill="#fff"/>
<path d="m136.87 181.01c-65.952 23.472-113.4 86.688-113.4 160.49 0 82.512 59.184 151.7 137.38 167.11v-48.6c-51.84-14.472-90.072-62.208-90.072-118.51 0-55.368 36.936-102.31 87.408-117.72-10.296-12.168-17.28-24.912-20.448-38.808-0.36-1.296-0.576-2.664-0.864-3.96z" fill="#fff"/>
<path d="m229.46 223.78c50.472 15.408 87.408 62.352 87.408 117.72 0 56.304-38.232 104.04-90.072 118.51v48.6c78.192-15.408 137.38-84.6 137.38-167.11 0-73.8-47.448-137.02-113.4-160.49-0.288 1.296-0.504 2.664-0.864 3.96-3.168 13.896-10.152 26.64-20.448 38.808z" fill="#fff"/>
<path d="m193.82 456.7c63.432 0 115.2-51.768 115.2-115.2s-51.768-115.2-115.2-115.2c-63.432 0-115.2 51.768-115.2 115.2s51.768 115.2 115.2 115.2z" fill="#fff"/>
<path d="m193.82 448.92c59.112 0 107.42-48.24 107.42-107.42 0-59.112-48.312-107.35-107.42-107.35-59.112 0-107.42 48.24-107.42 107.35 0 59.184 48.312 107.42 107.42 107.42z" fill="#1f211d"/>
<path d="m193.82 406.15c35.568 0 64.656-29.016 64.656-64.656s-29.088-64.656-64.656-64.656c-35.568 0-64.656 29.016-64.656 64.656s29.088 64.656 64.656 64.656z" fill="#fff"/>
<path d="m193.82 276.91-14.544 43.992h-46.584l37.152 27.288-15.12 44.64 39.096-27.216 39.096 27.216-15.12-44.64 37.152-27.288h-46.584l-14.544-43.992z" fill="#ca222c"/>
<path d="m116.86 342.07-18.72-1.656 1.08-12.816 3.168 0.216-0.792 9.072 4.464 0.432 0.72-7.848 3.168 0.288-0.72 7.848 7.992 0.648-0.36 3.816z" fill="#fff"/>
<path d="m104.76 305.86 1.8-3.312 9 4.752c1.44 0.792 2.376 1.224 2.88 1.368 0.72 0.216 1.44 0.144 2.16-0.144 0.72-0.36 1.296-0.936 1.8-1.872 0.504-1.008 0.72-1.8 0.576-2.52-0.144-0.648-0.504-1.224-1.008-1.584-0.504-0.432-1.44-1.008-2.736-1.656l-9.216-4.896 1.8-3.384 8.784 4.68c1.944 1.008 3.312 1.872 4.032 2.52 0.72 0.576 1.296 1.296 1.584 2.088 0.288 0.792 0.432 1.656 0.288 2.664-0.072 1.008-0.504 2.16-1.152 3.456-0.864 1.584-1.728 2.736-2.52 3.312-0.792 0.648-1.584 1.08-2.448 1.224-0.864 0.144-1.584 0.144-2.304-0.072-1.08-0.288-2.592-0.864-4.392-1.872l-8.928-4.752z" fill="#fff"/>
<path d="m125.57 274.25 5.328-4.464c1.224-1.008 2.16-1.656 2.952-2.016 1.08-0.504 2.16-0.648 3.312-0.504 1.152 0.144 2.232 0.504 3.312 1.152 1.08 0.648 2.232 1.656 3.384 3.024 0.936 1.224 1.656 2.376 2.088 3.456 0.504 1.368 0.72 2.664 0.576 3.816-0.072 0.936-0.432 1.872-1.008 2.88-0.504 0.792-1.296 1.584-2.376 2.376l-5.472 4.608-12.096-14.328zm4.968 0 7.992 9.576 2.16-1.872c0.864-0.648 1.368-1.224 1.656-1.584 0.36-0.504 0.648-1.08 0.72-1.584 0.072-0.576-0.072-1.224-0.432-2.016-0.36-0.864-1.008-1.8-1.944-2.952-0.936-1.08-1.728-1.872-2.448-2.304-0.648-0.432-1.368-0.648-1.944-0.72-0.648 0-1.296 0.144-1.944 0.504-0.504 0.216-1.296 0.864-2.52 1.872l-1.296 1.08z" fill="#fff"/>
<path d="m157.1 253.22 7.2-2.304c1.368-0.432 2.448-0.72 3.24-0.864 0.72-0.072 1.44-0.072 2.088 0.144 0.648 0.216 1.296 0.576 1.872 1.08 0.576 0.504 0.936 1.08 1.224 1.872 0.288 0.864 0.288 1.728 0.072 2.52-0.216 0.864-0.648 1.584-1.368 2.16 1.224 0 2.232 0.288 3.096 0.864 0.792 0.576 1.368 1.368 1.728 2.376 0.288 0.792 0.36 1.656 0.216 2.592-0.144 0.864-0.432 1.656-0.936 2.304-0.504 0.72-1.224 1.224-2.16 1.656-0.576 0.288-2.016 0.792-4.32 1.512l-6.12 2.016-5.832-17.928zm4.608 1.8 1.368 4.176 2.376-0.792c1.368-0.432 2.232-0.72 2.592-0.936 0.576-0.216 1.008-0.576 1.224-1.08 0.288-0.504 0.288-1.008 0.072-1.584-0.144-0.576-0.432-0.936-0.864-1.224-0.432-0.216-0.936-0.288-1.584-0.144-0.36 0.072-1.368 0.36-3.096 0.936l-2.088 0.648zm2.304 7.128 1.584 4.824 3.312-1.08c1.296-0.432 2.16-0.72 2.448-0.936 0.504-0.288 0.864-0.648 1.08-1.152 0.216-0.504 0.216-1.08 0-1.656-0.144-0.576-0.432-0.936-0.792-1.296-0.432-0.288-0.864-0.432-1.44-0.432-0.504 0-1.584 0.288-3.24 0.792l-2.952 0.936z" fill="#fff"/>
<path d="m209.52 265.97-4.104-0.288-1.368-4.392-7.488-0.504-1.872 4.176-3.96-0.288 8.568-18.288 4.032 0.288 6.192 19.296zm-6.48-7.92-2.088-7.128-3.024 6.768 5.112 0.36z" fill="#fff"/>
<path d="m222.91 270.58 8.496-16.632 3.384 1.728-7.056 13.752 8.424 4.32-1.44 2.808-11.808-5.976z" fill="#fff"/>
<path d="m250.13 280.51 2.736 2.592c-0.792 0.936-1.152 1.872-1.152 2.736 0 0.864 0.36 1.8 1.152 2.664 0.792 0.936 1.584 1.44 2.376 1.584 0.792 0.144 1.44-0.072 1.944-0.504 0.36-0.288 0.576-0.648 0.648-1.008 0.072-0.432-0.072-0.936-0.288-1.584-0.144-0.432-0.648-1.368-1.368-2.88-0.936-1.8-1.44-3.24-1.44-4.392 0.072-1.512 0.648-2.808 1.728-3.744 0.72-0.648 1.584-1.008 2.592-1.152 0.936-0.144 1.944 0 2.952 0.504 1.008 0.504 2.016 1.296 2.952 2.376 1.512 1.8 2.304 3.456 2.304 5.04 0 1.512-0.648 2.88-1.872 4.104l-2.664-2.808c0.648-0.648 0.936-1.368 0.936-2.088-0.072-0.648-0.432-1.44-1.152-2.232-0.72-0.792-1.44-1.296-2.16-1.512-0.504-0.072-0.936 0-1.296 0.288-0.36 0.36-0.504 0.72-0.504 1.224 0 0.648 0.432 1.8 1.368 3.456 0.864 1.584 1.44 2.952 1.656 3.888 0.216 1.008 0.216 1.944-0.072 2.88-0.288 0.864-0.864 1.728-1.8 2.52-0.792 0.72-1.728 1.152-2.88 1.296-1.08 0.144-2.16 0-3.24-0.576-1.08-0.504-2.16-1.368-3.168-2.592-1.584-1.8-2.376-3.528-2.376-5.256 0-1.584 0.72-3.24 2.088-4.824z" fill="#fff"/>
<path d="m263.45 308.81 17.856-6.192 1.224 3.6-7.92 2.736 10.44 4.536 1.656 4.824-9.288-4.32-8.424 10.8-1.584-4.608 6.696-7.776-4.032-1.872-5.328 1.8-1.296-3.528z" fill="#fff"/>
<path d="m270.22 338.4 18.792-0.648 0.144 3.816-18.864 0.648-0.072-3.816z" fill="#fff"/>
<path d="m143.35 422.64 8.856-16.632 3.384 1.8-3.96 7.416 10.728-3.816 4.536 2.448-9.72 3.096 1.224 13.68-4.392-2.304-0.432-10.224-4.176 1.296-2.664 5.04-3.384-1.8z" fill="#fff"/>
<path d="m172.44 434.52 3.528-18.36 3.744 0.72-2.952 15.192 9.288 1.8-0.648 3.168-12.96-2.52z" fill="#fff"/>
<path d="m197.86 418.32 3.744-0.504 1.44 10.08c0.216 1.656 0.432 2.664 0.576 3.096 0.216 0.792 0.72 1.296 1.368 1.728 0.72 0.359 1.584 0.432 2.592 0.288 1.08-0.144 1.872-0.432 2.376-0.936 0.432-0.504 0.72-1.152 0.72-1.8 0-0.648-0.072-1.656-0.288-3.168l-1.44-10.296 3.744-0.576 1.368 9.792c0.36 2.304 0.432 3.888 0.36 4.824-0.072 0.936-0.288 1.8-0.792 2.52-0.432 0.72-1.08 1.296-1.944 1.8-0.864 0.504-2.016 0.864-3.528 1.08-1.8 0.216-3.168 0.216-4.104-0.072-1.008-0.288-1.8-0.72-2.448-1.296-0.576-0.576-1.08-1.224-1.296-1.872-0.432-1.08-0.792-2.592-1.08-4.68l-1.368-10.008z" fill="#fff"/>
<path d="m222.05 413.14 6.696-3.528c1.296-0.648 2.304-1.152 3.024-1.368 0.72-0.216 1.368-0.36 2.088-0.216 0.72 0.072 1.368 0.288 2.016 0.648 0.648 0.432 1.152 1.008 1.512 1.728 0.432 0.72 0.576 1.584 0.504 2.448-0.072 0.864-0.36 1.656-0.864 2.376 1.152-0.216 2.16-0.145 3.096 0.288 0.936 0.36 1.656 1.08 2.16 2.016 0.432 0.792 0.648 1.584 0.648 2.52 0 0.864-0.144 1.728-0.504 2.448-0.432 0.792-1.008 1.44-1.872 2.016-0.504 0.36-1.872 1.08-3.96 2.232l-5.688 3.024-8.856-16.632zm4.824 1.008 2.088 3.816 2.16-1.152c1.368-0.72 2.16-1.152 2.448-1.368 0.504-0.361 0.864-0.792 1.008-1.296 0.144-0.504 0.072-1.008-0.216-1.584-0.216-0.504-0.576-0.864-1.08-1.008-0.432-0.144-0.936-0.144-1.512 0.072-0.36 0.144-1.368 0.648-2.952 1.512l-1.944 1.008zm3.528 6.624 2.376 4.392 3.096-1.584c1.224-0.648 1.944-1.08 2.232-1.368 0.504-0.36 0.792-0.792 0.936-1.296 0.072-0.504 0-1.08-0.288-1.656-0.288-0.504-0.648-0.864-1.08-1.08-0.432-0.216-0.864-0.288-1.44-0.216-0.576 0.072-1.584 0.504-3.096 1.368l-2.736 1.44z" fill="#fff"/>
<path d="m274.39 484.85-11.016-19.08 9-5.616 12.816 18.216 11.664-7.92-23.76-29.664-8.568 6.12 4.248 6.48-8.784 5.616-3.816-6.984-9.864 5.832 15.48 34.2 12.6-7.2z" fill="#1f211d"/>
<path d="m302.04 407.81-5.4 6.48 3.384 5.184-8.28 9.864-6.12-1.512-8.712 10.08 38.376 14.184 7.416-8.352-20.664-35.928zm-2.664 23.616 4.248-5.616 4.032 8.28-8.28-2.664z" fill="#1f211d"/>
<path d="m350.14 395.21-7.2-4.032-7.416 15.048-6.048-10.08-6.768 2.88 2.016 4.536s-10.296 2.232-10.296-6.768c0-7.416 12.6-8.496 12.6-8.496l-0.504-2.736s-20.16-2.448-20.88 15.264c-0.648 17.568 20.016 15.552 20.016 15.552l7.2 13.032 17.28-34.2z" fill="#1f211d"/>
<path d="m357.77 364.03-23.544-1.8 8.28 11.016 12.816 3.528-2.52 11.52-37.008-12.168 1.296-8.064 8.784 0.648-6.264-8.496 0.648-10.584 38.232 0.432-0.72 13.968z" fill="#1f211d"/>
<path d="m320.76 324.43 27.576-3.096-0.648-9.936 9.648-0.648 2.232 33.48h-9.216l-0.648-10.584-28.728 0.216-0.216-9.432z" fill="#1f211d"/>
<path d="m254.74 228.6 18.216-33.048 33.696 23.616-25.2 28.944-8.784-6.984 18.216-24.264-10.296-7.416-17.136 24.984-8.712-5.832z" fill="#1f211d"/>
<path d="m322.99 237.6-39.312 13.032 4.968 5.616 5.4-1.584 8.712 10.512-2.88 5.4 7.632 10.8 22.896-35.496-7.416-8.28zm-16.848 20.664-4.464-5.616 8.28-2.52-3.816 8.136z" fill="#1f211d"/>
<path d="m352.01 286.49-9.936-21.24-33.48 18.576 4.32 9.36 5.832-2.664s6.264 10.8 8.064 13.968c2.016 3.312 7.848 8.928 18.864 3.816 14.184-6.768 6.336-21.816 6.336-21.816zm-13.752 9.216c-9 3.6-11.664-6.048-11.664-6.048l13.68-5.832s5.616 8.712-2.016 11.88z" fill="#1f211d"/>
<path d="m57.384 247.54-6.12 9.36 25.2 32.76 4.464-7.056-4.032-4.752 6.84-10.872 6.264 0.792 7.632-11.088-40.248-9.144zm15.048 24.696-4.968-7.704 8.712 1.584-3.744 6.12z" fill="#1f211d"/>
<path d="m67.392 363.89-27.216 5.184 1.368 9.864-9.72 1.584-4.68-33.264 9-0.864 1.8 10.728 28.512-2.664 0.936 9.432z" fill="#1f211d"/>
<path d="m107.21 434.45-5.256 1.944-9.648-9.864 2.808-5.328-8.568-10.296-20.088 37.368 7.92 7.56 38.304-16.056-5.472-5.328zm-20.88 7.704 3.384-8.28 4.824 5.328-8.208 2.952z" fill="#1f211d"/>
<path d="m130.46 451.51-3.384 5.688s-11.448-4.968-14.616-6.336c-3.6-1.584-11.664-2.448-17.28 8.28-7.416 13.752 8.064 21.168 8.064 21.168l20.448 11.016 15.768-34.848-9-4.968zm-16.632 23.832s-9.648-3.6-5.4-10.584c4.968-8.28 13.032-2.232 13.032-2.232l-7.632 12.816z" fill="#1f211d"/>
<path d="m79.272 396.5-6.048 2.664s-0.936-1.8-2.304-4.032l4.752-6.768-4.68-13.896-7.704 8.28c-2.88-2.88-8.28-5.4-16.848-1.368-14.112 6.768-6.264 21.816-6.264 21.816l9.864 21.384 33.48-18.648-4.248-9.432zm-27.432 9.432s-5.616-8.784 2.016-11.952c9-3.6 11.736 6.12 11.736 6.12l-13.752 5.832z" fill="#1f211d"/>
<path d="m65.592 326.59-37.728-2.664-0.72 13.68h38.232l0.216-11.016z" fill="#1f211d"/>
<path d="m37.296 317.16 4.896-17.784 25.416 22.032 8.064-28.728-8.064-3.816-3.168 10.8-25.344-22.176-10.584 37.656 8.784 2.016z" fill="#1f211d"/>
<path d="m96.768 206.14 12.312-7.416 19.584 32.328-6.048 5.184-22.464-0.936 7.848 11.232-7.416 6.984-28.296-25.2 9.432-9.432 26.928 4.752-11.88-17.496z" fill="#1f211d"/>
<path d="m118.44 1.584c-0.504-1.584-1.368-1.584-1.872 0l-11.52 35.424c-0.504 1.584-2.232 2.88-3.888 2.88h-37.296c-1.656 0-1.872 0.792-0.576 1.728l30.168 21.96c1.368 0.936 2.016 3.024 1.512 4.608l-11.52 35.424c-0.504 1.584 0.144 2.088 1.512 1.08l30.168-21.888c1.296-1.008 3.456-1.008 4.824 0l30.168 21.888c1.296 1.008 2.016 0.504 1.512-1.08l-11.52-35.424c-0.504-1.584 0.144-3.672 1.44-4.608l30.168-21.96c1.368-0.936 1.08-1.728-0.576-1.728h-37.224c-1.656 0-3.456-1.296-3.96-2.88l-11.52-35.424z" fill="#929a77"/>
<path d="m269.21 1.584c0.504-1.584 1.368-1.584 1.872 0l11.52 35.424c0.504 1.584 2.232 2.88 3.888 2.88h37.296c1.656 0 1.872 0.792 0.576 1.728l-30.168 21.96c-1.368 0.936-2.016 3.024-1.512 4.608l11.52 35.424c0.504 1.584-0.144 2.088-1.512 1.08l-30.168-21.888c-1.296-1.008-3.456-1.008-4.824 0l-30.168 21.888c-1.296 1.008-2.016 0.504-1.512-1.08l11.52-35.424c0.504-1.584-0.144-3.672-1.44-4.608l-30.168-21.96c-1.368-0.936-1.08-1.728 0.576-1.728h37.224c1.656 0 3.456-1.296 3.96-2.88l11.52-35.424z" fill="#929a77"/>
<path d="m167.11 214.06c-8.352-10.224-14.04-20.808-16.632-31.968-1.944-8.712-2.088-18-0.144-28.009l10.296 10.369c-0.432 17.208 2.016 33.552 9.216 49.032-0.936 0.216-1.8 0.36-2.736 0.576z" fill="#ca222c"/>
<path d="m173.66 212.83c-10.944-22.608-11.448-45.648-3.456-70.272l10.296 9.576c-4.176 20.448-3.168 39.744 1.8 59.616-2.88 0.288-5.76 0.648-8.64 1.08z" fill="#ca222c"/>
<path d="m186.12 211.46c-7.056-27.36-5.904-49.32 4.752-75.672 0.072 25.344 0.432 50.472 1.08 75.456-1.944 0.072-3.888 0.144-5.832 0.216z" fill="#ca222c"/>
<path d="m220.54 214.06c8.352-10.224 14.04-20.808 16.632-31.968 1.944-8.712 2.088-18 0.144-28.009l-10.296 10.369c0.432 17.208-2.016 33.552-9.216 49.032 0.936 0.216 1.8 0.36 2.736 0.576z" fill="#ca222c"/>
<path d="m213.98 212.83c10.944-22.608 11.448-45.648 3.456-70.272l-10.296 9.576c4.176 20.448 3.168 39.744-1.8 59.616 2.88 0.288 5.76 0.648 8.64 1.08z" fill="#ca222c"/>
<path d="m201.53 211.46c7.056-27.36 5.904-49.32-4.752-75.672-0.072 25.344-0.432 50.472-1.08 75.456 1.944 0.072 3.888 0.144 5.832 0.216z" fill="#ca222c"/>
</g>
</g>
</svg>
