<?xml version="1.0" encoding="UTF-8"?>
<!DOCTYPE svg  PUBLIC '-//W3C//DTD SVG 1.0//EN'  'http://www.w3.org/TR/2001/REC-SVG-20010904/DTD/svg10.dtd'>
<svg width="283px" height="190.02px" enable-background="new 0 0 283 190.025" version="1.0" viewBox="0 0 283 190.025" xml:space="preserve" xmlns="http://www.w3.org/2000/svg">
<path d="m241.68 104s-5.947 15.265-6.767 17.565l-6.741-17.565h-24.5l20.79 40.536v25.733h21.171v-25.733l20.395-40.536h-24.348z" fill="#5B2276"/>
<path d="m198.49 144.6l-0.054-0.081c7.296-2.985 11.576-8.511 11.576-17.498 0-14.908-11.208-23.024-25.983-23.024h-26.154v66.269h21.184v-21.265h0.386l9.487 21.265h24.967l-12.952-21.529c-1.166-1.971-1.677-2.816-2.457-4.137zm-17.935-11.249h-1.497v-11.249h1.654c3.715 0 6.951 0.623 6.951 5.71 0 4.93-3.554 5.539-7.108 5.539z" fill="#5B2276"/>
<path d="m77.279 94.241c0-30.004 24.321-54.33 54.33-54.33 30.004 0 54.33 24.326 54.33 54.33 0 30.008-24.326 54.331-54.33 54.331-30.009 0-54.33-24.323-54.33-54.331z" fill="#F6A94D"/>
<path d="m181.3 113.12c-0.124-2.691-1.671-10.41-1.873-11.42 0.354-2.383 0.39-4.816 0.39-7.243 0-2.025-0.258-3.968-0.495-5.864l2.932-11.481-0.066-0.194c-2.62-7.645-6.393-14.312-11.929-19.947l-0.102-0.103-0.133-0.052c-0.586-0.232-2.438-1.25-3.946-1.687-2.904-0.83-8.285-1.096-8.312-1.104h-6e-3c-4.647-3-9.847-5.21-15.41-6.465l-0.581-0.404c-0.023-9e-3 -5.185-3.612-7.483-4.689-2.177-1.015-3.482-1.591-3.484-1.594l-0.14-0.062-0.154 2e-3c-7.617 0.154-14.877 1.843-21.402 4.867l-0.152 0.071-0.102 0.133c-5e-3 7e-3 -1.328 1.719-3.504 4.767-1.941 2.721-3.185 5.572-3.482 6.283-4.114 3.251-7.643 6.976-10.516 11.406l-9.875 7.19-0.07 0.197c-2.127 5.766-3.228 12.016-3.228 18.51 0 1.791 0.012 3.307 0.189 5.088l6e-3 -1e-3c0.063 0.388 0.096 0.273 0.274 0.651 0.187 0.33 0.536 0.913 1.197 1.971 1.422 2.251 5.325 5.853 6.069 6.539 2.175 7.134 5.731 13.701 10.737 19.021 0.27 0.758 1.85 5.198 2.768 7.217 0.555 1.214 1.457 2.775 1.786 3.351l0.076 0.134 0.13 0.089c6.66 4.607 14.281 7.702 22.675 8.881l0.156 0.021 0.149-0.046c0.928-0.298 2.189-0.678 3.738-1.193 3.21-1.076 6.059-3.028 6.754-3.521 7.775-0.434 14.275-2.603 20.618-6.315l11.102-1.574 0.157-0.135c6.351-5.558 11.376-12.574 14.532-20.558l0.058-0.145-9e-3 -0.149c-0.011-0.188-0.034-0.33-0.039-0.443z" fill="#fff"/>
<path d="m154.71 134.99c-6.154 3.577-12.356 5.639-19.861 6.069-0.948-0.737-4.922-3.908-7.855-7.272-2.887-3.307-6.056-7.277-6.959-8.416 0.384-0.848 1.379-3.103 2.734-6.601 1.376-3.554 2.297-6.551 2.631-7.681l21.888-5.38c1.073 0.624 5.567 3.265 8.31 5.261 1.534 1.111 3.023 2.083 4.142 2.874-0.221 1.497-0.956 6.255-1.922 10.375-1.017 4.369-2.721 9.598-3.108 10.771z" fill="#F6A94D"/>
<path d="m87.264 108.17c0.516-0.922 2.366-4.18 4.317-7.231 2.019-3.157 6.219-8.503 7.151-9.686 0.458-0.019 1.448-0.05 3.063-0.05 1.15 0 2.608 0.015 4.388 0.064 4.072 0.11 5.903 0.297 6.548 0.377l11.537 18.599-0.049-0.014c-2e-3 6e-3 -1.005 3.585-2.731 8.045-1.395 3.599-2.396 5.846-2.739 6.599-1.363 0.303-6.789 1.449-11.348 1.641-1.556 0.066-3.069 0.087-4.428 0.087-2.651 0-4.688-0.086-5.39-0.12-4.78-5.108-8.206-11.42-10.319-18.311z" fill="#F6A94D"/>
<polygon points="128.11 74.366 148.34 82.625 146.75 104.43 125.52 109.64 113.99 91.067" fill="#F08A00"/>
<path d="m160.48 112.68c-1.147-0.809-2.595-1.753-4.067-2.822-2.735-1.99-7.027-4.519-8.294-5.258l1.612-22.015 10.096-6.031c1.054 0.468 4.646 2.132 8.172 4.508 3.768 2.539 8.952 6.954 9.985 7.839 0.232 1.856 0.468 3.697 0.466 5.559 0 2.376-0.04 4.704-0.363 6.933-0.847 0.77-4.492 4.004-8.088 6.114-4.203 2.462-4.873 2.582-9.519 5.173z" fill="#F6A94D"/>
<path d="m165.7 56.454c1.221 0.349 2.866 1.227 3.677 1.583 5.271 5.401 8.892 11.767 11.445 19.135l-2.588 10.136c-1.803-1.529-6.136-5.14-9.472-7.388-3.542-2.383-7.124-4.059-8.31-4.592-0.043-1.746-0.228-8.298-0.687-12.035-0.386-3.14-0.931-6.339-1.196-7.832 1.636 0.114 5.174 0.423 7.131 0.993z" fill="#F08A00"/>
<path d="m159.08 75.396l-10.066 6.012-20.506-8.367c-0.157-0.734-0.561-2.484-1.237-4.405-0.709-2.011-1.807-5.183-2.184-6.271 1.03-1.135 4.928-5.35 8.477-8.16 3.209-2.545 6.321-4.658 7.591-5.501 5.79 1.185 11.189 3.441 15.984 6.553 0.214 1.181 0.84 4.737 1.268 8.204 0.447 3.647 0.632 10.262 0.673 11.935z" fill="#F6A94D"/>
<path d="m106.47 51.456c1.814-2.537 3.023-4.135 3.37-4.59 6.264-2.88 13.228-4.499 20.543-4.668 0.385 0.171 1.566 0.702 3.323 1.521 1.541 0.713 4.873 2.937 6.437 3.998-1.417 0.947-4.386 2.985-7.442 5.409-3.628 2.879-7.518 7.079-8.617 8.288-1.411-0.458-6.066-1.939-10.347-2.92-3.92-0.895-8.402-1.482-10.301-1.71 0.52-1.144 1.578-3.291 3.034-5.328z" fill="#F08A00"/>
<path d="m102.65 58.077c1.25 0.142 6.408 0.758 10.783 1.758 4.325 0.989 9.08 2.514 10.325 2.92 0.353 1.021 1.482 4.28 2.206 6.338 0.662 1.869 1.049 3.579 1.193 4.257l-14.3 16.922c-0.752-0.09-2.664-0.27-6.639-0.378-1.794-0.05-3.265-0.066-4.426-0.066-1.485 0-2.468 0.027-2.993 0.046-0.559-1.137-2.208-4.633-3.376-8.611-1.309-4.445-2.51-11.353-2.702-12.481 2.728-4.129 6.045-7.624 9.929-10.705z" fill="#F6A94D"/>
<path d="m81.016 101.22c-0.654-1.05-0.996-1.623-1.167-1.924-0.055-0.097-0.093-0.166-0.117-0.211-0.161-1.662-0.175-3.094-0.175-4.846 0-6.266 1.05-12.282 3.072-17.838l8.895-6.475c0.413 2.326 1.448 7.87 2.581 11.726 1.207 4.1 2.895 7.677 3.469 8.845-1.084 1.376-5.123 6.533-7.153 9.703-1.705 2.667-3.33 5.484-4.079 6.802-0.458-0.429-1.122-1.061-1.839-1.778-1.323-1.321-2.834-2.953-3.487-4.004z" fill="#F08A00"/>
<path d="m127.7 144.66c-1.45 0.484-2.647 0.846-3.575 1.14-8.061-1.16-15.373-4.127-21.796-8.539-0.374-0.65-1.178-2.065-1.651-3.103-0.694-1.524-1.847-4.673-2.421-6.263 1.014 0.041 2.7 0.09 4.719 0.09 1.376 0 2.905-0.023 4.485-0.089 4.623-0.197 9.976-1.316 11.505-1.653 0.929 1.17 4.1 5.14 6.996 8.457 2.649 3.037 6.046 5.859 7.524 7.041-1.128 0.744-3.386 2.12-5.786 2.919z" fill="#F08A00"/>
<path d="m179.96 113.5c-3.052 7.648-7.87 14.383-13.946 19.741l-9.728 1.377c0.636-1.963 2-6.318 2.881-10.089 1.013-4.328 1.769-9.313 1.964-10.641 4.616-2.578 5.29-2.696 9.562-5.199 3.089-1.816 6.136-4.36 7.606-5.647 0.484 2.476 1.554 8.15 1.635 10.147l0.688-0.028-0.688 0.04c5e-3 0.114 0.017 0.215 0.026 0.299z" fill="#F08A00"/>
<path d="m33.593 128.32v19.031h13.377c-2.55 2.736-6.673 4.398-12.848 4.177-6.593-0.24-11.948-6.451-11.948-14.406 0-7.959 5.355-14.421 11.948-14.421 2.805 0 5.377 1.176 7.417 3.119h0.013l19.571-9.582c-6.252-8.062-16.004-13.256-27.001-13.256-18.845 0-34.122 15.277-34.122 34.14 0 18.845 15.277 34.136 34.123 34.136 18.862 0 31.639-13.373 32.303-33.622 0.264-4.466 0.21-9.315 0.21-9.315h-33.043z" fill="#5B2276"/>
<polygon points="90.544 149 90.544 104 68.881 104 68.881 170.27 113.1 170.27 113.1 149" fill="#5B2276"/>
<path d="m157.52 82.872c25.498 12.388 97.691 47.462 97.691 47.462 0.013 6e-3 27.786 12.708 27.786 12.708l-26.913-14.086c-3e-3 -3e-3 -70.438-35.951-96.848-49.431 0.588-1.607 0.925-3.334 0.925-5.145 0-0.874-0.091-1.725-0.234-2.558 20.255-7.009 65.992-22.835 65.992-22.835 7e-3 -2e-3 32.895-11.891 32.895-11.891l-35.616 10.268c-0.013 4e-3 -43.604 14.136-64.365 20.867-1.117-2.475-2.88-4.591-5.081-6.132 6.634-13.655 18.216-37.497 18.216-37.497 0.017-0.037 8.405-21.087 8.405-21.087l-11.461 20.633c-5e-3 0.012-11.48 22.49-18.484 36.209-1.638-0.614-3.404-0.966-5.257-0.966-0.982 0-1.94 0.101-2.87 0.281-4.969-14.359-13.541-39.131-13.541-39.131l-8.189-20.541 5.554 21.901c7e-3 0.023 7.835 24.176 12.624 38.95-2.524 1.201-4.659 3.078-6.165 5.408-19.035-9.249-60.18-29.24-60.18-29.24-8e-3 -4e-3 -38.195-17.763-38.195-17.763l35.188 18.957c8e-3 4e-3 41.65 21.259 61.563 31.422-0.498 1.492-0.779 3.084-0.779 4.744 0 1.144 0.139 2.253 0.382 3.323-31.238 10.81-127.32 44.054-127.32 44.054l0.35 1.044s96.91-31.41 128.25-41.569c1.222 2.372 3.056 4.37 5.296 5.794-11.462 23.59-41.626 85.664-41.626 85.664-0.018 0.042-2.276 5.852-2.276 5.852l-3.263 8.392 7.743-14.414c4e-3 -9e-3 30.518-59.79 42.817-83.886 1.459 0.474 3.014 0.738 4.632 0.738 1.035 0 2.046-0.104 3.021-0.304 8.058 23.29 28.564 82.552 28.564 82.552 0.015 0.039 7.978 18.406 7.978 18.406l-5.355-16.941c-1e-3 -3e-3 -19.595-60.455-27.632-85.248 2.325-1.138 4.314-2.848 5.772-4.964z" fill="#fff"/>
<path d="m132.7 28.497c1.089-0.378 1.636-1.053 1.649-2.034 0.018-1.132-0.695-2.201-2.77-2.232l-2.178-0.036-0.134 8.475 0.658 0.011 0.063-4.063 1.143 0.018c1.021 0.013 1.344 0.157 2.335 1.777l1.438 2.346 0.771 0.013-1.864-2.962c-0.39-0.605-0.717-1.094-1.111-1.313zm-1.295-0.406l-1.407-0.021 0.058-3.32 1.375 0.024c1.556 0.024 2.228 0.732 2.21 1.688-0.018 1.02-0.744 1.654-2.236 1.629z" fill="#5B2276"/>
<polygon points="165.86 33.254 164.06 36.734 159.04 34.144 160.83 30.664 160.24 30.361 156.36 37.897 156.94 38.199 158.78 34.627 163.81 37.222 161.97 40.79 162.56 41.09 166.44 33.556" fill="#5B2276"/>
<polygon points="143.56 25.754 146.65 26.469 144.88 34.197 145.52 34.345 147.3 26.615 150.4 27.33 150.52 26.798 143.68 25.223" fill="#5B2276"/>
<polygon points="115.21 34.285 114.39 30.941 118.14 30.021 118.01 29.487 114.26 30.413 113.44 27.117 117.29 26.171 117.16 25.638 112.67 26.745 114.7 34.973 119.28 33.845 119.16 33.314" fill="#5B2276"/>
<path d="m99.701 31.831l-2.08 1.067 3.868 7.542 0.587-0.303-1.811-3.529 1.438-0.735c1.954-1.004 1.98-2.344 1.483-3.319-0.555-1.081-1.716-1.631-3.485-0.723zm1.72 3.572l-1.407 0.722-1.56-3.043 1.475-0.753c1.326-0.682 2.214-0.258 2.635 0.56 0.435 0.851 0.26 1.792-1.143 2.514z" fill="#5B2276"/>
</svg>
