<svg xmlns="http://www.w3.org/2000/svg" width="255" height="300" xmlns:v="https://vecta.io/nano"><path d="M119.2 46l-8.67.9-8.4 1.4-8.04 1.9-6.88 2.08-7 2.6-8.16 3.64-7.52 3.95-6.76 4.2-6.12 4.28-5.36 4.25-5.85 5.2-6.1 6.16-6 7.02-5.12 6.82-4.53 7c-1.3 2.14-3.5 6.18-4.9 8.98-1.4 2.8-3.2 6.82-4.05 8.92-.84 2.1-2 5.26-2.6 7a172.26 172.26 0 0 0-2.07 6.88c-.56 2.04-1.4 5.65-1.9 8.03-.48 2.4-1.1 6.1-1.4 8.3-.3 2.17-.7 6.53-.93 9.68-.28 3.9-.36 7.12-.25 10.07a209.56 209.56 0 0 0 .54 8.66c.2 2.4.62 5.9.9 7.78s.8 4.87 1.17 6.63c.36 1.75 1.05 4.73 1.53 6.62s1.6 5.62 2.5 8.3c.9 2.66 2.27 6.4 3.07 8.28s2.45 5.45 3.68 7.9 3 5.78 3.97 7.4c.95 1.6 2.97 4.77 4.5 7 1.5 2.24 3.75 5.34 4.97 6.88 1.23 1.54 3.27 4 4.54 5.48 1.28 1.47 3.92 4.28 5.9 6.24 1.96 1.97 5.04 4.84 6.85 6.38 1.8 1.54 4.6 3.82 6.24 5.06 1.64 1.25 4.75 3.44 6.93 4.88 2.17 1.44 5.27 3.36 6.88 4.27a161.88 161.88 0 0 0 6.25 3.31c1.82.9 4.57 2.2 6.12 2.88 1.54.67 4.47 1.83 6.5 2.6s5.82 2 8.42 2.75a145.06 145.06 0 0 0 9.81 2.39c2.8.57 6.42 1.2 8.03 1.42 1.62.22 4.77.56 7.02.77 2.42.23 6.78.4 10.7.4s8.3-.16 10.7-.4c2.24-.2 5.74-.62 7.78-.9 2.03-.3 5.07-.8 6.75-1.15 1.7-.34 4.67-1.03 6.63-1.52a144.2 144.2 0 0 0 7.14-2.06c1.97-.64 5.47-1.9 7.78-2.8 2.3-.9 6.5-2.78 9.3-4.16 2.8-1.4 6.6-3.42 8.4-4.5 1.83-1.1 4.58-2.85 6.12-3.88 1.55-1.04 4.18-2.93 5.87-4.2 1.68-1.26 4.6-3.64 6.5-5.28 1.9-1.63 5.23-4.8 7.4-7 2.18-2.23 5-5.25 6.25-6.72 1.26-1.47 3.33-4.06 4.6-5.74s3.16-4.32 4.2-5.86a166.94 166.94 0 0 0 3.89-6.12c1.1-1.82 3.13-5.6 4.5-8.4 1.4-2.8 3.26-7 4.17-9.3s2.17-5.8 2.8-7.77c.64-1.97 1.52-4.95 1.95-6.63a167.27 167.27 0 0 0 1.53-6.63 150.4 150.4 0 0 0 1.26-7.26l.8-6.25c.15-1.4.34-5.64.42-9.43.1-4.3.04-8.5-.15-11.2-.17-2.38-.53-6.1-.8-8.28-.27-2.18-.96-6.25-1.53-9.05-.57-2.8-1.65-7.22-2.4-9.8-.75-2.6-1.98-6.38-2.74-8.42-.76-2.03-1.93-4.95-2.6-6.5a142.26 142.26 0 0 0-2.88-6.11 178.08 178.08 0 0 0-3.31-6.25c-.9-1.6-2.83-4.7-4.27-6.88s-3.64-5.28-4.88-6.92c-1.24-1.63-3.52-4.44-5.07-6.24-1.54-1.8-4.4-4.88-6.38-6.84-1.96-1.97-4.77-4.62-6.24-5.9a202.7 202.7 0 0 0-5.48-4.53c-1.55-1.23-4.64-3.47-6.9-4.98-2.24-1.5-5.4-3.53-7-4.5-1.6-.95-4.94-2.73-7.4-3.96-2.46-1.23-6.02-2.88-7.9-3.67-1.9-.8-5.22-2.06-7.4-2.8-2.17-.75-5.44-1.77-7.26-2.27-1.83-.5-4.64-1.2-6.25-1.56a151.59 151.59 0 0 0-5.86-1.16l-4.85-.76c-1.05-.15-3.8-.44-6.12-.65s-6.62-.43-9.56-.5c-3.27-.07-7.15.03-9.95.24z" fill="#971d1f"/><path d="M118.07 51.26l-5.87.63-7.27 1.15-7.9 1.75-6.76 1.94-7.14 2.6-9.05 4.03-7.14 3.7-5.87 3.67-6.75 4.74-5.87 4.7-5.96 5.5-6.2 6.5-5.55 6.75-5.05 7.14-3.75 6-3.7 7.14-4.03 9.04-2.6 7.14-1.94 6.76-1.75 7.9-1.14 7.13-.7 7c-.18 2.44-.24 6.7-.15 11.1.08 3.92.32 8.68.55 10.58.22 1.9.63 4.87.92 6.62.28 1.76.87 4.8 1.3 6.76.43 1.96 1.3 5.34 1.92 7.52.63 2.17 1.78 5.67 2.56 7.77a159.78 159.78 0 0 0 3.06 7.52c.9 2.03 2.45 5.24 3.45 7.13 1 1.9 2.75 5 3.9 6.9 1.15 1.9 3.16 4.93 4.45 6.75 1.3 1.82 3.42 4.63 4.72 6.25 1.3 1.6 3.78 4.47 5.52 6.37a131.59 131.59 0 0 0 6.47 6.47c1.8 1.66 4.74 4.18 6.5 5.6s4.52 3.5 6.12 4.65c1.6 1.13 4.05 2.78 5.46 3.66 1.4.88 4.2 2.52 6.25 3.66a127.56 127.56 0 0 0 7.26 3.69c1.97.9 5.12 2.24 7.02 2.98a141.45 141.45 0 0 0 7.01 2.49c1.96.64 5.46 1.62 7.77 2.2a163.84 163.84 0 0 0 7.78 1.69c1.97.36 5.58.9 8.04 1.2 3.73.45 5.9.54 13.26.56 5.64.01 9.9-.1 11.85-.32a198.52 198.52 0 0 0 6.51-.84c1.9-.28 5.27-.9 7.52-1.4 2.24-.48 4.94-1.1 6-1.4s3.4-.98 5.23-1.55c1.82-.56 5.32-1.8 7.78-2.78 2.45-.96 6.75-2.9 9.56-4.28 2.8-1.4 6.68-3.5 8.6-4.66a158.82 158.82 0 0 0 6.63-4.29c1.7-1.2 4.78-3.5 6.82-5.13 2.04-1.64 5.1-4.27 6.82-5.87a145.25 145.25 0 0 0 6.08-6.08 140.07 140.07 0 0 0 5.94-6.89c1.63-2.03 3.94-5.1 5.14-6.8 1.2-1.72 3.12-4.7 4.3-6.62 1.17-1.93 3.26-5.8 4.66-8.6 1.4-2.8 3.32-7.1 4.3-9.55.96-2.46 2.2-5.96 2.78-7.78l1.55-5.22c.28-1.05.9-3.75 1.4-6 .5-2.25 1.1-5.63 1.4-7.52a230.86 230.86 0 0 0 .85-6.5c.2-1.96.33-6.2.32-11.85-.02-7.35-.1-9.53-.57-13.26-.3-2.45-.83-6.06-1.2-8.02-.36-1.97-1.13-5.46-1.7-7.78-.57-2.3-1.56-5.8-2.2-7.77s-1.76-5.12-2.5-7a149.85 149.85 0 0 0-2.98-7.01 129.33 129.33 0 0 0-3.76-7.39 148.77 148.77 0 0 0-4.55-7.52c-1.33-2.03-3.35-4.96-4.5-6.5s-3.04-3.95-4.22-5.35c-1.17-1.4-3.3-3.8-4.7-5.33-1.42-1.53-3.95-4.05-5.64-5.6-1.68-1.55-4.03-3.64-5.22-4.63s-3.54-2.83-5.23-4.08c-1.68-1.26-4.2-3.04-5.6-3.97-1.4-.92-3.58-2.3-4.84-3.07-1.26-.76-3.85-2.2-5.74-3.2-1.9-1-5.1-2.54-7.14-3.45-2.03-.9-5.42-2.27-7.52-3.05-2.1-.78-5.6-1.93-7.78-2.56a141.51 141.51 0 0 0-7.52-1.92c-1.97-.43-5-1.02-6.76-1.3s-4.74-.7-6.63-.93c-2.3-.27-6.22-.43-11.73-.5-4.56-.05-9.5.02-10.96.15z" fill="#fff"/><path d="M122.9 57.27l-5.1.35-6.12.66-6.12 1.02-6.37 1.4-5.87 1.67-5.86 2-6 2.43L76 69.34l-5.86 3.2L64 76.3l-5.1 3.57-5.36 4.2c-1.6 1.33-5 4.5-7.54 7.03-2.54 2.53-5.7 5.93-7.04 7.54-1.34 1.6-3.23 4.02-4.2 5.35a160.89 160.89 0 0 0-3.57 5.1c-1 1.47-2.7 4.22-3.77 6.12-1.1 1.9-2.53 4.53-3.2 5.86-.67 1.33-1.82 3.8-2.55 5.48s-1.76 4.2-2.3 5.6a114.63 114.63 0 0 0-1.87 5.35c-.5 1.54-1.3 4.35-1.8 6.24s-1.13 4.65-1.43 6.12c-.3 1.47-.75 4.22-1.03 6.12-.27 1.9-.6 4.8-.75 6.5-.14 1.68-.33 4.77-.42 6.88-.1 2.1-.03 6.1.13 8.92.16 2.8.46 6.47.67 8.15.2 1.7.6 4.44.9 6.12.28 1.68.85 4.5 1.25 6.24.4 1.76 1.22 4.8 1.8 6.76a133.82 133.82 0 0 0 2.33 7.01c.7 1.9 2.08 5.22 3.06 7.4s2.36 5.04 3.07 6.37 2.04 3.68 2.95 5.23c.92 1.54 2.32 3.77 3.1 4.97a167.87 167.87 0 0 0 3.73 5.22 148.14 148.14 0 0 0 4.67 5.86c1.3 1.55 4.23 4.64 6.5 6.9 2.26 2.24 5.25 5.04 6.65 6.2 1.4 1.16 3.87 3.12 5.5 4.33a131.53 131.53 0 0 0 5.48 3.9c1.4.92 3.75 2.4 5.23 3.28 1.47.88 4.57 2.55 6.88 3.7s5.76 2.74 7.65 3.5a174.5 174.5 0 0 0 6.88 2.57c1.9.65 5.1 1.63 7.15 2.18 2.03.55 5.4 1.34 7.52 1.76 2.1.4 5.66.98 7.9 1.27 2.25.28 6.38.64 9.18.8 3.6.2 6.64.2 10.33.01 2.88-.14 6.66-.44 8.4-.65 1.76-.22 4.57-.62 6.25-.9 1.7-.28 5.2-1.03 7.78-1.66 2.6-.64 6.38-1.7 8.42-2.38 2.03-.68 5.07-1.77 6.75-2.43 1.7-.66 5.47-2.38 8.42-3.83 2.94-1.46 7.2-3.78 9.43-5.18 2.25-1.4 5.48-3.55 7.18-4.8a163.27 163.27 0 0 0 6.5-5.06c1.86-1.54 5.23-4.64 7.48-6.9s5.35-5.62 6.9-7.48c1.55-1.86 3.82-4.78 5.07-6.5 1.24-1.7 3.32-4.82 4.63-6.92s3.12-5.26 4.04-7 2.36-4.73 3.22-6.63c.85-1.9 2.17-5.1 2.92-7.13.76-2.03 1.78-5.07 2.28-6.76.5-1.68 1.3-4.72 1.8-6.75s1.12-5.07 1.4-6.75a170.67 170.67 0 0 0 .91-6.25c.2-1.75.5-5.42.66-8.15.15-2.74.2-6.47.12-8.3l-.42-6.63c-.14-1.82-.5-4.86-.76-6.75s-.8-4.87-1.14-6.63c-.35-1.75-1.1-4.85-1.64-6.88s-1.53-5.24-2.18-7.13c-.65-1.9-1.8-5-2.57-6.9-.77-1.9-2.35-5.33-3.5-7.64s-2.84-5.4-3.72-6.88c-.9-1.48-2.74-4.34-4.12-6.38-1.37-2.03-3.54-5-4.82-6.62a174.21 174.21 0 0 0-4.82-5.74 123.3 123.3 0 0 0-5.28-5.48 141.42 141.42 0 0 0-5.45-4.97c-1.47-1.27-3.82-3.17-5.22-4.23a197.4 197.4 0 0 0-5.36-3.84 119.38 119.38 0 0 0-5.61-3.57 169.07 169.07 0 0 0-5.22-2.95c-1.34-.7-4.2-2.1-6.38-3.07s-5.5-2.35-7.4-3.05c-1.9-.7-4.8-1.7-6.5-2.2-1.68-.5-4.72-1.3-6.75-1.8-2.04-.5-5.08-1.12-6.76-1.4a170.76 170.76 0 0 0-6.25-.9c-1.75-.2-5.2-.5-7.65-.64s-5.5-.24-6.76-.2l-3.95.1z" fill="#971d1f"/><path d="M111.44 67.74l-8.84 1.43c-.03.02.1.65.25 1.38.24 1.1.4 1.35.8 1.34.28-.01 1.83-.23 3.44-.5s3-.4 3.1-.3c.08.1.57 2.92 1.1 6.3l1 6.2c.02.05.74.01 1.58-.08.84-.08 1.66-.23 1.8-.33.2-.12 0-1.94-.7-6.3l-.9-6.37c.04-.14 1.6-.5 3.47-.77 1.86-.28 3.42-.62 3.47-.76s.01-.77-.1-1.38c-.1-.62-.3-1.15-.44-1.2-.14-.03-4.22.58-9.05 1.35zm24.05 6.62l-1.02 7.9c.02.02 3.5.5 7.7 1.1l7.7.97c.03-.04.13-.7.22-1.47l.18-1.4-11.7-1.72c-.02-.03.3-2.4.7-5.28l.86-6.3.14-1.1-2.93-.4-.77-.13M79.83 78l-6.65 3.44c0 .07 1.57 3.26 3.48 7.08l3.57 7c.05.03.78-.28 1.63-.7.84-.42 1.53-.83 1.53-.9s-.58-1.27-1.28-2.67-1.25-2.58-1.2-2.62c.03-.04.75-.4 1.6-.8l1.53-.7 8.23 2.34c.17-.01 1.23-.47 2.36-1.03 1.12-.56 2.04-1.1 2.04-1.2 0-.1-1.75-.57-3.9-1.03s-4.06-.94-4.28-1.06c-.3-.17-.07-.37.9-.85.7-.35 1.56-.95 1.9-1.32.4-.44.64-.98.64-1.52 0-.47-.52-1.88-1.2-3.3-.7-1.42-1.5-2.68-1.92-2.98-.38-.28-1.06-.5-1.5-.5-.5.01-3.27 1.24-7.47 3.32zm85.67 3.35l-7.27 5.2c0 .07.74.47 1.65.9l1.66.77 2.87-2.13c.18-.1 2.32.8 4.78 2l4.47 2.17.04 3.38c-.03.3.48.7 1.74 1.33l1.98.9c.1 0-.1-4.06-.45-9.02l-.76-9.15c-.08-.06-.76-.4-1.54-.78-.77-.36-1.5-.65-1.65-.64s-3.53 2.3-7.52 5.1z" fill="#fff"/><path d="M81.73 80.2l-3.96 2.04c-.07.06.3.96.83 2l.96 1.9 8.32-4.52c.1-.25.1-.68.01-.96s-.4-.9-.74-1.4-.82-.92-1.1-.95c-.27-.03-2.22.82-4.32 1.88zm88.5 1.58l-2.7 2.08c0 .07 1.3.78 2.93 1.6l2.93 1.46-.25-6.15-.2-.93" fill="#971d1f"/><path d="M120.35 90.8c0 .04.28.7.62 1.47a16.38 16.38 0 0 1 .93 2.93c.25 1.3.23 1.8-.13 3.18-.23.92-.73 2.07-1.1 2.58-.37.5-1.9 2-3.36 3.33l-5.47 5.33c-1.53 1.6-4.77 5.4-7.2 8.45s-5.13 6.27-6 7.16c-.88.88-2.22 2.1-3 2.7-.78.6-2.15 1.5-3.06 2.02-.92.5-2.67 1.33-3.9 1.82l-2.24.9-.1 6.3c1.78-.22 3.3-.6 4.56-1l2.26-.72c3.6 3.56 5.46 5.13 6.44 5.78s1.84 1.14 1.9 1.1-.26-1.1-.74-2.33c-.73-1.86-.9-2.68-1-4.8-.1-2.16-.05-2.73.38-3.7.28-.63 3.58-4.93 7.34-9.56l8.65-10.42a46.76 46.76 0 0 1 3.98-3.83c1.2-1 2.97-2.3 3.95-2.88s2.5-1.3 3.38-1.58a11.32 11.32 0 0 1 3.37-.53c1.23 0 2.25.18 3.26.56.96.37 2 1.06 3 2 .84.8 2.02 2.2 2.62 3.14l1.08 1.7 5.87-1.93c.07-.05-.2-.64-.62-1.3a45.13 45.13 0 0 0-1.95-2.87 23.51 23.51 0 0 0-2.44-2.83c-.7-.64-2-1.65-2.9-2.24-.9-.58-2.35-1.3-3.2-1.6-1.07-.37-2.44-.57-4.6-.66l-3.06-.14c-1.38-2-2.3-3.22-2.96-4a19.31 19.31 0 0 0-2.55-2.49c-.75-.6-1.52-1.08-1.7-1.1-.18 0-.32.03-.33.06zm73.07 7.45l-5.6 5.46 2.4 2.45 7.63-7.65.7 10.32.4 6.5 1.7 1.8c1.3-1.08 3.9-3.54 6.62-6.18l4.93-4.78-2.46-2.4c-5.83 5.7-7.6 7.28-7.66 7.18-.07-.1-.14-1-.14-1.98-.01-.98-.2-4.6-.44-8.08l-.43-6.3c-1.4-1.4-1.84-1.82-1.9-1.8-.08.01-2.66 2.47-5.74 5.47zm-138.2-3.23c-.55.4-2.9 2.82-5.22 5.4-2.33 2.56-4.43 4.96-4.67 5.33-.25.37-.45 1.13-.44 1.7 0 .96.15 1.17 2.73 3.66 1.5 1.45 3.6 3.38 4.65 4.28 1.67 1.42 2.05 1.64 2.94 1.63.97 0 1.17-.16 4.18-3.25l5.55-5.87c1.57-1.73 2.42-2.87 2.5-3.38.07-.42-.03-1.08-.22-1.46-.2-.4-2.04-2.3-4.1-4.27-2.06-1.97-4.06-3.77-4.43-4.02-.37-.24-1.08-.44-1.57-.44-.58-.01-1.25.25-1.9.7z" fill="#fff"/><path d="M52.5 102.1l-4 4.4c-.04.1 1.48 1.63 3.38 3.42l3.7 3.25c.14 0 2.04-1.92 4.23-4.27l3.98-4.27-7.2-6.75c-.08 0-1.92 1.9-4.08 4.22z" fill="#971d1f"/><path d="M169.75 102.4c-.06.1-.18.7-.27 1.34s-.5 1.83-.9 2.67-1.17 1.96-1.72 2.48c-.54.5-1.5 1.17-2.13 1.45-.7.3-2.5.66-4.72.9l-5.93.78-5.35 1.02-6.95 1.76-6.63 1.8a48.63 48.63 0 0 1-5.23.96c-1.9.22-3.22.2-5.22-.01-1.48-.16-3.64-.55-4.8-.88l-2.13-.58-3.7 5.06c.03.06.64.4 1.34.74s2.13.9 3.2 1.23l1.95.6c.03.01.24 1.28.47 2.82s.76 3.86 1.17 5.16c.4 1.3.88 2.36 1.06 2.36s.5-.77.76-1.85c.25-1.02.84-2.65 1.3-3.63s1.27-2.22 1.78-2.74c.5-.53 1.36-1.17 1.9-1.44.52-.26 5.2-1.6 10.4-2.97l11.98-3.1c1.4-.33 3.93-.78 5.6-1 2.08-.27 3.88-.36 5.6-.25 1.4.08 3.13.3 3.83.5.7.2 1.8.58 2.42.88a12.33 12.33 0 0 1 2.17 1.4c.58.5 1.38 1.57 1.85 2.5.46.9.96 2.27 1.1 3.04s.24 2.4.2 3.6l-.1 2.2c4.54 1.47 5.92 1.82 6 1.73.07-.1.13-1.9.13-4.04 0-2.93-.1-4.26-.46-5.52-.25-.9-.77-2.34-1.15-3.18-.38-.83-1.18-2.15-1.8-2.93-.6-.77-1.5-1.75-2.02-2.17a35.78 35.78 0 0 0-2.03-1.53l-1.1-.77c-.13-5.62-.3-7.22-.67-8.6-.3-1.08-.65-1.97-.8-1.97-.16 0-.33.08-.4.2zm-76.8 5.6c-.42.06-1.34.3-2.04.5s-1.9.72-2.68 1.1a21.02 21.02 0 0 0-2.74 1.75l-1.34 1.05c-2.87-1.02-4.44-1.48-5.35-1.68-.92-.2-2.5-.35-3.5-.35s-1.85.08-1.85.18c0 .1.6.5 1.34.9s1.83 1.16 2.42 1.72a11.33 11.33 0 0 1 1.77 2.24c.47.82.7 1.7.78 2.74.07 1.04-.14 2.74-.67 5.35-.42 2.1-.94 5.03-1.16 6.5a109.3 109.3 0 0 0-.64 6.24l-.53 8.92c-.14 2.95-.43 6.22-.64 7.27a37.89 37.89 0 0 1-.92 3.57c-.3.9-1 2.57-1.57 3.7s-1.45 2.67-1.97 3.44l-.96 1.4c2.72 3.86 3.63 4.97 3.77 4.97s.8-.6 1.47-1.35c.66-.74 1.6-1.94 2.1-2.67.57-.83 1.03-1.27 1.28-1.2.2.06 1.53.28 2.93.5 1.4.22 3.52.38 4.7.37 1.2-.01 2.4-.1 2.68-.2.43-.16.26-.33-1.12-1.06-.9-.48-2.33-1.52-3.2-2.3-.88-.8-1.9-2.08-2.37-2.93-.72-1.3-.82-1.76-.83-3.42-.01-1.05.2-6.04.5-11.1l.66-10.96c.08-.98.32-2.87.53-4.2.22-1.33.56-3.05.77-3.82a57.15 57.15 0 0 1 .89-2.81c.28-.77.9-2.1 1.35-2.93a15.68 15.68 0 0 1 2.09-2.78c.68-.7 1.87-1.55 2.65-1.9 1.24-.6 1.7-.66 4.08-.64 2.23.01 2.95.12 4.33.66l2.1.8c.35.13.85-.38 2.26-2.32 1-1.37 1.7-2.56 1.6-2.66s-1.27-.6-2.57-1.08a30.34 30.34 0 0 0-4.59-1.3c-1.23-.2-2.86-.36-3.63-.34-.78.02-1.75.1-2.17.14zm56.86 14.02c-1.54.5-2.83.94-2.87 1-.03.05.33.8.8 1.7s1.35 2.2 1.92 2.93l1.04 1.34c-1.96 3.65-2.88 5.78-3.3 7.07-.42 1.3-.78 2.62-.78 2.93 0 .52.1.48 1.1-.47.6-.57 1.48-1.34 1.98-1.7a19.81 19.81 0 0 1 1.78-1.15c.5-.27 1.52-.7 2.3-.95 1-.33 1.8-.42 2.8-.3.95.1 4.82 1.47 12 4.25 5.82 2.26 11.72 4.67 13.13 5.36a51.94 51.94 0 0 1 4.84 2.77c1.26.83 2.95 2.2 3.75 3 .8.82 1.86 2.18 2.35 3.02.5.87 1.03 2.2 1.2 3.06.2 1.1.2 1.9.01 2.93-.16.77-.62 2.1-1.04 2.93-.4.84-1.32 2.22-2 3.06l-1.27 1.53 3.44 4.97c.05.07.45-.22.88-.64.44-.42 1.36-1.5 2.06-2.42.7-.9 1.7-2.57 2.26-3.7.55-1.12 1.2-2.78 1.42-3.7.3-1.22.38-2.36.28-4.33-.1-2.07-.28-3.12-.83-4.6l-.7-1.9c1.75-2.18 2.68-3.55 3.2-4.46.52-.92 1.17-2.32 1.46-3.13.3-.8.46-1.58.4-1.72s-.73.28-1.46.93c-.74.66-1.97 1.48-2.74 1.84-.78.36-2.04.7-2.8.76s-1.86-.04-2.42-.2c-.56-.18-2.4-1.1-4.08-2.06-1.7-.95-4.96-2.65-7.27-3.77-2.3-1.1-6.9-3.03-10.2-4.26-3.3-1.22-6.85-2.62-7.9-3.1a35.83 35.83 0 0 1-3.69-2.03c-.98-.64-2.74-2.08-3.9-3.22s-2.52-2.62-3-3.28c-.48-.67-.96-1.2-1.06-1.2-.1.02-1.45.43-3 .92zm65.53 3.06l-7.2 3.22c-.03.02 1.04 2.5 2.37 5.52 1.34 3.02 2.87 6.06 3.4 6.76.58.77 1.5 1.57 2.34 2.03 1.2.68 1.63.77 3.42.77 1.7 0 2.3-.12 3.57-.7.84-.4 1.97-1.14 2.5-1.66s1.2-1.37 1.47-1.9.56-1.56.64-2.3c.1-.9.02-1.9-.26-3-.24-.9-1.4-3.9-2.6-6.63-1.2-2.73-2.26-5.04-2.36-5.13-.1-.08-3.38 1.27-7.3 3.02zM33.9 123.3c-.57.52-1.54 2.46-3.7 7.45l-2.86 6.8c.04.01.3.15.57.3.28.15 3.47 1.54 7.08 3.1l6.76 2.83c.1.01.32-.3.48-.7.15-.38.46-1.1.68-1.6l.4-.9-5.6-2.62a303.58 303.58 0 0 1 1.32-3.06l2.16-5.03c.47-1.12.86-2.44.86-2.93.01-.5-.15-1.12-.34-1.4s-1.54-1.05-3-1.72c-1.45-.66-2.96-1.2-3.34-1.2-.4 0-1.02.3-1.48.7z" fill="#fff"/><path d="M35 127c-.13.18-1 2.1-1.93 4.27-.93 2.18-1.6 4.02-1.5 4.1.1.08.9.46 1.78.83l1.66.7c.03.01.33-.6.66-1.34l1.85-4.2c.8-1.86 1.18-3.02 1.06-3.3-.1-.23-.68-.63-1.28-.9-.6-.26-1.3-.46-1.56-.46-.27 0-.6.14-.74.3zm181.9 1.5l-4.28 1.96c-.1.1.27 1.2.84 2.47l1.58 3.3a17.96 17.96 0 0 0 1.11 1.79c.3.42.97.96 1.48 1.2.5.24 1.36.44 1.88.44.53 0 1.53-.27 2.23-.6s1.6-.94 1.98-1.34.8-1.13.93-1.62c.13-.5.13-1.35.01-1.92-.12-.56-.84-2.45-1.6-4.2s-1.55-3.2-1.73-3.24c-.2-.03-2.18.76-4.42 1.74z" fill="#971d1f"/><path d="M71.14 135.7c-1.2.32-2.97.92-3.95 1.33s-2.53 1.28-3.44 1.92-2.17 1.74-2.8 2.43c-.64.7-1.57 2.06-2.1 3.03-.5.98-1.1 2.46-1.33 3.3-.23.84-.5 1.6-.6 1.68-.1.08-.94.35-1.85.6-.9.25-2.52.85-3.57 1.34s-2.45 1.3-3.1 1.82c-.66.52-1.16 1-1.1 1.07.05.07.65.04 1.33-.08.67-.1 1.97-.14 2.88-.05.92.08 2.22.42 2.93.75a8.8 8.8 0 0 1 2.3 1.73c.6.67 1.48 2.18 2.14 3.66l2.4 5.08 2.43 4.6 4.9 7.77 4.8 7.65a31.63 31.63 0 0 1 1.83 4.2c.43 1.26.95 3.33 1.15 4.6.2 1.26.37 3 .37 3.9v1.6l6 1.78c.08-.07.27-1.04.4-2.16.15-1.12.24-2.66.2-3.4l-.08-1.36 6.24-3.4c.92-.6 1.97-1.42 2.35-1.82l.7-.72c-6.77 0-7.44-.08-8.7-.57-.92-.36-1.85-.98-2.5-1.66-.57-.6-3.68-5.2-6.93-10.26-3.24-5.04-6.5-10.32-7.26-11.72-.76-1.4-1.78-3.58-2.3-4.84-.5-1.26-1.08-3.1-1.28-4.08-.23-1.08-.34-2.7-.28-4.08.07-1.83.23-2.58.76-3.7.37-.77 1.23-1.95 1.9-2.62.68-.68 1.86-1.53 2.63-1.9.78-.37 2.27-.9 3.32-1.2l1.9-.53c0-4.83-.1-6.08-.25-6.13-.14-.04-1.23.2-2.43.5zm101.1 8.53c-.07.23-.2 1.86-.3 3.6l-.17 3.2c-4.17 2.05-6.2 3.26-7.17 4s-1.73 1.46-1.66 1.58c.08.13 1.34.2 2.8.17s3.3.06 4.08.2 2.03.65 2.8 1.1c1.26.75 1.66 1.24 4.12 5.03l6.7 10.4c2.2 3.4 4.56 7.35 5.28 8.8s1.72 3.82 2.22 5.3c.83 2.44.9 2.93.92 5.6.02 2.8-.02 3.02-.78 4.6-.5 1.04-1.26 2.06-2.04 2.76-.7.6-1.93 1.43-2.77 1.83-.84.4-2.3.9-3.25 1.12l-1.72.4v6.37c2.47-.6 4.04-1.06 5.1-1.4 1.05-.35 2.77-1.14 3.82-1.75a20.04 20.04 0 0 0 3.38-2.62c.8-.82 1.62-1.72 1.82-2s.72-1.23 1.15-2.1c.43-.88.93-2.24 1.1-3.03l.32-1.43c2.96-.86 4.68-1.52 5.74-2.02 1.05-.5 2.4-1.27 3-1.7.6-.44 1.04-.88.98-1-.06-.1-.78-.1-1.6.02-.9.12-2.1.1-3-.07-.84-.15-2-.5-2.55-.77s-1.45-.93-1.97-1.46c-.64-.66-1.55-2.3-2.87-5.17-1.06-2.32-2.7-5.58-3.62-7.27-.93-1.68-3.4-5.64-5.45-8.8-2.07-3.15-4.23-6.6-4.8-7.65-.57-1.05-1.37-2.83-1.78-3.95s-.93-3.13-1.16-4.46-.42-3.18-.44-4.12l-.02-1.7c-5.72-1.92-6.1-2-6.22-1.62zm-50.98 1.04c-.98.26-2.18.67-2.67.9-.5.25-1.6.94-2.43 1.53-.84.6-2.38 2-3.43 3.1-1.05 1.1-2.57 3.04-3.38 4.3-.8 1.27-1.48 2.44-1.48 2.62 0 .2.66.01 1.85-.54 1.02-.48 2.14-.93 2.5-1 .35-.1.77-.07.93.03.22.13.1.7-.38 2.1-.6 1.75-.67 2.25-.67 5.86-.01 3.68.04 4.1.73 6.12.4 1.2 1.3 3.3 2 4.7.7 1.4 1.7 3.18 2.23 3.95.53.78 1.06 1.62 1.18 1.88.2.47.18.47-1.06 0-.7-.27-2.08-1.02-3.06-1.66-.98-.65-2.5-1.96-3.4-2.92-1-1.1-1.97-2.5-2.54-3.67-.8-1.7-.93-2.2-1.02-4.33-.06-1.33.03-3.05.2-3.82s.74-2.32 1.28-3.44c.55-1.13.94-2.1.9-2.17-.06-.07-.77.2-1.58.62-.83.43-2.25 1.54-3.27 2.55-1.35 1.35-2.07 2.35-2.87 3.97-.6 1.2-1.18 2.8-1.32 3.56a16.77 16.77 0 0 0-.25 2.81c0 .77.16 2.15.35 3.06s.7 2.5 1.14 3.56c.44 1.06 1.46 2.95 2.28 4.2s2.08 2.92 2.8 3.7l1.3 1.4c-.35-5.2-.32-5.47.08-5.6.27-.08.83.16 1.4.6.52.4 1.8 1.2 2.86 1.76 1.06.57 2.55 1.2 3.32 1.44.77.22 2.38.5 3.57.64 1.32.14 3.2.14 4.85-.01 1.47-.14 4.1-.6 5.86-1 1.75-.42 3.22-.7 3.25-.64.04.07-.3.6-.76 1.18-.46.57-1.52 1.56-2.36 2.2s-2.28 1.53-3.2 2-2.35 1.02-3.2 1.24a15.14 15.14 0 0 1-3.19.41c-.96.01-2.34-.2-3.3-.5a18.17 18.17 0 0 1-3-1.28c-.73-.42-2.08-1.48-3-2.36-.9-.87-1.72-1.53-1.8-1.46s.05.98.27 2.03c.22 1.06.76 2.66 1.2 3.57.52 1.03 1.55 2.4 2.74 3.66 1.42 1.48 2.38 2.22 3.7 2.87 1.16.58 2.63 1.03 4.2 1.3 2.06.36 2.8.38 4.98.13a34.56 34.56 0 0 0 4.78-.95 32.63 32.63 0 0 0 3.95-1.44l1.72-.8c-3.75-.96-5-1.37-5.17-1.54-.18-.18-.33-.37-.33-.44s.6-.55 1.35-1.07 2.04-1.66 2.9-2.55c.85-.88 2.02-2.4 2.6-3.4s1.4-2.82 1.8-4.08c.42-1.26.94-3.5 1.16-4.97a94.21 94.21 0 0 0 .61-4.84l.2-2.17c1.28 1.98 1.9 3.18 2.18 3.95s.7 2.23.88 3.25c.2 1.02.37 2.5.37 3.3a14.3 14.3 0 0 1-.4 3c-.22.84-.77 2.2-1.2 3.03-.46.84-1.55 2.2-2.47 3.07-1.03.96-2.36 1.9-3.5 2.45-1 .48-1.84.97-1.85 1.07 0 .1.2.26.44.34.24.08 1.25.2 2.23.3 1.24.1 2.4 0 3.82-.3a20.84 20.84 0 0 0 3.96-1.42c1.42-.7 2.36-1.43 3.68-2.83 1.17-1.24 2.05-2.47 2.6-3.65a23.22 23.22 0 0 0 1.23-3.32 44.3 44.3 0 0 0 .64-3.31c.14-.98.25-2.53.26-3.44 0-.9-.08-2.37-.2-3.25s-.3-1.6-.45-1.6c-.14 0-.48.48-.76 1.07-.28.58-.9 1.56-1.34 2.16-.46.6-.96 1.07-1.1 1.04-.15-.04-.67-1.16-1.15-2.5s-1.32-3.1-1.87-3.95-1.78-2.28-2.74-3.2-2.43-2.14-3.27-2.7-2.45-1.5-3.57-2.04c-1.12-.56-2.9-1.34-3.95-1.74s-2.03-.8-2.17-.9.15-.32.64-.48c.5-.17 2.15-.37 3.7-.44 2.02-.1 3.34-.01 4.72.28 1.05.22 2.65.77 3.56 1.22 1.02.5 2.26 1.4 3.2 2.36.96.95 1.86 2.18 2.35 3.2a20.33 20.33 0 0 1 1.2 3.19c.2.84.4 1.9.4 2.35 0 .46.1.9.25.96s.54-.45.9-1.15a18.09 18.09 0 0 0 1.06-2.86c.23-.88.42-2.5.42-3.64 0-1.12-.14-2.67-.33-3.44a19.26 19.26 0 0 0-.95-2.8 15.24 15.24 0 0 0-1.63-2.68c-.56-.7-1.67-1.82-2.47-2.5s-2.54-1.77-3.87-2.45c-1.34-.68-3.17-1.48-4.08-1.77-.92-.3-2.38-.7-3.26-.93-.87-.2-1.64-.3-1.7-.2-.07.1.18.47.54.82.37.35 1.1 1.2 1.65 1.85.55.67 1 1.4 1 1.66 0 .4-.38.47-3.12.6-2.18.12-3.63.34-4.78.72-.92.3-2.3.9-3.06 1.3-.78.4-2.15 1.3-3.06 2-.92.7-2.64 2.26-3.83 3.5s-2.65 2.83-3.24 3.53l-1.07 1.27c-.01-1.58.15-2.84.36-3.82.2-.98.9-2.87 1.56-4.2.88-1.78 1.6-2.84 2.75-3.98.85-.86 2.18-1.88 2.95-2.27.78-.4 1.98-.87 2.68-1.05.7-.2 2.37-.34 3.7-.34s2.85.1 3.38.25c.63.16 1 .16 1.08-.01.07-.14-.53-.84-1.34-1.55-.8-.72-2.27-1.7-3.25-2.17a18.76 18.76 0 0 0-3.57-1.25c-.98-.2-2.47-.37-3.3-.36s-2.34.22-3.32.47zm99.77 15.36c-.25 1.03-.8 2.6-1.24 3.52-.54 1.14-1.35 2.22-2.6 3.47-1.3 1.3-2.36 2.06-3.73 2.72-1.06.5-2.66 1.1-3.57 1.34l-2.43.6c-.5.13-.63.25-.38.34.2.07 1.2.32 2.17.54.98.23 2.76.9 3.95 1.48 1.63.8 2.6 1.5 3.96 2.87 1.14 1.15 2.08 2.4 2.6 3.45.45.9 1.03 2.7 1.3 3.95l.48 2.3c.32-2.17.63-3.44.9-4.2s.8-1.97 1.22-2.67c.4-.7 1.46-1.98 2.34-2.83.94-.9 2.36-1.94 3.4-2.46.98-.5 2.53-1.13 3.44-1.4.92-.28 2.24-.6 2.94-.7l1.27-.2c-2.76-.53-4.14-.86-4.84-1.1s-2.08-.83-3.06-1.34c-1.1-.57-2.42-1.55-3.44-2.58-.93-.93-1.96-2.27-2.35-3.06a19.71 19.71 0 0 1-1.12-3.18c-.24-1-.5-2-.6-2.25-.1-.3-.3.2-.6 1.4zm-187.78-.1c-.14.8-.7 2.38-1.26 3.5-.68 1.4-1.5 2.53-2.6 3.63-1.14 1.14-2.2 1.9-3.7 2.62-1.16.57-3.2 1.3-4.53 1.63-1.33.33-2.25.67-2.03.74.2.08.84.2 1.4.3.56.1 1.53.34 2.17.55.63.2 1.83.72 2.67 1.13s2.13 1.23 2.86 1.82c.73.6 1.77 1.66 2.3 2.36s1.22 1.82 1.54 2.48c.3.67.74 1.87.95 2.68.2.8.4 1.66.4 1.9s.08.45.2.45c.1 0 .33-.72.5-1.6.17-.88.73-2.46 1.23-3.5.67-1.4 1.38-2.37 2.68-3.63 1.28-1.25 2.33-2 3.86-2.73 1.16-.55 2.8-1.18 3.64-1.4.84-.22 2-.5 2.55-.6 1-.2 1-.22-1.2-.65-1.23-.24-2.95-.72-3.83-1.08-.88-.35-2.17-1.02-2.87-1.5a18.11 18.11 0 0 1-2.5-2.09c-.72-.73-1.65-2.1-2.24-3.3-.58-1.17-1.1-2.72-1.26-3.63-.13-.88-.34-1.6-.45-1.6s-.32.66-.47 1.47z" fill="#fff"/><path d="M127.75 165.87c0 .25-.2.9-.46 1.47s-.9 1.52-1.46 2.13c-.56.62-1.52 1.38-2.16 1.7-.63.32-1.63.74-2.23.93s-1.1.4-1.1.47.6.33 1.34.57c.74.24 1.9.8 2.6 1.27.7.46 1.63 1.35 2.1 2a8.62 8.62 0 0 1 1.16 2.36c.18.66.4 1.2.46 1.2s.32-.55.56-1.22c.24-.66.78-1.7 1.2-2.3s1.38-1.47 2.12-1.95a12.53 12.53 0 0 1 2.8-1.27c.8-.23 1.47-.47 1.47-.54s-.66-.3-1.47-.54c-.8-.22-1.78-.56-2.16-.76-.4-.2-1.18-.8-1.76-1.3-.57-.53-1.3-1.47-1.62-2.1-.3-.63-.64-1.46-.73-1.84-.1-.4-.28-.7-.42-.7s-.26.2-.26.44zm-97.66 6.76v3.5c1.5 0 1.53-.03 1.6-1.34l.07-1.34c2.87.13 2.93.1 2.93-.5 0-.6-.07-.63-1.53-.63h-1.53v-2.04c5.54 0 5.6-.01 5.6-.57 0-.57-.04-.58-3.57-.58H30.1m191.06.07c-2.67.05-3.16.12-3.36.5-.14.24-.22 1.68-.2 3.2.04 2.13.14 2.8.43 3 .22.13 1.85.24 3.64.25 3 0 3.27-.04 3.5-.5.14-.28.25-.85.25-1.27 0-.65-.1-.77-.64-.77-.35 0-.72.03-.83.07-.1.03-.16.32-.12.63.06.56-.01.58-2.23.58h-2.3v-4.6c4.38.12 4.46.15 4.4.7-.06.5.05.57.83.57s.9-.08.9-.63a3.02 3.02 0 0 0-.22-1.09c-.12-.24-.38-.5-.57-.57-.2-.07-1.76-.1-3.48-.06z" fill="#971d1f"/><path d="M61.25 174.68c-.42.45-1.32 1.56-2 2.47s-1.68 2.52-2.2 3.57c-.52 1.05-1.12 2.6-1.33 3.44-.23.9-.4 2.64-.38 4.2 0 2.28.1 3 .74 4.85l.74 2.16-3.2 4.46a19.96 19.96 0 0 0-1.34 2.94c-.3.84-.52 1.7-.5 1.9 0 .23.5-.1 1.34-.85.73-.68 1.96-1.54 2.74-1.9 1.18-.58 1.74-.68 3.56-.68h2.17l7.9 4.36 5.35 2.6 8.42 3.35 7.65 3.04c1.12.52 2.78 1.45 3.7 2.06.9.6 2.55 1.98 3.65 3.05 1.1 1.06 2.44 2.5 3 3.2l1 1.27c5.1-1.56 5.97-1.95 5.92-2.2-.04-.2-.45-.96-.9-1.7l-1.77-2.6-.96-1.26 2.8-5.86c.3-.77.7-2.03.9-2.8.2-.78.3-1.5.23-1.6-.06-.1-.43.1-.82.48-.38.37-1.16 1.03-1.72 1.48a19.28 19.28 0 0 1-2.17 1.48c-.63.36-1.83.85-2.67 1.1-1 .3-1.9.4-2.62.28-.6-.08-5.7-1.94-11.34-4.12l-12.3-4.87c-1.12-.5-3.23-1.6-4.7-2.46a28.48 28.48 0 0 1-4.8-3.62c-1.55-1.47-2.38-2.5-2.98-3.7-.46-.9-.92-2.3-1.02-3.06-.12-.88-.07-1.97.13-2.93.17-.84.66-2.16 1.07-2.93s1.28-2.06 1.94-2.87l1.18-1.46-2.32-3.24-1.33-1.84m117.5 2.97a41.66 41.66 0 0 0-2.17 2.74l-1.1 1.53c-2.5-.5-4.9-.73-6.97-.83-3.26-.16-3.77-.14-3.77.2.01.2.66.73 1.45 1.15s2.18 1.45 3.08 2.3c1.08 1 1.9 2.06 2.4 3.06.6 1.22.74 1.87.74 3.2 0 .9-.3 6.53-.63 12.5-.4 6.9-.8 11.9-1.13 13.76-.28 1.6-.8 3.9-1.2 5.1-.37 1.2-1.1 2.96-1.6 3.93-.5.98-1.44 2.34-2.07 3.03-.7.76-1.8 1.56-2.8 2.05-1.5.73-1.86.8-4.08.8-2-.01-2.76-.14-4.33-.72l-2.3-.83c-.26-.08-.92.62-2 2.12-.9 1.24-1.68 2.36-1.74 2.5-.05.14.57.56 1.38.94s2.5 1 3.77 1.37c1.83.54 2.86.68 5.1.7 2.27.02 3.17-.08 4.72-.56 1.05-.32 2.43-.88 3.06-1.24a21.8 21.8 0 0 0 2.42-1.68l1.28-1.02c2.96 1.05 4.63 1.53 5.6 1.73a19.55 19.55 0 0 0 3.38.38c.9.01 1.6-.1 1.6-.25 0-.14-.6-.58-1.34-.98-.74-.4-1.83-1.2-2.42-1.8a9.81 9.81 0 0 1-1.72-2.39c-.48-1-.64-1.76-.64-3.06 0-.94.23-2.66.5-3.82.27-1.16.78-3.88 1.12-6.05a111.36 111.36 0 0 0 .9-8.03l.54-9.05c.14-2.73.43-5.83.64-6.88a34.39 34.39 0 0 1 .92-3.57c.3-.9.94-2.46 1.43-3.44a36.6 36.6 0 0 1 1.88-3.25c.54-.8.93-1.64.86-1.85s-.88-1.4-1.8-2.67c-.9-1.27-1.7-2.3-1.76-2.3s-.6.55-1.18 1.2zm-25.65 25.5c.34.67.86 2 1.16 3 .35 1.17.54 2.45.53 3.7 0 1.44-.15 2.2-.58 3.12-.3.66-3.72 5.08-7.58 9.8s-8 9.62-9.18 10.86-2.9 2.86-3.83 3.6c-.9.74-2.46 1.82-3.44 2.4a19.38 19.38 0 0 1-3.57 1.61c-1.37.4-2.2.5-3.57.4-1.03-.08-2.32-.37-3.06-.7-.7-.3-1.94-1.22-2.76-2s-1.97-2.16-2.55-3.04c-.87-1.3-1.16-1.57-1.57-1.43l-2.87.9c-1.3.4-2.36.82-2.36.92 0 .1.6 1.17 1.33 2.36.74 1.2 1.98 2.86 2.77 3.7s2.22 2.07 3.2 2.74a19.4 19.4 0 0 0 3.67 1.9c1.57.56 2.45.7 4.8.76l2.87.08c1.92 2.66 2.94 3.95 3.5 4.58.56.63 1.67 1.6 2.46 2.17s1.5.93 1.57.83c.07-.1-.1-.65-.4-1.2-.28-.56-.7-1.74-.92-2.6-.28-1.1-.35-2.04-.24-3 .1-.77.48-1.96.86-2.63.42-.77 1.9-2.36 3.88-4.18a138.74 138.74 0 0 0 5.96-5.9c1.52-1.63 4.75-5.43 7.16-8.44 2.4-3.02 5.24-6.3 6.28-7.28 1.04-.98 2.63-2.3 3.55-2.9.9-.62 2.57-1.55 3.7-2.07s2.53-1.1 3.13-1.3l1.1-.34-.01-6.5c-1.28.22-2.8.63-4.2 1.05l-2.55.77c-3.56-3.5-5.4-5.04-6.37-5.7s-1.93-1.2-2.1-1.2c-.22-.01-.13.37.3 1.2zm-111.9 4.5c-.56.3-1.05.57-1.1.6-.03.03.7 1.5 1.6 3.25l1.66 3.18-9.44 4.85-2.17 1.07c1.2 2.5 1.62 3.23 1.72 3.24.1.01 2.72-1.24 5.8-2.8 3.08-1.54 5.7-2.75 5.8-2.7.1.05.88 1.48 1.72 3.16l1.53 3.06c1.87-.95 2.42-1.3 2.42-1.36s-1.8-3.74-4.02-8.16c-2.2-4.4-4.13-8-4.27-8-.14.02-.7.28-1.27.58zm171.08.22c-.38.46-1.78 3.07-3.1 5.8-1.56 3.2-2.46 5.38-2.54 6.12-.12 1.08-.07 1.2.86 2.02.54.48 1.73 1.2 2.64 1.62.92.4 2.08.76 2.6.78.68.03 1.12-.13 1.6-.6.37-.35 1.77-2.87 3.1-5.6l2.53-5.04c.06-.03.77.25 1.58.63l1.53.7c.03.01-1.03 2.28-2.36 5.04l-2.42 5.04c-1.2-.6-1.6-.77-1.66-.77s-.25.55-.4 1.2a51.81 51.81 0 0 1-.38 1.66c-.1.33.15.54.9.83.56.2 1.33.38 1.72.4.38 0 1-.22 1.4-.5.48-.35 1.52-2.2 3.28-5.8 1.42-2.9 2.74-5.74 2.94-6.3.2-.56.3-1.33.23-1.72-.08-.38-.5-1-.97-1.37-.45-.37-1.63-1.05-2.6-1.5s-2.2-.9-2.68-1c-.75-.14-1.03-.05-1.75.56-.63.53-1.5 2.06-3.27 5.7l-2.46 5.04c-.02.04-.7-.22-1.5-.57s-1.44-.75-1.4-.88c.03-.12 1.04-2.24 2.23-4.7l2.17-4.47c1.08.57 1.45.7 1.52.68.07-.04.27-.74.45-1.56.3-1.4.3-1.5-.2-1.85-.28-.2-1.04-.36-1.7-.36-1.03.01-1.28.12-1.9.83zM131.45 212c-.1.67-.5 2.08-.87 3.13-.37 1.05-.95 2.3-1.3 2.8-.33.5-.9 1.22-1.26 1.62-.36.4-1.12.96-1.68 1.25s-2.28.86-3.82 1.26l-10.08 2.67-9.94 2.53c-1.47.32-4.05.73-5.74.9-2.33.24-3.62.24-5.42.01-1.3-.16-2.96-.52-3.7-.8a16 16 0 0 1-2.55-1.28 8.68 8.68 0 0 1-2.08-1.98c-.48-.66-1.1-1.78-1.34-2.48-.36-.98-.47-2-.47-4.4v-3.13c-4.43-1.48-5.8-1.8-5.92-1.7-.1.12-.25 1.5-.3 3.06-.05 1.6.04 3.74.22 4.88.18 1.12.58 2.73.9 3.57.32.84 1 2.2 1.5 3 .5.8 1.48 2 2.14 2.66.67.65 1.8 1.57 2.55 2.04l1.34.85c0 4.15.16 6.18.36 7.2.2 1 .55 2.3.8 2.87l.45 1.02c.55-2.57.97-3.9 1.3-4.6.33-.7.98-1.72 1.46-2.26a8.46 8.46 0 0 1 2.15-1.59c.98-.47 2.28-.73 5.6-1.1 2.4-.28 5.66-.74 7.27-1.04 1.6-.3 4.3-.87 6-1.3 1.7-.42 4.67-1.23 6.63-1.8 1.97-.57 4.55-1.25 5.74-1.52s3.5-.56 5.1-.64c1.78-.1 3.68-.04 4.84.14 1.06.16 2.87.54 4.03.86 2.1.56 2.1.56 2.46.05a236.16 236.16 0 0 1 1.9-2.55l1.54-2.04c-2.65-1.3-4.17-1.9-5.08-2.16l-1.66-.5c-.26-2.68-.6-4.5-.9-5.76-.3-1.26-.84-2.9-1.17-3.63-.33-.73-.65-1.34-.7-1.34-.05 0-.18.55-.28 1.2zm-72.73 31.88l-4.9 6.04c1.67 1.5 2.32 2.04 2.54 2.17.3.18.84-.34 2.42-2.3 1.12-1.4 2.12-2.53 2.23-2.54.1 0 2.1 1.56 4.46 3.47 2.35 1.92 4.23 3.6 4.18 3.76s-.84 1.2-1.77 2.32l-2 2.42c-.27.32-.1.57 1.13 1.58l1.46 1.2 10.1-12.33-2.3-1.92-.64-.48c-2.77 3.4-3.66 4.43-3.76 4.48-.1.05-2.15-1.46-4.53-3.35s-4.34-3.5-4.34-3.57.8-1.13 1.8-2.36c1-1.22 1.8-2.3 1.78-2.42 0-.1-.55-.64-1.22-1.2-.66-.55-1.32-1-1.46-1-.14 0-2.46 2.72-5.16 6.04zm132.53-4.76l-1.2 1-.57.48 5.96 7.3c.44.45.68.86.54.93-.14.06-3.9.02-8.35-.1l-8.1-.22-2.04 1.52 6.34 8.08c1.9 2.42 3.53 4.4 3.6 4.4.08 0 .68-.48 1.35-1.08l1.22-1.07-6.65-8.3c2.28.02 5.98.13 9.7.25l6.76.22c1.53-1.05 2.02-1.44 2.07-1.55.06-.1-2.08-2.94-4.74-6.3-2.67-3.36-4.94-6.1-5.04-6.1-.1.01-.48.25-.83.54zm-91.84 21.4c-.23.15-.6.63-.8 1.07-.22.44-.74 2.3-1.16 4.12l-1.22 5.48c-.4 1.9-.4 2.26-.08 2.93.2.42.77.96 1.26 1.2s3.47 1.02 6.63 1.73l7.14 1.6c1.13.23 1.57.2 2.27-.08.47-.2 1-.65 1.18-1s.62-1.9.98-3.44l1.17-5.03c.3-1.23.52-2.64.52-3.13s-.1-1.12-.25-1.4c-.15-.28-.63-.7-1.1-.92-.45-.23-2.55-.8-4.65-1.28l-6.7-1.5c-1.57-.35-3.3-.63-3.82-.62-.53 0-1.15.13-1.38.28zm54.1-.01c-.5.12-3.47.8-6.63 1.5l-6 1.4c-.15.05.18 2.07.83 5l1.73 7.74.65 2.8c2.75-.6 3.55-.88 3.55-1.02-.01-.14-.3-1.43-.64-2.86l-.64-2.68c-.01-.04.77-.22 1.72-.42l1.72-.35 7.4 4.33c3.66-.83 4.7-1.2 4.7-1.33s-1.67-1.06-3.7-2.04-3.7-1.84-3.7-1.9.66-.32 1.47-.55c.8-.24 1.73-.64 2.05-.9a2.88 2.88 0 0 0 .79-1.24c.15-.54.04-1.55-.4-3.44-.33-1.47-.77-2.93-.98-3.25a2.66 2.66 0 0 0-1.02-.83 3.77 3.77 0 0 0-1.34-.22c-.38.01-1.1.12-1.6.25z" fill="#fff"/><path d="M101.75 263.5c0 .1-.46 2.25-1.02 4.78l-.96 4.64c.03.03 1.35.34 2.93.7l5.74 1.28c1.58.35 2.92.57 3 .48.07-.08.58-2.26 1.14-4.83l1.02-4.68c0-.01-1.32-.3-2.93-.66l-5.74-1.28-3-.62c-.1 0-.2.08-.2.2zm47.52.87l-4.37 1.05c-.04.03.12.9.35 1.97.22 1.05.48 1.98.57 2.08.1.1 2.1-.3 4.47-.85 2.8-.66 4.43-1.16 4.64-1.44.22-.3.26-.67.12-1.2l-.37-1.46c-.08-.4-.36-.8-.63-.92-.32-.15-1.9.1-4.78.77z" fill="#971d1f"/><path d="M97.1 4.8c-2.02 4.03-2.86 4.9-5.24 5.44-1.56.35-3.86.63-5.13.62-1.26 0-2.55.46-2.86 1.04-.33.63 1 2.45 3.35 4.6l3.9 3.56c-1.23 8.74-1.42 11.47-1.2 11.7.2.23 2.64-.8 5.4-2.3l5.02-2.72c7.67 4.2 10.1 5.24 10.35 5 .24-.22.08-2.95-.36-6.05l-.8-5.64c6.2-5.66 7.56-7.53 7.23-8.15-.3-.58-1.95-1.08-3.67-1.13-1.73-.05-4.08-.34-5.23-.66-1.47-.4-2.77-2-4.4-5.35C102.2 2.15 100.8 0 100.34 0c-.46 0-1.9 2.16-3.23 4.8zm53.7.17c-2 4.1-2.86 5.06-4.93 5.44-1.38.26-3.45.47-4.6.47-1.15 0-2.66.36-3.35.8-1.03.65-.52 1.52 2.8 4.8l4.05 4c-1.37 8.42-1.57 11.06-1.34 11.28.24.23 2.77-.77 5.62-2.24l5.18-2.66c7.36 4.13 9.72 5.13 10 4.9.28-.22.1-2.86-.4-5.84l-.9-5.44 8.86-8.7-9-1.3c-2.84-.4-3.36-.9-5.64-5.47-1.38-2.75-2.83-5-3.22-5s-1.8 2.24-3.14 4.98z" fill="#9f2e33"/></svg>