<svg xmlns="http://www.w3.org/2000/svg" xmlns:xlink="http://www.w3.org/1999/xlink" width="300" height="276.075" xmlns:v="https://vecta.io/nano"><style><![CDATA[.B{fill:#fff}.C{fill:#002156}.D{fill:#0072ba}.E{stroke-width:4}]]></style><g transform="matrix(.540632 0 0 -.540632 -1.376879 275.071629)"><path d="M280.97 15.563l-.662.19c-60.247 16.9-103.953 56.95-104.04 57.03-37.63 32.193-56.87 70.054-65.623 110.323-2.27 10.45-3.613 31.294-4.502 57.133s-1.268 56.516-1.368 85.942l.72 115.134 349.228-.118.06-2.413 1.604-112.368-.72-85.707c-.715-25.775-1.948-46.58-4.223-57.045-8.753-40.263-28.003-78.1-65.623-110.308-.087-.08-43.92-40.695-104.187-57.604z" class="C"/><path d="M450.87 436.967s5.334-212.88-3.257-252.4-27.37-76.488-64.282-108.073c0 0-43.23-40.01-102.365-56.602-59.127 16.577-102.23 56.05-102.23 56.05-36.91 31.577-55.684 68.547-64.274 108.065-8.59 39.525-5.095 253.086-5.095 253.086z" class="B"/><path d="M335.474 396.23c2.26-2.622 4.09-5.68 3.9-9.04-1.1-2.8 2.32-3.66 2.69-6.102 1.763-3.18 4.58-4.83 6.773-7.51l1.77.422c5.62 3.97 11.12 9.04 16.25 13.19 1.83 4.64 5.062 10.32 10.803 11.24 3.18.6 5.56-.06 8.37-1.1 1.83-1.1 2.44-2.99 4.15-3.97 1.032-1.89 1.16-3.73 1.95-5.5.24-5.062-2.01-9.28-5.92-11.842-3.97-2.75-8.55-.67-11.842-4.64-4.158-3.36-8.98-7.82-13.19-10.99-.128-1.7 1.28-2.32 1.95-3.48 2.01-2.69 4.82-6.23 7.51-8.61 3.24-.6 7.08-2.14 8.972-5.07l.678-.18 1.95-4.4.25-4.82c10.803-.6 21.553-4.7 27.233-14.29 8.12-8.43 24.483-9.952 27.964-23.572 1.22-1.04.18-2.622 1.7-3.72.31-4.64 2.69-8.5 5.07-12.272.55-.738 1.522-1.22 1.77-2.02-11.112.67-19.36 8.73-25.952 17.16-1.7 2.99-5.37 3.172-8.12 4.64l-9.89 1.95c-.43.55-1.228.31-1.77.67l-.43-.422c1.77-2.69 5-4.52 7.7-6.418 5.8-1.95 12.385-6.772 14.042-12.762 2.622-3.72 2.313-8.852 5.74-12.09-.43-.542.422-1.16.67-1.7.3-1.28 1.1-2.32 1.522-3.54-2.99-.06-6.35.92-9.213 1.1-1.53 2.08-4.22 1.228-5.748 3.3-2.56 2.38-5.612 5.62-9.462 5.92-4.452 1.838-9.83 1.838-13.613 4.83-5.25 2.682-7.76 8.242-12.52 11.662-1.6.972-3.48 2.2-5.5 2.622-6.3 2.08-13.613.86-20.453.25-5.74.6-11.662.18-16.49 3.72-7.933 2.69-14.283 10.7-20.453 16.49-2.99 1.032-4.76 5.612-8.55 4.21-1.95-.73-3.42-3.18-5.07-4.21-6.102-3.12-10.44-9.16-16.483-12.52-1.22-2.622-5.07-3.24-5.68-5.92 3.12-1.898 7.21-2.26 10.75-2.63 7.45-.98 15.504-.55 23.323-.67 7.02-1.7 13.56.5 20.883-.43 4.34-2.75 10.93-.18 15.57-2.192 1.83 0 3.79-1.04 5.492 0 5.258-1.288 10.7-1.96 16.06-2.87 7.27-2.998 14.23-7.58 20.64-11.67 3.172-4.332 7.21-8.852 11.9-11.413 4.882-5.13 8.06-10.38 11.662-16.07.6-1.95 2.14-2.373 3.3-4.15.24-.603.6-1.703 1.28-2.44.972-8.79 8.18-16.912 6.84-26.374 4.15-12.03-6.6-20.092-10.32-29.923-3.48-.188-4.46-4.95-8.61-3.48-2.57-1.89-6.41 1.1-8.55-1.77-2.5 1.34-4.58.18-6.6-1.348-4.083.37-6.772 3.24-10.132 4.89-2.2.55-4.21 2.2-6.35 2.2-2.75-.37-5.98-1.348-8.61 0-4.392-.37-6.592 1.522-10.99.6-4.64-.5-9.71-.25-13.19-3.73-7.45-4.7-13.123 4.09-20.393 2.44-.85-2.192-3.42-2.072-5.31-2.622-3.24-6.23-9.952-1.28-14.472-.92-2.63 2.02-5.31 4.22-5.74 7.51-1.28 1.348-3.488 1.04-5.07 1.1l-10.75-.24c-.73-2.26.37-3.85.43-6.17.73-1.28 1.53-2.8.86-4.4-1.47-1.16-3.48.31-5.25.43-5.44 1.28-10.87 1.22-16.242 1.77-6.968-3.232-15.57-3.11-23.33-1.77-3.42-.98-7.142-.06-10.32.92-3.3-.06-7.142-.06-10.32.85-8.242-.55-14.9-.67-22.653-.85-4.46.8-9.34.67-12.762 3.97-3.42 1.22-5.37 4.942-7.692 7.02-2.14 2.44-1.898 5.982-1.348 8.55 1.1 2.38 3.24 3.782 3.3 6.592 4.52 2.14 7.692 7.45 13 7.692 3.413 1.1 6.53 2.998 9.89 4.4 1.28 1.89-1.348 3.18-1.778 4.82-1.092.5-2.622 0-3.72.5-2.02 1.348 2.38 7.262-2.448 3.9l-22.404-18.012c-2.44-3.24-7.202-4.95-10.32-7.88-5.62-4.27-10.072-10.32-16.49-13.432-1.95-1.41-4.023-2.01-6.41-1.1-3.11 2.32-5.123 5.68-7.692 8.79-.79 1.47 1.46 3.05.67 4.83 2.75 4.882 8.5 7.202 11.9 11.42-1.65 1.4-4.4.12-6.17 1.092-3.172 2.38-7.4 2.8-10.132 5.74-.92.18-1.7 1.22-2.2 1.96 2.5 4.27 7.202 6.47 10.14 10.562 2.742 1.4 2.5 4.46 5.062 6.17l4.158 6.592c6.403 6.72 15.752 10.14 22.834 16.912 2.69 2.69 5.62 3.548 8.18 6.17 4.03 1.53 8.06 5.31 13.19 3.54 2.93-.912 6.35-.6 8.79-2.87 1.6-.24 1.6-2.5 3.48-2.44.6-.5.55-1.6 1.53-1.53 3.36 3.24 2.57 7.33 3.79 11.42-.128 3.79-4.95 4.03-7.7 5.31-4.392 2.99-9.71 5.25-13.003 9.41-2.75 2.44-6.9 4.64-8.37 8.362-2.2 3.3-3.72 6.84-5.92 10.14-1.22 5.86-4.7 10.99-4.58 17.153-2.56 6.66-.86 12.882-.24 19.8.06 2.93 2.44 5 2.192 8.12.86 1.16 1.53 2.44 1.53 3.97 4.95 14.532 19.722 27.105 32.974 33.154 5.99 2.01 11.722 5.13 18.502 4.64 3.3.85 7.27-.73 10.75.43 6.47-.73 12.03-1.77 17.83-4.15 4.21-.86 7.51-4.34 11.172-5.99 4.52-3.48 8.31-7.933 13.432-10.99.55-5.002 5.68-7.57 6.6-12.52 1.703-1.032 1.1-3.05 2.2-4.392 2.93-5.5 4.332-11.12 5.492-17.16 1.34-1.4-.06-3.97 1.778-5.25-.128-.55-.31-1.1-.25-1.77 0 .24.06.55-.25.67h-.18c-.31-2.93.678-5.37.43-8.79.362-.738.67-.12 1.1 0 .18.06.3-.12.422-.24.188 1.4 1.77 1.4 2.448 2.192 2.863 2.75 6.223 4.89 8.972 7.51 12.28 8 21.862 17.71 33.652 25.952-.37 3.42-3.79 4.95-4.83 8.12-1.28.73-2.14 2.08-2.87 3.3l-.18-.24c-.25.6-.5.6-.92 1.1-1.763-.618-2.622 1.092-4.15 1.092-4.332 1.898-8.5 6.17-8.37 11.42-.73 4.64 3.36 8.79 7.03 11.24 4.27 2.192 10.313 1.34 14.102-2.2" class="D"/><g class="B"><path d="M334.56 391.406c1.228-1.95 1.46-4.27.67-6.17.8-2 2.8-3.963 4.15-5.92 3.12-3.232 5.25-6.772 8.6-9.9 1.9-.43 2.7 1.7 4.15 2.2 6.35 4.52 12.4 9.34 18.7 14.472-.43 3.6 2.32 6.652 5.062 8.18 2.93 1.47 6.4.98 9.22-.5 2.08-2.132 4.22-4.82 3.3-7.692.55-3.12-2.072-5.13-4.15-7.2-2.32-1.77-5-1.22-7.7-1.34-6.53-5.2-13.304-10.682-19.353-16.06-1.1-2.072 1.77-3.66 2.63-5.492l9.22-11.172c3-.37 6.102-1.657 7.933-3.97 1.898-2.757 1.898-6.6.25-9.7-2.26-3.12-6.47-3.97-10.38-3.48-2.32 1.83-5.56 3.42-5.92 6.78-.98 2 2.56 4.573-.86 5.062-3.72 5.86-8.302 9.6-12.332 14.72-4.332-.92-6.72-5.13-10.562-7.2-9.6-8.302-20.03-14.773-29.44-23.572-5.914-4.2-11.534-9.763-18.253-13.183-3.85-4.1-8.12-6.968-12.52-10.32-2.742-.43-3.782 3.352-5.74 5.07-.8 3.413 2.8 3.963 4.64 6.343 2.02.86 3.06 3.06 5.258 3.97 1.582 3.18 5.733 2.87 7.933 5.93 2 .73 2.87 2.93 5.07 3.292 1.7 2.14 4.512 3 6.162 5.32 10.268 8.362 22 16.182 32.303 24.604 2.448 3 6.418 4.58 8.558 7.27-.37 2.682-2.87 3.842-4.158 6.162-.362 1.65-2.57 1.7-2.87 3.488l-6.592 7.02c-3.1-.128-6.47 1.582-8.12 4.633-1.83 2.75-1.34 7.27.43 9.9 2.56 2.2 5.98 3 9.462 2.44 2.02-.67 4.1-2.26 5.25-3.97m-83.304-2.437c.5-1.6 2.14-.3 3.3-1.28 4.882-4.03 10.072-7.4 14.713-12.1 8.18-10.012 13.07-22.17 15.813-34.744.5-3.42 1.047-6.848.25-9.7l.43-.43c-.128-2.14-.6-5.25-.43-7.27-4.942-5.002-11.112-7.63-16.06-12.272-1.95.06-2.44 2.2-3.292 3.48-4.34 4.95-10.87 10.38-8.558 17.16 2.268.73 4.52-.5 6.788.24 2.87.6 4.512 2.87 6.162 5.07-3.97 5.5-9.402 8.5-16.242 8.98-2.14 1.04-5.68-.43-6.592 2.44-.5 1.96-2.878 2.87-4.4 3.97-2.38.362-3.85 2.75-6.592 2.192-.86 1.04-2.328 1.228-3.3 1.1-4.4 2.87-8.37 2.817-13.432 1.96-3.36.86-5.38-2.14-8.55-1.1-1.6-.678-3.06.12-3.97 1.34-3.12.5-5-1.4-6.592-3.54 1.4-2.2.8-5.552 2.192-7.94 0-3.42-4.2-4.15-6.162-6.592-3.548-1.04-4.46-4.34-7.7-6.1-1.6-2.26-5.3-3.05-6.17-6.162-2.192-2.38-2.802-6.53-3.963-9.47-.678-3.352.912-6.3 2.87-8.8 1.823-.8 4.27-1.1 6.162-2.2 1.22-1.642 3.36-1.1 5.07-1.522 3.85-1.838 11.36.422 11.42-5.93-1.53-3.05.972-4.76.43-7.933.85-3.1-.618-6.05-.43-9.04-3.97.5-7.02 3.24-10.562 4.882-7.27 4.22-15.15 11.12-18.442 19.3-3.548 5.13-4.95 11.05-7.03 16.732-3.72 18.133 1.04 38.224 14.3 51.234 1.65.8 2.87 2.622 3.73 3.963 5.982 4.58 11.6 9.7 18.864 11.6 1.96 1.348 4.708 1.7 7.08 2.448 3.12 1.77 7.4.8 10.75 1.95 10.2.06 19.73-2.072 28.152-5.92m-41.58-35.606c-.12-1.96-1.77-2.75-2.2-4.64-1.04 0-1.95-.43-2.8.67-1.83 1.16-.18 3-.67 4.64.37.67 1.1 1.288 1.77 1.53 1.6-.06 3.42-.5 3.9-2.2m20.7-.857c.24-.912.5-2.02 1.28-2.44 1.04-.06 1.65.92 2.448 1.34 2.983-.55 5.3-3.42 8.543-2.682.55-.6 1.22-.5 1.6-1.288.912-1.77-2.08-4.1.86-4.392 1.7.12 3.72.912 4.64-1.1.18-1.22-.25-2.32-1.1-2.87-1.4-.73-4.22 1.28-4.4-.67.912-1.838 4.2-1.4 3.48-3.97 1.47-1.16 5.25-.12 4.64-2.8-2.02-1.34-5.25-.3-7.692 0-1.28-.55-.25-2.08-.92-2.87-1.53-.67-2 1.6-2.38 2.63 1.22 4.332-2.02 7.4-2.63 11.232-1.522 1.77-3.782 1.65-5.492 2.8-1.47.8-1.96 3.36-3.97 3.12-.86-.738-1.95-1.898-.912-2.878.6-.98 1.83-.422 2.682-.85 1.47-1.7 1.47-4.2 1.1-6.4-.24-.92-1.22-1.838-2.2-1.778-4.15-.06-7.812 1.348-10.38 4.648-.43 1.4-.12 2.2.25 3.54 1.95 1.34 4.52-.86 6.592.18-.12 1.28-1.53 2.132-2.44 2.87-2.2-.5-5.2-.3-7.02 1.53-.92-.188-2.32.5-2.63-.67-.06-2.02 2.87-1.288 2.44-3.48-.24-1.898 1.04-3.9 0-5.32-1.04-.24-2.622-1.032-1.77-2.38 1.47-1.22 0-2.75-.43-3.963-.8-.738-2.313-1.348-2.682-2.63.43-1.16 1.77-.6 2.44-.43 2.14.92 3.36 3.42 3.73 5.68.67.5 1.642.98 2.44.422.55-2.622 1.77-4.942 3.73-7.02 1.28-.362 3.232.92 3.043-1.1v-.663c-1.763-.678-4.332.6-5.673-1.1.06-.6.67-1.228 1.28-1.288 2.44.3 5.62.55 7.262-1.1 1.288-1.83-1.092-2.313-2.192-2.622-3.3-.12-5.56 2.44-8.37 3.72-2.87-.12-4.03-6.4-7.45-3.1.25.6.43 1.22.67 1.77-.482 1.04-1.95.5-2.622 0-2.57-2.57-6.05.43-8.8-.85.67-3.548 5.25-1.47 7.692-2.63 2.8-.24 5.3-1.47 7.45-2.87-1.34-1.65-3.85-2.26-5.92-2.87 0-.55-.92-.67-.678-1.34.86-2.02 5.62-.25 3.73-3.488-3.66.06-6.05-4.882-9.9-2.44-.43.98.12 2.5-1.28 2.87-2.8.068-5.198-2.93-7.7-1.522-.18 2.87 3.73 2.802 5.5 4.58 1.4.18 2.32 1.46 3.9 1.092.362.43.912.738.67 1.348-1.83 2.132-4.22-.362-6.35.43-2.26-1.7-4.708-2.57-6.17-5.25a6.33 6.33 0 0 0-5.92 0l-3.3 2.38c-1.9 4.573 1.1 10.072 3.97 13.86 5.92 3 8.73 9.402 14.9 11.903 3 3.608 8.852 5.44 9.7 10.5 1.16 2 3.48 3.172 5.492 4.2 2.63.12 5.37.06 6.78-2.2 2.14.24 2.56 3.72 5.07 2.38z"/><path d="M347.565 349.2c3.54-3.66 6.53-7.322 9.643-10.8-.24-1.522.437-3.232.25-5.062-5.13 3.473-8.55 8-12.1 13.432-1.22 1.53 1.04 2.56 2.2 2.44m-.5-9.707c3.782-4.76 7.752-9.04 13.2-11.172 2.63-3.488 6.96-5.25 11.48-4.4 1.16.98 2.87.6 3.902 1.95 1.65.37 2.56 1.348 3.8 2.2 1.092 3.842 5.25 1.77 7.872 2.63l9.228-2.63c3.05-1.65 6.223-4.15 8.18-7.02 4.392-3.18 7.202-9.28 12.942-10.14 4.46-3.232 10.63-3.85 13.86-8.8 1.28-2.14 3.3-4.03 3.73-6.592 1.522-2.87 2.32-6.1 3.292-9.22.3-1.47 1.16-2.75 1.53-4.158-1.6-.912-2.57 1.04-3.97 1.288-7.752 3.6-11.112 12.762-18.442 16.912-3.05.37-5.492 2.08-8.55 2.44-.6.67-.85 1.53-1.34 2.2-1.22-.3-2.388-1.83-3.73-.67-1.28.67-2 1.22-2.44 2.622.55 2.08-1.46 4.22 1.1 5.07 1.838 1.53 3.73-1.4 5.3.25-2.373 1.46-3.593 4.7-6.833 5.062-.738-.912-.8-2.44-2.2-2.682-.98.18-1.898 1.65-2.87.5.24-1.65 3.85-2.02 1.53-3.97-2.5-1.6-4.34.972-6.6 1.28-2.02 1.4-5.002 1.348-7.45 2.2-2.5-.37-5.432 1.95-6.84-.85 1.16-1.838 3.782-.92 5.5-1.778 3-1.28 5.98-2.56 8.6-4.82 2.313-3.24 4.82-7.2 8.362-9.22 4.158-5.002 11-5.44 15.813-9.7 5.198-4.95 6.788-11.842 9.65-18.012v-1.95c-2.7 1.28-6.042.85-8.37 3.05-3.902 5.552-10.072 7.142-15.813 8.12-1.9 1.22-.06 3.05-.18 4.64.86 1.34 2.63 1.22 3.9.85 1.04.12 1.53-1.092 2.7-.603l.85 1.28c-1.16 1.582-4.7.972-4.392 3.72-1.898 2.38-5.32 2.38-7.03 5.07l-.92-.86c-.113-2 4.9-2.192 2.02-4.392-.67-.92-1.77-.18-2.44.18l-4.4 3.8c-1.7-1.16-.55-2.5 0-3.8 1.77-.73 2.622-2.622 3.97-3.9-.362-1.522-1.77-1.83-3.05-1.34-3.97.972-5.62 4.83-8.37 7.27-2 1.77-1.7 5.123-1.092 7.443l-.678.67c-1.46-1.522-2.2-3.48-4.64-3.292-5.552 3.1-11.97 2.2-18.442 3.05-.5.6-1.6.6-1.522 1.6.3 1.1-1.348 1.1-.43 2.192-2 1.04 0 2.63 0 3.9.8 1.28 3 .188 3.3 1.778-1.04.55-1.898 0-2.448 1.092 1.288 2.63 3.85-.43 5.74 1.1-.55 1.47-2.923.3-3.1 2.2.8 2.2 5.432-.85 4.64 2.63.972 1.65 3.66 1.95 3.73 4.4.972.603 3.164-.37 3.05 1.34-1.16.85-4.098.12-5.92.67-.678-.8-.37-2.32-1.778-2.448h-.6c.5 1.53-.73 2.63-1.77 3.307-1.04-.128-2.44 1.28-3.1-.437.18-.912.98-4.15-1.53-3.54-1.95-.73-2.192-3.72-4.58-3.902-.85 0-1.22.972-2.192.6-1.77-2.57 4.392-2.87.85-4.83-1.53-.73-3.54 2.5-3.72-.18l2.192-1.77c-1.77-3.232-3.72-6.592-7.02-8.37-2.132-.73-3.8 1.1-5.492 1.96-.43 2.072.43 4.9 2.2 6.4.18.6-.3.912-.67 1.28-1.597.67-.86-1.4-2.02-1.522-.3-1.53-1.7-2.2-2.63-3.3-.73-.3-1.77.43-1.95 1.34 0 2.08 1.4 4.038 3.05 5.07.73.67 1.53 1.4 1.53 2.38-1.778.67-2.93 3.54-4.83 3.3.12-1.96-.8-3.36-2.192-4.58a6.01 6.01 0 0 0-3.48-.67c-1.7.912-2.75 2.26-3.548 3.97-.3.85 1.1 1.4-.24 1.95-2.14-1.22-3.85 1.4-5.92 1.77-.92.6-1.1 1.53-1.288 2.38.86.55.06 1.77.618 2.44 6.53 5.38 13.372 10.38 19.602 16.06l6.35 4.158c2.863-.678 3.66-3.978 5.92-5.5m-81.95.668c.92-1.28 2.388-3.18.86-4.64-.98-.3-1.47-1.83-2.63-1.7-1.22-.06-1.83.73-2.2 1.7.5 2.56-2.44 1.53-3.54 2.7-1.522 1.032-4.1.482-4.83 2.373-.482 1.657.678 2.26 1.778 2.878 4.392 1.092 6.84-2.57 10.562-3.3"/></g><path d="M343.78 337.12c-.37-.37-.67-.92-1.28-.67-.37.3-.3 1.04.18 1.28.6.24.73-.43 1.1-.6m-130.3-.497c.3-.55.3-1.47-.25-1.96-1.032-1.22-2.5-1.4-3.72-2.192-4.15-4.708-9.462-7.33-14.96-9.22-1.65-1.288-3.1-4.34-5.25-3.12-.6 2.32 1.7 3.6 3.06 4.9 1.9 0 2.373 2.26 4.64 1.7 4.2 1.7 9.402 4.882 10.743 9.9z" class="D"/><path d="M239.176 334.25c.06-1.65-2.02-3.12-2.44-4.64-1.16.06-3.24-.24-3.97 1.1v3.97c2.44-.25 5.74 4.392 6.4-.43m15.388-7.694c.43-3.05-2.32-4.46-3.54-6.6.18-1.823.73-4.083-.43-5.92.3-.73 1.28-.482 1.77-.24 1.348 1.9 2.63 3.18 3.48 5.25.6.37 1.16.912 2.02.678 2.38-3.42-2.448-5.44-2.63-8.558-.24-.67-.55-1.522-1.34-1.77-2.448.738-4.2-.85-5.92-2.2-.86-.422-2.26.497-3.12-.422-.3-.8.67-1.28 1.1-1.53 1.47-.24 3.48.6 3.97-1.34.12-2.38-5.612-3.06-1.95-5.5 1.4.37 2.32-.542 3.473-.85 1.657.18 2.268 3.54 3.97 1.522.6-2-2.983-3.172-.67-4.392 1.96.972 4.158 1.95 6.418 1.53.06-.8 1.032-1.228.67-2.2-.5-1.16-1.95-.37-2.2-1.53.43-2.5 3.172-.73 4.82-1.1 1.1.98 2.5 0 3.73 0 .73-1.28.422-3.292.422-4.64-1.032-.85-1.65-2.32-3.48-1.77-.43.55-.12 1.4-.912 1.77-2.38-.06-2.2-2.682-3.05-4.15 1.4-2.02 2.93 1.1 4.82-.24 1.34-1.04 3.72-1.16 5.25-.43 2.08 2.44 5.432-3.06 6.162 1.34-.67 1.28-3.593 1.16-2.192 3.3 2.38 1.032 3.05 5.07 6.4 3.48.912-.25 1.4-1.16 1.7-1.95-.06-2.14-4.4-2.8-2.2-5.07 1.96-.3 3.3 4.392 4.9 1.1 0-.98-.25-2.08.85-2.63 1.77.5 3.12 2.682 5.25 1.53.86 3 4.52 2.2 5.3 4.82 2.7-1.34 4.882 0 7.7-1.1 2.7-.24 3.54 3.3 6.35 2 1.77-2.132-.73-4.392 1.34-6.403-1.04-.86-2.26-1.4-1.77-3.06.86-.73 1.83-.67 2.63.18 1.28.92.18 3.18 1.763 3.548 4.4 1.28-.422-4.4 3.307-3.548.482 1.778 1.46 3.367 3.292 3.97 1.65.188 3.24.73 4.64-.422.98-.55.6-2.5 2.2-2.63 2.75.5 1.83 4.1 3.292 5.92-.12.618-.663 1.04-1.092 1.53l-2.7.25c-.67.85.3 1.582.92 2.192 1.703.43 1.16-1.77 2.622-2 1.4.55 2.93.06 4.15-.43 1.838-1.95.06-3.6-.6-5.68-.8-.55-1.04-1.34-.912-2.2 2.132-1.582 3.963 1.65 5.92 2.388 1.96.362 3.66 1.77 5.3-.188.73-.67.912-2.132 2.2-2 2.2 1.65-.8 4.452 1.77 5.3 1.9-.37 3.48-1.34 5.25 0 1.22.37.18 3 1.95 1.95 1.348-5.2 7.45-2.93 9.7-7.262 1.838-1.898 1.1-4.4 1.1-6.35-.422-1.22-2.63-.92-2.2-2.63.678-1.28 2.02-.362 2.878 0 .6 3.66 6.712.67 5.492 5-1.288 1.1-2.75 2.14-2.44 3.97.37.85 1.4.8 1.95.422.85-.73.67-2.802 2.44-2.192 1.53.43.5 3.42 2.63 2 1.16-.5 1.16-2.14 1.092-3.1-1.46-1.34-4.392-1.6-4.392-4.158 1.348-2.742 6.3-.603 5.492-4.82.068-2.072-.24-4.2 1.1-5.74 1.778-1.1 2.878 1.34 4.4.678.55.663 1.9.663 2.44 0 .068-.618 0-1.718-.912-2.2-.92 0-2.02.972-2.8 0-.67-.6-.738-1.53-.67-2.448 2.44-1.763 4.332 1.7 6.772 1.77 1.348 1.7 3.42 4.77 5.74 4.83 1.6-2.38-2.132-4.28-.24-6.78v-.67c-1.28-1.04-2.63 2.132-3.48-.25.3-1.9 2.2-3.66.85-5.673.618-1.04 1.778-.738 2.63-1.1 1.1-1.28.18-3.54 2.7-3.3 1.83 2.26-3.97 7.5 1.522 6.78 1.4-.98-.18-3.9 2.2-3.73.98 1.04 1.4 2.63 3.06 2.02.482-.6.663-1.34.912-2.02-.67-1.522-3.24-3-2.44-5.062 1.032-2.14 3.97-1.348 5.74-1.53 1.83-1.7 4.27-2.93 6.592-3.97.55-3.12-6.042-1.28-3.1-4.58 1.34-.37 3.36 1.53 3.72-.67 1.1-2.75-.5-5.56 2.2-7.94.24-.6-.3-.912-.6-1.28-3.36.24-6.4.6-9.28-.92-.18-.55-.92-.912-.6-1.703 2.2-1.47 5 2.742 6.772-.92 1.718-3.85-3.232-6.9-.85-10.75 1.34-.85 2.7-.12 3.73-1.34 1.582-2.87-2.878-3.24-2.448-5.92-2.57-.8-5.98.8-8.12-1.348-.43-3.1 4.28-1.83 4.83-5.002-.618-1.838-2.388-.128-3.48 0-1.22-1.288-3.12-2.87-2.878-4.648.3-2.072 4.098.5 3.06-2.192-.67-1.77-2.8 0-3.48-1.77-2.7-.43-4.95 3.36-7.7 1.34-.06-1.04.86-1.65 1.288-2.44-2.93-.24-4.64 3.352-7.88 3.292-.98 0-1.77-.73-2.2-1.522.06-1.28-.8-2.26-2-1.77-2.7 2 1.53 4.15-.18 6.84l-1.778 2.87c2.57 1.46.8 7.872 5.07 5.492.3-.73 1.288-.5 1.77-.24.98 2.8 3 3.842 5.25 5.74-1.47 3.36 7.33 6.4.43 7.02-.8.6-.06 1.7.24 2.38.92.5 2.5-.12 2.87 1.34 1.168 2.328-4.15 2.14-1.333 4.64.542.67 1.032 1.4.844 2.38-.422.557-1.4.618-1.95.25.06 1.28.55 2.8 1.77 3.292l1.1-1.092c1.288 1.032.3 2.93 0 4.58-.24.73-.972 1.22-1.763 1.092-1.047-.972.234-2.87-1.107-3.72-3.292.43-1.9 5-2.863 7.02-.557 1.1-1.4 2.38-2.38 2.87-.738.5-1.657.06-2.2-.422-.678-2.14 4.15-2.938.85-4.64-.188-1.288 1.6-2.08.67-3.48-1.83-.557-3.73-2.207-5.3 0-.738.3-.86-.497-1.1-.92 2.87-4.708-6.1-5.3-.6-9.65 2.87.5 1.65 4.27 4.15 5.74.43.55 1.28 1.04 2.2.86.73-.3.5-1.288.24-1.778-1.22-.912-2-2.38-1.34-3.963 1.34-1.53.3-3.8 0-5.5-1.898-1.6-2.75-3.66-2.63-6.1-1.16-2-3.9-3-4.2-5.74-.85-2.38-3.85-4.27-4.392-7.02-.37-2.56 1.95-6.162-1.1-7.692-1.65 0-3.428.67-4.158 1.95-.73 2.448 4.46 2.32 1.348 4.83-1.47.5-2.14-.73-3.1-1.28-3.24.43-6.54-2.02-8.98.85-2.63.55-4.77-3.05-6.84 0-2.448.3-5.3 2.87-7.45.67-.67-.362-.73-1.16-.67-1.522-.37-.37-.73-.86-1.34-.678-2.63 1.53-1.96 4.648-4.158 6.17-1.642-.85-3.48.8-4.82-.67-.92-.85-1.1-2.2-.67-3.3 1.642-1.7 4.64-.12 6.17-2.2 1.032-.67.73-1.65.603-2.622-1.9-1.7-4.392 1.582-5.673-1.1 0-1.6 1.522-1.898 2.622-2.44.73.06 1.28-.8 1.53-1.28-3.9-3.367-8.5.362-12.1 2.192-1.65 1.04-3.24 2.26-3.3 4.4.67 1.65 4.648 1.4 2.2 3.72-.8.8-2.44 1.96-3.73.86-2.373-5-3.902 3.12-6.592 0-.12-2.26 2.87-2.072 3.97-3.3.67-1.77.6-3.6.188-5.25-1.348-.67-2.08-2.682-3.73-2.622-.738 1.04-.12 3.05-1.96 3.292-3.473-.18-6.712-2-8.603-5.07-1.22-.422-2.08.678-2.63 1.53-.06 2.87 3.42 4.1 4.64 6.592 1.22 1.7 1.7 3.67 3.97 4.4.06 2.2-1.77 5.68 1.1 7.02 5.552 3.54 12.392 3.66 18.442 1.1l2.87.67c7.4.188 14.773-.972 21.74-2.44 1.763.06 3.352.37 4.633 1.6.67.73-.482 1.77-1.34 1.95-4.58-.24-8.18 1.9-12.1 3.3-1.65 4.27-6.47 2.56-9.22 5.07-5.002 2.132-12.03 5.002-12.332 11.662-3.12 6.042-.6 12.762.25 19.112-.43 1.1-1.778.6-2.448.43-1.1-.738-1.22-1.898-1.7-2.87 2.998-5-2.93-8-.92-13.372 1.16-2.87 4.1-5.87 3.12-8.8-.98-.37-1.96.542-2.87.85-1.28 1.7 1.7 4.1-.912 5.492-2.938-.12-2.388-2.8-3.06-4.82.8-1.9 3.9-3.172 2.44-5.74-.542-2.32-3.85-1.53-4.392-4.15-.55-3.6-5-2.2-7.08-4.4-.188-1.7 1.092-3.36-.618-4.2-1.9-.37-2.56 2.63-4.633 1.77-.987 1.1.8 2.14.85 3.3 1.7 1.65 5.13 1.34 5.3 4.2-1.9 1.7-4.1-1.6-5.93.18-1.454.678-2.5-.972-2.682-1.95-.12-2.2-1.77-3.54-3.48-4.64-2-.37-4.2-.5-4.83 1.77.068 2.63 2.388 4.7 4.83 5.5.92.85 1.9 2.2.85 3.292-1.34.8-2.622 2.2-4.392 1.348-3.36-1.65 2-4.46-1.53-6-.85.86-2.132.67-3.292.67-2.38-1.46-3.06-5.492-6.35-4.82-.5-.12-1.16-.73-.92-1.1 1.46-3.05 4.95 1.4 5.92-1.77-1.28-3.42-5.13-2.5-7.872-3.3-.55.92-1.778.12-2.448.67-2.32 3.3-10.38 1.1-8.12 7.27.86 1.28 2.87.86 3.73 2.63h1.092c1.047-1.77-3.593-2.7-.422-4.158 3.782-.603 3.6 6.05 7.45 3.3 2.93.73 4.332 3.48 5.492 5.92 1.53 1.96-1.9 3.54-.422 5.5.55.67 1.34 1.6.422 2.38-1.522 2.32-3.172-2.75-4.392.25 0 1.582.3 3.05-1.1 4.392-.92.6-1.53-.24-2.2-.85-1.1-2.26.37-3.18-.43-5.5-1.46.12-1.77 1.7-3.292 1.7-.8-.5-.98-1.28-.86-2.2.3-.67 1.34-1.34.67-2.2-.8-.18-1.6-1.092-2.44-.43-1.83.98-2 3.24-1.53 5.077.92 2.132 3.48 3.6 3.05 5.74.98 1.522 3.42.362 3.73 2.622.55.12 1.16.5 1.34 1.1-1.032 1.642-2.622-.37-4.15 0-1.7.55-3.42 1.7-3.3 3.48.37 1.4.8 2.8 2.2 3.782 1.16-.3 1.9-3.473 3.73-1.34.73-1.1 2.26-1.9 3.48-1.53 2.2 2.02-2.14 2.998-1.53 5.258 1.53.912 4.28-1.1 4.2 1.77-2.863.24-4.2 5.25-7.262 2.44-.3-1.22-.12-2.998-1.53-3.3-1.77.06-3.66.06-4.392-1.77-.188-2.26-.37-4.28-1.6-6.4-1.9.67-1.53 3.42-3.48 4.64.43.6-.12 1.6.85 1.95.86 0 1.96-.06 2.2.92.18.92-.5 2.08-1.522 1.95-2.388-1.6-5.258-.55-7.94-.85-.55-.6-1.6-1.34-.86-2.2 1.04-1.77 3.06-1.22 4.64-1.77-.912-3.232 3.18-3.42 3.73-6.17-.128-.85.3-2.682-1.1-2.863-2.5-.128-4.1 3.1-6.84 2.863-1.9 2.448-4.82.6-7.02 2.448-1.53 1.28-1.53 4.023-4.15 3.48-1.16-.43-.678-1.9-.5-2.63 1.22-1.6 4.2-1.16 4.64-3.72-.37-.67-.678-1.65-.25-2.44.738-.128 1.22-1.47 2.02-.618.912.73 1.77 2.388 3.05 1.53 1.04-1.1.5-3.232 2.448-3.54 1.092.12 1.83 1.22 3.05 1.092.24-1.7-3.548-2.682-1.53-4.573 1.6-1.6 4.4-.5 5.5-2.7.422-.98.24-2.32-.678-3.05-3.72.06-8.12 3.54-10.743-.85-.55.12-.98-.5-1.1-.92-.3-.92.362-1.65 1.1-1.96 2.2-.912 5.432 3.73 5.492 0-.422-1.47-2.072-.972-2.87-.912-.482.12-1.04.85-1.522.24-1.22-.37-1.16-1.582-1.1-2.622.67-.8 1.1-1.7 1.95-2.448l2.448.25c.482-.92-.98-1.53-.43-2.63.85-1.46 4.2-1.83 2.622-4.392-2-1.16-4.52 2.32-6.4-.5-3.3 2.132-3.36-6.4-5.25-.86-.3 1.47 2 2.7.24 3.97-2 .92-1.95-2.14-3.54-1.77-1.22 1.22-2.32 2.63-4.15 2.2-.8-.67-1.4-1.34-1.1-2.44 1.53-3.42 8 .5 6.1-4.83-.738-1.092-1.6-.6-2.63-.422-2.32-.8-4.52-2.5-7.262-1.77-2.38.92-4.22 3.413-6.78 3.963l-.92-.85c-2.38.73-4.452 2.75-7.202 1.95-1.53-2.26-2.2-5.612-5.5-5.74-1.642.618-3.24-.12-4.882-.18.67 1.34 0 3.1-1.53 3.48-1.53.5-2.5-.67-3.3-1.522-.12-.98 1.4-1.778.25-2.63-2.08.55-4.28.06-5.92-1.1-2.26 2.02 1.763 5.3-1.77 6.35-3.3 1.28-3.8-4.9-7.03-1.7-1.7-.972-4.452-.37-5.3-2.44-.06-.6.3-1.65 1.1-2.2 2.63-.67 3.85 1.95 6.17 1.95.6-1.1-.92-2.14-1.53-2.802.92-1.4 2.7-2.26 4.4-1.6 1.6 1.65 3.48-.12 5.062-.618 4.22-1.823 7.76 2.63 11.42-.482 4.52-2 9.7 4.2 12.272-1.1-.06-.98.5-2.2-.603-2.8-1.1.06-2.08-.12-2.87-.67-.5-1.4.67-1.95 1.522-2.44 2.57-.5 4.76 1.95 7.02.24 1.288-.24 3.12.55 3.73-.67.3-1.04-.67-1.95-1.28-2.2-4.77-.362-9.04-.3-13.62.25-2.02 2.072-5.13-.5-7.27 1.28-2.863.25-6.162-.8-8.12 1.77-3.782 1.1-7.202-1.1-11.232-.67-.43 1.16-1.77 1.642-2.87 1.1-1.1-.67-2.2-1.4-3.73-1.1-.542 1.522-.3 3.42-2.44 3.72.12 1.04-.972 1.7-1.522 2.2-2.02.6-5.87-2.38-6.358 1.34 1.65 3.8-2.56 7.33 1.1 10.57 5.07 3.72 10.63 6.343 15.82 9.9 7.27 2.44 15.022 3.72 22.412 5.92 3.72-.18 8.483 1.65 12.1-.85.8-.068 1.77-.068 2 .85-.12.98-1.28 2-.24 2.87 1.65-.3 2.93.37 4.15 1.1 3.42 1.4 8.12.55 10.562 3.3.37 1.16-1.22 1.032-1.522 1.28-3.36-1.1-6.96-1.4-10.32-1.95-.188-2.2-2.2-.43-3.3-.678-4.03 1.96-4.03 6.35-5.07 9.9-1.04.912-3.3-.128-3.54 1.763.3 1.7 2.75 2.63 2.87 4.158-.92.482-1.95.73-1.95 2-.37 2.448 3.85 2.14 2.622 4.83-1.04 1.522-3.782.422-3.97 2.622.188 2.93 5.25 3.85 3.54 7.27-.55.6-1.092 1.1-2 .85-.12-.43-.5-.73-.86-1.1-2.132.6-4.693-.67-6.592 1.77-.8-.06-1.9 1.16-2.44-.18-.188-3.1 5.492-2.44 4.2-5.982-.972-.8-2.32-.738-3.1-1.96.06-.85.67-1.9 1.77-2.192 1.522.362 2.93-.37 3.292-1.778 1.1-.8-.06-2-.85-2.38-1.1-.24-2.44-.24-2.87-1.582 0-.8.55-1.838 1.53-1.718.37.25.85.188 1.34.188.12-.43.6-.73.43-1.28-1.16-2.44-5.86 1.28-4.158-2.87.43-.6 2.08-.738 1.288-1.77-.6-1.53-2.8.3-3.06-1.53-.362-1.04.5-1.6 1.1-2.2 1.7.06 3.97.06 5.5-1.1.98-1.153 1.4-2.57.85-3.97-.362-.55-1.46-1.77-2.2-.67l-2.192 2.02c-2.02-.8-.92-2.63 0-3.8.5-.5 1.34-1.04.67-1.7-.85-1.28-3.06-.3-4.4-.92-2.56-.24-4.392-3-7.262-1.95-1.96-.12-3 1.65-3.97 3.06.5 1.65-.6 3-1.95 3.54-.86.12-1.657.24-2.2 1.092-.25 1.288 1.34 2.7.67 4.15-1.348 0-1.96 1.6-1.348 2.63 2.2 2.2-1.522 4.4.678 6.6 1.28 1.83.24 4.573.85 6.592.73 1.6 3.36 2.08 2.7 4.2-3.72 3.12 2.38 5.44 2.2 8.8 2.5 1.4 5.25 2.742 8.302 2.192.86 2.8-2.75 4.83-4.158 7.27-.972 2.682 3.8 5.92.25 8.302-.8 3.12 2.63.3 3.3 2.448-2.87-.06-.6 3.172-2.2 4.15-1.4 2.622 2.57 3.292 1.1 6 0 1.34-1.04 2 0 3.292-.92 2.5-1.16 4.46-.5 6.78 1.83 2.56 4.82 3.66 7.27 4.64 1.16 1.9 3.352 3.24 5.74 3.292 1.83-.3 3.66-1.28 5.492-.912 1.34 3.48 5.982 2 7.27 5.74 2.8 3.3 2.26 8.6 7.02 10.562 2.682-.912.12-3.97 2.2-5.3 1.46 2.32 2.26 5.25 4.392 6.84 1.65-.06 3.85.3 4.4-1.53m-30.1-6.418c.37-.98-.6-1.34-.67-2.2.362-1.16.362-2.93-.92-3.48-.92.92-2.682 0-3.48.67.55.67 1.04 1.22 1.1 2.2-.6.67-1.6 1.47-.912 2.38 1.642.188 3.6 2.63 4.882.43m38.655-8.306c1.22-4.9-4.76-4.95-5.07-9.04-1.22-1.16-3.3.5-4.58-.422-.912.972-.18 3.36.188 4.82 1.7 2.26 5.062-.73 5.3 3.3.912 1.1 2.75 3.54 4.15 1.34m89.46-11.904c-.18-.43-.37-.98-.86-1.28-.972.12-2.63.362-1.95 1.95.5.6.67.6 1.288.86.85 0 1.522-.678 1.522-1.53m-79.14-3.054c.25-2.44-1.22-5.07-1.1-7.5-.5-.3-.67-.3-1.28-.188 1.22 4.22-6.17 5.93-1.348 9.47 1.6.18 3.36-.12 3.73-1.77m20.882-8.612c.3-.738-.43-.86-.85-1.1-.678-.06-1.657 0-1.53.912-.06.5 0 .618.43.86.8.12 1.642-.12 1.95-.67" class="B"/><path d="M345.793 285.46c-.06-.5-.73-.98-1.1-.5-.3-.06-.422.31-.67.5-.18.85.188 1.16.86 1.53.85 0 1.46-.8.912-1.53" class="D"/><path d="M369.548 284.974c.67-.5.31-1.41.43-2.2-1.1-.06-2.2-.79-3.3-.18-.37.67-.98 1.22-1.1 1.95-.31 2.8 3.06 1.28 3.97.43" class="B"/><path d="M322.04 275.996c-.12-.55.24-1.28-.43-1.53-1.6-.3-2.26 1.1-2.863 2.2l-.25 1.28c1.582.31 2.8-.73 3.54-1.95" class="D"/><g class="B"><path d="M387.743 268.058a4.28 4.28 0 0 0-1.1-2.381c-.92.85-2.682.85-3.05 2.192.43 1.65-.86 3.8.24 5.5 2.08-.92 3.97-3.232 3.9-5.3m-190.753-3.727c1.04-.92 1.4-2.14 1.95-3.3-.12-.972-.85-1.95-1.77-2.44-2.26-.24-3.97-1.65-6.162-2.2-1.898.43-3.54-1.153-5.258 0-1.032 1.53 2.388 2.26.25 3.8-2.63-.92-5.8 3.85-7.08-.67-.67-3-3.18-4.46-5.5-6.4.25-.678-.73-1.47.25-1.96h1.77c.12-2.75-2.63-4.392-3.97-6.592-3.12-1.83-1.1-6.17-3.3-8.55-2.2-.3-5.062-3.24-6.592-.912-.43 1.34-.43 3.232-1.96 3.72h-6.4c-.43-.8-.18-1.83.67-2.38 2.02-.738 4.95.85 5.25-2.2-.482-1.9-2.622-3.3-3.48-5.3-.482-.73.25-2.87-1.34-3.05-.67-.06-1.6 0-1.53.85 1.168 2.08-.18 3.3-.67 5.5-2.14 2.622-10.132.67-7.45 6.592 3.67 3.6 1.53 9.033 7.27 11 5 .55 7.142 5.25 11.842 6.592 7.76 7.33 17.83 16.25 29.003 11 1.47-1.34 2.7-1.9 4.22-3.05m206.64-6.35c.3-1.28-.5-2.02-1.34-2.02-.678.6-1.65.86-1.96 1.77-.06 2.08 2.75 1.77 3.3.25M183.548 255.1l2.44-2.622c-.92-1.348-2.8-2.02-4.64-2.02-1.04 1.04-2.622.73-3.97 1.1.73 2.26 2.32 5.07 5.07 5.74 1.7.362.43-1.6 1.1-2.2"/><path d="M196.493 248.942c-.738-1.9-.5-4.46-1.53-5.92.8-2.32-.55-4.882 0-6.84-1.34-3.782-5.733-4.82-8.362-7.88-5.8-4.882-11.48-10.132-17.77-13.86-1.522-1.95-3.172-3.42-5.07-4.392-.972-.12-1.77 1.4-2.622.18-.5-.422 0-1.9-.43-2.63-1.04-2-2.93-2.93-4.4-4.392-4.512-4.4-10.012-7.752-14.96-11l-1.522.24-5.07 5.5c.18 6.343 7.33 8.483 10.75 12.52 14.464 12.392 29.305 21.922 43.965 34.315 2.14 1.9 4.1 3.67 6.592 5zm-9.22-.242c-.73-2.08-3.9-2.87-5.25-5-.92-.8-2.32-1.7-3.12-2.682-2.313-1.288-4.512-3.97-7.02-5-.18 2.14 1.22 3.66 1.348 5.68 3.72 4.2 8.73 6.3 14.042 7.02m227.524-3.498l-.18-1.34c-.67-.98-1.47.18-2.2.24-.85.73-.37 2.02.422 2.63.86-.06 1.898-.6 1.96-1.53m-265.08-15.205c-.43-3.42-2.44-6.47-4.64-8.8.86-1.47-.5-2.57-1.77-2.8-1.96.12-4.46-.3-5.25 1.7.362 3.72 5.552 5.92 3.963 9.9-2.923-2.26-2.802-7.82-7.262-7.45-.5 2 1.7 3.97 2.2 6.17 2.26 1.22 2.87 6.35 6.592 4.4 1.898-1.47 4.7-.557 6.17-3.12"/><path d="M152.527 221.7c-.37-.738-1.46-1.22-2.2-.5-.67.79-.12 1.6 0 2.448l1.348 1.092c1.28-.43 1.22-2.072.85-3.05"/></g><path d="M419 221.465l-.25-1.34c-.603-.25-1.1-.128-1.522.5l.18 1.522c.6 0 1.47.12 1.6-.67" fill="#ccd3dd"/><g class="B"><path d="M286.013 220.6c.37-1.1.37-2.63-.92-3.3-2.26-.37-4.392.912-5.92-1.34l-1.53.24c-.362.98-.422 2.87.86 3.73.5.85 1.9 1.1 2.87.67 1.46-1.9 2.93-.3 4.64 0m45.493-3.786c.55-1.1-.06-2.32-.67-3.3-.8-.67-1.348-.8-2.44-.603-1.898 1.28-2.7 3.413-2.63 5.673 2.2 2.75 3.72-1.4 5.74-1.77m-36.944-10.746c.06-.8.06-1.95-.86-1.95h-.67c-.43.55-.18 1.46-.24 2.192.3.98 1.95.8 1.77-.24m10.738-1.775c-.6-3.232-4.4-3.42-6.78-4.82-1.1.24-2.32 1.04-2.622 2.2-.6 1.83 1.16 2.072 1.95 3.292 2.2 1.4 4.58-1.16 5.92 1.77 1.83.5 1.04-1.9 1.53-2.44"/><path d="M290.835 201.008c-1.22-.5-2.622-.12-2.622 1.34-.18 1.1 1.16.55 1.522 1.288.98-.43 1.718-1.6 1.1-2.63m-58.498.247c.55-4.46-4.82-.6-7.02-2.44-.67 1.6.98 3 1.95 3.963 1.95.128 3.05-1.883 5.07-1.522"/><path d="M273.678 200.337c.912-1.1 2.44-3.42 4.4-2.8-.25-2.87 4.64-2.072 2.87-5.3-.86-1.04-2.32-1.34-3.548-.85-4.332 1.34-7.752.362-12.084-.43-1.96-.18-2.7 2.072-3.73 3.3.55 1.582-.98 3.782-.43 5.673 1.898.8 3.8 3.73 6.35 2.02 1.898-.98 3.8-2.5 6.17-1.6m20.458-1.286c-.37-.55-.06-1.7-1.1-1.522-.8.6-1.28 1.9-.43 2.622.8.3 1.22-.67 1.53-1.1"/><path d="M258.534 197.285c0-2.38-.3-4.942 1.1-6.84-.92-1.28 2.08-2.072.43-3.48-2.75.6-2.448 5-5.93 3.05-.67-.12-.85-.8-.912-1.28.73-.912 2.5-1.16 2.192-2.7.43-1.34-1.4-2.132-2.373-2.802-3.85-.98-6.47 1.34-9.04 3.05-1.47.55-2.7-1.4-3.73.25.55 1.092.8 2.373 0 3.473-2.5.98-5.982-.3-7.933 2.02.422 8.242 11 3.9 16.06 5.92 2.44 3.42 8.422 2.2 10.132-.67m52.52 2.196c-.128-2.93-2.44-5.37-4.64-7.02h-.6c-.3 2.8 2.7 5.002 4.58 7.02z"/></g><g class="D"><path d="M350.614 327.84c-.3-.73-1.28-.43-1.77-.18-1.95 1.582-2.742 4.1-4.15 6.162l.18.43c2.08-2.08 3.9-4.392 5.74-6.4m-12.94.914c1.4-.98 2.44-3.85 4.58-2.2.8.55.37 1.77 0 2.38-.5.43-.8.92-.678 1.6l.25.18c1.28-1.77 3.48-3.352 5.07-4.82v-1.53c-3.1-2.2-5.32-5.2-7.7-7.692-1.65.18-3.473 1.1-4.2 2.622-.18 1.228.5 2.08-.18 3.06 1.46.5 2.7-.98 3.963.67.987 1.6.128 3.172-1.092 4.64-.738.55-1.6.92-2.2 1.77-.3 1.16.3 2.14 1.28 2.63.6-.8.6-1.96.92-3.3m-4.647-1.1c-.98-.8-1.46-2.75-3.05-2.87l-.5.43c.92.98 1.77 3.842 3.54 2.44m-96.47-1.526c0-.86-.55-1.65-1.34-2.02l-.86.25c.25.73.12 1.9 1.1 2.2.43.06.8-.068 1.1-.43m157.36-1.1v-.92c-1.34.12-3.292 0-4.15-1.28.12-1.4-1.1-2.192-1.1-3.54-.55-.06-1.28 0-1.348.67.25 1.83-3 1.77-4.15 2.63 1.718.67 4.28-1.228 4.83 1.34l-.678.6c-1.34.73-3.842.18-4.15 2 3.97-.912 7.518 1.1 10.75-1.522m2.87-2.676c-.06-.24.188-.67-.24-.85-.37-.128-.618.18-.86.422-.55.98 1.1 1.228 1.1.43m-153.88-1.712a1.53 1.53 0 0 0-.67-1.341c-.55-.25-.6.43-.86.67l.188 1.28c.542.06.972-.18 1.34-.6m152.783-1.34v-.67c-.8-.37-1.04.6-.85.92.24-.128.67.18.85-.25m4.397-1.78c-.5-1.04-1.16-.37-1.77 0-.6.67-.6 1.22-.18 2.02.73-.43 2.072-.8 1.95-2.02m8.12-2.87c-1.83.24-3.42 2.02-4.392 3.3 2.072 1.04 3.05-2.26 4.392-3.3m-13.37.916c-.5-.06-.85.06-1.1.43l.6.67a1.06 1.06 0 0 0 .49-1.1m-53.665-4.214c-.24-.43-.73-.5-1.1-.18-.25.85 1.28 1.4 1.1.18m-98.253-2.382c.8-1.16-.37-2.63-1.53-2.63-.6.068-1.6.55-.912 1.288.6.912 1.16 1.65 2.44 1.34m167.744-.913c-.55-.18-.738-1.4-1.53-.6-.18.92 1.16 2 1.53.6m-28.15-1.955c-.92-1.34-1.46-3.66-3.72-3.05-1.53 2 2.072 2.56 2.373 4.15.55-.12.92-.73 1.348-1.1m40.67-2.443c.18-.67-.3-1.34-.86-1.522h-.482c.422.542-.06 2.2 1.34 1.522m-38.226-1.7c-.92-.362-.55-1.65-1.6-1.6-1.53.678.188 1.838.25 2.44.55.5 1.83.128 1.34-.85m-150.4-1.087c-.18-.92-.8-1.28-1.53-1.77-1.092-.25-2.38-.73-3.54-.25-.18.67-1.6 1.4-.18 2.02 1.582-.3 3.9 1.6 5.25 0m10.32-4.642c.25-1.9-1.7-2.682-3.3-1.95.6 1.092 1.34 2.5 2.87 2.802zm144.23-1.952c-.18-.43-.5-.8-.43-1.348-.73.068-1.46.618-1.77 1.348-.12 1.34 1.96 1.28 2.2 0m-137.392-2.02c-.37-.73-1.16-.55-1.77-.86-.37.128-.12.557-.188.86l1.53 1.1c.5 0 .92-.73.43-1.1m153.025-1.767c-1.04 1.032-2.87.98-3.3 2.44 1.1.98 2.2-.73 3.3-1.1zm-170.37.488c.06-.43-.06-1.16-.67-.92h-.67v1.1zm-7.267-1.1c-1.28-1.53-3.42-3.42-5.492-3.1-.43.37-.188 1.032-.25 1.522 1.1 1.53 2.57 1.96 3.97 2.7.55-.5 1.28-.55 1.77-1.1"/><path d="M258.717 287.415c-.06-1.22-1.28-2.08-2.38-2.622-1.7-1.4-4.1-2.5-5.5-4.4l-1.34.18v.92l6.84 7.692c1.28.18 1.7-.98 2.38-1.77m-9.893.243c.3-.73-.422-1.16-.85-1.34h-1.348c-.55.98.86 1.46 1.53 1.77.37.06.5-.3.67-.43m161.148-3.296c-.37-.188-.12-.6-.67-.5-.43-.06-.8.06-1.1.5.06.972 1.273.912 1.77 0m-169.027-.672c.18-1.1-1.04-1.4-1.77-1.522-2.44.362-5.13-2.87-6.84.18.18 3.842 5.13.8 7.02 2.622.92 0 1.16-.67 1.6-1.28m67.893-2.013c-1.522-1.7 3.18-5.07-.67-5.258-1.4 2.328-1.77 5.258-3.48 7.277l.6 1.092c1.7-.24 3.232-1.28 3.54-3.1m-84.38 2.012c.5-2.02-2.75-2.44-2.87-4.392-1.22-1.47-3.1-1.898-4.82-1.348-1.22.43-.98 1.28-.678 2.2 4.098-1.1 4.4 4.82 8.37 3.54m78.638-5.312c0-.3.37-.5.25-.85-.86-.618-2.878.43-2.878-1.348.068-.8.068-1.77-.85-1.95-.85.37-1.95.972-2.2 1.77 1.16 2.56-1.28 3.97-.43 6.162 2.93-.482 2.8-4.204 6.1-3.782m111.948.243c-.67-.24-.43-1.28-1.34-.86-.5 1.04-1.778 2.02-1.1 3.3 1.9 1.53 3.42-.3 2.44-2.44"/><path d="M362.465 279.723v-1.34c-3.05 1.16-3.54-3.06-6.102-1.1-.678 1.032-1.597 2.44-.678 3.54 2.26-.37 4.83-.068 6.78-1.1m-82.865-.858c.43-.85.12-1.77-.43-2.44-.482 0-1.04-.12-1.34.422 1.032 2.02-2.38 1.838-.85 3.73 1.34.6 2.26-.85 2.622-1.7m-32.547.173c.3-1.16-1.1-1.1-1.53-1.96-.67.188-1.9-.482-1.95.678-.25 2 2.8 3.05 3.48 1.28m12.345-1.098c.18-.85-.25-1.47-.86-1.95-1.34.3-1.9.972-2.87 1.95.25 2.5 3.06.98 3.73 0m-30.36-.672c.12-.6-.86-.55-1.28-.85l-.5.422c.37.3 1.22 1.6 1.77.43m58.692-3.9c.8-1.4-.43-2.5-.6-3.8-.37-.43-.8-.67-1.34-.6-1.288 2.2.43 5.62-2.63 7.02-.18.86.85.8 1.28 1.107 2.08-.128 2.75-2.207 3.3-3.73m-18.88 2.19c-.12-1.65-2.682-1.22-2.2-3.3-1.34-.73-3.05.25-4.392.86-.24.8-.55 1.4 0 2.2 1.77.8 2-1.4 3.48-.678.3 1.348 2.38 2.63 3.1.92m-23.995-1.6c.12-.6-.738-1.22-1.1-1.28.06 1.1-1.9 1.16-.86 2.38.92.3 1.65-.362 1.96-1.1m118.707-1.282c-.8-.43-2.26-.24-2.38.67-.18.67.85.43 1.1 1.1 1.1.06 1.65-.98 1.28-1.77m-142.4-1.525c.18-.738-.3-1.34-.92-1.6-.362.3-1.04.3-1.1.92.3.67 1.348 1.65 2.02.67"/><path d="M300.484 269.83c-.85-.98-2.5-1.77-3.97-1.1-.5.24-.55.972-.18 1.34.972 1.53 4.1 1.838 4.15-.24m-58.254 0c.06-.55 0-1.65-.67-2.2-1.6-.24-.55 1.77-1.28 2.44-.128 2.14 1.77.55 1.95-.24"/><path d="M375.043 270.5c-.24-1.1-1.7-1.1-2.44-2h-1.53c-.8.972.37 1.83 1.107 2.192.783.3 2.132.5 2.863-.18m-138.066-.92c-.3-2.93-3.54-1.6-5.3-2.38-.3.12-.3.73 0 .85 1.1 1.6 3.42.738 4.2 2.63.67 0 1.04-.37 1.1-1.1"/><path d="M354.77 268.73c-.3-.67-.6-.92-1.28-1.1-.6.12-1.28.362-1.34 1.1-.12 1.77 3.05 1.6 2.622 0m-23.512-.672c-.12-.37-.92-.67-1.28-.188-.5.497-.5.98 0 1.53 1.032.18 1.032-.6 1.28-1.34m-22.166-.858l-.67-1.34c-.67.18-1.288.5-1.77 1.1-.18.73.24 1.22.85 1.34.738-.18 1.1-.5 1.6-1.1m61.54-2.014c-.5-1.34-1.95-.12-2.863-.18-.8.5-2.328 1.65-1.1 2.622 1.703.12 3.05-1.04 3.963-2.44m-26.375.668c.3-2.622-3.488-2.2-3.8-4.82.188-1.53-.55-2.7-1.522-3.73-1.22-.362-2 .43-1.96 1.288 1.1 2 .188 5.733 3.3 5.98.73 1.28 3.05 3.36 3.97 1.28m6.346.248c-.3-.3-.18-1.16-.85-.92-.55-.12-.98.25-1.1.67.06.987 1.83 1.348 1.95.25m27.73-2.627c0-.37-.06-1.28.18-1.77.55-.12.92-.73 1.34-1.1.068-.86-.67-1.83-1.522-1.1-.6 1.77-3.72 1.22-2.878 3.73.557 1.153 2.388 1.582 2.878.24M214.078 263c.37-.6-.5-1.1-.85-1.53-.5 0-1.04-.12-1.348.43.12.972 1.348 1.77 2.2 1.1"/><path d="M255.847 262.56c.18-.55.8-.6.67-1.28-1.6-.55-3.3-.3-4.82-1.34-1.28-.188-2.26.3-3.3.663-.43.43-.12 1.168-.24 1.778 1.83 1.83 4.03-.86 5.98.6zm-23.084-1.525c.06-.55-.18-.98-.6-1.34-.85.06-2-.188-2.2.912.188 1.53 2.32 2.02 2.8.43m138.983-1.527c-1.4-.12-2.32-1.47-3.8-1.53-.8.98-2.682 2.08-1.703 3.3 1.763-1.4 5.062 1.1 5.492-1.77m-107.96 1.096c-.3-.73-.912-.482-1.53-.24v.67c.557-.12 1.228.24 1.53-.43"/><path d="M260.916 258.593c.12-2.682 3.66-.12 4.64-2.2-.8-1.34-2.682-1.032-4.2-1.1-1.168.67-.55 2.5-1.96 2.7-.73 0-1.582-1.04-2.2 0-.173.98.188 1.6 1.1 1.7 1.1.18 2.388-.06 2.63-1.1m8.366-.418c-.18-.92-.37-1.83-1.53-1.77-.73.06-1.522.85-1.522 1.6-.188.6.12 1.1.6 1.522 1.04 0 2.072-.3 2.44-1.34m61.808-1.783c-.3-.67-1.04-.3-1.6-.43-.43.6-.912 1.47-.43 2.2 1.348 2.32 2.998-.37 2.02-1.77m53.624-2.38c.18-.55-.5-.98-.86-1.1-3-.912-3.42 2.75-6.162 2.38-.5 1.22.98.678 1.28 1.34 2.14 0 4.58-.73 5.74-2.622"/><path d="M370.158 251.814c-.06-.55-.24-1.22-.85-1.34-.8.24-2.2.55-2.87-.188-1.47-.67-.618-3.05-2.63-2.682-.73.972-.5 3.54-.25 5.062 1.04.92 1.288 2.388 2.448 3.12 2.38-.43 2.63-2.63 4.15-3.97m21.13 3.724c.18-.738-.25-1.22-.85-1.34-.92.3-.738.85-.497 1.582zm-142.9-2.628c-.85-.6-2.2-1.04-3.3-1.522-.43.12-.73.482-1.1.85a2.13 2.13 0 0 0 1.348 1.951c1.22.12 2.56 0 3.05-1.28m-6.593-2.194c-1.04-.06-2.2-.06-2.622.85-.128 2.02 4.023 1.1 2.622-.85"/><path d="M378.343 251.996c-1.04-2.26 1.6-3.18 2.802-4.58l2.878-1.1c1.1.55 1.22 3.66 3.292 2.2 1.47-.85 2.26-2.32 2.63-3.73-.67-1.95-1.47.8-2.63.188-.73.18-1.032 1.4-1.95 1.1-.5-1.47-1.4-3.54-3.54-2.38-2.5 1.34-4.882 2.87-7.692 3.48-.738.67-.497 2.072-.188 2.87.6 1.65 2.93 3.292 4.4 1.95m-75.245-1.097c.3-1.04-.912-1.22-1.522-1.522-.86.422-1.7.85-1.778 2 .8 1.47 2.87.98 3.3-.5m23.763.685c.128-.67-.12-1.16-.67-1.522-.5 0-1.04-.128-1.28.422-.128.8.12 1.6.85 1.77.55.25.73-.422 1.1-.67m64.67-.673l-.25-.85c-1.28-.068-2.622-.068-3.54.85.37 2.02 2.938 1.04 3.8 0M295 250.47c.43-.3.18-.85.25-1.28-.5-.55-1.228-.92-1.77-.25v2.448c.73.12 1.34-.3 1.522-.92m-60.456-1.768V247c-.67-.6-1.4.06-1.96.43.37 1.16-1.46 1.9-.24 2.87.98-.068 1.77-.738 2.2-1.6"/><path d="M260.487 247.42c-.98-1.1-1.9.422-2.87.67-.24.5-.5 1.6.25 1.95 1.34-.5 2.5-1.34 2.622-2.622m52.333-.418c-.67-.5-1.47-.12-2.02.43-.06.8.06 1.65.67 1.95h1.348zm-146.19 1.1c-.912-.67-1.34-1.77-1.77-2.44-1.4-.25-4.03-.8-4.15 1.34.542 1.95 3.42 1.28 5.25 1.7zm229.05-4.652c.3-.738-.6-.55-.85-.85-1.7-.188-1.838 1.34-2 2.622.053 1.16-1.288.8-1.785 1.53.128.67.86 1.77 1.785 1.34 1.642-1.6 1.394-3.24 2.863-4.64m-187.714-.002c.3-.8-.55-.8-.912-1.1-.8-.24-1.47.67-1.53 1.34-.18 1.838 2.44 1.228 2.44-.24m155.408-.672c-1.4-1.83-3.72-4.27-6.592-3.97-.738.86-1.4 1.65-1.1 2.87 1.46.362 3.24.98 3.72 2.87 1.1-1.032 3.488.43 3.97-1.77m41.528-1.1c.6-.6 0-2.08-1.1-1.522-1.1-.43-.85 1.04-1.77 1.1-.85-.06-2.14-.06-2.192 1.092l.663 1.96c2.08.12 2.14-2.75 4.4-2.63m-27.052.92l.24-1.34c-1.04-.738-1.83.422-2.863.422-.37.5-.497 1.1-.43 1.778.912 1.46 2.56.173 3.05-.86m-141.544-.247v-.67c-1.53.73-4.46-1.6-5.07 1.1.738 1.83 3.12.3 4.64.43zm78.71-1.525c-.18-.55-.55-1.16-1.1-1.348-.55.3-1.16.25-1.522.927-.24.85.362.972.85 1.522.67-.12 1.83-.06 1.77-1.1m-21.125.183a1.13 1.13 0 0 0-.422-1.1l-1.53.25c-.06 1.032 1.4 2.32 1.95.85m8.122.487c.3-1.9.55-2.682-.18-4.392-1.1-.25-2.08-1.04-2.63-2.02-.362-1.47 0-3.73-2-3.97-1.6-.67-1.34 1.16-1.96 1.77.5 1.04-.6 1.9.67 2.87 2.268 1.1 4.03 3.36 5.258 5.74zm-60.88-5.74c.3-.6-.43-.6-.67-.85-1.95-.618-2.26 1.642-3.3 2.622l.67 1.95c3 .5 1.16-3.1 3.3-3.72m170.185 2.623c-.912-.738.06-2.87-1.77-2.622-.6-.188-.98.3-1.34.663-.3 1.348.422 2.5 1.522 3.06 1.04.37 1.6-.55 1.6-1.1m-21.385-.67c.37-3.24-3.12-.06-3.902-2.8-.678.12-1.6-.37-2.02.422-.12 2.14 2.32 2.817 3.72 3.488.98.24 1.9-.188 2.2-1.1m-24.177-.622c.482-1.04-.6-1.46-1.28-1.6-1.47.67-2.5-.972-2.63-1.95.06-1.22.25-2.5.86-3.3-.5-.73-1.6-.5-2.2-.24-1.6 1.47-2.14 3.66-1.53 5.74.8 2.742 3.9 1.763 6.17 1.95zm-72.973-1.343c.24-.85-.37-.92-.67-1.34-.67-.068-1.838.5-1.1 1.34.3.8 1.7 1.032 1.77 0m-65.948-2.445c-.12-.362-.55-.12-.85-.18-.678.85-.618 1.65-.25 2.622 1.04-.362.73-1.582 1.1-2.44"/><path d="M235.635 233.128c.37-.8-.55-1.032-.86-1.53-1.1 0-1.46 1.47-2.192 2.2l.18 1.288c1.7.783 2.2-1.4 2.87-1.96m142.465.002c0-.738.18-1.6-.67-2-1.228.18-2.448.362-3.3 1.582-.3 1.228.73 1.348 1.34 2.2 1.34.55 1.96-1.1 2.63-1.77m-55.63.425l-.67-1.1c-.92.12-1.4.92-.85 1.77.482.43 1.703.18 1.522-.67m-8.368-2.44c-.67-2.2-4.34-.55-5.25-3.05-.25-1.53-1.1-3.18-2.622-3.73-1.228-.24-1.228 1.16-1.778 1.77 1.6 2.448 4.27 3.42 5.74 6.35 1.28.86 3.73.43 3.9-1.34"/><path d="M413.27 231.115c.128-.5.73-.86 1.1-1.28.3-2.388-2.38-2.14-3.72-2.87-.8-.068-1.228.85-1.1 1.522-.188 1.47-3.67 1.9-2.02 3.72 2.02-.67 3.66-1.333 5.74-1.092m-39.142-1.955c.85-1.16 2.5-.37 3.3-1.53-1.6-3-3.85-5.74-4.83-9.033-1.4-.37-3.36.12-3.963-1.77-1.96.6-2.328-2.8-4.4-1.7.8 2.44 4.27 3 4.633 5.92 4.098 2.87 3.12 6.4 3.488 10.562 1.6-.12.8-1.53 1.77-2.44m-79.992-.01c-.6.12-1.47-.37-1.77.43.37.67.92 1.04 1.77.912zm-40.24-.243c-1.9-.738-.6-5.62-3.3-3.3-.67 1.1.3 2.38.43 3.54.43 1.53 2.44.8 2.87-.24"/><path d="M318.07 225.863c-.98-2.14 1.348-5.74-1.95-6.84-1.1-.128-2.5.06-2.63 1.348.618 2.072-2.682 1.22-2.2 3.292 2.14-.43 3.18 1.4 4.158 2.87.85-.24 2.38.55 2.622-.67m32.306-1.953c-.43-.37.06-1.1-.6-1.34-.8.3-1.7.18-2.2 1.092l.188 1.348c.972-.25 2.373-.188 2.622-1.1m-101.133-.9c.06-.8.12-1.95-.85-1.95-.98-.25-1.47.972-1.96 1.28 0 .73-.12 1.53.43 2 1.28.3 1.83-.422 2.38-1.34m46.407 0c.5-.55.06-1.28-.422-1.77-1.04-.18-2.26.8-1.53 1.77.24.92 1.9 1.04 1.95 0"/><path d="M384.02 221.222v-.6c-.8-.6-2.7-.06-1.96 1.1.678.43 1.718.6 1.96-.5m28.82-2.8c-.55-.06-.972.18-1.34.6.24.55 0 2.26 1.34 2.2.98-.8 0-1.9 0-2.8m-101.8 1.282c-.06-2.132-2.87-1.16-4.158-1.1-.234.362-.912.55-.663 1.1 1.032 1.16 3.352.6 4.392.43zm78.466-1.956c-.06-.972-1.1-.6-1.77-.67-.55.67-.8 1.53 0 2.2 1.1.5 1.46-.92 1.77-1.53"/><path d="M382.064 217.314c.25-1.96-1.46-4.15-.24-6.17-.43-.972-1.4-.55-2.2-.67-1.7-.67-1.65-2.87-3.72-2.622-.437 2.802 2.44 4.82 2.622 7.692.73 1.22 1.95 2.14 3.54 1.77M410.644 212c-.43-.738-.8-2.08-2.02-1.95-1.77.67-.912 3.232-2.622 4.392.18 1.16-.362 1.778.43 2.63 2.682 0 3.05-3.3 4.2-5.07m-71.444-1.102c-.24-.37-.73-.12-1.092-.18-1.107.73.06 1.6.67 2.2.603-.3.85-1.4.422-2.02m-97.395 0c.06-.738.06-2.08-1.1-1.77-.98-.43-.86.738-1.34 1.1 0 1.34 1.763 1.4 2.44.67m-22.657-4.395c.3-.8-.37-1.22-.86-1.77-1.092.06-2.5-.24-2.863 1.1.73 1.28 2.8 2.38 3.72.67M244 204.55c-.67-1.9-2.38-.128-3.73-.67l-.912.85c.5 1.65 2.38 1.47 3.54 1.1.25-.67.6-.73 1.1-1.28m-35.414 0l-1.7-2.44c-.8.603-1.53 1.522-.912 2.44.482.98 2.192.98 2.622 0m46.826-9.707c0-.55.37-.92.24-1.53-1.642-1.16-3.66 1.4-5.3-.43-.972-.3-1.95.43-2.192 1.1.12 2.38 3.1.8 4.2 2.2 1.34.37 2.38-.5 3.05-1.34"/></g><path d="M278.745 186.72c.67.3 1.1-.43 1.28-.86.25-1.28-2.01-1.28-3.05-.912-1.4 2.32-5.68-.06-6.35 2.87 1.47 1.7 3.79-.5 5.68.24z" class="B"/><g class="C"><use xlink:href="#B"/><use xlink:href="#B" x="57.132"/></g><path d="M32.853 386.23c43.947.786 71.04 21.115 71.04 21.115l.85.64-1.203 54.898-3.668-5.65c-2.283-3.516-8.927-7.717-17.568-11.404s-19.236-7.052-29.494-9.877c-20.516-5.65-39.666-9.162-39.666-9.162l-5.74-1.05 5.115-2.81c11.348-6.23 17.063-10.128 19.844-12.367.954-.768 1.206-1.083 1.572-1.47-9.03-10.678-21.7-18.018-21.7-18.018l-5.562-3.137 6.344-.734c6.936-.802 13.558-1.087 19.836-.975z" class="B"/><path d="M32.773 390.365c-4.275-.072-8.775.132-13.377.48 4.85 3.155 12.162 8.364 18.926 16.867l.535.672-.096.852s-.047.28-.1.42-.098.276-.166.416c-.136.28-.32.572-.588.912-.534.68-1.4 1.56-2.95 2.81-2.554 2.057-7.832 5.478-15.707 10.002 5.936 1.16 18.47 3.697 34.654 8.154 10.365 2.855 21.092 6.25 30.02 10.06 6.432 2.745 11.89 5.623 15.717 8.922l.895-40.81c-1.965-1.434-26.8-19.07-67.772-19.756z" class="C"/><path d="M100.544 410.12l-21.347 11.762" fill="none" stroke="#fff" class="E"/><path d="M529.424 386.23c-43.947.786-71.04 21.115-71.04 21.115l-.85.64 1.203 54.898 3.668-5.65c2.283-3.516 8.927-7.717 17.568-11.404s19.236-7.052 29.494-9.877c20.516-5.65 39.666-9.162 39.666-9.162l5.74-1.05-5.115-2.81c-11.348-6.23-17.063-10.128-19.844-12.367-.954-.768-1.206-1.083-1.572-1.47 9.03-10.678 21.7-18.018 21.7-18.018l5.563-3.137-6.344-.734c-6.936-.802-13.558-1.087-19.836-.975z" class="B"/><path d="M529.504 390.365c4.275-.072 8.775.132 13.377.48-4.85 3.155-12.162 8.364-18.926 16.867l-.535.672.096.852s.047.28.1.42.098.276.166.416c.136.28.32.572.588.912.534.68 1.4 1.56 2.95 2.81 2.554 2.057 7.832 5.478 15.707 10.002-5.936 1.16-18.47 3.697-34.654 8.154-10.365 2.855-21.092 6.25-30.02 10.06-6.432 2.745-11.89 5.623-15.717 8.922l-.895-40.81c1.965-1.434 26.8-19.07 67.772-19.756z" class="C"/><path d="M461.732 410.12l19.714 11.036" fill="none" stroke="#fff" class="E"/><path d="M482.354 419.252l-2.77.986s-151.197 53.88-398.855-.072l-2.518-.55v61.066l1.527.418s211.937 58.164 401.15-.018l1.467-.45v-61.38z" class="B"/><path d="M82.36 424.715c234.845 50.6 381.748 5 395.84.31v52.516c-183.473 55.796-387.587 2.155-395.84-.057v-52.768z" class="C"/><path d="M103.634 465.472a11.53 11.53 0 0 1-2.966-.424l-2.978-.87-2.307-.683-2.86-.8c.92-2.8 1.924-6.183 3.002-10.123 1.175-4.28 2.114-8.024 2.837-11.218l4.614 1.26-2.4 8.087c.218.036.587.124 1.106.26 2.817.776 5.022 2.048 6.627 3.826 1.597 1.778 2.046 3.978 1.33 6.592-.527 1.913-1.632 3.134-3.32 3.684-.844.275-1.742.406-2.684.4zm-1.507-3.578c1.867.042 3.04-.815 3.52-2.566.693-2.53-.95-4.346-4.944-5.438-.362-.098-.675-.17-.953-.224-.716 2.614-1.42 4.934-2.107 6.968a13.5 13.5 0 0 0 2.389.918c.776.213 1.473.328 2.095.34zm21.013 8.486c-1-.012-2.126-.158-3.4-.46l-4.98-1.293-2.86-.683c.82-2.795 1.7-6.202 2.66-10.217 1.002-4.18 1.824-7.94 2.472-11.3l4.6 1.083a273.97 273.97 0 0 0-2.189 8.546l1.836.46c1.522.362 2.733.165 3.637-.6.896-.753 2.454-2.92 4.66-6.52l4.897 1.165c-2.328 3.465-4.086 5.8-5.262 7.04-1.183 1.228-2.36 1.862-3.543 1.907l-.06.247c2.63 1.77 3.6 4.02 2.954 6.768-.616 2.593-2.427 3.878-5.426 3.85zm-1.613-3.555c1.687-.036 2.73-.875 3.12-2.52.58-2.433-.888-4.072-4.4-4.9-.422-.105-.932-.213-1.542-.34-.655 2.75-1.25 4.96-1.777 6.64.76.347 1.652.646 2.684.895.706.168 1.345.246 1.907.236zm19.573-11.34l-1.446 6.298 7.473 1.38-.723 3.48L139 464.91l-1.296 5.424 9.108 1.62-.573 3.676-13.515-2.802c.738-2.817 1.522-6.253 2.365-10.3.874-4.204 1.582-8 2.132-11.383l14.163 2.946-.625 3.7c-3.398-.904-6.622-1.672-9.658-2.305m24.516 12.12c-1.115.746-2.697 1.333-4.746 1.755-1.92.4-3.194.746-3.804 1.047-.693.362-1.115.912-1.25 1.657-.256 1.4.927 2.35 3.563 2.825 1.748.324 3.428.347 5.032.075l-.06 3.827c-1.552.098-3.42-.053-5.605-.452-2.667-.5-4.6-1.4-5.83-2.742-1.22-1.348-1.657-2.976-1.3-4.9.3-1.65 1.1-2.946 2.388-3.872 1.017-.73 2.478-1.318 4.377-1.755 2.094-.467 3.503-.896 4.234-1.296.844-.444 1.34-1.092 1.492-1.936.15-.82-.136-1.47-.85-1.96s-1.966-.896-3.752-1.22c-1.605-.294-3.367-.294-5.288 0l-.136-3.88c1.92-.173 3.947-.068 6.08.316 6.26 1.145 8.995 3.902 8.196 8.257-.33 1.823-1.235 3.232-2.727 4.24m2.173 11.99l.437-3.646 6.456 1.288 1.175-7.06c.64-4.068 1.168-7.887 1.582-11.473l4.7.738c-.686 3.578-1.348 7.375-1.98 11.406l-1.077 7.074c1.98.316 4.106.565 6.373.746l-.452 3.63zm32.692 5.022c-.698.042-1.412.024-2.154-.07-3.12-.385-5.597-1.852-7.427-4.4-1.83-2.53-2.532-5.52-2.095-8.97.4-3.217 1.723-5.742 4-7.58 2.26-1.838 4.87-2.578 7.84-2.2 3.1.384 5.585 1.848 7.416 4.38 1.83 2.54 2.536 5.523 2.107 8.98-.4 3.224-1.73 5.762-4 7.592-1.695 1.373-3.592 2.124-5.685 2.26zm-2.154-3.8c1.763.218 3.334-.325 4.72-1.636s2.225-3.147 2.52-5.497c.28-2.237-.067-4.172-1.024-5.8-.964-1.62-2.277-2.527-3.92-2.73-1.755-.218-3.322.33-4.708 1.648-1.394 1.3-2.244 3.142-2.53 5.485-.286 2.245.06 4.172 1.024 5.8.964 1.612 2.277 2.52 3.92 2.73zm33.812-3.842c-.392 4.2-.648 7.722-.753 10.532l-4.234-.4a192.65 192.65 0 0 0 1.13-9.387c.188-1.996.535-4.24 1.047-6.727l-.256-.023c-.588 1.537-2.576 4.377-5.966 8.535-3.18 3.9-4.8 6.162-4.86 6.757l-5.025-.475c.444-2.87.86-6.366 1.25-10.486a230.34 230.34 0 0 0 .836-11.55l4.166.4-1.205 10.163c-.188 1.996-.535 4.22-1.055 6.66l.27.03c.6-1.672 2.765-4.686 6.456-9.04 3.518-4.128 5.303-6.418 5.35-6.886l4.18.4c-.482 3.42-.927 7.255-1.333 11.496m31.2 1.778c-.196 4.226-.286 7.744-.256 10.562l-4.24-.203a181.59 181.59 0 0 0 .67-9.424c.098-2.004.34-4.264.723-6.773l-.256-.015c-.512 1.567-2.358 4.505-5.545 8.814-3 4.06-4.497 6.388-4.528 7l-5.04-.234c.3-2.893.55-6.403.738-10.54.196-4.196.294-8.053.286-11.57l4.173.188c-.347 4.015-.58 7.42-.708 10.215-.098 2.004-.34 4.24-.738 6.705l.27.015c.535-1.703 2.54-4.814 6.012-9.34 3.322-4.294 4.987-6.667 5-7.134l4.196.196c-.316 3.443-.573 7.292-.768 11.55m15.374 11.407c-3.14-.03-5.754-1.207-7.863-3.52-2.102-2.313-3.133-5.207-3.096-8.687.037-3.24 1.074-5.9 3.108-7.98 2.042-2.08 4.566-3.098 7.557-3.06 3.14.03 5.76 1.207 7.863 3.52 2.1 2.313 3.145 5.202 3.108 8.675-.037 3.254-1.078 5.933-3.12 8.004s-4.566 3.086-7.557 3.05zm-.412-3.684c1.778.024 3.292-.704 4.52-2.166 1.228-1.454 1.853-3.37 1.883-5.744.022-2.252-.546-4.127-1.683-5.626-1.138-1.507-2.53-2.27-4.18-2.284-1.77-.024-3.273.697-4.508 2.166-1.235 1.46-1.873 3.374-1.895 5.732-.03 2.268.526 4.14 1.67 5.638 1.138 1.5 2.533 2.26 4.2 2.284zm15.41 3.26c.1-2.915.087-6.438.012-10.558l-.447-11.57 4.72-.094a245.96 245.96 0 0 0 .024 8.828l1.883-.024c1.567-.03 2.693-.522 3.378-1.47.678-.957 1.637-3.46 2.872-7.498l5.038-.106c-1.386 3.94-2.495 6.66-3.33 8.145s-1.817 2.392-2.954 2.73l.012.26c2.983 1.055 4.503 2.986 4.555 5.803.075 3.556-2.488 5.392-7.686 5.497-.92.024-1.917.012-3.002 0-1.085-.006-1.792 0-2.13 0l-2.943.06zm7.12-3.26c2.9-.054 4.342-1.208 4.296-3.46-.053-2.5-1.877-3.717-5.485-3.65l-1.577.06c.053 2.825.03 5.12-.06 6.874.82.143 1.763.2 2.825.177zm12.412 2.844l-.33-3.66 6.577-.075-.3-7.15c-.2-4.113-.497-7.963-.83-11.55l4.746-.256a352.11 352.11 0 0 0 .429 11.571l.414 7.15c2.004-.113 4.128-.3 6.388-.595l.3 3.64zm37.524-13.1c.34 4.143.7 7.646 1.092 10.502l-4.8.392-.512-8.83-8.6.693a206.6 206.6 0 0 0 .92 8.8l-4.8.384c-.1-3.013-.3-6.53-.625-10.54-.324-3.963-.708-7.805-1.16-11.52l4.8-.392.618 9.74 8.535-.693c-.218-2.742-.535-5.98-.957-9.7l4.8-.384c.113 3.375.347 7.232.693 11.556m16.758-10.154l.723 6.418 7.503-1.175.475 3.526-7.556.814.565 5.552 9.13-1.492.686 3.66-13.688 1.83c-.24-2.908-.633-6.403-1.175-10.494-.573-4.256-1.153-8.076-1.755-11.443l14.344-1.913.625 3.684c-3.503.28-6.795.618-9.876 1.032m32.754 3.196c.693 4.166 1.34 7.624 1.96 10.373l-4.2.693a206.32 206.32 0 0 0-1.311-9.364c-.33-1.974-.565-4.234-.716-6.773l-.25.045c-.173 1.635-1.37 4.9-3.578 9.77-2.08 4.595-3.066 7.194-2.968 7.782l-4.987.83c-.3-2.893-.8-6.373-1.47-10.456-.686-4.15-1.4-7.94-2.147-11.383l4.128-.678c.497 3.993.98 7.368 1.44 10.132.324 1.98.55 4.2.678 6.712l.27-.045c.166-1.778 1.477-5.236 3.932-10.4 2.343-4.9 3.48-7.57 3.405-8.023l4.143-.686c.407 3.435.957 7.255 1.657 11.458m7.666 9.238c-.452-2.885-1.098-6.344-1.942-10.382-.874-4.204-1.734-7.974-2.578-11.288 2.855-.738 5.102-1.266 6.745-1.613 3.64-.76 6.72-.175 9.228 1.754 2.5 1.936 4.088 4.48 4.744 7.628.588 2.795.193 5.372-1.2 7.745-1.386 2.373-4.08 3.978-8.087 4.814-.286.06-.9.175-1.86.34l-2.13.388-2.92.612zm3.543-4.26a18.1 18.1 0 0 0 1.989-.271c2.554-.527 4.292-1.65 5.226-3.366.942-1.718 1.198-3.648.753-5.78s-1.4-3.814-2.86-5.05c-1.454-1.243-3.375-1.623-5.756-1.118-.723.143-1.426.377-2.12.67.43 2.63.92 5.27 1.47 7.922.505 2.418.94 4.747 1.295 6.992zm26.862-2.58c-.603-2.855-1.43-6.275-2.478-10.26-1.1-4.158-2.155-7.865-3.172-11.134l4.535-1.205a232.8 232.8 0 0 0 2.162 8.784c2.08-.55 4.467-1.235 7.157-2.05l.896 3.405c-2.712.595-5.123 1.175-7.24 1.733a86.26 86.26 0 0 1 1.431 6.29 197.23 197.23 0 0 0 9.22-2.72l1.092 3.563zm22.57-25.96c-2.298.7-3.857 2-4.678 3.872s-.92 3.85-.294 5.884c.603 1.996 1.657 3.526 3.15 4.595 1.5 1.062 3.352 1.266 5.552.595 1.168-.354 2.335-.934 3.488-1.733l1.7 3.578c-1.092.663-2.298 1.198-3.616 1.597-3.6 1.1-6.78.83-9.53-.8s-4.588-3.963-5.514-7.006c-.896-2.938-.686-5.733.64-8.377 1.318-2.644 3.842-4.535 7.564-5.665 1.492-.46 3.066-.73 4.716-.836l1.416 3.66c-1.725.015-3.254.226-4.603.633m-2.165-402.54l-1.203 54.896.85.64s35.387 26.555 90.877 20.14l6.344-.734-5.562-3.135s-12.668-7.342-21.7-18.02c.367-.386.618-.7 1.572-1.47 2.78-2.24 8.496-6.137 19.844-12.367l5.115-2.8-5.74-1.053s-19.15-3.5-39.666-9.162c-10.258-2.825-20.853-6.187-29.494-9.875s-15.286-7.888-17.568-11.404z" class="B"/><path d="M462.627 55.1c3.826 3.3 9.285 6.175 15.717 8.92 8.928 3.8 19.655 7.206 30.02 10.06 16.18 4.457 28.715 6.997 34.652 8.156-7.873 4.523-13.15 7.943-15.705 10-1.553 1.25-2.417 2.13-2.95 2.81-.267.34-.452.632-.588.912-.068.14-.123.278-.166.416s-.1.42-.1.42l-.096.852.535.672c6.764 8.504 14.077 13.715 18.926 16.87-48.7 3.663-78.98-17.693-81.148-19.277l.895-40.81z" class="C"/><path d="M101.264 44.064l-3.668 5.65c-2.283 3.516-8.927 7.717-17.568 11.404S60.79 68.17 50.533 70.996c-20.516 5.65-39.666 9.162-39.666 9.162l-5.74 1.05 5.115 2.81c11.348 6.23 17.062 10.128 19.84 12.367.954.77 1.205 1.083 1.57 1.47-9.024 10.677-21.693 18.018-21.693 18.018L4.396 119l6.344.734c55.5 6.414 90.877-20.14 90.877-20.14l.85-.64-1.203-54.898z" class="B"/><path d="M97.373 56.018l.895 40.81c-2.17 1.584-32.45 22.94-81.148 19.277 4.85-3.155 12.16-8.363 18.92-16.867l.53-.67-.094-.85s-.045-.28-.088-.42a2.96 2.96 0 0 0-.166-.418c-.135-.28-.32-.574-.588-.914-.534-.68-1.395-1.56-2.947-2.81-2.553-2.057-7.83-5.478-15.705-10.002 5.936-1.16 18.47-3.697 34.654-8.154 10.365-2.855 21.092-6.25 30.02-10.06 6.432-2.745 11.89-5.62 15.717-8.92z" class="C"/><path d="M289.186.283c-64.97-1.7-139.11 3.77-210.066 25.587l-1.47.44v61.385l2.766-.986s151.198-53.88 398.857.074l2.516.544V26.267l-1.53-.427S397.47 3.12 289.186.283z" class="B"/><path d="M288.98 4.477C394.83 7.25 474.894 28.762 477.638 29.504v52.778C236.82 30.42 89.16 79.5 81.797 82.032V29.5C151.72 8.225 224.815 2.795 288.98 4.477z" class="C"/><path d="M78.57 85.917L99.163 97.62m381.6-12.023L460.17 97.3" fill="none" stroke="#fff" class="E"/><path d="M150 31.026l.8 6.4 7.503-1.266.512 3.518-7.548.912.633 5.537 9.108-1.597.723 3.654-13.658 2c-.27-2.9-.708-6.396-1.303-10.47-.618-4.256-1.243-8.06-1.883-11.428L159.2 26.2l.678 3.684c-3.5.316-6.795.693-9.87 1.145m27.097 3.742c-.844 1.047-2.177 2.08-4.008 3.1-1.718.957-2.825 1.665-3.315 2.14-.565.542-.8 1.198-.708 1.95.173 1.416 1.6 1.96 4.24 1.635 1.77-.2 3.382-.693 4.83-1.424l1.085 3.67c-1.454.55-3.277.964-5.484 1.235-2.7.33-4.814.038-6.38-.88-1.574-.912-2.47-2.343-2.712-4.27-.203-1.665.173-3.134 1.122-4.407.76-1.002 1.974-1.996 3.66-2.983 1.853-1.07 3.074-1.906 3.646-2.5.67-.67.957-1.44.85-2.298-.098-.82-.565-1.356-1.394-1.605-.83-.256-2.147-.27-3.947-.053-1.62.203-3.3.723-5.047 1.582l-1.288-3.66c1.785-.746 3.752-1.25 5.9-1.514 6.328-.768 9.756 1.04 10.298 5.44.218 1.83-.226 3.45-1.34 4.86m4.89 10.922l-.497-3.646 6.577-.37-.633-7.127c-.4-4.098-.85-7.925-1.356-11.503l4.738-.46c.234 3.63.55 7.473.95 11.534l.73 7.12c1.996-.196 4.12-.5 6.358-.88l.475 3.63zm24.976-2.32c-.052-.693-1.67-4.327-4.826-10.912-3.164-6.584-4.753-10.102-4.8-10.547l5.097-.388c.06.8.758 2.87 2.083 6.215l7.828-.6c.76-3.563 1.112-5.716 1.06-6.462l5.426-.412c.045.6-.874 4.36-2.743 11.277-1.876 6.908-2.776 10.688-2.73 11.335l-6.403.494zm2.342-3.225l.27-.024c-.037-.475.7-3.706 2.166-9.687l-6.18.483c2.456 5.7 3.705 8.8 3.743 9.228zm13.595 2.048c-.007-2.915-.107-6.433-.318-10.547-.218-4.294-.484-8.146-.8-11.56l5.968-.4c7.375-.377 11.168 1.687 11.394 6.192.083 1.687-.358 2.98-1.33 3.884a7.17 7.17 0 0 1-3.508 1.789l.012.247c2.607.686 3.98 2.286 4.108 4.802.166 3.262-2.253 5.013-7.263 5.262a107.41 107.41 0 0 1-2.896.106l-2.613.083-2.754.13zm7.24-3.46c2.54-.136 3.76-1.206 3.66-3.225-.105-2.102-1.962-3.053-5.532-2.872a18.85 18.85 0 0 0-1.354.106c.136 2.78.174 4.752.106 5.897.92.128 1.96.147 3.12.094zm-3.366-9.1c.565.024 1.24.012 2.025-.024 3.947-.203 5.87-1.432 5.756-3.684-.06-1.243-.595-2.1-1.6-2.543-1.002-.452-2.555-.63-4.65-.518-.768.036-1.334.118-1.72.224 0 1.996.056 4.18.177 6.545zm20.565-7.228l.482 8.113c.143 4.467.324 7.978.542 10.547l-4.776.15c.053-2.78 0-6.298-.136-10.554-.15-4.648-.34-8.498-.58-11.564l14.125-.46.256 3.706a204.35 204.35 0 0 0-9.914.06m17.485 7.74c.053 4.18.173 7.7.362 10.554l-4.814.068c.113-2.908.136-6.426.083-10.562-.053-4.204-.18-8.06-.377-11.57l4.814-.068c-.105 3.45-.12 7.307-.068 11.58m17.795-.936c-.964.934-2.418 1.8-4.362 2.576-1.823.73-3.006 1.303-3.548 1.7-.625.475-.942 1.092-.942 1.853 0 1.424 1.333 2.14 4.008 2.147 1.778 0 3.435-.27 4.964-.83l.625 3.774c-1.507.377-3.375.557-5.6.557-2.712-.008-4.8-.557-6.23-1.657-1.446-1.107-2.17-2.63-2.162-4.58 0-1.672.557-3.1 1.657-4.226.874-.904 2.207-1.748 3.993-2.516 1.974-.83 3.285-1.507 3.932-2.026.746-.588 1.122-1.318 1.122-2.177.008-.83-.392-1.416-1.183-1.77-.8-.354-2.094-.527-3.9-.535-1.635 0-3.367.316-5.206.95l-.83-3.797c1.86-.512 3.872-.776 6.034-.768 6.373.008 9.552 2.23 9.545 6.66 0 1.846-.64 3.398-1.92 4.656m23.304 1.388c-.113 4.158-.128 7.677-.045 10.562l-4.814-.136c.234-3.495.384-6.433.444-8.83l-8.633-.226a212.71 212.71 0 0 0-.03 8.837l-4.814-.128c.234-3.006.4-6.524.505-10.547a300.23 300.23 0 0 0 .09-11.579l4.814.136-.437 9.748 8.565.226c.075-2.757.105-6.004.1-9.756l4.814.128c-.25 3.367-.437 7.225-.55 11.564m10.25-7.676l-.444 6.44 7.594.196-.173 3.548-7.58-.55-.437 5.56 9.25.173.008 3.73-13.786-.663c.286-2.9.527-6.4.723-10.532.2-4.294.324-8.15.34-11.57l14.45.693-.045 3.737a202.24 202.24 0 0 0-9.9-.76M338.522 42.9a19.75 19.75 0 0 1-2.86-.024l-1.872-.2-2.166-.212-2.978-.224c.37-2.893.715-6.398 1.024-10.5.324-4.286.542-8.127.647-11.547 2.953.083 5.26.178 6.933.306 3.706.278 6.493 1.695 8.37 4.25 1.876 2.546 2.697 5.43 2.448 8.64-.2 2.84-1.32 5.223-3.308 7.12-1.492 1.418-3.572 2.218-6.24 2.4zm-3.296-3.472c2.6.196 4.577-.395 5.956-1.8 1.38-1.386 2.16-3.167 2.32-5.344.166-2.162-.275-4.045-1.33-5.65s-2.805-2.48-5.238-2.66c-.738-.054-1.467-.042-2.213.048a195.69 195.69 0 0 0-.777 8.028 152.4 152.4 0 0 1-.706 7.074c.836.166 1.507.257 2 .294zm29.156-9.256c-.25 2.576-.55 6.192-.88 10.848l-2.094-.203-5.492-5.153 1.04-1.537 2.6 1.446a149.61 149.61 0 0 0 .693-5.808c.173-1.778.347-4.128.505-7.05l4.52.444-.88 7.014M373.74 47.5c-1.92-.218-3.462-.895-4.614-2.025-1.168-1.16-1.652-2.534-1.47-4.108.256-2.162 1.563-3.76 3.943-4.8l.036-.27c-1.44-.783-2.496-1.823-3.166-3.096-.625-1.183-.857-2.442-.706-3.8.218-1.868 1.104-3.315 2.648-4.332 1.552-1 3.46-1.382 5.72-1.118 2.298.27 4.112 1.1 5.438 2.542 1.333 1.424 1.874 3.12 1.648 5.085-.316 2.742-2.114 4.728-5.4 5.956l-.036.27c1.077.588 1.865 1.42 2.378 2.484.475.957.65 1.963.53 3.025-.173 1.44-.9 2.548-2.2 3.33-1.296.776-2.884 1.054-4.767.836zm.14-2.625c.866.105 1.603-.07 2.213-.53.603-.46.954-1.147 1.06-2.036.203-1.695-.42-3-1.86-3.967-2.47.844-3.806 2.1-4.002 3.778-.083.73.118 1.343.6 1.848s1.146.816 2 .906zm.318-9.428c2.968-.934 4.582-2.477 4.838-4.66.113-1.002-.123-1.854-.718-2.554-.588-.708-1.388-1.115-2.413-1.236-1.092-.128-2.03.116-2.813.742-.776.618-1.234 1.525-1.377 2.707a5.17 5.17 0 0 0 .518 2.931c.46.957 1.114 1.642 1.966 2.072zm19.072 14.255c-.795.12-1.663.12-2.6-.012-1.92-.27-3.45-.982-4.58-2.142-1.138-1.2-1.6-2.565-1.365-4.132.3-2.155 1.658-3.725 4.06-4.697l.036-.27c-1.416-.814-2.444-1.878-3.084-3.166-.603-1.198-.812-2.465-.624-3.814.264-1.86 1.18-3.3 2.754-4.26s3.492-1.3 5.744-.977c2.3.324 4.084 1.218 5.38 2.672 1.288 1.46 1.8 3.157 1.53 5.1-.392 2.742-2.237 4.693-5.544 5.838l-.036.27c1.055.618 1.83 1.453 2.32 2.53a5.34 5.34 0 0 1 .447 3.037c-.203 1.43-.96 2.53-2.272 3.284-.652.373-1.37.6-2.166.73zm-2.4-2.625c.866.12 1.595-.042 2.213-.494.618-.444.998-1.1 1.118-2 .24-1.695-.35-3.04-1.766-4.026-2.494.783-3.85 2.004-4.084 3.684-.105.723.086 1.352.553 1.872s1.122.833 1.966.953zm.54-9.417c3-.86 4.635-2.378 4.944-4.555.143-.994-.075-1.85-.647-2.566-.58-.716-1.365-1.156-2.4-1.307-1.092-.15-2.026.08-2.825.683-.8.603-1.282 1.5-1.448 2.672a5.22 5.22 0 0 0 .436 2.954c.437.957 1.087 1.667 1.93 2.12zm18.75 9.853c-.554.012-1.142-.03-1.754-.13-2.554-.407-4.368-1.606-5.438-3.602-1.077-1.996-1.368-4.568-.87-7.686.5-3.036 1.47-5.142 2.954-6.333s3.462-1.592 5.933-1.2c2.554.415 4.38 1.52 5.473 3.32 1.085 1.793 1.372 4.296.86 7.498-.474 2.96-1.47 5.135-2.978 6.52-1.13 1.034-2.518 1.573-4.18 1.613zm-1.624-3.414c1.3.2 2.36-.302 3.143-1.53.776-1.228 1.328-2.87 1.66-4.92.557-3.503-.273-5.418-2.495-5.78-1.288-.203-2.307.2-3.06 1.177-.746.987-1.298 2.605-1.66 4.85-.603 3.782.198 5.85 2.413 6.203z" class="B"/></g><defs ><path id="B" d="M276.973 134.105q0-11.44-8.68-17.11-8.68-5.67-23.33-5.67-1.856 0-3.21.1 0-10.938.803-26.44h-9.633q.753 14.25.753 34.318 0 17.26-.753 31.007h7.175q1.154 0 6.573.15 5.47.15 9.282.15 9.633 0 15.303-4.415 5.72-4.365 5.72-12.092zm-8.38-2.9q0 12.894-17.61 12.894-4.315 0-9.683-.753.35-8.178.35-25.488 1.756-.1 4.315-.1 22.628 0 22.628 13.446z"/></defs></svg>