<?xml version="1.0" encoding="UTF-8"?>
<svg version="1.1" viewBox="0 0 265.94 266.19" xmlns="http://www.w3.org/2000/svg" xmlns:cc="http://creativecommons.org/ns#" xmlns:dc="http://purl.org/dc/elements/1.1/" xmlns:rdf="http://www.w3.org/1999/02/22-rdf-syntax-ns#">
<defs>
<clipPath id="a">
<path d="m119.45 59.009v-42.599h182.05v42.599"/>
</clipPath>
</defs>
<metadata>
<rdf:RDF>
<cc:Work rdf:about="">
<dc:format>image/svg+xml</dc:format>
<dc:type rdf:resource="http://purl.org/dc/dcmitype/StillImage"/>
<dc:title/>
</cc:Work>
</rdf:RDF>
</metadata>
<g transform="translate(-242.01 -399.3)">
<g transform="matrix(6.25 0 0 -6.25 -504.55 768.05)">
<g clip-path="url(#a)">
<path d="m140.73 57.749c-11.054 0-20.017-8.973-20.017-20.04s8.963-20.039 20.017-20.039c11.055 0 20.02 8.972 20.02 20.039s-8.965 20.04-20.02 20.04z" fill="none" stroke="#fff" stroke-width="2.52"/>
</g>
</g>
<path d="m374.99 407.12c-69.088 0-125.11 56.081-125.11 125.25s56.019 125.24 125.11 125.24c69.094 0 125.12-56.075 125.12-125.24s-56.031-125.25-125.12-125.25" fill="#1b458f"/>
<path d="m374.99 413.45c-65.6 0-118.77 53.238-118.77 118.91 0 65.669 53.169 118.91 118.77 118.91 65.619 0 118.79-53.244 118.79-118.91 0-65.675-53.169-118.91-118.79-118.91" fill="#fff"/>
<path d="m374.99 440.17c-50.85 0-92.088 41.281-92.088 92.194s41.238 92.194 92.088 92.194c50.869 0 92.1-41.281 92.1-92.194s-41.231-92.194-92.1-92.194" fill="#1b458f"/>
<path d="m374.99 445.42c-47.956 0-86.838 38.931-86.838 86.944 0 48.031 38.881 86.944 86.838 86.944 47.975 0 86.856-38.912 86.856-86.944 0-48.012-38.881-86.944-86.856-86.944" fill="#fff"/>
<path d="m374.99 455.18c-39.531 0-71.581 32.088-71.581 71.675s32.05 71.675 71.581 71.675c39.544 0 71.6-32.088 71.6-71.675s-32.056-71.675-71.6-71.675" fill="#1b458f"/>
<path d="m335.91 493.75c-4.7187-4.05-14.831-8.0938-22.256-8.0938m20.238 73.406c-4.7188 4.0438-14.838 8.1062-22.244 8.1062m19.544-33.269c-7.075 3.3812-17.2 6.4125-28.981 8.4312m1.675-33.731s11.8 6.7438 27.644 8.0938m81.962-22.944c4.7188-4.05 14.844-8.0938 22.256-8.0938m-20.244 73.406c4.725 4.0438 14.837 8.1062 22.256 8.1062m-19.55-33.269c7.075 3.3812 17.2 6.4125 28.994 8.4312m-1.6938-33.731s-11.794 6.7438-27.637 8.0938" fill="none" stroke="#fff" stroke-width="4.45"/>
<path d="m345.77 528.37c-0.425 0.075-0.8438 0.075-1.1938 0h1.1938" fill="#e82b31"/>
<path d="m354.72 528.37c-2.2 1.1438-5.3063 1.575-6.2938 1.475 0.4375-0.175 0.5562-0.85 0.5875-1.475h5.7062" fill="#e51636"/>
<path d="m357.24 528.37c-0.056 0.05-0.119 0.075-0.1685 0.1 0.01-0.04 0.02-0.075 0.02-0.1h0.15" fill="#e82b31"/>
<path d="m368.81 528.37c-0.1875 0.0875-0.3875 0.075-0.5875 0h0.5875" fill="#e82b31"/>
<path d="m403.8 527.98c0.231 1.4375 0.65 2.7188 1.4 3.5125-1.0626 2.4938-6.6812 10.888-13.888 6.6812h-0.1875c0.0685 3.3062-1.2 5.8438-1.2 5.8438-1.1062 4.9812 7.075 3.8625 7.075 3.8625l1.9688 0.3315-0.5187 1.5062 1.4437 0.3375-0.5187 1.575s1.3062 5.7688 0.77495 6.95c-3.9938-3.35-6.9437 3.5312-4.3124 4.2625 2.6125 0.71875-0.3375 4.9188-1.25 4.9188-0.8563 0.45 0.1935 2.6312 0.1315 3.5375-0.069 0.925 0.78125 0.45 0 0.2625-0.7938-0.2-2.5626-2.2938-2.6812-3.4688-0.8625-0.1315-1.3875-0.99375-2.1125-1.7688-0.444 1.0438-2.2125 0.91875-2.875 0.58125-0.9188 0.4625 0.0625 2.75-0.5813 3.8-0.79995-0.7125-2.2312-2.6812-1.5062-3.7375-0.4625-0.5875-0.6625-1.9562-0.144-2.7438-0.7188-0.0685-0.51875-0.4065-1.2438-1.325-0.725-0.9125-2.4124 0.525-3.075 1.0562-0.525-1.5688 0.4435-3.55 1.7688-3.9312-0.4625-0.6625 0.725-1.575 0.4-2.2438-0.325-0.64375-2.1688-0.1875-2.9562-0.125 0.525-0.91875 1.8938-1.3688 2.7562-2.025 0.8438-0.6625 2.9376-0.6 2.9376-0.6 3.2125-0.525 1.5062 2.0438 3.8125 2.2938 2.2938 0.269 2.0312-2.4812 0.125-4.075-1.3687-1.1188-5.7688-2.7375-7.275-3.0688-1.5-0.325-3.075 0.98125-3.075 0.98125l0.0625-1.9-1.5687-0.2s0.4-0.5875 0.5187-2.0938c0.144-1.5062 0.2625-4.3875-3.8-6.0375-4.0563-1.6312-4.7 1.65-3.2 3.475 1.5125 1.8438 0.25 6.8938-0.72505 7.4812-2.5562-1.7688-7.3312 2.6875-6.8875 1.975 0.4625-0.725-0.381-1.2438-0.84375-2.0438-0.4625-0.78125-3.5374 1.2562-4.9812 2.0438 0.4625-0.475-0.125-1.9125-1.4312-3.2188-1.325-1.3125-4.3313 0.9875-5.3876 1.4375 0.5938-1.25-0.6437-4.1375-1.3624-4.65-0.725-0.525-1.65 0.1935-2.4938 0.45 0-0.256 0.4-1.3 1.4438-2.7438 1.05-1.4438 0.325-3.5562 0.0625-3.7438-0.2625-0.194-1.6438-0.1375-2.35-0.069 0.2565-0.9125 1.0438-1.5688 2.4126-1.5688 0-1.9 4.0562-1.7688 4.7188-1.7062 0.65 0.0625 0.1875 0 0.1875 0s-0.256-1.05-0.78125-1.5688c0.9188-0.4 1.9626 0.1875 2.6126 1.2375 2.8312-1.1812 3.35 3.2125 3.875 4.5812 4.7812 4.9938 5.5062 0.2125 4.5812-0.58125-4.1812-2.95-3.475-5.7688-3.475-6.6938 0-0.90625-0.3815-1.375-1.3063-1.375 0.4-1.0438 1.9063-1.5812 3.0126-1.3062 5.9688-5.9688 11.075 1.8375 11.862 3.0125 0.78125 1.1812 1.7687 1.8375 1.8312 0.9875 0.075-0.85 1.1813-5.25-2.9437-5.9062-2.6312-0.4125-2.9188-1.5625-2.9688-2.4562h15.906c0.6625 0.66875 1.4625 1.4812 2.4 2.4562 1.4125 1.4938 2.2437 3.0812 2.7062 4.6438l0.0935-0.0565c1.9688 0.269 7.6126 1.8438 7.875-3.9312-0.2625-2.0875-2.3562-2.625-3.4188-1.45-1.0438 1.1875-3.2688 1.1875-3.7937-0.775-0.0625-0.2625-0.1375-0.55625-0.2-0.8875h12.562" fill="#e51636"/>
<path d="m344.57 528.37c-0.2935-0.0565-0.5375-0.156-0.72495-0.294-0.80005-0.5875-1.85 0-3.1563 0.2625 0.78755-1.05 0.144-2.8875-0.6437-3.475-0.80005-0.59375-2.1688 0.1875-3.2938 0.725-0.78125-1.0562 1.45-4.2625 1.45-4.9188-0.7062-0.53125-1.9562-0.79375-2.8187-0.65625 0.4625-0.85625 0.6625-2.1688 2.2938-2.3688 0.4-0.65625 2.2375-1.3125 3.275-1.4375 0 0-0.525-2.1-1.1062-2.4938 0.5812-0.3935 2.0312-0.331 3.0125 0.4625 2.6188-1.5125 4 3.075 4.325 4.0062 5.1688 3.7312 5.95-1.7188 5.7688-2.3062-1.5062 0.4-3.5375-1.9-3.5375-1.9s1.0438-0.1315 1.8438-0.65625c0 0-1.725-2.2938-3.35-2.1062-1.65 0.2065-2.7563-2.2875-3.2188-3.0812-0.4625-0.78125-0.0625-0.0565 0.2 0 0.2625 0.0685 1.25 0.1375 2.425-0.125 1.175-0.2565-0.1315-1.3125-0.1315-1.3125s-1.3812-0.2-3.075 0.256c-1.7126 0.4625-2.4313-1.3688-2.5-2.1-0.5188-0.45-1.6312 0.456-2.4063 0.79375 0.119-0.98125 1.025-2.3562 2.2126-2.7562l0.131-1.9s0.194-2.2188-0.131-2.6938c-0.325-0.45-1.1875-0.2565-1.9688-0.325 0.2625-0.725 1.6438-1.3188 2.4312-1.1812 0.45-1.5688 3.7187-2.7562 4.4624-2.9438-0.2-0.1935-0.6625-1.1188-1.125-1.4438 0.84375-0.3375 1.9687-0.0625 3.15 0.45 1.3125-0.194 3.4 0.65625 4.325 1.4438 0.381 0 0.0625-1.4438 0.0625-2.0312 0 0 0.3815 0.1375 1.3062 1.7688 0.925 1.65 0.181 5.125-0.4 5.4438 0 0 0.3375 3.0812-0.3875 3.35-0.7188 0.2625-0.7188 2.0938 1.1062 2.1625 1.85 0.0625 7.6812 4.3938 8.2624 4.525 0 0 2.1688 0.725 1.0438-2.1 0 0 1.5063 0.206 2.9562 0.3375 1.4438 0.119 1.6438-1.9062 1.1688-2.3-0.444-0.4-0.7062-1.6438-0.7062-1.6438-1.9125 0.625-3.7375-1.5938-2.5125-1.7688 1.3874-0.206 4.3437-1.9 5.3875-2.425 1.0624-0.525 2.6124-0.525 1.4437-1.3188-1.1812-0.78125-7.1812-0.9125-8.225-0.2565l-0.6-3.6c-0.144-1.05 0.70625-2.0375 2.4062-2.4312 1.7-0.4 3.1438-1.7125 3.9312-3.0188 2.75 0 5.7626-0.2625 7.475-1.5812 1.6874-1.3062 1.3062-0.7875 3.9187-0.65 2.6313 0.1375 3.8-1.9688 3.8-1.9688 0.4 1.05 1.4438 4.2 0.2625 5.3688 1.4438 0.406 3.5375 0.5375 2.75 9.3188 0.144 2.1-0.3815 8.0062 1.7062 8.9188-0.2565 1.3125-1.7062 2.3688-2.95 1.9125-3.2062 2.6812 0.4 3.9938 1.5688 4.4562-0.2625 1.6375-2.2125 2.8188-3.6 3.0125 1.4438 1.8375 0.525 5.3188 0.525 5.3188l-1.9688-0.7875c-0.05 2.4625 0.075 2.5875 3.4438 6.0625h-15.906c-0.025-0.51875 0.02-0.95625-0.2435-1.15-0.2935 0.6875-0.5812 1.0375-0.9062 1.15h-0.5875c-0.80005-0.269-1.5813-1.5312-1.9812-1.7375-0.6438-0.331-1.9563 1.6312-1.9563 1.6312l-1.6437-1.9c-1.3688-2.3062-4.2813 1.2688-5.4 2.0062h-0.15c0.0935-0.725-0.219-1.0438-0.419-1.6062-0.4 0.65-1.1188 1.1812-1.95 1.6062h-5.7062c0.01-0.3125 0.01-0.60625 0.01-0.81875 0-0.65 0.125-1.7062-1.1188-0.331-0.60625 0.675-1.4062 1.0375-2.1438 1.15h-1.1938" fill="#e51636"/>
<path d="m391.53 528.37c-0.45-2.2438-0.45-5.9875 4.9187-6.3312 0.2625-1.7062 1.1688-6.425-6.0312-3.8-0.381-1.5688-1.7-6.0312 3.2812-6.3062-0.3875-2.0875-1.175-10.1 3.1375-15.338 4.3375-5.25-1.825-7.3438-3-6.8188l0.119-0.3875c1.45-2.6312 8.525-6.5625 10.094 0.90625 0.2625 1.1812 0.1375 5.25 0.1375 5.25 1.8312 0 5.1062 1.9688 6.2812 3.675-1.575 1.175-6.5438 2.4875-8.65 1.9625 2.4937 1.45 2.2312 2.2312 2.2312 4.5938 0 2.3562-0.125 3.275 1.5688 3.5438-1.5688 1.3062-3.1375 1.8375-4.5876 0.125-1.425-1.6938-3.1312-1.4375-3.1312 0.925s2.0875 5.5062 2.0875 5.5062c1.9687-1.8438 5.7688-3.0188 7.2125 1.7062 0.52495 1.1688-0.1375 4.9812-0.1375 4.9812-1.1812-1.3188-1.9687-2.75-3.275-1.3188 0.0935 1.525-0.1 4.5688 0.306 7.125h-12.562" fill="#e51636"/>
<path d="m372.59 492.27 4.075-0.125-3.0124 1.9625c-0.925 0-2.75-1.0438-1.0626-1.8375" fill="#1b458f"/>
<path d="m377.23 611.38c-0.6563-1.55-1.3062-3.05-2.0188-4.55-0.73125 1.5188-1.3812 3.0375-2.0062 4.6062l4.025-0.0565zm5.8938 4.9812c-0.6938-0.03-1.3063-0.075-1.925-0.0625-0.6125 0-1.2563 0.0625-1.875 0.1125-0.475-1.2938-1-2.6125-1.5688-3.9062-0.95-5e-3 -1.8624-5e-3 -2.8125 0-0.7687 0-1.525 0.04-2.2937 0.0625-0.5688 1.3125-1.0312 2.625-1.4313 3.9625-0.3435-0.045-0.675-0.0875-1.0437-0.0875-0.3375 0-0.66875 0.075-1.0938 0.1 1.05-2.1312 4.25-9.0062 6.0625-13.406 0.2935 0.03 0.55 0.0875 0.8437 0.0875 0.294-5e-3 0.53755-0.0625 0.83125-0.1125 1.9376 4.3625 4.6 10.144 6.3063 13.25" fill="#1b458f"/>
<path d="m348.68 598.03c-0.6625 1.6-1.2938 3.2125-1.9125 4.8438 0.156 0.081 0.2935 0.15 0.45 0.206 1.8126 0.6875 3.1188 0.181 3.7688-1.5062 0.78125-2.1-0.069-2.7-2.3062-3.5438zm-2.0188 5.6688-0.181-0.05-0.2815 0.73125c-0.74995 2.0062-1.2375 3.3938-1.7062 5.0188-0.431-0.2125-0.975-0.4685-1.6625-0.7375-0.67495-0.25-1.25-0.4-1.7124-0.55 0.7125-1.525 1.2812-2.875 2.0374-4.8938l0.925-2.4375c0.75-2 1.225-3.3875 1.7063-5.0188 0.4315 0.2 0.97495 0.475 1.6624 0.73125 0.73125 0.2685 1.6626 0.53125 3.05 1.05 2.0688 0.8 2.775 1.2375 3.3312 1.9562 0.6313 0.84375 0.84375 1.825 0.444 2.875-0.6437 1.7375-2.2312 2.4125-4.4438 2.0938 0.5688 2.5125 1.3562 5.1562 2.0938 7.7562-0.6-0.275-1.2-0.5625-1.8125-0.79375-0.6188-0.244-1.2813-0.419-1.9125-0.625l-1.5375-7.1062" fill="#1b458f"/>
<path d="m357.27 606.13c0.3375-2.1125 0.53125-3.575 0.6625-5.2562 1.2875 0.2125 2.5688 0.5125 3.8438 0.73125 2.1375 0.3315 3.9562 0.6 4.5562 0.64375-0.075 0.2125-0.156 0.431-0.2185 0.775-0.0625 0.394-0.045 0.56875-0.045 0.85625-1.6312-0.3625-4.2124-0.91875-4.8624-1.025-0.3375 1.3625-0.55 2.7188-0.78125 4.1062 1.8875 0.275 3.2938 0.456 4.9374 0.65625-0.144 0.419-0.194 0.5875-0.2315 0.83125-0.03 0.206-0.02 0.381-0.02 0.7875-1.6375-0.3875-3.2562-0.7125-4.9062-0.975-0.119 0.79375-0.275 1.6062-0.4125 2.4188-0.119 0.7875-0.231 1.6125-0.3065 2.3688 1.625 0.269 3.3063 0.475 5 0.56875-0.081 0.256-0.156 0.444-0.2185 0.8375-0.0625 0.394-0.0625 0.59375-0.05 0.83125-0.78125-0.15-1.7812-0.394-3.7813-0.7125-3.5375-0.575-4.1187-0.625-4.6124-0.66875 0.4-1.65 0.675-3.0875 1.0312-5.2l0.4125-2.575" fill="#1b458f"/>
<path d="m388.83 610.5c0.2185 1.025 0.69375 3.3188 0.78745 3.6438 0.444-0.0565 1.025-0.144 1.9063-0.325 3.225-0.68125 4.875-3.0312 4.0437-6.925-0.6437-3.075-3.0124-4.5688-5.9812-3.9375-1.0312 0.2065-1.5688 0.3565-2.2188 0.5625 0.0565 0.3625 0.53755 2.6312 0.7563 3.65l0.70625 3.3312zm-3.8125-2.2812c-0.4625-2.1062-0.8-3.5312-1.275-5.1625 0.475-0.05 1.0562-0.125 1.7812-0.269 0.9562-0.2 1.9812-0.51875 3.875-0.93125 4.9062-1.0188 8.5812-0.3625 9.5812 4.3625 0.8813 4.1125-1.95 7.55-6 8.4-2.15 0.4625-3.6437 0.675-4.75 0.90625-0.7063 0.15-1.2813 0.3375-1.75 0.4625-0.2185-1.6688-0.481-3.125-0.925-5.225l-0.53745-2.5438" fill="#1b458f"/>
<path d="m406.88 602.24c0.481-1.8188 0.5375-4.5062 0.65625-6.6062 0.3125-0.1 0.6375-0.1875 0.9562-0.3315 0.325-0.1375 0.6-0.3435 0.925-0.525-0.2935 1.7125-0.8687 5.7938-1.1562 8.5812 0.25 0.5625 0.481 1.1562 0.73745 1.7312 0.5188 1.1562 1.0812 2.3312 1.85 3.5562-0.5687 0.225-1.175 0.4375-1.7438 0.68125-0.55 0.25-1.1062 0.575-1.6562 0.8625-0.45-1.15-0.79995-2.3938-1.2937-3.4875-0.244-0.5375-0.4935-1.0625-0.76875-1.5938-2.4312-1.6938-6.4-4.4-7.475-5.1188 0.6125-0.2375 1.2437-0.456 1.8437-0.7375 0.6-0.2625 1.1562-0.575 1.7376-0.875 1.7124 1.2938 4.4312 3.3312 5.35 3.8812l0.035-0.02" fill="#1b458f"/>
<path d="m432.08 444.43c-0.475-0.319-0.8625-0.5125-1.1687-0.71875-0.4125 0.65-0.84375 1.275-1.4438 2.2125-0.9063 1.4562-1.9688 3.2562-2.4938 4.0625 0.475 0.3315 0.8625 0.60625 1.4562 0.975 1.5876 1.0125 3.6688 0.75625 4.9438-1.2438 1.3562-2.1375 0.8625-3.9312-1.2938-5.2875zm4.6188-6.7688c-0.7875-0.5-0.98755-0.59375-1.3562-0.76875-0.76875 1.0875-1.6438 2.3375-2.1313 3.125-0.53125 0.83125-0.9625 1.575-1.4688 2.3625l1.2188 0.76875c1.5375 0.96875 3.675 0.975 4.9125-0.98125 0.9313-1.4688 0.9438-3.1688-1.175-4.5062zm-8.6 1.6312c1.6124-2.5812 2.6875-4.3812 3.7938-6.5125 0.57495 0.425 1.25 0.95625 2.1438 1.5188 1.5375 0.96875 3.3812 1.975 4.9187 2.95 3.2313 2.0438 4.7688 4.4938 3.1688 7.0062-1.575 2.5-4.9688 1.85-6.7812 1.0188l-0.02 0.05c1.5875 1.1062 4.1562 4.1438 2.3876 6.9188-2.075 3.2938-5.9688 2.6562-9.1688 0.63125-1.4188-0.9-2.525-1.7688-3.875-2.6125-0.9688-0.61875-2.1875-1.2875-2.8-1.6125 1.45-1.9188 2.6124-3.6562 4.2438-6.2375l1.9874-3.1188" fill="#1b458f"/>
<path d="m318.08 630c1.2938-2.1062 2.55-4.2125 3.8062-6.35-0.2125-0.156-0.394-0.281-0.5812-0.394-2.425-1.4125-4.4125-1.0438-5.7 1.1625-1.6188 2.7812-0.525 3.825 2.475 5.5812zm4.1438-7.5 0.25 0.15 0.5562-0.975c1.5375-2.625 2.525-4.4562 3.5688-6.625 0.58755 0.4 1.2813 0.925 2.1875 1.4312 0.9125 0.5375 1.7062 0.90625 2.3312 1.2125-1.3812 1.975-2.4875 3.7438-4.0125 6.3812l-1.8562 3.1688c-1.5438 2.65-2.5438 4.4938-3.575 6.6312-0.5812-0.381-1.2875-0.89375-2.1937-1.4188-0.9875-0.5875-2.25-1.15-4.125-2.2438-2.7688-1.625-3.6625-2.4438-4.2875-3.6-0.6938-1.3062-0.78755-2.75 0.025-4.1312 1.3374-2.275 3.7125-2.8312 6.7875-1.825-0.2185-3.6812-0.75625-7.5812-1.2188-11.412 0.80005 0.5375 1.5875 1.0875 2.4188 1.5625 0.82495 0.4815 1.7188 0.9 2.5687 1.3625l0.575 10.331" fill="#1b458f"/>
<path d="m298.27 601.18c-0.9375 2.2125-1.8438 4.3562-2.6438 6.5938 2.275-0.725 4.5062-1.5312 6.7312-2.4188l-4.0874-4.175zm-0.7875-11.088c0.6625 0.775 1.2438 1.4625 1.8624 2.1125 0.625 0.63125 1.325 1.2375 2 1.8375-0.86255 1.775-1.675 3.625-2.4438 5.4875 0.9375 1 1.8625 1.9875 2.8125 2.95 0.7875 0.80625 1.5688 1.5688 2.3688 2.3438 1.925-0.68125 3.7375-1.4812 5.5062-2.3625 0.325 0.4 0.6 0.8 0.9562 1.1625 0.35 0.369 0.75625 0.65625 1.2125 1.0438-3.2438 1.0062-13.531 4.3875-19.887 6.7812-0.244-0.3375-0.4625-0.6625-0.75005-0.95625-0.2935-0.306-0.6187-0.51875-0.9562-0.76875 2.5375-6.3062 5.8438-14.781 7.3188-19.631" fill="#1b458f"/>
<path d="m276.82 591.52c-0.1625-0.4565-0.3375-0.90625-0.56875-1.325-0.2315-0.419-0.5063-0.825-0.8-1.1938 1.6-6.1125 3.1812-12.181 4.7374-18.375-3.8 2.0688-10.306 5.6125-11.256 6.4062-0.1625-0.4685-0.3375-0.9125-0.5688-1.3375-0.231-0.419-0.51245-0.80625-0.80625-1.1875 7.1875-3.3562 10.369-5.0875 16.725-8.5375 0.1375 0.419 0.275 0.80625 0.4875 1.2062 0.2315 0.381 0.475 0.71875 0.72505 1.0188-1.7688 5.95-3.4125 12.162-4.9375 18.594 1.8312-0.91875 3.8125-2.0125 5.5812-2.9938 3.8438-2.075 5.125-2.8875 5.9563-3.4562 0.181 0.475 0.381 0.9625 0.6125 1.3812 0.2185 0.425 0.52495 0.8375 0.81875 1.2188-0.77505 0.2375-7.1563 3.1812-12.031 5.8438-2.15 1.1688-3.55 2.0938-4.675 2.7375" fill="#1b458f"/>
<path d="m466.37 563.17c2.45-6.9125 7.5812-10.681 12.819-8.8312 6.5187 2.3 7.8562 8.85 5.35 15.919-1.0938 3.0375-2.3812 4.8812-4.1188 6.7062-0.7562-0.64375-1.5124-1.275-2.325-1.7688l0.15-0.4315c1.9875-0.71875 3.7062-2.275 4.6812-5.0062 1.3188-3.7375 0.045-8.525-5.3438-10.431-4.0875-1.4375-8.0874 0-9.7312 4.6375 0 0-1.3562 2.3125 0.444 7.1125l-2.7813-0.05s-0.69375-4.4062 0.8563-7.8562" fill="#1b458f"/>
<path d="m266.91 498.99c2.3562 0.79375 4.6812 1.5438 7.0438 2.2812 0.0935-0.2375 0.1875-0.444 0.25-0.65625 0.83125-2.6938 0-4.5438-2.4313-5.2938-3.075-0.94375-3.8374 0.356-4.8624 3.6688zm8.2438 2.35-0.0935 0.2685 1.0812 0.3315c2.9062 0.89375 4.9375 1.45 7.275 1.9688-0.2625 0.6625-0.6 1.4562-0.90625 2.4625-0.3065 1.0125-0.4815 1.8562-0.63125 2.55-2.2313-0.8875-4.2125-1.5688-7.125-2.4625l-3.5374-1.1c-2.9063-0.89375-4.9188-1.45-7.275-1.9688 0.2625-0.6625 0.59375-1.45 0.90625-2.4625 0.325-1.1 0.6-2.4438 1.2312-4.5188 0.95-3.0875 1.525-4.1438 2.5125-5.0062 1.1062-0.98125 2.4938-1.3938 4.025-0.925 2.525 0.775 3.6188 2.975 3.3375 6.2 3.5375-1.0562 7.2063-2.4562 10.831-3.775-0.3435 0.9-0.6937 1.7938-0.9875 2.7-0.275 0.91875-0.4875 1.8938-0.70625 2.825l-9.9374 2.9125" fill="#1b458f"/>
<path d="m284.32 468.17c-1.675-0.275-3.0124 0.3435-4.075 1.9875-1.0624 1.6375-0.83125 3.4062 0.2565 4.1062 3.375 2.1875 7.8-6.5125 12.987-3.1625 3.075 1.9625 3.3376 6.175 0.5813 10.431-1.2438 1.925-2.7688 3.2312-3.7812 3.6875-0.83125-1.025-1.475-1.8062-2.4-2.65l0.3375-0.51875c1.5063 0.5625 3.4438 0.075 4.8626-2.1 1.3438-2.0938 0.96875-3.8062-0.3125-4.6438-3.4438-2.2188-7.7 6.3562-12.888 3.0125-3.15-2.0375-3.0625-5.9938-0.98125-9.1938 1.2312-1.925 2.6-3.0938 3.95-3.6688 0.5 0.775 0.925 1.325 1.7062 2.3125l-0.244 0.4" fill="#1b458f"/>
<path d="m331.92 434.05c-1.0876-2.8438-1.9063-4.7812-2.9312-6.9438 1.7688-0.65625 3.5874-1.2312 5.35-1.9062 2.925-1.1125 5.4-2.125 6.1687-2.5062 0.075 0.325 0.119 0.65 0.3 1.1 0.206 0.54375 0.3565 0.75 0.55625 1.1062-2.3187 0.74375-5.9625 1.9312-6.8562 2.275 0.5687 1.9125 1.2625 3.7375 1.9874 5.5938 2.5812-1.0375 4.45-1.8188 6.6876-2.7812 0.0935 0.61875 0.1625 0.8625 0.2875 1.2062 0.106 0.269 0.25 0.475 0.54375 0.98125-2.325 0.70625-4.5876 1.4812-6.8438 2.35l0.4875 1.2938c1.0938 2.85 1.9124 4.7812 2.95 6.9562-0.68755 0.2-1.5188 0.431-2.5 0.8-0.98755 0.381-1.7563 0.76875-2.3938 1.0688-0.6687-2.3-1.375-4.2875-2.4687-7.1438l-1.325-3.45" fill="#1b458f"/>
<path d="m359.55 419.79c-4.2875 0.80625-6.1062 4.9688-5.2437 9.5812 1.0624 5.7062 4.4938 7.1125 8 6.45 3.7688-0.69375 6.55-4 5.4562-9.8375-0.84995-4.6375-4.1687-6.9562-8.2125-6.1938zm-0.181-1.5375c6.625-1.25 12.444 0.875 13.644 7.3375 1 5.3062-3.1874 10.55-10.181 11.856-6.6 1.2375-12.462-0.65625-13.719-7.3625-0.975-5.2688 2.9812-10.481 10.256-11.831" fill="#1b458f"/>
<path d="m390.8 419.9c-4.3438-0.3875-7.2188 3.1188-7.6376 7.7875-0.51245 5.7688 2.4062 8.0562 5.9625 8.3688 3.8125 0.344 7.3938-2.0562 7.9188-7.975 0.4315-4.6812-2.1437-7.8188-6.2437-8.1812zm0.231-1.5438c6.7374 0.6125 11.75 4.2375 11.175 10.769-0.4875 5.375-5.9188 9.2812-13.006 8.6375-6.6876-0.6-11.831-4.0188-11.225-10.794 0.481-5.3438 5.6875-9.2688 13.056-8.6125" fill="#1b458f"/>
<path d="m411.13 428.28c0.35-0.9875 0.6875-1.9062 0.72505-2.2938-1.1688-0.425-3.75-1.1812-5.6126-1.6438 0.2315-0.3565 0.4125-0.6875 0.55-1.075 0.144-0.3875 0.2125-0.76875 0.2625-1.1875 2.6938 1.0625 4.0312 1.6 7.7562 2.9375 3.7188 1.3438 5.075 1.775 7.6562 2.6188-0.2185 0.35-0.4185 0.68125-0.55625 1.075-0.1315 0.3875-0.2125 0.75625-0.256 1.175-1.5563-0.75625-4.0188-1.8125-5.2188-2.25-0.181 0.3375-0.51875 1.2625-0.85625 2.2312l-2.3062 6.4125c-1.0438 2.875-1.6876 4.875-2.3126 7.2-0.6437-0.294-1.4312-0.6625-2.4187-1.0188-0.9938-0.35-1.825-0.56875-2.5-0.75 0.9812-2.1938 1.75-4.15 2.7812-7.025l2.3062-6.4062" fill="#1b458f"/>
<path d="m453.1 465.48c0.98755-2.175 1.95-4.2938 2.8125-6.4875-2.2875 0.65-4.5374 1.3875-6.7812 2.2125l3.9688 4.275zm0.4875 11.112c-0.65-0.7875-1.1938-1.5-1.8126-2.1562-0.6-0.65625-1.2937-1.2812-1.9374-1.8938 0.8937-1.7562 1.7875-3.575 2.5874-5.425-0.9125-1.0188-1.8-2.0188-2.7437-3.0312-0.75-0.8125-1.5126-1.5875-2.2875-2.3875-1.9376 0.61875-3.7688 1.3688-5.5563 2.2062-0.3185-0.419-0.5812-0.81875-0.9187-1.1938-0.3565-0.3815-0.7375-0.675-1.1876-1.075 3.2812-0.91875 13.625-4.0062 20.025-6.2312 0.25 0.344 0.45 0.68125 0.73755 0.9875 0.275 0.3 0.6 0.525 0.9125 0.79375-2.6938 6.225-6.2063 14.6-7.8188 19.406" fill="#1b458f"/>
<path d="m466.74 477.48c2.675-1.425 4.5-2.475 6.5188-3.7625 0.281 0.65 0.6187 1.4438 1.1062 2.375 0.5125 0.9375 0.96875 1.6562 1.3562 2.25-2.2 0.95625-4.075 1.8875-6.7688 3.3188l-3.2562 1.7375c-1.7875 0.95-3.5876 1.95-4.8188 2.6375 1.1062 2.125 2.3562 4.25 3.7312 6.3-0.3625 0.125-0.63745 0.194-1.1438 0.4685-0.4935 0.256-0.71245 0.4375-0.9687 0.65625-0.5125-1.025-1.125-2.4062-2.5-5-2.4438-4.5938-2.9062-5.3188-3.2875-5.9188 2.2-0.95625 4.075-1.8812 6.7562-3.3125l3.275-1.75" fill="#1b458f"/>
<path d="m476.06 497.54c2.95-0.85 4.9375-1.5 7.1812-2.3438 0.1435 0.68125 0.3065 1.5375 0.59995 2.55 0.294 1.0062 0.6 1.8125 0.8625 2.475-2.3562 0.481-4.4 1.0062-7.325 1.8562l-3.5626 1.0188c-1.925 0.575-3.9062 1.1688-5.2625 1.6 0.6625 2.2938 1.45 4.625 2.3688 6.9188-0.4 0.045-0.67505 0.0565-1.2125 0.2125-0.5563 0.156-0.8 0.306-1.0938 0.456-0.294-1.1188-0.6-2.5875-1.425-5.4062-1.4376-4.9938-1.75-5.7938-2.0063-6.4562 2.3626-0.475 4.3875-1.0062 7.3188-1.8562l3.5562-1.025" fill="#1b458f"/>
<path d="m470.12 581.15c2.6312 1.5062 4.4874 2.5 6.6624 3.5438-0.406 0.58125-0.9062 1.2688-1.4312 2.1938-0.52495 0.91875-0.8812 1.6938-1.1875 2.3375-1.9687-1.3562-3.7687-2.475-6.4124-3.9875l-3.1813-1.8625c-1.7562-0.99375-3.5562-2-4.8-2.675-1.1875 2.075-2.325 4.2562-3.325 6.5062-0.306-0.2435-0.5062-0.4375-0.99995-0.70625-0.4935-0.306-0.76875-0.381-1.075-0.4875 0.5875-0.98125 1.4313-2.2312 2.8938-4.775 2.5938-4.5125 2.95-5.3 3.2438-5.9312 1.9875 1.3562 3.7688 2.4688 6.4062 3.9812l3.2063 1.8625" fill="#1b458f"/>
<path d="m454 597.66c2.1687 1.9875 3.2 3.025 4.6562 4.3438 2.125 1.95 3.5126 3.1312 4.2188 3.7-0.6437 0.56875-1.2812 1.1938-1.875 1.8312-0.5687 0.63125-1.1374 1.3375-1.6562 2.025-2.3312-2.6938-4.3937-4.6312-6.7124-6.7625-4.9062-4.4812-7.2125-3.5688-10.012-0.50625-3.4438 3.7688-0.206 7.2 3.5188 10.625 1.85 1.6875 3.75 3.2812 5.6938 4.8562-0.4315 0.356-0.8313 0.7125-1.1813 1.125-0.381 0.3875-0.6812 0.8-0.98745 1.2625-1.0625-1.2312-3.7688-4.025-7.2438-7.2-4.6625-4.2688-4.4125-8.4-0.231-12.969 3.675-4.0312 8.0437-5.7938 11.812-2.3312" fill="#1b458f"/>
<path d="m429.68 621.4c0.4875-0.3185 0.825-0.54375 1.1437-0.7625-0.4125-0.64375-0.78125-1.3062-1.3688-2.2438-0.9187-1.4625-2.0874-3.2-2.5937-4-0.5 0.2875-0.91875 0.5125-1.525 0.88125-1.5876 1.0062-2.2626 2.9938-1 4.9938 1.35 2.1562 3.1812 2.4812 5.3438 1.1312zm4.1124 7.0688c0.78755-0.481 0.9563-0.63125 1.2813-0.8875-0.6563-1.1562-1.4-2.4938-1.9063-3.275-0.52495-0.825-0.99995-1.55-1.5125-2.325l-1.2062 0.75c-1.5438 0.975-2.4688 2.9062-1.2375 4.8625 0.9187 1.4688 2.4437 2.2312 4.5812 0.875zm2.25-8.4625c1.6125 2.575 2.7813 4.325 4.225 6.2438-0.6188 0.325-1.4 0.725-2.2875 1.275-1.5438 0.975-3.2438 2.2062-4.7876 3.1688-3.2438 2.0188-6.1375 2.3625-7.7062-0.15-1.5812-2.525 0.481-5.2938 2.0188-6.5625l-0.03-0.05c-1.6938 0.96875-5.5562 1.9688-7.3062-0.8125-2.0624-3.3062 0.1875-6.5375 3.4-8.5562 1.4312-0.9125 2.6876-1.5312 4.0438-2.375 0.9687-0.6125 2.0938-1.4188 2.6438-1.825 1.125 2.1312 2.1875 3.925 3.8187 6.5062l1.9688 3.1375" fill="#1b458f"/>
<path d="m356.07 497.62c0.5313-0.281 1.3312-0.93125 2.325-0.5125 0.9875 0.4065 4.1562 2.8125 4.1562 2.8125-0.73755 0.4125-1.1062 1.45-3.8125-0.2625l-2.6688-2.0375" fill="#e51636"/>
<path d="m321.42 565.33c12.363 14.956 31.763 24.575 53.569 24.575 21.119 0 40.5-9.8875 52.912-24.012m-105.64-78.662c12.4-14.362 31.419-23.556 52.725-23.556 20.656 0 39.65 9.4438 52.081 23.081m-12.15 72.975c2.6438-10.075 4.1188-21.306 4.1188-33.156 0-12.088-1.5375-23.538-4.2876-33.769m-79.831 0.04c-2.75 10.219-4.2875 21.656-4.2875 33.731 0 11.719 1.4438 22.838 4.0313 32.825m80.394-64.95c-0.0625-0.0815-0.1375-0.1625-0.219-0.256-9.55-11.112-23.888-18.188-39.925-18.188-15.919 0-30.163 6.975-39.712 17.938-0.156 0.1875-0.325 0.381-0.4875 0.5625-0.1125 0.125-0.206 0.25-0.3125 0.381m-0.231 63.438c0.175 0.206 0.35 0.4065 0.51875 0.6125 9.5562 11.312 24.019 18.519 40.225 18.519 16.194 0 30.65-7.1875 40.206-18.488 0.1375-0.181 0.306-0.369 0.4625-0.55625" fill="none" stroke="#fff" stroke-width="4.45"/>
<path d="m263.97 543.58c-1.325 1.6438-1.9874 3.8688-1.4124 6.7125 0.78125 3.875 4.35 7.3188 9.95 6.1812 4.2312-0.86875 6.875-4.3062 5.8874-9.125-0.2125-1.0562-0.76875-2.8688-1.1624-3.3125-0.45 0-1.1126 0.125-1.8813 0.2875-2.8812 0.5875-4.0437 1.025-4.5374 1.1562-0.03-0.419-0.094-1.0688-0.3375-2.35-0.3065-1.4938-0.525-2.1125-0.66255-2.5062 0.6 0.045 2.8313-0.3125 4.5376-0.65625 1.125-0.231 2.5312-0.55 2.9188-0.69375 1.2187 2.5812 2.3124 5.3625 2.8688 8.1188 1.4438 7.1875-0.98755 13.069-6.4313 14.181-6.7812 1.3875-11.306-3.5312-12.781-10.881-0.6438-3.1625-0.4935-5.4125 0.0625-7.875 0.9813 0.156 1.95 0.325 2.9063 0.325l0.075 0.4375" fill="#1b458f"/>
<path d="m266.91 528.4c-3.0125-0.3565-5.1062-0.54375-7.5063-0.64375 0.25-1.8688 0.58755-3.7562 0.80005-5.625 0.3685-3.1062 0.6437-5.7812 0.65-6.6375 0.331 0.1 0.6437 0.206 1.1312 0.256 0.5562 0.0625 0.81875 0.04 1.2187 0.025-0.419 2.3938-1.0624 6.1625-1.1687 7.125 1.95 0.3875 3.8938 0.6125 5.875 0.85625 0.275-2.7688 0.4625-4.8 0.6312-7.2312 0.6188 0.2125 0.8438 0.275 1.2 0.3125 0.3 0.035 0.5563 0 1.1376-0.03-0.4625 2.3938-0.83125 4.7625-1.1062 7.1688 1.1374 0.1315 2.2938 0.3065 3.4437 0.4375 1.1376 0.1375 2.3062 0.2435 3.4 0.3125 0.294-2.3875 0.4625-4.8375 0.50625-7.3 0.369 0.1 0.65 0.206 1.2 0.269 0.5688 0.0625 0.84375 0.035 1.1876 0.01-0.1685 1.125-0.45 2.6062-0.80005 5.525-0.59995 5.175-0.6312 6.0312-0.6625 6.7438-2.3562-0.481-4.4312-0.781-7.4437-1.1435l-3.6938-0.431" fill="#1b458f"/>
</g>
</svg>
