<svg xmlns="http://www.w3.org/2000/svg" width="232.97" height="77.39mm" viewBox="0 0 174.73 219.36"><title>scr-logo</title><g fill-rule="evenodd" data-name="Ebene 1"><path d="M164.57 108.63a31.2 31.2 0 0 0-8.06-13.72c-.09 0-.09.19-.24.09 0 0 .09-.09.14-.09a27.89 27.89 0 0 0-3.35-2.91 32.3 32.3 0 0 0-2-3.68c-3.59-6.47-10.34-10.44-16.62-14.26-1.37-1.23-2.79-2.41-4.25-3.59-4-3.29-8.94-5.09-13.69-7.3v43.12-18.63c2.17 1.56 4.34 3.21 6.75 4.77 1.46 3.73 3.4 7.56 7.51 9.21l1 .52a24.42 24.42 0 0 0 4.89 6.45zM58.18 62.09a25.76 25.76 0 0 0-5.52 2.55 6.58 6.58 0 0 1-3.07 1.42l.14.09h-.42a37.15 37.15 0 0 0-7.08 3v.09h-.14c-.23.28-.94.24-.94.71h-.09v-.09a111.3 111.3 0 0 0-11.62 7.93 42 42 0 0 0-11.65 15.33c-.14 1.32-1.41 2.08-2.17 3.12a36.21 36.21 0 0 0-6.19 12.4h28.4c.39-.62 1-1.25 1.54-1.87 1-1.51 2.22-3.07 2.41-5.15A41.24 41.24 0 0 0 48.34 94c3.35-2.17 6.42-4.34 9.68-6.89h.14v21.56-46.58zm-47.25 108.8a2.2 2.2 0 0 1 .63 1.6c2.13 8.26 5.95 15.06 12.51 20.26 2.46 1.27 3.83 3.73 5.62 5.52 5.71 6.47 13.64 12.18 23.18 13.08a45.76 45.76 0 0 0 14 6.71 20.58 20.58 0 0 0 11 .57c1-.19 2-.61 2.93-.8a3.82 3.82 0 0 0 1.46 1.28c1.7.76 3.63-.38 4.86-1.42a8.35 8.35 0 0 0 3.87 1.65A3.41 3.41 0 0 0 94 218a19.58 19.58 0 0 0 10.67.71 2.64 2.64 0 0 0 1-.14 45.34 45.34 0 0 0 15.53-7.18c9.3-1.61 15.77-8.17 20.59-15.16 8.83-4.34 13.83-12.18 17.38-20.78a28.8 28.8 0 0 0 4-4.48h-25.66a16.73 16.73 0 0 0-4.56 5.43 53.41 53.41 0 0 0-13.55 13.32l-1.56.76v.09a48.79 48.79 0 0 1-5.43 1.89c-3.31.61-6.85 1.56-9.87 2.31-.76.28-1.65.52-2.46.8a17 17 0 0 0-5.29 2.69c-.61-1.09-1.28-2.22-2.55-2.5h.05c-.14 0-.47-.28-.66-.14a5.89 5.89 0 0 0-4.48 1.61h-.28a5.11 5.11 0 0 0-4.25-1.61 4.53 4.53 0 0 0-2.74 3.12s-.14 0-.14.09a14.74 14.74 0 0 0-5.53-3.07c-.14 0 .1.14-.09.09h-.09.09a4.53 4.53 0 0 0-1.53-.56c0-.12-.23-.11-.36-.11 0-.19-.37 0-.47-.14h.09a8.86 8.86 0 0 0-1.84-.47h.09a4.37 4.37 0 0 0-1-.24 8 8 0 0 0-1.42-.33h-.14c-.19-.19-.28-.14-.57-.14 0-.18-.26-.1-.4-.05l-.31-.09h.24a1.82 1.82 0 0 0-.75-.09H66c0-.19-.47 0-.61-.14-1.61-.28-3.12-.85-4.77-1.23a52.26 52.26 0 0 1-6-2.65 51.58 51.58 0 0 0-11.14-11.52 44.98 44.98 0 0 0-2.36-1.75c-.91-2.15-2.76-3.77-4.46-5.29z" fill="#1d1d1b"/><path fill="#1d1d1b" d="M58.18 50.91h58.29v57.72h58.26v62.26H0v-62.26h58.18V50.91z"/><path fill="#ffed00" d="M1.7 110.15h171.14v58.99H1.7v-58.99z"/><path fill="#005081" d="M3.51 112h167.52v55.3H3.51V112z"/><path d="M58.11 63.32v1.08c-1.09-.38-1.94.28-3 .24a10.33 10.33 0 0 1 3-1.32zm58.79 1.32c5.15 2.12 10.34 4.49 14.54 8.31.38 1.94 1.18 3.92 1.56 5.76-2.55-2.79-6.14-4.44-9.11-6.94-.24 0-.66 0-.66.38v.52c3.45 2.93 6.51 5.62 9.58 8.64-3.35-1.7-6.94-3.21-10.48-4.72-.09-.09-.38 0-.57-.19a21.6 21.6 0 0 1-4.16-2.12l-1.22-1.65v-8.08l.43.1zm-58.69 6.57a49.59 49.59 0 0 1-9.54 7c3.11-3.73 5.24-8.88 8.69-12.23.33-.19.56-.61.84-.8v6.09zM56 65.68a61.81 61.81 0 0 0-5 7 21.64 21.64 0 0 1-6.66 7.75c-1.61.75-3.21 1.65-4.81 2.55A67.92 67.92 0 0 1 47 75.17c0-.28.09-.43 0-.66a.63.63 0 0 0-.94 0c-3.95 3.36-7.64 6.49-10.52 10.86a32.2 32.2 0 0 1 2.27-10.15 25.14 25.14 0 0 1 1.51-3A42.63 42.63 0 0 1 56 65.68zm-18.9 8.17a32.56 32.56 0 0 0-2.22 7.32c-.66 4.82-1.09 9.82-4.3 13a142 142 0 0 0-5.24 3v-.28c2.31-3.73 4.58-7 6.75-10.72a.67.67 0 0 0-.42-.71 4.34 4.34 0 0 0-1.94 1.28c-2.13 2.22-3.21 4.58-4.58 7.32a18.17 18.17 0 0 0 .1-4.2 1 1 0 0 0-.28-.33c-.19 0-.05.19-.24.09v-.14a11 11 0 0 0-1.93 1.13c-1 .71-2.5 1.56-3.73 2.31a37.37 37.37 0 0 1 5.38-8.59A46.26 46.26 0 0 1 37.1 73.85zM150.18 89l.85 1.61a13.06 13.06 0 0 1-1.75-1c-.28 0-.52.24-.66.38a10.7 10.7 0 0 0 .19 4.06l-.09.09c-1.42-2.83-2.79-5.71-5.29-7.88-.48-.24-1-.95-1.51-.42a.64.64 0 0 0 0 .76c2.17 3.59 4.58 7.18 6.75 10.67v.09c-2.31-1.51-4.72-2.6-6.94-4.16-1-3.68-2.46-7.41-5.71-9.82a88.32 88.32 0 0 1-3.02-8.73h.1c6.33 3.83 13.31 7.84 17 14.35zm-23.56-.13a24.06 24.06 0 0 1-4.67-3.16c-1.46-1.8-2.5-3.68-4.15-5.29-.28 0-.76-.14-.85.19v.57l4.3 5.57a28.05 28.05 0 0 0 1.18 3.68h-.09a69.56 69.56 0 0 1-5.85-4.3v-11c4.77 3.49 7 8.78 10.1 13.69zM51.88 78.72l-.47.57C49 83.06 47.35 87.73 44 90.66a64.57 64.57 0 0 1-8.92 6 15.24 15.24 0 0 1 1.37-2.6c2.41-3.49 5.05-6 7.88-9.07a.66.66 0 0 0-.33-.8l-.47.1a74.32 74.32 0 0 1-9.4 7.51 14.28 14.28 0 0 1 7.7-8.93 83.45 83.45 0 0 0 11.14-6c-.28.66-.76 1.13-1.09 1.79zm77.57 2.17c3.21 1.75 7.08 3.5 8.88 6.8a19.77 19.77 0 0 1 1.8 4.49 90.09 90.09 0 0 1-9.87-7.84c-.33 0-.61 0-.66.33v.52c3.5 3.59 6.89 6.94 9.3 11.52v.1a56.46 56.46 0 0 0-6.28-5l-2.93-1.32c-4-3.87-5.57-9.59-9.44-13.55 2.93 1.18 6.18 2.55 9.25 3.92zM58.2 78.1v7.36a91 91 0 0 1-8.22 6l.1-.33c.75-1.27 1.51-2.64 2.36-4.06A47.6 47.6 0 0 0 58 82c0-.28-.1-.33-.19-.57a.64.64 0 0 0-.76 0c-1.56 1.8-3.78 2.83-5.43 4.35a21 21 0 0 1-4.44 3.16 16.75 16.75 0 0 1 1.51-2.41L58 78.15h.14z" fill="#ffed00"/><path d="M123.22 88.11a48.52 48.52 0 0 0 9.25 5c2.78 2.22 6.56 4.44 7.79 7.84a17 17 0 0 0-3.45-2l-3-1.18L131.3 96a.59.59 0 0 0-.71.24c-.24.61.33.85.66 1.13 3.12 2 6.14 4.16 9.21 6.33a42.61 42.61 0 0 1-10.15-3.59c-3.26-1.65-4.53-4.77-5.9-7.89-.28 0 0-.24-.14-.38-.47-1.28-1.09-2.74-1.42-3.92l.38.14zm-72.95.38a60.26 60.26 0 0 1-4.81 7.65 47.64 47.64 0 0 1-4.81 4.91c-1.42.85-3.26.75-4.91 1.08a63.32 63.32 0 0 1 5.38-3.73 7.43 7.43 0 0 0 2.17-1.6c.24-.38-.09-.76-.38-.9-1.13.47-2.07 1.37-3.16 1.94-2.13.85-4.39 1.56-6 3.07a13 13 0 0 1 2.08-3.31 82.7 82.7 0 0 0 9.44-6.37 43.17 43.17 0 0 0 5-2.79zm-26.01 2.64c-.19 5.15-2.27 9.78-4.16 14.07-.52 1.13-1.13 2.36-1.7 3.45l-.19.09H14.3c-.14-.33.14-.76.24-1.13l1.41-2.74c0-.19-.19-.38-.33-.52-.89-.19-1.13.94-1.56 1.42-.61 1-.71 2-1.28 3h-2.21c1.09-4.53 3.45-8.31 5.95-11.9 1.89-2.5 5.2-4 7.6-5.71h.14zm12.89.05a34 34 0 0 0-5.71 11.66 10.2 10.2 0 0 1-2.17 3.73c-.42.61-.9 1.51-1.32 2.17H24v-.24c1.89-2.74 3.87-5.57 5.52-8.36a.71.71 0 0 0-.42-.66h-.38c-3.07 2.27-5.24 5.95-7.41 9.21h-1.54c0-.57.47-1 .66-1.6 1.09-2.22 2-4.44 2.93-6.75 2.36-2.69 5.9-4 9.07-6 1.65-1 3.07-2 4.72-3.16zm126.3 17.61a18 18 0 0 1-2.27 0c-.71-1.51-1-3.26-2.5-4.39a.64.64 0 0 0-.61.33v.52a10.12 10.12 0 0 1 1.65 3.54h-2.93a32.34 32.34 0 0 0-5.19-8.92c-.9-2.64-2-5.76-1.89-8.59a28.81 28.81 0 0 1 13.74 17.56zm-14.31-9.68a26 26 0 0 1 6.42 9.68h-2.88a49.75 49.75 0 0 0-3.26-4.63 19.18 19.18 0 0 0-3.78-4.3 1.07 1.07 0 0 0-1-.24c-.75.47.14 1.09.24 1.56 1.7 2.5 3.4 5.05 5.05 7.41h-4c-.9-1.89-2.74-3.07-3.26-5.15-1.46-4.39-2.93-8.59-5.95-12.18v-.09c3.83 3.12 8.4 5 12.32 7.89zm-108.69 3.36a16.88 16.88 0 0 1-4.34 6.23h-3.78c0-.42.42-.71.57-1.18s.66-.71.28-1.09a.59.59 0 0 0-.76-.14 10.78 10.78 0 0 0-2.64 2.41c-.14 0-.42.09-.47-.09 1.23-2.36 3.68-4.91 6.66-5.38 1.37-.24 3.07-.43 4.49-.8zm101.61 2.92a16.84 16.84 0 0 1 2.55 3.26H144a8.57 8.57 0 0 0-2.65-2.36.53.53 0 0 0-.66.47c0 .76.66 1.18.94 1.84h-3.21a30.3 30.3 0 0 1-5-5.76v-.14a77.91 77.91 0 0 0 8.59 2.6zm7.7 65.41c-.09.33-.52.47-.8.66-1.75.57-3.73.62-5.43 1.32a26.34 26.34 0 0 0-6.8 3.92c.9-1.42 2.55-2.41 4-3.49a.43.43 0 0 0 0-.57c-.52-.61-1.09.09-1.56.19-1.28.57-2.55 1.28-3.78 1.94a9.57 9.57 0 0 1 1.6-1.84 29 29 0 0 1 2.74-2.17h10.1zm-127.15-.05a11.6 11.6 0 0 1 1.7 2.31 11.14 11.14 0 0 1 1.08 2.41 26.43 26.43 0 0 1-2.83-2.31.7.7 0 0 0-.8.38c0 .76.8 1.37 1.18 2.08l.52.85h-.09a47.85 47.85 0 0 0-10.81-5.29l-.28-.47zm11.89.05a19.71 19.71 0 0 1 4.25 3.92c-1.51-.8-3.12-1.56-4.72-2.31-.28-.14-.52.09-.71.23-.28.66.47.9.9 1.18a11 11 0 0 1 3.12 2.79h-.09a23.33 23.33 0 0 0-12-5.2 2.68 2.68 0 0 1-1-.71h10.29zm127.25 0a10.41 10.41 0 0 1-1.65 2.08c-.24-.19.09-.42-.14-.71-.19-.47-.76-.24-1.09-.19a36.92 36.92 0 0 0-8 4.25V176l1.37-2.13a.6.6 0 0 0-.33-.71h-.38a26.79 26.79 0 0 1-2.93 2.36 15 15 0 0 1 1.94-3.78l1-1h10.2zm-138.39 7.13c1.27.95 2.64 1.79 3.78 2.74a22.11 22.11 0 0 0 8.12 12.28 39 39 0 0 1-7.74-6.14c-1.13-1.56-2.41-3.45-3.92-4.44a.64.64 0 0 0-.71.47v.43c1.23 1.37 2.36 2.83 3.63 4.15 1.75 2.74 3.54 5.57 5.29 8.22-10.15-3.31-16.67-13.22-19.12-23.09a41.62 41.62 0 0 1 10.62 5.38z" fill="#ffed00"/><path d="M38.8 179.53c.61 3.21 1.32 6.8 3.63 9.25v.09c-3.44-2.13-6.75-5.48-9.68-7.84-.33-.09-.52.14-.66.38v.43a51.25 51.25 0 0 1 6.75 6.8 42.23 42.23 0 0 1 4.91 7.56A30.61 30.61 0 0 1 33 189.45c-3.45-3.73-4.53-8.08-6-12.84a31.58 31.58 0 0 0-1.51-3.87c5.2.47 9.82 3.4 13.27 6.8zm109.68-6.7c-.09.47-.47 1-.61 1.46-2.13 5.9-3.31 12.8-8.64 16.86a31.5 31.5 0 0 1-8.92 5.1l.09-.33a46.32 46.32 0 0 1 11.57-14 .67.67 0 0 0-.38-.8l-.47.09a94.06 94.06 0 0 1-9.4 7.7c2.36-2.69 2.88-6 3.64-9.4 3.54-3.35 8-6.28 13.17-6.66z" fill="#ffed00"/><path d="M158.4 174.2c-2.93 7.6-7.46 15.25-14.92 19.69a16.14 16.14 0 0 1 1.32-2.22c1.51-2.27 2.83-4.68 5-6.75.38-.66 1.56-1.37 1.28-2.27a.57.57 0 0 0-.71-.14c-1.8 1.23-2.74 3-4.06 4.53a33.73 33.73 0 0 1-7.65 6 22.37 22.37 0 0 0 8.34-12.42 47 47 0 0 1 11.57-7.32c.19.28-.14.61-.14.9zm-111.1 8.5c0 .09.14.09.19.24a70.08 70.08 0 0 1 8.07 9.92 33.74 33.74 0 0 1-6.23-6.75c-.19-.14-.57-.19-.71 0-.57.57.19 1.09.38 1.61a57.72 57.72 0 0 0 6.14 6.52 5 5 0 0 1-1.61-.57 48.26 48.26 0 0 1-6.53-2.28c-3.45-2.36-6.28-6-6.61-10.06a12.46 12.46 0 0 0-2-5.43 47.22 47.22 0 0 1 9 6.8zm88.39-6.61c-2.45 3.12-1.51 7.22-3.78 10.48a19.23 19.23 0 0 1-4.87 4.91 74 74 0 0 1-8.07 2.79c2.36-2.45 5.15-4.53 6.75-7.65.09-.33-.28-.47-.47-.61l-.43.14a37.21 37.21 0 0 1-6 6.56v-.19c4.44-6.75 9.68-12.37 16.81-16.58v.14zm-80.03 19.64a31.62 31.62 0 0 1 3.11 1.51 18.28 18.28 0 0 0 7.6 6.28c0 .09.38.24.24.38a17.93 17.93 0 0 1-7.61-1.37c-2-.75-3.73-1.84-5.71-2.69a.71.71 0 0 0-.57.47.67.67 0 0 0 .47.71 71.74 71.74 0 0 1 8.45 4.72c1 .61 1.84 1.46 2.83 2.12-5.38-1.27-10.81-3-15.06-6.28-1.23-.8-1.61-2-2.83-2.83a96.5 96.5 0 0 0-5.57-9.4c4.58 3.16 9.44 4.63 14.69 6.37zm77.48-6.33a83.92 83.92 0 0 0-5.34 8.92c-.9 1.09-1.84 2-2.83 3.12-4.39 3.4-9.82 5.1-15.21 6.42 3.5-3.12 7.6-5 11.57-7.08a.73.73 0 0 0-.09-.76c-.19-.28-.61-.14-.85 0-3.92 2.17-8.07 4.06-12.89 3.87-.14-.28.33-.43.52-.57a18.66 18.66 0 0 0 7.51-6.14c5.05-2.79 11.14-3.59 16-6.75.57-.28 1.09-.76 1.65-1z" fill="#ffed00"/><path d="M44.32 198.75c2.36.9 3.12 3.12 5.05 4.3 4.91 3.5 11.14 5 17 6.61a79.23 79.23 0 0 1-11.47-1.56c-2.88-.66-6-1.37-8-3.68a.54.54 0 0 0-.71.28c-.14.57.38 1.09.76 1.46 3.68 2.6 8.07 3.4 12.46 4.34a24.92 24.92 0 0 1-18.18-5.86c-4.34-3.68-7.74-8.59-10.76-13.17l-.24-.61c4.11 3.45 9.16 5.71 14.07 7.89zm99.53-7.84c-5 7.93-11 16.39-21 18.89a29 29 0 0 1-8.31.66c4.11-.8 8.22-1.7 11.8-3.78.66-.52 1.56-1.18 1.51-2a.61.61 0 0 0-.8-.28c-2.08 2.6-5.52 3.07-8.59 3.82l-.09.19-.09-.14a86.77 86.77 0 0 1-10.67 1.42c1.79-.57 3.68-1 5.52-1.51 5.29-1.75 11.1-3.54 14.54-8.07 3.07-2.27 6.9-3.35 10.15-5.2a39.35 39.35 0 0 0 5.9-4h.09zm-70.91 5.39a17.41 17.41 0 0 1 6.66 3.7v.66h-.14c-3.11-2.74-6.89-3.87-10.86-4.67-.33 0-.33.33-.43.57.09.95 1.37.66 2 1a55.31 55.31 0 0 1 10 5.15l.19.42a25.1 25.1 0 0 0-10.62.47c-3.68-1.18-7.41-3.26-9.63-6.61-1.32-1.79-2.69-3.54-3.82-5.43 5 2.5 11.14 2.88 16.67 4.72zm45.14-4.68c-2.31 3.07-4.49 7-8 9.3a31.54 31.54 0 0 1-4.53 2.31c-1.37.71-2.88-.14-4.44-.19a26.53 26.53 0 0 0-6.71 0l.52-.9c3.21-1.79 6.57-4.06 10.34-4.91a.76.76 0 0 0 .66-.57.7.7 0 0 0-.38-.66c-3.68.8-7.32 1.61-10.2 4.16h-.09l-.09-.66c2.5-2.41 5.85-3 9-4.06 4.77-1 9.54-1.75 13.79-3.83h.09zm-84.85 5.86a43.8 43.8 0 0 0 9.3 9.59c-5.43-2.5-9.68-6.89-13.46-11.24v-.09l4.11 1.75zm48.16 7.17a20.4 20.4 0 0 0 2.5 2.46c-1.56-.1-3.59-.61-5.29-.14a37 37 0 0 1-4-.14.54.54 0 0 0-.33.71l.19.28c2 .85 4.53.28 6.75.61h1.61c0 .24-.33.47-.52.57-4.44 1.37-9.54.66-13.84-.38-2.46-.61-4.2-2.55-6.23-3.87a23.93 23.93 0 0 0 5.24.19c3.4-.28 6.61-1.37 10.1-1a19.79 19.79 0 0 1 3.78.66zm29.08.29l1.37-.19c-1.84 1.28-3.3 2.83-5.48 3.68-4.25 1.13-9.44 1.94-13.93.8a2.59 2.59 0 0 1-.9-.71c2-.14 3.82-.28 5.9-.24a8.83 8.83 0 0 0 2.22-.47.57.57 0 0 0 .14-.71l-.33-.28a23.17 23.17 0 0 1-5.71 0c-1 0-2.17.19-3.11.28.94-.85 1.84-1.61 2.78-2.6a22.53 22.53 0 0 1 10.2.09 22 22 0 0 0 6.85.38zM81 210.6c0 .61-.71.71-1.13 1.09-1.42 1.13-3.35 1.28-4.91 2a9.52 9.52 0 0 1-5.15.47.9.9 0 0 0-.85 0 .57.57 0 0 0-.09.71 3.91 3.91 0 0 0 2.31.52c2.31 0 5 .33 6.94-.94l1.56-.9a6 6 0 0 0 .28 2.6l.19.57A18.31 18.31 0 0 1 73.6 218c-.28.33-.52-.14-.9 0-1.84.09-3.4-.52-5.05-.71a38 38 0 0 0-4.11-1.37h.09a46.1 46.1 0 0 1-8.17-4.2c6.61-.09 13.36.33 19.78-.47l.42-.33a24.57 24.57 0 0 0 5.34-.32zm17.48.29l.47.38c6.37.71 13 .38 19.69.43a45 45 0 0 1-10.2 4.91c-4.11 1.42-9.54 2.17-13.74.38a7.49 7.49 0 0 0 .57-2.78c.57.09 1 .61 1.61.76 2.13.94 4.58.52 6.94.47.57-.14 1.32 0 1.61-.66 0-.33-.19-.61-.47-.66h-.57l-2.46.14c-2.31-.28-4.25-1.23-6.42-1.94l-1.18-.76-.57-.9h.09a29.84 29.84 0 0 0 4.63.19zM58.21 76.5c-2.55 2.27-5.05 4.53-7.7 6.85a37.32 37.32 0 0 1 7.56-10.48l.14-.08v3.71z" fill="#ffed00"/><path fill="#1d1d1b" d="M87.34 27.66l-11.77 8.55 4.5-13.83-11.77-8.55h14.55L87.34 0l4.49 13.83h14.54l-11.76 8.55 4.49 13.83-11.76-8.55zm60.73 17.08l-11.76 8.55 4.49-13.83-11.76-8.55h14.54l4.49-13.83 4.49 13.83h14.55l-11.77 8.55 4.5 13.83-11.77-8.55zm-121.46 0l-11.77 8.55 4.5-13.83-11.77-8.55h14.54l4.5-13.83 4.49 13.83h14.54l-11.76 8.55 4.49 13.83-11.76-8.55z"/><path fill="#ffed00" d="M96.77 33l-9.43-6.86L77.91 33l3.6-11.09-9.43-6.85h11.66l3.6-11.09 3.6 11.09h11.66l-9.43 6.85L96.77 33zm60.73 17.08l-9.43-6.85-9.43 6.85 3.6-11.09-9.43-6.85h11.66l3.6-11.09 3.6 11.09h11.66l-9.43 6.85 3.6 11.09zm-121.46 0l-9.43-6.85-9.44 6.85 3.61-11.09-9.44-6.85H23l3.61-11.09 3.6 11.09h11.66l-9.44 6.85 3.61 11.09zm8.06 91.66a9 9 0 0 1-4.87 5.51l7.88 12-12-1.2c-2.28-3.72-5.08-8.4-8.18-11.26a5.31 5.31 0 0 0-1.53-1.1v10.68l-9.85-.86v-37.15c7.26.58 18.66 3.05 25.38 10 2.86 2.81 4.8 8.63 3.11 13.39zm107.66-20.21a18.91 18.91 0 0 1 4.94 2 17.12 17.12 0 0 1 3.35 2.8 17.28 17.28 0 0 1 2.52 4.14 19.33 19.33 0 0 1 .82 2.67 24.18 24.18 0 0 1 .25 8.33 15 15 0 0 1-2.53 6.25 21.23 21.23 0 0 1-6.11 5.88 24.63 24.63 0 0 1-7.74 3l-3.16.43-4.44.66c-1.7.28-3.54.52-5.38.71v-35.91c4.14-.52 11-1.46 12.43-1.49a29.53 29.53 0 0 1 5.06.53zm-24.1 37.6l-10.5 1.34-.03-36.19 10.53-1.04v35.89zm-67.38-34.94a45.07 45.07 0 0 1 6.89 1.37c.24 0 .42.19.71.24 3.78 1.37 7.71 3.3 10 6.89a13.76 13.76 0 0 1 2.47 7.42v22.66L70 161.64v-7.13l-8.54-1.59c-.08 2.57 0 5.16-.05 7.73l-11.19-1v-36.17a97.53 97.53 0 0 1 10 .71zm52.2 8.15a13.86 13.86 0 0 1 .3 10.41 12 12 0 0 1-1.92 3.08 14.64 14.64 0 0 1-5.23 3.55 34.79 34.79 0 0 1-9 2.16v10.76l-9.92.85v-35.37a48.28 48.28 0 0 1 10.95-1.61 23.72 23.72 0 0 1 8.42 1 10.13 10.13 0 0 1 6.43 5.2z"/><path d="M27.52 121.59c6.7 2.17 14.82 6.42 16.1 14.26a10.14 10.14 0 0 1-2.78 9.25 8.67 8.67 0 0 1-3 1.73c.43.76.94 1.39 1.41 2.19.69 1 5.89 8.62 6.25 9.31l-9.78-1.07c-2.32-3.88-4.9-8.35-8.15-11.31-.76-.61-1.92-1.55-3-1.5v11l-8.06-.69v-35.47a65.87 65.87 0 0 1 11 2.25zM158 125.56a12.59 12.59 0 0 1 .95.9c3.82 4.2 4.53 9.26 3.87 14.54a13.8 13.8 0 0 1-2.26 6 20.93 20.93 0 0 1-14.31 8.91c-3.69.49-7.37 1-11 1.56h-.14v-34.11c3.68-.62 7.59-1 11.46-1.44a19.21 19.21 0 0 1 6.79.95 15 15 0 0 1 4.75 2.71zm-31.1 32.85l-8.97 1.17v-34.49l8.98-.95-.01 34.27zm-48.3-22.46a8.76 8.76 0 0 1 .89 3.69l.05 22.14c-2.92-.28-5.79-.52-8.69-.94v-6.94L60.76 152l-.1 7.81-9.48-1v-34.39c9.34.31 23.18 1 27.44 11.53zm33.4-2.13c1.18 4.11 1.09 9-2.74 12.23-4.13 3.44-11.35 4.54-13.49 4.58v10.91h-.07l-8.22.66v-33.81a48.39 48.39 0 0 1 14.52-1.23c4.07.52 8.64 2.46 10 6.66z" fill="#e30613"/><path d="M154.81 141.12c-1.35 4.93-5.82 6.61-9.78 6.78h-1.34v-17.39c3.3-1.37 8-1.4 10 1.81 1.73 2.59 1.8 5.42 1.08 8.84zM104.62 136c.57 1.38.82 3.44-.17 4.72-1.7 2.19-4.6 2.55-7.48 2.78h-1.13v-8.64c.58-.22 1.43-.45 2-.61 2.29-.61 5.43-.66 6.75 1.75zm-34.52 9.86c-3.19-.4-6.43-.84-9.59-1.39v-10.32h.44a12.61 12.61 0 0 1 5.35 1 6.35 6.35 0 0 1 3.44 3.2 10.83 10.83 0 0 1 .66 3.11 21.18 21.18 0 0 1-.29 4.4zm-34.46-11.38a6 6 0 0 1-.19 5.19 3.7 3.7 0 0 1-2.69 1.56c-3.16.14-5.57-1.46-8.08-2.69v-10.2a41.42 41.42 0 0 1 4.45 1c2.6.94 5.38 2.5 6.52 5.15z" fill="#ffed00"/><path d="M34.76 134.66a5.14 5.14 0 0 1-.2 4.36 3.05 3.05 0 0 1-2.22 1.29c-2.61.12-4.6-1.41-6.67-2.42v-8.43a18.49 18.49 0 0 1 3.72.9c1.66.8 4.47 2.24 5.35 4.31zm34.55 10.22l-7.88-1.16v-8.58h.28c2.87.1 6 1.16 7 3.25s.91 4 .61 6.49zM153.19 133a11.46 11.46 0 0 1 .78 7.84c-1 3.63-4.59 5.83-8.49 6.1h-.95V131c3-1.08 6.84-.88 8.62 2zm-49.26 3.43a4.1 4.1 0 0 1-.16 3.86c-1.54 1.73-3.82 2.2-6.22 2.4h-.95v-7.19a14.84 14.84 0 0 1 1.7-.5c1.91-.51 4.53-.55 5.63 1.46z" fill="#005081"/><path fill="#ffed00" d="M59.61 52.63h55.46v58.94l-27.7 8.62-27.76-8.62V52.63z"/><path fill="#fff" d="M62.16 55.07h50.36v54.58l-25.17 8.04-25.19-8.04V55.07z"/><path d="M58.2 50.92h58.27v61.92l-29.18 9.05-29.09-9.06V50.92zm1.4 1.7h55.47v59l-27.7 8.62-27.76-8.62v-59z" fill="#1d1d1b"/><path d="M62.1 69.25L75.79 55H62.1v14.25zm50.54-14.34l-50.56 55V89.19l31.63-34.26h18.93zm-35.5 59.67l35.52-38.8v18.87L94 115.79l-6.61 2.08-10.22-3.27z" fill="#00794b"/><path d="M61.39 54.34h51.9v55.86l-25.95 8.23-25.95-8.23V54.34zm.77.73h50.37v54.58l-25.17 8-25.2-8V55.07z" fill="#1d1d1b"/></g></svg>