<svg xmlns="http://www.w3.org/2000/svg" xmlns:xlink="http://www.w3.org/1999/xlink" width="154" height="177" viewBox="0 0 488.332 560.736" xmlns:v="https://vecta.io/nano"><style><![CDATA[.B{fill:#143c8b}.C{fill:#ffe24a}.D{fill:#ec1d24}]]></style><path d="M230.248 19.14h10.728V4.98h9.654v14.16h10.727v9.654H250.63v7.02c3.435 1.2 6.286 3.643 8.013 6.79a11.82 11.82 0 0 1 7.693-2.834c6.554 0 11.87 5.315 11.87 11.87a12 12 0 0 1-.028.808c1.826-1.146 3.984-1.808 6.298-1.808 3.76 0 7.1 1.748 9.285 4.476C294.607 49.392 299.54 45 305.5 45c6.554 0 11.87 5.315 11.87 11.87 0 1.374-.233 2.692-.663 3.92a11.83 11.83 0 0 1 8.719-3.818c6.242 0 11.36 4.82 11.833 10.942a11.87 11.87 0 0 1 2.982-.377c6.554 0 11.87 5.315 11.87 11.87a11.87 11.87 0 0 1-.517 3.47c4.85 1.493 8.376 6.01 8.376 11.347a11.81 11.81 0 0 1-1.206 5.215c3.065 2.146 5.07 5.705 5.07 9.73 0 2.748-.936 5.278-2.505 7.3 2.408 2.172 3.922 5.317 3.922 8.814 0 4.598-2.616 8.585-6.44 10.556.565 1.354.716 3.054.443 4.984-.518 3.682-2.856 7.026-7.445 8.136-5.1 1.242-10.38 1.945-15.645 1.874.567 7.02-4.807 14.662-11.772 14.805l6.386 10.87-11.168 2.52c3.813 3.158 4.544 9.3 2.88 13.782-.82 2.204-2.22 4-3.932 5.496 48.746 26.037 81.928 77.41 81.928 136.522a155.46 155.46 0 0 1-2.573 28.221l3.307 2.112c12.637 8.295 23.98 18.387 34.13 29.564v.01l12.607 13.7 13.058 13.545c7.73 7.778 15.55 15.398 23.72 22.72-26.187 6.824-49.1 18.042-71.27 31.4L473.8 537.3l-22.458 14.762-60.576-61.513-12.264 8.244c-14.76 10.02-29.612 20.104-45.4 29.205-25.246 14.554-50 24.608-73.092 28.516-20.278 3.43-40.948 2.276-59.785-6.575-17.62-19.078-35.518-37.137-57.932-50.688-18.002-3.412-33.544-21.685-42.36-36.194l-.082-.155c-2.968-5.926-6.93-12.037-11.858-18.31-11.66-14.843-25.575-28.54-41.48-38.788-10.362-6.678-15.772-11.788-19.953-23.62-3.04-8.604-7.013-16.84-10.148-25.428-2.295-6.285-4.308-12.456-5.75-17.854-4.84-18.128-2.605-36.637 1.226-54.792 1.525-7.224 3.078-14.583 3.896-22.488.848-8.196.266-16.526-2.217-24.408-12.905-41.808-2.626-89.233 7.676-131.266-15.308 2.912-23.08-16.843-12.71-27.933l7.892-8.442c14.55-15.558 36.13 2.45 25.597 18.796l112.925 121.276c5.748-4.18 11.792-7.976 18.1-11.344-1.713-1.485-3.113-3.292-3.932-5.495-1.666-4.48-.934-10.624 2.88-13.782l-11.168-2.52 6.386-10.87c-6.966-.143-12.34-7.784-11.772-14.805-5.265.072-10.535-.632-15.646-1.874-4.59-1.11-6.927-4.454-7.446-8.136-.272-1.93-.122-3.63.443-4.984-3.824-1.97-6.44-5.958-6.44-10.556 0-3.497 1.514-6.642 3.922-8.814-1.57-2.012-2.505-4.542-2.505-7.3 0-4.025 2.006-7.583 5.07-9.73-.772-1.575-1.206-3.344-1.206-5.215 0-5.338 3.526-9.854 8.375-11.347a11.87 11.87 0 0 1-.517-3.47c0-6.554 5.315-11.87 11.87-11.87 1.03 0 2.03.13 2.982.377.473-6.12 5.59-10.942 11.833-10.942 3.447 0 6.55 1.47 8.72 3.818-.43-1.227-.663-2.545-.663-3.92 0-6.554 5.315-11.87 11.87-11.87 5.958 0 10.893 4.393 11.74 10.117 2.175-2.728 5.526-4.476 9.285-4.476a11.8 11.8 0 0 1 6.297 1.808 12 12 0 0 1-.027-.808c0-6.554 5.315-11.87 11.87-11.87a11.82 11.82 0 0 1 7.696 2.835c1.727-3.147 4.577-5.59 8-6.79v-7.02H230.24V19.14h.007zm-119.12 239.55c6.614-11.67 14.704-22.394 24.01-31.923L26.646 110.43c5.442 21.127 13.035 40.614 23.405 60.39 16.6 31.637 38.037 60.638 61.077 87.87z"/><path d="M59.107 380.415c-18.483-20.86-13.238-54.326-8.973-81.52L51.88 287.3c1.022-12.244 1.174-25.24.028-37.924-1.01-11.18-3.03-22.12-6.352-32.09l-.016-.064c-.92-6.516-1.27-13.47-1.176-20.447.104-7.67.745-15.36 1.755-22.52l.102-.717-.3-.57c-8.732-16.65-17.916-35.16-22.697-53.47-8.32 37.33-16.245 78.833-5.19 116.308 2.676 8.496 3.313 17.438 2.4 26.272-.845 8.16-2.422 15.63-3.97 22.964-2.878 13.637-4.87 25.25-2.93 37 2.67 16.16 12.998 30.715 24.596 41.83 6.53 6.385 13.54 11.936 20.977 16.536z" class="B"/><path d="M320.128 164.776l-.3-.132c-11.232-5.085-23.116-8.918-35.462-11.482-25.03-5.197-52.096-5.197-77.126 0-12.346 2.563-24.23 6.397-35.462 11.482l-.3.132 12.694 1.57-8.705 10.764c10.654-4.76 21.855-8.473 33.472-11 24.19-5.265 49.543-5.248 73.733.016a171.53 171.53 0 0 1 33.471 10.985l-8.706-10.765.893-.11 11.8-1.46z" class="C"/><path d="M86.193 392.306c-3.68-6.125-6.647-12.994-9.08-20.054-2.6-7.514-4.582-15.258-6.192-22.556h0c-3.507-15.342-2.17-30.807-.825-46.374.8-9.263 1.604-18.563 1.39-27.862-.41-3.958-.92-7.96-1.435-11.996-2.123-16.68-4.32-33.965.13-49.834-8.448-12.626-16.3-25.632-23.385-38.988-.903 6.78-1.605 15-1.702 22.152-.094 6.926.254 13.833 1.167 20.31 3.333 10.016 5.36 20.998 6.375 32.217 1.15 12.737 1 25.776-.024 38.05l-.003.02-1.75 11.617c-4.37 27.872-9.777 62.37 10.57 82.805 6.246 3.654 12.784 6.646 19.583 8.91a98 98 0 0 0 5.182 1.586z" fill="#fff"/><path d="M103.448 395.412c-7.936-18.6-12.33-39.093-12.33-60.6 0-25.557 6.207-49.666 17.188-70.907-13.334-15.73-26.013-32.247-37.588-49.475-4.188 15.564-2.027 32.544.06 48.94l1.44 12.052c.217 9.367-.588 18.683-1.4 27.96-1.34 15.512-2.672 30.922.808 46.147v.003c1.603 7.264 3.587 14.978 6.173 22.48 2.508 7.275 5.578 14.337 9.4 20.57a95.88 95.88 0 0 0 16.23 2.83zm118.226 134.974c-1.495 6.758-3.664 13.5-6.486 20.145 13.6 3.74 28.407 4.013 44.055 1.365 22.533-3.813 46.767-13.67 71.538-27.95 15.635-9.014 30.417-19.05 45.107-29.02 31-21.045 61.37-41.738 99.122-52.453-4.353-4.02-8.544-8.293-12.716-12.547-48.38.998-86.626 27.887-124.63 54.6l-11.7 8.184c-15.97 9.622-32.317 19.034-49.56 26.043-17.2 6.987-35.266 11.585-54.74 11.623z" class="B"/><path d="M224.134 507.762c.036 7.283-.74 14.6-2.3 21.888 19.308-.063 37.242-4.632 54.303-11.567 17.196-7 33.512-16.385 49.456-25.99l11.648-8.156c37.915-26.66 76.07-53.483 124.35-54.724l-3.888-3.946-12.147-12.57c-13.72 1.02-26.417 4.096-38.583 8.493-12.385 4.477-24.222 10.322-36.024 16.754-23.076 14.6-46.515 29.268-70.912 41.69-24.162 12.303-49.27 22.416-75.905 28.13z" fill="#fff"/><path d="M218.08 474.575a96.29 96.29 0 0 1 5.863 27.509l.185 4.93c26.506-5.703 51.51-15.78 75.58-28.036 24.382-12.414 47.802-27.06 70.86-41.66l.02-.01c11.837-6.452 23.7-12.315 36.14-16.808 12.05-4.356 24.624-7.423 38.188-8.49l-.357-.38-12.663-13.775a198.65 198.65 0 0 0-6.597-6.925c-53.422 1.967-98.21 29.348-141.817 56.01l-1 .605-.023.013-.806.415c-20.553 10.57-40.952 21.058-63.58 26.602z" class="B"/><path d="M210.48 458.55c2.924 5.02 5.367 10.138 7.34 15.334 22.576-5.517 42.963-16 63.504-26.563l.795-.41.978-.598c43.503-26.598 88.178-53.908 141.492-56.087-4.063-4.022-8.306-7.86-12.733-11.473-14-2.44-28-1.982-41.46.49-15.555 2.855-30.4 8.4-43.72 15.265l-.02.008c-16.97 7.554-32.846 18.038-48.74 28.534-21.505 14.203-43.047 28.428-67.437 35.5z" fill="#fff"/><path d="M185.37 429.418c8.635 6.804 16.368 15.256 22.827 25.387.654 1.026 1.287 2.057 1.9 3.092 24.358-7.023 45.905-21.252 67.417-35.458 15.912-10.508 31.806-21.004 48.827-28.583v-.001c13.376-6.895 28.3-12.463 43.92-15.333 13.133-2.41 26.77-2.917 40.43-.708-3.87-3.1-7.88-6.03-12.033-8.755-3.53-2.317-7.048-4.413-10.52-6.48-3.762-2.24-7.473-4.452-10.986-6.8a208.54 208.54 0 0 1-5.84-4.042c-53.232-4.874-95.366 23.317-136.312 50.72l-17 11.263c-10.512 5.905-21.2 11.744-32.64 15.698z" class="B"/><path d="M165.623 417.35l4.407 2.156a97.58 97.58 0 0 1 14.649 9.372c11.56-3.938 22.36-9.837 32.97-15.8l16.943-11.232c40.74-27.264 82.65-55.31 135.56-50.948a205.42 205.42 0 0 1-8.272-6.354c-2.607-2.11-5.205-4.313-7.826-6.637-11.26-.277-22.895.552-34.28 2.252-12.484 1.865-24.663 4.78-35.7 8.432l-.023.006c-20.875 5.463-38.883 18.123-56.915 30.8-9.795 6.886-19.598 13.777-29.878 19.53h0c-10.2 6.718-21.506 11.587-31.627 18.422z" fill="#fff"/><path d="M34.89 367.242c-6.69-6.412-12.716-13.856-17.415-21.78 1.002 3.14 2.125 6.403 3.325 9.7 3.14 8.6 7.12 16.848 10.166 25.464 3.826 10.83 8.564 15.118 18.07 21.244 8.44 5.438 15.998 11.675 23.264 18.622 7.4-3.68 14.913-6.486 22.634-8.615 7.845-2.164 15.782-3.45 23.677-3.718 15.974-.544 31.786 2.373 46.228 8.846 10.218-6.982 21.7-11.883 32.03-18.693l.02-.015c10.252-5.74 20.038-12.618 29.814-19.49 18.078-12.708 36.134-25.4 57.13-30.902h0c11.084-3.664 23.305-6.588 35.833-8.46 11.127-1.662 22.5-2.494 33.54-2.278-2.03-1.815-4.074-3.704-6.15-5.673-3.56-3.378-7.013-6.865-10.334-10.484-3.104-3.383-6.092-6.875-8.942-10.493-23.7-.242-46.87 6.045-68.07 16.38-16.872 8.225-32.67 18.505-47.308 30.235-15.496 12.413-29.978 23.567-48.453 31.627-10.864 4.74-22.365 8.278-34.653 10.27-17.667 2.866-34.318 1.33-49.77-3.877-16.72-5.297-31.787-14.826-44.64-27.902z" class="B"/><path d="M203.05 546.1c2.497 1.154 5.046 2.17 7.643 3.053 6.61-15.42 9.57-31.24 8.585-46.775-.982-15.508-5.89-30.758-15.015-45.067-9.615-15.08-22.197-26.263-36.392-33.653-15.09-7.855-32-11.427-49.114-10.844-7.506.255-15.076 1.485-22.58 3.555-6.883 1.898-13.61 4.346-20.297 7.57 6.088 5.983 11.284 12.018 15.8 17.754 5.064 6.446 9.17 12.787 12.294 19.002 8.346 13.222 23.146 30.383 39.983 34.07 22.788 13.557 41.74 31.806 59.103 51.333z" fill="#fff"/><path d="M407.303 479.624l55.526 56.5-10.522 6.916-55.512-56.37zM32.7 88.616L149.346 213.9a155.51 155.51 0 0 0-9.199 7.962L24.023 97.344c-3.4 2.28-7.516 2.764-10.728-.448h0c-4.094-4.094-3.585-9.888.37-14.118l7.892-8.442c3.954-4.23 9.916-5.358 14-1.264h0c4.094 4.094 2.715 9.562-1.24 13.792L32.7 88.616zm278.74 106.108c1.902-1.005 3.76-2.4 4.492-4.37.57-1.535.762-5.3-1.125-6.167-10.76-4.938-22.043-8.685-33.618-11.204-23.26-5.062-47.5-5.078-70.77-.016a164.43 164.43 0 0 0-33.623 11.22c-1.886.866-1.694 4.632-1.124 6.167.732 1.97 2.6 3.365 4.5 4.37 19.928-9.356 42.17-14.594 65.64-14.594s45.712 5.237 65.64 14.594z" class="C"/><path d="M222.448 155.5c1.008 1.845.047 3.908-1.488 5.07-1.003.76-2.195 1.126-3.447 1.403l-14.933 3.3c-1.53.338-3.14.483-4.706-.232-2.54-1.162-3.155-3.875-1.338-6.004 1.085-1.272 2.577-1.877 4.153-2.18l15.114-3.345c2.3-.507 5.362-.365 6.645 1.987z"/><path d="M215.843 154.017l-15.077 3.32c-1.427.314-2.82.794-3.86 2.013-1.604 1.88-1.072 4.22 1.17 5.246 1.4.645 2.972.552 4.395.237l14.958-3.312c1.103-.232 2.196-.588 3.11-1.245 1.384-.993 2.38-2.794 1.52-4.474-1.155-2.252-4.1-2.25-6.216-1.786z" class="D"/><path d="M139.623 421.524l.378-.36 21.03 19.94-.52.625c-5.745-4.894-10.92-8.288-14.99-10.103-4.07-1.8-7.118-2.083-8.554-.664-2.237 2.176.397 7.56 4.767 12.007 1.47 1.5 2.757 2.594 4.154 3.6 1.816 1.196 3.8 2.143 6.02 2.888 1.705.658 4.672 1.125 9.103 1.816 3.18.49 6.104 1.158 8.733 1.957 2.632.81 5.022 1.806 7.137 2.97 4.187 2.486 8.847 5.977 13.89 10.816 6.392 6.118 11.822 12.953 15.36 19.195 3.68 6.477 5.364 12.333 3.915 15.966-.94 2.365-2.493 3.475-6.977 3.36-1.248.23-1.938.522-2.167 1.05-.462 1.05.62 3.97 4 8.51l-.45 1.13-31.918-33.225c.177-.315.362-.604.55-.924 8.967 8.07 16.56 13.415 22.213 16.075 5.668 2.664 9.25 2.55 10.367-.087 1.63-3.867-3.307-12.225-9.51-18.283-3.926-3.833-7.534-6.112-11.514-7.678-2.2-.903-4.73-1.256-8.28-1.75-5.118-.71-9.027-1.61-12.48-2.903-3.454-1.31-6.414-2.98-9.666-5.176a71.99 71.99 0 0 1-9.557-8.31c-5.324-5.536-9.293-11.29-11.34-16.074-1.982-4.644-2.193-8.407-.135-10.332.704-.663 1.683-1.044 2.824-1.066 1.893-.212 6.27.887 6.833.327.562-.545.293-1.36-3.214-5.297z" class="B"/><use xlink:href="#B" class="C"/><path d="M148.835 130.583a7.83 7.83 0 0 1 3.858-1.131c1.756-.04 3.55.532 4.937 1.815a6.85 6.85 0 0 1 .683.717 4.17 4.17 0 0 1 .244.341 7.9 7.9 0 0 1 .7 1.142c2.997-.445 5.815-1.4 8.42-2.762 2.72-1.432 5.207-3.32 7.42-5.588a9.96 9.96 0 0 1-3.317-5.173c-.586-2.228-.372-4.483.466-6.456a10 10 0 0 1 4.076-4.672 9.58 9.58 0 0 1 2.806-6.234 10.26 10.26 0 0 1 4.637-2.653l.236-.06a10.57 10.57 0 0 1-1.619-5.636c0-4.64 2.98-8.586 7.132-10.027a11.81 11.81 0 0 1-1.402-5.6c0-5.26 3.424-9.722 8.165-11.278a11.81 11.81 0 0 1-.89-3.07c-2.175 2.728-5.525 4.478-9.284 4.478-3.448 0-6.552-1.472-8.72-3.82a11.84 11.84 0 0 1 .664 3.92c0 6.554-5.315 11.87-11.87 11.87-1.03 0-2.03-.132-2.983-.378a11.88 11.88 0 0 1-8.34 10.418 11.88 11.88 0 0 1 .517 3.472c0 4.025-2.006 7.582-5.072 9.728.77 1.575 1.207 3.345 1.207 5.217a11.84 11.84 0 0 1-3.922 8.813c1.568 2.012 2.505 4.543 2.505 7.3a11.77 11.77 0 0 1-1.254 5.316zm83.105-29.08a9.62 9.62 0 0 1 .66-17.19c-3.328-1.514-5.643-4.868-5.643-8.76 0-5.206 4.138-9.447 9.304-9.614.2-1.5.72-2.875 1.5-4.073a14.97 14.97 0 0 1-3.197-2.853c-2.175 2.74-5.535 4.498-9.304 4.498-2.313 0-4.473-.664-6.298-1.8a12.03 12.03 0 0 1 .028.809c0 5.26-3.425 9.723-8.166 11.28a11.83 11.83 0 0 1 1.02 4.818c0 5.587-3.863 10.273-9.063 11.535a10.58 10.58 0 0 1 .82 4.093 10.62 10.62 0 0 1-7.05 9.999c1.427.317 2.76.94 3.905 1.82a9.98 9.98 0 0 1 3.588 5.392c.636 2.417.33 4.862-.692 6.943 5.728 2.192 11.98 3.03 17.936 2.264 4.435-.57 8.704-2.047 12.452-4.538-2.53-1.82-4.178-4.8-4.178-8.143 0-2.464.893-4.722 2.37-6.468zm23.407-35.565a9.62 9.62 0 0 1 3.658 18.373c3.328 1.514 5.643 4.867 5.643 8.76a9.62 9.62 0 0 1-4.982 8.43 9.98 9.98 0 0 1 2.368 6.468 10.01 10.01 0 0 1-4.178 8.143c3.748 2.5 8.017 3.967 12.45 4.538 5.958.767 12.208-.072 17.936-2.264a9.95 9.95 0 0 1-.692-6.943c.586-2.228 1.885-4.086 3.588-5.392 1.144-.878 2.478-1.502 3.905-1.82-4.108-1.464-7.05-5.4-7.05-10 0-1.45.292-2.834.82-4.093-5.2-1.262-9.063-5.948-9.063-11.535a11.83 11.83 0 0 1 1.02-4.818c-4.74-1.556-8.167-6.02-8.167-11.28a10.88 10.88 0 0 1 .03-.81 11.82 11.82 0 0 1-6.298 1.81 11.84 11.84 0 0 1-9.3-4.497 14.72 14.72 0 0 1-3.196 2.852 9.55 9.55 0 0 1 1.51 4.073zm87.423 64.646a7.83 7.83 0 0 0-3.858-1.131c-1.756-.04-3.55.532-4.937 1.815a6.85 6.85 0 0 0-.683.717 4.17 4.17 0 0 0-.244.341 7.9 7.9 0 0 0-.7 1.142c-2.997-.445-5.815-1.4-8.42-2.762-2.72-1.432-5.207-3.32-7.42-5.588a9.96 9.96 0 0 0 3.317-5.173 9.98 9.98 0 0 0-.466-6.456 10 10 0 0 0-4.076-4.672 9.58 9.58 0 0 0-2.806-6.234c-1.293-1.295-2.915-2.2-4.637-2.653l-.236-.06a10.56 10.56 0 0 0 1.619-5.636c0-4.64-2.98-8.586-7.132-10.027a11.81 11.81 0 0 0 1.402-5.6c0-5.26-3.424-9.722-8.165-11.278a11.81 11.81 0 0 0 .89-3.07c2.175 2.728 5.525 4.478 9.284 4.478a11.84 11.84 0 0 0 8.721-3.82 11.84 11.84 0 0 0-.664 3.92c0 6.554 5.315 11.87 11.87 11.87 1.03 0 2.03-.132 2.983-.378a11.88 11.88 0 0 0 8.339 10.418 11.88 11.88 0 0 0-.517 3.472c0 4.025 2.006 7.582 5.072 9.728-.77 1.575-1.207 3.345-1.207 5.217a11.84 11.84 0 0 0 3.922 8.813 11.81 11.81 0 0 0-2.505 7.29c-.001 1.912.452 3.717 1.255 5.316z" class="D"/><g class="C"><use xlink:href="#C"/><use xlink:href="#C" y="15.137"/><path d="M236.576 88.556c2.493 0 4.515 2.022 4.515 4.515l-.003.14c-1.832.978-3.324 2.508-4.254 4.367l-.258.008c-2.494 0-4.515-2.022-4.515-4.515s2.022-4.515 4.515-4.515zm0-17.52l.433.02c.642 1.444 1.63 2.702 2.858 3.666-1.683 1.322-2.914 3.192-3.424 5.342-2.432-.07-4.382-2.064-4.382-4.513 0-2.494 2.022-4.516 4.515-4.516z"/><use xlink:href="#B" x="-20.533" y="2.008"/><use xlink:href="#B" x="-107.58" y="75.636"/><path d="M139.64 116.055a6.91 6.91 0 0 0 6.892-6.892 6.91 6.91 0 0 0-6.892-6.893 6.91 6.91 0 0 0-6.893 6.893 6.91 6.91 0 0 0 6.893 6.892z"/><use xlink:href="#B" x="-102.299" y="44.586"/><use xlink:href="#B" x="-94.439" y="29.771"/><use xlink:href="#B" x="-79.623" y="19.206"/><use xlink:href="#B" x="-59.697" y="7.236"/><use xlink:href="#B" x="-38.673" y="12.878"/><use xlink:href="#D"/><use xlink:href="#E"/><use xlink:href="#B" x="107.579" y="75.636"/><use xlink:href="#D" x="151.981" y="30.557"/><use xlink:href="#B" x="102.297" y="44.586"/><path d="M340.24 86.295a6.91 6.91 0 0 0 6.893-6.893 6.91 6.91 0 0 0-6.893-6.893 6.91 6.91 0 0 0-6.892 6.893 6.91 6.91 0 0 0 6.892 6.893z"/><use xlink:href="#B" x="79.622" y="19.206"/><use xlink:href="#B" x="59.697" y="7.236"/><use xlink:href="#B" x="20.532" y="2.008"/><use xlink:href="#B" x="38.672" y="12.878"/><path d="M291.62 85.498a6.91 6.91 0 0 0 6.893-6.892 6.91 6.91 0 0 0-6.893-6.893 6.91 6.91 0 0 0-6.893 6.893c0 3.797 3.096 6.892 6.893 6.892z"/><use xlink:href="#E" x="105.609"/><path d="M255.028 88.556c-2.493 0-4.515 2.022-4.515 4.515l.002.14a10.07 10.07 0 0 1 4.255 4.367l.257.008c2.493 0 4.515-2.022 4.515-4.515s-2.02-4.515-4.514-4.515zm0-17.52l-.433.02c-.642 1.444-1.63 2.702-2.858 3.666a9.63 9.63 0 0 1 3.424 5.342c2.432-.07 4.382-2.064 4.382-4.513.001-2.494-2.02-4.516-4.515-4.516zm-50.984 64.173c-13.108 2.694-25.763 6.7-37.8 11.943-7.053 3.078-2.842 13.584 2.643 11.1 11.68-5.288 24.05-9.276 36.916-11.948 25.965-5.392 54.015-5.392 79.98 0 12.865 2.67 25.235 6.66 36.916 11.948 5.485 2.483 9.697-8.023 2.643-11.1-12.027-5.253-24.682-9.25-37.8-11.943-27.165-5.583-56.35-5.583-83.516 0z"/></g><path d="M245.802 150.66l12.83 5.128-12.83 5.128-12.83-5.128z"/><path d="M257.323 155.788l-11.52-4.605-11.52 4.605 11.52 4.604z" class="B"/><path d="M269.156 155.5c-1.007 1.845-.046 3.908 1.49 5.07 1.003.76 2.195 1.126 3.447 1.403l14.933 3.3c1.53.338 3.14.483 4.706-.232 2.54-1.162 3.155-3.875 1.338-6.004-1.085-1.272-2.577-1.877-4.154-2.18l-15.114-3.345c-2.298-.507-5.36-.365-6.645 1.987z"/><path d="M275.762 154.017l15.076 3.32c1.428.314 2.82.794 3.862 2.013 1.604 1.88 1.072 4.22-1.17 5.246-1.41.645-2.972.552-4.395.237l-14.958-3.312c-1.102-.232-2.196-.588-3.11-1.245-1.384-.993-2.38-2.794-1.52-4.474 1.154-2.252 4.1-2.25 6.216-1.786z" class="D"/><path d="M171.344 509.99L150.56 490.65l1.04-.27c7.412 6.2 13.114 10.3 17.48 12.8 4.32 2.48 7.518 3.48 9.682 3.263 4.4-.436 1.566-5.412-2.828-9.914-2.694-2.746-5.356-4.922-8.086-6.384-1.87-.974-4.888-2.376-8.434-3.616l-6.172-2.328c-2.972-1.164-5.68-2.327-8.18-3.545-2.496-1.212-4.823-2.502-7.06-3.926-4.193-2.583-8.916-6.4-14.087-11.218-5.938-5.54-11.768-11.914-15.765-17.695-4.298-6.216-6.54-11.794-4.394-14.666 1.112-1.506 3.698-1.86 6.047-1.903 2.412-.054 4.582.26 4.75.054.802-.946-.887-3.24-4.103-7.156l1.134-1.53 31.806 33.66-1.29.816c-7.126-6.4-14.54-12.1-20.675-15.797-6.213-3.753-10.87-5.286-12.466-3.404-2.083 2.458 2.562 9.625 9.383 16.188 4.23 4.057 7.526 6.704 10.017 8.042 2.483 1.333 6.977 3.175 12.985 5.34l7.96 2.85c3.252 1.016 6.6 2.555 9.818 4.59 6.226 3.677 11.843 8.32 17.13 13.96 4.617 4.932 8.22 10.06 9.363 13.932 1.07 3.595.02 6.1-4.32 6.433-1.833.136-4.438-.375-7.456-1.316l-1.253-.375c-.628-.18-1.243-.363-1.493-.33-.883.082-.204.98 1.37 2.697l-1.12.092z" class="B"/><path d="M195.556 364.356c4.64-3.472 9.23-7.113 13.923-10.873 14.9-11.94 31.013-22.43 48.187-30.802l3.02-1.438c-18.147-17.253-35.595-37.028-44.34-60.668-2.534-6.85-3.662-12.633-2.77-19.394-15.9 2.8-37.427 8.018-51.723 18.937-16.07 12.274-15.874 30.343-9.122 48.633 8.623 23.356 24.916 39.68 42.825 55.605zm-94.016-61.122c-2.218 10.176-3.398 20.74-3.398 31.58 0 21.737 4.7 42.377 13.14 60.963 5.638.036 11.402-.408 17.287-1.363 11.87-1.925 22.995-5.35 33.52-9.942 10.198-4.45 19.133-9.864 27.705-15.917-18-16.244-32.897-32.222-42.43-55.963-5.304-13.2-8.05-27.286-4.114-39.023-16.248 7.106-29.736 17.108-41.708 29.666zM252.518 187.3l-6.716-.16c-65.913 0-121.746 43.214-140.725 102.846 13.018-11.83 27.938-21.44 44.7-27.364 15.365-18.146 42.725-24.94 65.364-28.693 1.677-5.075 4.734-11.225 8.675-16.78 4.974-7 10.396-13.586 16.605-19.614 3.735-3.624 7.747-7.044 12.107-10.237zm67.177 19.646a146.88 146.88 0 0 0-18.103-8.884c-9.135 3.413-17.054 8.505-24.177 14.64-6.525 5.62-12.425 12.152-18 19.092 9.8 6.1 19.3 12.698 28.545 19.646l4.93-6.913c-3.492-3.17-6.836-5.5-10.365-7.747-1.586-1.253-2.063-4.072-.8-5.658s4.072-1.96 5.657-.707c3.16 3.483 6.5 5.852 9.877 8l6.542-9.173c-2.376-2.042-4.958-3.72-7.636-5.218-1.546-1.067-1.934-3.187-.867-4.733s3.187-1.935 4.733-.867c2.27 2.177 4.732 4.1 7.384 5.75l5.1-7.153c-1.437-1.23-2.972-2.17-4.632-2.767a3.4 3.4 0 0 1-.907-4.718 3.4 3.4 0 0 1 4.718-.907c1.285 1.444 2.74 2.577 4.26 3.568l3.748-5.252zm22.74 16.214a148.26 148.26 0 0 0-16.75-12.551l-4.3 6.015c1.5 1.4 3.16 2.56 4.88 3.67 1.36 1.295 1.416 3.45.12 4.8s-3.45 1.416-4.8.12a17.25 17.25 0 0 0-3.587-3.836l-5.034 7.058c2.004 1.772 4.088 3.472 6.383 4.988a3.41 3.41 0 0 1 .307 4.814c-1.244 1.414-3.4 1.55-4.814.307-1.717-2.158-3.56-3.748-5.443-5.108l-6.708 9.404c3.02 2.843 6.25 5.353 9.797 7.942 1.514 1.34 1.552 4.587.212 6.1s-4.172 1.138-5.687-.202c-2.687-3.072-5.406-5.576-8.575-7.88l-4.9 6.872c8.475 6.554 16.817 13.437 25.07 20.544 6.222-6.818 11.4-13.752 15.367-21.696 4.37-8.77 7.275-18.82 8.465-31.374zm24.343 26.98a148.41 148.41 0 0 0-17.979-21.12c-1.533 11.142-4.44 20.402-8.546 28.64-5.356 10.748-12.95 19.634-21.155 28.264-11.034-9.586-22.23-18.958-33.9-27.78-11.646-8.813-23.686-16.916-36.16-24.498 7.278-9.353 14.768-18.47 23.787-26.237 5.834-5.024 12.175-9.4 19.224-12.86-9.094-3-18.578-5.138-28.356-6.32-6.94 4.268-13 9.075-18.407 14.333-5.88 5.7-11.038 11.967-15.782 18.653-4.93 6.947-7.727 13.173-8.7 19.16-.955 5.878-.15 11.65 2.117 17.78 8.698 23.512 26.616 43.056 44.72 60.018 18.304-7.595 37.597-11.993 57.503-12.305 8.196-6.93 15.965-14.705 23.003-23.818 7.042-9.12 13.352-19.588 18.622-31.908zm26.686 84.663c0-28.52-8.097-55.152-22.1-77.73-5.125 11.114-11.087 20.74-17.658 29.25-6.553 8.486-13.713 15.858-21.254 22.486 16.15 19.98 36.047 36.62 58.093 49.75l.936.557c1.3-7.9 1.992-16.034 1.992-24.316z" fill="#e6a514"/><path d="M318.14 178.79l-9.75-12.058 14.932-1.846 6.697 11.27-11.88 2.633zm-144.673 0l9.75-12.058-14.932-1.846-6.697 11.27 11.88 2.633z" class="B"/><path d="M240.168 100.38c-.443 1.725-.82 1.75-2.504 2.184-2.51.646-4.363 2.925-4.363 5.634 0 4.047 5.314 7.046 9.038 5.876-11.58 12.86-31.634 13.234-46.273 5.485 2.985-.898 4.742-4.01 3.942-7.05a5.82 5.82 0 0 0-5.654-4.337c-1.74.01-2.11.082-2.98-1.473-2.887-5.17-10.93-3.05-10.896 2.872.012 1.78-.346 1.9-1.865 2.75a5.82 5.82 0 0 0 3.454 10.864c-.924 1.356-1.927 2.62-2.98 3.787-5.202 6.457-12.096 10.6-20.514 10.798-4.222.44-1.783-.987-3.535-3.18-1.102-1.378-3.483-1.194-4.634.05-2.08 2.25-3.77 2.76-7.6 1.832-3.7-.895-5.07 4.774-1.372 5.67 15.487 3.763 31.512 2.253 41.966-11.262 2.27-2.514 4.337-5.4 5.998-8.634 16.573 10.307 41.408 10.89 56.397-3.28h0c14.99 14.167 39.825 13.585 56.397 3.28 1.66 3.233 3.728 6.12 5.998 8.634 10.454 13.516 26.48 15.025 41.966 11.262 3.7-.895 2.327-6.564-1.372-5.67-3.82.928-5.51.418-7.59-1.832-1.152-1.245-3.533-1.43-4.635-.05-1.752 2.19.687 3.62-3.535 3.18-8.418-.198-15.313-4.342-20.514-10.798a35.23 35.23 0 0 1-2.981-3.787 5.82 5.82 0 0 0 6.239-4.304c.69-2.62-.522-5.296-2.785-6.56-1.52-.848-1.876-.97-1.864-2.75.033-5.92-8-8.04-10.896-2.872-.868 1.555-1.238 1.484-2.98 1.473a5.82 5.82 0 0 0-1.712 11.386c-14.64 7.75-34.694 7.376-46.273-5.485 3.724 1.17 9.038-1.83 9.038-5.876a5.82 5.82 0 0 0-4.363-5.634c-1.685-.433-2.062-.46-2.504-2.184-1.472-5.714-9.802-5.714-11.27 0z" class="C"/><path d="M245.637 110.363a3.13 3.13 0 0 0 3.124-3.125 3.13 3.13 0 0 0-3.124-3.124 3.13 3.13 0 0 0-3.125 3.124c.001 1.722 1.405 3.125 3.125 3.125z"/><circle cx="187.675" cy="114.768" r="3.124"/><circle cx="303.929" cy="114.768" r="3.124"/><defs ><path id="B" d="M245.803 56.524a6.91 6.91 0 0 0 6.893-6.893 6.91 6.91 0 0 0-6.893-6.893 6.91 6.91 0 0 0-6.893 6.893 6.91 6.91 0 0 0 6.893 6.893z"/><path id="C" d="M245.803 70.413a3.27 3.27 0 0 0 3.261-3.261 3.27 3.27 0 0 0-3.261-3.261 3.27 3.27 0 0 0-3.26 3.261 3.27 3.27 0 0 0 3.26 3.261z"/><path id="D" d="M199.984 85.498a6.91 6.91 0 0 0 6.893-6.892 6.91 6.91 0 0 0-6.893-6.893 6.91 6.91 0 0 0-6.893 6.893 6.91 6.91 0 0 0 6.893 6.892z"/><path id="E" d="M192.998 99.87a5.65 5.65 0 0 0 5.636-5.636 5.65 5.65 0 0 0-5.636-5.636 5.65 5.65 0 0 0-5.636 5.636 5.65 5.65 0 0 0 5.636 5.636z"/></defs></svg>