<?xml version="1.0" encoding="UTF-8"?>
<svg width="250" height="332.41" version="1.1" viewBox="0 0 250 332.40838" xmlns="http://www.w3.org/2000/svg" xmlns:cc="http://creativecommons.org/ns#" xmlns:dc="http://purl.org/dc/elements/1.1/" xmlns:rdf="http://www.w3.org/1999/02/22-rdf-syntax-ns#">
<defs>
<clipPath id="a">
<path d="m32.863 798.94h61.66v-77.392h-61.66"/>
</clipPath>
<clipPath id="b">
<path d="m38.072 795.16v-68.613h89.813v68.613"/>
</clipPath>
</defs>
<metadata>
<rdf:RDF>
<cc:Work rdf:about="">
<dc:format>image/svg+xml</dc:format>
<dc:type rdf:resource="http://purl.org/dc/dcmitype/StillImage"/>
<dc:title/>
</cc:Work>
</rdf:RDF>
</metadata>
<g transform="translate(-62.034 -539.98)">
<g transform="matrix(4.8447 0 0 -4.8447 -122.41 4392.3)">
<g clip-path="url(#a)">
<g clip-path="url(#b)">
<path d="m63.086 726.94c-0.1099 0.0466-2.7377 1.1775-6.2973 4.0461-3.2129 2.5891-7.9012 7.1987-11.991 14.454-5.3658 9.5185-6.6149 20.271-6.718 27.616-0.1111 7.91 1.0208 13.567 1.0691 13.804l0.1826 0.8963 0.7474 0.527c0.1019 0.0717 2.5409 1.7781 6.5961 3.4692 3.723 1.5525 9.6116 3.4032 16.522 3.4032 6.8784 0 13.124-1.8223 17.152-3.3509 4.3751-1.6603 7.1185-3.3163 7.2332-3.3859l0.8518-0.5169 0.2065-0.9758c0.0458-0.2162 1.1229-5.3927 1.029-12.939-0.0869-6.9666-1.2413-17.352-6.2459-27.269-3.8134-7.5551-8.5763-12.492-11.901-15.303-3.66-3.0949-6.4579-4.3953-6.5751-4.4491l-0.9253-0.4242" fill="#231f20"/>
<path d="m63.536 728c-0.104 0.0442-2.59 1.1147-6.0246 3.8828-3.1343 2.5258-7.7103 7.0263-11.711 14.123-5.2464 9.3068-6.4684 19.856-6.5696 27.066-0.1093 7.791 0.9988 13.326 1.0461 13.558l0.0913 0.4481 0.3737 0.2635c0.0977 0.0688 2.4365 1.7047 6.3757 3.3475 3.6259 1.5121 9.3587 3.3145 16.078 3.3145 6.7038 0 12.805-1.7815 16.743-3.2761 4.2671-1.6193 6.9322-3.2256 7.0436-3.2933l0.4263-0.2586 0.1032-0.4878c0.0448-0.2119 1.0964-5.2749 1.004-12.686-0.0853-6.8447-1.2168-17.044-6.1222-26.764-3.7261-7.3825-8.3735-12.201-11.616-14.942-3.5439-2.9968-6.2006-4.231-6.3118-4.2819l-0.4624-0.2121" fill="#fff"/>
<path d="m41.406 786.4s9.1507 6.4514 21.79 6.4514c12.64 0 23.189-6.4021 23.189-6.4021s4.2843-20.258-5.0199-38.693c-7.0439-13.956-17.38-18.696-17.38-18.696s-9.6113 4.0814-17.182 17.511c-9.9256 17.607-5.3983 39.828-5.3983 39.828" fill="#e21d25"/>
<path d="m53.286 753.07s3.63 21.581 5.4118 26.531c1.7819 4.9498 5.2799 7.9196 5.2799 7.9196s4.884-4.1578 6.4679-9.3056c1.5837-5.1477 4.0917-25.013 4.0917-25.013" fill="#fff"/>
<path d="m53.286 753.07s3.63 21.581 5.4118 26.531c1.7819 4.9498 5.2799 7.9196 5.2799 7.9196s4.884-4.1578 6.4679-9.3056c1.5837-5.1477 4.0917-25.013 4.0917-25.013l-21.251-0.1318z" fill="none" stroke="#231f20" stroke-width="1.1521"/>
<path d="m74.274 756.63s-2.6529 4.9022-10.23 4.8333c-7.1294-0.0646-10.428-4.8333-10.428-4.8333" fill="none" stroke="#231f20" stroke-width=".8064"/>
<path d="m73.482 761.65s-3.6958 3.9596-9.4377 3.7619c-5.7418-0.198-8.9757-3.2999-8.9757-3.2999" fill="none" stroke="#231f20" stroke-width=".8064"/>
<path d="m66.024 758.83c0-0.9017-0.7311-1.6329-1.6331-1.6329h-0.2982c-0.9017 0-1.6327 0.7312-1.6327 1.6329v3.5321c0 0.9018 0.731 1.6328 1.6327 1.6328h0.2982c0.902 0 1.6331-0.731 1.6331-1.6328" fill="#231f20"/>
<path d="m76.385 747.33c0-6.8524-5.5551-12.407-12.408-12.407-6.8525 0-12.408 5.555-12.408 12.407 0 6.8525 5.555 12.408 12.408 12.408 6.8524 0 12.408-5.5551 12.408-12.408" fill="#fff"/>
<path d="m76.385 747.33c0-6.8524-5.5551-12.407-12.408-12.407-6.8525 0-12.408 5.555-12.408 12.407 0 6.8525 5.555 12.408 12.408 12.408 6.8524 0 12.408-5.5551 12.408-12.408z" fill="none" stroke="#231f20" stroke-width="1.1521"/>
<path d="m61.47 741.92s-4.4878 1.98-6.4017 3.564c-1.914 1.5837-3.2339 3.4978-3.2339 3.4978" fill="none" stroke="#231f20" stroke-width="1.1521"/>
<path d="m63.912 746.54s-4.2897 1.2541-6.4017 3.3c-2.1119 2.0458-3.8279 4.1577-3.8279 4.1577" fill="none" stroke="#231f20" stroke-width="1.1521"/>
<path d="m56.454 737.82s7.9859 4.2239 7.9198 9.7018c-0.0661 5.4777-7.5898 9.7014-7.5898 9.7014" fill="none" stroke="#231f20" stroke-width="1.1521"/>
<path d="m63.186 734.99s5.1478 4.2239 6.2038 8.3817c1.0561 4.1581 0.33 5.544 0.33 5.544" fill="none" stroke="#231f20" stroke-width="1.1521"/>
<path d="m75.396 752.08s-3.4309 1.9139-5.8738 1.9139c-3.6299 0-6.4018-1.9797-6.4018-1.9797" fill="none" stroke="#231f20" stroke-width="1.1521"/>
<path d="m71.436 757.16s-3.63 0.7922-6.6658 0c-3.0358-0.792-4.8838-2.0458-4.8838-2.0458" fill="none" stroke="#231f20" stroke-width="1.1521"/>
<path d="m76.254 748.12s-1.0561 1.1219-2.838 1.188-3.6958-0.8578-3.6958-0.8578-0.66 1.0557-2.508 1.1878c-1.8478 0.132-2.9699-0.66-2.9699-0.66" fill="none" stroke="#231f20" stroke-width="1.1521"/>
<path d="m49.498 768.35 6.9628 6.963-6.9626 6.9627 7.4834 7.4835 6.9627-6.9627 6.9627 6.9627 7.4837-7.4835-6.9629-6.9627 6.9629-6.963-7.4837-7.4835-6.9627 6.963-6.9629-6.963" fill="#fff"/>
<path d="m70.908 790.49-6.9627-6.9626-6.9627 6.9626-8.2166-8.2166 6.9627-6.9627-6.9628-6.963 8.2165-8.2166 6.9629 6.963 6.9627-6.963 8.2168 8.2166-6.9629 6.963 6.9629 6.9627-8.2168 8.2166zm0-1.4663 6.7506-6.7503-6.2298-6.2296-0.7333-0.7331 0.7333-0.7333 6.2298-6.2297-6.7506-6.7504-6.2294 6.2299-0.7333 0.7333-0.7331-0.7333-6.2298-6.2299-6.7502 6.7504 6.2296 6.2297 0.7332 0.7333-0.7332 0.7331-6.2295 6.2296 6.7503 6.7503 6.2296-6.2295 0.7331-0.7331 0.7333 0.7331 6.2294 6.2295" fill="#231f20"/>
<path d="m56.179 782.04 0.8067 0.8068c0.2877 0.2877 0.6286 0.7326 0.1532 1.208-0.3342 0.3342-0.7026 0.3519-1.292-0.2374l-0.7226-0.7226 1.0547-1.0548zm-3.8608 0.7739 2.9394 2.9396c0.8771 0.877 2.1472 1.1222 3.1499 0.1195 0.5496-0.5496 0.8904-1.3674 0.5787-2.0801 0.5919 0.25 1.3417 0.0195 2.0588-0.5854 0.281-0.239 0.9192-0.8632 1.3047-0.968l-1.5435-1.5434c-0.3445 0.1902-0.6473 0.4369-0.9432 0.6907-0.5471 0.4629-1.1164 0.9481-1.7268 0.3377l-0.8208-0.8208 1.8491-1.8493-1.5434-1.5434" fill="#231f20"/>
<path d="m72.572 779.46c-1.4707-1.4704-2.9267-1.4255-4.4564 0.104-1.5295 1.5294-1.5814 2.9926-0.1109 4.4633l3.2531 3.2531 1.5435-1.5435-2.8891-2.8892c-0.5422-0.5421-1.2182-1.218-0.4676-1.9687 0.7298-0.7295 1.4058-0.0536 1.9477 0.4884l2.8893 2.8892 1.5433-1.5435" fill="#231f20"/>
<path d="m52.083 768.46 3.8726 3.8726 1.3591-1.3591-2.329-2.3293 0.661-0.661 1.9995 1.9995 1.2626-1.2626-1.9995-1.9995 2.0201-2.0201-1.5433-1.5433" fill="#231f20"/>
<path d="m72.529 768.04c0.165 0.2213 0.6116 0.9482-0.0268 1.5868-0.7226 0.7226-1.697 0.2112-2.4099-0.5017-0.713-0.713-1.2241-1.6871-0.5015-2.4096 0.5191-0.5194 1.1089-0.3364 1.6976 0.0698l1.5153-1.5153c-1.0694-1.0697-3.0265-1.385-4.493 0.0812-1.6204 1.6206-1.329 3.7501 0.2381 5.3175 1.6712 1.6709 3.7742 1.7812 5.3175 0.2379 1.3677-1.3826 1.3602-2.9052 0.164-4.3679" fill="#231f20"/>
<path d="m66.601 775.24c0-1.4945-1.2115-2.7059-2.7058-2.7059-1.4945 0-2.7058 1.2114-2.7058 2.7059s1.2113 2.706 2.7058 2.706c1.4943 0 2.7058-1.2115 2.7058-2.706" fill="#231f20"/>
</g>
</g>
</g>
</g>
</svg>
