<svg xmlns="http://www.w3.org/2000/svg" width="436.7" height="700"><g transform="matrix(.999981 0 0 1 0 381.76001)"><path d="M218.398 318.24l218.3-305.238L391.1-278.775 218.1-381.76 45.62-278.753 0 13.1z" fill="#e22418"/><path d="M218.398 293.473L421.663 9.284l-43.618-278.91-159.955-95.22-159.427 95.22L15.067 9.372z"/><g fill="#fff"><path d="M149.705-39.195l28.55 6.093L211.6-56.44l-7.83-21.05-22.92-20.94-35.194 10.404-12.142 26.22zm-.308-117.04l-30.222-14.803-2.156 13.813 15.265 16.54 22.722 3.717 15.683 25.075-6.07-45.906zm48.92 123.53l-36.03 21.028-4.707 29.85 43.838 60.95 16.52-23.118 16.98 23.162 43.596-60.005-4.883-30.728-34.82-21.138h-40.495zm51.03-135.87l22.172-13.68h63.524l-26.703-41.198-50.943-30.486L218-230.227l-39.55-23.822-51.12 30.838-26.373 40.957h62.755l22.986 13.68-8.754 56.684h79.56z"/><path d="M288.74-157.38l-23.074-1.76-18.28 22.898 9.766 24.35-1.496 13.462-23.052 20.742-6.07 21.248 33.346 23.338 25.89-5.653 16.52-22.942-12.186-25.955 7.15-24.24 29.233-23.712-5.983-37.877z"/></g></g></svg>