<svg xmlns="http://www.w3.org/2000/svg" height="286.39" viewBox="0 0 229.625 286.38593" width="229.62"><g transform="matrix(.45125 0 0 .45125 2.0678 1.9323)"><path d="m486.19 33.001c-11.2-3.378-113.02-33.001-236.19-33.001-123.18 0-224.99 29.623-236.19 33.001l-13.81 4.164v14.423 268.73c0 50.478 13.844 99.731 41.147 146.39 27.665 47.276 61.779 78.706 79.652 93.235 58.438 47.496 117.29 64.136 126.46 65.444l2.744 0.392 2.745-0.392c9.166-1.309 68.019-17.949 126.46-65.444 17.874-14.529 51.988-45.958 79.653-93.235 27.3-46.65 41.14-95.9 41.14-146.38v-268.73-14.423l-13.81-4.164z"/><path fill="#fff" d="m250 19.414c-121.48 0-222.47 29.729-230.59 32.175v268.73c0 104.54 64.762 184.84 113.63 224.56 55.014 44.711 110.96 60.435 116.96 61.291 5.991-0.855 61.943-16.58 116.96-61.292 48.868-39.72 113.63-120.02 113.63-224.56v-268.73c-8.11-2.441-109.11-32.17-230.59-32.17z"/><path d="m466.44 320.32c0 44.441-12.298 87.991-36.553 129.44-24.989 42.706-55.745 71.048-71.854 84.141-10.713 8.706-21.406 16.188-31.544 22.576l-64.01-115.87c-0.797 0.138-1.606 0.259-2.413 0.373-3.301 0.458-6.672 0.716-10.111 0.716-40.095 0-72.599-32.505-72.599-72.605 0-17.987 6.557-34.431 17.387-47.114l-0.006-0.013c0.444-0.521 0.88-1.05 1.338-1.558l-67.958-123.03h-15.676l67.23 121.7c-10.09 14.114-16.041 31.377-16.041 50.011 0 47.605 38.731 86.331 86.326 86.331 1.664 0 3.308-0.054 4.947-0.147l59.823 108.29c-11.109 6.384-21.188 11.354-29.367 15.03-17.426 7.835-30.294 11.763-35.354 13.089-5.06-1.326-17.927-5.253-35.354-13.089-18.06-8.118-45.329-22.463-72.679-44.691-16.1-13.08-46.857-41.43-71.846-84.13-24.256-41.46-36.554-85.01-36.554-129.45v-258.03c11.877-3.21 33.371-8.598 61.232-13.801 53.068-9.906 105.29-14.929 155.21-14.929 49.923 0 102.14 5.024 155.21 14.93 27.859 5.201 49.354 10.591 61.231 13.8v258.03z"/><path fill="#0067b1" d="m250 33.561c-49.923 0-102.14 5.0237-155.21 14.93-27.861 5.202-49.355 10.59-61.232 13.799v258.03c0 44.441 12.298 87.992 36.553 129.44 24.989 42.706 55.745 71.049 71.854 84.143 27.35 22.228 54.62 36.573 72.68 44.691 17.426 7.835 30.293 11.762 35.354 13.088 5.06-1.326 17.927-5.2519 35.354-13.088 8.18-3.676 18.258-8.6472 29.367-15.031l-2.2891-4.1445c-4.86 2.794-9.5262 5.3212-13.91 7.5742l-52.1-94.37c-1.9-0.064-3.7805-0.17589-5.6465-0.33789l0.008 0.0176c-52.925-4.647-94.443-49.074-94.443-103.21 0-17.006 4.1265-33.048 11.396-47.207 0.38-0.72899 0.76621-1.4586 1.1582-2.1836 0.1-0.186 1.1295-2.0473 1.5625-2.7793l-66-119.54h-5.4531l65.99 119.53c-8.547 15.486-13.424 33.273-13.424 52.18 0 57.606 45.173 104.81 101.95 108.16l50.738 91.896c-3.889 1.927-7.5228 3.633-10.84 5.125-16.937 7.615-29.187 11.322-33.41 12.5-4.224-1.178-16.472-4.884-33.412-12.5-17.802-8.002-44.681-22.142-71.633-44.047-15.86-12.892-46.142-40.798-70.754-82.859-23.825-40.714-35.904-83.458-35.904-127.05v-254.4c13.008-3.432 32.662-8.1702 57.363-12.781 52.767-9.847 104.7-14.84 154.33-14.84 49.631 0 101.56 4.9956 154.34 14.85 24.695 4.61 44.352 9.3492 57.363 12.781v254.39c0 43.589-12.079 86.336-35.904 127.05-24.612 42.064-54.893 69.967-70.752 82.857-10.473 8.512-20.93 15.839-30.852 22.1l2.293 4.1523c10.139-6.388 20.833-13.87 31.545-22.576 16.109-13.093 46.865-41.435 71.854-84.141 24.255-41.452 36.553-85.001 36.553-129.44v-258.03c-11.87-3.209-33.36-8.599-61.22-13.8-53.07-9.907-105.29-14.929-155.21-14.929zm-116.45 163.82 65.836 119.31c10.934-10.531 25.142-17.673 40.955-19.758l-53.752-99.555h-53.039zm107.19 0 69.334 130.57 7.7442 14.588 0.084 0.14843 26.641-48.561-50.344-96.75h-53.459zm106 0 24.445 48.188 26.439-48.188h-50.885zm24.441 48.205-26.639 48.566h91.734v-48.566h-65.096zm-53.291 97.125v0.004c3.209 8.216 4.9863 17.142 4.9863 26.488 0 7.697-1.1992 15.109-3.4082 22.078h104.53c5.608-15.995 9.3083-32.211 11.072-48.57h-117.18zm-50.934 97.123 26.795 48.561h69.184c11.939-12.394 25.438-28.616 37.723-48.561h-133.7z"/><path fill="#d8d9da" d="m279.92 378.72c-3.204 9.465-11.561 23.929-13.502 27.241-1.817 0.381-8.543 1.645-16.978 1.645-5.589 0-10.842-0.55-15.627-1.64-1.937-3.303-10.292-17.778-13.5-27.246 3.07-4.599 10.797-15.634 19.258-23.698h21.09c8.458 8.064 16.185 19.099 19.259 23.698m-54.2-47.917c-8.553-1.637-17.487-2.032-22.222-2.118-8.038 10.037-13.56 22.265-14.901 25.379 1.817 11.557 7.266 21.913 8.346 23.808 3.727 0.332 7.604 0.5 11.545 0.5 5.319 0 9.2-0.303 10.632-0.43 5.201-13.631 11.892-25.617 13.458-28.367l-6.858-18.772zm71.062-2.118c-4.75 0.085-13.711 0.48-22.286 2.124l-6.848 18.753c1.566 2.749 8.262 14.745 13.462 28.38 1.428 0.127 5.311 0.43 10.632 0.43 3.943 0 7.832-0.169 11.567-0.501 1.085-1.905 6.54-12.279 8.356-23.849-1.364-3.188-6.806-15.313-14.883-25.337"/><path fill="#adafb2" d="m195.32 405.74-2.518 1.129c-7.407-11.216-11.324-24.268-11.324-37.771 0-4.488 0.433-8.971 1.29-13.341 0.813-0.013 2.412-0.106 4.435-0.5 0.469 3.458 2.313 14.679 7.686 25.066-1.173 3.917-2.85 12.821 0.431 25.417m109.58 0 2.512 1.129c7.411-11.216 11.328-24.268 11.328-37.771 0-4.488-0.432-8.971-1.292-13.341-0.813-0.013-2.415-0.106-4.435-0.5-0.465 3.458-2.312 14.679-7.686 25.066 1.175 3.917 2.848 12.821-0.427 25.417"/><path fill="#717073" d="m218.32 423.23c1.708 5.194 2.905 7.524 3.387 8.349-11.155-5.079-20.695-13.014-27.763-23.083l2.388-0.521c5.803 7.719 18.107 13.545 21.988 15.255m63.62 0c-1.707 5.194-2.898 7.524-3.384 8.349 11.155-5.079 20.696-13.014 27.764-23.083l-2.385-0.521c-5.805 7.719-18.108 13.545-21.995 15.255"/><path fill="#919195" d="m278.45 421.94c-0.97-0.963-2.475-2.479-4.092-4.205-3.404-3.634-5.911-6.932-7.469-9.338-16.584 3.981-30.232 0.853-33.548-0.055-3.205 4.972-9.696 11.782-12.257 14.282 0.219 1.607 0.911 6.109 2.246 9.368 0.063 0.138 0.117 0.256 0.181 0.39 8.431 3.546 17.377 5.343 26.603 5.343 9.071 0 17.878-1.741 26.203-5.179 1.582-3.502 2.351-8.891 2.522-10.219-0.123-0.125-0.243-0.243-0.389-0.387"/><path fill="#fff" d="m103.88 75.094c-5.864 0-11.349 1.1015-16.451 3.3125-5.102 2.197-9.5748 5.2235-13.426 9.0645-3.844 3.844-6.7305 8.3278-8.9395 13.469-2.209 5.133-3.2168 10.586-3.2168 16.373 0 5.854 1.0068 11.332 3.2168 16.426 2.209 5.099 5.0955 9.5477 8.9395 13.348 3.851 3.806 8.3238 6.8066 13.426 9.0176 5.102 2.207 10.586 3.3066 16.451 3.3066 3.198 0 6.3438-0.34035 9.4258-1.0274 3.089-0.684 6.2266-1.7866 9.4316-3.3086l0.14258-0.10938 0.0977 0.16797 1.7949 2.8398h20.713l-8.6172-13.582-0.16211-0.25976c3.281-4.232 5.5217-8.6264 6.9707-13.189 1.479-4.679 2.127-9.2219 2.127-13.629 0-5.787-1.0108-11.24-3.2168-16.373-2.209-5.142-5.0769-9.6042-8.8809-13.41-3.814-3.799-8.267-6.8204-13.375-9.0684-5.1-2.239-10.584-3.3672-16.451-3.3672zm307.36 16.818c-12.112 0-21.012 4.7361-24.412 12.996-1.061 2.471-1.6445 5.355-1.6445 8.127 0 12.475 9.1147 16.607 15.971 18.525 0.847 0.22 2.7835 0.62284 5.0215 1.0898 4.137 0.866 9.2834 1.945 10.693 2.502 3.207 1.128 3.6816 3.3435 3.6816 4.5625 0 5.014-7.3312 5.4004-9.5762 5.4004-2.919 0-6.0611-0.549-8.6211-1.5-2.765-0.975-4.5325-2.1764-5.8125-3.4434-0.812-0.809-1.5166-1.6347-2.1406-2.4707-0.054-0.077-0.18314-0.27159-0.36914-0.55859-0.247-0.381-0.44922-0.73438-0.44922-0.73438l-12.139 8.0234h-29.889v-13.42h23.215v-13.598h-23.215v-10.904h27.861v-13.602h-44.848v65.117h47.5v-9.6641c2.78 3.283 7.0685 7.2771 14.395 9.5371 4.099 1.292 8.623 1.916 13.832 1.916 10.076 0 17.688-2.7542 22.617-8.2012 2.391-2.621 5.2344-7.2169 5.2344-14.211-0.001-15.738-13.345-18.192-26.24-20.572-5.263-1.01-8.709-2.0785-8.709-5.6445 0-3.02 2.6853-4.7539 7.3633-4.7539 1.592 0 7.1252 0.17703 11.408 2.457 2.412 1.338 3.5344 2.8124 4.4394 4.0254l11.07-10.113c-2.027-2.271-4.1643-4.6015-8.3223-6.8105-4.958-2.669-11.151-4.0781-17.916-4.0781zm-307.41 0.35547c5.176 0 9.9495 1.5727 13.896 4.2637 0.149 0.106 0.29055 0.21541 0.43555 0.31641 0.178 0.126 0.35434 0.25091 0.52734 0.37891 6.025 4.556 9.8867 11.827 9.8867 20.021 0 4.331-1.0764 8.4012-2.9824 11.949h-19.314l6.9492 10.771 0.17773 0.26953-0.1543 0.13672c-0.229 0.095-0.46036 0.18834-0.69336 0.27734-0.083 0.029-0.16604 0.0608-0.24804 0.0918-0.25 0.091-0.499 0.17581-0.75 0.25781-0.145 0.047-0.2886 0.0967-0.4336 0.13867-0.213 0.065-0.42757 0.1226-0.64257 0.1836-0.18001 0.051-0.35416 0.10244-0.53516 0.14844-0.208 0.051-0.41995 0.0985-0.62695 0.14453-0.187 0.042-0.3696 0.087-0.5586 0.125-0.238 0.049-0.47475 0.0879-0.71875 0.1289-0.158 0.029-0.31656 0.059-0.47656 0.084-0.314 0.047-0.63222 0.0851-0.94922 0.11914-0.091 0.013-0.17853 0.0261-0.26953 0.0371-0.834 0.083-1.6782 0.125-2.5352 0.125-0.428 0-0.85339-0.0113-1.2754-0.0293-13.185-0.674-23.465-11.58-23.465-24.951 0-13.8 10.954-24.988 24.756-24.988zm169.5 0.59766v53.805l3.6934 11.363h13.311v-65.168h-17.004zm36.143 0-18.951 31.328 20.475 33.844h19.881l-20.477-33.844 18.951-31.328h-19.879zm-158.02 0.04297v36.9l0.002 0.28321c0.192 7.305 0.389 14.866 7 21.303 5.9 5.657 12.617 8.1836 21.758 8.1836 10.386 0 16.063-3.2772 21.283-8.2012 8.022-7.637 8.0234-18.068 8.0234-26.303v-32.166h-17.193v39.072c0 2.909-0.00045 6.8977-3.3144 10.098-1.222 1.139-4.0558 3.0488-8.5938 3.0488-3.548 0-6.5861-1.125-8.5391-3.166-3.171-3.094-3.1719-7.0715-3.1719-9.9805v-39.072h-17.254zm77.932 0-21.424 65.115h17.275l14.727-45.014 7.5117 23.111h-10.109l-4.4688 13.592h19.053l2.7344 8.3106h17.375l-21.436-65.115h-21.238zm-75.01 76.562c-1.741 0-4.9158 0.17577-6.6758 2.0098-0.788 0.806-1.2812 1.898-1.2812 3.084 0 2.88 2.532 3.781 3.125 4 0.607 0.205 1.1895 0.35824 1.8125 0.49024 0.785 0.18 4.3382 0.80734 5.0332 1.0273 0.445 0.159 1.0488 0.47199 1.0488 1.209 0 0.54-0.40416 0.98398-0.78516 1.209-0.561 0.309-1.3818 0.37891-1.9648 0.37891-2.233 0-3.2843-0.7815-3.4863-1.8125l-5.5606 0.1582c0.087 0.713 0.28944 2.166 1.6484 3.373 1.858 1.654 5.0088 1.7871 6.5918 1.7871 4.246 0 6.9026-0.87133 8.2246-2.8613 0.468-0.69 0.82812-1.6531 0.82812-2.7031 0-1.425-0.67334-2.9955-2.7773-3.7715-0.669-0.27-1.3343-0.4325-2.0293-0.5625-1.072-0.246-2.1643-0.45241-3.2383-0.69141-0.869-0.179-2.4608-0.53829-2.8398-1.0293-0.112-0.13598-0.17969-0.33454-0.17969-0.56054 0-1.16 1.7414-1.2725 2.4844-1.2715 2.365 0 2.6385 0.93613 2.7695 1.4531l5.541-0.31445c-0.153-0.849-0.53438-3.063-3.4844-3.998-0.98302-0.334-2.8877-0.60352-4.8047-0.60352zm98.047 0c-1.737 0-4.9118 0.17577-6.6738 2.0098-0.784 0.806-1.2734 1.898-1.2734 3.084 0 2.88 2.5259 3.781 3.1309 4 0.598 0.205 1.1827 0.35824 1.8047 0.49024 0.783 0.18 4.3402 0.80734 5.0312 1.0273 0.446 0.159 1.0508 0.47199 1.0508 1.209 0 0.54-0.40616 0.98398-0.78516 1.209-0.559 0.309-1.3848 0.37891-1.9648 0.37891-2.237 0-3.2912-0.7815-3.4902-1.8125l-5.5606 0.1582c0.086 0.713 0.29335 2.166 1.6524 3.373 1.854 1.654 5.0048 1.7871 6.5918 1.7871 4.246 0 6.9087-0.87133 8.2227-2.8613 0.47-0.69 0.82813-1.6531 0.82813-2.7031 0-1.425-0.66944-2.9955-2.7734-3.7715-0.669-0.27-1.3363-0.4325-2.0293-0.5625-1.07-0.246-2.1682-0.45241-3.2402-0.69141-0.874-0.179-2.4578-0.53829-2.8438-1.0293-0.112-0.13598-0.17383-0.33454-0.17383-0.56054 0-1.16 1.7404-1.2725 2.4844-1.2715 2.364 0 2.6305 0.93613 2.7715 1.4531l5.5371-0.31445c-0.153-0.849-0.53433-3.063-3.4863-3.998-0.983-0.334-2.8816-0.60352-4.8106-0.60352zm-20.518 0.0879c-2.797 0.045-6.5507 0.5595-8.7617 3.6875-1.007 1.424-1.4551 3.1735-1.4551 4.9375 0 1.808 0.42695 3.3277 1.502 4.7617 1.157 1.581 3.415 3.5293 8.916 3.5293 2.86 0 5.4068-0.40161 7.5488-2.0996 0.764-0.581 1.384-1.299 1.877-2.125 0.787-1.294 1.1387-2.8141 1.1387-4.2871 0-2.706-1.2716-6.0143-4.8926-7.4863-1.811-0.737-3.907-0.93897-5.873-0.91797zm-62.361 0.57813-6.7891 15.775h6.1875l3.8398-11.395 1.8594 5.3438h-2.2246l-1.1738 3.4844h4.5879l0.84179 2.5664h6.1484l-6.8398-15.775h-6.4375zm13.713 0v13.088l1.168 2.6875h4.416l-0.0879-8.6894 7.5703 8.6894h4.6953v-15.775h-5.5645l0.11328 8.6328-7.6387-8.6328h-4.6719zm30.973 0v10.414c-0.062 1.546-0.76084 1.5908-1.9648 1.6328h-1.2734v3.7266h3.2402c1.585-0.045 3.2606-0.10489 4.4726-1.3379 1.14-1.161 1.1617-2.5922 1.1777-3.6172v-10.818h-5.6504-0.002zm48.422 0v15.775h16.848v-3.5703h-11.217v-2.502h10.164v-3.5781h-10.143v-2.5664h10.975v-3.5586h-16.627zm-30.416 2.9297c3.865 0.044 4.627 3.2214 4.627 4.9414 0 1.588-0.60271 3.6387-2.3457 4.5137-0.694 0.358-1.4962 0.44532-2.2812 0.44532-3.42 0-4.7344-2.522-4.7344-4.959 0-2.169 1.1814-4.9884 4.7344-4.9414zm-168.5 2.5469v4.752h70.854v-4.752h-70.854zm185.55 124.85c-17.558 0.21-34.142 7.0108-46.789 19.215 0.039 1.159 0.24365 4.2431 1.2226 7.3281 9.432-1.478 18.66-2.04 24.812-2.252 0 0 7.5807-7.7744 18.262-12.773l2.4922-11.518zm1.6875 0 2.4863 11.518c10.689 4.999 18.264 12.773 18.264 12.773 6.159 0.212 15.387 0.77396 24.814 2.252 0.979-3.085 1.1865-6.1691 1.2285-7.3281-12.65-12.204-29.237-19.005-46.793-19.215z"/><path fill="#e31837" d="m321.87 170.14v3.5566h11.492c-9.655 4.292-10.057 12.219-10.057 12.219h5.9863s-0.32247-5.8558 9.2695-12.219v-3.5566h-16.691zm-10.414 0.002c-0.585 0-3.704 0.0463-5.791 0.98828-2.353 1.076-3.0527 2.9594-3.0527 4.4434 0 3.452 3.0998 4.9141 6.8008 4.9141 3.257 0 4.464-1.077 5.252-1.75-0.022 0.648-0.13566 2.1311-1.3477 3.1191-0.715 0.585-1.6562 0.7832-2.5762 0.7832-1.442 0-1.9126-0.56024-2.2676-0.99024l-5.8789 0.14063c0.403 1.501 1.2067 2.8228 3.6367 3.5898 1.565 0.493 3.1145 0.58203 4.3555 0.58203 2.218 0 4.6637-0.20264 6.6367-1.6816 2.605-1.974 2.9199-4.9566 2.9199-6.6406 0-5.322-3.4125-7.498-8.6875-7.498zm-16.34 0.26758c-1.117 0.854-2.3344 1.7509-4.9844 2.0449v3.2344h3.6816v9.9336h5.25v-15.213h-3.9473zm50.934 0.38086-8.9414 9.0723v3.3105h9.9238v2.7422h5.0254v-2.7422h2.6836v-3.5566h-2.6328v-8.8262h-6.0586zm-35.084 2.6738c2.265-0.068 3.5215 0.42429 3.5215 1.9043 0 1.236-1.1471 1.8398-3.3691 1.8398-0.649 0-3.1191-0.0214-3.1191-1.8594 0-1.617 1.7758-1.8398 2.9668-1.8848zm36.086 1.3262v4.8262h-4.7774l4.7774-4.8262zm17.176 0.82617v4.752h72.051v-4.752h-72.051z"/></g></svg>
