<?xml version="1.0" encoding="UTF-8" standalone="no"?>
<svg id="svg81" height="221.06215" viewBox="0 0 337.49999 165.79661" width="450" xmlns="http://www.w3.org/2000/svg">
   <g id="surface36" transform="matrix(.88034806 0 0 .88034806 -183.38751 -181.20487)">
      <path id="path2" d="m537.87109 319.51953c1.03125-1.29687 8.64844-11.33203 9.59766-26.07031 0 0 12.51953 21.83594 34.39844 26.07031zm-25.60156 0c6.46875-2.36719 14.36719-7.73047 18.11328-19.875 0 0 2.2461 13.23828 7.26172 19.875zm-247.68359 0c1.44922-2.48828 5.4375-10.20703 6.10156-20.85937 0 0 4 15.37109 16.79687 20.85937zm-48.64063 0c8.77344-.63281 24.50391-5.00781 37.82813-26.06641 0 0 2.92578 19.75391 9.29687 26.06641zm374.50781 0c-3.67968-4.10547-23.27734-25.92578-27.13671-29.69922 0 0 10.09765.9375 6.71875-.79297-11.29297-5.78125-20.59375-21.86718-25.39844-22.77343 0 0 5.95312.625 5.05469-1.21094-.22266-.46094-6.75391-1.21485-17.75782-12.4375-11.01172-11.23047-24.85547-14-24.85547-14 12.98047-2.51172 12.1875-4.1211 12.1875-4.1211-5.26562-.51171-18.42187-3.27734-23.20703-6.30468-4.78515-3.02735-33.58984-11.33203-33.58984-11.33203 4.03516-2.14063 4.40625-5.11329 4.40625-5.11329 0 0-13.32422 2.6211-21.88281-1.35937-12.50391-5.81641-26.78516-4.04688-26.78516-4.04688l-11.00391-.10937-5.77734 4.76172-5.33984-5.09766-12.03516-.004c0 0-15.125-.71875-23.87891 3.55078-8.7539 4.27343-24.4375 2.28515-24.4375 2.28515 0 0 .88672 2.98828 4.07422 5.08203 0 0-19.88281 5.42579-26.79297 8.6836-6.91015 3.2539-25.99218 8.6875-30.46875 9.33203 0 0-.0273 2.75 13.25782 4.02344 0 0-15.85547 3.85937-26.51172 14.98828-10.65625 11.13281-16.73438 11.53125-17.53906 11.7539-.8086.21875 2.62109 1.85938 4.33984 1.64454 1.71875-.21094-4.89063 4.59765-12.50391 12.60546-7.99218 8.40235-12.80859 8.92969-13.16797 10.07032-.35156 1.14453 9.51954-.48047 9.51954-.48047 0 0-9.34375 6.21484-17.23438 16.11328-7.89453 9.89453-13.54687 13.73828-13.54687 13.73828 0 0 .70312.14844 1.96484.25h-2.8125v74.64453h383.37109v-74.64453zm0 0" fill="#ff0f00"/>
      <path id="path4" d="m215.19141 326.39453h369.61718v60.89453h-369.61718zm0 0" fill="#fff"/>
      <path id="path6" d="m294.55469 319.87109c0 0-21.51953-3.07422-22.53907-27.96093l4.28907-5c0 0-1.64844 4.79687-.66016 9.27734 0 0 .65625-8.82031 3.91016-13.48828 0 0-1.81641 10.18359 1.10547 16.28906 0 0 .92968-1.36719.0898-9.17187-.84375-7.80079 2.17187-11.44141 2.17187-11.44141 0 0-1.33984 31.625 11.63282 41.49609" fill="#fff"/>
      <path id="path8" d="m263.96094 318.42578c0 0-7.38282-7.0625-8.6875-25.99219l4.09375-8.32812 3.80078-2.02344c0 0-6.88672 12.76953-4.44141 20.81641 0 0 1.51172-2.50391 4.16016-3.51172 2.64453-1.00391 7.05469-6.23438 7.05469-6.23438 0 0-.51172 17.07422-5.98047 25.27344" fill="#fff"/>
      <path id="path10" d="m212.14844 318.26562c0 0 5.3125-3.84375 14.35937-14.64843 5.00391-5.97657 16.19922-15.66016 21.35547-15.61328 0 0-7.5 5.54687-7.86719 7.72265-.36328 2.17188 12.8125-9.16015 12.8125-9.16015 0 0-6.03515 7.62109-9.49609 9.99218-2.08203 1.42578 1.24219 1.84766 12.59375-10.07812 0 0-13.94531 31.04297-43.75781 31.78515" fill="#fff"/>
      <path id="path12" d="m236.28516 288.23828c0 0 5.78906-3.97656 9.83203-8.84766 4.05859-4.89062 13.0664-11.79296 15.36718-12.34375 2.29688-.55078 14.02344-4.10546 14.02344-4.10546 0 0-15.25 9.125-16.26562 10.38671-1.27344 1.59375-1.625 2.16407 13.24609-6.63281 0 0-6.47266 5.55469-6.58984 6.01172-.1211.45703 6.45312-3.49219 20.65625-14.01562 0 0 1.14062.8164-5.08985 4.65234-6.22656 3.83594-15.16015 14.64062-17.0039 15.76953-1.84375 1.12891-14.0625 7.66016-28.17578 9.125" fill="#fff"/>
      <path id="path14" d="m259.79297 299.24219c0 0-.6211-18.34766 22.92187-34.51172 0 0-8.58203 9.89062-9.17968 12.40625-.59766 2.51562 8.22656-8.7461 8.22656-8.7461 0 0-4.04688 7.80469-7.33203 11.27735-1.50782 1.58984 1.22656 3.33594 9.86718-12.97266 0 0-.40234 6.30078-1.10156 7.44141-.69922 1.14062-4.16406 9.09765-18.08984 21.14453-1.96485 1.69922-5.3125 3.96094-5.3125 3.96094" fill="#fff"/>
      <path id="path16" d="m258.29297 264.95312c0 0 6.21875-2.6914 11.32031-8.83203 5.10547-6.14062 19.52734-15.6289 32.94531-16.41797 0 0-10.79687 5.85547-18.07812 8.42579-1.26563.44531-.14453 2.86328 13.5664-4.22657 0 0-3.16406 2.72657-7.03515 4.40235-2.07031.89843-1.30078 4.11718 15.3164-7.1875 0 0-23.59765 21.89453-48.03515 23.83593" fill="#fff"/>
      <path id="path18" d="m284.90234 287.22266c0 0-3.73437-28.8125 13.66016-37.23829 0 0-5.97656 13.125-5.75391 13.81641.22266.6875 6.67188-13.92187 8.28516-14.9375 0 0-6.82422 17.92969-6.26172 19.3125.55859 1.37891 3.63281-8.44922 3.63281-8.44922 0 0 4.16016 8.52344-13.5625 27.4961" fill="#fff"/>
      <path id="path20" d="m301.32031 261.13281c0 0-2.17187-.9414.1836-7.45312 2.35937-6.50782 4.29687-10.10157 8.03906-13.33203 5.78125-4.98829 2.02344 4.49218 26.63672-15.78907 0 0-.71094 2.39844 3.20703.25782 0 0-10.60938 6.30859-10.6211 7.69531-.0273 2.98047-2.66796 3.41406 10.13282-4.83203 0 0-6.92969 5.47656-7.62891 6.6875-1.05078 1.82812.67188 1.72656 7.83984-4.27735 0 0-1.03125 4.1836-21.14843 17.21875-16.03516 10.38672-16.64063 13.82422-16.64063 13.82422" fill="#fff"/>
      <path id="path22" d="m289.07422 235.33203c0 0 10.69531-2.27344 20.12109-6.22266 9.90235-4.14453 21.16406-7.35937 21.16406-7.35937 0 0-16.71093 9.35156 11.375-2.41016 0 0-9.67968 5.17969-15.46093 10.05078-5.77735 4.875-15.47657 11.88282-37.19922 5.94141" fill="#fff"/>
      <path id="path24" d="m340.28906 214.51172c0 0 12.02735 1.14844 19.85938-2.90235 7.83593-4.05078 16.42968-3.625 16.42968-3.625 0 0-11.49609 3.32813 2.83985 2.55079 0 0-.125 1.54687-5.96875.97265-3.89453-.3789-3.01172 3.17969 7.66406 1.45313 0 0-7.69141 1.07031-9.07422 1.97265-1.38281.90625-.14453 3.21094 14.80469-1.57422 0 0-4.60938 7.05469-24.49609 7.90235-15.36719.65234-22.0586-6.75-22.0586-6.75" fill="#fff"/>
      <path id="path26" d="m340.92187 231.94141c0 0 6.3711-6.92969 10.86719-9.29297 0 0 12.23438 3.21484 27.53516-2.48438 0 0-4.84766 4.17969-11.96485 4.46875-2.29296.0937-.1875 7.21875 22.31641-8.14844 0 0-9.46484 6.66797-13.38281 8.8086-3.91797 2.14062 1.48437.8164 1.48437.8164 0 0 4.94532-1.67187 13.83985-8.6914 0 0-9.16407 10.91406-24.65235 12.37109-15.49218 1.45313-12.60937-.125-26.04297 2.15235" fill="#fff"/>
      <path id="path28" d="m385.63672 207.73047l9.05469.0898 4.88281 4.85938-5.19922 3.96093zm0 0" fill="#fff"/>
      <path id="path30" d="m403.57812 225.44531l4.98047-5.45312c0 0 9.66797 7.77343 14.46875 9.19531 0 0-8.75781 4.61719-19.44922-3.74219" fill="#fff"/>
      <path id="path32" d="m408.21875 207.72266l8.36719.082-14.82422 15.55859c0 0-10.76953 11.12891-22.06641 5.85938 0 0 16.00781-7.63672 28.52344-21.5" fill="#fff"/>
      <path id="path34" d="m463.41016 214.10547c0 0-9.29688 1.40234-19.125-2.01953-9.82422-3.41797-14.0586-4.14844-18.41797-3.96094 0 0 5.49218.73828 4.57031 1.76172-.92578 1.02344-6.66016.73828-6.66016.73828 0 0 .13672 1.66797 6.98828.75781 2.41016-.32422.32032 2.75391-6.4375 2.23047 0 0 6.75782.52344 6.74219 1.89844-.0156 1.375-9.98047 1.27734-15.34375-1.98047 0 0 26.66406 16.53125 47.6836.57422" fill="#fff"/>
      <path id="path36" d="m462.20312 232.32031c0 0-5.59765-2.0039-18.78125-2.1289-13.17968-.12891-21.40625-3.07813-32.54687-12.35547 0 0 13.64062 9.58984 15.84766 8.29297 1.15625-.67579-6.94141-4.88282-6.94141-4.88282 0 0 16.42578 8.30078 15.78516 3.48047 0 0-3.44532.76953-12.33985-4.47656 0 0 14.16406 5.06641 27.03516 2.09766 0 0 7.07031 3.85156 11.9414 9.97265" fill="#fff"/>
      <path id="path38" d="m514.21875 235.23437c0 0-14.23047 4.39063-26.94531.42579-10.625-3.3125-10-8.69532-24.4961-15.48438 0 0 23.0625 9.625 10.52735 2.05078 0 0 13.3789 3.34375 23.53515 8.14063 4.13672 1.95312 15.77344 4.73828 17.37891 4.86718" fill="#fff"/>
      <path id="path40" d="m501.12891 260.90234c0 0-3.38672-5.76562-13.64454-11.59765-10.26171-5.83203-24.23437-18.92188-24.23437-18.92188 0 0 17.19141 12.32031 1.28516-2.28125 0 0 20.26562 14.1836 1.05468-2.28125 0 0-1.11328-3.5625 8.21094 4.32422 9.32031 7.88281 15.625 8.17578 17.68359 8.53906 2.0625.36328 10.54688 11.56641 9.64454 22.21875" fill="#fff"/>
      <path id="path42" d="m516.92187 286.73047c0 0 3.375-28.50781-13.16406-36.92188 0 0 4.60156 9.90235 5.14063 13.69141 0 0-4.94532-10.36719-7.54297-14.17578 0 0 5.70703 14.5 5.32422 18.16406 0 0-2.80469-6.21875-3.35938-8.05469 0 0-2.39844 10.63672 13.60156 27.29688" fill="#fff"/>
      <path id="path44" d="m543.62109 264.41016c0 0-15.00781-1.17579-30.16015-10.72657-15.15235-9.54687-16.84375-12.3125-16.84375-12.3125 0 0 11.85156 7.33594 13.10937 7.69141 1.25391.35937 3.32813-.65234 1.15625-1.25-2.17187-.59375-5.92187-3.83984-5.92187-3.83984 0 0 10.60937 5.14453 12.22265 4.35937 1.61328-.78516-.90625-1.38281-.90625-1.38281l-15.39843-7.48828c0 0 18.64843 2.8164 30.68359 15.43359 8.17187 8.5625 12.05859 9.51563 12.05859 9.51563" fill="#fff"/>
      <path id="path46" d="m507.32812 318.85156c0 0 20.19922-2.78125 22.50391-27.40625l-4.19922-4.51562c0 0 1.30469 7.125-.19922 8.71484 0 0-.70703-9.75-3.64062-14.13672 0 0 1.27344 10.32813-.96875 16.61328 0 0 .3789-14.89843-1.86328-20.07812 0 0 2.60547 26.39062-11.63282 40.80859" fill="#fff"/>
      <path id="path48" d="m537.71875 316.96875c0 0-5.73438-11.0625-6.07031-23.90234 0 0 4.55078 3.82812 5.91797 4.52734 1.36718.70312 4.09375 3.25 4.88671 4.51953 0 0 3.48829-5.23828-3.25-19.74609 0 0 1.3711.8164 3.08594 1.17578 0 0 2.11719 6.32422 3.92188 9.20703 0 0-1.05469 14.08984-8.49219 24.21875" fill="#fff"/>
      <path id="path50" d="m541.69141 297.75c0 0-14.35547-8.73828-23.13672-25.44531 0 0-.66016-2.8711-.53125-4.35938 0 0 9.82422 15.45313 9.28906 11.20703 0 0-5.08984-7.15625-5.64453-8.65234-.5586-1.49219 2.1289 1.32812 5.79297 5.55859 1.69922 1.96485-4.16407-7.71875-7.01172-10.03906 0 0 18.1289 9.92188 21.24219 31.73047" fill="#fff"/>
      <path id="path52" d="m564.60156 287.88672c0 0-16.48437-2.33985-25.59375-8.73438-9.94531-6.98047-8.95312-10.63281-23.19922-19.59765 0 0 7.70313 3.53125 18.34375 12.21484 3.41016 2.78516 1.05078-2.05078-4.30859-5.31641 0 0 8.90234 4.5586 11.16797 6.75782 2.27344 2.19922 2.30078-.55078.13672-1.94532-2.16407-1.39843-10.48047-6.86718-13.22266-7.92578 0 0 16.03125 2.10938 22.14844 9.61719 6.11719 7.50781 12.01562 13.87109 14.52734 14.92969" fill="#fff"/>
      <path id="path54" d="m587 318.48047c0 0-25.89844-.71094-41.30469-31.8086l11.14453 9.73438c0 0 2.73828.94531.8086-1.13672-1.92578-2.08203-8.40625-7.64844-8.39844-8.44922.0117-.80469 10.11719 8.69531 11.61328 8.13672 1.49609-.55859-5.67578-6.13281-6.00781-7.16406-.33203-1.03906 7.66406 2.13672 16.83984 13.34375 9.17578 11.21094 14.17188 15.61719 15.30469 17.34375" fill="#fff"/>
      <path id="path56" d="m404.64062 276.86328c0 3.45313-2.74218 6.27344-6.19531 6.27344-3.44922 0-6.27344-2.82031-6.27344-6.27344 0-3.44922 2.82422-6.19141 6.27344-6.19141 3.45313 0 6.19531 2.74219 6.19531 6.19141" fill="#fff"/>
      <path id="path58" d="m418.12891 250.12891h12.14843v43.90625h19.60547v9.64453h-31.7539zm0 0" fill="#fff"/>
      <path id="path60" d="m366.30078 250.12891h12.15234v53.55078h-12.15234zm0 0" fill="#fff"/>
      <path id="path62" d="m228.84375 367.23047c4.28906 3.5 6.79687 4.7539 9.50781 4.7539 2.44141 0 4.15625-1.58593 4.15625-3.76562 0-6.60156-14.0625-11.55469-14.0625-22.51172 0-6.47266 5.61328-11.48828 12.94141-11.48828 3.23437 0 6.33984.85937 9.83594 2.77344v8.44922c-4.48829-2.51172-6.46875-3.23438-8.71485-3.23438-2.4414 0-4.15625 1.25391-4.15625 3.10156 0 5.35157 14.58985 11.88672 14.58985 22.58203 0 7.19532-5.61329 12.60938-13.07422 12.60938-3.5 0-6.80078-1.05469-11.02344-3.56641zm0 0" fill="#ff0f00"/>
      <path id="path64" d="m280.9375 363.20312l-3.5-16.375h-.13281l-3.56641 16.375zm-8.91406-28.65625h10.6289l11.82032 45.35938h-9.90625l-2.11329-9.375h-10.16796l-2.17969 9.375h-9.90235zm0 0" fill="#ff0f00"/>
      <path id="path66" d="m304.04297 334.8125h9.51172l12.21093 25.48437h.13282v-25.48437h9.64062v45.09375h-8.91406l-12.80859-26.60938h-.13282v26.60938h-9.64062zm0 0" fill="#ff0f00"/>
      <path id="path68" d="m361.75 372.31641c7.39453 0 9.70703-5.7461 9.70703-14.78907 0-8.51953-2.11328-15.12109-9.17969-15.12109h-2.96875v29.91016zm-12.67578-37.50391h13.33594c14.1289 0 19.47656 11.22266 19.47656 22.18359 0 10.36719-5.01563 22.91016-18.94922 22.91016h-13.86328zm0 0" fill="#ff0f00"/>
      <path id="path70" d="m387.30078 334.8125h10.36719l6.93359 23.23828h.13281l6.53516-23.23828h10.36719l-14.46094 45.6875h-4.75391zm0 0" fill="#ff0f00"/>
      <path id="path72" d="m430.48047 334.8125h10.23437v45.09375h-10.23437zm0 0" fill="#ff0f00"/>
      <path id="path74" d="m453.45703 334.8125h10.23438v21.85156h.13281l11.28906-21.85156h10.23828l-11.22656 21.45703 14.0625 23.63672h-11.42188l-12.9414-21.78516h-.13281v21.78516h-10.23438zm0 0" fill="#ff0f00"/>
      <path id="path76" d="m496.70703 334.8125h26.27734v7.78906h-16.04687v10.5h14.92187v7.78906h-14.92187v11.22657h16.64062v7.78906h-26.87109zm0 0" fill="#ff0f00"/>
      <path id="path78" d="m535.19922 334.8125h9.50781l12.21484 25.48437h.12891v-25.48437h9.64063v45.09375h-8.91407l-12.80859-26.60938h-.12891v26.60938h-9.64062zm0 0" fill="#ff0f00"/>
   </g>
</svg>
