<?xml version="1.0" encoding="UTF-8"?>
<svg width="119.11pt" height="129.7pt" version="1.2" viewBox="0 0 119.11 129.7" xmlns="http://www.w3.org/2000/svg" xmlns:cc="http://creativecommons.org/ns#" xmlns:dc="http://purl.org/dc/elements/1.1/" xmlns:rdf="http://www.w3.org/1999/02/22-rdf-syntax-ns#">
<metadata>
<rdf:RDF>
<cc:Work rdf:about="">
<dc:format>image/svg+xml</dc:format>
<dc:type rdf:resource="http://purl.org/dc/dcmitype/StillImage"/>
<dc:title/>
</cc:Work>
</rdf:RDF>
</metadata>
<defs>
<clipPath id="a">
<path d="m11.152 6.0273h119.11v129.7h-119.11z"/>
</clipPath>
</defs>
<g transform="translate(-11.152 -6.0294)">
<path d="m70.785 135.5c3.7578 0 9.3203-3.0625 14.992-7.1758 17.566-12.836 44.246-43.184 44.246-81.156 0-6.4727-0.75782-13.047-2.4648-19.824l-0.64843-2.707h-2.9024c-0.90625 0-1.6641 0-2.4102 0.05469-0.60157 0-1.1602 0.05078-1.707 0.05078h-4.168c-0.25 0-0.45313-0.05078-0.64844-0.05078h-4.0117l0.34766-3.7148v-1.3984c0-0.65625-0.0508-1.7148-0.34766-2.7695-0.30078-0.89453-1.1016-2.7031-3.4102-3.1562-1.4609-0.30469-3.7148-0.75781-6.4297-1.25-1.6484-0.30469-3.5-0.65235-5.4063-1.0547-0.21094-0.050781-0.41406-0.10547-0.60938-0.10547-0.25391-0.050781-0.45312-0.09375-0.65234-0.14453-0.79688-0.14844-1.6562-0.30469-2.4531-0.45312-8.8281-1.707-18.211-3.4609-20.516-4.1133l-0.90625-0.25391-0.90625 0.25391c-2.3047 0.65234-11.688 2.4062-20.52 4.1133-0.79688 0.14844-1.6484 0.30469-2.4492 0.45312-0.19922 0.05078-0.39844 0.09375-0.65234 0.14453-0.19922 0-0.39844 0.05469-0.60156 0.10547-1.9141 0.40234-3.7656 0.75-5.418 1.0547-2.7148 0.49219-4.9648 0.94531-6.4297 1.25-2.3047 0.45312-3.1016 2.2617-3.4062 3.1562-0.29688 1.0547-0.34766 2.1133-0.34766 2.7695v1.3984l0.34766 3.7148h-4.0117c-0.19922 0-0.39844 0.05078-0.65234 0.05078h-4.1133c-0.54688 0-1.1055-0.05078-1.7031-0.05078-0.76172-0.05469-1.5078-0.05469-2.4102-0.05469h-2.9062l-0.65234 2.707c-1.7031 6.7773-2.4609 13.395-2.4609 19.863 0 37.934 26.633 68.281 44.191 81.117 5.6758 4.1133 11.293 7.1758 15.051 7.1758z" fill="#fff"/>
<g clip-path="url(#a)">
<path transform="matrix(1 0 0 -1 70.785 135.5)" d="m-4.375e-5 -4.9375e-4c3.7578 0 9.3203 3.0625 14.992 7.1758 17.566 12.836 44.246 43.184 44.246 81.156 0 6.4727-0.75781 13.047-2.4648 19.824l-0.64844 2.707h-2.9023c-0.90625 0-1.6641 0-2.4102-0.0547-0.60156 0-1.1602-0.0508-1.707-0.0508h-4.168c-0.25 0-0.45312 0.0508-0.64844 0.0508h-4.0117l0.34766 3.7148v1.3984c0 0.65625-0.05078 1.7148-0.34766 2.7695-0.30078 0.89453-1.1016 2.7031-3.4102 3.1562-1.4609 0.30469-3.7148 0.75781-6.4297 1.25-1.6484 0.30469-3.5 0.65235-5.4062 1.0547-0.21094 0.0508-0.41406 0.10547-0.60938 0.10547-0.25391 0.0508-0.45312 0.0937-0.65234 0.14453-0.79688 0.14844-1.6562 0.30469-2.4531 0.45312-8.8281 1.707-18.211 3.4609-20.516 4.1133l-0.90625 0.2539-0.90625-0.2539c-2.3047-0.65235-11.688-2.4062-20.52-4.1133-0.79688-0.14843-1.6484-0.30468-2.4492-0.45312-0.19922-0.0508-0.39844-0.0937-0.65234-0.14453-0.19922 0-0.39844-0.0547-0.60156-0.10547-1.9141-0.40234-3.7656-0.75-5.418-1.0547-2.7148-0.49219-4.9648-0.94531-6.4297-1.25-2.3047-0.45312-3.1016-2.2617-3.4062-3.1562-0.29688-1.0547-0.34766-2.1133-0.34766-2.7695v-1.3984l0.34766-3.7148h-4.0117c-0.19922 0-0.39844-0.0508-0.65234-0.0508h-4.1133c-0.54688 0-1.1055 0.0508-1.7031 0.0508-0.76172 0.0547-1.5078 0.0547-2.4102 0.0547h-2.9062l-0.65234-2.707c-1.7031-6.7774-2.4609-13.395-2.4609-19.863 0-37.934 26.633-68.281 44.191-81.117 5.6758-4.1133 11.293-7.1758 15.051-7.1758z" fill="none" stroke="#000" stroke-width=".47"/>
</g>
<path d="m70.82 9.9062c-4.2617 1.1484-29.242 5.7695-36.312 7.168-2.3164 0.50391 1.0508 11.09-1.3594 11.09-6.9766 0-5.9258 0.14844-15.699 0-14.5 57.691 41.984 103.63 53.371 103.74h0.15625v-121.95c-0.050782-0.042969-0.10547-0.042969-0.15625-0.042969" fill="#bf142e"/>
<path d="m123.96 28.078c-9.7852 0.14844-8.7344 0-15.699 0-2.4102 0 0.94921-10.586-1.4102-11.09-6.9648-1.3984-31.547-5.9141-36.164-7.125v121.95c11.688-0.45313 67.719-46.297 53.273-103.74" fill="#025191"/>
<path d="m24.695 62.133 1.0508-0.25391 0.25391 1.1055 0.45312-0.10547-0.25391-1.1055 0.90625-0.19922 0.30469 1.1055 0.45312-0.09766-0.45312-1.8047-3.3164 0.79688 0.45312 2.0078 0.45312-0.10546z"/>
<path d="m37.637 88.668c-0.19922-0.30469-0.05078-0.60938 0.25391-0.80859 0.34766-0.24219 0.74609-0.24219 0.94531 0.05078 0.16016 0.30469 0.10547 0.65625-0.29688 0.85547-0.39844 0.25-0.70312 0.19922-0.90234-0.09766m1.1562 0.8125c0.60938-0.39844 0.8125-1.0547 0.35938-1.7578-0.45312-0.70703-1.2109-0.70703-1.6094-0.44922-0.50781 0.30078-0.65234 0.90234-0.29688 1.4492 0.14844 0.25 0.24219 0.35938 0.40234 0.45312-0.50781 0.14453-1.2539-0.05469-1.6641-0.60156l-0.34766 0.19922c0.75781 0.96094 2.1562 1.3047 3.1562 0.70703"/>
<path d="m39.941 92.133c-0.19922-0.25391-0.05469-0.60938 0.25391-0.8125 0.34375-0.24219 0.74609-0.24219 0.94531 0.05469 0.21094 0.25 0.15625 0.59766-0.24219 0.85156-0.39844 0.25-0.70312 0.19922-0.95703-0.09375m1.1992 0.74218c0.60938-0.39844 0.75781-1.0508 0.30469-1.7539-0.50391-0.69531-1.25-0.65234-1.6523-0.39844-0.45312 0.35547-0.60938 0.95703-0.19922 1.5039 0.14844 0.19922 0.24219 0.35547 0.40234 0.39844-0.50781 0.15625-1.2539 0-1.707-0.49219l-0.30469 0.19531c0.80078 0.94922 2.2109 1.2539 3.1562 0.54688"/>
<path d="m26.754 69.602c-0.14453-0.39844 0.20312-0.70312 0.61328-0.85156 0.54688-0.19922 0.94531-0.10547 1.0508 0.29297 0.14844 0.35938-0.19922 0.65625-0.60938 0.8125-0.39844 0.09375-0.89453 0.14844-1.0547-0.25391m1.2969 0.90625c0.50391-0.19922 1.0625-0.70703 0.8125-1.4531-0.10938-0.25391-0.35938-0.50391-0.65625-0.60938l1.4023-0.49609-0.20312-0.59766-3.4062 1.1992 0.25391 0.59766 0.25-0.09375c-0.10547 0.25391-0.19922 0.49609-0.10547 0.80078 0.25391 0.65234 1 0.85156 1.6523 0.65234"/>
<path d="m30.406 70.16-3.3555 1.25 0.19922 0.60547 3.3594-1.2539z"/>
<path d="m42.656 94.195c-0.19922 0.14453-0.49609 0.09375-0.69531 0.03906-0.05078-0.24219-0.10547-0.59766 0.14844-0.74609 0.25-0.19922 0.50391-0.14844 0.65234 0.05469 0.19922 0.25 0.09375 0.54688-0.10547 0.65234m-1.3047 1.1445c-0.25391 0.19922-0.60156 0.19922-0.80078-0.10547-0.25-0.29297-0.14453-0.59766 0.09766-0.79688 0.30469-0.25391 0.60547-0.20312 0.85156-0.09766 0.05078 0.24219 0.15625 0.75-0.14844 1m1.7031-1.9688c-0.39844-0.54688-0.90234-0.79688-1.3555-0.44141-0.34766 0.24219-0.34766 0.60156-0.30859 0.89453-0.29297-0.14453-0.79688-0.29297-1.1953 0-0.45312 0.35938-0.45312 1.0117 0 1.6094 0.45312 0.60156 1.1016 0.85156 1.5977 0.50781 0.41016-0.35938 0.30469-0.95703 0.25-1.2656 0.25391 0.16016 0.76172 0.25391 1.0117 0.05469 0.45312-0.34766 0.40234-0.85547 0-1.3594"/>
<path d="m35.078 86.953c-0.19922-0.24219 0.10547-0.69141 0.85156-1.1484 0.70703-0.39844 1.2148-0.44922 1.3594-0.19922 0.19922 0.29688-0.10547 0.69531-0.75781 1.1484-0.79688 0.45312-1.3047 0.50391-1.4531 0.19922m1.8125 0.37109c0.65234-0.35938 1.2539-1.1602 0.80078-1.9062-0.45312-0.75781-1.457-0.60938-2.1055-0.19922-0.95703 0.54688-1.3047 1.3984-0.90625 2 0.35938 0.59766 1.25 0.70312 2.2109 0.10547"/>
<path d="m32.922 83.301c-0.14844-0.29297 0.16016-0.69141 0.95703-1.1445 0.70703-0.35938 1.1992-0.39844 1.3594-0.10547 0.14453 0.30469-0.10547 0.70703-0.8125 1.0508-0.85156 0.45312-1.3047 0.50781-1.5039 0.19922m1.8008 0.45312c0.70312-0.39844 1.3555-1.1445 0.90625-1.9023-0.40234-0.80078-1.4102-0.65234-2.1055-0.29297-0.95703 0.54297-1.3594 1.3477-1.0117 1.9414 0.35938 0.65625 1.2617 0.76172 2.2109 0.25391"/>
<path d="m34.332 79.398-0.75781-0.65234-0.25 0.24219 0.55469 0.50391-2.6602 1.3594 0.30469 0.59766 3.0508-1.5547z"/>
<path d="m25.348 65.09c-0.05469-0.20312 0.05469-0.34766 0.44922-0.45312l1.1602-0.34766 0.14844 0.59766 0.34766-0.05078-0.20312-0.65234 0.70703-0.14844-0.29688-0.59766-0.55469 0.14453-0.09766-0.34375-0.30469 0.09375 0.05078 0.35938-1.3008 0.34375c-0.50781 0.14844-0.70703 0.45312-0.55859 0.95703 0.05078 0.20312 0.15625 0.40234 0.30469 0.55078l0.30469-0.14844c-0.05078-0.10547-0.15625-0.16016-0.15625-0.30469"/>
<path d="m30.461 77.336 1.1055-0.50391 0.30469 0.54688 0.29297-0.09375-0.29297-0.60156 0.65234-0.30469-0.39844-0.54688-0.50781 0.24219-0.14844-0.29297-0.30469 0.14844 0.14844 0.30078-1.2539 0.60156c-0.45312 0.19922-0.59766 0.50391-0.39844 1 0.10547 0.19922 0.25391 0.39844 0.39844 0.50391l0.25391-0.19922c-0.05078-0.10547-0.14453-0.14844-0.19922-0.25391-0.10547-0.19922 0-0.39844 0.34766-0.54688"/>
<path d="m30.715 75.434c0.05078 0.09375 0.05078 0.19922 0.05078 0.29297l0.49609 0.05469c0.10547-0.14844 0.10547-0.34766 0.05078-0.50782-0.093748-0.14844-0.29687-0.19922-0.45312-0.25391l-0.19922-0.03906 0.35547-0.16016-0.25-0.59766-2.2109 0.95703 0.25391 0.60156 1.1055-0.45312c0.49219-0.25391 0.74609-0.09766 0.80078 0.10547"/>
<path d="m25.852 66.645c-0.05469-0.14844 0.05078-0.30469 0.25391-0.39844 0.24219-0.05078 0.49219 0.05469 0.64844 0.30469l0.24609 0.29688c-0.69531 0.25-1.0977 0.05078-1.1484-0.20312m1.5078 0.75781c0.70312-0.19922 0.70312-0.75781 0.55469-1.207-0.10547-0.29688-0.25391-0.60156-0.60938-0.80078l-0.19922 0.30469c0.15625 0.09375 0.35938 0.25391 0.41016 0.54688 0.03906 0.19922 0 0.39844-0.21094 0.50391l-0.34766-0.50391c-0.30469-0.45312-0.65234-0.70312-1.1055-0.60156-0.44922 0.14844-0.60156 0.55078-0.49219 0.90625 0.04297 0.19922 0.24219 0.39844 0.4375 0.49609l0.16016 0.10547c-0.10547 0.05078-0.25 0.09375-0.30469 0.19922l0.19922 0.65234c0.15625-0.14844 0.35938-0.25391 0.55859-0.30469z"/>
<path d="m29.926 72.918c0.09375 0.29297-0.05469 0.49219-0.41016 0.59766l-0.34766-0.85156c0.30469-0.14453 0.59766-0.10547 0.75781 0.25391m-1.6133 0.80078c-0.15625-0.34766 0.05469-0.80078 0.49609-0.95703l0.60938 1.4609c0.69531-0.19922 1.1055-0.75781 0.85156-1.4609-0.25-0.65625-0.90234-0.94922-1.6094-0.69531-0.74609 0.29297-1.0508 0.99609-0.74609 1.7031 0.09375 0.25391 0.29297 0.54688 0.60156 0.80078l0.25-0.30469c-0.15625-0.097656-0.35547-0.29297-0.45312-0.54688"/>
<path d="m37.941 90.973c-0.10156-0.14844-0.30469-0.19922-0.50391-0.10547-0.14844 0.16016-0.19922 0.35938-0.09766 0.55859 0.09766 0.14844 0.35156 0.19922 0.5 0.05078 0.19531-0.10156 0.19531-0.30078 0.10156-0.50391"/>
<path d="m33.734 84.848c-0.20312 0.10547-0.25391 0.35938-0.14844 0.55859 0.09375 0.14844 0.34766 0.19922 0.49609 0.09375 0.19922-0.09375 0.25-0.29297 0.15625-0.49219-0.10547-0.16016-0.35938-0.25391-0.50391-0.16016"/>
<path d="m91.812 108.98c4.3008-3.7227 8.6523-8.9609 13.305-16.02 4.6406-7.0352 5.9102-12.656 5.9102-16.703 0-4.4492-1.5352-6.9844-1.7969-7.3867-0.33203-0.72266-1.0664-1.1641-1.625-1.3281-0.5625-0.16016-1.0703-0.09375-1.4336 0.18359-0.28907 0.21875-0.5625 0.625-1.0586 1.3633-1.0078 1.5039-2.8828 4.3008-6.25 7.1719-4.0234 3.4102-18.762 9.6914-25.055 12.379l-3.1406 1.3672c-1.7969 0.86328-1.9453 2.5664-1.7617 3.4414 0.0039 0.12891 0.0078 0.39062 0.01172 0.53906-0.09375-0.11719-0.25781-0.31641-0.33984-0.41797-0.4375-0.78125-1.6641-1.9688-3.5977-1.4492 0 0.0039-3.2617 1.0195-3.2617 1.0195-6.4883 2.0781-21.648 6.9336-26.984 7.0273 0.38281 0.53125 0.76562 1.0625 1.1562 1.582 6.2461-0.60157 19.66-4.8945 26.332-7.0352l3.1758-0.99219c1.1641-0.31641 1.6641 0.51562 1.7539 0.6875l0.03906 0.07813 0.05859 0.07422 3.4336 4.168v-0.03516l0.01953 0.04297v-6.6484c0.13281-0.21875 0.34375-0.43359 0.69531-0.60156 0.0078-0.0039 3.0586-1.3281 3.0586-1.3281 6.9023-2.9414 21.262-9.0664 25.477-12.641 3.543-3.0195 5.5-5.9414 6.5508-7.5078 0.22656-0.33594 0.46875-0.69531 0.61328-0.875 0.20703 0.03516 0.5664 0.23438 0.64453 0.44141l0.0352 0.09375 0.0547 0.08594c0.0312 0.03906 1.4961 2.3008 1.4961 6.5078 0 3.7656-1.1719 9.0938-5.5898 15.785v0.0039c-4.6094 6.9922-8.9062 12.156-13.125 15.785l-0.10938 0.0898-0.07031 0.1211c-0.67188 1.1562-1.7227 3.4453-1.7227 6.457 0 1.4023 0.23438 2.957 0.83203 4.6289 0.44531-0.39454 0.89062-0.80079 1.3438-1.2148-0.36328-1.2266-0.51562-2.375-0.51562-3.4219 0-2.5586 0.85547-4.4922 1.4414-5.5195" fill="#fff"/>
<path d="m70.895 130.73c-0.07422-0.39453-0.14844-0.80859-0.23047-1.2422-1.3945-7.4766-6.5703-10.035-8.7305-10.789l-0.13281-0.043h-0.14453c-3.4727 0.0195-7.3633-0.40235-11.758-1.2695 0.78125 0.72656 1.5586 1.4258 2.3242 2.0976 3.3828 0.55469 6.4609 0.82813 9.2812 0.82422 1.9453 0.70313 6.3203 2.9766 7.5352 9.4805 0.04687 0.24609 0.08594 0.47656 0.12891 0.71484 0.57812 0.15625 1.0859 0.23828 1.5117 0.25 0.06641-4e-3 0.14453-0.0195 0.21484-0.0234" fill="#fff"/>
<path d="m117.9 80.344c-13.246 30.547-40.477 50.215-47.203 50.266-6.7734-0.10546-33.965-19.762-47.199-50.211-4.3711-10.039-7.1797-21.223-7.1797-33.113 0-5.7148 0.65234-11.586 2.1055-17.605 2.6094 0.05469 4.3672 0.05469 5.7656 0.05469 1.4102 0 2.4102 0 3.4609-0.05469h5.3281c2.3516 0 2.3008-2.957 2.3008-3.7148 0-0.94531-0.09375-2.1562-0.19922-3.207-0.10156-1.1562-0.19922-2.2109-0.19922-3.1055 0-0.60938 0.05078-0.95703 0.09766-1.1562 2.4609-0.50781 6.7188-1.3047 11.539-2.2617 9.3359-1.7578 20.773-3.9141 24.18-4.8086 3.4102 0.89453 14.848 3.0508 24.184 4.8086 4.8047 0.95703 9.082 1.7539 11.531 2.2617 0.0508 0.19922 0.10157 0.54688 0.10157 1.1562 0 0.89453-0.10157 1.9492-0.19922 3.1055-0.10157 1.0508-0.19922 2.2617-0.19922 3.207 0 0.75781-0.0547 3.7148 2.3047 3.7148h5.3164c1.1016 0.05469 2.1133 0.05469 3.5156 0.05469 1.3516 0 3.1523 0 5.7617-0.05469 1.4609 5.9688 2.1172 11.84 2.1172 17.562 0 11.879-2.8086 23.074-7.2305 33.102m7.5742-52.422-0.30468-1.0508h-1.0508c-3.2617 0.05469-5.3125 0.10547-6.8672 0.10547-1.4024 0-2.4141 0-3.4648-0.05078-1.25 0-2.6094-0.05469-4.8633-0.05469 0-0.14844-0.0469-0.45312-0.0469-0.90625 0-0.79688 0.10156-1.8516 0.19922-2.9531 0.10156-1.1094 0.19531-2.3047 0.19531-3.3594 0-0.86328 0-3.418-2-3.8203-2.4062-0.49219-6.8828-1.3555-11.891-2.3047-9.7851-1.8516-21.57-4.1133-24.336-4.8711l-0.34766-0.09375-0.34766 0.09375c-2.7656 0.75781-14.551 3.0195-24.324 4.8711-5.0195 0.94922-9.4922 1.8125-11.891 2.3047-2.0117 0.40234-2.0117 2.957-2.0117 3.8203 0 1.0547 0.09375 2.25 0.19922 3.3594 0.10547 1.1016 0.20312 2.1562 0.20312 2.9531 0 0.45312-0.05469 0.75781-0.05469 0.90625-2.2539 0-3.6094 0.05469-4.8086 0.05469-1.1055 0.05078-2.0625 0.05078-3.4609 0.05078-1.5586 0-3.6211-0.05078-6.8711-0.10547h-1.0625l-0.29688 1.0508c-1.6484 6.6211-2.4062 13.09-2.4062 19.363 0 36.977 26.082 66.773 43.34 79.355 5.6719 4.168 10.73 6.7266 13.793 6.7773 3.0625-0.0508 8.125-2.6094 13.797-6.7773 17.309-12.582 43.391-42.434 43.391-79.398 0-6.2695-0.75391-12.699-2.4102-19.32"/>
<path d="m71.77 41.148-2.5547 1.4883-0.95703 1.4883-0.21094 4.2539 2.7656 1.8086 1.9141-0.53125z" fill="#025191"/>
<path d="m73.293 44.086c-0.05469 1.2227-1.2266 1.8047-3.3945 1.75 0.32422-1.5391 1.0117-2.7656 2.2852-2.8633 0.74609 0 1.168 0.47656 1.1094 1.1133m10.773-2.707h-2.3828l0.26562-1.4922c0.15625-0.79297 0.84375-1.3242 1.4844-1.3242 0.20703 0 0.47266 0 0.74219 0.05469 0.05469 0.94531 0.74609 1.9023 1.9609 1.9023 1.1133 0 2.3945-0.78906 2.3945-2.5938 0-0.74609-0.69141-1.9141-2.0742-1.9141-0.47656 0-0.95703 0.15625-1.3203 0.47656-0.80859-0.26562-1.5977-0.32031-2.1289-0.32031-2.1289 0-4.5664 1.2812-5.1055 4.0859l-0.21094 1.125h-1.5898l-0.15625 0.90234c-0.69141-0.85547-2.0156-1.2266-3.4531-1.2266-0.85156 0-1.8203 0.1875-2.7617 0.58984v0.01172l-0.15625 0.11328v-0.05469c-2.1094 0.96094-4.0352 3.0352-4.1445 6.6133 0 1.4922 0.90234 4.3555 3.8789 4.3555 2.2227 0 4.3516-0.84766 5.9453-1.75l-0.84766-1.7578c-1.0117 0.47656-1.8008 0.90234-2.875 0.90234-2.0664 0-1.9023-1.9062-1.8555-2.3867 3.2383 0.10156 6.8047-1.2773 6.8047-3.6602 0-0.21484 0-0.42578-0.05469-0.63672h0.89844l-1.7031 9.0195h3.9883l1.6953-9.0195h2.1797l-1.75 9.1758c-0.21094 1.125-0.64453 1.9727-0.80078 2.3945-0.26562 0.42578-0.74609 0.90234-1.2266 0.96094l-0.36328 2.0156c3.7734 0 5.6797-1.918 6.4258-5.625l2.0703-10.938z" fill="#fff"/>
<path d="m114.86 44.719c-0.21485 4.0352-1.5938 5.6797-2.4375 5.6797-0.96094 0-1.2266-0.84375-1.2266-2.0703 0-3.1836 1.5938-4.9883 2.6055-4.9883 0.42188 0 1.1133 0.36719 1.0586 1.3789m1.7578-8.5977-1.168 6.4727h-0.0586c-0.47657-0.95703-1.3203-1.5391-2.6484-1.5391-3.1094 0-5.5274 3.2266-5.7227 6.8594 0.0156 0.01563 0.0312 0.03125 0.043 0.04687l-0.0547 0.47266c0.0117 2.1836 0.85938 3.7266 2.1484 4.1406l0.51172 0.10156c0.0625 0.0039 0.13281 0.0078 0.20312 0.0078 1.8555 0 3.0859-0.90234 3.9297-1.4375l-0.21094 1.168h3.9883l3.0156-16.293z" fill="#fff"/>
<path d="m58.906 50.402c-0.90234 0-1.2266-0.84766-1.2266-2.0742 0-3.1836 1.5938-4.9883 2.6055-4.9883 0.42578 0 1.1602 0.36719 1.1133 1.3789-0.21094 4.0352-1.6484 5.6836-2.4922 5.6836m4.2539-14.281-1.2266 6.4727h-0.05469c-0.42188-0.95703-1.3242-1.5391-2.6523-1.5391-3.1836 0-5.7344 3.5078-5.7344 7.332 0 2.5938 1.1719 4.2969 2.8633 4.2969 1.9141 0 3.1406-0.90234 3.9883-1.4375l-0.21484 1.168h3.9336l3.0742-16.293z" fill="#fff"/>
<path d="m37.398 44.719c-0.21094 4.0352-1.5938 5.6797-2.4492 5.6797-0.94922 0-1.2695-0.84375-1.2695-2.0703 0-3.1836 1.5938-4.9883 2.6523-4.9883 0.43359 0 1.1133 0.36719 1.0664 1.3789m0.74609-3.3398-0.21094 1.2148c-0.48047-0.95703-1.3242-1.5391-2.6484-1.5391-3.2422 0-5.793 3.5078-5.793 7.332 0 2.5938 1.2227 4.2969 2.918 4.2969 1.8594 0 3.0859-0.90234 3.9297-1.4375l-0.21094 1.168h3.9297l2.1172-11.035z" fill="#fff"/>
<path d="m51.043 41.055c-1.3242 0-2.9727 0.79297-4.2539 2.3398l-0.04687-0.05469 0.42578-1.9727h-3.9336l-2.0703 11.047h3.9883l0.90234-4.9297c0.30859-1.5508 0.94531-3.668 2.4922-3.668 0.26953 0 0.73438 0.15625 0.79297 1.0586 0 0.21094 0 0.42578-0.05859 0.58203l-1.2695 6.957h3.9883l1.3242-7.1133c0.15625-0.74609 0.21094-1.3281 0.21094-1.8633-0.10938-1.5898-0.80078-2.3828-2.4922-2.3828" fill="#fff"/>
<path d="m94.055 43.082c0.84766 0 1.1719 1.2695 1.0586 2.7617-0.21094 4.9336-2.0195 4.8789-2.2852 4.8789-1 0-1.3242-1.2695-1.3242-2.9727 0-1.8047 0.84766-4.668 2.5508-4.668m-1.5938 9.6016c4.5664 0 6.8516-3.3398 6.8516-6.4258 0-2.1719-1.3359-5.2031-5.2148-5.2031-3.707 0-6.7344 3.0312-6.7344 6.4844 0 2.1719 1.5898 5.1445 5.0977 5.1445" fill="#fff"/>
<path d="m25.984 40.734c0-0.42578 0.48047-1.4258 1.7031-1.4258 0.69141 0 1.2266 0.09766 1.8594 0.42188l1.3828-1.9727c-0.96094-0.51953-1.707-1.1133-3.6641-1.1133-3.0312 0-5.4688 1.7031-5.4688 4.3555 0 1.168 0.48047 1.9727 1.5352 3.5078 1.1172 1.4844 1.918 2.4414 1.918 3.4531 0 0.95703-0.85938 1.9609-2.0742 1.9609-1.0117 0-1.7031-0.36719-2.4492-0.79297l-1.4805 2.0742c0.84766 0.84375 2.8164 1.4805 4.5664 1.4805 3.1289 0 5.625-1.75 5.625-4.7773 0-1.1133-0.63672-2.5508-1.75-3.9883-1.2227-1.5898-1.7031-2.4375-1.7031-3.1836" fill="#fff"/>
<path d="m107.27 41.055c-1.4375 0-2.2266 1.75-2.4922 2.2266l-0.26953 0.42578h-0.15625l0.46875-2.3398h-3.9766l-2.0703 11.047h3.9844l0.90625-4.7227c0.0391-0.21094 0.0859-0.41016 0.13672-0.59375l0.0195-0.09375c4e-3 0 4e-3 0 0.0117-0.0039 0.50781-1.6875 1.5195-2.0703 2.3242-2.0703 0.63281 0 0.84765 0.15625 1.1133 0.21484l1.8594-3.2422c-0.47656-0.47656-1.0117-0.84766-1.8594-0.84766" fill="#fff"/>
<path d="m101.48 62.508c-0.42188 0-0.73047-0.15625-1.0547-0.53516 0.26563-2.8633 1.4375-4.0898 2.2812-4.0898 0.53516 0 0.80078 0.37891 0.80078 1.3828 0 1.3242-0.6875 3.2422-2.0273 3.2422m1.8633-5.625c-0.79297 0-1.5391 0.36719-2.2305 1.168l0.75-3.9844h-1.4922l-0.23046 1.2031c4e-3 -0.01172 0.0117-0.02344 0.0195-0.03516l-0.58204 3.0859c-0.0078 0.01172-0.01563 0.02734-0.02344 0.03906l-0.93359 4.9492h1.5391l0.0508-0.42188c0.37109 0.36328 0.90234 0.57812 1.4414 0.57812 2.4922 0 3.4492-2.6484 3.4492-4.2422 0-1.8086-0.95703-2.3398-1.7578-2.3398" fill="#fff"/>
<path d="m107.81 62.352c-0.58984 0-1.0156-0.53516-1.0156-1.3242 0-2.2305 1.3281-3.1328 1.9609-3.1328 0.58984 0 0.74609 0.04687 1.1719 0.46875-0.26953 3.2422-1.3828 3.9883-2.1172 3.9883m3.9219-5.3125h-1.5391l-0.10157 0.42188c-0.26562-0.42188-0.89843-0.57812-1.4336-0.57812-1.918 0-3.4531 2.2266-3.4531 4.2422 0 1.3828 0.6914 2.3398 1.8047 2.3398 0.95703 0 1.7031-0.53516 1.9141-0.74609l0.3125-0.36719-0.21094 0.95703h1.5469l0.98828-5.3438c4e-3 -0.05859 0.0156-0.12109 0.0352-0.19141z" fill="#fff"/>
<path d="m91.828 62.562c-0.96094 0-1.3828-0.74609-1.3828-1.918 0-1 0.36719-2.8594 1.8047-2.8594 0.80469 0 1.1133 0.74609 1.1133 1.6484 0 2.707-1.0547 3.1289-1.5352 3.1289m0.51172-5.6797c-1.5938 0-3.5547 1.2148-3.5547 3.875 0 1.4375 1.1133 2.707 2.707 2.707 2.2305 0 3.5078-1.9609 3.5078-3.9883 0-1.2148-0.74219-2.5938-2.6602-2.5938" fill="#fff"/>
<path d="m89.957 57.035h-1.3828l0.21094-1c0.11328-0.80078 0.64844-0.95703 0.90234-0.95703 0.21875 0 0.4375 0.05469 0.58984 0.10938l0.42578-0.85547c-0.32422-0.21094-0.79688-0.26562-1.1133-0.26562-0.84766 0-2.0703 0.58594-2.3984 2.2383l-0.09766 0.73047h-0.90234l-0.15625 0.85938h0.90235l-1.0117 5.4141h1.4805l1.0156-5.4141h1.3789z" fill="#fff"/>
<path d="m97.086 62.293-0.17188-0.3125v-0.32031l0.05859-0.42188c0.0078-0.01563 0.01563-0.02734 0.02344-0.04297 0.01172-0.05469 0.01953-0.10938 0.03125-0.17188l0.69141-3.1406h1.1523c0.15234-0.28516 0.29688-0.56641 0.4375-0.84766h-1.4336l0.32031-1.9023-1.5469 0.36719-0.30859 1.5352h-0.74609l-0.15625 0.84766h0.78906l-0.69141 3.3555c-0.36719 1.6484 0.26953 2.2266 1.3242 2.2266 0.53516 0 1.0703-0.15625 1.6055-0.42578l-0.16406-0.80078c-0.21094 0.11328-0.42578 0.21094-0.75 0.21094-0.08984 0-0.19922-0.01172-0.29688-0.06641-0.0039 0.0078-0.01172 0.01563-0.01563 0.02344z" fill="#fff"/>
<path d="m114.01 63.309h1.4805l1.7617-9.2422h-1.5391z" fill="#fff"/>
<path d="m112.16 60.121c-8e-3 -0.03906-0.0195-0.08203-0.0312-0.125l-0.61328 3.3125h1.4843l1.7617-9.2422h-1.5391l-0.77344 4.1797c0.0117 0.02344 0.0195 0.04687 0.0273 0.07031z" fill="#fff"/>
</g>
</svg>
