<svg xmlns="http://www.w3.org/2000/svg" width="85.941" height="134.951" viewBox="0 0 22.739 35.706" xmlns:v="https://vecta.io/nano"><path d="M11.37 1.758c-14.445 6.04-14.414 26.163 0 32.2 14.446-6.04 14.415-26.163 0-32.2h0" fill="#fff"/><path d="M11.37 1.758c-14.445 6.04-14.414 26.163 0 32.2 14.446-6.04 14.415-26.163 0-32.2zm0-1.73h0c15.134 6.98 15.113 28.683 0 35.652C-3.744 28.7-3.765 7.006 11.37.027h0M20.105 23.4c-1.137 3.752-4 6.42-8.736 8.367-3.943-1.626-7.456-4.143-8.745-8.396 5.973 1.788 11.696 1.976 17.48.03h0" fill="#181a18"/><path d="M19.328 10.725c1.225 2.708 1.816 5.214 1.774 7.516-5.276 2.304-14.2 2.3-19.467 0-.042-2.302.55-4.808 1.774-7.516.047 4.31 3.593 7.79 7.96 7.79s7.91-3.48 7.96-7.79h0" fill="#f0612c"/><path d="M11.37 4.08c4.67 2.604 5.543 9.553 1.11 12.745 1.94-4.096 1.572-7.457-1.11-10.084-2.68 2.626-3.05 5.988-1.11 10.084C5.826 13.632 6.7 6.682 11.37 4.08h0" fill="#181a18"/><path d="M11.37 17.613c2.244-3.187 2.038-7.616 0-9.808-2.038 2.192-2.244 6.62 0 9.808zm-.105.15a6.69 6.69 0 0 1-6.584-6.688c0-2.97 1.936-5.487 4.614-6.36-1.615 1.26-2.7 3.496-2.7 6.044 0 3.482 2.007 6.382 4.66 7.004zm.21 0a6.69 6.69 0 0 0 6.583-6.688c0-2.97-1.936-5.487-4.614-6.36 1.615 1.26 2.7 3.496 2.7 6.044 0 3.482-2.007 6.382-4.66 7.004h0" fill="#f0612c"/><path d="M13.012 26.844c0-.096-.018-.17-.054-.22s-.078-.072-.134-.072c-.073 0-.122.032-.146.095a.39.39 0 0 0-.017.123c0 .136.025.232.077.288.03.032.066.048.1.048.1 0 .165-.087.165-.262zm.223-.102c0 .178-.063.3-.2.4a.38.38 0 0 1-.222.062c-.126 0-.224-.046-.295-.137s-.1-.223-.1-.392a.84.84 0 0 1 .088-.405.75.75 0 0 1 .245-.271.62.62 0 0 1 .347-.103l.073.06-.03.03c-.022-.004-.043-.005-.063-.005-.095 0-.178.035-.25.105a.4.4 0 0 0-.084.12c-.04.08-.066.2-.08.33.083-.078.133-.12.15-.126a.35.35 0 0 1 .138-.025.25.25 0 0 1 .197.089c.056.064.084.154.084.268zm-.97-.01c0 .132-.054.243-.164.334s-.238.137-.386.137a.53.53 0 0 1-.226-.051c-.01-.108-.026-.198-.045-.272l.006-.013.046-.014.01.005c.06.156.16.234.294.234.07 0 .126-.022.168-.068s.063-.107.063-.186-.023-.14-.07-.182a.25.25 0 0 0-.177-.061.3.3 0 0 0-.1.017l-.01-.012a1.1 1.1 0 0 0 .035-.14h.076c.055 0 .102-.02.143-.06s.06-.086.06-.14a.16.16 0 0 0-.054-.125.19.19 0 0 0-.133-.048c-.084 0-.14.02-.17.065-.014.02-.028.05-.04.088l-.01.03-.013.008-.047-.004-.01-.012.033-.15c.01-.043.016-.084.02-.125a.49.49 0 0 1 .303-.091c.103 0 .185.025.246.076s.087.114.087.194c0 .115-.07.208-.206.28.07 0 .132.024.188.07.062.05.093.124.093.218zm-1.182-.404c0-.114-.017-.2-.05-.254s-.08-.082-.136-.082c-.07 0-.12.04-.145.116a.47.47 0 0 0-.02.146c0 .096.017.17.053.22s.08.072.135.072c.073 0 .122-.032.146-.097.01-.03.017-.07.017-.122zm.242.095c0 .164-.03.3-.088.406-.062.113-.143.203-.245.27a.62.62 0 0 1-.345.103l-.073-.06.022-.036c.02.007.042.01.07.01.096 0 .18-.035.253-.107a.43.43 0 0 0 .08-.115c.04-.076.067-.187.082-.332l-.153.13c-.04.015-.085.022-.132.022-.082 0-.15-.03-.2-.1s-.083-.153-.083-.266a.45.45 0 0 1 .19-.4.39.39 0 0 1 .22-.06.36.36 0 0 1 .353.231c.034.076.052.175.052.298zm-.96.735l-.01.01-.317-.008-.384.008-.01-.01V27.1l.01-.01.092-.01a.42.42 0 0 0 .102-.016c.015-.006.02-.017.027-.034.012-.03.017-.147.017-.352v-.23L9.9 26.2v-.07c0-.03-.006-.046-.02-.046-.005 0-.024.007-.055.022l-.218.102-.01-.006a1.15 1.15 0 0 0-.02-.118v-.007c.17-.048.36-.113.57-.194l.02.014-.01.162-.006.218-.003.364.013.42c.006.014.015.023.027.026a1.06 1.06 0 0 0 .174.017l.012.01v.056m2 3.006l-.756-.788.54-.563.505.5.062-.56-.26-.25.073-.076a.15.15 0 0 0-.005-.21l-.036-.034a.15.15 0 0 0-.21.004l-.07.074-.395-.383-.3.32.397.384-.53.554-.53-.554.397-.384-.3-.32-.395.383-.07-.074c-.056-.06-.15-.06-.2-.004l-.036.034c-.06.056-.06.15-.005.2l.073.076-.392.38.3.32.4-.378.54.563-.755.788a.15.15 0 0 0 .004.21l.036.034a.15.15 0 0 0 .21-.005l.745-.778.745.778c.056.06.15.06.2.005l.036-.034c.058-.056.06-.15.005-.2h0" fill="#fff"/><path d="M19.042 21.28l.686-.155c.178-.04.317-.116.416-.225a.6.6 0 0 0 .16-.385c.007-.133-.03-.236-.112-.3s-.238-.086-.465-.035l-.634.143zm-.095 1.778l-.58.13.172-3.23 1.317-.297c.375-.084.65-.052.82.096s.25.353.236.6c-.016.295-.127.557-.333.783s-.46.375-.76.443l-.803.182-.068 1.28m-1.885-.81l-.346-1.364-.642 1.526zm.96 1.06l-.652.107-.193-.727-1.303.214-.344.815-.52.085 1.455-3.422.752-.123.806 3.05m-3.698.54l-.663.033.164-2.72-.9.045.03-.497 2.484-.123-.03.498-.9.045-.164 2.72m-1.657.123h-.72l-.756-1.268-.802 1.268h-.574l1.083-1.677-.93-1.542h.717l.63 1.07.67-1.07h.576l-.952 1.47 1.057 1.75m-4.065-1.415L8.02 21.02l-.404 1.45zm1.14 1.373l-.66-.056-.328-.82-1.318-.112-.214.774-.527-.045.9-3.25.76.065 1.377 3.444M2.528 22.8l-.384-3.388.602.127.324 2.862 1.034.218-.324-2.86.602.127.324 2.86 1.034.218-.324-2.862.602.127.384 3.388L2.53 22.8" fill="#222324"/></svg>