<svg xmlns="http://www.w3.org/2000/svg" width="254.307" height="252" xmlns:v="https://vecta.io/nano"><g transform="matrix(.360334 0 0 .360334 -16.943284 -18.133756)"><path d="M599.2 94.4S513.3 53.1 400 53.1 200.8 94.4 200.8 94.4h-56.5v295.7c0 148.7 113 295.4 255.7 337 142.7-41.6 255.7-188.3 255.7-337V94.4z" fill="#fff"/><path d="M400 58.1c57.9 0 108.3 11.1 140.5 20.4 34.9 10.1 56.4 20.3 56.6 20.4l1 .5h52.6v290.7c0 70.6-26 143.6-73.3 205.6C530.7 657 467.7 701.8 400 721.9c-67.7-20.1-130.7-64.9-177.4-126.2-47.3-62-73.3-135.1-73.3-205.6V99.4h52.6l1-.5c.2-.1 21.7-10.3 56.6-20.4 32.2-9.4 82.6-20.4 140.5-20.4m0-5c-113.3 0-199.2 41.3-199.2 41.3h-56.5v295.7c0 148.7 113 295.4 255.7 337 142.7-41.6 255.7-188.3 255.7-337V94.4h-56.5S513.3 53.1 400 53.1z" fill="#0f5198"/><path d="M164.1 126.4V390c0 136.9 103.2 274.6 235.9 316.3C532.7 664.7 635.9 527 635.9 390.1V126.4z" fill="#ccc"/><path d="M405 136.4h221v253.7c0 64-23.5 130.8-66.2 187.9-40.8 54.7-95.6 95.7-154.8 116.3z" fill="#fff"/><path d="M405 245v104.5l113.3-213.1h-55.6zm168.9-108.6L405 454v104.5l221-415.6v-6.5z" fill="#ca101e"/><path d="M626 390.1V247.4L405 663.1v31.2c59.3-20.5 114-61.6 154.8-116.3 42.7-57.1 66.2-123.9 66.2-187.9zM174 136.4h221v221H174z" fill="#115199"/><path d="M174 367.3v22.8c0 64 23.5 130.8 66.2 187.9 40.8 54.7 95.6 95.7 154.8 116.3v-327z" fill="#fff"/><path d="M247.7 587.7V367.3H174v22.8c0 64 23.5 130.8 66.2 187.9l7.5 9.7z" fill="#ca101e"/><path d="M321.4 656.6c23.2 16 48 28.8 73.7 37.7v-327h-73.7z" fill="#115199"/><path d="M217.2 233.3c-6.9-1.5-9.4-2.6-19.1-7.4-7-3.5-16-15.1-18.9-19.2l-.4-.6-.5-.5-4.3-3.8v155.6h76.6v-88.5c.1-22.4-21.8-33.1-33.4-35.6z" fill="#fff"/><path d="M216 239.1c-7.6-1.7-10.6-3-20.5-7.9-9.9-5-21.1-21.1-21.1-21.1l-.3-.3v147.6h70.7v-88.5c-.1-19.9-21.2-28.1-28.8-29.8z" fill="#115199"/><path d="M395 357.4V202.9l-3.7 2.5-.8.6-.6.8c-.1.1-8.7 11.6-18 16.8-8.5 4.8-15.5 7-21.2 8.9l-2.9.9c-6.8 2.3-12.6 5.7-17.2 10.3-8.1 8-12.3 18.6-12.3 31.7v81.9H395z" fill="#fff"/><path d="M395 357.4V210.1l-.3.2s-9.3 12.6-19.8 18.5c-10.6 5.9-19.2 8.3-25.1 10.2-5.9 2-25.4 9.6-25.4 36.3v81.9H395z" fill="#115199"/><path d="M310.7 254.5c-1.5.4-3.5.6-5.5.9-4.3.6-9.2 1.2-13.2 3.3-5.2 2.7-10.4 7.7-14.1 13.4-2.2 3.4-6.7 10.4-27.1 10.4h-5.9v74.8h79.6v-87.7c0-2.1-1-6.4 1.8-15.4 0 0 3.1-6.7 2.4-13.5-2 4.1-4.8 6.7-7.8 8.8-4 3.1-7.8 4.4-10.2 5z" fill="#fff"/><path d="M294.7 264c-4.7 2.5-9.2 7.2-11.9 11.4s-8.8 13.1-32.1 13.1v68.9h67.7v-87.7c0-3.2 1.7-10.7 5.6-17.3 0 0-6.8 6.7-12 7.9s-12.6 1.2-17.3 3.7z" fill="#cd0d24"/><g fill-rule="evenodd"><path d="M316.8 90s-2.8-2.4-9.6-3.7c-6.9-1.4-8.8 1.7-8.9 2.8-.1 1 .4 2.4 3 3.1l6.3 1.4c2.5.5 4.4.9 6.7 2.4 2.3 1.6 3.3 4 3.5 6.5.1 2.6-.6 5.3-2.2 7-1.6 1.8-4.2 3.6-8 4.3-3.7.8-8.2.2-10.1-.2-1.9-.5-6.6-2-6.6-2v-7.4s.7 1.2 3.1 1.9c2.5.7 4.9 1.5 7 1.7 2.2.2 5.9.8 7.1-.3 1.2-1.2 1.4-2.3 1.1-3.4-.3-1.2-1.1-1.5-2-2.2-1-.5-3.6-1.2-7-1.9-3.5-.9-3-.6-4.3-1-1.2-.4-4.7-2.9-5.6-5.4-1-2.5-1.3-5.5 1.4-9 2.5-3.2 9.8-4.7 14.2-4.4 4.3.3 10.9 2.7 10.9 2.7zm24.9 4.2v-13h8.2v32.6H342V99.9h-12v13.9h-8.3l-.1-32.5h8.6v12.9zm21.4-6.9v7.6H378v5.2h-15v8.3h15v5.4h-23.7l-.1-32.6h24v6zm27 6.4v20l-6.5.1V81.2h7.5l14 21.7-.1-21.7h6.8l.1 32.5h-9.4zm45.9.4l-.1-13h8.2l.1 32.6h-7.9V99.8h-12.1v13.9h-8.3V81.2h8.4v12.9zm12.6-13h8.5v21.1s.1 6.1 6.3 5.9c6.1-.2 5.4-5.8 5.4-5.8V81.1h8v23.8s.3 8.7-13.2 9.1c-14.8.3-15-8.7-15-8.7z" fill="#004da0"/><path d="M474.9 113.8l18.8-32.6h8.3l-19.1 32.5z" fill="#d7000f"/><path d="M503.5 113.7v-9.1h-10.2v-6h10.3V81.2h8.5v32.5z" fill="#004da0"/></g><g fill="#fff"><path d="M500.2 588.9l1.7-4.1c1.4.5 2.7.5 3.7.1s1.8-1.2 2.5-2.4c.7-1.3.9-2.4.7-3.4-.2-.9-.7-1.6-1.4-2-.5-.2-.9-.3-1.4-.2s-1 .4-1.6 1l-2.6 2.8c-1.7 1.9-3.1 3-4.4 3.5-1.7.6-3.4.6-5-.3-1-.5-1.8-1.3-2.4-2.4-.6-1-.8-2.2-.7-3.6.1-1.3.6-2.8 1.4-4.3 1.3-2.5 2.9-4.1 4.6-4.8 1.8-.7 3.6-.6 5.4.3l-1.9 4.1c-1.1-.4-2-.4-2.8-.1-.7.3-1.4 1.1-2 2.2-.6 1.2-.9 2.2-.7 3.1.1.6.4 1 .9 1.3.5.2 1 .3 1.5 0 .7-.3 1.8-1.3 3.3-3s2.7-2.9 3.7-3.6 2.1-1.1 3.2-1.1c1.1-.1 2.3.2 3.6.9 1.1.6 2 1.5 2.7 2.6.7 1.2.9 2.4.8 3.9-.1 1.4-.6 3-1.6 4.7-1.3 2.5-2.9 4.1-4.8 4.9-1.9 1-4 .9-6.4-.1zm16.8-16l-19.9-10.5 2.1-4 19.9 10.5zm4.2-7.9l-19.9-10.5 2.1-3.9 17.6-1.1-13.3-7 2-3.7 19.9 10.5-2.1 4-17.2 1.2 13 6.9zm10-36.7l3.3-3.2c1.9 1.7 3 3.6 3.3 5.5s-.1 4-1.2 6.1c-1.4 2.6-3.5 4.3-6.2 5.1-2.7.7-5.6.3-8.8-1.4-3.3-1.8-5.4-4-6.4-6.7-.9-2.7-.7-5.4.8-8.2 1.3-2.4 3.1-4 5.3-4.8 1.3-.5 2.9-.5 4.7-.1l-1.2 4.5c-1.2-.3-2.2-.2-3.2.2s-1.8 1.2-2.3 2.3c-.8 1.5-.9 3-.3 4.4.6 1.5 2 2.8 4.4 4.1 2.5 1.3 4.6 1.8 6.1 1.5s2.7-1.2 3.5-2.7c.6-1.1.7-2.2.4-3.3-.2-1.1-.9-2.2-2.2-3.3zm11.2-3.5l-19.9-10.5 7.8-14.8 3.4 1.8L528 512l4.4 2.3 5.3-10 3.4 1.8-5.3 10 5.4 2.9 5.9-11.1 3.4 1.8zm18.6-35.2l-2 3.8-14.4-7.6c.6 2.1.7 4.2.3 6.5l-3.5-1.8c.2-1.2.2-2.6-.1-4.2-.3-1.7-.9-3-1.9-4.1l1.6-3.1zm-1.5-8.3l1.5-3.9c.8.3 1.5.4 2 .2.6-.2 1-.6 1.3-1.2.4-.8.4-1.7 0-2.6s-1.8-2.1-4-3.4c.6 1.5.5 3-.2 4.5-.8 1.6-2.1 2.6-4 3.1-1.8.5-3.7.2-5.6-.8-2-1.1-3.3-2.5-3.9-4.4s-.4-3.7.6-5.6c1.1-2 2.7-3.3 5-3.7 2.2-.5 5.2.2 8.7 2.1 3.6 1.9 5.9 4 6.8 6.2s.8 4.4-.4 6.6c-.8 1.6-1.9 2.6-3.2 3.1s-2.8.4-4.6-.2zm-3.8-13c-1.2-.7-2.3-.9-3.3-.7s-1.7.7-2.1 1.4-.4 1.4-.1 2.2 1.1 1.5 2.4 2.1c1.3.7 2.4.9 3.2.7a2.78 2.78 0 0 0 1.9-1.4c.4-.7.4-1.5.1-2.3-.3-.7-1-1.4-2.1-2zm11.9-2.5l1.5-3.9c.8.3 1.5.4 2 .2.6-.2 1-.6 1.3-1.2.4-.8.4-1.7 0-2.6s-1.8-2.1-4-3.4c.6 1.5.5 3-.2 4.5-.8 1.6-2.1 2.6-4 3.1-1.8.5-3.7.2-5.6-.8-2-1.1-3.3-2.5-3.9-4.4s-.4-3.7.6-5.6c1.1-2 2.7-3.3 5-3.7 2.2-.5 5.2.2 8.7 2.1 3.6 1.9 5.9 4 6.8 6.2s.8 4.4-.4 6.6c-.8 1.6-1.9 2.6-3.2 3.1-1.2.5-2.8.4-4.6-.2zm-3.7-13c-1.2-.7-2.3-.9-3.3-.7s-1.7.7-2.1 1.4-.4 1.4-.1 2.2 1.1 1.5 2.4 2.1c1.3.7 2.4.9 3.2.7a2.78 2.78 0 0 0 1.9-1.4c.4-.7.4-1.5.1-2.3-.3-.7-1-1.4-2.1-2zm11.1-2.6l1.5-3.9c1 .4 1.9.4 2.7.2.8-.3 1.4-.7 1.7-1.5.4-.8.5-1.6.2-2.5s-1-1.6-2-2.1-1.9-.7-2.7-.4c-.8.2-1.4.7-1.8 1.4-.3.5-.5 1.1-.6 1.9l-2.9-2.1c.6-1 .8-1.9.6-2.7s-.7-1.4-1.5-1.8c-.7-.4-1.3-.4-1.9-.2s-1.1.6-1.4 1.3-.4 1.3-.2 2 .7 1.3 1.5 1.9l-2.5 3.2c-1.1-.9-1.8-1.8-2.3-2.6-.5-.9-.7-1.9-.6-3s.4-2.2 1-3.3c1-1.9 2.4-3.1 4.2-3.6 1.5-.4 2.8-.3 4.1.4 1.7.9 2.6 2.6 2.7 5.1.8-1 1.9-1.6 3.1-1.9 1.2-.2 2.4 0 3.6.6 1.8.9 2.9 2.4 3.5 4.3s.3 3.8-.7 5.7c-1 1.8-2.3 3-3.9 3.7-1.9.6-3.6.6-5.4-.1zM295.5 247.6s22.5-15.5 22.9-34.6c0 0 1.3-6.8-9.2-18.2 0 0-8.3-6.1 2.2-13.8 10.4-7.8 17.9-7.3 17.9-7.3s-34.2-3.4-42.2 5.8 7.3 17.8 10.7 21.2 9.3 7.3 8 17.9c-1.3 10.5-8 27-10.3 29zm-43.8-39.4s-11.2 2-12.3 11.2c0 0 1.4 7.2 9.7 11.6 0-.1-10-14.5 2.6-22.8zm5.7 36.3c2.4.1 15.3 1.8 18.5.7 3.1-1.1 3.3-5.9 3.3-6.6s-3 1-3 1l-3-1.8-2.2 2.4s-1.9-2.8-2.6-3.2-1.9 4-4 4c0 0-5.3 1.6-11.7-6.6 0-.2 2.3 9.9 4.7 10.1zm128.5-51.7c-15.2-23.6-42.1-29.9-42.1-29.9-3.7 5.4-11.9 5.5-11.9 5.5-13.9 1.6-17.2-9.2-17.2-9.2 7.7-4.7 14.7-2.1 17-1.7s4.3-.3 4.3-.3c-1.1 6.6-9.7 8.5-9.7 8.5 11 .7 13.4-2.7 17.3-7.3 3.9-4.7 1.3-9.3 1.3-9.3s-.7 1.3-4.3 2.3-6-1.1-13.2-2.4-10.3 1.6-20-1.4-17.2-3.8-21.5-3.8-16.5 2.8-23.3 4.7c-6.9 1.8-14.7 4.9-19.7 7.3s-4 7.1-4.9 7.3c-.9.3-3.3.3-4.6.3s-2.4 1.3-3.6 2.4-2.3 1.8.1 3.5 1.7 2.4.3 1.8-1.6-.3-3.7-.6c-2.2-.3-.2 1.3.6 2.7.7 1.4.4 1-1.6.1-2-.8-5.4 0-7.4.1s-11 14-11 14c-2.3 6.9 3.1 4.2 3.1 4.2l1.4-1.8c1.4-1.8 1-3.4 5.3-4.7s6.1.1 6 .8-2.6.1-4.1.3c-1.6.1-1 3.4-4 7.3-3 4-1.1 5.5 3.4 10.4 4.6 4.9 15.2 14.5 15.2 14.5 6.6-10.3 9.9-14.5 18.7-14.5 8.9 0 17 7.8 25.8 20.2 8.7 12.4 4 19.6 1.6 22.6s-8.7 3-12 3-7.2-1.3-9.9-1.7-2.7 2.1-2 3.7c.7 1.5 1.7 1.1.9 11.4-.9 10.3 6.3 9 6.3 9 11 .7 13.4-5.8 16.6-12.6 3.1-6.8 10.2-8 10.2-8 6.3-6.2 11-18.6 12.4-30.5s-7.9-16.8-11.4-18.5c-3.6-1.7-7.4-4.8-10-6.5s-15.3-18.5 8.6-25.3 62.4 5.5 62.4 5.5-14.4-.3-26 2.7-12.3 13.1-12.3 13.1c32.2 34.2-21 59.1-21 59.1 27.5 0 37.3-15.2 43.8-27.9 6.4-12.7-5.9-29.9-5.9-29.9 14.6-19.4 55.7-.5 55.7-.5zm-127.7-26.4l-5.4-5s6.8-4.8 14.7-4.8c.1.1-6.7 5.6-9.3 9.8z"/><path d="M278.8 301.8v14h29.5v8.1h-29.5v21.3h-18.1l-.1-51.4 52.2-.1v8.1zm110.4 4.5v-9.5s-8.6-5.3-27-3.8c-18.5 1.5-26.2 7.7-31.4 18.4-5 10.6-1 24 16.8 31.1 18 7 37.6 1.4 42.8-2.9v-11s-6.2 7.8-20 8.1c-13.8.1-25.7-7.8-25-17s4.7-17 23.3-19.1c11.9.2 20.5 5.7 20.5 5.7M240 297.7v11s-11.3-4.6-19-5.5h-10.1s-6.5.8-7.7 4.3c0 1.5.6 3.8 6.8 4.6s26.8 3.1 30 9.5c3.2 5.4 4.1 11.9-5.2 18.7 0 0-8.2 4.8-17.6 4.8S204 345 204 345s-8.3-.5-17.2-3.8V330s14.3 5.1 20.2 5.5c5.9.3 9.8.3 9.8.3s5.8-.2 7.6-3.9c0-1.3.5-.9 0-2.6-1.4-1-.5-1.9-11-3.5s-23.5-3.2-27.4-12.3c-.8-1.7-.5-4.5.2-8.4 2-3 5.4-9.8 22.6-11h12.3s10.1.1 18.9 3.6" fill-rule="evenodd"/></g><path d="M748.9 630.2c-2.7-6.7-12.6-17.1-22.5-42.9s-11.2-25.3-17.2-47.1c0 0-6.9-7.9-22.8-5.5-15.9 2.5-72 30.7-68.1 56.5 1.2 7.9 10.8 11.4 10.8 11.4l6.7 12.1s-81.6 37.9-235.9 37.9S164 614.7 164 614.7l6.7-12.1s9.7-3.5 10.8-11.4c4-25.8-52.2-54-68.1-56.5s-22.8 5.5-22.8 5.5c-5.9 21.8-7.3 21.3-17.2 47.1s-19.7 36.2-22.5 42.9c-2.7 6.7 0 9.4 3.3 14.3 6.6 8.6 19 8.3 19 8.3 2.7-15.1 9.7-32 9.7-32 10.2 2.2 24.5 14.1 24.5 14.1-7.9 5.9-25.8 37-1.3 51.5 24.4 14.5 147.4 60.5 293.7 60.5s269.3-45.9 293.7-60.5c24.4-14.5 6.6-45.6-1.3-51.5 0 0 14.4-11.9 24.5-14.1 0 0 6.9 16.8 9.7 32 0 0 12.4.3 19-8.3 3.5-4.9 6.2-7.6 3.5-14.3z" fill="#115199"/><path d="M124.5 590c-.1-.2-.4-.2-.5.1l-1.3 7.8c-.2 1.1.1 2.2.8 3.1 4.1 5.5 9.1 12.5 23.4 20.4 15.5 8.6 122.2 43.3 253.1 43.3s237.5-34.7 253.1-43.3c14.3-7.9 19.4-15 23.4-20.4.7-.9.9-2 .8-3.1l-1.3-7.8c0-.2-.4-.3-.5-.1-2 3.6-12.1 20.6-30 27.1-20.2 7.3-114.1 40.6-245.5 40.6s-225.3-33.4-245.5-40.6c-17.9-6.5-28-23.5-30-27.1zm-18.6-18.5c-8.7-.2-14.9-12.4-14.9-12.4-21.9 57-30.3 63.4-32.8 66.6-2.5 3.1-7.1 4.5-3.6 13 3.5 8.4 16.6 10.9 16.6 10.9 10.9-55.1 34.7-78.1 34.7-78.1zm4.4 59.5c1.2-1.2 1.6-3.5 1.8-5.1.1-1-.4-2-1.2-2.6-7.3-5.3-20.3-11.5-23.5-13.1-.5-.3-1.2-.2-1.7.2-1.2 1.1-1.9 3-2.2 4.3-.2.7.2 1.4.9 1.6 11 3.5 21.3 12.1 24.1 14.6.4.6 1.2.6 1.8.1zm-17.6-78.5c5.7-5 11.7-7.2 24.9-3.8 13.9 3.6 35 18.5 44.9 26.8s8.9 23.8 8.9 23.8c7.9-2 9.9-12.9-4-28.1s-45.9-29.4-56.8-30.4c-8.8-.8-15.2 3.1-17.4 4.7-.5.4-.8.9-.9 1.6l-.5 5.1c0 .3.5.5.9.3zm48.4 16.2c-5.6-.2-10.6 2.8-11.2 8.4-.5 4.4-.7 10.7-.8 13.3 0 .7.2 1.4.6 2 11 15.7 30.6 22.9 30.6 22.9 1.5-4.1 3.9-7.5 5.5-9.6.7-.9.2-2.2-1-2.3-6.2-.7-8.5-3.1-11.5-6.1-3.5-3.5-3.8-15.4-3.6-19.3s-2.9-9.2-8.6-9.3zm545.3 108.8c-8.9 4.5-120.4 58-286.4 58s-277.5-53.5-286.4-58-16.8-15.4-11.9-31.2c0 0-7.4 9.7-5 19.6 2.5 9.9 13.4 17.3 22.8 21.1 9.4 3.7 114.5 54.5 280.5 54.5s271.1-50.8 280.5-54.5 20.3-11.2 22.8-21.1-5-19.6-5-19.6c5 15.9-2.9 26.8-11.9 31.2zm55.4-51.8c-2.5-3.1-10.9-9.6-32.8-66.6 0 0-6.2 12.1-14.9 12.4 0 0 23.8 23 34.7 78.1 0 0 13.1-2.5 16.6-10.9 3.5-8.5-1.1-9.9-3.6-13zm-27.4-15.2c-.4-.4-1.1-.5-1.7-.2-3.2 1.5-16.2 7.8-23.5 13.1-.8.6-1.3 1.6-1.2 2.6.1 1.6.5 3.8 1.8 5.1.5.5 1.3.5 1.9.1 2.8-2.5 13-11.1 24.1-14.6.7-.2 1.1-.9.9-1.6-.5-1.5-1.2-3.5-2.3-4.5zm-85.8-11.3s-1-15.5 8.9-23.8 31.1-23.1 44.9-26.8c13.2-3.4 19.2-1.2 24.9 3.8.3.3.8 0 .8-.4l-.5-5.1c-.1-.6-.4-1.2-.9-1.6-2.2-1.6-8.6-5.5-17.4-4.7-10.9 1-42.9 15.2-56.8 30.4-13.8 15.3-11.8 26.2-3.9 28.2zm6.5 4.1c-1.1.1-1.7 1.4-1 2.3 1.7 2.1 4 5.5 5.5 9.6 0 0 19.6-7.2 30.6-22.9.4-.6.6-1.3.6-2-.1-2.5-.3-8.9-.8-13.3-.7-5.6-5.6-8.6-11.2-8.4s-8.8 5.3-8.6 9.3-.2 15.9-3.6 19.3c-3 3.1-5.3 5.5-11.5 6.1zm-28.9 72.1c.5-1.2.6-2.6.3-4-.7-3.4-4-5.7-7.2-5-.8.2-1.4.5-2 .9-.9-3.2-3.8-4.6-6.9-4-3.1.7-5.1 3.8-4.6 7-.7-.1-1.4-.1-2.2 0-3.3.7-4.3 3.7-3.6 7.2a7.04 7.04 0 0 0 1.9 3.5c-1.7 1.4-2.8 3.9-2.3 6.3.8 3.5 4.2 5.4 7.5 4.7.9-.2 1.8-.3 2.5-.8v2l-10.8 1.8-3.4-17.1 9.5-15.3-9.6-7.5-14.7 21.8h-.2l4.8 22.2.9 4.1 39.4-9.1-1.3-6.4c.9.3 1 .1 2-.1 3.3-.7 5.3-4.1 4.5-7.6-.5-2.2-2.3-4-4.5-4.6zM238 685.5c1-.8 1.8-2 2.2-3.4.9-3.4-1-6.9-4.2-7.8-.8-.2-1.5-.2-2.3-.2.6-3.2-1.4-5.9-4.5-6.7s-6.4 1-7.5 4.1c-.6-.4-1.2-.8-2-1-3.3-.9-5.7 1.3-6.6 4.7-.4 1.4-.3 2.8.2 4-2.3.4-4.4 2.1-5 4.5-.9 3.5 1.4 6.8 4.6 7.7.9.3 1.8.6 2.6.5l-1 1.8-10.7-3.4 4.8-16.7 15.7-9.1-5.3-11.1-23.5 12.5h-.2l-7 26 40.2 10.2 1.8-6.3c.7.7.9.6 1.9.9 3.3.9 6.7-1.2 7.6-4.6.7-2.6-.1-5.1-1.8-6.6zm42.2 10l.4-5.5 14.3 1.1-1 13.1c-1.5 1.3-3.6 2.4-6.4 3.1-2.7.9-5.5 1.3-8 1.1-3.5-.3-6.5-1.3-9-3-2.5-1.6-4.1-3.8-5.3-6.5-1-2.8-1.4-5.8-1.2-9 .3-3.5 1.1-6.5 2.8-9 1.6-2.6 3.9-4.5 6.7-5.8 2.2-.9 4.9-1.2 8.1-.9 4.1.3 7.3 1.3 9.4 3.3 2.2 1.8 3.5 4.3 3.9 7.3l-6.7.7c-.3-1.6-1.1-3-2.3-4-1.3-1-2.8-1.6-4.8-1.8-2.9-.2-5.3.5-7.1 2.2-2 1.7-3 4.4-3.2 8-.3 4 .2 6.9 1.9 9 1.5 2.1 3.7 3.2 6.7 3.4 1.4.1 2.8-.1 4.2-.5 1.4-.5 2.7-1 3.8-1.7l.3-4.3zm44.4 11.1c-1.4-2.8-2.7-4.7-3.5-5.8-.9-1-2-2-3.4-3 2.9-.2 5.1-1.2 6.7-2.8 1.4-1.5 2.3-3.7 2.4-6.2.1-2-.3-3.8-1.1-5.4-1-1.6-2.2-2.8-3.8-3.5-1.5-.7-4.1-1.1-7.6-1.3h-.6l-13.4-.7-1.7 34.1 6.7.3.7-14.1 1.4.1c1.4.1 2.6.1 3.3.5.6.3 1.2.9 1.9 1.5.6.8 1.7 2.4 3.3 5.2l4.4 7.6 8.1.4zM313.1 693c-.6 0-1.2-.1-1.8-.1l-4.9-.2.4-8.6 5.2.3c.5 0 1.1.1 1.5.1 1.7.1 2.9.1 3.4.3a3.88 3.88 0 0 1 2.4 1.4c.6.8.8 1.8.8 2.9 0 1-.4 1.9-.7 2.5-.6.6-1.3 1-2 1.3-.8.1-2.2 0-4.3.1zm71.4-5.6h-19.1v7.5h17.8v5.7h-17.8v9.2h19.7v5.9h-26.7v-34.2h26.1zm-29.2-.5l-17.7-.5-.2 7.6 16.5.4-.1 5.6-16.5-.4-.2 9.3 18.3.5-.2 5.8-24.8-.6.8-34.1 24.3.6zm71.3 22.3h16.9v5.9h-23.6v-34.3h6.7zm35.7-29.9l-3.4.2-3.5.2-10.8 33.8 6.9-.4 2.3-7.7 6.5-.4 6.4-.4 3.3 7.3 7.2-.4zm-2.4 20.1l-4.5.2 3.7-12.5.2.2 5 11.8zm38.5-.8l-1.2-22.2 6.1-.3 1.8 33.1-6.6.4-14.6-20.8 1.2 21.6-6.1.3-1.9-33.2 6.5-.3zm-89.9 5.3v-22.4h5.8v33.6H408l-12.9-21.8v21.8h-5.9v-33.6h6.2zm126.2-22.8c-.8-2-2.1-3.8-3.6-5.3-1.7-1.3-3.4-2.3-5.5-2.8-1.3-.2-2.9-.2-5-.1-.5-.1-1.1-.1-1.6 0l-12.7 1 2.8 34.3 13-1c.5 0 .8-.1 1.3-.1 1.9-.3 3.6-.6 4.8-1.2a13.74 13.74 0 0 0 4.7-3.1c1.5-1.7 2.4-3.7 3.1-6.3.5-2.1.6-4.5.4-7.4-.2-3.2-.8-5.9-1.7-8zm-5.5 14.6c-.3 1.6-.9 2.8-1.6 3.5-.6.7-1.5 1.4-2.6 1.6-.5.2-1.2.4-2 .5-.6.1-1.4.1-2.2.2l-5.1.4-1.8-22.6 3-.2 4.3-.2c.6-.1 1.1.1 1.4 0 1.3.2 2.4.6 3.3 1.3 1 .7 1.7 1.8 2.3 3.2s.9 3.4 1.1 6.1c.2 2.5.2 4.8-.1 6.2zm-376.3-25.8c-5.1-2.3-7.7-9.3-8.4-14.7l-.3-3v-.2c-2.8 5.3-3.2 11.4-1.2 17.1.9 2.5 2.3 4.8 4 6.8.3-.1.5-.1.8-.2 2.7-1.1 4.5-3.2 5.1-5.8zm27.1-7.6c-1.9-.3-3.7.6-4.8 1.5.5 3.7-2.2 7.6-5 10.9-2.7 3.3-7.6 6.2-11.3 7.9a21.4 21.4 0 0 0 11.2-.9c7.2-2.6 12.5-8.9 13.7-16.5-.9-1.7-2.2-2.7-3.8-2.9zm-11.3 11.1c4-4.9 6.1-8.9 3.1-12.2-.8-.8-2.3-1.8-4-1.7-1.4.1-2.7.9-3.8 2.4.4 1.5 0 3.3-1 5-1.1 1.8-2.7 3.1-4.3 3.5-1.3.3-2.6.3-3.9.1-.7 3.2-3 5.7-6.3 6.9 2 1.9 4.5 3.3 7.1 4.3 4.4-1.5 10.3-4.9 13.1-8.3zm-10.5-24.7c1.9-1.7 4.8-2.2 7.7-2.2 1.7 0 3.4.2 5 .4 3.7.6 7.7 2.4 10.8 4.8a21.23 21.23 0 0 0-25.6-10c-1 1.4-1.2 2.9-.7 4.4.4 1.3 1.4 2.3 2.8 2.6zM148 660.8c2.2 5.7 6 8.5 10.3 7.6 1-.2 2.1-1.1 2.9-2.4.7-1.1 1-2.4.9-3.4-5.1-1.6-6.9-6.4-6-10.3.2-.7.4-1.3.7-1.9-1.4-.6-2.6-1.8-3.3-3.2-.6-1.3-.7-2.8-.4-4.2-2.8 1.5-5.3 3.6-7.2 6.1.1.8.2 1.5.2 2.3.4 3.2.7 6.3 1.9 9.4zm10.1-8c-.6 2.9.7 6.5 4.4 7.8 1.4-1.9 3.2-2.9 5.2-3.1 2.5-.2 4.6 1.2 5.6 2.3.5.6 1 1.2 1.3 1.8 1.2-.8 2.9-1.5 4.7-1.5h.8c1.5.2 2.9.8 4 1.9 0-1.9-.2-3.8-.7-5.6-2.5-3.5-8.1-6.7-13-7.5-4.1-.6-11.3-1-12.3 3.9zm500.8.8v.3l-.3 3c-.7 5.4-3.3 12.4-8.4 14.7.5 2.6 2.4 4.6 5.1 5.6.3.1.5.2.8.2 1.7-2 3.1-4.3 4-6.8 2-5.5 1.5-11.7-1.2-17zm-26.2 22.8c-2.7-3.3-5.4-7.2-5-10.9-1-1-2.9-1.8-4.8-1.5-1.6.2-3 1.3-3.9 3 1.3 7.6 6.5 13.9 13.7 16.5a21.4 21.4 0 0 0 11.2.9c-3.6-1.8-8.5-4.7-11.2-8zm15.4-4.2a10.33 10.33 0 0 1-3.9-.1c-1.6-.4-3.2-1.7-4.3-3.5-1-1.7-1.4-3.5-1-5-1.1-1.5-2.3-2.3-3.8-2.4h-.3c-1.6 0-3 .9-3.7 1.7-3 3.3-.9 7.2 3.1 12.2 2.8 3.4 8.6 6.8 13 8.3 2.6-.9 5-2.4 7.1-4.3-3.2-1.2-5.5-3.7-6.2-6.9zm-3.3-21.8c1.3-.3 2.4-1.3 2.9-2.6.5-1.4.3-3-.7-4.4-2.3-.8-4.6-1.2-6.9-1.2-7.7 0-15 4.2-18.7 11.2 3.1-2.4 7.2-4.2 10.8-4.8 4.1-.6 9.5-.8 12.6 1.8zm2.1 3.6c.9 3.9-.9 8.7-6 10.3-.2 1 .2 2.2.9 3.4.8 1.3 1.9 2.2 2.9 2.4 4.3 1 8.1-1.9 10.3-7.6 1.2-3.1 1.5-6.2 1.8-9.5.1-.8.2-1.5.2-2.3-1.9-2.6-4.4-4.7-7.2-6.1.4 1.4.2 2.9-.4 4.2-.7 1.5-1.8 2.6-3.3 3.2.4.7.7 1.3.8 2zm-18.5 9.4a6.78 6.78 0 0 1 1.3-1.8c1.1-1.2 3.2-2.5 5.6-2.3 2 .1 3.8 1.2 5.2 3.1 3.7-1.3 5.1-4.9 4.4-7.8-1.1-4.9-8.2-4.5-12.4-3.8-4.9.8-10.5 4-13 7.5-.5 1.8-.7 3.7-.7 5.6 1.1-1.1 2.5-1.8 4-1.9 2.2-.4 4.3.4 5.6 1.4z" fill="#fff"/></g></svg>