<svg xmlns="http://www.w3.org/2000/svg" width="723.2" height="723.2" viewBox="0 0 542.4 542.4" xmlns:v="https://vecta.io/nano"><defs><clipPath id="A"><path d="M0 0h542.398v542.398H0zm0 0"/></clipPath></defs><g clip-path="url(#A)"><path d="M542.395 271.203c0 149.777-121.418 271.195-271.2 271.195C121.422 542.398 0 420.98 0 271.203S121.422.004 271.195.004c149.78 0 271.2 121.418 271.2 271.2" fill="rgb(0%,37.599182%,64.698792%)"/></g><path d="M458.387 271.203c0 103.383-83.81 187.188-187.19 187.188S84.012 374.586 84.012 271.203s83.805-187.19 187.184-187.19 187.19 83.81 187.19 187.19" fill="rgb(100%,100%,100%)"/><path d="M271.2 170.645l22.566 69.535h73.102l-59.133 42.902 22.57 69.53-59.105-42.957-59.105 42.957 22.57-69.53-59.137-42.902h73.102l22.57-69.535" fill="rgb(13.699341%,12.199402%,12.5%)"/><g fill="rgb(0%,37.599182%,64.698792%)"><path d="M407.004 379.55V162.805l.93 1.07c23.227 29.555 37.082 66.82 37.082 107.328 0 40.473-13.832 77.72-37.03 107.258l-.98 1.1m-76.932-101.16l37.527-27.23.602-.402v164.766l-.605.324c-11.695 7.813-24.4 14.238-37.852 19.055l-.344.2v-71.6l.652.46 17.984 13.074-18.637-57.297v-40.984l.672-.355"/><path d="M367.824 230.848h-37.762l-.66-.07v-123.45l.387.176c13.363 4.785 25.973 11.16 37.598 18.898l.816.582v103.793l-.38.07M252.148 199.1l19.05-58.684L290.6 200.29V98.496l-.566-.102a175.48 175.48 0 0 0-18.84-1.012c-6.418 0-12.758.348-18.996 1.027l-.402.086V200.04l.352-.93M174.2 230.777V126.984l.246-.2a173.05 173.05 0 0 1 38.2-19.29l.36-.086v123.367l-.344.07H174.95l-.758-.07m.428 184.97a173.35 173.35 0 0 0 37.926 19.129l.45.152v-71.47l-.543.328-18.098 13.152 18.445-56.82.195-.727v-40.484l-.48-.47-37.926-27.516-.398-.254V415.45l.43.293"/><path d="M252.465 334.805l18.734-13.617 18.988 13.8.414.332v108.54l-.422.137c-6.234.676-12.566 1.023-18.984 1.023a175.23 175.23 0 0 1-18.824-1.008l-.574-.07V335.234l.668-.43m-117.77-171.222c-23.367 29.598-37.316 66.98-37.316 107.62 0 40.723 14.004 78.176 37.46 107.8l.55.715V162.7l-.695.9"/></g><path d="M279.934 483.746l-7.207 16.094c-3.172 7.62-6.145 15.324-9.156 23.012-.344.88-.754 1.168-1.7 1.125-3.348-.145-3.344-.105-4.36-3.254-3.95-12.242-8.277-24.348-13.398-36.152-.293-.676-.6-1.34-1.078-2.012-1.63 13.438-2.582 26.918-3.332 40.52l-6.855-.227 1.066-7.273 3.957-32.898c.133-1.12.105-2.285-.03-3.4-.3-2.465-1.062-3.238-3.496-3.723-.863-.172-1.754-.223-2.715-.336l.1-2.762 20.918.7 11.965 31.637.582-.043c.25-.434.543-.852.742-1.3l12.176-28.336c.207-.473.8-1.13 1.188-1.125l19.422.598-.098 2.898-1.922.03c-3.113.1-4.5 1.293-4.594 4.4-.137 4.504-.215 9.023-.016 13.523l1.422 24.18c.1 1.73.297 3.45.457 5.28l-12.926-.43-.477-40.63-.613-.1m63.14 32.518c-9.035 2.648-17.078 2.145-24.32-3.312-5.492-4.14-8.43-9.895-9.656-16.535-1.66-9.016.375-17.05 6.977-23.605 8.242-8.2 22.9-11.8 33.8-5.195 5.56 3.375 9.098 8.328 11.023 14.422 1.883 5.953 2.14 11.97-.094 17.926-2.504 6.7-7.2 11.367-13.527 14.504-1.55.77-3.187 1.363-4.2 1.797m7.36-26.215c-1.97-6.266-4.773-12.05-9.727-16.562-2.547-2.316-5.434-4.03-8.93-4.336-7.336-.64-12.766 4.465-12.988 12.215-.172 6.035 1.625 11.63 4.148 17.02 2.273 4.867 5.273 9.172 9.832 12.207 8.297 5.535 18.395.656 19.203-9.277.313-3.867-.398-7.594-1.54-11.266m7.56-30.542l-1.48-2.375 20.3-12.676 1.45 2.316-2.238 1.86c-1.734 1.656-1.918 2.758-.8 4.887l2.688 4.8 11.824 18.398c.805 1.234 1.797 2.38 2.848 3.4 3.637 3.563 8.355 4.246 12.832 1.762 1.758-.977 3.492-2.133 4.926-3.527 3.4-3.324 4.148-8.238 1.566-12.6-4.93-8.3-10.078-16.496-15.285-24.64-1.95-3.043-3.594-3.227-6.777-1.434l-.996.56-1.496-2.402 14.57-9.098 1.453 2.328c-.816.703-1.656 1.32-2.375 2.06-1.102 1.133-1.426 2.465-.652 3.94.602 1.14 1.145 2.313 1.824 3.406l12.48 20.094c1.44 2.43 2.645 5.14 3.277 7.88 1.156 5.012-.832 9.297-4.348 12.8-4.582 4.547-10.05 7.723-16.3 9.363-6.945 1.816-12.57-.426-16.715-6.785-3.277-5.027-6.23-10.262-9.4-15.36a186.73 186.73 0 0 0-5.316-8.074c-2.04-2.937-3.516-3.238-6.652-1.55l-1.207.66M204.395 70.598l1.93.324c4.95 1.086 9.9 1.527 14.797-.187 1.367-.477 2.742-1.223 3.813-2.184 3.3-2.94 2.914-7.797-.828-10.14-1.648-1.03-3.56-1.738-5.437-2.3-3.738-1.13-7.57-1.95-11.305-3.098-4.06-1.254-7.66-3.305-9.898-7.12-4.203-7.156-1.73-15.363 5.88-19.816 4.066-2.38 8.543-3.406 13.133-3.97 2.598-.316 5.227-.395 7.844-.488.38-.012 1.03.438 1.12.78.957 3.637 1.824 7.297 2.742 11.05l-2.863.7c-.395-.852-.734-1.773-1.23-2.605-4.05-6.855-12.402-6.457-16.734-3.3-3.93 2.875-3.63 8.957.68 11.6 2.027 1.238 4.4 1.992 6.72 2.672 3.176.93 6.457 1.488 9.648 2.37 3.668 1.012 7.137 2.492 9.605 5.586 4.84 6.06 3.457 14.633-3.113 19.7-3.242 2.496-6.934 4-10.84 5.023-4.238 1.105-8.55 1.63-12.945 1.383-.906-.047-1.422-.277-1.594-1.277-.25-1.453-.676-2.875-1.12-4.687m264.065 352.712l3.945 3.645c-6.14 9.453-13.074 17.973-24.223 21.773-7.633 2.602-14.762 1.262-21.215-3.488-5.082-3.738-8.832-8.504-10.512-14.684-1.9-7.012-.613-13.625 2.688-19.953 3.148-6.047 10.805-13.844 16.93-17.215l9.102 8.414-2.05 2.215c-.52-.375-1.06-.8-1.625-1.164-4.516-2.984-9.38-2.512-13.246 1.328-4.762 4.723-6.27 10.4-3.852 16.6 3.7 9.523 10.7 15.867 20.555 18.6 7.363 2.047 14.95-1.125 19.102-7.63 1.684-2.633 2.9-5.56 4.402-8.46m-313.864 67.36l-3.215 4.973-28.914-18.707 6.2-8.72 16.88-25.187c3.004-4.605 2.715-5.47-1.63-8.9l1.516-2.34 20.125 13.023-1.484 2.3-3.164-1.44c-1.555-.602-2.918-.277-3.96 1.086l-2.242 2.957-17.863 28.1c-.973 1.535-.883 2.625.734 3.676 3.277 2.117 6.64 4.113 10.063 5.988 2.203 1.207 4.574 2.105 6.965 3.184M395.047 61.504l-13.43 11.43-18.156 16.84c-.7.645-1.187.73-2.03.28-2.957-1.574-2.977-1.535-2.54-4.812 1.7-12.754 2.996-25.543 3.45-38.402.023-.738.027-1.473-.1-2.277-7.246 11.43-13.906 23.2-20.43 35.148l-6.1-3.152 4.086-6.1 17.72-28c.602-.957 1.082-2.02 1.438-3.094.8-2.355.434-3.383-1.555-4.863-.707-.527-1.488-.957-2.305-1.47l1.266-2.457 18.6 9.625-2.805 33.707.547.2c.4-.285.855-.53 1.23-.86L397.1 52.895c.4-.34 1.203-.68 1.56-.5l17.277 8.887-1.336 2.574-1.746-.797c-2.86-1.242-4.62-.766-6.047 2.004-2.06 4.012-4.07 8.06-5.828 12.207l-9.113 22.44c-.645 1.605-1.215 3.238-1.86 4.965l-11.484-5.945 17.04-36.887-.512-.344M107.855 93.22l-2.02 2.094-2.672-1.633c-6.8-3.402-13.6 1.098-15.676 6.164-1.844 4.52 1.605 9.547 6.648 9.504 2.426-.023 4.9-.672 7.254-1.344 3.707-1.05 7.3-2.496 11.016-3.527 3.75-1.04 7.56-1.176 11.14.754 6.38 3.438 8.797 10.488 6.148 17.64-1.402 3.8-3.7 6.996-6.406 9.9-3.023 3.238-6.434 6.008-10.328 8.168-.762.422-1.273.473-1.9-.22-1.03-1.1-2.164-2.12-3.46-3.375.758-.348 1.2-.598 1.688-.77 4.77-1.715 9.207-3.977 12.44-8.02.902-1.133 1.68-2.488 2.086-3.867 1.266-4.305-1.676-8.254-6.16-8.2-1.95.02-3.934.453-5.828.977-3.715 1.027-7.352 2.355-11.07 3.363-4.156 1.12-8.336 1.328-12.312-.762-7.297-3.832-9.582-12.03-5.57-19.793 2.598-5.02 6.703-8.656 11.05-12.055 1.363-1.066 2.824-2.008 4.285-2.93.332-.2 1.055-.324 1.266-.125l8.4 8.055m158.53-76.142l.105 1.703.012 1.02-2.953.617c-2.12.574-2.793 1.383-2.902 3.543l-.016 4.008 3.16 39.766-12.383.793-.25-3.97-1.953-37.7c-.273-4.687-1.312-5.4-6.527-5.44l-.18-2.797 23.887-1.53m48.09 31.587l12.422 1.738-3.246 23.18-7.04-.97c-5.414-.55-10.898-.668-16.234-1.625-6.273-1.12-11.738-4.145-15.926-9.1-5.102-6.047-6.27-13.098-4.898-20.656 2.488-13.707 13.52-20.824 26.023-21.637 8.098-.523 15.8 1.313 23.375 4.188l-1.754 12.516-2.883-.402c-.03-.875 0-1.762-.098-2.633-.6-5.223-4.137-8.777-9.687-9.754-7.297-1.28-14.117 1.914-18.066 8.902-4.34 7.68-5.3 15.918-2.715 24.38 2.148 7.074 8.68 11.68 16.043 11.695 2.297.004 2.887-.445 3.1-2.766l1.387-15.7c.035-.4.105-.78.188-1.355M116.992 71.8l-1.434-2.324 20.3-12.53 1.43 2.316-2.37 1.984c-1.47 1.4-1.805 2.465-.86 4.246 1.88 3.54 3.938 6.992 5.945 10.465.8 1.367 1.652 2.7 2.707 4.402.62-1.773 1.234-3.168 1.598-4.617l3.945-16.488c.23-.996.277-2.078.184-3.098-.152-1.68-1.047-2.2-2.703-1.664-.8.258-1.527.672-2.398 1.063l-1.453-2.355 16.625-10.262 1.496 2.426c-3.875 2.402-4.98 6.516-6.117 10.566l-4.148 15.566 11.523 4.273 23.836 7.965c.488.164.9.598 1.332.906-.375.344-.7.75-1.133 1.012l-10.473 6.523c-1.004.656-1.738.656-2.8.23l-22.97-8.977c-1.47-.566-3.023-.922-4.535-1.37l-.367.555 13.316 20.18-10.63 6.563-1.12-1.816-20.32-33.945c-2.418-3.98-3.7-4.168-7.926-1.95-.125.066-.27.1-.48.156m335.39 21.947l-18.66 51.797c-.187-.145-.5-.344-.762-.598l-8.527-8.086c-.648-.598-.758-1.047-.402-1.875l5.395-12.855c.37-.863.3-1.402-.398-2.05l-13.254-12.605c-.7-.676-1.254-.664-2.074-.23L400.55 114l-5.387-5.13 1.078-.566 41.074-16.734c4.16-1.707 4.496-3.535 1.453-6.8l-.453-.523 1.94-2.043 12.13 11.555M431.6 116.97l8.04-21.12-.37-.367-20.516 9.25L431.6 116.97M184.98 511.668c-8.777-3.418-14.84-8.72-17.25-17.457-1.832-6.637-.645-12.984 2.434-18.996 4.18-8.156 10.7-13.28 19.922-14.453 11.53-1.46 25.363 4.62 29.96 16.508 2.348 6.066 2.13 12.148-.062 18.152-2.137 5.867-5.602 10.8-11.004 14.148-6.07 3.773-12.652 4.6-19.57 3.242-1.695-.336-3.355-.863-4.43-1.145m21.82-16.285c2.262-6.168 3.57-12.46 2.395-19.06-.605-3.387-1.844-6.508-4.43-8.883-5.426-4.984-12.84-4.246-17.742 1.758-3.82 4.68-5.8 10.207-7.098 16.02-1.164 5.242-1.414 10.48.344 15.668 3.203 9.445 14.18 11.742 20.88 4.363 2.6-2.87 4.316-6.262 5.652-9.867M82.957 443.805c-6.207-7.078-9.14-14.582-7.242-23.45 1.438-6.727 5.422-11.816 10.93-15.723 7.473-5.3 15.613-6.848 24.344-3.625 10.902 4.027 20.363 15.8 18.953 28.477-.72 6.46-3.715 11.758-8.434 16.074-4.602 4.215-9.953 6.98-16.293 7.47-7.125.547-13.352-1.754-18.855-6.16-1.352-1.078-2.578-2.312-3.402-3.062m26.875-4.37c4.852-4.426 8.922-9.402 10.922-15.797 1.027-3.285 1.367-6.63.172-9.926-2.512-6.926-9.43-9.695-16.55-6.633-5.547 2.387-9.863 6.375-13.7 10.934-3.453 4.1-6.094 8.648-6.926 14.06-1.523 9.855 7.156 16.96 16.504 13.508 3.64-1.344 6.723-3.562 9.57-6.145" fill="rgb(100%,100%,100%)" fill-rule="evenodd"/></svg>