<svg xmlns="http://www.w3.org/2000/svg" width="223.816" height="300" viewBox="0 0 59.218 79.375" xmlns:v="https://vecta.io/nano"><path d="M56.067 6.927S42.928-.175 29.6.003C16.293-.175 3.15 6.927 3.15 6.927s-5.325 17.5-2.13 34.407 17.046 33.423 28.59 38.04c11.542-4.617 25.392-21.13 28.587-38.04s-2.13-34.407-2.13-34.407z" fill="#283b80"/><path d="M55.062 7.756S41.84 1.482 29.6 1.482 4.16 7.756 4.16 7.756s-6.748 22.134 0 40.01S18.246 70.615 29.6 78.19c11.364-7.576 18.703-12.546 25.45-30.422s0-40.01 0-40.01z" fill="#fff"/><path d="M52.575 10.004s-11.482-5.8-22.965-5.8-22.966 5.8-22.966 5.8-5.433 16.83.126 35.077c5.25 17.224 12.895 23.522 22.84 29.676 9.943-6.155 17.59-12.452 22.84-29.676 5.563-18.248.126-35.077.126-35.077z" fill="#243778"/><path d="M10.377 14.452v2.5h5.607v2.35h-5.607v4.55H7.792v-11.75h8.947v2.35zm13.145 9.602c-3.458 0-6.028-2.67-6.028-6.044v-.034c0-3.34 2.52-6.077 6.13-6.077 2.216 0 3.54.737 4.632 1.813l-1.643 1.895c-.906-.823-1.83-1.326-3.005-1.326-1.98 0-3.4 1.646-3.4 3.66v.034c0 2.013 1.395 3.693 3.4 3.693 1.343 0 2.166-.536 3.1-1.377l1.644 1.663c-1.212 1.294-2.555 2.1-4.82 2.1zm10.274-.034c-1.78 0-3.576-.622-4.986-1.88l1.53-1.83c1.058.874 2.164 1.428 3.505 1.428 1.06 0 1.697-.42 1.697-1.107v-.034c0-.654-.405-1-2.368-1.494-2.366-.605-3.895-1.26-3.895-3.592v-.03c0-2.132 1.712-3.542 4.112-3.542 1.713 0 3.172.536 4.367 1.493l-1.343 1.948c-1.042-.72-2.068-1.157-3.058-1.157s-1.5.453-1.5 1.024v.03c0 .773.504 1.025 2.535 1.545 2.384.622 3.726 1.478 3.726 3.525v.034c.003 2.334-1.775 3.643-4.312 3.643zm14.96-.167V16.18L45.45 21.2h-.07l-3.272-4.97v7.622h-2.54v-11.75h2.788l3.1 4.97 3.087-4.97h2.784v11.75z" fill="#ffe61c"/><path d="M8.683 26.3v.455h1.02v.428h-1.02v.83h-.47v-2.14h1.63v.428h-1.16zm3.96 1.75c-.66 0-1.133-.493-1.133-1.1v-.01c0-.608.48-1.106 1.14-1.106s1.134.493 1.134 1.1v.004c0 .6-.48 1.108-1.14 1.108zm.648-1.107c0-.366-.268-.672-.648-.672s-.64.3-.64.666v.004c0 .366.27.67.647.67s.642-.3.642-.665zm3.337 1.107c-.66 0-1.133-.493-1.133-1.1v-.01c0-.608.478-1.106 1.14-1.106s1.134.493 1.134 1.1v.004c.001.6-.48 1.108-1.14 1.108zm.646-1.107c0-.366-.268-.672-.647-.672s-.64.3-.64.666v.004c0 .366.27.67.647.67s.642-.3.642-.665v-.01h-.001zm3.178-.636v1.706h-.47v-1.706h-.65v-.435h1.772v.435zm3.418 1.706h-1.017v-2.14h.992c.44 0 .706.218.706.553v.004c0 .243-.128.377-.28.462.248.095.4.237.4.525v.01c0 .4-.318.587-.8.587zm.215-1.507c0-.14-.1-.22-.308-.22h-.466v.452h.434c.208 0 .34-.07.34-.227zm.12.856c0-.143-.108-.233-.35-.233H23.3v.47h.56c.208 0 .333-.073.333-.232v-.01zm3.835.65l-.195-.48h-.907l-.193.48h-.48l.916-2.156h.435l.916 2.156zm-.648-1.6l-.284.693h.57zm2.858 1.6v-2.14h.47v1.712h1.067v.428zm3.28 0v-2.14H34v1.712h1.066v.428zm6.6.037c-.632 0-1.098-.486-1.098-1.1v-.01c0-.608.456-1.106 1.115-1.106a1.11 1.11 0 0 1 .846.331l-.3.346c-.165-.148-.333-.242-.548-.242-.36 0-.62.3-.62.666v.004c0 .366.256.67.62.67.246 0 .396-.097.563-.25l.302.302a1.1 1.1 0 0 1-.879.383zm2.64-.037v-2.14h.47v1.712h1.068v.428zm4.1.032c-.58 0-.928-.32-.928-.95v-1.223h.47v1.2c0 .35.175.528.462.528s.46-.175.46-.515V25.87h.47v1.2c.001.65-.364.965-.937.965zm3.824-.032h-1.02v-2.14h.994c.438 0 .706.218.706.553v.004c0 .243-.13.377-.28.462.248.095.4.237.4.525v.01c0 .4-.317.587-.8.587zm.215-1.507c0-.14-.108-.22-.308-.22h-.463v.452h.43c.208 0 .34-.07.34-.227zm.12.856c0-.143-.107-.233-.35-.233h-.544v.47h.56c.207 0 .333-.073.333-.232v-.01zM8.97 31.594a1.36 1.36 0 0 1-.908-.342l.278-.332c.193.16.395.26.64.26.192 0 .3-.078.3-.2v-.004c0-.12-.073-.18-.43-.272-.43-.1-.7-.23-.7-.655v-.004c0-.4.312-.645.75-.645a1.23 1.23 0 0 1 .794.272l-.244.356c-.2-.132-.377-.2-.556-.2s-.274.083-.274.187v.004c0 .14.1.186.46.282.435.114.68.268.68.64v.01c.001.42-.323.66-.786.66zm2.392.008c-.66 0-1.132-.492-1.132-1.1v-.01c0-.607.48-1.105 1.14-1.105s1.134.492 1.134 1.1v.004c-.001.608-.482 1.108-1.14 1.108zm.647-1.1c0-.365-.268-.67-.648-.67s-.64.3-.64.665v.004c0 .367.27.674.647.674s.642-.3.642-.666zm2.067 1.1a1.08 1.08 0 0 1-1.097-1.1v-.01c0-.607.456-1.105 1.115-1.105.403 0 .645.135.843.33l-.3.347c-.165-.152-.332-.243-.548-.243-.36 0-.62.3-.62.665v.004c0 .367.254.674.62.674.245 0 .394-.097.56-.25l.3.302a1.1 1.1 0 0 1-.876.38zm2.747-.04v-.86h-.867v.86h-.47v-2.14h.47v.847h.867v-.847h.47v2.14zm2.732 0l-.195-.48h-.905l-.195.48h-.48l.916-2.155h.434l.918 2.155zm-.647-1.6l-.285.694h.568zm2.44 1.633c-.575 0-.927-.32-.927-.95v-1.222h.47v1.212c0 .348.173.526.46.526s.462-.175.462-.512v-1.227h.47v1.208c.001.65-.363.965-.937.965zm2.88-.033l-.48-.734-.484.734h-.535l.745-1.088-.716-1.052h.55l.45.693.452-.693h.534l-.714 1.045.745 1.093h-.548zm.8-.723v-.447h.94v.447zm3.18.723v-1.397l-.604.912h-.01l-.598-.905v1.388h-.462v-2.14h.5l.56.905.565-.905h.506v2.14zm2.174.04c-.66 0-1.133-.492-1.133-1.1v-.01c0-.607.478-1.105 1.14-1.105s1.134.492 1.134 1.1v.004c0 .608-.482 1.108-1.14 1.108zm.647-1.1c0-.365-.267-.67-.647-.67s-.64.3-.64.665v.004c0 .367.268.674.648.674s.64-.3.64-.666h0zm2.567 1.07l-1.034-1.36v1.36h-.468v-2.14h.435l1.004 1.317v-1.317h.464v2.14zm2.036-1.706v1.706h-.47v-1.706h-.65v-.434h1.77v.434zm2.185 1.706h-1.02v-2.14h.996c.435 0 .704.217.704.553v.01c0 .242-.128.376-.28.462.248.095.4.237.4.525v.004c.003.392-.317.587-.8.587zm.215-1.505c0-.14-.1-.22-.3-.22h-.463v.452h.433c.207 0 .34-.066.34-.225zm.118.855c0-.143-.105-.233-.35-.233h-.542v.47h.558c.208 0 .332-.074.332-.233v-.004zm1.012.65v-2.14h1.615v.418H39.63v.434h1v.42h-1v.448h1.163v.42zm.552-2.306l.343-.543.403.176-.393.367zm1.652 2.306v-2.14h.47v1.712h1.067v.427h-1.536zm2.068 0v-2.14h.47v2.14zm2.756 0l-.195-.48H45.1l-.195.48h-.48l.916-2.155h.434l.918 2.155zm-.65-1.6l-.284.694h.57zm2.926 1.6l-.46-.685h-.37v.685h-.467v-2.14h.975c.504 0 .807.266.807.706v.01a.66.66 0 0 1-.456.663l.523.763zm.008-1.408c0-.202-.142-.306-.37-.306h-.468v.616h.48c.228 0 .357-.122.357-.304zm1.89 1.408h-.833v-2.14h.833c.673 0 1.137.462 1.137 1.064v.004c.001.604-.464 1.07-1.137 1.07zm.646-1.07a.61.61 0 0 0-.644-.644h-.363v1.3h.362c.387 0 .644-.26.644-.638v-.01zM25.2 65.062h.452v3.042h-.655v-2.37l-.527.13-.137-.545zm2.5 3.093a1.45 1.45 0 0 1-.992-.358l.35-.504c.22.177.406.26.662.26.37 0 .567-.28.613-.686-.147.127-.35.2-.613.2-.657 0-1.08-.364-1.08-.98s.47-1.064 1.153-1.064c.406 0 .642.102.87.327.218.218.36.547.36 1.146 0 .984-.463 1.65-1.32 1.65zm.112-2.554c-.326 0-.5.2-.5.46s.196.46.524.46.52-.193.52-.453c-.001-.275-.2-.467-.532-.467zm2.475.44l-.468-.376c.3-.404.587-.624 1.126-.624.642 0 1.04.37 1.04.935 0 .506-.26.76-.794 1.175l-.5.38h1.315v.575H29.8v-.527l1.002-.824c.378-.3.525-.474.525-.726s-.168-.392-.405-.392c-.232 0-.393.13-.615.405zm3.686 2.105c-.67 0-1.165-.346-1.165-.878 0-.37.17-.584.5-.734-.235-.14-.385-.336-.385-.664 0-.467.422-.832 1.06-.832s1.06.364 1.06.832a.71.71 0 0 1-.386.664c.307.16.488.357.488.715-.001.57-.496.896-1.165.896zm0-1.3c-.304 0-.523.136-.523.373 0 .214.195.38.523.38s.523-.166.523-.38c-.001-.236-.22-.373-.523-.373zm0-1.26c-.273 0-.434.164-.434.356 0 .216.17.374.434.374s.43-.155.43-.37c0-.193-.16-.36-.43-.36z" fill="#fff"/><g fill="#ffe61c"><path d="M30.498 56.943l-4.203 4.203s-5.742 1.187-6.807 2.84c0 0 6.216-6.332 11-7.043zm12.048-15.4s3.578 5.623-.565 10.832-6.748 6.63-10.243 8.078c0 0 2.37 1.214 7.343-.857s6.45-5.92 6.5-9.175.066-6.45-3.046-8.878zm1.094-2.888l.354-.96s2.13 1.656 4.26 3.848 2.842 4.203 2.842 4.618-2.545 7.455-3.73 8.64c.001.003 2.902-9.504-3.727-16.145zm-2.714-2.915c-1.947-1.598-6.34-.828-6.34-.828 2.903.18 6.15 1.716 6.33 3.136s-2.727 1.776-2.727 1.776c3.435 4.205.12 7.634.12 7.634s2.25-2.722-1.36-6.983-8.7-3.964-8.7-3.964c.65-.65 3.788-2.665 3.788-2.665-6.8-1.038-13.14 5.977-14.915 7.34s-6.216 2.252-7.814 3.554 0 3.6 0 3.6c.947-2.367 1.954-2.188 1.954-2.188-.65.6-1.48 2.84-1.242 4.318s1.54 2.368 2.723 1.717l1.54 1.302-.414-2.07s1.895-1.95 3.493-1.892 4.617 1.42 4.32 4.082-4.144 2.9-4.144 2.9l-1.716-1.656.177 1.715s-.828.06-1.185.414c-.334.336 2.925 4.534 3.28 4.986.024-.163.467-.895 3.4-4.098 4.025-4.382 1.894-8.345 1.894-8.345s2.132 1.125 6.63-1.542 2.072-7.576 2.072-7.576c1.598.77 2.782 1.657 2.605 5.03S30.5 51.85 28.252 53.27 24.7 57.6 24.7 57.6c2.132-2.368 8.88-4.437 8.88-4.437-.12.884-1.182 2.367-1.182 2.367s1.066 0 5.798-4.145 2.733-10.713 2.733-10.713c2.37-1.182 1.94-3.314-.002-4.912zm-18.418 6.1c-.533.414-1.894-.298-1.008-1.422s3.02-.592 3.02-.592c-.296.354-1.478 1.598-2.012 2.014z"/><path d="M18.128 62.03l-.037-.046c-.01.06.037.046.037.046z"/></g></svg>