<?xml version="1.0" encoding="UTF-8"?>
<!DOCTYPE svg  PUBLIC '-//W3C//DTD SVG 1.1//EN'  'http://www.w3.org/Graphics/SVG/1.1/DTD/svg11.dtd'>
<svg width="325.64" height="307.08" version="1.1" viewBox="0 0 1e3 943" xmlns="http://www.w3.org/2000/svg">
<path d="m405 47.1c34.2-8.8 66.9-24.1 94.8-45.7 41.4 31.6 92.4 49.8 144.2 53.7 34.6 2.9 69.3 3.8 104 3.9 37.1 1 74.1-0.8 111.2-0.5 0.1 166.8 0 333.7 0.1 500.5 0.3 19.7-4 39.3-10.7 57.8-11.3 32.4-32.3 61.5-59.8 82-25.3 19.2-55.5 31-86.4 37.4-41 8.4-80.8 21.8-118.6 39.5-3.6 1.6-7.4 3.1-10.4 5.7 4.2 0.5 8.4 0.3 12.6 0 64.7-2 129.5-5.4 193.9-12.3-0.7-9-1.3-18.1-1.9-27.1-0.5-3 2.1-5.6 5-5.7 67.1-6.6 133.7-18.7 198.4-38 3.1-0.9 7.5-2.7 9.9 0.5 1.8 1.9 1.2 4.6 0.3 6.8-9.8 23.5-19.9 46.9-29.7 70.4-1.4 2.3 0.2 4.6 1.4 6.6 11.5 18.3 22.9 36.6 34.3 54.8 2.5 3.2 0.5 7.8-3.3 8.6-22 6.7-43.5 14.8-65.8 20.2-9.4 2.6-19.1 4.2-28.6 6.7 0.9 11.4 2 22.7 2.9 34.1 0.4 2.9-2 5.5-4.9 5.8-109 18.1-219.5 25.5-329.9 28.2-66 1.8-132 0.8-198-2-90.4-3.8-180.7-11.4-270-26.2-2.8-0.3-5.2-2.9-4.8-5.8 0.4-11.5 2.3-22.9 2.6-34.5-32.1-5.6-62.6-17-93.4-27-4-1.2-4.2-6.2-1.9-9.1 11.2-18.8 22.4-37.5 33.7-56.2 1.1-1.6 0.3-3.5-0.3-5.1-9.7-22.1-18.8-44.5-28.4-66.6-1.1-3-3.4-6.9-0.8-9.7 2.2-3.1 6.3-1.5 9.3-0.7 64.8 19.5 131.7 31.5 199 38.2 2.5 0.1 5 2 4.9 4.7 0 9.5-1.7 18.9-1.5 28.3 64.4 6.5 129 10.2 193.6 12.1 4.9 0.3 9.7 0.6 14.5 0-2.8-3.2-7.1-4.3-10.8-6.1-38.6-18.2-79.4-31.6-121.3-39.8-43.6-9.1-85.8-30.5-114.2-65.6-26.3-32.7-40.5-75-39-116.9 0.1-164.9-0.1-329.8 0.1-494.7 55.9 0.8 111.8 1.7 167.7-0.4 32.2-1.5 64.8-2.4 96-10.8m6.5 13.2c-42.8 11.2-87.5 11.4-131.5 12.8-41.5 1-83.1 0.3-124.6-0.1v302.9c112.4 0.2 224.8 0.1 337.2 0-0.1-117.1 0.1-234.1 0-351.1-25.4 15.2-52.4 28-81.1 35.5m96.4-35.3c-0.2 116.9-0.2 234-0.1 350.9 112.3 0.1 224.7 0.2 337 0-0.1-101 0-202 0-303-26.3 0.2-52.5 0.8-78.8 0.8-46.9-0.7-94.1-0.6-140.7-6.3-41.7-5.1-81.8-20.4-117.4-42.4m-352.5 366.2v172.8c1.6 47.5 24.7 94.2 62.9 122.7 26 19.8 57.5 31 89.4 36.9 50.5 10.8 99.3 29.5 144.7 54 3.8 1.8 7.2 4.8 11.6 4.9 9.5 0.1 19.1 0.3 28.6 0.2v-391.5c-112.4-0.2-224.8-0.2-337.2 0m352.4-0.1c0 8-0.2 16 0.2 23.9 5.6 0.9 11.2 2.1 16.3 4.6 14.1 6.5 24 19.5 38 26.1 12 5.9 26 6 39 3.9 15.2-2.9 26.2-14.2 38-23.3 15.5-12.5 37.6-14.6 56.2-8.5 16.2 5.5 26.6 20.5 41.8 27.8 15.7 7.2 34.8 7.2 50.4 0.1 14.3-6.7 24.1-20.1 38.5-26.4 5.8-2.8 12.2-3.8 18.5-4.7 0.1-7.8 0-15.6 0.1-23.5-112.3-0.1-224.7 0-337 0m149.6 80.4c-19.7 5.5-31.2 25.1-50.5 31.2-13.2 4.1-27.8 3.9-40.8-0.7-16.4-6-27-21.3-42.9-28.2-4.8-2.3-10.1-3.4-15.4-4.1-0.2 20.2 0 40.3-0.1 60.5 5.5 1.3 11.2 2.3 16.3 4.8 14.7 6.5 24.6 20.2 39.4 26.6 15.3 6.6 33.7 6.7 48.9-0.3 14.6-6.7 24.4-20.6 39.2-26.8 14.4-5.9 31.1-6.1 45.6-0.6 16.3 6.2 26.6 21.8 42.7 28.3 17.6 7.1 38.7 5.6 54.6-4.8 10.6-6.9 19.1-16.8 30.8-22.1 6.1-3.1 12.9-4.3 19.5-5.3 0.1-20.1 0-40.3 0.1-60.4-5.5-0.1-10.9 1.4-16 3.3-17.9 6.8-29.1 24.5-47.6 30.1-16.3 4.5-34.9 3.6-49.4-5.7-9.3-5.9-16.9-14-26.2-19.9-14.1-9-32.3-10.1-48.2-5.9m-149.6 113.7c0 20.2-0.2 40.4 0.1 60.6 6.4 1.2 12.8 2.7 18.5 5.9 10.4 5.2 18.3 13.8 27.8 20.2 15.8 11 37.1 12.8 54.9 6.2 15.5-5.6 25.4-19.8 40-27 13.2-6.6 29-7.1 43.2-3.4 13.1 3.6 23 13.3 33.4 21.6 19.8 16.3 50.6 16.9 71.3 1.8 6.4-4.2 11-10.5 15.6-16.5 15.1-20.5 25.1-44.5 30-69.4-13 0.9-24.7 7.8-34.3 16.2-10.4 9-22.4 17.6-36.5 19.1-10.4 0.6-21.3 1-31.1-3.2-17.3-6.6-28-23.7-45.7-29.5-17.3-5.6-37.6-4-52.7 6.5-9.8 6.8-18.1 15.9-28.9 21.2-8.7 4.6-18.7 5.8-28.4 5.3-14.1 0.5-27.3-6.1-37.9-14.9-11.3-9.8-23.9-19.4-39.3-20.7m136 123.6c-11.3 7.3-20.3 18-32.9 23.3-20.2 8.4-45 5.1-61.8-9.2-12-10.1-25-20.9-41.3-22.3 0 27.4-0.2 54.8 0.1 82.1 9.1 0.1 18.1-0.2 27.2-0.2 2.3 0.1 4.7-0.4 6.7-1.6 44.6-24.5 92.2-43.4 141.7-55.2 11.3-2.6 22.8-4.5 33.9-7.9-18.4-19.8-51-23.5-73.6-9m-623 2.2c7.3 19.9 16.5 39.2 24.5 58.9 1.3 3.9 4.9 8.4 2.1 12.5-10.7 18.4-22.1 36.4-32.8 54.9 27.7 9.4 55.5 19.5 84.5 24.3 2.6-33.5 5.7-67 8.5-100.5 0-2.2 1.1-4.7 3.5-5 22.6-4.6 45.4-8.6 68-13.3-45.3-5.2-90.2-13.9-134.3-25.5-8.1-2-15.9-4.8-24-6.3m938.8 4.6c-45.8 12.5-92.5 21.3-139.6 27.3 22.3 4.9 44.8 8.7 67.2 13.2 2.6 0.6 3.3 3.6 3.5 5.9 2.4 33.2 5.6 66.4 8.1 99.6 29.4-4.7 57.7-14.8 86-23.9-11.2-18.8-23.2-37.2-34.6-55.9-1.4-2-0.8-4.4 0.1-6.5 9.3-21.4 18.2-42.9 27.4-64.4-6.2 1-12.1 3.1-18.1 4.7m-813.6 45c20.4 2.7 40.9 5.6 61.5 7.3 0.3-6.6 0.9-13.1 1.3-19.7-20.9 4.3-42 7.8-62.8 12.4m643.4-12.3c0 6.6 0.8 13.1 1.3 19.7 19.6-1.9 39.3-4.3 58.9-7.2-1.8-1-3.6-1.8-5.6-2.1-18.2-3.2-36.4-7-54.6-10.4m-199.4 43.8c-16.7 1-33.4 0-50 1.2-141.1 1.2-282.6-4.8-422.2-26-4 45.2-7.4 90.3-11.5 135.5 58.2 10 117.1 15.7 176 20.5 60.2 4.5 120.4 7.1 180.7 7.4 23.6 0.8 47.4 1 71 0 26 0 52-0.8 78-1.6 93.5-3.7 187-11.2 279.5-26.1-3.1-45.2-7.7-90.4-11.3-135.6-96.1 14.4-193.2 21.9-290.2 24.7z" fill="#003a80" stroke="#003a80" stroke-width=".09375"/>
<path d="m411.5 60.3c28.7-7.5 55.7-20.3 81.1-35.5 0.1 117-0.1 234 0 351.1-112.4 0.1-224.8 0.2-337.2 0v-302.9c41.5 0.4 83.1 1.1 124.6 0.1 44-1.4 88.7-1.6 131.5-12.8m-156.5 57.8c-4.1-4.4-8.2-9.1-14.1-11.1-11.1-3.8-24.9-1.3-33.4 6.8 0.5 1.2 1 2.3 1.5 3.5 3.8-0.5 7.9-1.8 11.4 0.2 4.9 2.7 8.3 7.3 10.6 12.2-6.9 3-14.1 5.9-21.4 8-2.6 1-4.7-1.2-6.7-2.5-5.1 1-10.6 2.4-14.1 6.6-4.9 5.5-4.5 13.5-2.8 20.2 1.6 8.4 9.6 14.7 18 15.5 6.9 0.6 13.6-2.2 19.8-5-1.3-1.2-2.7-2.4-4.1-3.6 7-4.4 14.2-8.4 21.9-11.6 3.3 5.3 7.6 10.3 13.7 12.5 8.4 3 17.7 1.6 25.7-1.9-1.3-2.3-3.2-4.2-5.5-5.5-4.3-2.5-6.1-7.5-8.2-11.8 36.7-9.4 75.5-8.2 112.7-1.6 3.1-3.5 6.3-7.3 10.7-9.3 7.4-3.5 17.1-0.8 21.8 5.7 3.4 5.5 0.6 11.8-1.4 17.2 6.2 2.6 12.5 5 18.8 7.4 11.3-11.6 23.5-22.4 34.2-34.5-24.4-17.2-52.9-28.2-82.2-33.7-42.7-7.8-87.1-0.1-126.9 16.3m0.3 86c-4.4-5.6-10-10.6-17.2-12.2-9.6-1.8-20.2 0.3-28.2 6-2.8 1.3-1.3 6.4 1.9 5.1 9.1-3 16.5 5.3 19.8 12.8-7.7 3.1-15.4 6.4-23.4 8.5-5.7-5.6-14.6-1.2-19.1 3.8-7.9 11-3.1 30.1 10.5 34.3 8.3 3 17-0.3 24.6-3.9-1.4-1.2-2.7-2.4-4-3.6 7-4.4 14.3-8.3 21.8-11.7 2.9 4.2 6 8.7 10.7 11.1 8.7 5.1 19.7 3.5 28.6-0.3-1-2.1-2.1-4-4.3-5-4.9-2.4-7.3-7.7-9-12.6 36.8-9 75.4-8 112.6-1.5 2.9-3.5 6.1-7 10.3-8.9 7.5-3.8 17.7-1.2 22.4 5.7 3.1 5.4 0.5 11.5-1.7 16.6 5.5 2.7 11.3 4.8 17 7.1 1.9 1.1 3.3-1.1 4.7-2.1 10.6-10.4 21-20.9 31.5-31.4-23.8-17.4-52.1-28.2-81-33.8-43.2-8.4-88.1-0.3-128.5 16m64.9 72c-21.5 2.9-42.7 8.1-62.6 16.7-3.2 1.6-4.9-2.8-7-4.4-9-9.7-24.2-9.6-35.5-4.2-3.4 1.5-8.8 4.1-5.8 8.6 3.4-0.4 6.9-1.3 10.3-0.4 5.7 2.3 9.3 7.5 12.1 12.6-7.6 3.5-15.5 6.4-23.5 8.7-1.8-1-3.5-2.1-5.2-3.1-5 1.2-10.4 2.4-13.8 6.6-5 5.9-4.5 14.3-2.5 21.2 2.1 8.4 10.6 14.5 19.3 14.3 6.4 0.4 12.4-2.1 18.1-4.8-1.3-1.2-2.6-2.3-3.9-3.5 6.9-4.5 14.1-8.5 21.7-11.8 3.7 5.7 8.5 11.2 15.3 13.2 7.9 2.1 16.4 0.9 23.9-2.2-1-4.6-6.3-5.4-8.7-9-2.1-2.6-3.3-5.7-4.5-8.7 36.6-9 75.3-8.5 112.3-1.3 3-3.4 6.1-7.1 10.3-9.1 7.4-4 17.8-1.5 22.5 5.5 3.4 5.4 0.7 11.7-1.6 16.9 6.2 2.6 12.5 5 18.7 7.5 11.8-11.1 23.3-22.6 34.6-34.2-41.5-29.3-94.3-42-144.5-35.1z" fill="#fff" stroke="#fff" stroke-width=".09375"/>
<path d="m507.9 25c35.6 22 75.7 37.3 117.4 42.4 46.6 5.7 93.8 5.6 140.7 6.3 26.3 0 52.5-0.6 78.8-0.8 0 101-0.1 202 0 303-112.3 0.2-224.7 0.1-337 0-0.1-116.9-0.1-234 0.1-350.9m160.4 61.2c-48.3 2.6-93.5 33-114.5 76.5-19.7 39.8-18.5 89.3 3.6 127.8 16.2 29 43.3 51.8 74.8 62.5 26.8 9.4 56.5 10.2 83.7 2.1 33.6-9.5 62.9-32.7 80.3-62.9 25.9-43.5 24.5-101.6-3.6-143.8-26.2-41.2-75.6-65.9-124.3-62.2z" fill="#fff" stroke="#fff" stroke-width=".09375"/>
<path d="m668.3 86.2c48.7-3.7 98.1 21 124.3 62.2 28.1 42.2 29.5 100.3 3.6 143.8-17.4 30.2-46.7 53.4-80.3 62.9-27.2 8.1-56.9 7.3-83.7-2.1-31.5-10.7-58.6-33.5-74.8-62.5-22.1-38.5-23.3-88-3.6-127.8 21-43.5 66.2-73.9 114.5-76.5m-2.3 10.8c-5.9 5.1-11.3 10.9-15.7 17.4-0.9 1.4-2.4 3.4-0.6 4.8 8.5 10.1 17.3 20.1 25.8 30.3 1.5 1.7 3 4 5.5 4.1 11.6 1.1 23.2-0.5 34.6-2.2 2.7-0.5 6-0.5 7.5-3.2 6.3-9.1 12.9-17.9 18.7-27.2-2.2-5.4-3.4-12.8-9.5-15.2-18.5-8.7-39-12.8-59.4-12.2-2.7-0.2-5 1.7-6.9 3.4m-25.6 25.3c-9.1 3-17.7 7.2-25.6 12.5-2.9 1.8-5.1 4.4-6.7 7.3-9.2 16-17 33-21.4 50.9-1 2.1 0.8 3.8 2.1 5.2 8.2 7.8 16.3 15.7 24.4 23.6 1.1 1 2.5 2.4 4 1.3 12.8-6.5 25.5-13.1 38.2-19.6 1.9-1 4.1-2 4.9-4.2 5.2-12.7 7.8-26.3 10.4-39.8 0.4-2.5 1.3-5.4-0.9-7.3-8.3-9.8-16.5-19.5-24.8-29.2-1.1-1.7-3-1.4-4.6-0.7m89.5 26.7c-2.9 3.3-1.3 7.9-0.6 11.8 3.3 14 7.9 27.6 12.8 41.2 0.7 2.7 3.3 4.1 5.6 5.3 12.6 6.7 25 13.7 37.5 20.5 5.1-7.5 9.3-15.7 14.3-23.4 2-3.5 5.4-7.1 4-11.5-5.8-23.9-18.6-46.1-36.3-63.1-5.2-4.7-12.6-5.6-19.3-6.2-6.3 8.2-11.8 17-18 25.4m-145.3-16.4c-23.9 24.1-37.5 57.9-37.1 91.8 3.1 0.9 6.2 1.6 9.4 1.9 7-8.8 13.7-17.9 20.7-26.7 2.8-3.4 3.3-7.8 4.3-11.9 3.9-15.8 11.2-30.4 18.6-44.7-2.3-3.5-4.4-7.2-7-10.5-2.1-2.9-6.7-2.2-8.9 0.1m28.7 99.8c-3.9 9.6-4.4 20.3-6 30.5 0 3.5-2.1 8 1.2 10.7 11.3 10.5 23.6 20.2 37.2 27.6 2.5 1.5 5.4 1.8 8.2 1.4 11.7-1.3 22.8-6.4 31.7-14 2.4-2.1 2.3-5.5 3-8.4 2.4-15.3 6-30.5 8.1-45.9-9.5-11.2-22.4-19.4-34.6-27.3-16.3 8.3-32.9 16.4-48.8 25.4m95.8-4.3c-2.4 1.9-5.9 3.5-6.2 7-2.7 15.1-5.4 30.2-8.3 45.3-0.2 1.8-1 4 0.8 5.3 9.2 8.7 20.5 15.1 32.4 19.4 1.6 0.8 3.4 0.5 4.8-0.5 13.6-9.1 27.2-18.2 40.8-27.2 3.8-2 4-6.6 4.9-10.3 2-11 4.1-22 5.4-33.2-14.9-8.2-29.7-16.5-44.7-24.5-10.8 4.8-20.2 12.1-29.9 18.7m-161.3 3.1c1.4 24.3 9.9 48.4 24.5 68-0.2-6.8 2.6-14.7-1.9-20.6-9.1-13.9-14.4-30.2-15.6-46.8-2.4-0.2-4.7-0.4-7-0.6m31 52.5c0.4 7.9-1.3 15.9 0 23.6 12.5 15.2 28.9 27.1 46.9 35 5 2.3 10.2-0.9 15.3-1.6 4.3-1.4 9.4-1.2 13.2-3.8 0.4-8.4-1.7-16.7-4.6-24.5-1.1-3.8-5.2-5-8.3-6.8-14.2-7.5-26.5-18.2-38.5-28.9-8.2 1.6-16.1 4.4-24 7m201.3-3.5c-17.1 11.5-34.4 22.8-51.5 34.4-7 6.6-12 15.1-18.1 22.5 2.9 3.2 6.1 6 9.5 8.6 26.2-9.1 49.3-26.9 64.8-49.9 3.1-4.8 6.6-9.5 8.2-15-4.2-0.7-9-3.9-12.9-0.6m-140.2 67.2c23.5 7 49.1 7.3 72.6 0.6-1.9-2.3-4-5.3-7.4-5.2-12.3-1.2-24.7-2.6-37.1-1.9-9.5 1.8-18.8 4-28.1 6.5z" fill="#003a80" stroke="#003a80" stroke-width=".09375"/>
<path d="m666 97c1.9-1.7 4.2-3.6 6.9-3.4 20.4-0.6 40.9 3.5 59.4 12.2 6.1 2.4 7.3 9.8 9.5 15.2-5.8 9.3-12.4 18.1-18.7 27.2-1.5 2.7-4.8 2.7-7.5 3.2-11.4 1.7-23 3.3-34.6 2.2-2.5-0.1-4-2.4-5.5-4.1-8.5-10.2-17.3-20.2-25.8-30.3-1.8-1.4-0.3-3.4 0.6-4.8 4.4-6.5 9.8-12.3 15.7-17.4z" fill="#fff" stroke="#fff" stroke-width=".09375"/>
<path d="m255 118.1c39.8-16.4 84.2-24.1 126.9-16.3 29.3 5.5 57.8 16.5 82.2 33.7-10.7 12.1-22.9 22.9-34.2 34.5-6.3-2.4-12.6-4.8-18.8-7.4 2-5.4 4.8-11.7 1.4-17.2-4.7-6.5-14.4-9.2-21.8-5.7-4.4 2-7.6 5.8-10.7 9.3-37.2-6.6-76-7.8-112.7 1.6 2.1 4.3 3.9 9.3 8.2 11.8 2.3 1.3 4.2 3.2 5.5 5.5-8 3.5-17.3 4.9-25.7 1.9-6.1-2.2-10.4-7.2-13.7-12.5-7.7 3.2-14.9 7.2-21.9 11.6 1.4 1.2 2.8 2.4 4.1 3.6-6.2 2.8-12.9 5.6-19.8 5-8.4-0.8-16.4-7.1-18-15.5-1.7-6.7-2.1-14.7 2.8-20.2 3.5-4.2 9-5.6 14.1-6.6 2 1.3 4.1 3.5 6.7 2.5 7.3-2.1 14.5-5 21.4-8-2.3-4.9-5.7-9.5-10.6-12.2-3.5-2-7.6-0.7-11.4-0.2-0.5-1.2-1-2.3-1.5-3.5 8.5-8.1 22.3-10.6 33.4-6.8 5.9 2 10 6.7 14.1 11.1m-32.5-6.3c11 7.5 16.8 20 20.4 32.3 1.9 6.6 4.1 13.8 9.8 18.2 4.9 3.3 11.2 4.8 16.9 3.1-6.4-8.6-10-18.8-13-29.1-2.2-7.7-5.4-15.8-11.9-21-6.1-5-14.8-5.9-22.2-3.5m-12.2 31.6c-0.1 7 1.2 14.7 4.8 20.9 8.4-2.9 15.9-8.9 24.3-12.3-1.5-5.8-3.3-11.6-5.7-17.1-7.8 2.7-15.5 5.9-23.4 8.5m-19.7 7c-0.8 6 0.2 12.9 4.6 17.4 4.6 4.8 11.7 4.8 17.7 3.3-7.3-8.5-6.3-20.1-10.3-30-5.4 0.2-11.2 3.5-12 9.3z" fill="#003a80" stroke="#003a80" stroke-width=".09375"/>
<path d="m222.5 111.8c7.4-2.4 16.1-1.5 22.2 3.5 6.5 5.2 9.7 13.3 11.9 21 3 10.3 6.6 20.5 13 29.1-5.7 1.7-12 0.2-16.9-3.1-5.7-4.4-7.9-11.6-9.8-18.2-3.6-12.3-9.4-24.8-20.4-32.3z" fill="#fff" stroke="#fff" stroke-width=".09375"/>
<path d="m640.4 122.3c1.6-0.7 3.5-1 4.6 0.7 8.3 9.7 16.5 19.4 24.8 29.2 2.2 1.9 1.3 4.8 0.9 7.3-2.6 13.5-5.2 27.1-10.4 39.8-0.8 2.2-3 3.2-4.9 4.2-12.7 6.5-25.4 13.1-38.2 19.6-1.5 1.1-2.9-0.3-4-1.3-8.1-7.9-16.2-15.8-24.4-23.6-1.3-1.4-3.1-3.1-2.1-5.2 4.4-17.9 12.2-34.9 21.4-50.9 1.6-2.9 3.8-5.5 6.7-7.3 7.9-5.3 16.5-9.5 25.6-12.5z" fill="#fff" stroke="#fff" stroke-width=".09375"/>
<path d="m729.9 149c6.2-8.4 11.7-17.2 18-25.4 6.7 0.6 14.1 1.5 19.3 6.2 17.7 17 30.5 39.2 36.3 63.1 1.4 4.4-2 8-4 11.5-5 7.7-9.2 15.9-14.3 23.4-12.5-6.8-24.9-13.8-37.5-20.5-2.3-1.2-4.9-2.6-5.6-5.3-4.9-13.6-9.5-27.2-12.8-41.2-0.7-3.9-2.3-8.5 0.6-11.8z" fill="#fff" stroke="#fff" stroke-width=".09375"/>
<path d="m584.6 132.6c2.2-2.3 6.8-3 8.9-0.1 2.6 3.3 4.7 7 7 10.5-7.4 14.3-14.7 28.9-18.6 44.7-1 4.1-1.5 8.5-4.3 11.9-7 8.8-13.7 17.9-20.7 26.7-3.2-0.3-6.3-1-9.4-1.9-0.4-33.9 13.2-67.7 37.1-91.8z" fill="#fff" stroke="#fff" stroke-width=".09375"/>
<path d="m210.3 143.4c7.9-2.6 15.6-5.8 23.4-8.5 2.4 5.5 4.2 11.3 5.7 17.1-8.4 3.4-15.9 9.4-24.3 12.3-3.6-6.2-4.9-13.9-4.8-20.9z" fill="#fff" stroke="#fff" stroke-width=".09375"/>
<path d="m190.6 150.4c0.8-5.8 6.6-9.1 12-9.3 4 9.9 3 21.5 10.3 30-6 1.5-13.1 1.5-17.7-3.3-4.4-4.5-5.4-11.4-4.6-17.4z" fill="#fff" stroke="#fff" stroke-width=".09375"/>
<path d="m255.3 204.1c40.4-16.3 85.3-24.4 128.5-16 28.9 5.6 57.2 16.4 81 33.8-10.5 10.5-20.9 21-31.5 31.4-1.4 1-2.8 3.2-4.7 2.1-5.7-2.3-11.5-4.4-17-7.1 2.2-5.1 4.8-11.2 1.7-16.6-4.7-6.9-14.9-9.5-22.4-5.7-4.2 1.9-7.4 5.4-10.3 8.9-37.2-6.5-75.8-7.5-112.6 1.5 1.7 4.9 4.1 10.2 9 12.6 2.2 1 3.3 2.9 4.3 5-8.9 3.8-19.9 5.4-28.6 0.3-4.7-2.4-7.8-6.9-10.7-11.1-7.5 3.4-14.8 7.3-21.8 11.7 1.3 1.2 2.6 2.4 4 3.6-7.6 3.6-16.3 6.9-24.6 3.9-13.6-4.2-18.4-23.3-10.5-34.3 4.5-5 13.4-9.4 19.1-3.8 8-2.1 15.7-5.4 23.4-8.5-3.3-7.5-10.7-15.8-19.8-12.8-3.2 1.3-4.7-3.8-1.9-5.1 8-5.7 18.6-7.8 28.2-6 7.2 1.6 12.8 6.6 17.2 12.2m-32-6.3c7.5 5.7 13.3 13.4 16.6 22.3 4 8.5 4.5 18.8 11 26 4.7 5.3 12.5 6.7 19.2 5.7-4.1-6.5-7.9-13.3-10.1-20.7-3.3-9.5-5.2-20.1-12.4-27.7-6-6.6-16-8.5-24.3-5.6m-13 31.6c1.1 7.3 1.6 15 5.5 21.4 8.1-4.2 15.8-9 24.1-12.7-1.4-5.9-3.2-11.8-5.8-17.3-7.9 3.1-15.7 6.2-23.8 8.6m-18.9 5.9c-1.2 7-0.1 15.8 6.3 20.1 4.5 3.3 10.4 2.8 15.6 1.8-2.3-4.1-4.9-8-5.9-12.6-1.6-5.8-1.3-12.3-4.6-17.6-4.8 0.7-10.2 3.1-11.4 8.3z" fill="#003a80" stroke="#003a80" stroke-width=".09375"/>
<path d="m223.3 197.8c8.3-2.9 18.3-1 24.3 5.6 7.2 7.6 9.1 18.2 12.4 27.7 2.2 7.4 6 14.2 10.1 20.7-6.7 1-14.5-0.4-19.2-5.7-6.5-7.2-7-17.5-11-26-3.3-8.9-9.1-16.6-16.6-22.3z" fill="#fff" stroke="#fff" stroke-width=".09375"/>
<path d="m613.3 232.4c15.9-9 32.5-17.1 48.8-25.4 12.2 7.9 25.1 16.1 34.6 27.3-2.1 15.4-5.7 30.6-8.1 45.9-0.7 2.9-0.6 6.3-3 8.4-8.9 7.6-20 12.7-31.7 14-2.8 0.4-5.7 0.1-8.2-1.4-13.6-7.4-25.9-17.1-37.2-27.6-3.3-2.7-1.2-7.2-1.2-10.7 1.6-10.2 2.1-20.9 6-30.5z" fill="#fff" stroke="#fff" stroke-width=".09375"/>
<path d="m709.1 228.1c9.7-6.6 19.1-13.9 29.9-18.7 15 8 29.8 16.3 44.7 24.5-1.3 11.2-3.4 22.2-5.4 33.2-0.9 3.7-1.1 8.3-4.9 10.3-13.6 9-27.2 18.1-40.8 27.2-1.4 1-3.2 1.3-4.8 0.5-11.9-4.3-23.2-10.7-32.4-19.4-1.8-1.3-1-3.5-0.8-5.3 2.9-15.1 5.6-30.2 8.3-45.3 0.3-3.5 3.8-5.1 6.2-7z" fill="#fff" stroke="#fff" stroke-width=".09375"/>
<path d="m210.3 229.4c8.1-2.4 15.9-5.5 23.8-8.6 2.6 5.5 4.4 11.4 5.8 17.3-8.3 3.7-16 8.5-24.1 12.7-3.9-6.4-4.4-14.1-5.5-21.4z" fill="#fff" stroke="#fff" stroke-width=".09375"/>
<path d="m191.4 235.3c1.2-5.2 6.6-7.6 11.4-8.3 3.3 5.3 3 11.8 4.6 17.6 1 4.6 3.6 8.5 5.9 12.6-5.2 1-11.1 1.5-15.6-1.8-6.4-4.3-7.5-13.1-6.3-20.1z" fill="#fff" stroke="#fff" stroke-width=".09375"/>
<path d="m547.8 231.2c2.3 0.2 4.6 0.4 7 0.6 1.2 16.6 6.5 32.9 15.6 46.8 4.5 5.9 1.7 13.8 1.9 20.6-14.6-19.6-23.1-43.7-24.5-68z" fill="#fff" stroke="#fff" stroke-width=".09375"/>
<path d="m320.2 276.1c50.2-6.9 103 5.8 144.5 35.1-11.3 11.6-22.8 23.1-34.6 34.2-6.2-2.5-12.5-4.9-18.7-7.5 2.3-5.2 5-11.5 1.6-16.9-4.7-7-15.1-9.5-22.5-5.5-4.2 2-7.3 5.7-10.3 9.1-37-7.2-75.7-7.7-112.3 1.3 1.2 3 2.4 6.1 4.5 8.7 2.4 3.6 7.7 4.4 8.7 9-7.5 3.1-16 4.3-23.9 2.2-6.8-2-11.6-7.5-15.3-13.2-7.6 3.3-14.8 7.3-21.7 11.8 1.3 1.2 2.6 2.3 3.9 3.5-5.7 2.7-11.7 5.2-18.1 4.8-8.7 0.2-17.2-5.9-19.3-14.3-2-6.9-2.5-15.3 2.5-21.2 3.4-4.2 8.8-5.4 13.8-6.6 1.7 1 3.4 2.1 5.2 3.1 8-2.3 15.9-5.2 23.5-8.7-2.8-5.1-6.4-10.3-12.1-12.6-3.4-0.9-6.9 0-10.3 0.4-3-4.5 2.4-7.1 5.8-8.6 11.3-5.4 26.5-5.5 35.5 4.2 2.1 1.6 3.8 6 7 4.4 19.9-8.6 41.1-13.8 62.6-16.7m-97.5 10.9c9.5 6.4 15.3 16.6 18.9 27.2 2.7 7.4 3.9 15.8 9.6 21.6 4.8 5.2 12.3 6.4 19 5.4-5.8-8.2-9.7-17.5-12.3-27.1-2.6-8.7-5.7-18-13.2-23.8-6.2-4.8-14.6-5.4-22-3.3m-12.5 31.6c1 7.3 1.8 14.8 5.2 21.5 8.4-3.7 16-9 24.4-12.6-1.3-5.9-3.2-11.7-5.7-17.3-7.9 2.9-15.7 6.3-23.9 8.4m-16.7 1.9c-4.2 5.3-2.9 12.9-0.7 18.8 3.6 7.4 12.9 9.7 20.3 7.4-2.5-5-5.7-9.9-6.5-15.6-1.1-4.7-0.7-10.2-3.8-14.2-3.3-0.9-6.9 1.4-9.3 3.6z" fill="#003a80" stroke="#003a80" stroke-width=".09375"/>
<path d="m578.8 283.7c7.9-2.6 15.8-5.4 24-7 12 10.7 24.3 21.4 38.5 28.9 3.1 1.8 7.2 3 8.3 6.8 2.9 7.8 5 16.1 4.6 24.5-3.8 2.6-8.9 2.4-13.2 3.8-5.1 0.7-10.3 3.9-15.3 1.6-18-7.9-34.4-19.8-46.9-35-1.3-7.7 0.4-15.7 0-23.6z" fill="#fff" stroke="#fff" stroke-width=".09375"/>
<path d="m780.1 280.2c3.9-3.3 8.7-0.1 12.9 0.6-1.6 5.5-5.1 10.2-8.2 15-15.5 23-38.6 40.8-64.8 49.9-3.4-2.6-6.6-5.4-9.5-8.6 6.1-7.4 11.1-15.9 18.1-22.5 17.1-11.6 34.4-22.9 51.5-34.4z" fill="#fff" stroke="#fff" stroke-width=".09375"/>
<path d="m222.7 287c7.4-2.1 15.8-1.5 22 3.3 7.5 5.8 10.6 15.1 13.2 23.8 2.6 9.6 6.5 18.9 12.3 27.1-6.7 1-14.2-0.2-19-5.4-5.7-5.8-6.9-14.2-9.6-21.6-3.6-10.6-9.4-20.8-18.9-27.2z" fill="#fff" stroke="#fff" stroke-width=".09375"/>
<path d="m210.2 318.6c8.2-2.1 16-5.5 23.9-8.4 2.5 5.6 4.4 11.4 5.7 17.3-8.4 3.6-16 8.9-24.4 12.6-3.4-6.7-4.2-14.2-5.2-21.5z" fill="#fff" stroke="#fff" stroke-width=".09375"/>
<path d="m193.5 320.5c2.4-2.2 6-4.5 9.3-3.6 3.1 4 2.7 9.5 3.8 14.2 0.8 5.7 4 10.6 6.5 15.6-7.4 2.3-16.7 0-20.3-7.4-2.2-5.9-3.5-13.5 0.7-18.8z" fill="#fff" stroke="#fff" stroke-width=".09375"/>
<path d="m639.9 347.4c9.3-2.5 18.6-4.7 28.1-6.5 12.4-0.7 24.8 0.7 37.1 1.9 3.4-0.1 5.5 2.9 7.4 5.2-23.5 6.7-49.1 6.4-72.6-0.6z" fill="#fff" stroke="#fff" stroke-width=".09375"/>
<path d="m155.4 391.2c112.4-0.2 224.8-0.2 337.2 0v391.5c-9.5 0.1-19.1-0.1-28.6-0.2-4.4-0.1-7.8-3.1-11.6-4.9-45.4-24.5-94.2-43.2-144.7-54-31.9-5.9-63.4-17.1-89.4-36.9-38.2-28.5-61.3-75.2-62.9-122.7v-172.8m108.4 1.4c6.5 40.9 22 79.8 39.2 117.3-33.3-24-68.4-45.4-104-65.8-1.7-0.9-3.7-1.3-5.6-1.6-0.3 4.8 5.1 5.7 8.3 7.8 31.1 17.7 60.3 38.6 89.2 59.8 2.9 2.1 5.7 4.3 8.3 6.9-14.5-4.7-28.9-10.5-44.3-10.7 23.2 15.7 44.7 33.8 65.2 53-2.9 0.3-5.7 0.7-8.6 1.1 13.9 11 28.8 21 40.6 34.3-2.4-0.4-4.8-0.8-7.1-1.3 2.4 4.7 5.2 9.3 6 14.6-22.4-13.6-45.5-26.2-69-38-4.1-2-8-4.5-12.5-5.6-0.9 3.6 2.9 5.1 5.1 6.9 9.4 6.8 18.8 13.9 25.7 23.3-8-3.2-15.7-7.4-24.3-8.9-1.9-0.6-3.7 0.3-5.3 1.1 20.6 11.6 36.9 30.1 47.1 51.4 8.5 20.2 17 40.6 28.7 59.3 4.1 6.9 10.2 12.5 16 18 15.2 13.4 34.6 24.7 55.5 23.3 10.3 0.3 19.6-5.1 27.2-11.6 10.7-9 17-22.4 18.3-36.2 3-23.3-6.1-46.1-17.3-66.1-14.1-24.6-32.3-46.8-52.6-66.5-33.6-30.1-60.9-66.5-84.1-105-1.4 0-2.8-0.1-4.1-0.1-1.2 19.5 4.9 38.4 9.1 57.3-6.7-6-10.7-14.2-15-22-14.6-29.7-24.1-61.6-32.8-93.4-0.3-1.5-1.9-1.8-2.9-2.6z" fill="#fff" stroke="#fff" stroke-width=".09375"/>
<path d="m507.8 391.1c112.3 0 224.7-0.1 337 0-0.1 7.9 0 15.7-0.1 23.5-6.3 0.9-12.7 1.9-18.5 4.7-14.4 6.3-24.2 19.7-38.5 26.4-15.6 7.1-34.7 7.1-50.4-0.1-15.2-7.3-25.6-22.3-41.8-27.8-18.6-6.1-40.7-4-56.2 8.5-11.8 9.1-22.8 20.4-38 23.3-13 2.1-27 2-39-3.9-14-6.6-23.9-19.6-38-26.1-5.1-2.5-10.7-3.7-16.3-4.6-0.4-7.9-0.2-15.9-0.2-23.9z" fill="#fff" stroke="#fff" stroke-width=".09375"/>
<path d="m263.8 392.6c1 0.8 2.6 1.1 2.9 2.6 8.7 31.8 18.2 63.7 32.8 93.4 4.3 7.8 8.3 16 15 22-4.2-18.9-10.3-37.8-9.1-57.3 1.3 0 2.7 0.1 4.1 0.1 23.2 38.5 50.5 74.9 84.1 105 20.3 19.7 38.5 41.9 52.6 66.5 11.2 20 20.3 42.8 17.3 66.1-1.3 13.8-7.6 27.2-18.3 36.2-7.6 6.5-16.9 11.9-27.2 11.6-20.9 1.4-40.3-9.9-55.5-23.3-5.8-5.5-11.9-11.1-16-18-11.7-18.7-20.2-39.1-28.7-59.3-10.2-21.3-26.5-39.8-47.1-51.4 1.6-0.8 3.4-1.7 5.3-1.1 8.6 1.5 16.3 5.7 24.3 8.9-6.9-9.4-16.3-16.5-25.7-23.3-2.2-1.8-6-3.3-5.1-6.9 4.5 1.1 8.4 3.6 12.5 5.6 23.5 11.8 46.6 24.4 69 38-0.8-5.3-3.6-9.9-6-14.6 2.3 0.5 4.7 0.9 7.1 1.3-11.8-13.3-26.7-23.3-40.6-34.3 2.9-0.4 5.7-0.8 8.6-1.1-20.5-19.2-42-37.3-65.2-53 15.4 0.2 29.8 6 44.3 10.7-2.6-2.6-5.4-4.8-8.3-6.9-28.9-21.2-58.1-42.1-89.2-59.8-3.2-2.1-8.6-3-8.3-7.8 1.9 0.3 3.9 0.7 5.6 1.6 35.6 20.4 70.7 41.8 104 65.8-17.2-37.5-32.7-76.4-39.2-117.3m60.6 141.8c-5.1 2.5-4.4 10.6 1 12.2 4.9 2 10.6-3.5 8.7-8.4-1.3-3.9-6.2-5.8-9.7-3.8m51.8 74.8v3.3c14.1-0.9 28.3 1.4 41.5 6.4-0.1-1.2-0.1-2.3-0.1-3.4-13-5.3-27.4-8-41.4-6.3m-21.2 3c0.5 5.7 3.9 10.5 6.5 15.4 7.6 13.1 16.3 25.7 26.5 37 0.7-0.3 2.2-0.8 2.9-1-0.3-4-3.6-6.6-6-9.6-10.5-12.6-20-26.3-26.4-41.5-1.2-0.1-2.3-0.2-3.5-0.3m18.5 55c-2.9 13.7-2.6 28 1 41.5h3.3c-3.1-13.7-3.5-28-1-41.7-1.1 0-2.2 0.1-3.3 0.2m29.8 2.9c-0.3 1-0.7 1.9-1.1 2.9 12.3 6.7 23.4 15.6 31.9 26.7 0.7-0.9 1.3-1.8 2-2.7-8.6-11.3-19.7-21-32.8-26.9z" fill="#003a80" stroke="#003a80" stroke-width=".09375"/>
<path d="m657.4 471.5c15.9-4.2 34.1-3.1 48.2 5.9 9.3 5.9 16.9 14 26.2 19.9 14.5 9.3 33.1 10.2 49.4 5.7 18.5-5.6 29.7-23.3 47.6-30.1 5.1-1.9 10.5-3.4 16-3.3-0.1 20.1 0 40.3-0.1 60.4-6.6 1-13.4 2.2-19.5 5.3-11.7 5.3-20.2 15.2-30.8 22.1-15.9 10.4-37 11.9-54.6 4.8-16.1-6.5-26.4-22.1-42.7-28.3-14.5-5.5-31.2-5.3-45.6 0.6-14.8 6.2-24.6 20.1-39.2 26.8-15.2 7-33.6 6.9-48.9 0.3-14.8-6.4-24.7-20.1-39.4-26.6-5.1-2.5-10.8-3.5-16.3-4.8 0.1-20.2-0.1-40.3 0.1-60.5 5.3 0.7 10.6 1.8 15.4 4.1 15.9 6.9 26.5 22.2 42.9 28.2 13 4.6 27.6 4.8 40.8 0.7 19.3-6.1 30.8-25.7 50.5-31.2z" fill="#fff" stroke="#fff" stroke-width=".09375"/>
<path d="m324.4 534.4c3.5-2 8.4-0.1 9.7 3.8 1.9 4.9-3.8 10.4-8.7 8.4-5.4-1.6-6.1-9.7-1-12.2z" fill="#fff" stroke="#fff" stroke-width=".09375"/>
<path d="m507.8 585.2c15.4 1.3 28 10.9 39.3 20.7 10.6 8.8 23.8 15.4 37.9 14.9 9.7 0.5 19.7-0.7 28.4-5.3 10.8-5.3 19.1-14.4 28.9-21.2 15.1-10.5 35.4-12.1 52.7-6.5 17.7 5.8 28.4 22.9 45.7 29.5 9.8 4.2 20.7 3.8 31.1 3.2 14.1-1.5 26.1-10.1 36.5-19.1 9.6-8.4 21.3-15.3 34.3-16.2-4.9 24.9-14.9 48.9-30 69.4-4.6 6-9.2 12.3-15.6 16.5-20.7 15.1-51.5 14.5-71.3-1.8-10.4-8.3-20.3-18-33.4-21.6-14.2-3.7-30-3.2-43.2 3.4-14.6 7.2-24.5 21.4-40 27-17.8 6.6-39.1 4.8-54.9-6.2-9.5-6.4-17.4-15-27.8-20.2-5.7-3.2-12.1-4.7-18.5-5.9-0.3-20.2-0.1-40.4-0.1-60.6z" fill="#fff" stroke="#fff" stroke-width=".09375"/>
<path d="m376.2 609.2c14-1.7 28.4 1 41.4 6.3 0 1.1 0 2.2 0.1 3.4-13.2-5-27.4-7.3-41.5-6.4v-3.3z" fill="#fff" stroke="#fff" stroke-width=".09375"/>
<path d="m355 612.2c1.2 0.1 2.3 0.2 3.5 0.3 6.4 15.2 15.9 28.9 26.4 41.5 2.4 3 5.7 5.6 6 9.6-0.7 0.2-2.2 0.7-2.9 1-10.2-11.3-18.9-23.9-26.5-37-2.6-4.9-6-9.7-6.5-15.4z" fill="#fff" stroke="#fff" stroke-width=".09375"/>
<path d="m373.5 667.2c1.1-0.1 2.2-0.2 3.3-0.2-2.5 13.7-2.1 28 1 41.7h-3.3c-3.6-13.5-3.9-27.8-1-41.5z" fill="#fff" stroke="#fff" stroke-width=".09375"/>
<path d="m403.3 670.1c13.1 5.9 24.2 15.6 32.8 26.9-0.7 0.9-1.3 1.8-2 2.7-8.5-11.1-19.6-20-31.9-26.7 0.4-1 0.8-1.9 1.1-2.9z" fill="#fff" stroke="#fff" stroke-width=".09375"/>
<path d="m643.8 708.8c22.6-14.5 55.2-10.8 73.6 9-11.1 3.4-22.6 5.3-33.9 7.9-49.5 11.8-97.1 30.7-141.7 55.2-2 1.2-4.4 1.7-6.7 1.6-9.1 0-18.1 0.3-27.2 0.2-0.3-27.3-0.1-54.7-0.1-82.1 16.3 1.4 29.3 12.2 41.3 22.3 16.8 14.3 41.6 17.6 61.8 9.2 12.6-5.3 21.6-16 32.9-23.3z" fill="#fff" stroke="#fff" stroke-width=".09375"/>
<path d="m20.8 711c8.1 1.5 15.9 4.3 24 6.3 44.1 11.6 89 20.3 134.3 25.5-22.6 4.7-45.4 8.7-68 13.3-2.4 0.3-3.5 2.8-3.5 5-2.8 33.5-5.9 67-8.5 100.5-29-4.8-56.8-14.9-84.5-24.3 10.7-18.5 22.1-36.5 32.8-54.9 2.8-4.1-0.8-8.6-2.1-12.5-8-19.7-17.2-39-24.5-58.9z" fill="#fff" stroke="#fff" stroke-width=".09375"/>
<path d="m959.6 715.6c6-1.6 11.9-3.7 18.1-4.7-9.2 21.5-18.1 43-27.4 64.4-0.9 2.1-1.5 4.5-0.1 6.5 11.4 18.7 23.4 37.1 34.6 55.9-28.3 9.1-56.6 19.2-86 23.9-2.5-33.2-5.7-66.4-8.1-99.6-0.2-2.3-0.9-5.3-3.5-5.9-22.4-4.5-44.9-8.3-67.2-13.2 47.1-6 93.8-14.8 139.6-27.3z" fill="#fff" stroke="#fff" stroke-width=".09375"/>
<path d="m146 760.6c20.8-4.6 41.9-8.1 62.8-12.4-0.4 6.6-1 13.1-1.3 19.7-20.6-1.7-41.1-4.6-61.5-7.3z" fill="#fff" stroke="#fff" stroke-width=".09375"/>
<path d="m789.4 748.3c18.2 3.4 36.4 7.2 54.6 10.4 2 0.3 3.8 1.1 5.6 2.1-19.6 2.9-39.3 5.3-58.9 7.2-0.5-6.6-1.3-13.1-1.3-19.7z" fill="#fff" stroke="#fff" stroke-width=".09375"/>
<path d="m590 792.1c97-2.8 194.1-10.3 290.2-24.7 3.6 45.2 8.2 90.4 11.3 135.6-92.5 14.9-186 22.4-279.5 26.1-26 0.8-52 1.6-78 1.6-23.6 1-47.4 0.8-71 0-60.3-0.3-120.5-2.9-180.7-7.4-58.9-4.8-117.8-10.5-176-20.5 4.1-45.2 7.5-90.3 11.5-135.5 139.6 21.2 281.1 27.2 422.2 26 16.6-1.2 33.3-0.2 50-1.2m-440.7 11.3c-4.5 7.3-6.1 16.1-6.7 24.6-0.3 6.7 0.6 14 5.1 19.3 4.1 5.1 10.5 7.3 15 12 3.6 3.2 1.8 11.3-3.7 10.7-7-0.1-11.4-6.4-15.5-11.2-3.5 6.2-7.2 12.5-9.4 19.2 4.8 10.7 18.1 18 29.6 13.7 8.5-3.8 12.4-13.2 14.3-21.8 1.9-9.4 3.2-20.2-2.2-28.7-3.9-6.2-10.6-9.4-16.1-13.9-3.7-2.8-2.6-10.1 2.3-10.8 6.7 0.1 10.9 5.9 14.5 10.8 3.1-5 5.4-10.4 8.1-15.7 0.6-1.6 1.8-3.4 0.9-5.1-4-7.4-11.9-13-20.5-12.9-6.6-0.1-12.3 4.5-15.7 9.8m661.8-5c4.2 31.8 9.2 63.6 13.5 95.4 10.7-1 23.3-0.6 31.4-8.9 6.6-7.5 7.3-18.3 7.3-27.9-0.9-14.7-2.5-29.7-8-43.5-3.3-8.1-9.4-16.4-18.6-17.7-8.6-0.8-17.1 1.7-25.6 2.6m-598.7 2.1c-6.5 1.5-11.4 6.8-14.6 12.4-5.6 10.2-8.2 21.8-9.6 33.3-1.5 14.2-2.3 29.4 4 42.6 3.2 7 10.9 12.2 18.8 10.4 9.2-2.2 14.6-11.1 18-19.2 5.4-13.3 6.7-27.8 7.4-42-0.5-10.2-0.9-21-6.7-29.8-3.6-5.7-10.6-9.4-17.3-7.7m551.1 3.4c3.4 32 7.2 63.9 10.8 95.9 13.1-0.9 26.3-2.8 39.4-4.2-0.5-7.5-1.6-14.8-2.4-22.3-8.5 0.5-16.9 2.2-25.4 2.5-0.8-5.4-1.5-10.7-1.7-16.1 4.9-0.6 9.8-1.2 14.7-1.7-0.6-7.3-1.6-14.7-2.5-22-4.9 0.2-9.8 0.8-14.7 1.5-0.9-4.2-1.4-8.5-1.5-12.7 8.2-1 16.4-1.8 24.6-2.9-0.5-7.5-1.2-15-2.5-22.5-12.9 1.5-25.8 3.1-38.8 4.5m-515.8 1.5c-1.5 19.9-3.7 39.7-5.1 59.6-0.4 11.2-0.4 23.5 6.3 33 5.5 8 17.9 9.5 25.2 3.1 8.9-7.6 11.5-19.8 13.1-30.9 2-20.2 3.3-40.5 5.4-60.7-4.7-1.5-9.7-0.9-14.5-1.6-1.7 19-3.3 38-5.1 57-0.8 5.4-1.4 11.6-5.7 15.5-3.6 2.9-8.4-0.5-9.2-4.5-2.2-9.1-0.1-18.6 0.5-27.8 1-13.9 2.9-27.7 3.4-41.6-4.7-0.7-9.5-1.1-14.3-1.1m465.6 3.2c0.3 7.7 1.2 15.4 1.9 23 4.8-0.1 9.5-0.6 14.1-1.1 3 24.3 3.9 48.9 7.2 73.1l13.5-1.2c-1.2-24.2-4.5-48.2-6.1-72.3 3.9-2.5 9.3-1.1 13.8-2.1-0.1-6.6-1.1-13.2-1.4-19.8 0-1.3-0.2-3.8-2.2-3.3-13.6 1.3-27.2 2.4-40.8 3.7m-22.8 2c2.5 32 4.5 64 7.4 95.9 4.7-0.1 9.4-0.4 14.1-0.9-1.8-32-5.1-64-6.8-96.1-4.9-0.1-9.9-0.3-14.7 1.1m-391.9 22.5c4.7 0.1 9.3 0.4 14 0.6-1.2 24.5-3.6 48.9-4.4 73.3 4.7 0.5 9.4 1 14.2 0.6 1-24.2 3.2-48.3 4.4-72.6 4.8 0.1 9.6 0.3 14.4 0.7 0.4-7.8 1.4-15.4 1.4-23.2-14.1-1.1-28.2-1.9-42.3-2.8-1.3 7.6-1.3 15.6-1.7 23.4m368-21.3c1 16.4 2.2 32.8 2.8 49.3-6.2-16.3-14.1-31.8-21.1-47.7-4.3-0.2-8.7-0.2-13 0 1.7 32.1 3.6 64.3 5.6 96.4 4.5 0 9 0 13.5-0.4-0.5-17.5-2.4-35-2.9-52.5 7.1 16.9 14.6 33.7 22.4 50.3 3.2 2.2 7.9 0.3 11.7 0.4-1.1-32.1-3.6-64.2-5.2-96.2-4.6-0.2-9.2-0.1-13.8 0.4m-316 1.5c-1.7 32.1-3 64.2-4.6 96.4 4.8 0.1 9.7 0.1 14.5 0 1-12.5 1-25 1.9-37.5 5.3 0 10.5 0.2 15.8 0.7-0.3 12.6-1.5 25.2-1.4 37.8 4.5 0.6 9.1 0.7 13.7 1 2.1-7.4 0.4-15.2 1.7-22.7 0.8-24.7 2.3-49.4 3.1-74.2-4.8-0.3-9.6-0.6-14.4-0.5-0.4 11.6-1.3 23.1-1.5 34.6-5.3 0.7-10.7 0.2-16-0.6 0.6-11.6 1.2-23.3 1.6-34.9-4.8-0.2-9.6-0.2-14.4-0.1m260.9 1.1c0.5 18.2 1.1 36.4 2 54.6 0 6.1 0.4 12.9-3.2 18.2-2.4 3.4-7.8 2.5-9.4-1-4.9-9-2.7-19.5-4-29.2-0.2-13.9-1.2-27.8-1.3-41.7-5-0.2-10 0-15 0.4 0.9 11.7 0.8 23.5 1.7 35.3 0.7 18-1.1 37.8 8.9 53.8 5.6 9.7 20.9 11 28.1 2.5 6.4-7.5 8.1-17.7 8.5-27.3 0.2-21.9-1.2-43.9-1.9-65.8-4.8 0-9.6 0-14.4 0.2m-206.1 0.9c-1.1 32.1-1.6 64.2-2.7 96.3 13.3 0.3 26.5 1.5 39.8 1 0.2-7.3 0.4-14.7 0.2-22.1-8.3-0.2-16.6-0.7-25-0.8-0.5-5.5 0.1-11 0.5-16.5 4.9 0.2 9.9 0.3 14.9 0.2 0.1-7.4 0.4-14.9 0.4-22.3-5 0.1-9.9 0-14.9-0.3-0.1-4.2 0.1-8.4 0.4-12.6 8.3 0 16.6 0.4 24.9 0.6 0.7-7.5 0.7-15 0.5-22.6-13-0.4-26-0.9-39-0.9m48.4 1c-0.6 14.2 0 28.5-0.5 42.7 0.4 18.1-1.1 36.2-0.1 54.3h13.2c0.6-17.1-0.2-34.2 0.6-51.2 7 16.9 12.4 34.5 19.4 51.4h11.3c0.7-32.2 0.7-64.4 0.9-96.5-4.6-0.4-9.1-0.4-13.7-0.2-0.1 16.5-0.2 32.9-0.2 49.4-5.7-16.7-11.8-33.3-18.6-49.6l-12.3-0.3m54.9 0.5c-0.1 32.2 0.8 64.5 1.1 96.7 9.3-0.4 19.3 1.4 28.1-2.6 8-4 11.7-12.9 13.4-21.2 2.7-13.7 2.6-27.8 1.1-41.6-1.4-10.3-3.9-22.2-13.1-28.4-9.3-5.5-20.5-2.5-30.6-2.9z" fill="#fff" stroke="#fff" stroke-width=".09375"/>
<path d="m149.3 803.4c3.4-5.3 9.1-9.9 15.7-9.8 8.6-0.1 16.5 5.5 20.5 12.9 0.9 1.7-0.3 3.5-0.9 5.1-2.7 5.3-5 10.7-8.1 15.7-3.6-4.9-7.8-10.7-14.5-10.8-4.9 0.7-6 8-2.3 10.8 5.5 4.5 12.2 7.7 16.1 13.9 5.4 8.5 4.1 19.3 2.2 28.7-1.9 8.6-5.8 18-14.3 21.8-11.5 4.3-24.8-3-29.6-13.7 2.2-6.7 5.9-13 9.4-19.2 4.1 4.8 8.5 11.1 15.5 11.2 5.5 0.6 7.3-7.5 3.7-10.7-4.5-4.7-10.9-6.9-15-12-4.5-5.3-5.4-12.6-5.1-19.3 0.6-8.5 2.2-17.3 6.7-24.6z" fill="#003a80" stroke="#003a80" stroke-width=".09375"/>
<path d="m811.1 798.4c8.5-0.9 17-3.4 25.6-2.6 9.2 1.3 15.3 9.6 18.6 17.7 5.5 13.8 7.1 28.8 8 43.5 0 9.6-0.7 20.4-7.3 27.9-8.1 8.3-20.7 7.9-31.4 8.9-4.3-31.8-9.3-63.6-13.5-95.4m17.5 20.7c2 16.7 4.9 33.3 7 50 5.8 0.6 11.9-3.1 12.2-9.2 1-11.8-0.6-23.9-4.8-34.9-2.2-5.8-8.8-7.6-14.4-5.9z" fill="#003a80" stroke="#003a80" stroke-width=".09375"/>
<path d="m212.4 800.5c6.7-1.7 13.7 2 17.3 7.7 5.8 8.8 6.2 19.6 6.7 29.8-0.7 14.2-2 28.7-7.4 42-3.4 8.1-8.8 17-18 19.2-7.9 1.8-15.6-3.4-18.8-10.4-6.3-13.2-5.5-28.4-4-42.6 1.4-11.5 4-23.1 9.6-33.3 3.2-5.6 8.1-10.9 14.6-12.4m-1 23.8c-2.9 2-4.3 5.4-5.5 8.6-3.3 10.6-4.1 21.9-3.4 33 0.3 4.2 1.9 9.4 6.5 10.5 6.2-0.9 8-8 9.5-13.1 2.2-10.9 4.1-22.4 1.6-33.4-0.5-3.9-4.7-8.3-8.7-5.6z" fill="#003a80" stroke="#003a80" stroke-width=".09375"/>
<path d="m763.5 803.9c13-1.4 25.9-3 38.8-4.5 1.3 7.5 2 15 2.5 22.5-8.2 1.1-16.4 1.9-24.6 2.9 0.1 4.2 0.6 8.5 1.5 12.7 4.9-0.7 9.8-1.3 14.7-1.5 0.9 7.3 1.9 14.7 2.5 22-4.9 0.5-9.8 1.1-14.7 1.7 0.2 5.4 0.9 10.7 1.7 16.1 8.5-0.3 16.9-2 25.4-2.5 0.8 7.5 1.9 14.8 2.4 22.3-13.1 1.4-26.3 3.3-39.4 4.2-3.6-32-7.4-63.9-10.8-95.9z" fill="#003a80" stroke="#003a80" stroke-width=".09375"/>
<path d="m247.7 805.4c4.8 0 9.6 0.4 14.3 1.1-0.5 13.9-2.4 27.7-3.4 41.6-0.6 9.2-2.7 18.7-0.5 27.8 0.8 4 5.6 7.4 9.2 4.5 4.3-3.9 4.9-10.1 5.7-15.5 1.8-19 3.4-38 5.1-57 4.8 0.7 9.8 0.1 14.5 1.6-2.1 20.2-3.4 40.5-5.4 60.7-1.6 11.1-4.2 23.3-13.1 30.9-7.3 6.4-19.7 4.9-25.2-3.1-6.7-9.5-6.7-21.8-6.3-33 1.4-19.9 3.6-39.7 5.1-59.6z" fill="#003a80" stroke="#003a80" stroke-width=".09375"/>
<path d="m713.3 808.6c13.6-1.3 27.2-2.4 40.8-3.7 2-0.5 2.2 2 2.2 3.3 0.3 6.6 1.3 13.2 1.4 19.8-4.5 1-9.9-0.4-13.8 2.1 1.6 24.1 4.9 48.1 6.1 72.3l-13.5 1.2c-3.3-24.2-4.2-48.8-7.2-73.1-4.6 0.5-9.3 1-14.1 1.1-0.7-7.6-1.6-15.3-1.9-23z" fill="#003a80" stroke="#003a80" stroke-width=".09375"/>
<path d="m690.5 810.6c4.8-1.4 9.8-1.2 14.7-1.1 1.7 32.1 5 64.1 6.8 96.1-4.7 0.5-9.4 0.8-14.1 0.9-2.9-31.9-4.9-63.9-7.4-95.9z" fill="#003a80" stroke="#003a80" stroke-width=".09375"/>
<path d="m298.6 833.1c0.4-7.8 0.4-15.8 1.7-23.4 14.1 0.9 28.2 1.7 42.3 2.8 0 7.8-1 15.4-1.4 23.2-4.8-0.4-9.6-0.6-14.4-0.7-1.2 24.3-3.4 48.4-4.4 72.6-4.8 0.4-9.5-0.1-14.2-0.6 0.8-24.4 3.2-48.8 4.4-73.3-4.7-0.2-9.3-0.5-14-0.6z" fill="#003a80" stroke="#003a80" stroke-width=".09375"/>
<path d="m666.6 811.8c4.6-0.5 9.2-0.6 13.8-0.4 1.6 32 4.1 64.1 5.2 96.2-3.8-0.1-8.5 1.8-11.7-0.4-7.8-16.6-15.3-33.4-22.4-50.3 0.5 17.5 2.4 35 2.9 52.5-4.5 0.4-9 0.4-13.5 0.4-2-32.1-3.9-64.3-5.6-96.4 4.3-0.2 8.7-0.2 13 0 7 15.9 14.9 31.4 21.1 47.7-0.6-16.5-1.8-32.9-2.8-49.3z" fill="#003a80" stroke="#003a80" stroke-width=".09375"/>
<path d="m350.6 813.3c4.8-0.1 9.6-0.1 14.4 0.1-0.4 11.6-1 23.3-1.6 34.9 5.3 0.8 10.7 1.3 16 0.6 0.2-11.5 1.1-23 1.5-34.6 4.8-0.1 9.6 0.2 14.4 0.5-0.8 24.8-2.3 49.5-3.1 74.2-1.3 7.5 0.4 15.3-1.7 22.7-4.6-0.3-9.2-0.4-13.7-1-0.1-12.6 1.1-25.2 1.4-37.8-5.3-0.5-10.5-0.7-15.8-0.7-0.9 12.5-0.9 25-1.9 37.5-4.8 0.1-9.7 0.1-14.5 0 1.6-32.2 2.9-64.3 4.6-96.4z" fill="#003a80" stroke="#003a80" stroke-width=".09375"/>
<path d="m611.5 814.4c4.8-0.2 9.6-0.2 14.4-0.2 0.7 21.9 2.1 43.9 1.9 65.8-0.4 9.6-2.1 19.8-8.5 27.3-7.2 8.5-22.5 7.2-28.1-2.5-10-16-8.2-35.8-8.9-53.8-0.9-11.8-0.8-23.6-1.7-35.3 5-0.4 10-0.6 15-0.4 0.1 13.9 1.1 27.8 1.3 41.7 1.3 9.7-0.9 20.2 4 29.2 1.6 3.5 7 4.4 9.4 1 3.6-5.3 3.2-12.1 3.2-18.2-0.9-18.2-1.5-36.4-2-54.6z" fill="#003a80" stroke="#003a80" stroke-width=".09375"/>
<path d="m405.4 815.3c13 0 26 0.5 39 0.9 0.2 7.6 0.2 15.1-0.5 22.6-8.3-0.2-16.6-0.6-24.9-0.6-0.3 4.2-0.5 8.4-0.4 12.6 5 0.3 9.9 0.4 14.9 0.3 0 7.4-0.3 14.9-0.4 22.3-5 0.1-10 0-14.9-0.2-0.4 5.5-1 11-0.5 16.5 8.4 0.1 16.7 0.6 25 0.8 0.2 7.4 0 14.8-0.2 22.1-13.3 0.5-26.5-0.7-39.8-1 1.1-32.1 1.6-64.2 2.7-96.3z" fill="#003a80" stroke="#003a80" stroke-width=".09375"/>
<path d="m453.8 816.3 12.3 0.3c6.8 16.3 12.9 32.9 18.6 49.6 0-16.5 0.1-32.9 0.2-49.4 4.6-0.2 9.1-0.2 13.7 0.2-0.2 32.1-0.2 64.3-0.9 96.5h-11.3c-7-16.9-12.4-34.5-19.4-51.4-0.8 17 0 34.1-0.6 51.2h-13.2c-1-18.1 0.5-36.2 0.1-54.3 0.5-14.2-0.1-28.5 0.5-42.7z" fill="#003a80" stroke="#003a80" stroke-width=".09375"/>
<path d="m508.7 816.8c10.1 0.4 21.3-2.6 30.6 2.9 9.2 6.2 11.7 18.1 13.1 28.4 1.5 13.8 1.6 27.9-1.1 41.6-1.7 8.3-5.4 17.2-13.4 21.2-8.8 4-18.8 2.2-28.1 2.6-0.3-32.2-1.2-64.5-1.1-96.7m14.7 22.5c-0.2 17.1 0 34.2 0.5 51.3 3.9-0.2 8.4-0.3 10.9-3.8 3.8-5.4 3.7-12.4 4-18.8-0.1-8.1 0.3-16.8-3.7-24.1-2.3-4.2-7.5-4.5-11.7-4.6z" fill="#003a80" stroke="#003a80" stroke-width=".09375"/>
<path d="m828.6 819.1c5.6-1.7 12.2 0.1 14.4 5.9 4.2 11 5.8 23.1 4.8 34.9-0.3 6.1-6.4 9.8-12.2 9.2-2.1-16.7-5-33.3-7-50z" fill="#fff" stroke="#fff" stroke-width=".09375"/>
<path d="m211.4 824.3c4-2.7 8.2 1.7 8.7 5.6 2.5 11 0.6 22.5-1.6 33.4-1.5 5.1-3.3 12.2-9.5 13.1-4.6-1.1-6.2-6.3-6.5-10.5-0.7-11.1 0.1-22.4 3.4-33 1.2-3.2 2.6-6.6 5.5-8.6z" fill="#fff" stroke="#fff" stroke-width=".09375"/>
<path d="m523.4 839.3c4.2 0.1 9.4 0.4 11.7 4.6 4 7.3 3.6 16 3.7 24.1-0.3 6.4-0.2 13.4-4 18.8-2.5 3.5-7 3.6-10.9 3.8-0.5-17.1-0.7-34.2-0.5-51.3z" fill="#fff" stroke="#fff" stroke-width=".09375"/>
</svg>
