<svg xmlns="http://www.w3.org/2000/svg" width="272.957" height="366.358" viewBox="0 0 418.17 561.259" fill-rule="evenodd"><path fill="#008057" d="M209.084 561.26c-89.86-30.243-157.83-87.88-189.507-166.518h97.888c-6.27-8.91-11.55-18.37-15.618-28.488H10.01c-2.53-9.237-4.62-18.694-6.16-28.374h89.53c-1.65-9.13-2.64-18.586-2.75-28.488H.66C.22 303.013 0 296.413 0 289.815l.11-8.8h91.617c.55-6.49 1.43-12.757 2.53-18.918.55-3.2 1.21-6.38 1.87-9.57H1.2c2.86-43.884 11.33-80.398 26.618-117.464 50.813-1.2 67.53-9.57 88.1-19.907 23.317-11.66 43.444-24.196 93.158-24.196s69.84 12.538 93.158 24.196c20.57 10.337 37.286 18.697 88.1 19.907 15.287 37.066 23.76 73.58 26.616 117.464h-94.92l1.872 9.57c1.1 6.16 1.98 12.43 2.528 18.918h91.62l.11 8.8c0 6.598-.223 13.198-.662 19.576H327.54c-.108 9.902-1.102 19.36-2.75 28.488h89.528c-1.54 9.68-3.627 19.137-6.158 28.374h-91.837c-4.07 10.12-9.352 19.58-15.618 28.488h97.887c-31.675 78.64-99.647 136.275-189.507 166.518z"/><path d="M408.16 366.253a299 299 0 0 1-9.568 28.488h-97.887c6.267-8.9 11.55-18.37 15.618-28.488h91.837zM327.54 309.4c-.108 9.902-1.102 19.36-2.75 28.488h89.528c1.538-9.24 2.53-18.8 3.2-28.488H327.54zm-5.5-56.863l1.872 9.57c1.1 6.16 1.98 12.43 2.528 18.918h91.62c-.1-9.9-.442-19.358-1.102-28.488H322.04zm-230.3 28.49c.55-6.5 1.43-12.757 2.53-18.918.55-3.2 1.2-6.38 1.87-9.57H1.2c-.66 9.13-1 18.6-1.1 28.488h91.63zm1.65 56.864c-1.65-9.13-2.64-18.586-2.75-28.488H.66c.66 9.68 1.65 19.248 3.2 28.488h89.53zm24.086 56.862c-6.27-8.9-11.55-18.37-15.618-28.488H10c2.75 9.788 5.938 19.25 9.568 28.488h97.9zm92.5 57.413h-1.76c-34.317-11.657-62.694-30.688-82.27-55.986-18.697-24.302-29.256-54.44-29.256-89.086 0-16.277 1.1-30.577 3.52-43.885s6.05-25.737 11.218-38.275l.77-1.76c10.118-.328 20.458-.77 30.246-3.4 6.93-1.87 13.198-5.058 19.578-8.25 11.33-5.83 22.547-11.55 47.074-11.55s35.745 5.72 47.074 11.55c6.378 3.2 12.647 6.38 19.576 8.25 9.8 2.64 20.13 3.082 30.246 3.4l.77 1.76a186.23 186.23 0 0 1 11.218 38.275c2.42 13.308 3.52 27.608 3.52 43.885 0 34.646-10.56 64.784-29.26 89.086-19.574 25.297-47.95 44.33-82.268 55.986z" fill="#fff"/><path fill="#008057" d="M209.084 446.105c32.666-11.218 59.722-29.48 78.308-53.675 17.93-23.206 28.052-52.025 28.052-85.348 0-15.95-1-29.917-3.413-42.895-2.197-12.208-5.496-23.537-10.12-35.086-12.425-.44-21.01-1.65-27.715-3.52-7.368-1.98-13.97-5.28-20.79-8.688-10.667-5.5-21.226-10.9-44.323-10.9s-33.656 5.39-44.325 10.9c-6.82 3.41-13.418 6.708-20.788 8.688-6.71 1.87-15.287 3.08-27.716 3.52-4.62 11.55-7.92 22.878-10.12 35.086-2.418 12.98-3.41 26.946-3.41 42.895 0 33.322 10.12 62.142 28.046 85.348 18.587 24.196 45.644 42.457 78.3 53.675z"/><path d="M81.17 197.865c3.08 2.3 4.5 5.72 4.07 10.34s-2.64 9.678-6.7 15.3c-2.3 3.2-4.5 5.83-6.708 7.8-2.2 2.1-3.08 2.86-5.28 4.4l-8.03-4.95c3.08-1.76 5.06-2.97 8.03-5.278a30.67 30.67 0 0 0 6.49-6.6c.44-.55 1-1.43 1.54-2.42.66-1.1 1.1-1.98 1.32-2.75.33-.88.44-1.76.44-2.53s-.33-1.428-1.1-1.98-1.54-.55-2.64-.218c-1 .33-2.1 1.1-3.407 2.3s-2.75 2.64-4.18 4.07a66.8 66.8 0 0 1-4.179 3.85c-3.3 2.64-6.16 4.07-8.58 4.5-2.53.33-4.95-.33-7.04-1.87-2.97-2.2-4.18-5.5-3.74-10 .55-4.62 2.64-9.458 6.27-14.518a63.88 63.88 0 0 1 6.16-7.15c1.87-1.87 3.628-3.4 5.4-4.73l5.94 5.72c-4.3 2.42-8.7 6.38-11.44 10.118-.66.77-1.208 1.65-1.65 2.53-.55.88-1 1.76-1.2 2.748-.33.88-.44 1.65-.33 2.42s.44 1.43 1 1.87c.77.55 1.76.66 2.75.22 1-.55 2.418-1.65 4.4-3.63 1.2-1.208 2.528-2.418 3.628-3.52 1.2-1.2 2.53-2.3 3.96-3.52 2.97-2.42 5.6-3.85 8.03-4.3s4.62.222 6.82 1.76zm21.448-41.355c-1.87-.55-3.74-.66-5.938-.22-1.76.33-3.63 1.1-5.5 2.1s-3.96 2.53-6.27 4.5l-15.508 12.98 24.967 29.807 9.02-7.6-8.14-9.678 6.27-5.28c2.75-2.3 4.73-4.4 5.94-6.6 1.318-2.1 2.2-4.3 2.64-6.7.438-1.76.33-3.52-.22-5.28-.44-1.76-1.32-3.3-2.42-4.62-1.432-1.76-3.082-2.86-4.84-3.4zm-3.08 14.077c.22.77.22 1.65 0 2.64-.33 1.1-.88 2.1-1.87 3.2-.88.992-2.1 2.202-3.74 3.52l-3.4 2.86-7.48-8.9 2.312-1.98 3.74-3.08c1-.77 2.1-1.32 3.4-1.87.88-.328 1.87-.44 2.97-.328s1.98.66 2.638 1.428c.768.88 1.2 1.76 1.428 2.53zm49.164-35.524c-5.5-1.65-11.878-.88-19.028 2.1-7.258 3.08-12.208 7.148-14.848 12.208-2.64 5.17-2.75 10.56-.33 16.28s6.38 9.35 11.878 10.998 11.878.88 19.137-2.2 12.2-7.148 14.85-12.208 2.75-10.45.33-16.167c-2.42-5.83-6.38-9.46-11.988-11zm-1.76 30.026c-1.208 1-2.75 1.98-4.288 2.64s-3.3 1.1-4.84 1.2-3.08 0-4.5-.55-2.75-1.43-3.96-2.64c-1.32-1.2-2.418-2.86-3.3-5.06-.88-2.1-1.32-3.958-1.32-5.827s.22-3.52.88-4.84c.77-1.43 1.65-2.64 2.748-3.63 1.2-.88 2.75-1.87 4.18-2.42 1.538-.66 3.2-1.1 4.73-1.32 1.54-.1 3.08.1 4.5.55 1.43.55 2.75 1.43 4.07 2.64s2.3 2.97 3.3 5.06c.77 1.98 1.32 3.85 1.32 5.6.1 1.65-.22 3.3-.88 4.948-.548 1.43-1.54 2.64-2.64 3.63zm54.115-18.477c2.968-1.43 5.168-3.2 6.598-5.17 1.43-1.87 1.98-4.3 1.76-7.148-.22-2.1-.77-3.74-1.87-5.06-1.2-1.32-2.75-2.3-4.62-2.968-1.87-.772-3.74-1.102-5.83-1.2s-4.5 0-7.258.218l-20.348 1.76 3.4 38.826 11.44-1.1-1.2-14.188 6.05-.55c5.6 4.3 9.9 8.7 12.32 13.307l13.418-.77c-3.522-6.05-7.04-11.66-13.858-15.95zm-4.5-7.37c-.33.66-.88 1.32-1.65 1.98-.88.66-1.98 1.1-3.3 1.32-1.2.33-2.86.55-4.84.66l-4.18.44-1-10.45 4.95-.44c1.43-.1 2.75-.22 3.85-.22a8.6 8.6 0 0 1 2.969.22c1.2.33 2.1.77 2.64 1.43s.88 1.43 1 2.42c.1 1.1-.1 1.98-.44 2.64zm59.7-11.66l-41.903-4.398-.88 8.028 15.4 1.65-3.3 30.577 11.33 1.2 3.2-30.687 15.287 1.65.88-8.03zm21.23 6.71l-10.998-3.2-10.782 37.396 11.113 3.08 10.667-37.285zM335.46 163.1l-9.68-5.72-12.98 20.02-10.12-32.338-10.34-4.73-15.946 35.417 9.9 4.3 9.68-21.118 9.788 31.675 8.467 5.83 21.228-33.327zm26.504 58.402l-10.228-15.948-5.72 4.18 3.738 5.937-5.6 3.96c-3.4-3.85-8.687-11.77-8.467-17.048.108-3.63 1.978-6.7 5.388-9.24 1.65-1.318 3.4-2.1 5.17-2.418s3.407-.33 5.057.1c3.633 1 7.043 4.07 9.24 6.93 1.102 1.54 1.98 3.08 2.75 4.62 1.54 3.52 2.64 9.02 3.3 13.638l7.368-5.5c-1.096-3.628-2.3-8.14-3.627-10.67-1.43-2.528-2.974-5.168-4.95-7.588-4.948-6.7-10.336-10.78-16.058-12.208s-11-.44-15.838 3.2c-5.06 3.85-7.7 8.7-7.8 14.518 0 5.83 2.312 11.988 7.26 18.478 2.1 2.86 4.5 5.4 7.148 7.8s6.5 6.158 8.36 7.478l13.528-10.23zM100.638 450.614a9.29 9.29 0 0 1-3.41 2.42c-1.43.55-2.75.768-4.18.66-1.98-.108-3.848-.548-5.6-1.43-1.87-.77-3.74-2.197-5.83-4.07l-4.95-4.617-6.93 7.368-6.7-6.267 21.23-22.658 11.988 10.664c1.76 1.652 3.08 3.2 4.07 4.623 1.76 2.3 3.08 6.27 2.53 9.126-.22 1.54-1 2.862-2.2 4.18zm-7.368-6.5c.66-.66 1-1.43 1-2.3 0-.77-.22-1.65-.66-2.312-.44-.987-1.1-1.758-1.76-2.417-.66-.77-1.65-1.652-2.86-2.75l-1.98-1.87-6.38 6.817 2.86 2.643 3.2 2.64c.88.66 1.76.987 2.64 1.1.77.108 1.54.108 2.2-.22.55-.22 1.2-.662 1.76-1.32zm41.465 30.358c-2.53 4.286-5.94 6.817-10.45 7.588s-9.458-.328-14.738-3.407-8.8-6.82-10.34-11.112c-1.54-4.178-1.1-8.467 1.43-12.756 2.42-4.4 5.94-6.93 10.45-7.7 4.4-.773 9.35.44 14.628 3.407 5.28 3.082 8.8 6.82 10.34 11 1.65 4.286 1.2 8.578-1.32 12.978zm-15.07.328c1.2-.328 2.42-1 3.52-1.87a13.71 13.71 0 0 0 2.861-3.519c.88-1.65 1.43-3.2 1.65-4.512.22-1.43.1-2.748-.22-3.85s-.88-2.197-1.65-3.076c-.88-.882-1.98-1.76-2.97-2.312-1.1-.66-2.3-1.102-3.4-1.318a6.36 6.36 0 0 0-3.52 0c-1.2.217-2.3.77-3.52 1.758-1.1.88-2.1 2.092-3.08 3.74-.88 1.538-1.43 3.08-1.648 4.397-.22 1.433-.1 2.75.218 3.853s.88 2.197 1.65 3.08c.88.88 1.87 1.758 2.97 2.3 1.1.66 2.42 1.207 3.63 1.43a7.65 7.65 0 0 0 3.52-.111zm49.935 24.858l-10.998-3.52c-.44-4.73-2.86-9.352-5.94-13.97l-4.73-1.54-3.52 10.9-8.9-2.86 9.568-29.587 15.728 5.057c2.2.662 3.96 1.433 5.4 2.092 1.54.77 2.858 1.65 3.96 2.748 1.2 1.102 1.98 2.312 2.42 3.633s.438 2.75 0 4.3c-.77 2.2-1.98 3.85-3.63 4.73-1.76 1-3.848 1.54-6.488 1.76 3.08 4.288 5.5 9.68 7.15 16.276zm-6.82-24.858c.22-.77.22-1.43.1-2.1-.22-.66-.77-1.32-1.54-1.87-.55-.44-1.32-.77-2.1-1.1-.88-.33-1.87-.662-2.97-1.102l-3.96-1.2-2.64 7.922 3.52 1.096a23.12 23.12 0 0 0 3.85 1.102c1 .22 1.98.22 2.75 0s1.43-.548 1.87-.882c.438-.44.88-.987 1.1-1.87zm46.304-4.07l-33.544-2.86-.55 6.38 12.428 1.102-2.088 24.524 8.577.77 2.1-24.528 12.54 1.1.55-6.5zm38.606-3.738l-9.568 1 1.65 19.468c.22 2.3-.22 3.958-1.318 5.057-1 1.102-3.08 1.76-5.5 1.98-2.53.223-4.73-.108-5.94-1-1.2-1-1.87-2.528-2.1-4.73l-1.65-19.248-9.46.66 1.65 19.907c.33 3.853 2.092 6.6 5.06 8.36 3.08 1.872 7.37 2.53 12.98 1.98 5.5-.442 9.68-1.87 12.32-4.18 2.748-2.3 3.85-5.28 3.52-9.13L247.694 467zm44.434 1.208l-13.638 4.18 1.65 5.6 5.28-1.65 1.76 5.83c-4.07 1.65-10.23 3.3-14.4 1.65-2.748-1.102-4.506-3.302-5.607-6.6-.44-1.65-.55-3.08-.328-4.5.437-2.968 2.197-5.17 4.617-6.82 1.213-.77 2.968-1.538 4.62-2.1 1.43-.44 2.86-.66 4.3-.77 2.97-.108 6.93.33 10 .882l-2.203-7.043c-2.968-.217-5.607-.105-7.92.223-2.197.33-4.617.77-6.926 1.538-6.38 1.983-10.9 4.84-13.638 8.8-2.64 3.85-3.302 8.14-1.872 12.76 1.43 4.84 4.397 8.142 8.798 9.788 4.292 1.65 9.568 1.54 15.838-.328 2.64-.77 5.282-1.872 7.8-3.2s4.84-2.64 6.38-3.63l-4.512-14.63zm45.976-7.697l-8.8 5.17-5.5-4.18-12.208 7.148.768 6.712-8.575 4.945-3.302-33.987 9.8-5.607 27.826 19.8zm-19.25-2.75l-9.565-7.26L310.7 462.5l8.138-4.728zm40.147-25.846l-12.98 12.096-16.94-18.146-6.7 6.27 21.117 22.77 19.8-18.37-4.3-4.62z" fill="#fff"/><path d="M74.462 86.9c3.738 0 18.807.44 31.235-2.97 9.02-2.53 17.708-7.92 15.618-12.98-1.98-4.5-10.56-4.62-20.678-2.3-12.757 2.97-25.626 1.98-30.025 0-4.95-2.2-9.02-6.16-11-11.44-1.98-5.5.44-13.307 5.83-19.248S78.86 27.167 89.42 23.318c10.118-3.74 20.347-5.6 30.907-6.7l6.817 14.628c-5.83-.1-12.757.1-20.127 1.54-7.48 1.318-15.507 3.85-20.127 8.14-4.3 4.07-2.2 9.68 3.85 9.02l11.77-1.2c9.898-.88 20.347-2.42 30.026.44 19.356 5.72 14.628 24.416 2.86 35.084-4.5 4.07-9.9 7.26-14.628 9.458-11.878 5.5-25.737 7.6-38.385 8.58l-7.918-15.4zM251.65 6.82c-5.4-2.2-11.1-3.96-17.156-5.06C228.552.55 222.17 0 215.682 0c-8.247 0-16.166 1-23.646 2.86-12.318 3.2-25.627 9.568-32.776 20.678-2.97 4.73-4.4 9.68-4.4 15.067 0 6.16 1.98 12 5.938 17.158 8.14 10.67 22.217 16.828 34.976 19.578 6.27 1.32 12.87 1.76 19.686 1.76 6.5 0 12.65-.55 18.6-1.65s13.418-3.958 18.37-6.048l-.1-17.928c-10.998 5.72-22.986 9.13-35.417 9.13-13.526 0-34.644-4.73-34.644-22.217 0-17.377 21.007-22.106 34.644-22.106 11.55 0 25.078 2.75 34.758 8.798V6.82zm40.693 82.05l8.58-26.947 19.685 6.27c6.5 1.98 16.94 3.52 25.85.44 12.65-4.5 16.5-18.368 8.798-29.146-3.2-4.5-8.03-8.14-12.647-10.45-4.95-2.42-14.628-5.28-23.43-8.25l-27.935-9.24-22 69.732 23.097 7.6zm43.225-39.155c-1.758 5.83-12.976 4.5-17.268 3.2l-13.1-4.07 4.95-16.277 14.848 4.73c5.063 1.65 12.54 6.267 10.56 12.427z" fill="#008057"/><path d="M231.192 229.2c-2.75 2.1-4.948 3.848-7.26 4.5-.22 0-.22.33-.108.33 1.758.77 4.07.66 6.5.66 2.3-.1 4.837-.1 7.037.44 1.54.328 2.64 1.1 3.52 1.98.77 1 1.318 2.1 1.43 3.08-2.75-1.43-5.4-2.1-7.7-1.98-1 0-1.98.22-2.75.66a4.68 4.68 0 0 0-1.98 1.871c-.548.88-.77 1.98-.77 3.3.1.108.223.22.33.108 1.102-.66 2.2-1.1 3.302-1.32 1-.33 1.978-.438 2.968-.33 2.3.1 4.3 1 5.83 2.3s2.53 3.08 2.53 4.84l.548 4.62c.22 1.2.66 2.3 1.2 3.4-1.538-.66-2.528-2.1-3.52-3.52-1.43-1.87-2.86-3.848-5.5-4.3-1.102-.22-2.3 0-3.4.55s-1.98 1.54-2.643 2.748c-.108.22 0 .33.223.33 2.1-.1 3.958.328 5.5 1.208 1.76.882 3.188 2.312 4.3 3.96 2.3 3.63 2.53 6.82 2.64 9.57.1 2.197.22 4.068 1.32 5.827-2.643-1-4.18-3.85-5.5-6.5-.77-1.54-1.43-2.86-2.312-3.848a6.99 6.99 0 0 0-1.43-1.1c-.88-.442-1.758-.66-2.748-.55-.993.22-1.872.66-2.643 1.43a5.04 5.04 0 0 0-1.43 1.868c-.108.1 0 .33.1.33 2.2 0 4.3.88 5.938 2.53 1.54 1.428 2.64 3.627 3.082 6.268.217 2.1.217 4.5.108 6.928-.108 4.84-.22 9.787 2.64 12.866-5.168-.876-6.27-5.496-7.37-10.005-.328-1.324-.66-2.53-1.1-3.74-.55-1.758-1.538-3.2-2.64-4.3-1.318-1.2-2.75-1.87-4.07-2.1-.1 0-.22.22-.1.44 2.092 2.2 2.862 4.84 2.862 7.697s-.662 6.052-1.538 9.462c-.665 2.525-.882 5.057-.442 7.257.33 2.1 1.102 3.85 2.528 5.28.1.1.334 0 .334-.1.217-1.866.548-3.4 1.207-4.617.66-1.102 1.43-2.092 2.42-2.968v2.1c.1 5.496.22 11.33.77 15.507.33 2.64 2.1 6.93 4.18 10.998 2.528 4.95 5.496 9.677 7.148 11.438 2.748 2.862 5.72 4.5 8.687 5.17 2.528.55 5.06.328 7.148-.55 2.2-.77 3.96-2.3 5.17-4.178 1.2-1.76 1.87-3.96 1.76-6.38-.223-3.407-.77-6.047-2.53-10.12-1.76-3.958-4.617-9.35-9.13-18.146-2.3-4.397-4.178-9.018-4.948-13.638-.773-4.73-.44-9.46 1.65-14.188 1.433-3.52 3.738-6.27 6.7-8.14 2.75-1.65 6.05-2.53 9.788-2.1 0 0 .1-.108.22-.108.55-1.323 1.43-2.202 2.53-2.862 1.2-.66 2.637-1 4.07-1.1 1.978 0 3.96.33 5.722.992.768.22 1.538.66 2.197 1 1.318.66 2.64 1.32 4.3 1.32 1.87.1 3.74-.88 5.5 0-1.2.1-2.2.77-3.188 1.318-1.213.66-2.42 1.32-4.292 1.43-2.1.1-3.738-.438-5.72-1.2-.1-.108-.22 0-.33.1v.22c0 2.97 5.4 3.4 7.6 2.97 1.2-.33 2.64-.55 3.4-.33-1.102 0-2.092.66-3.2 1.2-1.32.66-4.07 1.32-6.378 1.32-1.32 0-2.64-.33-3.3-1.102-.1-.1-.442-.1-.442.1s0 .44.108.66c.1 1.2 1.213 1.98 2.312 2.3 1.2.33 2.528.1 3.52 0 1.54-.22 2.75-.33 4.5 0-1.758.44-3.188 1.1-4.73 1.76-3.4 1.54-6.817 2.64-10.56 1.87-2.42-.55-4.397-1.98-5.057-4.3-.442-1.43-.442-3.08 0-4.62 0-.1 0-.22-.223-.22a8.75 8.75 0 0 0-5.06.549c-1.76.77-3.3 1.98-4.617 3.4-2.203 2.53-3.4 5.5-3.85 8.7-.442 3.52 0 7.37 1.1 11 .88 3.08 2.3 6.158 4.07 9.237 1.65 3.188 3.63 6.16 5.5 9.24 1.2 1.87 2.3 3.738 3.4 5.607 1.1 1.76 2.092 3.52 3.08 5.28 1.2 1.98 1.76 3.85 2.092 5.72.328 1.76.328 3.52.328 5.17-.1 3.3-.987 6.378-2.64 9.018-1.65 2.53-3.96 4.73-7.15 6.6-.217.1-.217.328 0 .328 1 .442 2.092.66 3.2.33 1-.22 1.98-.77 2.97-1.538-1.1 2.42-3.08 4.07-5.5 5.06-3.082 1.2-6.82 1.318-10.667.548-.1 0-.223.1-.223.328.334 1.65 1 3.2 1.983 4.4.656.77 1.538 1.43 2.525 1.872 1 .328 2.203.44 3.4.217 1.538-.328 3.4-1.207 5.282-2.745.88 6.047-3.96 8.687-9.132 11.438-.656.328-1.207.66-1.76.88-1.758 1.1-3.516 2.748-4.506 4.62-.882 1.76-1.324 3.738-.77 5.6 0 .22.22.22.328.108 1.102-1.1 2.64-1.76 4.292-2.528 2.64-1.213 5.607-2.643 7.588-5.94.882 1.433 1.2 2.86.987 4.18-.217 1.65-1.1 3.2-2.42 4.3-3.516 3.2-6.378 3.96-7.808 4.5-.437.1-.77.1-.987.22-.882.44-1.652 1-2.534 1.652-.984.768-1.866 1.65-2.637 2.417l-.108.1c-.442.882-.77 1.76-.882 2.643-.108.873.1 1.755.55 2.525.108.108.22.108.33.108.66-.437 1.76-.548 2.856-.656.882-.1 1.76-.223 2.53-.44-.548 1.65-1.54 2.856-2.643 3.85-1.315 1-2.856 1.87-4.506 2.64-.88.437-1.98 1.538-2.75 2.856-.88 1.43-1.538 3.08-1.978 4.84-.55 1.98-.1 3.85.328 5.6.33 1.2.662 2.42.77 3.63 0 1.54-.987 2.748-2.42 3.627-1.758 1.102-4.3 1.76-6.5 1.872 1.1-2.2.662-3.74.33-5.282-.223-.768-.44-1.538-.44-2.417a.24.24 0 0 0-.22-.22c-.993 0-2.092 1.318-3.2 2.637-.548.665-1.102 1.213-1.65 1.76-1.76 1.65-4.18 1.76-6.38 1.872-.88 0-1.758 0-2.528.22 0-.108 0-.22.108-.442.55-2.3 1-3.958 1.76-5.165.328-.662.987-1.213 1.652-1.76s1.427-1.102 1.866-1.872c.1 0 .1-.108 0-.22-.88-2.1-3.738-1.538-6.706-.987-1.32.217-2.643.44-3.742.44-.1-1.102-.1-2.1.1-2.86.1-1 .438-1.65.88-1.98 1.87-2.1 4.617-1.65 7.48-1.213 1.978.223 4.07.554 5.938 0 2.1-1.646 3.85-3.407 5.4-5.388 1.427-2.1 2.748-4.18 3.738-6.6 1-2.856 1.2-5.388.77-7.257-.33-1.318-.882-2.312-1.652-2.97v.1c-.88-.77-1.978-1.102-3.188-1-1.76.1-3.96.88-6.38 2.42.77-6.27-1.318-8.578-4.4-12.1-.105-.108-.328-.33-.44-.548-.88-1-2.3-2.53-3.4-4.07-1.207-1.54-2.197-3.08-2.197-4.07v-.77c-.1-4.512-.1-7.48 1.538-10.56.66-1.32 1.43-2.53 2.2-3.74.77-1.318 1.538-2.528 2.092-3.63.88-1.65 1.207-3.08.1-3.74.768-1.538.328-2.748-1.213-3.738-1.538-1.102-4.18-1.87-7.6-2.64-3.517-.66-5.938-1.2-8.248-1.866-2.2-.662-4.07-1.54-6.048-2.643a30.26 30.26 0 0 1-5.94-4.837c-1.65-1.54-2.86-3.2-3.3-4.5 1.98-.773 3.628-1.76 4.84-3.082.108-.1 0-.328-.1-.328-4.62.217-8.9-2.42-12.647-4.623-2.75-1.538-5.17-2.968-7.04-2.968-1.43 0-2.86.22-3.96.66s-1.98 1.102-2.64 2.092c0 .108.1.328.22.328 3.4-.66 5.28.88 7.258 2.64 1.54 1.318 3.2 2.75 5.938 3.52-2.97 1.538-5.278 1.978-7.368 1.76-2.2-.33-4.3-1.544-6.93-2.974-1.98-1.096-4.07-2.197-6.16-2.528-1.98-.44-3.96-.1-5.72 1.433-.22.105-.1.328 0 .328 1.65.548 3.08 1.32 4.18 2.197 1 .882 1.76 1.872 2.2 3.082-2.1-.662-4.18-1.32-6.16-1.76-2.1-.55-4.07-.88-5.94-.88-2.2 0-4.3.77-6.5 1.538-.88.334-1.87.55-2.75.882-4.84 1.207-6.27 2.3-7.8 3.3-.33.328-.77.66-1.32 1-.33.108-.88.328-1.43.44-.88.33-1.98.548-2.97 1.43-.1-.328-.1-.77-.22-1.1-.1-1.76.1-3.52 1-4.84.77-1.32 2.3-2.42 4.5-2.86.44-.1 1-.1 1.428-.223.22 0 .33-.217.1-.328-2.53-2.97-3.96-2.42-6.6-1.43-.55.22-1.32.55-2.1.77-.33.1-.66.44-.88.88s-.44.88-.55 1.32c-1.76-3.96-.22-5.94 2.2-6.932 2.64-.987 6.27-.987 8.14-.987.1 0 .22-.1.22-.33-.66-1.2-1.318-1.978-1.98-2.42-.77-.44-1.65-.55-2.86-.66-.22 0-.44-.1-.66-.1a3.32 3.32 0 0 0-2.1-.108c.1-1.2.44-2.2 1-2.86s1.32-1 2.42-1c2.64.108 4.84 1.318 7.15 2.64 2.528 1.43 5.168 2.86 8.688 2.86 2.75-.1 5.17-.662 7.48-1.65a37.45 37.45 0 0 0 6.71-3.74l2.64-1.76c3.2-2.3 6.27-4.4 9.13-5.276.77.77 1.98 1.1 3.52 1.207 1.54 0 3.52-.33 5.83-1 .55-.217 1.1-.328 1.65-.437 2.64-.66 5.168-1.324 6.5-2.42 1.538-1.213 2.748-2.42 3.628-3.85.77-1.32 1.32-2.75 1.65-4.512 0-.1-.33-.22-.44-.1-2.97 3.302-5.5 3.853-7.8 4.292-1.2.22-2.42.548-3.63 1.207-2.42 1.652-4.62 2.862-6.378 3.52-1.65.66-2.97.88-3.96.66.44-2.42 1.32-4.73 2.638-6.5 1.32-1.978 3.08-3.407 5.06-4.286 2.3-1.103 4.84-1.98 7.15-2.752 5.17-1.76 9.568-3.2 10.23-6.268 0-.1-.1-.33-.22-.22-4.3 1.32-6.82 1.32-9.46 1.32-1.2 0-2.53 0-3.96.218.22-1.207 1.102-2.2 2.64-3.2s3.85-1.76 6.27-2.638c.88-.33 1.87-.552 2.86-.88 2.97-.88 6.5-1.87 8.25-3.74.77-.66 1.1-1.54 1.208-2.3a2.68 2.68 0 0 0 0-1.32c-.1-.33-.33-.768-.66-1-.328-.333-.66-.552-1.208-.552-.88-.108-2.3.22-3.85.992-1.43.77-3.08 1.87-4.73 3.2-2.3-1.32-4.07-2.75-5.17-4.3-.88-1.43-1.2-2.86-.66-4.18 6.268.88 10.23 1 12.647.33 2.64-.77 3.63-2.2 3.96-4.5.22-1.428-.33-2.75-1.43-4.07a10.41 10.41 0 0 0-2.75-1.979c-1-.55-2.3-1-3.63-1.2-3.74-.66-8.36.33-12.43 3.958-1.1-.438-1.76-1.1-2.2-1.76-.33-.55-.44-1.208-.44-1.87.1-.66.33-1.32.77-1.76a3.79 3.79 0 0 1 2.31-1.54c.22-.1.22-.44 0-.44-.44-.1-.77-.1-1.1-.1-1.32-.218-2.2-.33-2.75-.66-.328-.22-.328-.548 0-1.1l1-1.87c4.62-1.208 7.7-1.76 10.12-1.65 2.3.22 3.85 1.1 5.28 2.86.1.108.22.108.33.108 1.2-1 2.858-1.54 4.4-1.978 2.1-.77 3.958-1.323 4.73-2.75.1-.1 0-.33-.1-.33-2.53.33-4.73.44-6.7.55-1.98 0-3.52-.1-4.838-.33-1.2-.22-2.1-.88-2.53-1.54-.218-.438-.33-.77-.33-1.2 0-.33.22-.77.44-1.1.44-.66 1.32-1.2 2.53-1.32 1.1-.22 2.42-.1 3.958 0 1.54.218 3.302.55 5.17.88h.22c5.607-4.07 9.237-3.08 13.526-1.87 3.193.88 6.932 1.87 12.1 1.208.01.001-.1.113-.2.222zm-102.838 22.548c.77.1 1.2.44 1.65.77.22.22.44.33.55.442 1 .328 1.98.877 2.75 1.65.66.66 1.208 1.54 1.65 2.528 0 .22-.1.33-.22.33-1.102.1-1.98-.438-2.97-1.1-1.43-.88-2.97-1.87-5.72-.88 3.3 7.04 5.72 7.478 11.657 8.468 1.32.333 2.97.55 4.84 1 2.2.44 3.96 1.2 5.28 2.3.88.66 1.54 1.428 1.87 2.3a5.04 5.04 0 0 1 .22 2.861c-.22 1.1-.77 2.1-1.65 3.3 1.76 0 3.85-.552 5.72-1.1 2.64-.66 4.95-1.2 6.38-.55.1.1.1.33 0 .44-1.43.44-2.2 1.1-3.3 2.1-1.43 1.32-3.4 3.08-8.03 5.4 1.648.77 3.2.986 4.838.88 1.76-.1 3.52-.77 5.4-1.76.22-.1.55-.33 1-.55 2.1-1.32 5.83-3.74 8.47-1.758.1.108 0 .438-.22.438-2.86-.1-4.3 1.65-5.938 3.737-1.2 1.652-2.64 3.4-5.06 4.84 4.84.665 8.468-.105 11.22-1.758 2.858-1.758 4.948-4.398 6.82-7.257 1.65-2.64 3.2-3.96 4.397-5.06.55-.44 1-.88 1.32-1.2-1.76-.44-3.85-.44-5.83-.55-1.98 0-3.85-.1-5.6-.33-2.1-.44-4.07-.877-5.83-1.538-1.87-.662-3.52-1.54-5.06-2.53-2.97-1.98-5.06-3.958-6.6-5.83-1.65-1.87-2.64-3.74-3.3-5.4-.33-.662-.55-1.32-.77-1.87-1.54-3.85-3.08-7.6-8.7-6.93.88 1.43 1.54 2.75 2.1 3.96.66 1.43 1 2.64 1.1 3.85 0 .22-.33.328-.44.1-1.43-2.75-3.4-5.058-5.4-6.16-1-.55-1.98-.88-2.86-1-1 0-1.978.1-2.858.66-.987.554-1.978 1.324-2.858 2.752zm20.788 115.486c.44 0 1-.1 1.54-.1.44 0 .77-.105 1.1-.105 2.3-.442 3.96-.554 5.06-.1 1.1.328 1.76 1.207 1.87 2.53 0 .105-.1.328-.22.328-.88 0-1.76-.1-2.64-.1-2.1-.1-4.07-.1-5.388.55-1.32.55-2.2 1.43-2.97 2.3-.77 1.102-1.2 2.312-1.32 3.302-.1.44 0 .987.22 1.65a9.32 9.32 0 0 0 .548 1.869c1.43-2.1 3.08-3.407 4.84-4.3 1.98-.88 4.07-1 6.27-.442.22 0 .22.223 0 .334-1.32.768-3.3 2.197-4.73 4.07-1 1.318-1.87 2.748-2.1 4.178 1.76-.33 3.4 0 4.95.22 1.87.33 3.52.66 4.62-.328.33-.33.88-1 1.43-1.76l3.2-3.633c.55-.437 1.1-.88 1.54-1.096.55-.223 1.1-.33 1.54-.442 4.84-.217 8.7-.217 11.438.22 2.53.44 4.4 1.102 5.392 1.983 0-.882-.33-1.76-.992-2.53-.88-1-2.3-1.98-4.3-2.862-.1-.108-.1-.328 0-.44 3.74-1.98 7.7-.768 11.66.55 4.62 1.538 9.13 2.968 13.418-.77-1.65-.108-2.97-1-4.3-2.1-1.87-1.43-3.96-3.082-7.48-2.64-.1 0-.22-.22-.22-.33.66-1.2 1.65-2.1 2.86-2.748 1.43-.77 3.08-1.102 4.5-1.102 1.98 0 3.74.55 5.4 1.102 2.1.66 3.958 1.2 6.157.987-2.3-3.738-2.638-7.477-1.758-11.218.88-3.627 2.97-7.26 5.388-10.887-1.647-.554-3.52-.33-5.496.66s-4.3 2.75-6.7 5.17c-.1.217-.33 0-.33-.223.88-2.86 2.092-5.168 3.63-6.82 1.208-1.538 2.638-2.528 4.4-3.3-2.202-.1-4.62 0-7.15.662-2.968.66-6.048 1.978-9.24 3.96-.22 0-.33-.1-.33-.223.22-1.87 1.2-3.3 2.64-4.4 1.43-.987 3.2-1.866 4.84-2.637 1.208-.442 2.1-1.102 2.858-1.76.66-.442 1.2-.77 1.76-1.102-1.54-.1-3.4.22-5.498.548-1.54.223-3.2.554-5.06.662-1 .1-1.98.1-2.97.22a38.57 38.57 0 0 0-5.06.331c-2.53.548-4.73 1.76-6.27 3.52-1.32 1.538-1.98 3.627-1.76 6.267.22 2.53 1.43 4.397 2.53 6.27 1.43 2.197 2.86 4.4 2.64 7.92-.22 3.3-2.1 5.28-4.62 6.378-2.42 1.102-5.5 1.32-8.14 1.32-1.54 0-3.08-.108-4.4-.22-1.32-.22-2.53-.55-3.4-.88-1-.44-1.87-.882-2.75-1.43-1.43-.77-2.86-1.652-4.838-1.872-1.76-.108-3.63.22-5.06 1.213-1.213.88-2.202 2.1-2.752 3.627zM166.85 250.55c.55 1.65 1.65 2.97 3.2 3.848 1.87 1.2 4.3 1.87 6.6 1.87 2.3-.108 4.84-1.1 7.7-2.3 4.07-1.76 8.58-3.74 14.188-3.52-6.5-1.54-11.77-.1-16.167 1.1-2.2.66-4.18 1.2-5.94 1.2-2.418.1-4.4-.1-5.938-.55s-2.64-1-3.63-1.65z" fill="#f3c242"/><path d="M225.142 346.126c.108-.108.33 0 .33.22a33.89 33.89 0 0 0-1 4.73c-.223 1.54-.223 3.2-.223 4.84.1 3.2 1.102 5.282 2.092 7.37 1.2 2.528 2.3 4.948 1.54 9.018 0 .1-.33.22-.442 0-1.207-2.968-2.528-4.948-3.627-6.7-1.43-2.3-2.643-4.07-3.08-7.037-.223-1.54.108-4.072.987-6.6.773-2.2 1.98-4.292 3.4-5.83zm-20.456-20.238c1.1 1.32 2.86 2.312 4.62 2.97 1.976.77 4.3 1.1 6.376 1 4.84-.22 7.26-2.1 9.568-3.85.442-.328.882-.66 1.324-.882.105-.1 0-.437-.223-.437-3.847 1-7.6 1.538-11.33 1.65-3.63.1-6.93-.1-10.12-.77-.217.002-.437.225-.217.33zm-9.35-5.718c1.32 1.213 3.08 2.092 5.058 2.75s4.07 1 6.27 1c2.42-.1 4.838-.77 6.93-1.76 2.087-1.102 3.848-2.64 4.838-4.3.108-.22-.108-.44-.33-.328-1.65 1.096-3.85 1.978-6.05 2.528-2.3.66-4.617 1.1-6.927 1.2-1.65.1-3.3 0-4.948-.223-1.54-.217-3.08-.66-4.5-1.318-.223.001-.44.224-.33.44zm-9.13-13.2c1.54 0 2.97 1.1 4.5 2.312 2.75 1.978 5.83 4.397 11.108 2.528.1-.108.1-.33 0-.44-1.538-.55-2.968-1.54-4.397-2.42-3.2-2.2-6.5-4.5-11.33-2.42-.112.1-.112.44.1.44zm16.277-1.32c2.75-2.3 5.28-2.637 7.6-2.968 1.76-.22 3.3-.328 4.948-1.207 3.302-1.76 5.5-3.964 6.38-6.823.768-2.748.22-6.267-2.2-10.447-.1-.22-.442 0-.442.22.66 2.1.55 4.18-.108 6.05-.77 1.98-2.2 3.847-4.07 5.06-1.43 1-2.97 1.76-4.5 2.64-3.63 1.98-7.148 3.738-8.03 7.26 0 .215.22.326.44.215zm-16.057-3.627c2.86-1.43 5.28-1.65 7.7-1.98 2.2-.217 4.5-.55 7.148-1.65 2.64-1.2 5.06-3.2 6.27-5.938 1-2.3 1.1-5.17-.22-8.58 0-.1-.33-.1-.33 0-2.528 6.05-5.937 7.6-10.447 9.46-1.2.44-2.42.987-3.74 1.652-2.1.987-4.18 2.3-5.5 3.627-1.1 1.102-1.65 2.197-1.208 3.3-.001.1.22.22.33.1z" fill="#008057"/></svg>