<svg height="316.227766" viewBox="0 0 375.4 375.4" width="316.227766" xmlns="http://www.w3.org/2000/svg"><circle cx="187.7" cy="187.7" fill="#fff" r="187.2" stroke="#194f90" stroke-miterlimit="10"/><path d="m226.35 175.06a41.43 41.43 0 0 0 -77.21 0z" fill="#00205c"/><path d="m188.79 271c-57.35-31-40.11-100.38-40.11-100.38 22.31 7.2 38.06-.43 40.11-1.51 2 1.08 17.8 8.71 40.11 1.51 0 .01 17.24 69.38-40.11 100.38z" fill="#ffc557" stroke="#00205c" stroke-miterlimit="22.93" stroke-width="1.03"/><path d="m188.76 262.76c-37.56-23.08-36.2-66.17-34-83.3a67.55 67.55 0 0 0 12.68 1.22 59.35 59.35 0 0 0 20.64-3.55l.64-.26.64.26a59.35 59.35 0 0 0 20.64 3.55 67.55 67.55 0 0 0 12.68-1.22 111.49 111.49 0 0 1 0 29.28c-3.31 24.12-14.68 42.26-33.92 54.02z" fill="#194f90" stroke="#00205c" stroke-miterlimit="22.93" stroke-width="1.03"/><path d="m182.41 231.75c0 .3 5.41 7 6 8.18l4.74-6.35 1.52-1.85-6.2-8.34z" fill="#ffc557" fill-rule="evenodd"/><path d="m172.8 204.49c0 .3 5.42 7 6 8.18l4.75-6.34 1.51-1.85-6.2-8.35z" fill="#ffc557" fill-rule="evenodd"/><path d="m191.9 204.68c0 .29 5.41 7 6 8.17l4.74-6.34 1.52-1.85-6.2-8.35z" fill="#ffc557" fill-rule="evenodd"/><path d="m193.3 190.92v-1.85h-1.3v1.85h-2.57v-2.6h1.83v-1.31h-1.83v-1.54h-1.31v1.54h-1.83v1.31h1.83v2.6h-2.51v-1.85h-1.31v1.85h-1.57v1.31h1.57v1.86h1.31v-1.86h2.51v2.54h-1.83v1.32h1.83v1.59h1.31v-1.59h1.83v-1.32h-1.83v-2.54h2.57v1.86h1.3v-1.86h1.52v-1.31z" fill="#e1251b" fill-rule="evenodd"/><path d="m193.3 214.46v-1.86h-1.3v1.86h-2.57v-2.6h1.83v-1.31h-1.83v-1.54h-1.31v1.54h-1.83v1.31h1.83v2.6h-2.51v-1.86h-1.31v1.86h-1.57v1.31h1.57v1.86h1.31v-1.86h2.51v2.54h-1.83v1.32h1.83v1.59h1.31v-1.59h1.83v-1.32h-1.83v-2.54h2.57v1.86h1.3v-1.86h1.52v-1.31z" fill="#e1251b" fill-rule="evenodd"/><path d="m193.3 190.92v-1.85h-1.3v1.85h-2.57v-2.6h1.83v-1.31h-1.83v-1.54h-1.31v1.54h-1.83v1.31h1.83v2.6h-2.51v-1.85h-1.31v1.85h-1.57v1.31h1.57v1.86h1.31v-1.86h2.51v2.54h-1.83v1.32h1.83v1.59h1.31v-1.59h1.83v-1.32h-1.83v-2.54h2.57v1.86h1.3v-1.86h1.52v-1.31z" fill="#ffc557" fill-rule="evenodd"/><path d="m193.3 214.46v-1.86h-1.3v1.86h-2.57v-2.6h1.83v-1.31h-1.83v-1.54h-1.31v1.54h-1.83v1.31h1.83v2.6h-2.51v-1.86h-1.31v1.86h-1.57v1.31h1.57v1.86h1.31v-1.86h2.51v2.54h-1.83v1.32h1.83v1.59h1.31v-1.59h1.83v-1.32h-1.83v-2.54h2.57v1.86h1.3v-1.86h1.52v-1.31z" fill="#ffc557" fill-rule="evenodd"/><path d="m193.3 247.92v-1.86h-1.3v1.86h-2.57v-2.6h1.83v-1.32h-1.83v-1.53h-1.31v1.53h-1.83v1.32h1.83v2.6h-2.51v-1.86h-1.31v1.86h-1.57v1.31h1.57v1.86h1.31v-1.86h2.51v2.54h-1.83v1.32h1.83v1.59h1.31v-1.59h1.83v-1.32h-1.83v-2.54h2.57v1.86h1.3v-1.86h1.52v-1.31z" fill="#ffc557" fill-rule="evenodd"/><path d="m193.3 190.92v-1.85h-1.3v1.85h-2.57v-2.6h1.83v-1.31h-1.83v-1.54h-1.31v1.54h-1.83v1.31h1.83v2.6h-2.51v-1.85h-1.31v1.85h-1.57v1.31h1.57v1.86h1.31v-1.86h2.51v2.54h-1.83v1.32h1.83v1.59h1.31v-1.59h1.83v-1.32h-1.83v-2.54h2.57v1.86h1.3v-1.86h1.52v-1.31z" fill="#ffc557" fill-rule="evenodd"/><path d="m193.3 214.46v-1.86h-1.3v1.86h-2.57v-2.6h1.83v-1.31h-1.83v-1.54h-1.31v1.54h-1.83v1.31h1.83v2.6h-2.51v-1.86h-1.31v1.86h-1.57v1.31h1.57v1.86h1.31v-1.86h2.51v2.54h-1.83v1.32h1.83v1.59h1.31v-1.59h1.83v-1.32h-1.83v-2.54h2.57v1.86h1.3v-1.86h1.52v-1.31z" fill="#ffc557" fill-rule="evenodd"/><path d="m172.98 190.92v-1.85h-1.3v1.85h-2.58v-2.6h1.84v-1.31h-1.84v-1.54h-1.3v1.54h-1.84v1.31h1.84v2.6h-2.52v-1.85h-1.3v1.85h-1.58v1.31h1.58v1.86h1.3v-1.86h2.52v2.54h-1.84v1.32h1.84v1.59h1.3v-1.59h1.84v-1.32h-1.84v-2.54h2.58v1.86h1.3v-1.86h1.52v-1.31z" fill="#ffc557" fill-rule="evenodd"/><path d="m172.98 214.46v-1.86h-1.3v1.86h-2.58v-2.6h1.84v-1.31h-1.84v-1.54h-1.3v1.54h-1.84v1.31h1.84v2.6h-2.52v-1.86h-1.3v1.86h-1.58v1.31h1.58v1.86h1.3v-1.86h2.52v2.54h-1.84v1.32h1.84v1.59h1.3v-1.59h1.84v-1.32h-1.84v-2.54h2.58v1.86h1.3v-1.86h1.52v-1.31z" fill="#ffc557" fill-rule="evenodd"/><path d="m213.04 190.92v-1.85h-1.3v1.85h-2.57v-2.6h1.83v-1.31h-1.83v-1.54h-1.31v1.54h-1.83v1.31h1.83v2.6h-2.51v-1.85h-1.3v1.85h-1.58v1.31h1.58v1.86h1.3v-1.86h2.51v2.54h-1.83v1.32h1.83v1.59h1.31v-1.59h1.83v-1.32h-1.83v-2.54h2.57v1.86h1.3v-1.86h1.52v-1.31z" fill="#ffc557" fill-rule="evenodd"/><path d="m213.04 214.46v-1.86h-1.3v1.86h-2.57v-2.6h1.83v-1.31h-1.83v-1.54h-1.31v1.54h-1.83v1.31h1.83v2.6h-2.51v-1.86h-1.3v1.86h-1.58v1.31h1.58v1.86h1.3v-1.86h2.51v2.54h-1.83v1.32h1.83v1.59h1.31v-1.59h1.83v-1.32h-1.83v-2.54h2.57v1.86h1.3v-1.86h1.52v-1.31z" fill="#ffc557" fill-rule="evenodd"/><path d="m207.14 232.78v-1.85h-1.3v1.85h-2.58v-2.59h1.84v-1.32h-1.84v-1.53h-1.3v1.53h-1.83v1.32h1.83v2.59h-2.52v-1.85h-1.3v1.85h-1.57v1.32h1.57v1.85h1.3v-1.85h2.52v2.54h-1.83v1.31h1.83v1.59h1.3v-1.59h1.84v-1.31h-1.84v-2.54h2.58v1.85h1.3v-1.85h1.52v-1.32z" fill="#ffc557" fill-rule="evenodd"/><path d="m178.86 232.78v-1.85h-1.3v1.85h-2.58v-2.59h1.84v-1.32h-1.84v-1.53h-1.3v1.53h-1.84v1.32h1.84v2.59h-2.52v-1.85h-1.3v1.85h-1.57v1.32h1.57v1.85h1.3v-1.85h2.52v2.54h-1.84v1.31h1.84v1.59h1.3v-1.59h1.84v-1.31h-1.84v-2.54h2.58v1.85h1.3v-1.85h1.52v-1.32z" fill="#ffc557" fill-rule="evenodd"/><path d="m187.76 366.29c-98.64 0-178.88-80.24-178.88-178.88s80.24-178.88 178.88-178.88 178.88 80.25 178.88 178.88-80.25 178.88-178.88 178.88zm0-299.88a121 121 0 1 0 121 121 121.14 121.14 0 0 0 -121-121z" fill="#194f90"/><path d="m21.38 184.91v-2.91a19.06 19.06 0 0 0 2.85-.27 4.07 4.07 0 0 0 2.12-1.15 4.48 4.48 0 0 0 1-2.45h3.65v21.87h-4.46v-15.09z" fill="#fff"/><path d="m38.11 190.61a5.35 5.35 0 0 1 2.44-2.26 5.12 5.12 0 0 1 -2.07-2.29 6.36 6.36 0 0 1 -.48-2.3 5.35 5.35 0 0 1 1.81-4.08 7.19 7.19 0 0 1 5.09-1.68 7.19 7.19 0 0 1 5.1 1.68 5.37 5.37 0 0 1 1.8 4.08 6.34 6.34 0 0 1 -.47 2.3 4.41 4.41 0 0 1 -2.07 2.14 6.11 6.11 0 0 1 2.45 2.41 6.77 6.77 0 0 1 .82 3.34 6.25 6.25 0 0 1 -2.05 4.71 8 8 0 0 1 -5.73 1.94 7.45 7.45 0 0 1 -5.57-1.94 6.52 6.52 0 0 1 -1.9-4.66 6.68 6.68 0 0 1 .83-3.39zm4.48 5.56a3.47 3.47 0 0 0 4.64 0 4.21 4.21 0 0 0 0-5.06 3.49 3.49 0 0 0 -4.61 0 4.19 4.19 0 0 0 0 5.06zm.28-10a2.73 2.73 0 0 0 2 .76 2.56 2.56 0 0 0 2.76-2.71 2.73 2.73 0 0 0 -.73-2 2.69 2.69 0 0 0 -2-.74 2.56 2.56 0 0 0 -2.78 2.77 2.67 2.67 0 0 0 .75 1.94z" fill="#fff"/><path d="m321.28 190.39a5.31 5.31 0 0 1 2.44-2.26 5.12 5.12 0 0 1 -2.07-2.29 6.36 6.36 0 0 1 -.48-2.3 5.37 5.37 0 0 1 1.8-4.08 8.53 8.53 0 0 1 10.19 0 5.37 5.37 0 0 1 1.8 4.08 6.55 6.55 0 0 1 -.47 2.3 4.41 4.41 0 0 1 -2.07 2.14 6.11 6.11 0 0 1 2.45 2.41 6.88 6.88 0 0 1 .82 3.34 6.29 6.29 0 0 1 -2.05 4.71 8 8 0 0 1 -5.73 1.94 7.44 7.44 0 0 1 -5.57-1.94 6.53 6.53 0 0 1 -1.9-4.71 6.68 6.68 0 0 1 .84-3.34zm4.48 5.56a3.47 3.47 0 0 0 4.64 0 4.21 4.21 0 0 0 0-5.06 3.09 3.09 0 0 0 -2.31-.87 3.05 3.05 0 0 0 -2.3.87 4.19 4.19 0 0 0 0 5.06zm.27-10a2.73 2.73 0 0 0 2 .76 2.55 2.55 0 0 0 2.76-2.71 2.87 2.87 0 0 0 -4.8-2 2.72 2.72 0 0 0 -.73 2 2.66 2.66 0 0 0 .74 2z" fill="#fff"/><path d="m343.21 193.08a5 5 0 0 0 .42 2.18 2.91 2.91 0 0 0 2.85 1.58 3.13 3.13 0 0 0 2.21-.87 3.23 3.23 0 0 0 .95-2.5 2.84 2.84 0 0 0 -1.75-2.89 8.9 8.9 0 0 0 -3.14-.41v-3.08a8.2 8.2 0 0 0 2.93-.41 2.52 2.52 0 0 0 1.43-2.57 2.89 2.89 0 0 0 -.73-2 2.67 2.67 0 0 0 -2.06-.79 2.59 2.59 0 0 0 -2.24 1 4.12 4.12 0 0 0 -.69 2.59h-4a10.84 10.84 0 0 1 .56-3.1 6.9 6.9 0 0 1 1.66-2.38 5.75 5.75 0 0 1 2-1.18 8.72 8.72 0 0 1 2.85-.41 7.6 7.6 0 0 1 5.07 1.63 5.4 5.4 0 0 1 1.93 4.36 4.82 4.82 0 0 1 -1.16 3.17 3.94 3.94 0 0 1 -1.51 1.13 3.12 3.12 0 0 1 1.69 1 5.39 5.39 0 0 1 1.65 4.17 7 7 0 0 1 -1.93 4.89 7.31 7.31 0 0 1 -5.7 2.11q-4.65 0-6.47-3a9.08 9.08 0 0 1 -1-4.23z" fill="#fff"/><path d="m196.1 130.16a13.35 13.35 0 0 1 -1 5s-2.34 4.48-10.22 8.67a41.06 41.06 0 0 1 -8.48 3.12s-8.76 2.43-12.66-.78a8.32 8.32 0 0 1 1.46-5.07 32.67 32.67 0 0 1 6.24-7.21l2.14-2.14s11.42-3.75 22.52-1.59z" fill="#cfd2d3"/><g fill="#fff"><path d="m237.5 105.91s0 0 .07 0 0 0-.07 0"/><path d="m161.09 112.87a.15.15 0 0 0 -.07 0 .15.15 0 0 1 .07 0"/><path d="m213.46 126.14s0 0 0 0"/><path d="m256.06 148.16s.06 0 .1 0-.07 0-.1 0"/><path d="m111.09 199.55a.11.11 0 0 1 0-.07.09.09 0 0 0 0 .07"/><path d="m220.45 103.12a.1.1 0 0 1 0-.07.1.1 0 0 0 0 .07"/><path d="m237.5 105.91s0 0 .07 0 0 0-.07 0"/><path d="m231.63 112.2a.09.09 0 0 0 0-.07.09.09 0 0 1 0 .07"/><path d="m161.09 112.87a.15.15 0 0 0 -.07 0 .15.15 0 0 1 .07 0"/><path d="m113.89 114.93a.11.11 0 0 0 0 .07.11.11 0 0 1 0-.07"/><path d="m213.46 126.14s0 0 0 0"/><path d="m95.41 146.72s0 0 0 .07 0-.07 0-.07"/><path d="m254.62 147.42a.11.11 0 0 0 .07 0 .11.11 0 0 1 -.07 0"/><path d="m256.06 148.16s.06 0 .1 0-.07 0-.1 0"/><path d="m111.09 199.55a.11.11 0 0 1 0-.07.09.09 0 0 0 0 .07"/><path d="m108.3 204.06a.15.15 0 0 0 0-.07.15.15 0 0 1 0 .07"/><path d="m280.51 193.9c0 .57 0 1.14-.05 1.7.04-.6.05-1.13.05-1.7z"/><path d="m112.11 138.81a1.08 1.08 0 0 0 .35.65 1.08 1.08 0 0 1 -.35-.65z"/><path d="m280.55 181.84a11.82 11.82 0 0 1 -.39 1.71 11.82 11.82 0 0 0 .39-1.71z"/><path d="m279.28 167.21a8.16 8.16 0 0 0 -.66-.5 8.16 8.16 0 0 1 .66.5z"/><path d="m256.16 137.15c0-.22 0-.46 0-.7 0 .24.01.47 0 .7z"/><path d="m256.58 135a1.1 1.1 0 0 0 -.33.45 1.1 1.1 0 0 1 .33-.45z"/><path d="m126.13 102.44c.71.06 1.42.14 2.12.23-.7-.09-1.41-.17-2.12-.23z"/><path d="m276.35 164.39a6.21 6.21 0 0 0 .6 1 6.21 6.21 0 0 1 -.6-1z"/><path d="m272.48 135.67a1.33 1.33 0 0 1 -.63 0 1.33 1.33 0 0 0 .63 0z"/><path d="m251 209.72c.38.52.74 1.06 1.08 1.6-.36-.54-.74-1.08-1.08-1.6z"/><path d="m250.9 225.71-.09-.51v-.57.56z"/><path d="m248.32 187.73a14.67 14.67 0 0 1 -1.59.27 14.67 14.67 0 0 0 1.59-.27z"/><path d="m244.28 202a9.06 9.06 0 0 1 -1-1.06z"/><path d="m243.08 194.91-.59.24-.48.21a4.92 4.92 0 0 1 1.07-.45l.34-.16z"/><path d="m262.65 166.2c.78.49 1.55 1 2.34 1.48-.79-.51-1.56-.99-2.34-1.48z"/><path d="m261.29 146.44c-.53-.15-1.07-.3-1.6-.42.53.12 1.07.27 1.6.42z"/><path d="m240.16 137.92a10 10 0 0 1 -.89-1.27 10 10 0 0 0 .89 1.27z"/><path d="m233 122.79c-.17.35-.31.66-.49 1 .14-.34.28-.65.49-1z"/><path d="m248.91 152.77a2.9 2.9 0 0 1 -.11-1 2.9 2.9 0 0 0 .11 1z"/><path d="m236.18 167.68h.2z"/><path d="m225.67 219.3a5.7 5.7 0 0 1 -.36.69 5.7 5.7 0 0 0 .36-.69z"/><path d="m222.72 207.8c-.22.53-.46 1.06-.69 1.59.23-.54.47-1.06.69-1.59z"/><path d="m218.08 169.61c0-.43 0-.89-.06-1.35-.02.46.06.92.06 1.35z"/><path d="m229.05 117.2c0-.69-.11-1.38-.19-2.07.08.69.14 1.38.19 2.07z"/><path d="m215.6 123.77c-.09-.8-.2-1.59-.32-2.38.12.79.23 1.61.32 2.38z"/><path d="m200.68 146.69c-.19.65-.38 1.31-.6 1.95.22-.64.41-1.3.6-1.95z"/><path d="m170.89 152.27-1.1-1.56z"/><path d="m170.54 135c.28-.26.56-.51.86-.74l.33-.33-.33.33c-.3.22-.58.47-.86.74z"/><path d="m165.6 146.76a7.29 7.29 0 0 1 -1.15-.58 7.29 7.29 0 0 0 1.15.58z"/><path d="m164.24 164.26c-.37 0-.73-.13-1.1-.19.37.06.73.15 1.1.19z"/><path d="m163.55 163.2a7.38 7.38 0 0 1 .46.68 7.38 7.38 0 0 0 -.46-.68z"/><path d="m160.32 173.24a8.25 8.25 0 0 0 -.33 1.3 8.25 8.25 0 0 1 .33-1.3z"/><path d="m159.27 172.12c-.34-.31-.75-.62-1.08-1 .33.38.74.69 1.08 1z"/><path d="m159.29 173.23s0-.08 0-.13c-.28-.25-.58-.48-.87-.72.29.24.59.47.87.72-.03.04-.02.09 0 .13z"/><path d="m155.56 203c-.5-.3-1.06-.53-1.56-.84.5.31 1.06.54 1.56.84z"/><path d="m153.28 201.59a2.1 2.1 0 0 1 -.26-.33 11 11 0 0 1 -.73-1.18 11 11 0 0 0 .73 1.18 2.1 2.1 0 0 0 .26.33z"/><path d="m151.32 170.55a8.8 8.8 0 0 1 .86.25 8.8 8.8 0 0 0 -.86-.25z"/><path d="m155.82 118.84a6.58 6.58 0 0 0 -.25 1 6.58 6.58 0 0 1 .25-1z"/><path d="m147.83 174c.43.24.83.57 1.24.8-.41-.22-.81-.55-1.24-.8z"/><path d="m134.34 195.84-.18-.15a.22.22 0 0 1 .18.15z"/><path d="m112.77 172.89c-.17-.38-.38-.77-.56-1.15.18.38.39.77.56 1.15z"/><path d="m112 159.25c.26-.75.53-1.49.83-2.22-.32.73-.59 1.47-.83 2.22z"/><path d="m126.22 159.9c-.24-.42-.45-.84-.7-1.23.25.39.48.81.7 1.23z"/><path d="m117.31 145.78a11.38 11.38 0 0 0 -1.42.24 9.79 9.79 0 0 1 1.42-.24z"/><path d="m115.36 145.5a1.89 1.89 0 0 0 -.67.42 1.89 1.89 0 0 1 .67-.42z"/><path d="m112.37 145.9c.24-.26.51-.49.75-.71-.24.22-.51.45-.75.71z"/><path d="m102.64 158.25c.91-.07 1.85-.17 2.79-.24-.94.07-1.88.17-2.79.24z"/><path d="m105.37 158.4q-.11.58-.18 1.17.07-.57.18-1.17z"/><path d="m102.43 152.8c.8 0 1.61 0 2.42-.07-.85.05-1.62.08-2.42.07z"/><path d="m109.76 258.8a7.58 7.58 0 0 1 .11-1.15 7.58 7.58 0 0 0 -.11 1.15z"/><path d="m118.68 261.25a.78.78 0 0 0 .21-.52.76.76 0 0 1 -.21.52z"/><path d="m145.86 243.26c.56.38 1.1.78 1.64 1.19-.5-.4-1.08-.81-1.64-1.19z"/><path d="m144.39 241.35c1 .15 2 .32 3 .44-1-.12-2-.29-3-.44z"/><path d="m185.83 143.58c-.56.3-1.13.58-1.7.86.57-.28 1.14-.56 1.7-.86z"/><path d="m234.9 241.1a2.14 2.14 0 0 1 .47.2 2.14 2.14 0 0 0 -.47-.2z"/><path d="m237.61 218.57a13.93 13.93 0 0 0 -.08 1.58 13.93 13.93 0 0 1 .08-1.58z"/><path d="m231 241.38 1.58-.25z"/><path d="m228.42 245.46c-.11-.31-.25-.66-.35-1 .1.34.24.68.35 1z"/><path d="m227.55 243.08c-.26.29-.5.57-.74.86l.73-.86z"/><path d="m265.81 265.08a1.08 1.08 0 0 0 .59.47 1 1 0 0 1 -.59-.47z"/><path d="m280.41 225.78h-.11a2.28 2.28 0 0 1 -.63.09 2.28 2.28 0 0 0 .63-.09z"/><path d="m284.23 213a1.59 1.59 0 0 1 .58-.5 1.59 1.59 0 0 0 -.58.5z"/><path d="m255.43 159v.34z"/><path d="m87.27 201.86h.51c-.17-.02-.34-.02-.51 0z"/><path d="m273 158.25-.75-.06.74.06z"/><path d="m260.25 139.09c-.05-.08-.1-.15-.14-.23.04.08.09.14.14.23z"/><path d="m220 161.45h.27z"/><path d="m221.79 215.16c0 .16.05.32.06.43-.02-.11-.04-.27-.06-.43z"/><path d="m234.08 143.05.8.32-.8-.31z"/><path d="m157.57 168.12c0-.11 0-.23 0-.34z"/><path d="m150.2 142.68-.64-.11z"/><path d="m119.18 209.27a5.51 5.51 0 0 1 .06-.57 5.51 5.51 0 0 0 -.06.57z"/><path d="m104.88 152.73c-.15.18-.31.34-.46.51.15-.17.31-.33.46-.51z"/><path d="m104.73 215.22c.07-.26.13-.52.19-.79-.06.27-.12.57-.19.79z"/><path d="m276.05 230.89h-.05z"/><path d="m256.58 261c.06-.18.13-.36.2-.54-.07.18-.14.36-.2.54"/><path d="m112.57 249.19c0-.07 0-.14 0-.21s0 .14 0 .21"/><path d="m95.46 197.78-.06-.2z"/><path d="m95.14 195.68a1.36 1.36 0 0 0 0-.2 1.36 1.36 0 0 1 0 .2"/><path d="m93.89 202.33v-.01z"/><path d="m110.69 231.07a.84.84 0 0 0 0-.17.84.84 0 0 1 0 .17"/><path d="m108.58 224.12-.14-.18z"/><path d="m109 167.94a.64.64 0 0 0 -.06-.18.64.64 0 0 1 .06.18"/><path d="m118.73 162.81c-.08-.19-.16-.38-.23-.57.07.19.15.38.23.57"/><path d="m119.41 162c0-.11.09-.23.14-.34 0 .11-.09.23-.14.34"/><path d="m116.1 149.24a2.14 2.14 0 0 0 .08.32 2.14 2.14 0 0 1 -.08-.32"/><path d="m116.29 149.82.06.13z"/><path d="m115.5 138.86h.41z"/><path d="m105.08 160.59a2.1 2.1 0 0 0 .22-.3 2.1 2.1 0 0 1 -.22.3z"/><path d="m109.58 161.69v.17z"/><path d="m109.45 162.9s0 .08 0 .12 0-.08 0-.12"/><path d="m207 138.2.24.1z"/><path d="m237.05 107.77c.21-.09.43-.17.64-.24-.21.07-.43.15-.64.24z"/><path d="m239.72 136h-.05z"/><path d="m238.69 135.51a1.3 1.3 0 0 0 .08.17 1.3 1.3 0 0 1 -.08-.17"/><path d="m227.3 137.74.4-.33z"/><path d="m223.39 131.94.36-.64z"/><path d="m273.07 146.06c.06.1.13.19.19.28-.06-.09-.13-.18-.19-.28"/><path d="m275.31 141.9h.11z"/><path d="m273.38 140.58a2.41 2.41 0 0 1 -.38 0 2.41 2.41 0 0 0 .38 0"/><path d="m249.35 159.9.18.16z"/><path d="m263.43 137.57.16.05z"/><path d="m267.16 139.18-1.16-.57z"/><path d="m264.82 156.3c.07.26.13.52.2.78-.07-.26-.13-.52-.2-.78z"/><path d="m257.17 162.2.08.07z"/><path d="m259.47 164.27a4.32 4.32 0 0 0 -.21.38 4.32 4.32 0 0 1 .21-.38"/><path d="m259.55 164.12.12.09z"/><path d="m260.21 158.67c.12.35.25.71.38 1.06-.13-.35-.26-.71-.38-1.06"/><path d="m249.49 159.66.4-.68z"/><path d="m262.93 172.69-.1.2z"/><path d="m264.73 169.06c-.09.21-.19.41-.29.61.1-.2.2-.4.29-.61"/><path d="m266.12 165v.3c0-.1 0-.2 0-.3"/><path d="m268 155.35.15.31z"/><path d="m271.11 153.14-.42-.44z"/><path d="m270.14 158 .78.07z"/><path d="m269.54 148.09.38.25z"/><path d="m247.29 161.5.23.16z"/><path d="m256.26 208.74a3.94 3.94 0 0 1 .1.47 3.94 3.94 0 0 0 -.1-.47z"/><path d="m140.23 241.3.15-.08z"/><path d="m125.76 187.19c.22.08.45.15.67.24-.22-.09-.45-.16-.67-.24"/><path d="m130.27 187.81a1.5 1.5 0 0 0 0 .24 1.5 1.5 0 0 1 0-.24"/><path d="m124.3 186.62s-.09 0-.14-.07.1 0 .14.07"/><path d="m125.94 233c0-.14 0-.28 0-.42z"/><path d="m156.29 169c-.24-.18-.49-.35-.75-.52.26.17.51.34.75.52"/><path d="m229.33 173.84c0 .06 0 .13.08.2s0-.14-.08-.2"/><path d="m215.68 170.4-.12-.06z"/><path d="m193.85 130.09 1.84.17z"/><path d="m195.56 132.71a.38.38 0 0 1 0 .1.38.38 0 0 0 0-.1"/><path d="m161.62 164.44v-.17z"/><path d="m161.86 171.53-.6.64z"/><path d="m161.15 170.59a.5.5 0 0 1 0 .12.5.5 0 0 0 0-.12"/><path d="m161.18 170.3a2.11 2.11 0 0 1 0 .25 2.11 2.11 0 0 0 0-.25"/><path d="m160.14 171.29c.06.29.11.58.18.87-.07-.29-.12-.58-.18-.87"/><path d="m222 208.28a3.62 3.62 0 0 1 .32-.22 3.62 3.62 0 0 0 -.32.22"/><path d="m160.12 171.21-.15-.83z"/><path d="m156.84 170.29c0 .16.08.32.13.47-.05-.15-.09-.31-.13-.47"/><path d="m153.9 202.12-.2-.15z"/><path d="m153.57 201.88-.17-.17z"/><path d="m153.93 167.34.15.11z"/><path d="m152.88 207.8.49 1.12z"/><path d="m153.86 214.57.25.21z"/><path d="m155.56 212.16c0 .11.07.21.1.31 0-.1-.07-.2-.1-.31"/><path d="m208.19 139.74h.21z"/><path d="m204.35 149.83.76.38z"/><path d="m196.69 130.27h.17z"/><path d="m203.38 130.61 1.49.29z"/><path d="m164.42 146.16h-.01z"/><path d="m163.92 145.57.09.16z"/><path d="m163.12 145.66v.13s0-.08 0-.13"/><path d="m163.12 145.65c0-.1 0-.21 0-.31z"/><path d="m163.17 143.45a1.39 1.39 0 0 1 .06.13 1.39 1.39 0 0 0 -.06-.13"/><path d="m159.33 171.62v.26z"/><path d="m153.76 215.32v.27s0-.17 0-.27"/><path d="m156 214.15v.2s0-.13 0-.2"/><path d="m226.18 217.15a.81.81 0 0 1 0 .16.81.81 0 0 0 0-.16"/><path d="m226.15 217.47v.31c0-.1 0-.21 0-.31"/><path d="m226.08 218a2.3 2.3 0 0 1 -.06.28 2.3 2.3 0 0 0 .06-.28"/><path d="m225.78 219v.1z"/><path d="m225.76 210.45.2.41z"/><path d="m224.56 212.84.12-.17z"/><path d="m224.86 212.35.22-.39z"/><path d="m214.31 137.2.06-.09z"/><path d="m214.45 137c.09-.15.17-.31.25-.47-.08.16-.16.32-.25.47"/><path d="m127 160.28v.05z"/><path d="m125.66 236.71-.06-.07z"/><path d="m141 244.62a2.52 2.52 0 0 0 .17.41 2.52 2.52 0 0 1 -.17-.41"/><path d="m136.32 235.68c0-.32 0-.64 0-1z"/><path d="m132.08 201.22-.31.32z"/><path d="m135.67 199.57a3.71 3.71 0 0 1 -.16-.47 3.71 3.71 0 0 0 .16.47"/><path d="m135.48 199c0-.15-.08-.31-.11-.46 0 .15.07.31.11.46"/><path d="m141.56 202.62a1.5 1.5 0 0 0 -.25-.19 1.5 1.5 0 0 1 .25.19"/><path d="m148.34 216.78-.34-.32z"/><path d="m226.25 219.21.56-.46z"/><path d="m236.44 202.06a1.83 1.83 0 0 1 -.06.25 1.83 1.83 0 0 0 .06-.25"/><path d="m240.92 196.19v.05z"/><path d="m228.3 241.84h-.09z"/><path d="m228.19 241.71c0-.1 0-.21 0-.31z"/><path d="m232.62 249.42c-.07-.15-.18-.39-.27-.6.09.21.2.45.27.6"/><path d="m276.24 176.17h-.1.08-.08z"/><path d="m281.82 202.49.23.33z"/><path d="m270.12 212.56c-.05-.13-.1-.27-.16-.4.06.13.11.27.16.4"/><path d="m259.76 133.83.7-.07z"/><path d="m256.18 135.73a2 2 0 0 1 .06-.23 2 2 0 0 0 -.06.23"/><path d="m255.54 137.67-.29-.2z"/><path d="m250.67 139.56a.75.75 0 0 1 0-.16.75.75 0 0 0 0 .16z"/><path d="m250.25 140.25a4.38 4.38 0 0 1 .11.57l.06.31-.06-.31a4.38 4.38 0 0 0 -.11-.57"/><path d="m233.24 151.86c0-.07.08-.14.13-.22-.05.08-.08.15-.13.22"/><path d="m114.87 126 .38-.14z"/><path d="m137.44 135.37a.41.41 0 0 0 .05.09.41.41 0 0 1 -.05-.09"/><path d="m134.21 137.34a.11.11 0 0 1 0 0 .11.11 0 0 0 0 0"/><path d="m119.41 136.85a1.57 1.57 0 0 0 0-.23 1.57 1.57 0 0 1 0 .23"/><path d="m95.4 134.17h-.41z"/><path d="m100.18 141.92-1.34.25z"/><path d="m95.81 142.24s0 0 0 0"/><path d="m96.63 147.39.61-.11z"/><path d="m99.77 152.66.64.05z"/><path d="m95.71 168.11v-.1z"/><path d="m93.3 167.34-.08-.12z"/><path d="m89.13 164.29v.12z"/><path d="m95 180.78s0 0 0 .05 0 0 0-.05"/><path d="m86.29 212.79h.21z"/><path d="m104.14 246.42c0 .1.07.2.09.3 0-.1-.06-.2-.09-.3"/><path d="m109.63 265.21a3 3 0 0 0 .24-.22 3 3 0 0 1 -.24.22"/><path d="m260 262.57c0 .2-.09.4-.13.6 0-.2.08-.4.13-.6"/><path d="m260.44 264 .33-.23z"/><path d="m265.53 258.15a5.05 5.05 0 0 1 .24-.53 5.05 5.05 0 0 0 -.24.53"/><path d="m285 224a1.62 1.62 0 0 0 0-.22 1.62 1.62 0 0 1 0 .22"/><path d="m284.92 222.31c0 .18 0 .36.06.55 0-.19 0-.37-.06-.55"/><path d="m225.69 241.72-.1.07a1 1 0 0 1 .21-.1z"/><path d="m255.74 259.3s0 0 0-.07 0 .07 0 .07"/></g><path d="m119.9 103.12c2.65-1.05 5.59-.8 8.35-.45a17.31 17.31 0 0 1 10.66 5.1c-2.45-1-5.42-1.47-7.8-.07-1.67 1-1.81 3.21-1.78 5 .07 4.09.39 8.56-1.92 12.2-2.34-1.26-3.84-3.5-5.14-5.73a12.61 12.61 0 0 1 -7.4 6.88c-.46-2.9-1.05-5.84-.67-8.77a7.36 7.36 0 0 1 2-4.19c1.18-1.3 2.79-2.13 3.87-3.57-1.32.18-2.58.67-3.91.81a6 6 0 0 1 -3.74-1.47c2.94-1.33 4.51-4.47 7.48-5.73" fill="#194f90" fill-rule="evenodd"/><path d="m237.05 107.77a17.81 17.81 0 0 1 11.21-5.17c3.08-.39 6.47-.53 9.16 1.25 2.2 1.5 3.67 3.88 6.15 5a6 6 0 0 1 -3.81 1.47c-1.33-.14-2.59-.63-3.88-.77 1.15 1.43 2.83 2.3 4.05 3.7a7.39 7.39 0 0 1 1.89 5 23.55 23.55 0 0 1 -.91 7.83 13.84 13.84 0 0 1 -7.23-6.92c-.49.7-.91 1.43-1.33 2.17a16.11 16.11 0 0 1 -3.63 3.6c-2.38-3.22-2.13-7.45-2-11.22.07-2.2 0-5-2.13-6.18-2.38-1.23-5.21-.74-7.58.21" fill="#194f90" fill-rule="evenodd"/><path d="m220.45 103.12a.1.1 0 0 1 0-.07.1.1 0 0 0 0 .07" fill="#0860aa" fill-rule="evenodd"/><path d="m220.45 119.68c-1.64-5.07-1.81-11.07 1.12-15.72 1.15 4.43 3 8.63 4 13.1a10 10 0 0 1 3-5.2c.17 1.78.45 3.56.56 5.34a51.19 51.19 0 0 0 -4.13 11.32 14.72 14.72 0 0 1 -1.57 3.43c1.6-1.68 2.34-3.92 3.07-6.08 1-3 1.89-6.16 3.74-8.81s3-5.62 5.59-7.37a8.17 8.17 0 0 1 8-1.68c.55.25 1.46.67 1.18 1.43-.48 1-1.18 1.86-1.64 2.87a143.25 143.25 0 0 1 -9.5 18.17 28.93 28.93 0 0 1 -6.57 7.26c4.61-1.92 6.78-7.05 11.29-9.22a7.66 7.66 0 0 1 3.07-.66c.24 2.86.59 6-.94 8.63a22.28 22.28 0 0 0 -2-1 9.33 9.33 0 0 0 1.47 2.41 27.64 27.64 0 0 1 4 7.06c-3.46.38-6.88-.63-10.06-1.93a10.66 10.66 0 0 1 -.84 8.81c-1.47-1.68-3.28-3.07-4.72-4.79a12.53 12.53 0 0 1 -2.13-4.5c-5.66 1.11-11.49 0-17-1.58-.66-.07-.87-.8-1.22-1.25 1.33.13 2.65.59 3.95.1 2.27-.67 3.49-2.93 4-5.1.76-3.64.17-7.37-.49-11a53.4 53.4 0 0 0 -2.06-10.1 19.15 19.15 0 0 1 6.91 6z" fill="#ffc557" fill-rule="evenodd"/><path d="m155.57 119.68a19.06 19.06 0 0 1 6.91-6 28.26 28.26 0 0 0 -1.71 10.22c.28 4.2.45 7.67-.59 11 0 .07 3.74 5 3.7 5-1.11-.82-1.35.23 0 .1-.35.45-.65 2.29-1.32 2.37-5.48 1.57-7.25 1.37-12.91.26a12.53 12.53 0 0 1 -2.13 4.5c-1.44 1.72-3.31 3.33-4.78 5a10.72 10.72 0 0 1 -1-8.82 20.75 20.75 0 0 1 -10 1.79 28.68 28.68 0 0 1 4.16-7.13 9.33 9.33 0 0 0 1.47-2.41 23.71 23.71 0 0 0 -2.11 1.13c-1.54-2.62-1.3-6-1.05-8.85a8.9 8.9 0 0 1 3.26.73c4.51 2.17 6.59 7.41 11.2 9.33a29.39 29.39 0 0 1 -6.62-7.36 142.08 142.08 0 0 1 -9.46-18.15c-.46-1-1.27-2-1.76-3-.28-.77.84-1.09 1.4-1.34a8.17 8.17 0 0 1 8 1.68c2.62 1.75 3.88 4.78 5.59 7.37s2.72 5.8 3.74 8.81c.73 2.16 1.22 4 2.83 5.72a11.82 11.82 0 0 1 -1.48-3.11 52.25 52.25 0 0 0 -4.07-11.33c.1-1.78.39-3.66.56-5.44a9.72 9.72 0 0 1 3 5.08c1-4.48 2.86-8.54 4-13 2.94 4.64 2.75 10.79 1.11 15.86z" fill="#ffc557" fill-rule="evenodd"/><path d="m219.37 105.22s0 0 0 0" fill="#0860aa" fill-rule="evenodd"/><path d="m138.31 105.81s0 0 0 0" fill="#0860aa" fill-rule="evenodd"/><path d="m237.5 105.91s0 0 .07 0 0 0-.07 0" fill="#0860aa" fill-rule="evenodd"/><path d="m213.08 111.82s0 0 .07 0 0 0-.07 0" fill="#0860aa" fill-rule="evenodd"/><path d="m231.63 112.2a.09.09 0 0 0 0-.07.09.09 0 0 1 0 .07" fill="#0860aa" fill-rule="evenodd"/><path d="m161 112.9a.15.15 0 0 1 .07 0 .15.15 0 0 0 -.07 0" fill="#0860aa" fill-rule="evenodd"/><path d="m131.67 113.53a0 0 0 0 1 0 0 0 0 0 0 0 0 0" fill="#0860aa" fill-rule="evenodd"/><path d="m230.17 114.23h.1s-.07.08-.07.11z" fill="#cfd2d3" fill-rule="evenodd"/><path d="m113.86 115a.11.11 0 0 1 0-.07.11.11 0 0 0 0 .07" fill="#0860aa" fill-rule="evenodd"/><path d="m243.13 116.05a.11.11 0 0 1 0-.07.11.11 0 0 0 0 .07" fill="#0860aa" fill-rule="evenodd"/><path d="m242.78 116.74a.09.09 0 0 0 0-.06.12.12 0 0 1 0 .06" fill="#0860aa" fill-rule="evenodd"/><path d="m242.46 117.44s0-.06 0-.06 0 0 0 .06" fill="#0860aa" fill-rule="evenodd"/><path d="m242.11 118.14s0 0 0-.07 0 .07 0 .07" fill="#0860aa" fill-rule="evenodd"/><path d="m134.82 120.2.03.04z" fill="#0860aa" fill-rule="evenodd"/><path d="m252.91 122s0 0 0-.07 0 .07 0 .07" fill="#0860aa" fill-rule="evenodd"/><path d="m135.9 122.27s0 .07 0 .07 0 0 0-.07" fill="#0860aa" fill-rule="evenodd"/><path d="m136.25 123a.12.12 0 0 1 0 .08.11.11 0 0 0 0-.08" fill="#0860aa" fill-rule="evenodd"/><path d="m128.88 124.05a.15.15 0 0 0 0-.07.15.15 0 0 1 0 .07" fill="#0860aa" fill-rule="evenodd"/><path d="m213.85 125.51a.14.14 0 0 1 0-.1.14.14 0 0 0 0 .1" fill="#0860aa" fill-rule="evenodd"/><path d="m117 126.14a.11.11 0 0 1 .07 0 .11.11 0 0 0 -.07 0" fill="#0860aa" fill-rule="evenodd"/><path d="m213.46 126.14s0 0 0 0" fill="#0860aa" fill-rule="evenodd"/><path d="m210 132.08a17.38 17.38 0 0 0 5.13-6.25 19.54 19.54 0 0 1 0 9.43c-.49 1.68-1.58 3.43-3.36 3.92s-3.35-.32-4.85-1a28.52 28.52 0 0 1 1.74 4.89c.42 2.48-.24 5-.7 7.37a14.12 14.12 0 0 1 -7.51-5c-.77 1.71-.84 3.88-2.34 5.14-1.22.66-2.72 1.43-4.09.84a2.34 2.34 0 0 1 -.21-4c1.4-1 2.87-2.27 2.8-4.16-.94 1.5-2.06 3.39-4 3.67-2.58.07-4-2.69-4.16-4.93 2.69-1.92 5.42-4 7-7 .84-1.46.91-3.18 1.22-4.78 2.62.38 5.28.8 7.87 1.32 1 .18 1.36 1.44 2.41 1.51a4.68 4.68 0 0 0 3-1" fill="#194f90" fill-rule="evenodd"/><path d="m116.3 126.49a.11.11 0 0 0 .07 0 .11.11 0 0 1 -.07 0" fill="#0860aa" fill-rule="evenodd"/><path d="m138.35 126.81s0 .07 0 .1 0-.07 0-.1" fill="#0860aa" fill-rule="evenodd"/><path d="m137.54 127.19a.34.34 0 0 0 .18.07h-.11z" fill="#0860aa" fill-rule="evenodd"/><path d="m238.2 127.26h.18-.07z" fill="#0860aa" fill-rule="evenodd"/><path d="m162.7 127.26c1.54 2.34 3.07 5.17 6 5.87 1.85.45 3.39-.84 4.64-2a4.11 4.11 0 0 1 -1.46 1.64 31.64 31.64 0 0 0 -8.14 10.14 10 10 0 0 1 -2.87-6.12 19.21 19.21 0 0 1 1.82-9.54" fill="#194f90" fill-rule="evenodd"/><path d="m167.59 131.77.14.1h-.07z" fill="#0860aa" fill-rule="evenodd"/><path d="m103.48 135.68a26.94 26.94 0 0 1 12.3-1.85 5.57 5.57 0 0 1 3.07 1 2.08 2.08 0 0 1 .46 2.34 5.2 5.2 0 0 1 -3.43.94c-1.12-.59-2.2-1.53-3.53-1.22a7.47 7.47 0 0 0 -3.95 2.31 24.52 24.52 0 0 1 3.78-1.61c0 .63-.28 1.4.28 1.89a1.91 1.91 0 0 0 3-.6 6.81 6.81 0 0 0 4.82-1.4c1.47.14 3-.35 4.47.14s.56 2.21.45 3.29c-.28 1.26 0 3-1.43 3.63-2.65 1.19-5.73 0-8.45 1a3.64 3.64 0 0 0 -1.3 1.05 15.08 15.08 0 0 1 3.25-.77 6.34 6.34 0 0 0 -1.25 2.9 2.62 2.62 0 0 0 2 2.59 9.49 9.49 0 0 0 5.52-.74c.87-.28 2-.84 2.76-.14.94 1.36.28 3.18-.46 4.47-.38.81-1.32.84-2.06 1a9.47 9.47 0 0 1 -4.33.21c-2.34-.94-4-3-6.25-4.09a6.57 6.57 0 0 0 -3.64-.28c3.15.25 5.45 2.55 7.93 4.27 2.14 1.67 5 1 7.48.42.07.24.28.76.38 1-1.25 1.54-3.39 1.82-5.24 1.54a8.42 8.42 0 0 1 -.73 3c-.38-1.19-.7-2.41-1.08-3.6-.6 1.53-1 3.11-1.68 4.61a27.26 27.26 0 0 1 -1.29-4.33 30.54 30.54 0 0 1 -3.15 7c.07-2.9.35-5.8.6-8.7-1 2.58-1.82 5.28-2.66 7.93a3 3 0 0 1 -.56 1c-.59-3.25.42-6.5 1.16-9.61a5.27 5.27 0 0 0 -1 1.57 42.15 42.15 0 0 0 -2.59 6.85c-1.4-3 .39-6.11.49-9.15-1 1.57-1.29 3.53-2.51 5a20.72 20.72 0 0 1 .34-2.58c-.94.07-1.88.17-2.79.24a15 15 0 0 0 2.79-2.83 21.5 21.5 0 0 1 -4.26.67 26.42 26.42 0 0 0 3.71-3.36 30 30 0 0 1 -5.11-.07c1.79-1.88 4.13-3.07 6.22-4.57-2.16.17-4.22 1-6.36 1.5a21.79 21.79 0 0 0 2.9-3.53c-2 .28-3.91 1-5.9 1.33 1.08-1.93 2.76-3.46 3.67-5.49a16.52 16.52 0 0 1 -4.37.49c-.49-.42 0-1 .28-1.5.52-.74 1.43-1.68 2.45-1.33a15.85 15.85 0 0 0 3.94 1.12c-2.65-2.06-5.13-4.3-7.61-6.53 2.9.1 5.66 1 8.49 1.53zm-4.79.21c1 .91 2.1 1.71 3.15 2.55.21-.52.45-1 .66-1.53-1.26-.32-2.55-.67-3.81-1m24 3.71a4.71 4.71 0 0 0 2.3 0 1.32 1.32 0 0 0 -2.3 0m-10.86 7.38c-.07.8.94 1.05 1.5 1.33a5.16 5.16 0 0 1 -.73-1.37c.14-.59.35-1.15.52-1.74a3.12 3.12 0 0 0 -1.29 1.78" fill="#cfd2d3" fill-rule="evenodd"/><path d="m256.58 135c1-1.05 2.55-1.12 3.88-1.26a26.42 26.42 0 0 1 10.79 1.64 2.17 2.17 0 0 0 1.33.25 48.1 48.1 0 0 1 8-1.54 69.19 69.19 0 0 1 -7.58 6.46c1.64.18 3-.94 4.58-1.08a3.08 3.08 0 0 1 2.23 3 24 24 0 0 1 -4.5-.56c.83 2.06 2.62 3.5 3.6 5.49-2-.35-3.88-1-5.84-1.33a21.17 21.17 0 0 0 2.9 3.49c-2.17-.38-4.19-1.32-6.43-1.46a47.87 47.87 0 0 1 6.33 4.54 25.63 25.63 0 0 1 -5.18.07c1.09 1.25 2.38 2.23 3.57 3.35a22.92 22.92 0 0 1 -4.12-.63 14.87 14.87 0 0 0 2.83 2.83c-1-.07-1.89-.17-2.83-.24a13.07 13.07 0 0 1 .34 2.62c-1.18-1.57-1.6-3.53-2.51-5.28 0 3.15 2 6.33.49 9.37a35.06 35.06 0 0 0 -1.47-4.37 14.5 14.5 0 0 0 -2.17-4c.77 3.14 1.82 6.39 1.16 9.64a5.37 5.37 0 0 1 -.7-1.47c-.73-2.48-1.54-5-2.48-7.44.21 2.9.56 5.77.56 8.63a31.44 31.44 0 0 1 -3.15-7c-.31 1.47-.73 2.94-1.15 4.4a27.2 27.2 0 0 1 -1.75-4.64 25.64 25.64 0 0 0 -1.08 3.6 7.58 7.58 0 0 1 -.8-3c-1.82.28-4 0-5.18-1.51.08-.28.25-.8.32-1a13.13 13.13 0 0 0 5.9.42c2.34-1 4.06-3 6.29-4.13a10.44 10.44 0 0 1 3.22-1 6.31 6.31 0 0 0 -3.39.21c-2.41 1-4.09 3.18-6.5 4.16a11.1 11.1 0 0 1 -5.14-.42c-1.36-.21-1.71-1.74-2-2.86s-.07-2.94 1.4-2.8c2 .42 3.84 1.54 6 1.37a2.92 2.92 0 0 0 3.21-2.35c.21-1.25-.63-2.27-1.22-3.24a14.6 14.6 0 0 1 3.25.69c-1.15-1.5-3.21-1.46-5-1.43s-3.56.18-5.07-.73c-1.18-.74-.87-2.34-1.15-3.53s-.84-2.59.42-3.22c1.43-.49 3 0 4.47-.13a6.89 6.89 0 0 0 4.86 1.39 1.89 1.89 0 0 0 3 .6c.56-.46.32-1.26.32-1.89a23.3 23.3 0 0 1 3.74 1.61 7.1 7.1 0 0 0 -4-2.31c-1.33-.28-2.34.7-3.46 1.22a6.29 6.29 0 0 1 -3.53-.94c0-.73-.21-1.61.42-2.13zm16.52 1.89c.21.48.42 1 .67 1.5a35 35 0 0 0 3.11-2.52c-1.26.37-2.52.72-3.78 1.04zm-22.43 2.65a4 4 0 0 0 2.21 0c-.28-.88-2.14-1-2.21 0zm11.92 5.66c.1.59.28 1.15.38 1.75-.07.52-.49.87-.73 1.32a3.66 3.66 0 0 0 1.43-.83c.35-1-.52-1.64-1.08-2.24" fill="#cfd2d3" fill-rule="evenodd"/><path d="m98.69 135.89c1.26.35 2.55.7 3.81 1-.21.52-.45 1-.67 1.53-1-.84-2.16-1.64-3.14-2.55" fill="#00205c" fill-rule="evenodd"/><path d="m273.1 136.9c1.26-.31 2.52-.66 3.78-1a35 35 0 0 1 -3.11 2.52c-.25-.49-.46-1-.67-1.51" fill="#00205c" fill-rule="evenodd"/><path d="m133.8 136.59a.11.11 0 0 1 0 .07.11.11 0 0 0 0-.07" fill="#0860aa" fill-rule="evenodd"/><path d="m134.19 137.25s0 .11 0 .15 0-.11 0-.15" fill="#0860aa" fill-rule="evenodd"/><path d="m122.73 139.6a1.32 1.32 0 0 1 2.3 0 4.71 4.71 0 0 1 -2.3 0" fill="#00205c" fill-rule="evenodd"/><path d="m250.67 139.56c.07-.94 1.93-.84 2.2 0a3.92 3.92 0 0 1 -2.2 0" fill="#00205c" fill-rule="evenodd"/><path d="m243.83 141.17s0 0 0 .07 0-.07 0-.07" fill="#0860aa" fill-rule="evenodd"/><path d="m131.74 141.9s0 0 0-.07 0 0 0 .07" fill="#0860aa" fill-rule="evenodd"/><path d="m244.18 141.83a.08.08 0 0 1 .07.07.08.08 0 0 0 -.07-.07" fill="#0860aa" fill-rule="evenodd"/><path d="m209.24 141.8a46.08 46.08 0 0 0 10.2 1.95c2 3.25 4.58 6.22 5.52 10-1.78.14-3.53-.17-5.28 0a1.09 1.09 0 0 0 -1 1.25 44.61 44.61 0 0 0 .73 5.77c-.63.21-1.26.59-1.92.24-1.89-.66-4-1-5.45-2.58a37.43 37.43 0 0 1 -3.64 3.81 53.79 53.79 0 0 0 -4-12.34 44.54 44.54 0 0 0 4.19 1.82c.7-3.22 1.61-6.6.7-9.85" fill="#ffc557" fill-rule="evenodd"/><path d="m156.58 143.72c2.14 0 4.2-.74 6.33-.56.94.7-.14 2.13.35 3.07a7.09 7.09 0 0 0 3.32 1.68c.52.14.73.67 1 1.05 1.68 2.44 3.42 4.82 5.07 7.3-1 2.59-2.1 5.14-3.15 7.69a52.31 52.31 0 0 1 -5.55-5.59c-1.51 1.6-3.78 1.95-5.77 2.69-.52.28-1.08-.07-1.61-.18a40.7 40.7 0 0 0 .74-6.18 1.05 1.05 0 0 0 -1.09-1c-1.74-.14-3.45.17-5.2 0a12.43 12.43 0 0 1 1.47-3.63c1.29-2.17 2.65-4.26 4.08-6.36" fill="#ffc557" fill-rule="evenodd"/><path d="m181.15 145.74a45.16 45.16 0 0 0 4.68-2.16c.92-.53 1.81-1.71 2.16-1.22.33 1.79.76 2.4.81 3.14a4.39 4.39 0 0 0 3.67 2.17 3.55 3.55 0 0 0 .77 4.29 45.3 45.3 0 0 0 -5.84 4.72c-1.05.94-1.61 2.34-2.76 3.22a31.88 31.88 0 0 1 -6 3.45c-3-4.19-5.87-8.45-8.84-12.64-3.69-3.49-1.57-3.35 3.5-2.76a50.55 50.55 0 0 0 5-1.23 6.75 6.75 0 0 1 2.9-1" fill="#cfd2d3" fill-rule="evenodd"/><path d="m249.42 143.89s0 .07 0 .07 0 0 0-.07" fill="#0860aa" fill-rule="evenodd"/><path d="m111.83 147c.1-.81.77-1.29 1.29-1.78-.17.59-.38 1.15-.52 1.74a5.16 5.16 0 0 0 .73 1.37c-.56-.28-1.57-.53-1.5-1.33" fill="#00205c" fill-rule="evenodd"/><path d="m262.59 145.22c.56.59 1.43 1.29 1.08 2.24a3.66 3.66 0 0 1 -1.43.83c.24-.45.66-.8.73-1.32-.1-.6-.28-1.15-.38-1.75" fill="#00205c" fill-rule="evenodd"/><path d="m95.37 146.79s0-.07 0-.07 0 0 0 .07" fill="#0860aa" fill-rule="evenodd"/><path d="m200.68 146.69c.87 1.32 2.62 1.95 3 3.6 1.95 5.2 4.47 10.51 4.08 16.21-.24 2.09-.38 4.58-2.2 6 .46-1.85.49-4-.77-5.55-1.64-2-4.47-2.34-6.91-2.17-3.64.28-6.33 3.11-8.56 5.73-3.25 3.91-6.54 8.11-11.25 10.31-3.11-4.37-5.38-9.54-5.49-15a25.33 25.33 0 0 1 1.19-7.93c1.54 2.13 3 4.3 4.54 6.43a31.57 31.57 0 0 0 6.81-3.88c1.16-.87 1.75-2.24 2.76-3.22a40.63 40.63 0 0 1 6.15-4.89 6 6 0 0 0 4.58-1.15 10.54 10.54 0 0 0 2-4.47" fill="#cfd2d3" fill-rule="evenodd"/><path d="m254.62 147.42a.11.11 0 0 0 .07 0 .11.11 0 0 1 -.07 0" fill="#0860aa" fill-rule="evenodd"/><path d="m256.06 148.16s.06 0 .1 0-.07 0-.1 0" fill="#0860aa" fill-rule="evenodd"/><path d="m224.61 150.22a.09.09 0 0 1 0 .07.09.09 0 0 0 0-.07" fill="#0860aa" fill-rule="evenodd"/><path d="m225 150.91a.16.16 0 0 1 0 .08s0-.07 0-.08" fill="#0860aa" fill-rule="evenodd"/><path d="m125.52 158.67c.25.39.46.81.7 1.23a91.51 91.51 0 0 1 -14.32 11.1 17.44 17.44 0 0 1 -1.57-3.11 3.91 3.91 0 0 1 1.92-.77c.94-1.29 2.48-2 3.74-2.93l.69.91c.46-1 .77-2.24 1.82-2.83.14.38.32.76.46 1.11.38.51 0 .08.38 1 .87-1.26 1.12-2.8 1.75-4.16a7.41 7.41 0 0 1 2.37-.49c.24-.38 0 0 .84-.35 0 0 1.13-.58 1.22-.63" fill="#e1251b" fill-rule="evenodd"/><path d="m250.08 158.67a11.5 11.5 0 0 0 4 1.29c.49 0 .6.57.7.91a17.54 17.54 0 0 0 1.37 3.43l.31-.6c.21-.49.42-1 .66-1.5a7.23 7.23 0 0 1 1.82 2.94l.56-1c2 1.43 3.79 2.49 5.73 3.74-.46 1-.94 2.06-1.47 3.08a28 28 0 0 1 -4.37-2.76 117.74 117.74 0 0 1 -10.09-8.28c.29-.44.53-.83.78-1.25z" fill="#e1251b" fill-rule="evenodd"/><path d="m99 160.07s-.07-.1-.11-.14z" fill="#0860aa" fill-rule="evenodd"/><path d="m285.75 160.42a0 0 0 0 1 0 0 0 0 0 0 0 0 0" fill="#0860aa" fill-rule="evenodd"/><path d="m119.9 166.43a78.81 78.81 0 0 0 7.13-6.15 10.29 10.29 0 0 1 1.25 1.22c-5.38 3.49-10.2 7.79-15.51 11.39-.17-.38-.38-.77-.56-1.15a60.73 60.73 0 0 0 7.69-5.31" fill="#e1251b" fill-rule="evenodd"/><path d="m247.29 161.5c.41-.42.83-.84 1.25-1.22a96.48 96.48 0 0 0 8.14 6.92 56 56 0 0 0 6.71 4.54c-.17.38-.38.77-.56 1.15-5.31-3.56-10.13-7.89-15.54-11.39" fill="#e1251b" fill-rule="evenodd"/><path d="m87.86 160.84c3.81 1.46 4 6.6 7.62 8.31a2.87 2.87 0 0 1 1.6-2.51 5.11 5.11 0 0 0 2.48-3 10 10 0 0 1 1 5 3.36 3.36 0 0 0 1.19 2.55 18.77 18.77 0 0 1 5.8 13.84 30.42 30.42 0 0 1 -4.55 14.66c-1.39 2.45-3 4.72-4.54 7.06a32.62 32.62 0 0 0 -4.82 14.95c-.07 1.43 0 3.25 1.43 4a3.39 3.39 0 0 0 3.53-1 21.81 21.81 0 0 0 5.42-7.16c.8-1.78.94-3.77 1.71-5.59 1.92-4.61 4.75-8.74 7.3-13 4.16-7.65 4.86-17.4.7-25.19 3.21-1.68 5.8-4.41 8.7-6.64 2.24-1.71 4.38-3.28 6.57-5.1 1.91-1.58 4.79 1.54 6.88 2.94 2.31 1.53 3.36 4.22 4 6.77a11.08 11.08 0 0 1 -.56 8 13.19 13.19 0 0 0 -1.71-2.1 22.2 22.2 0 0 0 2.17 4.33c1.75 3.08 2.23 6.74 4.4 9.61 1 1.43 2.9 1.92 4.09 3.18 2.1 2.09 2.62 5.2 4.51 7.44.59.73 1.64.84 2.27 1.5a8.42 8.42 0 0 1 2.37 6.54 1 1 0 0 0 -.84-.81 6.06 6.06 0 0 0 -.07 1.54 15.62 15.62 0 0 0 -3.63-3.21c1.08 2.55 2.41 5.1 2.34 8a11 11 0 0 0 -1.36-1.19c0 .25-.1.77-.14 1a10.48 10.48 0 0 1 -3.88-5.1 15 15 0 0 0 -1.5 6.28c-.14-.14-.49-.45-.66-.59l-.46.42a7.56 7.56 0 0 1 -1.64-4c-.25-2 .17-4.26-1-6.08-.46-.81-1.44-1-2.21-1.29-.14-.91 0-2-.8-2.63-.63-.62-1.57-.34-2.34-.31-.21-.8-.31-1.78-1.05-2.27s-1.54-.11-2.23.07c-.95-1.47-.39-3.84-2.2-4.68a9.62 9.62 0 0 1 -6.57-7.76 11.72 11.72 0 0 0 3.14.42 5.53 5.53 0 0 1 -.07-.7c-2.1.14-4-.8-6.08-.84.74.35 1.5.6 2.27.88 0 .55.34 1.06.27 1.62 1.77 3.11 4.1 5.82 7.48 6.65.57.14 0 2.41.39 2.94l-3.11 3.22c-2.2 1.92-4.71 3.56-6.63 5.83a17 17 0 0 0 -3.5 6.71 15.81 15.81 0 0 1 -2.1-5.7 9.3 9.3 0 0 0 1.51 6.36c1.85 3.11 4.4 6.29 4.05 10.13-.42 2.66-.77 5.46-2.24 7.8-2 3.24-5.13 5.59-7.3 8.73-1.85 2.59-3.28 5.87-2.44 9.05.9 3.77 4.47 6 6 9.5.32.67-.07 1.12-.66 1.37-1.85-1.54-3.36-3.39-5.07-5.07 1.19 2.62 2.69 5.21 2.87 8.18-.32-.39-.6-.74-.91-1.09-.07.28-.21.88-.28 1.16a14 14 0 0 1 -4.86-7.17c-.45 2.45.7 4.93 0 7.34-.14.14-.49.42-.63.59-1.15-2.23-3.18-3.8-4.57-5.87a10.2 10.2 0 0 1 -1.19-7.44c.21-1.22.77-2.41.94-3.63a9.6 9.6 0 0 0 -1.4-4.89c2.14-1.26 1.82-4.09 1.4-6.15 1.47.17 3.39 0 4.12-1.47.67-2.06 2.17-3.81 2.31-6s-1-4.41-2.41-6.15c-1.61 1.39-3.43 2.51-5.14 3.77-.56.38-.45 1.12-.49 1.68 0 1.57-.1 3.28-1.22 4.54-.52-1.22-1-2.86-2.51-3.21-2 .34-4.16.45-5.94-.6a5.44 5.44 0 0 1 -2.55-4.23c-.32-3.42.66-6.77 1.15-10.13.14-1.15.21-2.65-1-3.28-1.47-.56-3 0-4.47.31a8.28 8.28 0 0 1 6.18-5.38c-2.37-1.15-3.81-3.42-5.2-5.55a14.34 14.34 0 0 1 6.18.94c.52-.18.59-.49.17-.87a10.66 10.66 0 0 1 -2.51-7.48c1.4 1.54 2.69 3.21 4.58 4.16-.91-2.73-.49-5.63-.67-8.42 1.4 2.48 1.79 5.66 4.27 7.4 1.6-2.34 3.59-4.47 4.36-7.26a8.68 8.68 0 0 0 -1.85-7.76c-1.08-1.15-2.86-2.06-4.4-1.29-1 .42-1.36 1.46-2 2.23-.53-1.67-.81-3.73.28-5.24.87-1.26 2.41-1.67 3.73-2.16a22.16 22.16 0 0 1 -6.6-2.31 6.16 6.16 0 0 1 -2.65-3.07c-1.12-3.22-.35-7-2.31-9.89z" fill="#cfd2d3" fill-rule="evenodd"/><path d="m150.37 163.63c1.64-.91 3.32-2.13 5.27-2.16 1.19 0 2 1 3.11 1.29s1.89-.52 2.83-.73c1.29.07 2.1 1.22 2.66 2.23a7.14 7.14 0 0 0 -2.55-.21l-.07.39c3.17.52 6.21 3.46 5.73 6.85-1.61-1.93-3.78-4-6.47-3.71.21 1.57.81 3.36-.56 4.58-.14-.6-.24-1.19-.35-1.78-.73.28-.59 1.11-.7 1.74-.69-.63-1.6-1.22-1.74-2.2-.11-1.47.42-3.14-.56-4.36-.77-.84-2-.32-2.62.34-1.57 1.12-1.89 3.15-2.17 4.9-.63-.18-1.43-.56-2 0-1.05 1-1 2.62-1.12 4-.8-.45-1.53-1.25-2.55-1.12-1.08.91-.07 2.45.21 3.57-.73 0-1.64-.18-2.2.49s-.31 1.82-.35 2.72c-.52.32-2.2 2.87-2.65 3.22.22-.72-1.93-2.08-1.68-3.18 2.13-9.26.12-4.14-.6-12.82 3.25-.6 8.35-2.24 11.12-4.06" fill="#cfd2d3" fill-rule="evenodd"/><path d="m216.82 162.79c1.19-.42 2.13-1.5 3.46-1.32 1.92.21 3.53 1.36 5.13 2.3 2.73 1.75 8.6 3.52 11.78 4.12-.25 2.54-.35 9.44-.95 11.89-.24 2.16-2.29 2.63-1.59 4.73-.49-.35-2.74-3.72-3.23-4a3.87 3.87 0 0 0 -.38-2.72c-.52-.67-1.43-.49-2.17-.53.32-1 1-2.3.46-3.38-1-.57-2 .52-2.83 1-.11-1.36-.07-3-1.09-4-.56-.63-1.36-.21-2 0-.25-1.68-.53-3.64-2-4.75-.66-.64-1.75-1.33-2.62-.67-1.12 1.08-.73 2.8-.73 4.23.07 1.11-1 1.82-1.71 2.51-.18-.66 0-1.53-.81-1.78 0 .6-.07 1.15-.1 1.75-1.71-1-.84-3-.77-4.51-2.69-.24-4.82 1.75-6.4 3.71-.59-3.53 2.76-6.54 6.05-6.92-.91-.7-2-.25-3-.07a3.57 3.57 0 0 1 2.68-2.38c1 .17 1.82 1 2.87.76" fill="#cfd2d3" fill-rule="evenodd"/><path d="m92.89 164.19s0 0 0 .07 0 0 0-.07" fill="#0860aa" fill-rule="evenodd"/><path d="m116.75 171c3.08-2.17 6-4.44 9-6.74a48.59 48.59 0 0 1 -9 6.74" fill="#e1251b" fill-rule="evenodd"/><path d="m250.15 164.58c2.93 2.09 5.73 4.4 8.67 6.46a52.24 52.24 0 0 1 -8.67-6.46" fill="#e1251b" fill-rule="evenodd"/><path d="m265.87 169.85s0-.07 0-.07 0 0 0 .07" fill="#0860aa" fill-rule="evenodd"/><path d="m89.05 171.53a.07.07 0 0 1 0 .07s0 0 0-.07" fill="#0860aa" fill-rule="evenodd"/><path d="m111.44 173.28s0 .07 0 .07 0 0 0-.07" fill="#0860aa" fill-rule="evenodd"/><path d="m283.27 175.06s.07 0 .11-.07-.07.07-.11.07" fill="#0860aa" fill-rule="evenodd"/><path d="m282.57 175.41s.07 0 .07 0 0 0-.07 0" fill="#0860aa" fill-rule="evenodd"/><path d="m268.63 176.14a.1.1 0 0 0 0-.07.1.1 0 0 1 0 .07" fill="#0860aa" fill-rule="evenodd"/><path d="m107.22 176.77s0 0 0 .07 0-.07 0-.07" fill="#0860aa" fill-rule="evenodd"/><path d="m101.31 184h.07v.07l-.11-.1" fill="#0860aa" fill-rule="evenodd"/><path d="m280.86 185.23s0 0 .07-.07 0 .07-.07.07" fill="#0860aa" fill-rule="evenodd"/><path d="m97.12 191.48a.15.15 0 0 1 0 .07.11.11 0 0 0 0-.07" fill="#0860aa" fill-rule="evenodd"/><path d="m105.82 197.1a.1.1 0 0 1 0-.06s0 0 0 .06" fill="#0860aa" fill-rule="evenodd"/><path d="m105.47 197.8v-.07z" fill="#0860aa" fill-rule="evenodd"/><path d="m111.09 199.55a.11.11 0 0 1 0-.07.09.09 0 0 0 0 .07" fill="#0860aa" fill-rule="evenodd"/><path d="m134.43 200.7.14-.1z" fill="#cfd2d3" fill-rule="evenodd"/><path d="m108.3 204.06a.15.15 0 0 0 0-.07.15.15 0 0 1 0 .07" fill="#0860aa" fill-rule="evenodd"/><path d="m133.59 211.26c3.19 1.92 4.65 5.76 4.48 9.36-.32 5-1.89 10-1.75 15.06 0 1.53.87 3.25 2.55 3.35 2.94.24 6.36 0 8.7 2.17l-.17.59c-1.68-.21-3.36-.52-5-.73a3 3 0 0 0 -2.13.24 12.58 12.58 0 0 1 3.92.91 26.42 26.42 0 0 1 3.35 2.24 1.18 1.18 0 0 0 0 1.18c-2.17-.49-4.4-.38-6.53-1 .59 1.89 2.51 2.9 3.18 4.75-.18-.21-.51-.05-.54-.34.1.9-.58.24-.69.45-1.85-.63-4-.81-5.41-2.31-2.06-2.06-5-2.62-7.72-3.42-1.33-.42-2.83-.81-3.64-2-.91-1.43.32-3.11-.28-4.61a3.77 3.77 0 0 0 -1.22-1.36 3.07 3.07 0 0 0 1.08-3.64 4.17 4.17 0 0 0 2.52-2.41c.42-1.68-2.24-3.6-3.46-4.5.84-2.38-2.2-7.17-2.72-9.51-.28-2.41 1.18-3.81 2.51-6 0-.13 8-.49 9 1.54" fill="#cfd2d3" fill-rule="evenodd"/><path d="m238 216.63a9.27 9.27 0 0 1 6.74-6.53 4.11 4.11 0 0 1 1.44.07c.94.46 4.43-1.67 4.85-.45 1.19 2 3.39 4.19 3.18 6.43-.42 2.3-5.17 7-4.22 9.32.16.33-2.9 2.3-2.69 3.92.17 1.36 1.43 2.16 2.58 2.72a3.09 3.09 0 0 0 1.08 3.64 2.93 2.93 0 0 0 -1.29 3.42 3 3 0 0 1 -1.33 3.6c-3.25 1.68-7.33 1.61-10.09 4.26-1.4 1.61-3.67 1.82-5.59 2.45-.11-.21-.32-.7-.42-.91-.21.17-.6.59-.81.77.7-1.82 2.62-2.83 3.18-4.72a37.07 37.07 0 0 1 -6.18.84c-.11-.32-.25-.66-.35-1 1.47-1 2.83-2.3 4.61-2.72a17.18 17.18 0 0 1 2.69-.46 4.36 4.36 0 0 0 -2.83-.17c-1.47.24-2.9.42-4.33.73 0-.21-.07-.59-.11-.8 2.41-1.93 5.66-1.82 8.6-2a3 3 0 0 0 2.55-3c.24-3-.45-6-.84-9-.52-3.42-1.43-6.95-.42-10.38" fill="#cfd2d3" fill-rule="evenodd"/><path d="m280.2 169.19c3.49-1.85 3.74-6.85 7.51-8.32-1.85 2.87-1.22 6.47-2.2 9.61a6.1 6.1 0 0 1 -2.73 3.32 24.94 24.94 0 0 1 -6.63 2.34 7 7 0 0 1 3.56 1.92c1.33 1.54 1 3.71.45 5.49-.63-1.12-1.46-2.45-2.93-2.55a5 5 0 0 0 -4.44 3.07 8.31 8.31 0 0 0 -.56 7.1c.91 2.37 2.66 4.33 4.09 6.42 2.48-1.74 2.83-5 4.26-7.4-.24 2.79.28 5.73-.7 8.42a16.24 16.24 0 0 0 4.58-4.16 10.71 10.71 0 0 1 -2.79 7.83c.1.13.31.45.41.59a13.82 13.82 0 0 1 6.26-1.05c-1.43 2.1-2.76 4.54-5.24 5.49a8.74 8.74 0 0 1 6.22 5.48c-1.47-.28-3-.91-4.51-.28-1.05.53-1.12 1.89-1 2.94.49 3.77 1.78 7.61 1 11.42a5.12 5.12 0 0 1 -4.12 3.92 10.74 10.74 0 0 1 -4.19-.07c-1.44.38-2 2-2.49 3.25-1.46-1.65-1-3.92-1.39-5.87-1.65-1.58-3.78-2.59-5.45-4.16-1.3 1.67-2.52 3.6-2.42 5.8-.07 2.34 1.58 4.23 2.31 6.36.7 1.53 2.66 1.67 4.12 1.5-.42 2.06-.73 4.89 1.4 6.15-.94 1.85-1.92 4-1.12 6.08a12.75 12.75 0 0 1 .39 8c-1 3.11-4.06 4.85-5.45 7.72a1.06 1.06 0 0 1 -.74-.84c-.52-2.38.46-4.72.11-7.09-.53 1.05-.77 2.2-1.4 3.21a18.24 18.24 0 0 1 -3.42 4.05c-.07-.27-.14-.87-.18-1.15a6.11 6.11 0 0 0 -1.12 1c.21-2.93 1.68-5.48 2.9-8.1-1.71 1.6-3.18 3.45-5 5-.32-.21-.63-.42-1-.63 1.19-3.81 5.13-6.08 6.15-10 .87-3-.28-6.11-2-8.59-2.13-3.4-5.45-5.84-7.61-9.19-1.58-2.38-1.89-5.28-2.35-8-.31-3.36 1.65-6.33 3.39-9 1.4-2.14 2.73-4.76 2.06-7.41a12.83 12.83 0 0 1 -2 5.62 17 17 0 0 0 -3.07-6.15c-1.92-2.44-4.54-4.22-6.92-6.18-4.19-4.42-4.3-5.3-2.27-6.67.71-.47 2-.58 3.14-1.45 1.37-1.08 2.59-3.17 4-6.48.77-.28 1.53-.53 2.27-.88-2 0-4 1-6 .84a5.88 5.88 0 0 0 -.07.67 12.53 12.53 0 0 0 3.15-.35 9.42 9.42 0 0 1 -4.65 6.84c-1.08.67-2.65.81-3.14 2.14a14.36 14.36 0 0 1 -1 3.42c-.7-.21-1.53-.52-2.2 0s-.84 1.44-1.05 2.24c-.8 0-1.74-.31-2.37.31s-.66 1.72-.77 2.62c-.8.32-1.78.49-2.24 1.33-1.29 2-.63 4.51-1.08 6.71a8.09 8.09 0 0 1 -1.5 3.29l-.49-.39c-.17.17-.56.46-.73.63a14.33 14.33 0 0 0 -1.44-6.36 10.07 10.07 0 0 1 -3.91 5.14c0-.25-.1-.77-.14-1a6.84 6.84 0 0 0 -1.29 1.23c-.14-2.9 1.22-5.45 2.3-8a16 16 0 0 0 -3.67 3.21 5.64 5.64 0 0 0 0-1.54 1 1 0 0 0 -.87.81 8.54 8.54 0 0 1 2.55-6.68c.73-.59 1.78-.76 2.3-1.57 1.68-2.16 2.27-5 4.13-7 1.22-1.4 3.21-1.85 4.29-3.39 1.72-2.31 2.38-5.1 3.46-7.69.84-2.16 2.41-4 3.11-6.25a14.66 14.66 0 0 0 -1.75 2.1 11.34 11.34 0 0 1 -.52-8c.7-2.65 1.82-5.41 4.23-7 2.06-1.19 4.42-3.59 6.6-2.69 0 0 2.58 1.92 2.56 1.93s12.84 9.69 12.82 9.74c-8 15.63 2.81 25.3 8 38.36.77 1.75.87 3.67 1.68 5.42a21.31 21.31 0 0 0 5.17 6.95 3.75 3.75 0 0 0 3.49 1.3 3 3 0 0 0 1.68-3.08 30.25 30.25 0 0 0 -2.62-11.88c-1.64-4-4.51-7.23-6.57-10.93-2.93-4.93-5-10.56-4.68-16.32a18.73 18.73 0 0 1 5.94-12.73 3.67 3.67 0 0 0 1-3.07 12.84 12.84 0 0 1 .84-4.3 18.41 18.41 0 0 0 1.05 1.75 32.73 32.73 0 0 0 2.55 2.06c.51.42.51 1.15.71 1.75z" fill="#cfd2d3" fill-rule="evenodd"/><path d="m118.83 163.14a1.08 1.08 0 1 1 -1.11 1.08 1.1 1.1 0 0 1 1.11-1.08" fill="#cfd2d3" fill-rule="evenodd"/><path d="m257.31 163.72a1.08 1.08 0 1 0 0 2.16 1.08 1.08 0 1 0 0-2.16" fill="#cfd2d3" fill-rule="evenodd"/><path d="m123.7 159.27a1.08 1.08 0 1 1 -1.11 1.08 1.09 1.09 0 0 1 1.11-1.08" fill="#cfd2d3" fill-rule="evenodd"/><path d="m252.45 159.85a1.08 1.08 0 1 0 1.11 1.08 1.09 1.09 0 0 0 -1.11-1.08" fill="#cfd2d3" fill-rule="evenodd"/><path d="m284.49 200.67a13.09 13.09 0 0 0 1.33-4.86 11.47 11.47 0 0 0 -.8-4.33c-1 1.33-2.06 2.65-3.15 3.91a25.44 25.44 0 0 1 .18-5.45c.06-1.29 2-1.36 2.79-2.23-1.74-.1-4-.21-5.24 1.43-1.32 2-1.64 4.47-3.07 6.39a21.5 21.5 0 0 1 -3.11-5 7.11 7.11 0 0 1 1.5-7.17c.74-.7 2-1.46 2.9-.7 1.26 1.12 1.5 2.9 2.06 4.44.35-.63.67-1.22 1-1.89 0 0 0 0 .07-.06 1.5-2.76 1.5-6.54-.87-8.81a12.44 12.44 0 0 0 2.51-.94s.07 0 .07 0l.63-.31s.07 0 .11-.07a7.13 7.13 0 0 0 3.46-4.12c.76-2.62.55-5.46 1.39-8.07.32-1.16 1.61-1.37 2.59-1.68-1.33-1.26-3.43-2-5-.74a0 0 0 0 0 0 0c-2.3 1.54-3.11 4.37-4.78 6.46-1-1-2.31-1.61-3.18-2.65-.81-1.64-.18-3.5-.11-5.21l-.73.28c-.84-.56-1.64-1.19-2.48-1.75a14.09 14.09 0 0 1 2.9-.42c.07-.34.1-.7.17-1a20.48 20.48 0 0 1 -2.86-1.51 4 4 0 0 0 -.21-.49c1.64-.06 3.25-.31 4.85-.52a12.08 12.08 0 0 0 -2.2-1.57.84.84 0 0 1 -.59-.91 1 1 0 0 1 1 .32c.8.31 1.64.48 2.44.73-.87-1.29-2.06-2.34-2.86-3.67 1.19.17 2.37.35 3.6.49a5.29 5.29 0 0 0 -.49-2.17v-.07a20.41 20.41 0 0 0 -2-2.9c1.11 0 2.62 0 3-1.25.42-2-1.4-3.5-2.9-4.44l5.52-5.1c-3.84-.91-7.76.45-11.53 1.29a27.85 27.85 0 0 0 -11.46-1.92 8.72 8.72 0 0 0 -5 1.29 4.59 4.59 0 0 0 -1.33 2.52 15.16 15.16 0 0 0 -3.56-.11 2.78 2.78 0 0 0 -2.38 3.08c.28 1.57.46 3.18.81 4.71v.07a2.79 2.79 0 0 0 1.78 1.75 20.33 20.33 0 0 0 5.45.31 22.25 22.25 0 0 1 0 2.31l-.52-.14s-1-.49-1.47-.73a.11.11 0 0 1 -.07 0 13.75 13.75 0 0 0 -4.26-1.12 5.1 5.1 0 0 1 -3.42-2c-.91-.95-1.05-2.31-1.75-3.39-.14.56-.25 1.08-.39 1.61-.14-.18-.94-1.33-.94-1.33s0-.07 0-.07a34.92 34.92 0 0 0 -2.2-3.5c2.13-3.28 1.6-7.33 1.32-11a7.23 7.23 0 0 0 -4.57.56h-.18a6 6 0 0 1 -.84.07c1.71-3 3.32-6 4.75-9.19 0 0 .35-.77.39-.77l.66-1.39a32.24 32.24 0 0 1 2.45-4.75 18.93 18.93 0 0 1 .1 4.64c-.14 3.64.39 7.51 2.76 10.38 1.64-1.26 3.43-2.41 4.44-4.26 0 0 0 0 0-.07.24-.35.48-.74.73-1.12a13.1 13.1 0 0 0 8.07 6.5c.7-3.71 1.54-7.55.7-11.32a9.63 9.63 0 0 0 -3.15-4.72 7.56 7.56 0 0 0 6.15-3c-2.27-.31-4-1.89-5.48-3.49a10.16 10.16 0 0 0 -7.2-3.32 24 24 0 0 0 -12.05 2.37c-1.12.56-3.18 2.06-3.22 2.06a19.17 19.17 0 0 0 -5.83 6.22s-.91 1.44-1.4 2.07c0 0-.07.06-.07.1v-.07a39.28 39.28 0 0 1 -.32-5.41 27.93 27.93 0 0 0 -4 4.14 2.65 2.65 0 0 1 -.13-.41c-1.23-3.94-2.83-7.79-3.39-11.91a10.25 10.25 0 0 0 -1.85 2.41 21.57 21.57 0 0 0 -1.09 2.13s0 0 0 0a20.31 20.31 0 0 0 -1.36 9.67c-1.58-1.08-4.89-3.07-4.93-3.07-.8-.49-1.61-1-2.48-1.47.31.88 1.12 2.52 1.12 2.55.38.84 1.23 3.16 1.3 3.4.07 1.61.69 3.13.83 4.71s.7 3 0 4.4a.14.14 0 0 0 0 .1l-.35.6s0 0 0 0a15.92 15.92 0 0 1 -4.12 4.75 3.5 3.5 0 0 1 -2.27.9 2.14 2.14 0 0 1 -.73-2.23l.66-2-.18-.05-.71-.23c-.4 1.22-.81 2.43-1.24 3.64a72.2 72.2 0 0 0 -13.94-1.65 97.92 97.92 0 0 0 -17.04 1.84l-.78-2.73-1 .08c.17.6.34 1.21.52 1.81a4 4 0 0 1 -5.07 1.67h-.07l-.07-.07c-2.27-1.64-3.56-4.2-4.86-6.6a8.66 8.66 0 0 1 -1 1.74 29.74 29.74 0 0 1 .56-6.7 29.59 29.59 0 0 1 2.34-8v-.07a8.42 8.42 0 0 0 .77-1.81c-1.43.84-2.83 1.71-4.26 2.55a.15.15 0 0 0 -.07 0c-1.05.6-2.06 1.33-3 2a21.28 21.28 0 0 0 -1-8.8 20.54 20.54 0 0 0 -3.28-5.59 68.17 68.17 0 0 1 -3.53 12.16c-1.4-1.26-2.59-2.73-4.09-3.88-.14 1.89.21 3.81-.35 5.63-2-3.22-4.05-6.57-7.37-8.57a20.07 20.07 0 0 0 -9.57-4c-3.32-.42-7-.77-10.06.91-2 1-3.29 2.93-5 4.3a10.09 10.09 0 0 1 -3.21 1.36c1.68 1.68 3.77 3 6.22 2.9a10.52 10.52 0 0 0 -2.76 3.67.11.11 0 0 0 0 .07c-1.4 4-.39 8.28.38 12.33a14.13 14.13 0 0 0 2.06-.84.11.11 0 0 0 .07 0l.63-.31a.1.1 0 0 1 .07 0 12.36 12.36 0 0 0 5.24-5.35 14.88 14.88 0 0 0 5.14 5.49 10.37 10.37 0 0 0 1.43-2.2.15.15 0 0 0 0-.07c2-4 1.05-8.63 1.33-12.93a10.89 10.89 0 0 1 1.43 2.48 0 0 0 0 1 0 0c1 2.23 2 4.43 3.11 6.64.32.7.67 1.36 1.05 2v.07l.31.62a.13.13 0 0 1 0 .07c.63 1.3 1.29 2.55 2 3.78 0 .09.51 1 .51 1l-1.28-.59c-1.32-.66-3.25-1-4.5-.28-.25 3.22-.77 6.71.76 9.68a.11.11 0 0 1 0 .07l.35.59s0 .11 0 .14v.46a30.11 30.11 0 0 0 -2.41 4s0 0 0 .07a9.28 9.28 0 0 1 -.84 1.33c-.2-.84-.34-1.68-.52-2.52-.63 1.65-1.12 3.53-2.69 4.58-1.57 1.33-3.77.94-5.62 1.64-1.16.32-2.1 1.08-3.25 1.37a9.92 9.92 0 0 1 0-2.31c2.06.07 4.33.31 6.26-.63 1.32-.87 1.32-2.59 1.53-4s.88-3.08-.24-4.3c-1.37-1.54-3.6-1-5.38-.87a4.35 4.35 0 0 0 -1.09-2.34 7.52 7.52 0 0 0 -4.47-1.44 28 28 0 0 0 -12.19 1.89c-3.74-.94-7.62-2-11.53-1.43 1.71 1.85 3.67 3.45 5.52 5.13-1.36 1.09-3.18 2.41-2.94 4.41.32 1.36 1.89 1.43 3 1.39a28.82 28.82 0 0 0 -2 2.9s0 0 0 .07a6.48 6.48 0 0 0 -.49 2.13 31.2 31.2 0 0 0 3.57-.48c-.67 1.39-1.92 2.41-2.8 3.66.84-.24 1.71-.42 2.55-.59l.81-.42c-.14.42-.17.38-.63.8l-2.1 1.68c1.64.25 3.29.42 4.93.56-.8 1.05-2.17 1.35-3.23 2 .12.5.11.47.23 1 1 .07 2 .17 2.93.31a8.42 8.42 0 0 1 -3.18 2c0 1.5.56 3.11 0 4.58-.84 1.22-2.34 1.78-3.32 2.86-.6-.87-1.19-1.71-1.71-2.62 0 0 0 0 0-.07-.94-1.6-1.92-3.46-3.77-4.19h-.07c-1.54-.77-3.08.17-4.3 1.05 1 .38 2.34.59 2.66 1.81.9 2.8.49 5.91 1.64 8.67v.07c1.09 2.69 3.88 4 6.47 4.82-3 2.73-2.1 7.62.24 10.48.56-1.5.77-3.35 2.17-4.36 1.33-.67 2.48.62 3.35 1.5h.07v.07a9 9 0 0 1 1.15 4.79c-.38 2.51-2 4.65-3.49 6.6a17.41 17.41 0 0 1 -1.93-4 .11.11 0 0 0 0-.07c-.49-1.29-1.08-2.9-2.52-3.35a23.38 23.38 0 0 0 -3.84-.42c.94 1.11 3 1.5 2.94 3.25a12.66 12.66 0 0 1 -.18 4.12 41.86 41.86 0 0 1 -2.93-3.6 11.67 11.67 0 0 0 -.84 4.37 14.53 14.53 0 0 0 1.32 4.82 21.13 21.13 0 0 0 -6.35.07c-1.37.24 0 1 0 1.49a42 42 0 0 1 3.55 4.21 8.89 8.89 0 0 1 -1.64 2.32c-.38.38-1.52 1.73-1.52 1.73a4.59 4.59 0 0 0 -.22 4.11s3.21-1.3 5-1c.66.07.52.91.56 1.4-.46 4.33-2.17 8.8-.67 13.1v.07a6 6 0 0 0 3.46 3.49.11.11 0 0 1 .07 0 10.19 10.19 0 0 0 5.69.35 6.49 6.49 0 0 1 1.43 3.81 5 5 0 0 0 2.66-1.72c1.08-1.6.91-3.59 1.12-5.41 1.29-1 2.69-1.92 4-2.83a6.29 6.29 0 0 1 .39 6.74s0 0 0 .07c-.62.91-.9 2-1.46 3-1.3 1.08-3.11.31-4.55 0 .39 1.95 1.23 4.05.49 6-.28.8-1.25.59-1.92.73.42 2.27 2.48 4.33 1.71 6.78-1 3-1.5 6.53-.17 9.61 1.15 3.11 4.4 4.79 5.48 7.9a40.17 40.17 0 0 0 .14 4.89 3.37 3.37 0 0 0 .67-.88s0-.07 0-.07l.28-.62a.1.1 0 0 1 0-.07c.35-.91.59-1.86 1-2.73v-.07l.31-.63a.15.15 0 0 1 0-.07 3.3 3.3 0 0 0 .42-2.06c-.17-.45.32-1.43.67-.7.87 1.47 2.41 2.27 3.7 3.29.88.87 1.64 1.85 2.55 2.72-.21-1.19-.52-2.34-.8-3.49s-.11-2.52-.25-3.77c1.16.59 1.44 1.92 2.06 3v.07a14.1 14.1 0 0 0 1.29 2c.32-2.25-.68-4.4-.18-6.62 0-.12 0-.24 0-.36a3.18 3.18 0 0 1 -.06-.43c-.07-.21-.24-.63-.31-.83-1.36-2.83-3.94-4.82-5.27-7.65a7.58 7.58 0 0 1 .17-6.22c1.61-3.6 4.58-6.26 7.13-9.12a6.91 6.91 0 0 1 2.76 1.19c.35 1.29-.38 2.65 0 4a4.27 4.27 0 0 0 2.55 2.76s0 0 .07 0c2.59 1.19 5.56 1.36 8 2.86 1.15.63 1.92 1.82 3.14 2.34 1.5.74 3.22.91 4.75 1.51 1.12 1.08 1.86 2.54 3.15 3.42a16.88 16.88 0 0 0 -.49-2.55c-.39-1.19-.18-2.55-.8-3.71 0 0 0 0 0-.06-.28-.49-.56-1-.87-1.51a41.49 41.49 0 0 1 5.1.6c1.26.31 2.44.76 3.7 1-.87-1.64-3.68-3.75-3.68-3.78s-.93-.71-.93-.71c-.35-.7.82-.38.94 0a30.59 30.59 0 0 0 3.92 1.12 14 14 0 0 0 -3.46-3.11c-.84-1-1.61-2.17-2.94-2.62-2.45-1.23-5.17-1.05-7.79-1.33-1.23-.21-1.26-1.71-1.3-2.69.14-4.37 1.19-8.6 1.71-12.93a14.17 14.17 0 0 0 -1-7.41 10.45 10.45 0 0 0 -6.5-5.69c-1.92-.67-4 .38-5.91-.42a56.22 56.22 0 0 1 6.26-5.42c.87-.7 1.4-1.74 2.3-2.41l.14-.1c.14.56.25 1.12.39 1.68a10.82 10.82 0 0 1 2.48-1.23 13.65 13.65 0 0 1 .56 3.32 5.13 5.13 0 0 1 2.86-.8 12.87 12.87 0 0 1 -.07 3.28c.88 0 2.1-.45 2.69.49 1 1.78.53 3.95.84 5.91a8.47 8.47 0 0 0 3.39 5.59 9.43 9.43 0 0 0 .87.46l.29.12-.15-.62c.53.42.86.62 1.39 1a7.15 7.15 0 0 1 -.9-3 22.08 22.08 0 0 1 .63-4.2 8.82 8.82 0 0 0 4.23 4.06 12.09 12.09 0 0 1 2.42 1.63l.08-.19c-.88-1.5-.24-3.34-.75-4.94a18.58 18.58 0 0 0 -.84-2.62l1.46 1.57c.1.64.22 1.27.34 1.9a2.62 2.62 0 0 1 .33-.53c.07-.09.16-.17.24-.26l.17-.3c.08-.14.1-.17.1-.15a1.59 1.59 0 0 0 .07-.2 14.31 14.31 0 0 0 .33-4.74c-.21-1.68-2.08-4.39-2.19-4.5a1.65 1.65 0 0 0 -.22-.19c-.89-.57-2-.86-2.62-1.81-1.36-1.88-1.92-4.19-3.35-6a10.14 10.14 0 0 0 -2.59-2.34.7.7 0 0 1 -.23-.15h-.06l-.18-.1a2.84 2.84 0 0 1 -1.31-1.8 17.2 17.2 0 0 1 -2.43-5 3.55 3.55 0 0 1 .69-3 2 2 0 0 1 2-1.49 1.61 1.61 0 0 1 -.39-2.39 1.37 1.37 0 0 1 1.29-.78 1.49 1.49 0 0 1 .43.06 1.43 1.43 0 0 1 .71.17h.2a1.87 1.87 0 0 0 .3-.26h.06a1 1 0 0 1 -.51-.6 1.05 1.05 0 0 1 .43-2 1 1 0 0 1 .52.15h.11a.9.9 0 0 1 .84.49h.24a11.71 11.71 0 0 1 .76-4.55c.94-.24 1.4.77 2.2.94a22.75 22.75 0 0 1 1.12-5.06c.84.63 1.78 1.18 2.62 1.81.17.53.24 1.09.42 1.61.45 1.05 1.47 1.61 2.27 2.34a18.81 18.81 0 0 1 .63 2.1 12.69 12.69 0 0 1 .45-2c.49-.59 1-1.15 1.54-1.71a51.49 51.49 0 0 0 5.07 1.12c.1.31.21.66.35 1 .14-1.29 1.43-.87 2.34-.87 1.15.07 2.34 0 3.53.07a30 30 0 0 0 4.33 8.35s0 0 0 0l.55.32a17.24 17.24 0 0 0 2-.88c4.58-2.76 7.73-7.19 11.22-11.11a25.89 25.89 0 0 0 9.75 3.08c1.22.14 2.48.14 3.7.38 1.05.25 2.1-.31 3.18-.31l.52 1.19c0-.32.14-.95.18-1.26a37.87 37.87 0 0 0 5.2-1.12c.46.63 1 1.15 1.47 1.71 0 0 .38-.07.56.56.21-.7.48-.67.49-.66.8-.74 1.85-1.3 2.31-2.34a12.76 12.76 0 0 0 .38-1.65 18.3 18.3 0 0 0 2.59-1.78c.83 1.68.87 3.57 1.29 5.35a4 4 0 0 1 1.92-1.5c.91 1.64.87 3.56.94 5.41l.46-.43a1 1 0 0 1 1.92.35 1.18 1.18 0 0 1 -.07 1 1 1 0 0 1 -.33.59l.07.08a1 1 0 0 1 1.35 0h.13a1.41 1.41 0 0 1 .62.36h.26v.31a1.48 1.48 0 0 1 .13 1.07 2.85 2.85 0 0 1 -.25.69c-.05.41-.09.81-.14 1.21 2-.45 3.25 2 2.9 3.7a22 22 0 0 1 -1.9 4.39 1.27 1.27 0 0 1 -.2.53 1.21 1.21 0 0 1 -.38.78 1 1 0 0 1 -.12.19 6.33 6.33 0 0 1 -.47.56 3.73 3.73 0 0 1 -.58.47 1.75 1.75 0 0 1 -.29.18 9.2 9.2 0 0 0 -2.76 2.31c-1.5 1.88-2.1 4.33-3.53 6.29a3.93 3.93 0 0 1 -1.8 1.32 13.29 13.29 0 0 1 -1.53 1.47c-.23 1.3-1.5 2.28-1.67 3.67a13 13 0 0 0 .32 4.63.46.46 0 0 0 .07.07 2.2 2.2 0 0 1 1 1.12c.07-.39.15-.78.21-1.17.17-.77.91-1.26 1.43-1.85-.24.69-.49 1.36-.73 2s-.21 1.4-.35 2.1a6.06 6.06 0 0 1 -.73 3.88 12.81 12.81 0 0 1 3-2 9.8 9.8 0 0 0 4.08-3.91c.32 2.41.88 5.13-.52 7.37l1.61-1.33c0 .28-.12.55-.17.82a3 3 0 0 1 1.5-.65h-.31c-.13.05-.14 0 0 0a1.51 1.51 0 0 1 .45-.24c.21-.27.49-.49.73-.75a8.53 8.53 0 0 0 2.62-6.11c.07-1.54-.18-3.22.7-4.58.59-.91 1.78-.45 2.65-.49a7.9 7.9 0 0 1 0-3.14c1-.46 2 .38 2.87.7a10.37 10.37 0 0 1 .45-3.32 10.14 10.14 0 0 1 2.55 1.22c.11-.59.25-1.19.39-1.78a36.63 36.63 0 0 0 2.58 2.72 59.57 59.57 0 0 1 6 5.28c-2 .73-4.13-.28-6.08.45a10.58 10.58 0 0 0 -6.71 6.64c-1.15 3.18-.74 6.6-.14 9.85a72.32 72.32 0 0 1 1.19 9.86c0 1-.32 2.37-1.54 2.37-2.55.11-5.21.14-7.55 1.3h-.07a3.7 3.7 0 0 0 -1.88 1.54c-.35.38-.53 1.05-1.12 1.12a1 1 0 0 0 -.21.1 6.13 6.13 0 0 0 -2.45 2.34l-.94.63a4.16 4.16 0 0 0 1.75-.21 7.83 7.83 0 0 1 1.36-.52c.73-.35 1.47-.67 2.23-.95a24 24 0 0 0 -1.67 2.07c-1.15.87-2.55 1.57-3.32 2.86a22.27 22.27 0 0 0 3.11-.66 36.63 36.63 0 0 1 5.8-.81c-.28.49-.56 1-.84 1.51a.1.1 0 0 0 0 .06c-.67 1.16-.42 2.55-.81 3.81a17.3 17.3 0 0 0 -.56 2.59c1.37-.94 2.13-2.41 3.25-3.53 1.54-.63 3.22-.77 4.72-1.5 1.33-.59 2.17-1.81 3.43-2.48a18.72 18.72 0 0 1 4.4-1.57l.07-.32.38-.1.25.21a18.07 18.07 0 0 0 2.62-.91.13.13 0 0 0 .07 0 4.31 4.31 0 0 0 2.48-2.45c.56-1.4-.18-2.9.1-4.3a7.16 7.16 0 0 1 2.76-1.22c2.24 2.59 4.83 4.93 6.5 7.93v.07a10.25 10.25 0 0 1 .63 1.29.15.15 0 0 1 0 .07 7.46 7.46 0 0 1 -.24 6.61c-1.44 2.48-3.67 4.4-5 7v.07a8.1 8.1 0 0 1 -.38.9 3.82 3.82 0 0 1 0 .68c.42 2.11-.49 4.23-.12 6.38 1.54-1.29 1.57-3.63 3.32-4.71-.07.83-.14 1.64-.14 2.48 0 1.64-.77 3.17-.87 4.82a17 17 0 0 1 4.16-4c.9-.49 1.39-1.75 2.44-1.89a9.46 9.46 0 0 0 1 3.22s0 .07 0 .07c.42.87.66 1.85 1.05 2.76v.07c.28.56.59 1.15.91 1.71.55-2.06-.25-4.33.73-6.29v-.07-.07c1.71-2.34 4.19-4.16 5.13-7s.56-6.26-.41-9.16c-.74-2.44 1.29-4.47 1.71-6.74-.6-.18-1.57.07-1.85-.66-.77-2 .07-4.09.49-6.08-1.47.28-3.29 1-4.58 0-.66-1.43-1.4-2.86-2-4.3-.77-1.88-.07-3.87.87-5.55 1.4.87 2.7 1.88 4.06 2.79.14 1.82.07 3.85 1.12 5.45a4.79 4.79 0 0 0 2.65 1.72 5.93 5.93 0 0 1 1.43-3.74c2.13.24 4.48.35 6.43-.77a6.56 6.56 0 0 0 3.32-5.14c.42-3.67-.63-7.26-1.12-10.83-.07-.66-.21-1.89.81-1.81 1.6 0 3.07.69 4.61 1 .52-3.25-1.82-6-4.44-7.58a68.68 68.68 0 0 0 4.58-6.29 18.52 18.52 0 0 0 -6.07-.03zm-7.86-40.81c-.49 1.22-1.5 2.1-2 3.32a16.16 16.16 0 0 0 -1 5.77c0 .62-.53 1-.91 1.39a19.93 19.93 0 0 0 -4.05 5.73.1.1 0 0 1 0 .07 22 22 0 0 0 -1 15.2c1.47 5.62 4.65 10.59 7.9 15.3a30.7 30.7 0 0 1 5.08 15.36c0 .87.11 2.3-1 2.58a4.13 4.13 0 0 1 -2.27-1.33 22 22 0 0 1 -4.47-6c-.73-1.61-.91-3.39-1.5-5a59 59 0 0 0 -4.86-9.37 49.66 49.66 0 0 1 -3.88-6.81c-2.76-6.43-3.11-14.11-.1-20.54.45-1 1.4-1.64 1.82-2.66a32.63 32.63 0 0 1 1.46-3s0-.07 0-.07l.52-1.4c.21-.41.42-.83.67-1.25v1.67c.21-.17.56-.52.74-.69a10.89 10.89 0 0 0 2.47-4.2l1.19-.1c.74-1.33.42-2.87.39-4.3 1.62.05 3.17.15 4.8.33zm-19.95 7.34a56.81 56.81 0 0 0 6.71 4.54c-.17.38-.38.77-.56 1.15-5.31-3.56-10.13-7.9-15.54-11.39.42-.42.84-.84 1.26-1.22a98.37 98.37 0 0 0 8.13 6.92zm-7.33-7.3c.24-.42.49-.81.73-1.23a11.5 11.5 0 0 0 4 1.29c.49 0 .6.56.7.91a17.54 17.54 0 0 0 1.37 3.43c.06-.14.24-.46.31-.6.21-.49.42-1 .66-1.5a7.23 7.23 0 0 1 1.82 2.94l.56-1c2 1.43 3.79 2.49 5.73 3.74-.46 1-.94 2.06-1.47 3.08a28 28 0 0 1 -4.37-2.76 117.74 117.74 0 0 1 -10.04-8.3zm7-8.49a2.92 2.92 0 0 0 3.21-2.35c.21-1.25-.62-2.27-1.22-3.25a15.84 15.84 0 0 1 3.25.7c-1.15-1.5-3.21-1.46-5-1.43s-3.57.18-5.07-.73c-1.18-.74-.87-2.34-1.15-3.53s-.84-2.59.42-3.22c1.43-.48 3 0 4.47-.14a6.85 6.85 0 0 0 4.86 1.4 1.89 1.89 0 0 0 3 .6c.56-.46.32-1.26.32-1.89a23.3 23.3 0 0 1 3.74 1.61 7.1 7.1 0 0 0 -4-2.31c-1.33-.28-2.34.7-3.46 1.22a6.29 6.29 0 0 1 -3.53-.94c0-.73-.21-1.61.42-2.13 1-1.05 2.55-1.12 3.88-1.26a26.42 26.42 0 0 1 10.79 1.64 2.17 2.17 0 0 0 1.33.25 48.1 48.1 0 0 1 8-1.54 69.19 69.19 0 0 1 -7.58 6.46c1.64.18 3-.94 4.58-1.08a3.09 3.09 0 0 1 2.23 3 24 24 0 0 1 -4.5-.56c.83 2.06 2.62 3.49 3.6 5.49-2-.35-3.88-1-5.84-1.33a21.59 21.59 0 0 0 2.9 3.49c-2.17-.38-4.19-1.33-6.43-1.46a47.12 47.12 0 0 1 6.32 4.54 25.52 25.52 0 0 1 -5.17.07 46.88 46.88 0 0 0 3.57 3.35 22.92 22.92 0 0 1 -4.12-.63 14.87 14.87 0 0 0 2.83 2.83c-1-.07-1.89-.17-2.83-.24a13.83 13.83 0 0 1 .34 2.62c-1.18-1.57-1.6-3.53-2.51-5.28 0 3.15 2 6.33.49 9.37a35.06 35.06 0 0 0 -1.47-4.37 14.5 14.5 0 0 0 -2.17-4c.77 3.14 1.82 6.39 1.16 9.64a5.51 5.51 0 0 1 -.7-1.47c-.73-2.48-1.54-5-2.48-7.44.21 2.9.56 5.76.56 8.63a31.44 31.44 0 0 1 -3.15-7c-.31 1.47-.73 2.94-1.15 4.4a27.2 27.2 0 0 1 -1.75-4.64 27 27 0 0 0 -1.08 3.6 7.58 7.58 0 0 1 -.8-3c-1.82.28-4 0-5.18-1.51.08-.27.25-.8.32-1a13.13 13.13 0 0 0 5.9.42c2.35-1 4.06-3 6.29-4.13a10.44 10.44 0 0 1 3.22-1 6.31 6.31 0 0 0 -3.39.21c-2.41 1-4.09 3.18-6.5 4.16a11.23 11.23 0 0 1 -5.14-.42c-1.36-.21-1.71-1.75-2-2.86s-.07-2.94 1.4-2.8c1.94.29 3.79 1.41 5.92 1.24zm-11-5.14a5.88 5.88 0 0 0 1.57 1.61c1.61.69 3.39.48 5.1.59 1.3.49 2.83.56 3.88 1.54-1.54-.18-3.39.21-4.61-1-1.12 0-2.62-.38-3.32.81-1.22 2.09-.28 4.75 1.08 6.57a7.34 7.34 0 0 0 -.17 1.74 3.37 3.37 0 0 1 -1.37 1.33c-.8.39-1.15 1.29-2 1.64-2.38 1-5.1 1.54-7.16 3.25-.77.56-1.26 1.43-2 2a16.36 16.36 0 0 1 -7.23-2c-3-1.47-5.56-3.84-9-4.3a26.48 26.48 0 0 1 -.49-5.48 54.41 54.41 0 0 0 6.26.07 9.81 9.81 0 0 0 -.89-3.64.11.11 0 0 0 0-.07l-.31-.63a.09.09 0 0 0 0-.07c-1.05-2-2.41-3.88-3.56-5.87a39 39 0 0 0 4.43-.18 14 14 0 0 0 2.1 3.88c1.68 2 3.84 3.49 5.34 5.66.42-.17.88-.28 1.12-.7a10.73 10.73 0 0 0 1.85-7.79 22.76 22.76 0 0 0 9.36 1.04zm2.93-43.67c3.08-.39 6.47-.53 9.16 1.25 2.2 1.51 3.67 3.88 6.15 5a6 6 0 0 1 -3.81 1.47c-1.33-.14-2.59-.63-3.88-.77 1.15 1.43 2.83 2.3 4.05 3.7a7.39 7.39 0 0 1 1.89 5 23.55 23.55 0 0 1 -.91 7.83 13.84 13.84 0 0 1 -7.23-6.92c-.49.7-.91 1.43-1.33 2.17a16.11 16.11 0 0 1 -3.63 3.6c-2.38-3.22-2.13-7.45-2-11.22.07-2.2 0-5-2.13-6.18-2.37-1.23-5.21-.74-7.58.21a17.76 17.76 0 0 1 11.23-5.14zm-34.73 11.07a19.1 19.1 0 0 1 6.92 6c-1.64-5.07-1.81-11.08 1.12-15.72 1.15 4.44 3 8.63 4 13.1a10 10 0 0 1 3-5.21c.17 1.79.45 3.57.56 5.35a51.19 51.19 0 0 0 -4.15 11.33 14.26 14.26 0 0 1 -1.57 3.42c1.6-1.67 2.34-3.91 3.07-6.07 1-3 1.89-6.15 3.74-8.81s3-5.63 5.59-7.37a8.17 8.17 0 0 1 8-1.68c.56.25 1.46.66 1.18 1.43-.48 1-1.18 1.86-1.64 2.87a143.25 143.25 0 0 1 -9.5 18.17 28.93 28.93 0 0 1 -6.57 7.26c4.61-1.92 6.78-7.05 11.29-9.22a7.66 7.66 0 0 1 3.07-.66c.24 2.86.6 6-.94 8.63a22.28 22.28 0 0 0 -2-1 9.5 9.5 0 0 0 1.47 2.41 27.47 27.47 0 0 1 4 7.06c-3.46.38-6.88-.63-10.06-1.92a10.64 10.64 0 0 1 -.84 8.8c-1.47-1.68-3.28-3.07-4.72-4.79a12.53 12.53 0 0 1 -2.13-4.5c-5.66 1.11-11.49 0-17-1.58-.66-.07-.87-.8-1.22-1.25 1.33.14 2.65.59 3.95.1 2.27-.66 3.49-2.93 3.94-5.1.77-3.63.18-7.37-.48-11a52.64 52.64 0 0 0 -2.1-10.05zm-9 17.92c1 .18 1.36 1.44 2.4 1.51a4.68 4.68 0 0 0 3-1 17.38 17.38 0 0 0 5.13-6.25 19.54 19.54 0 0 1 0 9.43c-.49 1.68-1.58 3.43-3.36 3.92s-3.35-.32-4.86-1a27.74 27.74 0 0 1 1.75 4.89c.42 2.48-.24 5-.7 7.37a14.12 14.12 0 0 1 -7.51-5c-.77 1.71-.84 3.88-2.34 5.14-1.22.66-2.72 1.43-4.09.84a2.34 2.34 0 0 1 -.21-4c1.4-1 2.87-2.28 2.8-4.16-.94 1.5-2.06 3.39-4 3.67-2.58.07-4-2.69-4.16-4.93 2.69-1.92 5.42-4 7-7 .84-1.46.91-3.18 1.22-4.78 2.69.41 5.38.83 7.94 1.35zm-11.31 20.41a44.47 44.47 0 0 0 -5.84 4.72c-1.05.95-1.61 2.34-2.76 3.22a31.88 31.88 0 0 1 -6 3.45c-3-4.19-5.87-8.45-8.84-12.64-.59-.88-1.19-1.72-1.78-2.59a34.51 34.51 0 0 0 5.27-.17 50 50 0 0 0 5-1.23c1-.31 1.92-.63 2.9-1a43.17 43.17 0 0 0 4.68-2.16c.59-.35 1.22-.7 1.85-1.05a14.32 14.32 0 0 0 1.12 3 4.39 4.39 0 0 0 3.67 2.17 3.55 3.55 0 0 0 .73 4.28zm-18.46-20.25h-.24c6.29-1 12.62-2 19-1.61l2.17.21a8.57 8.57 0 0 1 -1.87 6.16c-4.44 5.35-11.1 8.3-17.63 10.08-3.46.88-7.2 1.47-10.62.25-.6-.28-1.4-.53-1.68-1.19.53-3.6 2.87-6.57 5.28-9.19a18.4 18.4 0 0 1 2.2-2.13c.63-.66 1.36-1.22 2.06-1.82a2.11 2.11 0 0 1 1.33-.8zm-12.08-4.45c1.54 2.34 3.07 5.17 6 5.87 1.85.46 3.39-.84 4.65-2a4.21 4.21 0 0 1 -1.47 1.64 31.64 31.64 0 0 0 -8.14 10.14 10 10 0 0 1 -2.87-6.12 19.21 19.21 0 0 1 1.83-9.57zm-33.37-14.57c.07 4.09.39 8.56-1.92 12.2-2.34-1.26-3.84-3.5-5.13-5.73a12.66 12.66 0 0 1 -7.41 6.88c-.46-2.9-1.05-5.84-.67-8.77a7.36 7.36 0 0 1 2-4.19c1.18-1.3 2.79-2.13 3.87-3.57-1.32.18-2.58.67-3.91.81a6 6 0 0 1 -3.74-1.47c2.94-1.33 4.51-4.47 7.48-5.73 2.65-1.05 5.59-.8 8.35-.45a17.36 17.36 0 0 1 10.66 5.1c-2.45-1-5.42-1.47-7.8-.07-1.67 1-1.81 3.17-1.78 4.95zm8.49 23.27c-.1-.14-.28-.49-.38-.66l-2.2 1.15c-1.47-2.65-1.19-5.77-1-8.66a8.58 8.58 0 0 1 5.77 2.48 30.49 30.49 0 0 1 3.91 4.12 13.41 13.41 0 0 0 4.23 3.84c.38.42.59-.14.87-.42a24.43 24.43 0 0 1 -5.59-5.34 110.39 110.39 0 0 1 -8.66-15.44c-1.22-2.49-2.17-5.14-3.78-7.45-.62-.73.42-1.36 1.05-1.6a7.91 7.91 0 0 1 7.48 1.18 13.08 13.08 0 0 1 3 2.8c1.5 2.17 2.79 4.47 4.19 6.71 1.57 3 2.38 6.43 3.64 9.64a8.44 8.44 0 0 0 2.34 3.63 11.79 11.79 0 0 1 -2.21-5.27 51.49 51.49 0 0 0 -3.66-9.57c.14-1.79.45-3.57.52-5.32a9.42 9.42 0 0 1 3 5.21c1-4.47 2.75-8.73 4.05-13.14 2.58 4.48 2.72 10 1.33 14.92-.14.56-.67 1.64.42 1.29a12 12 0 0 1 1.53-2.82 13.93 13.93 0 0 1 4.68-3.67 44.78 44.78 0 0 0 -2.13 11.94c0 2.59.35 5.21-.1 7.76a12.29 12.29 0 0 0 1.85 8.77 30.86 30.86 0 0 1 -12.51.46 11.32 11.32 0 0 1 -2.48 4.89c-1.4 1.53-3 2.9-4.37 4.4a10.4 10.4 0 0 1 -.8-8.63c-.42-.14-.8.14-1.19.24a18.62 18.62 0 0 1 -8.91 1.51 23.63 23.63 0 0 1 6.11-8.95zm-13.27 12.4a9.74 9.74 0 0 0 3.87-.45 6.3 6.3 0 0 0 2-1.82 20 20 0 0 0 9.61-.91 10.71 10.71 0 0 0 2.69 8.77c2.51-3.32 6.5-5.59 7.76-9.82 1.43.14 2.9.21 4.36.21-1.68 3.36-4.82 6.29-4.75 10.31 2.1.1 4.16-.14 6.22-.11a31.55 31.55 0 0 1 -.56 5.49c-2.86.14-5.21 1.92-7.58 3.32-2.73 1.57-5.76 3-9 2.93a27.75 27.75 0 0 0 -2.38-2.34c-2-1.43-4.54-1.88-6.78-2.9-.73-.31-1.05-1.12-1.71-1.53s-1.22-.6-1.47-1.23-.21-1.29-.31-1.95a14.79 14.79 0 0 0 1-1.54v-.07c.69-1.54 1.08-3.5.14-5-.6-.94-1.82-.84-2.76-.84s-1.61.49-2.42.21l.07.77a7.45 7.45 0 0 1 -2.79 0c1.61-.49 3.04-1.57 4.79-1.5zm1 10.27c.25.39.46.81.7 1.23a91.51 91.51 0 0 1 -14.35 11.1 16.8 16.8 0 0 1 -1.57-3.11 3.91 3.91 0 0 1 1.92-.77c.94-1.29 2.48-2 3.74-2.93l.69.91c.46-1 .77-2.24 1.82-2.83.14.38.32.76.46 1.11s.28.7.38 1c.87-1.26 1.12-2.8 1.75-4.16a7.69 7.69 0 0 1 2.37-.49c.21-.1.63-.24.84-.35zm-5.62 7.76a80.21 80.21 0 0 0 7.13-6.15 10.29 10.29 0 0 1 1.25 1.22c-5.38 3.5-10.2 7.79-15.51 11.39-.17-.38-.38-.77-.56-1.15a61.79 61.79 0 0 0 7.66-5.31zm-15-13.7a30 30 0 0 1 -5.11-.07c1.79-1.88 4.13-3.07 6.22-4.57-2.16.17-4.22 1-6.35 1.5a22.43 22.43 0 0 0 2.9-3.53c-2 .28-3.92 1-5.91 1.33 1.08-1.93 2.76-3.46 3.67-5.49a16.52 16.52 0 0 1 -4.37.49c-.49-.42 0-1 .28-1.5.52-.74 1.43-1.68 2.45-1.33a15.43 15.43 0 0 0 3.94 1.12c-2.65-2.06-5.13-4.3-7.61-6.53 2.9.1 5.66 1 8.49 1.53a26.94 26.94 0 0 1 12.3-1.85 5.65 5.65 0 0 1 3.07 1 2.08 2.08 0 0 1 .45 2.34 5.15 5.15 0 0 1 -3.42.94c-1.12-.59-2.2-1.53-3.53-1.22a7.47 7.47 0 0 0 -3.95 2.31 24.52 24.52 0 0 1 3.78-1.61c0 .63-.28 1.4.28 1.89a1.91 1.91 0 0 0 3-.6 6.81 6.81 0 0 0 4.82-1.4c1.47.14 3-.35 4.47.14s.56 2.21.46 3.29c-.29 1.26 0 3-1.44 3.63-2.65 1.19-5.73 0-8.45 1a3.64 3.64 0 0 0 -1.3 1.05 14.51 14.51 0 0 1 3.25-.77 6.34 6.34 0 0 0 -1.25 2.9 2.62 2.62 0 0 0 2 2.59 9.49 9.49 0 0 0 5.52-.74c.87-.28 2-.84 2.76-.14.94 1.36.28 3.18-.46 4.47-.38.81-1.32.84-2.06 1a9.47 9.47 0 0 1 -4.33.21c-2.34-.94-4-3-6.25-4.09a6.57 6.57 0 0 0 -3.64-.28c3.15.25 5.45 2.55 7.93 4.27 2.13 1.67 5 1 7.48.42.07.24.28.76.38 1-1.25 1.54-3.38 1.82-5.24 1.54a8.42 8.42 0 0 1 -.73 3c-.38-1.19-.7-2.42-1.08-3.6-.6 1.53-1 3.11-1.68 4.61a27.26 27.26 0 0 1 -1.29-4.33 30.54 30.54 0 0 1 -3.15 7c.07-2.9.35-5.8.6-8.7-1 2.58-1.82 5.27-2.66 7.93a3 3 0 0 1 -.56 1c-.59-3.25.42-6.5 1.15-9.61a5.58 5.58 0 0 0 -1 1.57 41.8 41.8 0 0 0 -2.59 6.85c-1.4-3 .39-6.11.49-9.15-1 1.57-1.29 3.52-2.51 5a22.79 22.79 0 0 1 .34-2.58c-.94.07-1.88.17-2.79.24a15 15 0 0 0 2.79-2.83 21.5 21.5 0 0 1 -4.26.67 26.42 26.42 0 0 0 3.65-3.31zm-1.16 6.71c0 1.08 0 2.13-.1 3.18.21.38.38.77.56 1.15.38.07.77.11 1.11.14a13.38 13.38 0 0 0 2.56 4.37c.17.1.48.35.66.45 0-.52 0-1 0-1.6.14.31.56.59.49.94.67 1.82 1.72 3.46 2.48 5.21v.07c1.89 2 2.65 4.71 3.21 7.37a27 27 0 0 1 -3.56 18.76.11.11 0 0 0 0 .07c-.94 1.47-1.85 2.93-2.76 4.44a.15.15 0 0 1 0 .07 49.06 49.06 0 0 0 -4.12 8.07c-.6 1.68-.77 3.49-1.54 5.1a21 21 0 0 1 -4.82 6.39c-.63.49-1.4 1.19-2.24.91-.84-.84-.63-2.13-.59-3.18a30.46 30.46 0 0 1 4.54-13.8 80.78 80.78 0 0 0 5.94-9.75v-.07l.32-.63a.15.15 0 0 1 0-.07c3-6.18 4.23-13.73 1.4-20.19v-.07a19.56 19.56 0 0 0 -4.55-6.6c-1.18-.84-.62-2.48-.9-3.71-.11-2.41-1.4-4.47-2.76-6.39 0 0-.07-.11-.11-.14 1.52-.28 3.13-.32 4.73-.49zm18.94 75.85a31.43 31.43 0 0 1 1.82-2.72c.61 1.32-.79 2.3-1.87 2.72zm6.71-25.08c1.46-.49 3 .34 4.23 1 3.17 1.93 4.64 5.77 4.47 9.37-.32 5-1.89 10-1.75 15.06 0 1.53.87 3.25 2.55 3.35 2.93.25 6.36 0 8.7 2.17l-.17.59c-1.68-.21-3.36-.52-5-.73a3 3 0 0 0 -2.13.24 12.58 12.58 0 0 1 3.92.91 25.72 25.72 0 0 1 3.35 2.24 1.18 1.18 0 0 0 0 1.18c-2.16-.48-4.4-.38-6.53-1 .52 1.66 2.07 2.65 2.89 4.12-.24.22-.85.56-.94.74-1.85-.63-4-.81-5.41-2.31-2.06-2.06-5-2.62-7.72-3.42-1.33-.42-2.83-.81-3.64-2-.9-1.43.32-3.11-.28-4.61a3.69 3.69 0 0 0 -1.22-1.36 3.07 3.07 0 0 0 1.08-3.64 4.2 4.2 0 0 0 2.52-2.41c.42-1.68-.87-3.11-2.1-4-.77-.49-.49-1.44-.63-2.21-.27-2.9-2-5.38-3.45-7.79 0-2.23 1.22-4.23 2.51-6a22 22 0 0 0 4.7.51zm-4.42 20.79c.28-1.29.56-2.59.84-3.84.49.63 1.26 1.29 1.12 2.2-.31.87-1.22 1.22-2 1.64zm19.15-39.34c1 1.43 2.9 1.92 4.09 3.18 2.1 2.09 2.62 5.2 4.51 7.44.59.73 1.64.84 2.27 1.5a8.42 8.42 0 0 1 2.37 6.54 1 1 0 0 0 -.84-.81 5.64 5.64 0 0 0 -.07 1.54 15.62 15.62 0 0 0 -3.63-3.21c1.08 2.55 2.41 5.1 2.34 8a11 11 0 0 0 -1.36-1.19c0 .25-.1.77-.14 1a10.48 10.48 0 0 1 -3.88-5.1 15 15 0 0 0 -1.5 6.29c-.14-.14-.49-.46-.67-.6l-.45.42a7.6 7.6 0 0 1 -1.64-4c-.24-2 .17-4.26-1-6.08-.46-.81-1.44-1-2.21-1.29-.14-.91 0-2-.8-2.63-.63-.62-1.57-.35-2.34-.31-.21-.8-.31-1.78-1.05-2.27s-1.54-.11-2.23.07c-.95-1.47-.39-3.85-2.21-4.68a9.61 9.61 0 0 1 -6.56-7.76 11.72 11.72 0 0 0 3.14.42 5.35 5.35 0 0 1 -.07-.7c-2.09.14-4-.8-6.08-.84.74.35 1.5.6 2.27.88a13.94 13.94 0 0 1 0 1.71v-.28a14.85 14.85 0 0 0 2 3.77c-.32.46-.66.91-1 1.33-2.58 3.07-6.29 5.66-6.88 9.89 1.43-3.71 4.78-6.08 7.2-9.12l.07.07 1-1.57 2 1.64c-.38.52-.77 1.08-1.19 1.61a11.77 11.77 0 0 0 -2.48 3.63 31.67 31.67 0 0 0 3-3c.45-.59.87-1.18 1.32-1.81.77.38 1.58.63 2.31 1.08s.63 1.5.8 2.27c-1.32.77-1.95 2.24-3.11 3.18-2.2 1.92-4.71 3.56-6.63 5.83a17 17 0 0 0 -3.5 6.71 15.68 15.68 0 0 1 -2.09-5.7 9.3 9.3 0 0 0 1.5 6.36c1.85 3.11 4.4 6.29 4.05 10.14-.42 2.65-.77 5.44-2.24 7.79-2 3.25-5.13 5.59-7.3 8.73-1.85 2.59-3.28 5.87-2.44 9.05.9 3.78 4.47 6 6 9.5.31.67-.07 1.12-.66 1.37-1.86-1.54-3.36-3.39-5.07-5.07 1.19 2.62 2.69 5.2 2.87 8.18-.32-.39-.6-.74-.91-1.09-.07.28-.21.88-.28 1.16a13.94 13.94 0 0 1 -4.86-7.17c-.45 2.45.7 4.93 0 7.34-.14.14-.49.42-.63.59-1.15-2.23-3.18-3.81-4.57-5.86a10.23 10.23 0 0 1 -1.19-7.45c.21-1.22.77-2.41.94-3.63a9.6 9.6 0 0 0 -1.4-4.89c2.14-1.26 1.82-4.09 1.4-6.15 1.47.17 3.39 0 4.12-1.47.67-2.06 2.17-3.81 2.31-6s-1-4.41-2.41-6.15c-1.61 1.4-3.42 2.51-5.14 3.77-.56.39-.45 1.12-.49 1.68 0 1.57-.1 3.28-1.22 4.54-.52-1.22-1-2.87-2.51-3.21a8.66 8.66 0 0 1 -5.94-.6 5.47 5.47 0 0 1 -2.55-4.23c-.32-3.42.66-6.78 1.15-10.13.14-1.15.21-2.65-1-3.28-1.47-.56-3 0-4.47.31a8.28 8.28 0 0 1 6.18-5.38c-2.37-1.15-3.81-3.42-5.2-5.55a14.34 14.34 0 0 1 6.18.94c.52-.18.59-.49.17-.87a10.65 10.65 0 0 1 -2.51-7.48c1.4 1.54 2.69 3.21 4.58 4.16-.91-2.73-.49-5.63-.67-8.42 1.4 2.48 1.78 5.66 4.27 7.4 1.6-2.34 3.59-4.47 4.36-7.26a8.68 8.68 0 0 0 -1.85-7.76c-1.08-1.15-2.86-2.06-4.4-1.29-1 .42-1.36 1.47-2 2.23-.53-1.67-.81-3.74.28-5.24.87-1.25 2.41-1.67 3.73-2.16a22.16 22.16 0 0 1 -6.6-2.31 6.16 6.16 0 0 1 -2.65-3.07c-1.12-3.22-.35-7-2.31-9.89 3.81 1.47 4 6.6 7.62 8.31a2.87 2.87 0 0 1 1.6-2.51 5.13 5.13 0 0 0 2.49-3 10.14 10.14 0 0 1 1 5 3.39 3.39 0 0 0 1.19 2.55 18.73 18.73 0 0 1 5.8 13.83 30.42 30.42 0 0 1 -4.55 14.62c-1.39 2.45-3 4.71-4.54 7.06a32.59 32.59 0 0 0 -4.82 14.95c-.07 1.44 0 3.25 1.43 4a3.39 3.39 0 0 0 3.53-1 21.81 21.81 0 0 0 5.42-7.16c.8-1.78.94-3.78 1.71-5.59 1.92-4.61 4.75-8.74 7.3-13 4.16-7.65 4.86-17.4.7-25.19 4.93-3.24 9.58-7.3 15.27-11.74 2.23 1.08 4.78 1.54 6.88 2.94 2.31 1.53 3.36 4.22 4 6.77a11.08 11.08 0 0 1 -.56 8 13.19 13.19 0 0 0 -1.71-2.1 21.65 21.65 0 0 0 2.17 4.33c1.75 3.13 2.22 6.79 4.4 9.66zm11.78-24a.87.87 0 0 1 -.81-.77.63.63 0 0 1 1-.11c.26.35.19.63-.12.84zm11.39 3.66c-1.61-1.92-3.78-4-6.47-3.7.21 1.57.8 3.36-.56 4.58-.14-.6-.24-1.19-.35-1.78-.73.28-.59 1.11-.69 1.74-.7-.62-1.61-1.22-1.75-2.2-.11-1.46.42-3.14-.56-4.36-.77-.84-2-.32-2.62.34-1.57 1.12-1.89 3.15-2.17 4.9-.63-.18-1.43-.56-2 0-1.05 1-1 2.62-1.12 4-.8-.45-1.53-1.26-2.55-1.11-1.08.9-.07 2.44.21 3.56-.73 0-1.64-.18-2.2.49s-.31 1.82-.35 2.72c-.52.32-1 .63-1.47 1-.41.74-.83 1.47-1.18 2.24-.53-1.08-1.09-2.13-1.68-3.18 2.2-4 1.22-8.88-.6-12.82.67 0 1.37-.11 2.07-.14a24.92 24.92 0 0 0 9.05-3.92c1.64-.9 3.32-2.13 5.27-2.16 1.19 0 2 1 3.11 1.29s1.89-.52 2.83-.73c1.29.07 2.1 1.22 2.66 2.23a7.18 7.18 0 0 0 -2.56-.21l-.06.39c3.22.51 6.25 3.4 5.77 6.79zm2.16-7.33a52.31 52.31 0 0 1 -5.55-5.59c-1.51 1.6-3.78 1.95-5.77 2.69-.52.28-1.08-.07-1.61-.18a40.7 40.7 0 0 0 .74-6.18 1 1 0 0 0 -1.08-1c-1.75-.14-3.46.17-5.21 0a12.32 12.32 0 0 1 1.47-3.63c1.29-2.17 2.65-4.27 4.08-6.36 2.14 0 4.2-.74 6.33-.56.94.7-.14 2.13.35 3.07a7.09 7.09 0 0 0 3.32 1.68c.52.14.73.66 1 1.05 1.68 2.45 3.42 4.82 5.07 7.3-1.01 2.57-2.06 5.12-3.11 7.72zm38.29 2.55c-.24 2.1-.38 4.57-2.2 6 .46-1.85.49-4-.77-5.55-1.64-2-4.47-2.34-6.91-2.17-3.64.28-6.33 3.11-8.56 5.73-3.25 3.91-6.54 8.11-11.25 10.31-3.11-4.37-5.38-9.54-5.49-15a25.33 25.33 0 0 1 1.19-7.93c1.54 2.13 3 4.3 4.54 6.43a31.57 31.57 0 0 0 6.81-3.88c1.16-.87 1.75-2.24 2.76-3.21a40.08 40.08 0 0 1 6.15-4.9 6 6 0 0 0 4.58-1.15 10.54 10.54 0 0 0 2-4.47c.87 1.33 2.62 1.95 3 3.6 2.05 5.14 4.57 10.45 4.18 16.15zm-3.45-16.67a44.54 44.54 0 0 0 4.19 1.82c.7-3.21 1.61-6.6.7-9.85a46.08 46.08 0 0 0 10.2 1.95c2 3.25 4.58 6.22 5.52 10-1.78.14-3.53-.17-5.28 0a1.09 1.09 0 0 0 -1 1.25 44.61 44.61 0 0 0 .73 5.77c-.63.21-1.26.59-1.92.24-1.89-.66-4-1-5.45-2.58a37.43 37.43 0 0 1 -3.64 3.81 53.63 53.63 0 0 0 -4.02-12.45zm15 17.93c-.21-.39.17-.7.31-1l.07.38.77-.14c-.23.26-.58.96-1.1.72zm12 12.71a3.87 3.87 0 0 0 -.38-2.72c-.52-.66-1.43-.49-2.17-.53.32-1 1-2.3.46-3.38-1-.56-2 .52-2.83 1-.11-1.36-.07-3-1.09-4-.56-.63-1.36-.21-2 0-.25-1.68-.53-3.64-2-4.75-.66-.63-1.75-1.33-2.62-.67-1.12 1.08-.73 2.79-.73 4.23.07 1.12-1 1.81-1.71 2.51-.18-.66 0-1.53-.81-1.78 0 .6-.07 1.15-.1 1.75-1.72-1-.84-3-.77-4.51-2.69-.24-4.82 1.75-6.4 3.7-.59-3.52 2.76-6.53 6.05-6.91-.91-.7-2-.25-3-.07a3.57 3.57 0 0 1 2.78-2.38c1 .17 1.82 1 2.87.76 1.19-.42 2.13-1.51 3.46-1.33 1.92.21 3.53 1.36 5.13 2.3a25.38 25.38 0 0 0 8.88 3.78c.7.07 1.4.1 2.1.14-1.93 3.94-2.8 8.8-.63 12.82-.6 1-1.16 2.09-1.68 3.14-.35-.73-.81-1.46-1.19-2.2-.54-.31-1.03-.62-1.52-.94zm18.24 58.7a3 3 0 0 1 -1.33 3.6c-3.25 1.68-7.33 1.61-10.09 4.26-1.4 1.61-3.67 1.82-5.59 2.45-.11-.21-.32-.7-.42-.91-.21.17-.6.59-.81.77.7-1.82 2.62-2.83 3.18-4.72a35.92 35.92 0 0 1 -6.18.84c-.11-.31-.25-.66-.35-1 1.47-1 2.83-2.31 4.61-2.72a17.18 17.18 0 0 1 2.69-.46 4.36 4.36 0 0 0 -2.83-.17c-1.47.24-2.9.42-4.33.73 0-.21-.07-.59-.11-.8 2.42-1.92 5.66-1.82 8.6-2a3 3 0 0 0 2.55-3c.24-3-.46-6-.84-9-.52-3.42-1.43-6.95-.42-10.37a9.26 9.26 0 0 1 6.74-6.54 4.11 4.11 0 0 1 1.44.07 17.48 17.48 0 0 0 4.85-.45 12 12 0 0 1 2.52 5.34c.21.63-.31 1.12-.59 1.61-1.75 2.58-3.18 5.59-3 8.8h-.35c-1.19 1-2.55 2.2-2.35 3.88.18 1.36 1.44 2.16 2.59 2.72a3.09 3.09 0 0 0 1.08 3.64 2.93 2.93 0 0 0 -1.16 3.39zm.91-8.28c-.87-.31-1.89-.84-2-1.85a4.64 4.64 0 0 1 1.16-1.92c.37 1.21.62 2.47.94 3.73zm2.38 4.4c-1-.38-2.7-1.5-1.68-2.69.52.91 1.08 1.78 1.68 2.69zm36.37-22.5c-1.47-.28-3-.91-4.51-.28-1.05.53-1.12 1.89-1 2.94.49 3.77 1.78 7.61 1 11.42a5.12 5.12 0 0 1 -4.12 3.92 10.8 10.8 0 0 1 -4.2-.07c-1.43.38-2 2-2.48 3.25-1.46-1.65-1-3.92-1.39-5.87-1.65-1.58-3.78-2.59-5.45-4.16-1.3 1.68-2.52 3.6-2.42 5.8-.07 2.34 1.58 4.22 2.31 6.36.7 1.53 2.66 1.67 4.12 1.5-.42 2.06-.73 4.89 1.4 6.15-.94 1.85-1.92 4-1.12 6.08a12.75 12.75 0 0 1 .39 8c-1 3.11-4.05 4.85-5.45 7.72a1.07 1.07 0 0 1 -.74-.84c-.52-2.37.46-4.72.11-7.09-.53 1.05-.77 2.2-1.4 3.21a18.53 18.53 0 0 1 -3.42 4.06c-.07-.28-.14-.88-.18-1.16a6.11 6.11 0 0 0 -1.12 1c.21-2.93 1.68-5.49 2.9-8.11-1.71 1.61-3.18 3.46-5 5-.32-.21-.63-.42-1-.63 1.19-3.8 5.14-6.08 6.15-10 .87-3-.28-6.11-2-8.59-2.13-3.39-5.45-5.84-7.62-9.19-1.57-2.38-1.88-5.28-2.34-8-.31-3.36 1.65-6.33 3.39-9 1.4-2.13 2.73-4.76 2.06-7.41a12.91 12.91 0 0 1 -2 5.63 16.87 16.87 0 0 0 -3.07-6.15c-1.92-2.45-4.54-4.23-6.92-6.19-1.19-1.05-1.89-2.55-3.25-3.39.18-.77.14-1.68.77-2.23a24.58 24.58 0 0 1 2.31-1.12c.52.7 1 1.39 1.57 2.06a26 26 0 0 0 2.79 2.76 11.87 11.87 0 0 0 -2.51-3.67 16.39 16.39 0 0 1 -1.16-1.61c.67-.52 1.3-1 1.93-1.6.35.52.73 1 1.08 1.5 2.48 3 5.8 5.41 7.27 9.12-.56-4.27-4.37-6.82-6.89-9.92-.31-.42-.66-.84-1-1.26a17.13 17.13 0 0 0 1.95-3.78c0-.48 0-1 0-1.46.77-.28 1.53-.53 2.27-.88-2 0-4 1-6 .84a5.66 5.66 0 0 0 -.07.67 12.53 12.53 0 0 0 3.15-.35 9.42 9.42 0 0 1 -4.65 6.84c-1.08.67-2.65.81-3.14 2.14a14.36 14.36 0 0 1 -1 3.42c-.69-.21-1.53-.53-2.2 0s-.84 1.43-1 2.23c-.81 0-1.75-.31-2.38.31s-.67 1.72-.77 2.63c-.8.31-1.78.48-2.24 1.32-1.29 2-.63 4.51-1.08 6.71a8.09 8.09 0 0 1 -1.5 3.29l-.49-.39c-.18.18-.56.45-.73.63a14.33 14.33 0 0 0 -1.44-6.36 10.07 10.07 0 0 1 -3.91 5.14c0-.25-.1-.77-.14-1a6.84 6.84 0 0 0 -1.29 1.23c-.14-2.9 1.22-5.45 2.3-8a16 16 0 0 0 -3.67 3.21 5.65 5.65 0 0 0 0-1.54 1 1 0 0 0 -.87.81 8.53 8.53 0 0 1 2.55-6.68c.73-.59 1.78-.77 2.3-1.57 1.68-2.16 2.27-5 4.13-7 1.22-1.4 3.21-1.85 4.29-3.39 1.72-2.31 2.38-5.1 3.46-7.69.84-2.16 2.41-4 3.11-6.25a14.66 14.66 0 0 0 -1.75 2.1 11.34 11.34 0 0 1 -.52-8c.7-2.65 1.82-5.41 4.23-7 2.06-1.19 4.44-1.75 6.6-2.69 5.14 3.64 10 8.16 15.38 11.67-4.16 7.79-3.46 17.54.66 25.16 2.58 4.33 5.48 8.49 7.37 13.2.77 1.75.87 3.67 1.68 5.42a21.41 21.41 0 0 0 5.17 6.95 3.73 3.73 0 0 0 3.49 1.29c1.26-.41 1.71-1.88 1.68-3.07a30.43 30.43 0 0 0 -2.62-11.88c-1.64-4-4.51-7.23-6.57-10.94-2.94-4.92-5-10.55-4.68-16.31a18.73 18.73 0 0 1 5.98-12.75 3.67 3.67 0 0 0 1-3.07 12.84 12.84 0 0 1 .84-4.3 18.41 18.41 0 0 0 1.05 1.75 31 31 0 0 0 2.55 2.06c.45.45.45 1.18.7 1.78 3.49-1.85 3.74-6.85 7.51-8.32-1.85 2.87-1.22 6.47-2.2 9.61a6.1 6.1 0 0 1 -2.73 3.32 24.88 24.88 0 0 1 -6.64 2.34 6.83 6.83 0 0 1 3.57 1.92c1.33 1.54 1 3.71.45 5.49-.63-1.12-1.47-2.45-2.93-2.55a5 5 0 0 0 -4.44 3.07 8.31 8.31 0 0 0 -.56 7.1c.91 2.37 2.66 4.33 4.09 6.42 2.48-1.74 2.83-5 4.26-7.4-.24 2.79.28 5.73-.7 8.42a16.24 16.24 0 0 0 4.58-4.16 10.67 10.67 0 0 1 -2.8 7.83c.11.13.32.45.42.59a13.82 13.82 0 0 1 6.26-1.05c-1.43 2.1-2.76 4.54-5.24 5.49a8.74 8.74 0 0 1 6.23 5.45z" fill="#00205c"/><path d="m228.8 239s0 0 .07 0-.07 0-.07 0" fill="#0860aa" fill-rule="evenodd"/><path d="m225.69 241.72h.11a1 1 0 0 0 -.21.1z" fill="#cfd2d3" fill-rule="evenodd"/><path d="m248.37 244.27a.13.13 0 0 0 .07 0 .13.13 0 0 1 -.07 0" fill="#0860aa" fill-rule="evenodd"/><path d="m260.28 244.2s0 0 0 .07 0 0 0-.07" fill="#0860aa" fill-rule="evenodd"/><path d="m245.12 245.07.38-.1.25.21a5 5 0 0 1 -.7.21z" fill="#0860aa" fill-rule="evenodd"/><path d="m261 245.56a.15.15 0 0 1 0 .07.15.15 0 0 0 0-.07" fill="#0860aa" fill-rule="evenodd"/><path d="m230.58 248.11s0-.06 0-.06 0 0 0 .06" fill="#0860aa" fill-rule="evenodd"/><path d="m237.19 249.48s0 0 0 0" fill="#0860aa" fill-rule="evenodd"/><path d="m255.74 259.3s0 0 0-.07 0 .07 0 .07" fill="#0860aa" fill-rule="evenodd"/><path d="m248.44 168.86a7.51 7.51 0 1 1 -8 7.49 7.75 7.75 0 0 1 8-7.49z" fill="#194f90" stroke="#194f90" stroke-miterlimit="22.93"/><path d="m248.7 173c1.73-.89 3.34-1 4-.21s.27 2.38-.91 3.93c.93 1.76 1.1 3.37.29 4s-2.36.23-3.93-1c-1.73.89-3.33 1-4 .21s-.28-2.38.9-3.93c-.92-1.76-1.09-3.37-.29-4.05s2.36-.22 3.93 1" fill="#cfd2d3" fill-rule="evenodd"/><path d="m127.34 168.86a7.51 7.51 0 1 1 -8 7.49 7.75 7.75 0 0 1 8-7.49z" fill="#ffc557" stroke="#ffc557" stroke-miterlimit="22.93"/><path d="m127.6 173c1.74-.89 3.34-1 4-.21s.28 2.38-.9 3.93c.92 1.76 1.09 3.37.29 4s-2.37.23-3.94-1c-1.73.89-3.33 1-4 .21s-.28-2.38.9-3.93c-.92-1.76-1.09-3.37-.29-4.05s2.37-.22 3.93 1" fill="#cfd2d3" fill-rule="evenodd"/><path d="m113.29 167.12a1.08 1.08 0 1 1 -1.12 1.08 1.09 1.09 0 0 1 1.12-1.08" fill="#cfd2d3" fill-rule="evenodd"/><path d="m262.86 167.7a1.08 1.08 0 1 0 1.11 1.08 1.09 1.09 0 0 0 -1.11-1.08" fill="#cfd2d3" fill-rule="evenodd"/><path d="m195.87 126.18c0 1.11-.06 2.21-.06 3.32" fill="none" stroke="#00205c" stroke-miterlimit="22.93" stroke-width=".13"/><path d="m208.28 90.6v-7.49h-12.28v7.5l1.23 2.12h-15.33l1.17-2.14v-7.48h-12.28v7.5l1.43 2.46v14.85l-1.63 2.56v5.07h.82v4.84c16.6-5.23 36.47-.14 36.47-.14v-4.25h.42v-5.69l-1.39-2.54v-14.62z" fill="#cfd2d3"/><path d="m208.28 90.6v-7.49h-12.28v7.5l1.23 2.12h-15.33l1.17-2.14v-7.48h-12.28v7.5l1.43 2.46v14.85l-1.63 2.56v5.07h1.06v-4.49h10.52v2.94h.9v-3.64l-.25-.46h13.37l-.39.61v4.25h1.07v-3.67h10.52v5h.89v-5.69l-1.39-2.54v-14.71zm-11.21-6.43h1.76v2h1.17v-2h1.84v2h1.16v-2h1.75v2h1.06v-2h1.6v5.5h-10.34zm-25.22 0h1.68v2h1.16v-2h1.84v2h1.15v-2h1.75v2h1.15v-2h1.59v5.5h-10.32zm.24 6.56h9.91l-1.06 1.93h-7.71zm8.69 3v13.74h-7.49v-13.74zm-8.63 16.27.95-1.48h8l.81 1.48zm10.08-1.19-.56-1v-14h2.22v2h1.18v-2h2.29v2h1.15v-2h2.29v2h1.2v-2h2.29v2h1.06v-2h2.05v14.13l-.57.89zm24.85 1.19h-9.71l.95-1.48h8zm-8.58-2.54v-13.73h7.5v13.74zm7.63-14.81h-7.7l-1.12-1.93h9.88z" fill="#00205c"/><path d="m175.44 99.09h.95v2 1.14h1.19v-3.14h.92v-.09c0-.38 0-.76 0-1.14h-.05v-.16h-.92v-1.23-.1h-1.16v.43.93h-.93v.16 1.11z" fill="#00205c"/><path d="m190.13 99.63h-1.15v1.36h-.96v1.36h.96v3.2h1.15v-3.2h.96v-1.36h-.96z" fill="#00205c"/><path d="m202.78 96.3h-1.15v1.36h-.96v1.36h.96v3.2h1.15v-3.2h.95v-1.36h-.95z" fill="#00205c"/><path d="m152.72 265.08a83 83 0 0 1 -23.82-15.46l.91 9.45-8.63 1.71a95.16 95.16 0 0 0 27.09 17.63z" fill="#ffc557" stroke="#00205c" stroke-miterlimit="10" stroke-width="1.03"/><path d="m222.42 264.61a82.88 82.88 0 0 0 23.82-15.46l-.91 9.45 8.62 1.71a94.76 94.76 0 0 1 -27.08 17.63z" fill="#ffc557" stroke="#00205c" stroke-miterlimit="10" stroke-width="1.03"/><path d="m187.15 279.78a86.87 86.87 0 0 1 -43.37-11.69l5.48-12.8a75.4 75.4 0 0 0 76.62-.48l5.6 12.73a86.92 86.92 0 0 1 -44.33 12.24z" fill="#ffc557" stroke="#00205c" stroke-miterlimit="10" stroke-width="1.03"/><path d="m231.7 267.52-4.8 10.4" fill="#ffc557" stroke="#00205c" stroke-miterlimit="10" stroke-width="1.03"/><path d="m148.4 278.51-4.8-10.4" fill="#ffc557" stroke="#00205c" stroke-miterlimit="10" stroke-width="1.03"/><path d="m176.69 267.86-.79 6.34a4.24 4.24 0 0 0 -.05.92.6.6 0 0 0 .23.35 1.27 1.27 0 0 0 .62.21h.18v.21l-4.08-.5v-.21h.2a1.63 1.63 0 0 0 .73 0 .55.55 0 0 0 .32-.28 3.21 3.21 0 0 0 .19-.92l.5-4a2.94 2.94 0 0 0 0-.68.51.51 0 0 0 -.16-.25.59.59 0 0 0 -.32-.14 1.91 1.91 0 0 0 -.73.1l-.07-.22 3-1z" fill="#00205c"/><path d="m192.9 272a4.19 4.19 0 0 1 1.2 1.06 2.2 2.2 0 0 1 .38 1.17 2.07 2.07 0 0 1 -.62 1.64 2.73 2.73 0 0 1 -1.9.75 2.5 2.5 0 0 1 -1.81-.47 1.85 1.85 0 0 1 -.41-2.47 3.23 3.23 0 0 1 1.17-.93 4.77 4.77 0 0 1 -1.24-1.09 2 2 0 0 1 -.32-1 1.8 1.8 0 0 1 .59-1.41 2.68 2.68 0 0 1 1.79-.7 2.52 2.52 0 0 1 1.74.44 1.64 1.64 0 0 1 .67 1.23 1.55 1.55 0 0 1 -.27 1 3 3 0 0 1 -.97.78zm-1.54 1a1.45 1.45 0 0 0 -.24.31 2.46 2.46 0 0 0 -.17.6 3.1 3.1 0 0 0 0 .81 2.4 2.4 0 0 0 .19.89 1 1 0 0 0 .42.51 1 1 0 0 0 1.22-.21 1.26 1.26 0 0 0 .22-.91c-.06-.71-.6-1.39-1.64-2zm1.09-1.27a2.15 2.15 0 0 0 .28-.66 3.38 3.38 0 0 0 .06-.79 1.85 1.85 0 0 0 -.38-1.13.85.85 0 0 0 -.69-.27.9.9 0 0 0 -.64.32.92.92 0 0 0 -.23.7 1.54 1.54 0 0 0 .35.86 4.17 4.17 0 0 0 1.25.96z" fill="#00205c"/><path d="m184.64 272a4.33 4.33 0 0 1 1.14 1.13 2.2 2.2 0 0 1 .32 1.2 2.05 2.05 0 0 1 -.72 1.59 2.72 2.72 0 0 1 -1.93.65 2.54 2.54 0 0 1 -1.79-.58 1.8 1.8 0 0 1 -.63-1.39 1.76 1.76 0 0 1 .37-1.1 3.3 3.3 0 0 1 1.22-.86 4.72 4.72 0 0 1 -1.18-1.16 2 2 0 0 1 -.26-1 1.77 1.77 0 0 1 .67-1.38 2.61 2.61 0 0 1 1.82-.59 2.53 2.53 0 0 1 1.72.53 1.64 1.64 0 0 1 .6 1.27 1.52 1.52 0 0 1 -.33 1 2.83 2.83 0 0 1 -1.02.69zm-1.59.92a1.21 1.21 0 0 0 -.25.29 2.07 2.07 0 0 0 -.21.59 4.07 4.07 0 0 0 -.1.8 2.64 2.64 0 0 0 .14.91 1 1 0 0 0 .39.53 1 1 0 0 0 .53.16.94.94 0 0 0 .71-.3 1.22 1.22 0 0 0 .29-.85 2.76 2.76 0 0 0 -1.5-2.15zm1.16-1.21a2.08 2.08 0 0 0 .32-.65 2.73 2.73 0 0 0 .1-.78 1.71 1.71 0 0 0 -.32-1.15.8.8 0 0 0 -.66-.3.9.9 0 0 0 -.66.27 1 1 0 0 0 -.27.7 1.57 1.57 0 0 0 .3.87 4.17 4.17 0 0 0 1.19 1.02z" fill="#00205c"/><path d="m198.74 272v-.2a3.83 3.83 0 0 0 .86-.47 1.36 1.36 0 0 0 .36-.56 1.43 1.43 0 0 0 .09-.7 1.11 1.11 0 0 0 -.46-.76 1.19 1.19 0 0 0 -.9-.23 1.62 1.62 0 0 0 -1.24 1l-.23-.05a3.48 3.48 0 0 1 .86-1.58 2.38 2.38 0 0 1 1.36-.67 1.87 1.87 0 0 1 1.39.3 1.57 1.57 0 0 1 .69 1.08 1.74 1.74 0 0 1 -.13.86 2.22 2.22 0 0 1 -.67.8 2.82 2.82 0 0 1 1.13.66 2 2 0 0 1 .52 1.15 2.79 2.79 0 0 1 -.59 2.17 3.28 3.28 0 0 1 -2.23 1.18 2.55 2.55 0 0 1 -1.48-.13.7.7 0 0 1 -.41-.54.63.63 0 0 1 .13-.48.59.59 0 0 1 .41-.24.74.74 0 0 1 .36 0 6.25 6.25 0 0 1 .72.41 1.74 1.74 0 0 0 1.1.31 1 1 0 0 0 .68-.44 1.25 1.25 0 0 0 .19-.88 2.29 2.29 0 0 0 -.75-1.37 2.9 2.9 0 0 0 -1.76-.62z" fill="#00205c"/><path d="m196.25 129.9s1.38 7-10.19 13.23c0 0-8.73 4.68-16.53 4.68a8.36 8.36 0 0 1 -6.06-1.84s.36-6.42 9.73-13.86c0 0 2.8-2.76 23.05-2.21z" fill="#cfd2d3" stroke="#00205c" stroke-miterlimit="10" stroke-width="1.02"/><path d="m210.48 114.89c-1.86-.52-3.77-1-5.67-1.37l-.52-.1-1 5.18c-1.59-.29-3.16-.52-4.71-.7l.6-5.3-.53-.06c-2-.25-4.12-.41-6.18-.49h-.53l-.2 5.35c-1.58-.06-3.17-.06-4.74 0l-.2-5.35h-.53c-2.06.08-4.14.24-6.18.49l-.53.06.6 5.31c-1.19.15-2.4.35-3.59.56-.37.06-.75.11-1.11.18l-1-5.23-.52.1c-1.9.39-3.81.85-5.68 1.37l-.51.14 4.77 17.88.51-.14a60.42 60.42 0 0 1 32.67 0l.52.14 4.78-17.91z" fill="#ffc557"/><path d="m210.48 114.89c-1.86-.52-3.77-1-5.67-1.37l-.52-.1-1 5.18c-1.59-.29-3.16-.52-4.71-.7l.6-5.3-.53-.06c-2-.25-4.12-.41-6.18-.49h-.53l-.2 5.35c-1.58-.06-3.17-.06-4.74 0l-.2-5.35h-.53c-2.06.08-4.14.24-6.18.49l-.53.06.6 5.31c-1.19.15-2.4.35-3.59.56-.37.06-.75.11-1.11.18l-1-5.23-.52.1c-1.9.39-3.81.85-5.68 1.37l-.51.14 4.77 17.88.51-.14a60.42 60.42 0 0 1 32.67 0l.52.14 4.78-17.91zm-33.08 4.68.57 4.48c-2.32.33-4.46.73-6.4 1.14l-1.14-4.28c2.11-.49 4.44-.91 6.97-1.34zm6.61 5.05.43 5a60.51 60.51 0 0 0 -7.57 1.08l-1.16-5.08c2.54-.41 5.29-.77 8.29-1zm-4.86-.73-.57-4.48a82.82 82.82 0 0 1 10.48-.78v4.55a88.43 88.43 0 0 0 -9.91.71zm11.1-5.27a75.53 75.53 0 0 1 10.1.73l-.56 4.41a76.9 76.9 0 0 0 -9.54-.59zm13 6.91-1.06 5.26a60.91 60.91 0 0 0 -6.54-1l.35-5.14a72.23 72.23 0 0 1 7.25.88zm-2.28-1.6.55-4.39a68.61 68.61 0 0 1 6.79 1.44l-1.1 4.12c-2.1-.5-4.21-.88-6.21-1.17zm-3-10.37-.48 4.22c-1.6-.16-3.17-.26-4.72-.32l.16-4.3c1.72.07 3.41.21 5.07.4zm-17.26 0c1.67-.19 3.36-.33 5-.4l.16 4.34q-2.43.12-4.71.36zm-7.12 1.14.8 4.14c-1.53.28-3 .58-4.31.9l-1.05-3.94c1.54-.41 3.07-.8 4.6-1.1zm-1.74 11.67c.84-.18 1.72-.36 2.65-.53l1.2 5.16c-.81.18-1.62.38-2.42.59zm17.49 3.06c-1.25 0-2.51 0-3.76.12l-.42-5a78.9 78.9 0 0 1 9.61 0l-.35 5.12c-1.65-.16-3.35-.24-5.04-.24zm16.1 2.14c-.71-.19-1.42-.36-2.13-.53l1.08-5.3q1.23.26 2.46.54zm3.14-11.77c-1.43-.38-2.86-.71-4.28-1l.79-4.11c1.52.32 3.06.69 4.56 1.1z" fill="#00205c"/><path d="m136.88 110.79s8.59 17.88 11.92 21.76a17.87 17.87 0 0 0 7.06 6l-.39-.05h-.19c-.74-.24-6.85-2.35-12.51-14z" fill="#00205c" fill-rule="evenodd"/><path d="m239.21 110.79s-8.59 17.88-11.91 21.76a17.94 17.94 0 0 1 -7.07 6l.39-.05h.19c.74-.24 6.85-2.35 12.51-14z" fill="#00205c" fill-rule="evenodd"/><path d="m77.89 95.74a5.75 5.75 0 0 0 2.85 1.15c1.5.06 3.05-.79 4.64-2.53a10.86 10.86 0 0 0 2-2.85 3.26 3.26 0 0 0 -.72-4.05 2.41 2.41 0 0 0 -2.42-.54 13.37 13.37 0 0 0 -3.59 2l-2.54 1.79a18.94 18.94 0 0 1 -5.74 3.11c-2.23.52-4.36-.14-6.4-2a8 8 0 0 1 -2.76-6.27c0-2.49 1.23-5.06 3.65-7.71a12.5 12.5 0 0 1 6.9-4.08 8.35 8.35 0 0 1 7.24 2.14l-3.79 4.17a4 4 0 0 0 -4.21-.75 7.71 7.71 0 0 0 -2.87 2.11 6.64 6.64 0 0 0 -1.83 3.36 2.9 2.9 0 0 0 1 2.74 2.41 2.41 0 0 0 2.58.5 17.16 17.16 0 0 0 3.37-2l4.17-2.86a12.44 12.44 0 0 1 4.78-2.17 6.88 6.88 0 0 1 5.93 2 8.1 8.1 0 0 1 2.72 6.51q-.12 3.9-3.78 7.92t-7.72 4.76a8.29 8.29 0 0 1 -7.23-2.29z" fill="#fff"/><path d="m99.62 50.66 3 4-6.73 5 13.83 18.5-4.72 3.55-13.86-18.51-6.76 5-3-4z" fill="#fff"/><path d="m138 59.77q-1.49 4.32-6.93 6.88t-9.72.95q-5.57-1.81-8.79-8.66t-1.07-12.29q1.48-4.32 6.93-6.88t9.72-1q5.49 1.68 8.77 8.66t1.09 12.34zm-5.14-2.3q.77-3.19-1.26-7.49t-5-5.73a6.67 6.67 0 0 0 -6.1 0 6.76 6.76 0 0 0 -3.94 4.75q-.78 3.21 1.24 7.5t5 5.73a6.77 6.77 0 0 0 6.12 0 6.69 6.69 0 0 0 3.9-4.76z" fill="#fff"/><path d="m145.1 33.68a11.6 11.6 0 0 1 7.69-5.24q6.84-1.5 11 2.34a10.28 10.28 0 0 1 3 4.71l-5.73 1.25a8 8 0 0 0 -2.06-2.66 6.36 6.36 0 0 0 -9.2 2.79q-1.22 2.91-.2 7.52c.67 3.08 1.8 5.24 3.38 6.5a6 6 0 0 0 5.24 1.26 5.54 5.54 0 0 0 4.07-3 8.88 8.88 0 0 0 .71-3.5l5.7-1.25a12.71 12.71 0 0 1 -2.16 8.12 11.2 11.2 0 0 1 -7.14 4.51 11.92 11.92 0 0 1 -10-1.77q-4.19-3.07-5.64-9.71-1.6-7.15 1.34-11.87z" fill="#fff"/><path d="m175.8 25.4 5.77-.09.19 11.56 10.66-11.74 7.58-.13-11.34 11.74 12.34 16.32-7.54.13-8.85-12.11-2.74 2.92.16 9.39-5.77.1z" fill="#fff"/><path d="m226.07 45.91c-1.89 1-4.32 1.22-7.31.6l-5.76-1.17-2 9.88-5.71-1.17 5.71-27.5 11.75 2.45a9.71 9.71 0 0 1 6.07 3.46q2 2.63 1.08 7.09c-.67 3.22-1.9 5.35-3.83 6.36zm-2.35-10.8a4.67 4.67 0 0 0 -2.87-1.54l-5.18-1.07-1.67 8.1 5.18 1.06a4.47 4.47 0 0 0 3.26-.36 4.11 4.11 0 0 0 1.73-2.91 3.85 3.85 0 0 0 -.45-3.28z" fill="#fff"/><path d="m252 66.39q-4.24 1.69-9.74-.74t-7.07-6.73q-2.19-5.41.81-12.32t8.6-8.84q4.23-1.71 9.74.74t7.07 6.73q2.31 5.27-.83 12.31t-8.58 8.85zm-1.58-5.39c1.94-1 3.56-3 4.84-5.85s1.65-5.37 1.1-7.5a6.69 6.69 0 0 0 -4-4.61 6.79 6.79 0 0 0 -6.12.09c-2 1-3.58 2.95-4.87 5.84s-1.64 5.4-1.07 7.53a6.79 6.79 0 0 0 4 4.61 6.69 6.69 0 0 0 6.12-.11z" fill="#fff"/><path d="m290 62.1a7 7 0 0 1 .93 3.14 8.73 8.73 0 0 1 -.28 2.74 7.8 7.8 0 0 1 -1.34 2.67 8.41 8.41 0 0 1 -3.16 2.55 5.65 5.65 0 0 1 -4.31.2 5.24 5.24 0 0 1 .88 3.43 9.29 9.29 0 0 1 -2 4l-1.13 1.51a14.56 14.56 0 0 0 -1.44 2.18 2.38 2.38 0 0 0 -.08 1.93l-.42.57-5.19-3.87a14.84 14.84 0 0 1 .59-1.43 13.12 13.12 0 0 1 1.25-2.09l1.52-2.12c1.06-1.45 1.52-2.59 1.4-3.42a4.7 4.7 0 0 0 -2.14-2.71l-4.56-3.38-6.52 8.78-4.6-3.43 16.78-22.5 10.76 8a12.07 12.07 0 0 1 3.06 3.25zm-12.2-3.92-4.51 6.05 5.07 3.77a6.71 6.71 0 0 0 2.54 1.32 3.17 3.17 0 0 0 3.22-1.54q1.53-2 .76-3.71a5.78 5.78 0 0 0 -1.88-2z" fill="#fff"/><path d="m316.46 87.71-3.7 3.29-5.61-6.24-17.15 15.47-4-4.39 17.2-15.44-5.64-6.28 3.7-3.32z" fill="#fff"/><path d="m88.47 286.47a11.26 11.26 0 0 1 8.53 3.06q5.11 4.53 4.46 10a9.79 9.79 0 0 1 -2 5.06l-4.28-3.79a7.81 7.81 0 0 0 .93-3.15 5.67 5.67 0 0 0 -2.21-4.34 5.56 5.56 0 0 0 -5.25-1.31q-3 .71-6 4.15t-3.18 6.39a5.82 5.82 0 0 0 2 4.85 5.39 5.39 0 0 0 4.66 1.51 8.72 8.72 0 0 0 3.16-1.44l4.25 3.77a12.3 12.3 0 0 1 -7.64 2.95 10.91 10.91 0 0 1 -7.64-3 11.62 11.62 0 0 1 -4.35-8.93q0-5.06 4.42-10 4.73-5.39 10.14-5.78z" fill="#fff"/><path d="m115.15 332.51q-4.28 1.25-9.36-1.67t-6.2-7.22q-1.66-5.46 2-11.85t9.2-7.74q4.27-1.23 9.37 1.68t6.19 7.21q1.72 5.32-2 11.85t-9.2 7.74zm-1-5.38c2-.79 3.74-2.52 5.27-5.19s2.12-5.06 1.8-7.17a6.52 6.52 0 0 0 -3.44-4.86 6.6 6.6 0 0 0 -5.94-.51q-3 1.17-5.29 5.18c-1.53 2.68-2.12 5.07-1.78 7.19a6.6 6.6 0 0 0 3.46 4.86 6.5 6.5 0 0 0 5.88.5z" fill="#fff"/><path d="m134.5 314.16 5.5 1.84-5.21 16a9.45 9.45 0 0 0 -.64 4.12q.27 2.51 3.57 3.59t5-.79a9.64 9.64 0 0 0 1.91-3.71l5.21-16 5.52 1.8-5.22 16a14 14 0 0 1 -3.39 6q-3.78 3.45-10.52 1.25t-7.77-7.26a14.1 14.1 0 0 1 .83-6.88z" fill="#fff"/><path d="m161.38 322.24 6 .65 8.68 20.11 2.07-19 5.3.58-3 27.19-5.68-.62-9-20.5-2.04 19.35-5.29-.58z" fill="#fff"/><path d="m210.13 322.81.4 4.82-8.15.69 1.9 22.43-5.73.48-1.9-22.42-8.19.69-.41-4.82z" fill="#fff"/><path d="m230.05 317.56 6.24-1.75-4.18 18.93 2.78 9.87-5.5 1.55-2.78-9.87-13.74-13.89 6.48-1.83 8.7 9.93z" fill="#fff"/><path d="m249.58 309.63 16.77-10 2.45 4.14-11.88 7.06 3.21 5.4 10.42-6.18 2.42 4.08-10.41 6.19 5.86 9.86-4.89 2.9z" fill="#fff"/><path d="m273.34 297.75a11.23 11.23 0 0 1 4.08-8.09q5.11-4.5 10.48-3.2a9.89 9.89 0 0 1 4.78 2.6l-4.29 3.77a7.9 7.9 0 0 0 -3-1.3 5.64 5.64 0 0 0 -4.58 1.65 5.57 5.57 0 0 0 -1.95 5.07c.22 2 1.35 4.21 3.37 6.51s4 3.62 5.95 3.95a5.88 5.88 0 0 0 5.07-1.41 5.33 5.33 0 0 0 2.06-4.44 8.43 8.43 0 0 0 -1-3.31l4.26-3.75a12.3 12.3 0 0 1 2 7.94 10.94 10.94 0 0 1 -4 7.21 11.62 11.62 0 0 1 -9.39 3.22c-3.34-.43-6.48-2.3-9.39-5.62q-4.79-5.37-4.45-10.8z" fill="#fff"/><circle cx="208.79" cy="236.88" fill="#fff" r="14.38"/><path d="m221.87 230.9a14.38 14.38 0 0 0 -27.46 6 14.6 14.6 0 0 0 .12 1.88 14.37 14.37 0 0 0 4.09 8.29 14.8 14.8 0 0 0 2 1.69 14.28 14.28 0 0 0 7.57 2.51h.57a14.37 14.37 0 0 0 14.35-13.52c0-.28 0-.57 0-.86a14.29 14.29 0 0 0 -1.24-5.99zm.38 6.61v.12c-.05 1-1.61 3-2.34 3.86l-3.18-1.4a34.24 34.24 0 0 0 -1.15-5.82l2.31-3.87a8.74 8.74 0 0 1 3 1.32l.1.06a13.3 13.3 0 0 1 1.26 5.73zm-5.88 2.63a29.24 29.24 0 0 1 -4.19 3.76 25.51 25.51 0 0 1 -5.54-1.57l-1.29-5.71 4.3-4.16 5.59 1.95a32.26 32.26 0 0 1 1.13 5.73zm-2-16.12a14.08 14.08 0 0 1 7.08 6.8l-.37.61a8.86 8.86 0 0 0 -3.14-1.36 9.75 9.75 0 0 0 -3.77-4.15zm-10.37-.31a14 14 0 0 1 10 .16l-.22 1.95h-.21a18.22 18.22 0 0 0 -4.74 1.2c-1.37-1.17-4.08-1.22-4.82-1.21zm-4.7 6.49c.23-.36 2.31-3.44 4.55-4 .28 0 3.39-.08 4.76 1.14l.79 4.87-4.29 4.15a32.7 32.7 0 0 0 -5.17-1.2 22.78 22.78 0 0 1 -.63-4.96zm-4.43 8.41a13.92 13.92 0 0 1 1.54-8.32c1.82-.47 2.36-.25 2.5-.15a23 23 0 0 0 .65 5.08 10 10 0 0 0 -1.9 4.64 9.07 9.07 0 0 1 -2.12 0zm5.88 9.76a14.11 14.11 0 0 1 -5.12-6.62v-1.49a9.69 9.69 0 0 0 2.09 0c.49 1.65 3.26 3.95 3.79 4.39a8 8 0 0 0 1 3.74 10.33 10.33 0 0 1 -1.75-.02zm7.65 1.73s-1.86.09-5.45-1.7l-.05-.1c-.28-.55-1.19-2.47-1-3.61l4.59-2a25.18 25.18 0 0 0 5.58 1.58l1 3.82c-.4.38-2.39 2.16-4.5 2.06h-.17zm.38.8h-.21v-.42h.19c2.26 0 4.26-1.86 4.6-2.19 3.35-.3 4.65-1.25 5-1.61l.21.19a14 14 0 0 1 -9.78 4.03zm10.08-4.29-.24-.21a9.57 9.57 0 0 0 1.51-4.6c.33-.38 2.22-2.61 2.45-4l.17.12a13.91 13.91 0 0 1 -3.88 8.69z" fill="#e1251b"/><circle cx="209.03" cy="236.84" fill="none" r="14.22" stroke="#00205c" stroke-miterlimit="10" stroke-width=".82"/></svg>