<svg xmlns="http://www.w3.org/2000/svg" width="461.024" height="540.336" xmlns:xlink="http://www.w3.org/1999/xlink"><pattern width="69" height="69" x="-67.897" y="689.985" patternUnits="userSpaceOnUse" viewBox="2.125 -70.896 69 69" overflow="visible"><path fill="none" d="M71.13-1.9h-69v-69h69z"/><path fill="#F7C158" d="M71.13-1.9h-69v-69h69z"/><g fill="#fff"><path d="M61.77-71.65c.02.07 0 .12-.02.2-.06.1-.12.05-.17.1-.05.08-.1.3-.08.38-.17.05 0 .22 0 .35-.02.05-.05.1-.06.16 0 .12.02.26.07.37.1.2.28.42.44.55.2.15.37.57.6.63.2.04.4-.1.56-.14.18-.04.4 0 .57-.05.22-.1.12-.35.28-.46.1-.08.3 0 .4-.05.2-.08.35-.28.4-.47 0-.1 0-.15.03-.23.03-.1.1-.16.1-.3-.02-.05-.07-.1-.08-.18-.02-.1 0-.22 0-.33 0-.2.02-.4-.08-.56-.38-.7-1.23-.93-1.97-.8-.18.04-.3.13-.44.22-.16.08-.13.16-.3.22-.1.03-.23.12-.23.22 0 .12 0 .05.02.17-.03 0-.03 0-.04-.02M54.1-71.65c.02.07 0 .12-.02.2-.05.1-.1.05-.17.1-.04.08-.1.3-.07.38-.16.05 0 .22 0 .35 0 .05-.05.1-.06.16 0 .12.02.26.07.37.1.2.27.42.44.55.2.15.36.57.6.63.18.04.4-.1.55-.14.18-.04.4 0 .57-.05.22-.1.13-.35.3-.46.1-.08.27 0 .4-.05.2-.08.33-.28.37-.47.02-.1 0-.15.04-.23.05-.1.12-.16.1-.3 0-.05-.05-.1-.07-.18-.02-.1 0-.22 0-.33 0-.2.02-.4-.07-.56-.38-.7-1.24-.93-1.98-.8-.18.04-.3.13-.44.22-.17.08-.14.16-.32.22-.08.03-.2.12-.2.22 0 .12 0 .05 0 .17-.02 0-.02 0-.03-.02M46.44-71.65c.02.07 0 .12-.03.2-.04.1-.1.05-.15.1-.05.08-.1.3-.08.38-.17.05 0 .22-.02.35 0 .05-.04.1-.04.16 0 .12.03.26.08.37.1.2.26.42.43.55.2.15.38.57.62.63.18.04.38-.1.54-.14.18-.04.4 0 .57-.05.23-.1.13-.35.3-.46.1-.08.28 0 .4-.05.2-.08.34-.28.37-.47.02-.1 0-.15.04-.23.04-.1.1-.16.1-.3-.02-.05-.06-.1-.07-.18-.02-.1 0-.22 0-.33 0-.2.02-.4-.08-.56-.4-.7-1.25-.93-1.98-.8-.18.04-.3.13-.45.22-.17.08-.14.16-.3.22-.1.03-.23.12-.23.22 0 .12 0 .05 0 .17 0 0 0 0-.02-.02M38.77-71.65c.02.07 0 .12-.02.2-.06.1-.12.05-.17.1-.05.08-.1.3-.08.38-.17.05 0 .22 0 .35-.02.05-.05.1-.06.16 0 .12.02.26.07.37.1.2.28.42.44.55.2.15.37.57.6.63.2.04.4-.1.56-.14.18-.04.4 0 .57-.05.22-.1.12-.35.28-.46.1-.08.3 0 .4-.05.2-.08.35-.28.4-.47 0-.1 0-.15.03-.23.03-.1.1-.16.1-.3-.02-.05-.07-.1-.08-.18-.02-.1 0-.22 0-.33 0-.2.02-.4-.08-.56-.38-.7-1.23-.93-1.97-.8-.18.04-.3.13-.44.22-.16.08-.13.16-.3.22-.1.03-.23.12-.23.22 0 .12 0 .05.02.17-.04 0-.04 0-.04-.02M31.1-71.65c.02.07 0 .12-.02.2-.05.1-.1.05-.17.1-.04.08-.08.3-.06.38-.17.05 0 .22-.02.35 0 .05-.04.1-.04.16-.02.12 0 .26.06.37.1.2.27.42.44.55.2.15.36.57.6.63.18.04.4-.1.55-.14.18-.04.4 0 .57-.05.22-.1.13-.35.3-.46.1-.08.27 0 .4-.05.2-.08.33-.28.37-.47.02-.1 0-.15.04-.23.05-.1.12-.16.1-.3 0-.05-.05-.1-.07-.18-.02-.1 0-.22 0-.33 0-.2.02-.4-.07-.56-.38-.7-1.24-.93-1.98-.8-.18.04-.3.13-.44.22-.17.08-.14.16-.32.22-.08.03-.2.12-.2.22 0 .12 0 .05 0 .17-.02 0-.02 0-.03-.02M23.44-71.65c.02.07 0 .12-.03.2-.04.1-.1.05-.15.1-.05.08-.1.3-.08.38-.17.05 0 .22-.02.35 0 .05-.04.1-.04.16 0 .12.03.26.08.37.1.2.26.42.43.55.2.15.38.57.62.63.18.04.38-.1.54-.14.18-.04.4 0 .57-.05.23-.1.13-.35.3-.46.1-.08.28 0 .4-.05.2-.08.34-.28.37-.47.02-.1 0-.15.04-.23.04-.1.1-.16.1-.3-.02-.05-.06-.1-.07-.18-.02-.1 0-.22 0-.33 0-.2.02-.4-.08-.56-.4-.7-1.24-.93-1.98-.8-.18.04-.3.13-.45.22-.17.08-.13.16-.3.22-.1.03-.23.12-.23.22 0 .12 0 .05 0 .17 0 0 0 0-.02-.02M15.77-71.65c.02.07 0 .12-.02.2-.06.1-.12.05-.17.1-.05.08-.1.3-.08.38-.17.05 0 .22 0 .35 0 .05-.05.1-.06.16 0 .12.02.26.07.37.1.2.28.42.44.55.2.15.37.57.6.63.2.04.4-.1.56-.14.18-.04.4 0 .57-.05.22-.1.12-.35.28-.46.1-.08.3 0 .4-.05.2-.08.35-.28.4-.47 0-.1 0-.15.03-.23.04-.1.1-.16.1-.3-.02-.05-.07-.1-.08-.18-.02-.1 0-.22 0-.33 0-.2.02-.4-.08-.56-.38-.7-1.23-.93-1.97-.8-.18.04-.3.13-.44.22-.16.08-.13.16-.3.22-.1.03-.23.12-.23.22 0 .12 0 .05.02.17-.03 0-.03 0-.04-.02M8.1-71.65c.02.07 0 .12-.02.2-.05.1-.1.05-.17.1-.04.08-.08.3-.06.38-.17.05 0 .22-.02.35 0 .05-.04.1-.04.16 0 .12 0 .26.06.37.1.2.27.42.44.55.2.15.36.57.6.63.18.04.4-.1.55-.14.18-.04.4 0 .57-.05.22-.1.13-.35.3-.46.1-.08.27 0 .4-.05.2-.08.33-.28.37-.47.02-.1 0-.15.04-.23.05-.1.12-.16.1-.3 0-.05-.05-.1-.06-.18-.03-.1 0-.22 0-.33 0-.2 0-.4-.08-.56-.38-.7-1.24-.93-1.98-.8-.18.04-.28.13-.44.22-.17.08-.14.16-.32.22-.08.03-.2.12-.2.22 0 .12 0 .05 0 .17-.02 0-.02 0-.03-.02M.44-71.65c.02.07 0 .12-.03.2-.04.1-.1.05-.15.12-.05.06-.1.27-.08.36-.17.05 0 .22-.02.35 0 .05-.04.1-.04.16 0 .12.03.26.08.37.1.2.27.42.43.55.2.15.38.57.62.63.18.05.38-.1.54-.14.18-.04.4 0 .57-.05.23-.1.13-.35.3-.46.1-.08.28 0 .4-.05.2-.08.34-.28.37-.47.02-.1 0-.15.04-.23.04-.1.1-.16.1-.3-.02-.05-.06-.1-.07-.18-.02-.1 0-.22 0-.33 0-.2.02-.4-.08-.56-.4-.7-1.25-.93-1.98-.8-.18.04-.3.13-.45.22-.17.08-.14.16-.3.22-.1.03-.23.12-.23.22 0 .12 0 .05 0 .17 0 0 0 0-.02-.02"/></g><path fill="#fff" d="M69.44-71.65c.02.07 0 .12-.03.2-.04.1-.1.05-.15.1-.05.08-.1.3-.08.38-.17.05 0 .22-.02.35 0 .05-.04.1-.04.16 0 .12.03.26.08.37.1.2.26.42.43.55.2.15.38.57.62.63.18.04.38-.1.54-.14.18-.04.4 0 .57-.05.23-.1.13-.35.3-.46.1-.08.28 0 .4-.05.2-.08.34-.28.37-.47.02-.1 0-.15.04-.23.04-.1.1-.16.1-.3-.02-.05-.06-.1-.07-.18-.02-.1 0-.22 0-.33 0-.2.02-.4-.08-.56-.4-.7-1.24-.93-1.98-.8-.18.04-.3.13-.45.22-.17.08-.13.16-.3.22-.1.03-.23.12-.23.22 0 .12 0 .05 0 .17 0 0 0 0-.02-.02M.5-71.65c0 .07 0 .12-.03.2-.05.1-.1.05-.17.1-.05.08-.1.3-.08.38-.16.05 0 .22 0 .35 0 .05-.05.1-.06.16 0 .12.02.26.07.37.1.2.27.42.44.55.2.15.36.57.6.63.18.04.4-.1.55-.14.18-.04.4 0 .57-.05.2-.1.12-.35.28-.46.1-.08.28 0 .4-.05.2-.08.34-.28.38-.47.02-.1 0-.15.04-.23.04-.1.1-.16.1-.3-.02-.05-.06-.1-.08-.18-.02-.1 0-.22 0-.33 0-.2.02-.4-.07-.56-.38-.7-1.24-.93-1.98-.8-.18.04-.3.13-.44.22-.17.08-.14.16-.32.22-.07.03-.2.12-.2.22 0 .12 0 .06 0 .17 0 0 0 0-.02-.02"/><g fill="#fff"><path d="M69.44-64c.02.07 0 .13-.03.2-.04.1-.1.05-.15.12-.05.06-.1.27-.08.36-.17.06 0 .23-.02.35 0 .05-.04.1-.04.16 0 .1.03.26.08.36.1.2.26.4.43.54.2.15.38.58.62.63.18.05.38-.1.54-.14.18-.05.4 0 .57-.06.23-.08.13-.34.3-.45.1-.1.28-.02.4-.06.2-.07.34-.27.37-.46.02-.08 0-.15.04-.22.04-.1.1-.16.1-.3-.02-.06-.06-.12-.07-.18-.02-.12 0-.23 0-.34 0-.2.02-.38-.08-.55-.4-.7-1.24-.94-1.98-.8-.18.03-.3.13-.45.2-.17.1-.13.17-.3.23-.1.03-.23.13-.23.23s0 .05 0 .16c0 .02 0 0-.02-.02M61.78-64c.02.07 0 .13-.03.2-.05.1-.1.05-.16.12-.06.06-.1.27-.1.36-.16.06 0 .23 0 .35 0 .05-.05.1-.05.16 0 .1 0 .26.07.36.1.2.26.4.43.54.2.15.37.58.6.63.2.05.4-.1.55-.14.18-.05.4 0 .57-.06.22-.08.13-.34.3-.45.1-.1.28-.02.4-.06.2-.07.34-.27.37-.46.02-.08 0-.15.04-.22.04-.1.1-.16.1-.3-.02-.06-.06-.12-.07-.18 0-.12 0-.23 0-.34 0-.2.03-.38-.07-.55-.38-.7-1.24-.94-1.98-.8-.17.03-.28.13-.44.2-.16.1-.13.17-.3.23-.1.03-.22.13-.22.23s0 .05 0 .16c0 .02 0 0-.02-.02M54.12-64c.02.07 0 .13-.03.2-.06.1-.12.05-.17.12-.05.06-.1.27-.08.36-.17.06 0 .23-.02.35 0 .05-.04.1-.04.16-.02.1 0 .26.06.36.1.2.26.4.43.54.18.15.36.58.6.63.18.05.38-.1.54-.14.18-.05.4 0 .57-.06.23-.08.14-.34.3-.45.1-.1.3-.02.4-.06.2-.07.35-.27.38-.46.02-.08 0-.15.04-.22.04-.1.1-.16.1-.3-.02-.06-.06-.12-.07-.18-.02-.12 0-.23 0-.34 0-.2 0-.38-.08-.55-.38-.7-1.24-.94-1.98-.8-.2.03-.3.13-.45.2-.17.1-.14.17-.32.23-.08.03-.2.13-.2.23s0 .05 0 .16c-.02.02-.02 0-.03-.02M46.46-64c.02.07 0 .13-.03.2-.05.1-.1.05-.16.12-.05.06-.1.27-.08.36-.18.06-.02.23-.03.35 0 .05-.04.1-.04.16 0 .1 0 .26.07.36.1.2.26.4.43.54.2.15.37.58.6.63.2.05.4-.1.55-.14.18-.05.4 0 .57-.06.22-.08.13-.34.3-.45.1-.1.28-.02.4-.06.2-.07.34-.27.37-.46.02-.08 0-.15.04-.22.04-.1.1-.16.1-.3-.02-.06-.06-.12-.07-.18-.03-.12 0-.23 0-.34-.02-.2 0-.38-.1-.55-.37-.7-1.23-.94-1.97-.8-.18.03-.28.13-.44.2-.18.1-.15.17-.33.23-.08.03-.2.13-.2.23s0 .05 0 .16c-.02.02-.02 0-.03-.02M38.8-64c0 .07 0 .13-.03.2-.05.1-.1.05-.16.12-.04.06-.1.27-.07.36-.17.06 0 .23-.02.35 0 .05-.03.1-.03.16 0 .1 0 .26.06.36.1.2.27.4.44.54.2.15.36.58.6.63.18.05.4-.1.55-.14.18-.05.4 0 .57-.06.2-.08.12-.34.28-.45.1-.1.3-.02.4-.06.2-.07.34-.27.38-.46.02-.08 0-.15.04-.22.04-.1.1-.16.1-.3-.02-.06-.06-.12-.07-.18-.03-.12 0-.23 0-.34 0-.2 0-.38-.08-.55-.38-.7-1.24-.94-1.98-.8-.18.03-.28.13-.44.2-.17.1-.14.17-.32.23-.07.03-.2.13-.2.23s0 .05 0 .16c0 .02 0 0-.02-.02M31.14-64c0 .07 0 .13-.03.2-.04.1-.1.05-.15.12-.05.06-.1.27-.08.36-.17.06 0 .23-.02.35 0 .05-.04.1-.04.16 0 .1.02.26.07.36.1.2.27.4.44.54.2.15.37.58.62.63.17.05.38-.1.54-.14.18-.05.4 0 .57-.06.22-.08.13-.34.3-.45.1-.1.28-.02.4-.06.2-.07.33-.27.37-.46.02-.08 0-.15.04-.22.04-.1.1-.16.1-.3-.02-.06-.06-.12-.07-.18-.03-.12 0-.23 0-.34 0-.2 0-.38-.08-.55-.4-.7-1.25-.94-2-.8-.17.03-.27.13-.43.2-.17.1-.14.17-.32.23-.08.03-.2.13-.2.23s0 .05 0 .16c-.02.02-.02 0-.03-.02M23.48-64c0 .07 0 .13-.03.2-.05.1-.1.05-.16.12-.06.06-.1.27-.1.36-.16.06 0 .23 0 .35 0 .05-.05.1-.05.16 0 .1 0 .26.06.36.1.2.28.4.45.54.2.15.36.58.6.63.18.05.4-.1.55-.14.18-.05.4 0 .57-.06.22-.08.13-.34.3-.45.1-.1.28-.02.4-.06.2-.07.33-.27.37-.46.02-.08 0-.15.04-.22.04-.1.1-.16.1-.3-.02-.06-.06-.12-.07-.18 0-.12 0-.23 0-.34 0-.2.02-.38-.07-.55-.38-.7-1.24-.94-1.98-.8-.18.03-.28.13-.44.2-.16.1-.13.17-.3.23-.1.03-.22.13-.22.23s0 .05 0 .16c0 .02 0 0-.02-.02M15.82-64c0 .07 0 .13-.03.2-.06.1-.12.05-.17.12-.05.06-.1.27-.08.36-.17.06 0 .23-.02.35 0 .05-.04.1-.04.16-.02.1 0 .26.05.36.1.2.27.4.44.54.18.15.35.58.6.63.17.05.38-.1.54-.14.18-.05.4 0 .57-.06.23-.08.14-.34.3-.45.1-.1.3-.02.4-.06.2-.07.34-.27.38-.46.02-.08 0-.15.04-.22.04-.1.1-.16.1-.3-.02-.06-.06-.12-.07-.18-.03-.12 0-.23 0-.34 0-.2 0-.38-.08-.55-.38-.7-1.24-.94-1.98-.8-.2.03-.3.13-.45.2-.17.1-.14.17-.32.23-.08.03-.2.13-.2.23s0 .05 0 .16c-.02.02-.02 0-.03-.02M8.16-64c0 .07 0 .13-.03.2-.05.1-.1.05-.17.12-.04.06-.1.27-.07.36-.18.06-.02.23-.03.35 0 .05-.04.1-.04.16 0 .1 0 .26.06.36.1.2.26.4.43.54.2.15.36.58.6.63.18.05.4-.1.55-.14.18-.05.4 0 .57-.06.22-.08.13-.34.3-.45.1-.1.28-.02.4-.06.2-.07.33-.27.37-.46.02-.08 0-.15.04-.22.04-.1.1-.16.1-.3-.02-.06-.06-.12-.07-.18-.04-.12 0-.23 0-.34-.02-.2 0-.38-.1-.55-.37-.7-1.23-.94-1.97-.8-.18.03-.28.13-.44.2-.18.1-.15.17-.33.23-.08.03-.2.13-.2.23s0 .05 0 .16c-.02.02-.02 0-.03-.02M.5-64c0 .07 0 .13-.03.2-.05.1-.1.05-.17.12-.05.06-.1.27-.08.36-.16.06 0 .23 0 .35 0 .05-.05.1-.06.16 0 .1.02.26.07.36.1.2.27.4.44.54.2.15.36.58.6.63.18.05.4-.1.55-.14.18-.05.4 0 .57-.06.2-.08.12-.34.28-.45.1-.08.3-.02.4-.06.2-.07.34-.26.38-.46.02-.08 0-.15.04-.22.04-.1.1-.16.1-.3-.02-.06-.06-.12-.07-.18-.03-.12 0-.23 0-.34 0-.2 0-.38-.08-.55-.38-.7-1.24-.94-1.98-.8-.18.04-.28.13-.44.2-.17.1-.14.17-.32.23-.07.03-.2.13-.2.23s0 .05 0 .17c0 0 0 0-.02-.03M69.44-56.35c.02.07 0 .13-.03.2-.04.1-.1.05-.15.12-.05.06-.1.28-.08.36-.17.06 0 .23-.02.35 0 .05-.04.1-.04.16 0 .12.03.27.08.37.1.2.26.43.43.56.2.14.38.57.62.63.18.03.38-.12.54-.16.18-.04.4 0 .57-.05.23-.1.13-.35.3-.46.1-.07.28 0 .4-.05.2-.08.34-.27.37-.47.02-.08 0-.14.04-.22.04-.1.1-.15.1-.28-.02-.07-.06-.12-.07-.2-.02-.1 0-.2 0-.33 0-.2.02-.4-.08-.56-.4-.68-1.24-.93-1.98-.8-.18.05-.3.14-.45.22-.17.1-.13.17-.3.22-.1.03-.23.13-.23.23 0 .12 0 .06 0 .18 0 0 0 0-.02-.03M61.78-56.35c.02.07 0 .13-.03.2-.05.1-.1.05-.16.12-.06.06-.1.28-.1.36-.16.06 0 .23 0 .35 0 .05-.05.1-.05.16 0 .12 0 .27.07.37.1.2.26.43.43.56.2.14.37.57.6.63.2.03.4-.12.55-.16.18-.04.4 0 .57-.05.22-.1.13-.35.3-.46.1-.07.28 0 .4-.05.2-.08.34-.27.37-.47.02-.08 0-.14.04-.22.04-.1.1-.15.1-.28-.02-.07-.06-.12-.07-.2 0-.1 0-.2 0-.33 0-.2.03-.4-.07-.56-.38-.68-1.24-.93-1.98-.8-.17.05-.28.14-.44.22-.16.1-.13.17-.3.22-.1.03-.22.13-.22.23 0 .12 0 .06 0 .18 0 0 0 0-.02-.03M54.12-56.35c.02.07 0 .13-.03.2-.06.1-.12.05-.17.12-.05.06-.1.28-.08.36-.17.06 0 .23-.02.35 0 .05-.04.1-.04.16-.02.12 0 .27.06.37.1.2.26.43.43.56.18.14.36.57.6.63.18.03.38-.12.54-.16.18-.04.4 0 .57-.05.23-.1.14-.35.3-.46.1-.07.3 0 .4-.05.2-.08.35-.27.38-.47.02-.08 0-.14.04-.22.04-.1.1-.15.1-.28-.02-.07-.06-.12-.07-.2-.02-.1 0-.2 0-.33 0-.2 0-.4-.08-.56-.38-.68-1.24-.93-1.98-.8-.2.05-.3.14-.45.22-.17.1-.14.17-.32.22-.08.03-.2.13-.2.23 0 .12 0 .06 0 .18-.02 0-.02 0-.03-.03M46.46-56.35c.02.07 0 .13-.03.2-.05.1-.1.05-.16.12-.05.06-.1.28-.08.36-.18.06-.02.23-.03.35 0 .05-.04.1-.04.16 0 .12 0 .27.07.37.1.2.26.43.43.56.2.14.37.57.6.63.2.03.4-.12.55-.16.18-.04.4 0 .57-.05.22-.1.13-.35.3-.46.1-.07.28 0 .4-.05.2-.08.34-.27.37-.47.02-.08 0-.14.04-.22.04-.1.1-.15.1-.28-.02-.07-.06-.12-.07-.2-.03-.1 0-.2 0-.33-.02-.2 0-.4-.1-.56-.37-.68-1.23-.93-1.97-.8-.18.05-.28.14-.44.22-.18.1-.15.17-.33.22-.08.03-.2.13-.2.23 0 .12 0 .06 0 .18-.02 0-.02 0-.03-.03M38.8-56.35c0 .07 0 .13-.03.2-.05.1-.1.05-.16.12-.04.06-.1.28-.07.36-.17.06 0 .23-.02.35 0 .05-.03.1-.03.16 0 .12 0 .27.06.37.1.2.27.43.44.56.2.14.36.57.6.63.18.03.4-.12.55-.16.18-.04.4 0 .57-.05.2-.1.12-.35.28-.46.1-.07.3 0 .4-.05.2-.08.34-.27.38-.47.02-.08 0-.14.04-.22.04-.1.1-.15.1-.28-.02-.07-.06-.12-.07-.2-.03-.1 0-.2 0-.33 0-.2 0-.4-.08-.56-.38-.68-1.24-.93-1.98-.8-.18.05-.28.14-.44.22-.17.1-.14.17-.32.22-.07.03-.2.13-.2.23 0 .12 0 .06 0 .18 0 0 0 0-.02-.03M31.14-56.35c0 .07 0 .13-.03.2-.04.1-.1.05-.15.12-.05.06-.1.28-.08.36-.17.06 0 .23-.02.35 0 .05-.04.1-.04.16 0 .12.02.27.07.37.1.2.27.43.44.56.2.14.37.57.62.63.17.03.38-.12.54-.16.18-.04.4 0 .57-.05.22-.1.13-.35.3-.46.1-.07.28 0 .4-.05.2-.08.33-.27.37-.47.02-.08 0-.14.04-.22.04-.1.1-.15.1-.28-.02-.07-.06-.12-.07-.2-.03-.1 0-.2 0-.33 0-.2 0-.4-.08-.56-.4-.68-1.25-.93-2-.8-.17.05-.27.14-.43.22-.17.1-.14.17-.32.22-.08.03-.2.13-.2.23 0 .12 0 .06 0 .18-.02 0-.02 0-.03-.03M23.48-56.35c0 .07 0 .13-.03.2-.05.1-.1.05-.16.12-.06.06-.1.28-.1.36-.16.06 0 .23 0 .35 0 .05-.05.1-.05.16 0 .12 0 .27.06.37.1.2.28.43.45.56.2.14.36.57.6.63.18.03.4-.12.55-.16.18-.04.4 0 .57-.05.22-.1.13-.35.3-.46.1-.07.28 0 .4-.05.2-.08.33-.27.37-.47.02-.08 0-.14.04-.22.04-.1.1-.15.1-.28-.02-.07-.06-.12-.07-.2 0-.1 0-.2 0-.33 0-.2.02-.4-.07-.56-.38-.68-1.24-.93-1.98-.8-.18.05-.28.14-.44.22-.16.1-.13.17-.3.22-.1.03-.22.13-.22.23 0 .12 0 .06 0 .18 0 0 0 0-.02-.03M15.82-56.35c0 .07 0 .13-.03.2-.06.1-.12.05-.17.12-.05.06-.1.28-.08.36-.17.06 0 .23-.02.35 0 .05-.04.1-.04.16-.02.12 0 .27.05.37.1.2.27.43.44.56.18.14.35.57.6.63.17.03.38-.12.54-.16.18-.04.4 0 .57-.05.23-.1.14-.35.3-.46.1-.07.3 0 .4-.05.2-.08.34-.27.38-.47.02-.08 0-.14.04-.22.04-.1.1-.15.1-.28-.02-.07-.06-.12-.07-.2-.03-.1 0-.2 0-.33 0-.2 0-.4-.08-.56-.38-.68-1.24-.93-1.98-.8-.2.05-.3.14-.45.22-.17.1-.14.17-.32.22-.08.03-.2.13-.2.23 0 .12 0 .06 0 .18-.02 0-.02 0-.03-.03M8.16-56.35c0 .07 0 .13-.03.2-.05.1-.1.05-.17.12-.04.06-.1.28-.07.36-.18.06-.02.23-.03.35 0 .05-.04.1-.04.16 0 .12 0 .27.06.37.1.2.26.43.43.56.2.14.36.57.6.63.18.03.4-.12.55-.16.18-.04.4 0 .57-.05.22-.1.13-.35.3-.46.1-.07.28 0 .4-.05.2-.08.33-.27.37-.47.02-.08 0-.14.04-.22.04-.1.1-.15.1-.28-.02-.07-.06-.12-.07-.2-.04-.1 0-.2 0-.33-.02-.2 0-.4-.1-.56-.37-.68-1.23-.93-1.97-.8-.18.05-.28.14-.44.22-.18.1-.15.17-.33.22-.08.03-.2.13-.2.23 0 .12 0 .06 0 .18-.02 0-.02 0-.03-.03M.5-56.35c0 .07 0 .13-.03.2-.05.1-.1.05-.17.12-.05.06-.1.28-.08.36-.16.06 0 .23 0 .35 0 .05-.05.1-.06.16 0 .12.02.27.07.37.1.2.27.43.44.56.2.14.36.57.6.63.18.03.4-.12.55-.16.18-.04.4 0 .57-.05.2-.1.12-.35.28-.46.1-.07.28 0 .4-.05.2-.08.34-.27.38-.47.02-.08 0-.14.04-.22.04-.1.1-.15.1-.28-.02-.07-.06-.12-.08-.2-.02-.1 0-.2 0-.33 0-.2.02-.4-.07-.56-.38-.68-1.24-.93-1.98-.8-.18.05-.3.14-.44.22-.17.1-.14.17-.32.22-.07.03-.2.13-.2.23 0 .13 0 .06 0 .18 0 0 0 0-.02-.03M69.44-48.7c.02.08 0 .13-.03.2-.04.1-.1.06-.15.12-.05.07-.1.28-.08.37-.17.04 0 .2-.02.33 0 .06-.04.1-.04.17 0 .12.03.26.08.37.1.2.26.4.43.54.2.16.38.58.62.64.18.04.38-.1.54-.14.18-.05.4 0 .57-.06.23-.07.13-.33.3-.45.1-.08.28-.02.4-.06.2-.07.34-.26.37-.46.02-.08 0-.14.04-.22.04-.1.1-.16.1-.3-.02-.05-.06-.1-.07-.18-.02-.1 0-.22 0-.33 0-.2.02-.38-.08-.55-.4-.7-1.24-.93-1.98-.8-.18.04-.3.13-.45.2-.17.1-.13.18-.3.24-.1.02-.23.12-.23.22 0 .12 0 .05 0 .17 0 0 0 0-.02-.02M61.78-48.7c.02.08 0 .13-.03.2-.05.1-.1.06-.16.12-.06.07-.1.28-.1.37-.16.04 0 .2 0 .33 0 .06-.05.1-.05.17 0 .12 0 .26.07.37.1.2.26.4.43.54.2.16.37.58.6.64.2.04.4-.1.55-.14.18-.05.4 0 .57-.06.22-.07.13-.33.3-.45.1-.08.28-.02.4-.06.2-.07.34-.26.37-.46.02-.08 0-.14.04-.22.04-.1.1-.16.1-.3-.02-.05-.06-.1-.07-.18 0-.1 0-.22 0-.33 0-.2.03-.38-.07-.55-.38-.7-1.24-.93-1.98-.8-.17.04-.28.13-.44.2-.16.1-.13.18-.3.24-.1.02-.22.12-.22.22 0 .12 0 .05 0 .17 0 0 0 0-.02-.02M54.12-48.7c.02.08 0 .13-.03.2-.06.1-.12.06-.17.12-.05.07-.1.28-.08.37-.17.04 0 .2-.02.33 0 .06-.04.1-.04.17-.02.12 0 .26.06.37.1.2.26.4.43.54.18.16.36.58.6.64.18.04.38-.1.54-.14.18-.05.4 0 .57-.06.23-.07.14-.33.3-.45.1-.08.3-.02.4-.06.2-.07.35-.26.38-.46.02-.08 0-.14.04-.22.04-.1.1-.16.1-.3-.02-.05-.06-.1-.07-.18-.02-.1 0-.22 0-.33 0-.2 0-.38-.08-.55-.38-.7-1.24-.93-1.98-.8-.2.04-.3.13-.45.2-.17.1-.14.18-.32.24-.08.02-.2.12-.2.22 0 .12 0 .05 0 .17-.02 0-.02 0-.03-.02M46.46-48.7c.02.08 0 .13-.03.2-.05.1-.1.06-.16.12-.05.07-.1.28-.08.37-.18.04-.02.2-.03.33 0 .06-.04.1-.04.17 0 .12 0 .26.07.37.1.2.26.4.43.54.2.16.37.58.6.64.2.04.4-.1.55-.14.18-.05.4 0 .57-.06.22-.07.13-.33.3-.45.1-.08.28-.02.4-.06.2-.07.34-.26.37-.46.02-.08 0-.14.04-.22.04-.1.1-.16.1-.3-.02-.05-.06-.1-.07-.18-.03-.1 0-.22 0-.33-.02-.2 0-.38-.1-.55-.37-.7-1.23-.93-1.97-.8-.18.04-.28.13-.44.2-.18.1-.15.18-.33.24-.08.02-.2.12-.2.22 0 .12 0 .05 0 .17-.02 0-.02 0-.03-.02M38.8-48.7c0 .08 0 .13-.03.2-.05.1-.1.06-.16.12-.04.07-.1.28-.07.37-.17.04 0 .2-.02.33 0 .06-.03.1-.03.17 0 .12 0 .26.06.37.1.2.27.4.44.54.2.16.36.58.6.64.18.04.4-.1.55-.14.18-.05.4 0 .57-.06.2-.07.12-.33.28-.45.1-.08.3-.02.4-.06.2-.07.34-.26.38-.46.02-.08 0-.14.04-.22.04-.1.1-.16.1-.3-.02-.05-.06-.1-.07-.18-.03-.1 0-.22 0-.33 0-.2 0-.38-.08-.55-.38-.7-1.24-.93-1.98-.8-.18.04-.28.13-.44.2-.17.1-.14.18-.32.24-.07.02-.2.12-.2.22 0 .12 0 .05 0 .17 0 0 0 0-.02-.02M31.14-48.7c0 .08 0 .13-.03.2-.04.1-.1.06-.15.12-.05.07-.1.28-.08.37-.17.04 0 .2-.02.33 0 .06-.04.1-.04.17 0 .12.02.26.07.37.1.2.27.4.44.54.2.16.37.58.62.64.17.04.38-.1.54-.14.18-.05.4 0 .57-.06.22-.07.13-.33.3-.45.1-.08.28-.02.4-.06.2-.07.33-.26.37-.46.02-.08 0-.14.04-.22.04-.1.1-.16.1-.3-.02-.05-.06-.1-.07-.18-.03-.1 0-.22 0-.33 0-.2 0-.38-.08-.55-.4-.7-1.25-.93-2-.8-.17.04-.27.13-.43.2-.17.1-.14.18-.32.24-.08.02-.2.12-.2.22 0 .12 0 .05 0 .17-.02 0-.02 0-.03-.02M23.48-48.7c0 .08 0 .13-.03.2-.05.1-.1.06-.16.12-.06.07-.1.28-.1.37-.16.04 0 .2 0 .33 0 .06-.05.1-.05.17 0 .12 0 .26.06.37.1.2.28.4.45.54.2.16.36.58.6.64.18.04.4-.1.55-.14.18-.05.4 0 .57-.06.22-.07.13-.33.3-.45.1-.08.28-.02.4-.06.2-.07.33-.26.37-.46.02-.08 0-.14.04-.22.04-.1.1-.16.1-.3-.02-.05-.06-.1-.07-.18 0-.1 0-.22 0-.33 0-.2.02-.38-.07-.55-.38-.7-1.24-.93-1.98-.8-.18.04-.28.13-.44.2-.16.1-.13.18-.3.24-.1.02-.22.12-.22.22 0 .12 0 .05 0 .17 0 0 0 0-.02-.02M15.82-48.7c0 .08 0 .13-.03.2-.06.1-.12.06-.17.12-.05.07-.1.28-.08.37-.17.04 0 .2-.02.33 0 .06-.04.1-.04.17-.02.12 0 .26.05.37.1.2.27.4.44.54.18.16.35.58.6.64.17.04.38-.1.54-.14.18-.05.4 0 .57-.06.23-.07.14-.33.3-.45.1-.08.3-.02.4-.06.2-.07.34-.26.38-.46.02-.08 0-.14.04-.22.04-.1.1-.16.1-.3-.02-.05-.06-.1-.07-.18-.03-.1 0-.22 0-.33 0-.2 0-.38-.08-.55-.38-.7-1.24-.93-1.98-.8-.2.04-.3.13-.45.2-.17.1-.14.18-.32.24-.08.02-.2.12-.2.22 0 .12 0 .05 0 .17-.02 0-.02 0-.03-.02M8.16-48.7c0 .08 0 .13-.03.2-.05.1-.1.06-.17.12-.04.07-.1.28-.07.37-.18.04-.02.2-.03.33 0 .06-.04.1-.04.17 0 .12 0 .26.06.37.1.2.26.4.43.54.2.16.36.58.6.64.18.04.4-.1.55-.14.18-.05.4 0 .57-.06.22-.07.13-.33.3-.45.1-.08.28-.02.4-.06.2-.07.33-.26.37-.46.02-.08 0-.14.04-.22.04-.1.1-.16.1-.3-.02-.05-.06-.1-.07-.18-.04-.1 0-.22 0-.33-.02-.2 0-.38-.1-.55-.37-.7-1.23-.93-1.97-.8-.18.04-.28.13-.44.2-.18.1-.15.18-.33.24-.08.02-.2.12-.2.22 0 .12 0 .05 0 .17-.02 0-.02 0-.03-.02M.5-48.7c0 .08 0 .13-.03.2-.05.1-.1.06-.17.12-.05.07-.1.28-.08.37-.16.04 0 .2 0 .33 0 .06-.05.1-.06.17 0 .12.02.26.07.37.1.2.27.4.44.54.2.16.36.58.6.64.18.04.4-.1.55-.14.18-.05.4 0 .57-.06.2-.07.12-.33.28-.45.1-.08.28-.02.4-.06.2-.07.34-.26.38-.46.02-.08 0-.14.04-.22.04-.1.1-.16.1-.3-.02-.05-.06-.1-.08-.18-.02-.1 0-.22 0-.33 0-.2.02-.38-.07-.55-.38-.7-1.24-.93-1.98-.8-.18.04-.3.13-.44.2-.17.1-.14.18-.32.24-.07.02-.2.12-.2.22 0 .12 0 .05 0 .17 0 0 0 0-.02-.02M69.44-41.04c.02.07 0 .12-.03.2-.04.1-.1.05-.15.12-.05.06-.1.27-.08.36-.17.06 0 .22-.02.35 0 .04-.04.1-.04.15 0 .12.03.27.08.37.1.2.26.4.43.54.2.15.38.57.62.63.18.04.38-.1.54-.15.18-.04.4 0 .57-.05.23-.08.13-.34.3-.45.1-.08.28 0 .4-.05.2-.07.34-.27.37-.46.02-.1 0-.15.04-.22.04-.1.1-.16.1-.3-.02-.06-.06-.12-.07-.18-.02-.12 0-.23 0-.34 0-.2.02-.38-.08-.55-.4-.7-1.24-.93-1.98-.8-.18.04-.3.14-.45.22-.17.08-.13.16-.3.22-.1.02-.23.1-.23.2 0 .13 0 .07 0 .18 0 0 0 0-.02-.02M61.78-41.04c.02.07 0 .12-.03.2-.05.1-.1.05-.16.12-.06.06-.1.27-.1.36-.16.06 0 .22 0 .35 0 .04-.05.1-.05.15 0 .12 0 .27.07.37.1.2.26.4.43.54.2.15.37.57.6.63.2.04.4-.1.55-.15.18-.04.4 0 .57-.05.22-.08.13-.34.3-.45.1-.08.28 0 .4-.05.2-.07.34-.27.37-.46.02-.1 0-.15.04-.22.04-.1.1-.16.1-.3-.02-.06-.06-.12-.07-.18 0-.12 0-.23 0-.34 0-.2.03-.38-.07-.55-.38-.7-1.24-.93-1.98-.8-.17.04-.28.14-.44.22-.16.08-.13.16-.3.22-.1.02-.22.1-.22.2 0 .13 0 .07 0 .18 0 0 0 0-.02-.02M54.12-41.04c.02.07 0 .12-.03.2-.06.1-.12.05-.17.12-.05.06-.1.27-.08.36-.17.06 0 .22-.02.35 0 .04-.04.1-.04.15-.02.12 0 .27.06.37.1.2.26.4.43.54.18.15.36.57.6.63.18.04.38-.1.54-.15.18-.04.4 0 .57-.05.23-.08.14-.34.3-.45.1-.08.3 0 .4-.05.2-.07.35-.27.38-.46.02-.1 0-.15.04-.22.04-.1.1-.16.1-.3-.02-.06-.06-.12-.07-.18-.02-.12 0-.23 0-.34 0-.2 0-.38-.08-.55-.38-.7-1.24-.93-1.98-.8-.2.04-.3.14-.45.22-.17.08-.14.16-.32.22-.08.02-.2.1-.2.2 0 .13 0 .07 0 .18-.02 0-.02 0-.03-.02M46.46-41.04c.02.07 0 .12-.03.2-.05.1-.1.05-.16.12-.05.06-.1.27-.08.36-.18.06-.02.22-.03.35 0 .04-.04.1-.04.15 0 .12 0 .27.07.37.1.2.26.4.43.54.2.15.37.57.6.63.2.04.4-.1.55-.15.18-.04.4 0 .57-.05.22-.08.13-.34.3-.45.1-.08.28 0 .4-.05.2-.07.34-.27.37-.46.02-.1 0-.15.04-.22.04-.1.1-.16.1-.3-.02-.06-.06-.12-.07-.18-.03-.12 0-.23 0-.34-.02-.2 0-.38-.1-.55-.37-.7-1.23-.93-1.97-.8-.18.04-.28.14-.44.22-.18.08-.15.16-.33.22-.08.02-.2.1-.2.2 0 .13 0 .07 0 .18-.02 0-.02 0-.03-.02M38.8-41.04c0 .07 0 .12-.03.2-.05.1-.1.05-.16.12-.04.06-.1.27-.07.36-.17.06 0 .22-.02.35 0 .04-.03.1-.03.15 0 .12 0 .27.06.37.1.2.27.4.44.54.2.15.36.57.6.63.18.04.4-.1.55-.15.18-.04.4 0 .57-.05.2-.08.12-.34.28-.45.1-.08.3 0 .4-.05.2-.07.34-.27.38-.46.02-.1 0-.15.04-.22.04-.1.1-.16.1-.3-.02-.06-.06-.12-.07-.18-.03-.12 0-.23 0-.34 0-.2 0-.38-.08-.55-.38-.7-1.24-.93-1.98-.8-.18.04-.28.14-.44.22-.17.08-.14.16-.32.22-.07.02-.2.1-.2.2 0 .13 0 .07 0 .18 0 0 0 0-.02-.02M31.14-41.04c0 .07 0 .12-.03.2-.04.1-.1.05-.15.12-.05.06-.1.27-.08.36-.17.06 0 .22-.02.35 0 .04-.04.1-.04.15 0 .12.02.27.07.37.1.2.27.4.44.54.2.15.37.57.62.63.17.04.38-.1.54-.15.18-.04.4 0 .57-.05.22-.08.13-.34.3-.45.1-.08.28 0 .4-.05.2-.07.33-.27.37-.46.02-.1 0-.15.04-.22.04-.1.1-.16.1-.3-.02-.06-.06-.12-.07-.18-.03-.12 0-.23 0-.34 0-.2 0-.38-.08-.55-.4-.7-1.25-.93-2-.8-.17.04-.27.14-.43.22-.17.08-.14.16-.32.22-.08.02-.2.1-.2.2 0 .13 0 .07 0 .18-.02 0-.02 0-.03-.02M23.48-41.04c0 .07 0 .12-.03.2-.05.1-.1.05-.16.12-.06.06-.1.27-.1.36-.16.06 0 .22 0 .35 0 .04-.05.1-.05.15 0 .12 0 .27.06.37.1.2.28.4.45.54.2.15.36.57.6.63.18.04.4-.1.55-.15.18-.04.4 0 .57-.05.22-.08.13-.34.3-.45.1-.08.28 0 .4-.05.2-.07.33-.27.37-.46.02-.1 0-.15.04-.22.04-.1.1-.16.1-.3-.02-.06-.06-.12-.07-.18 0-.12 0-.23 0-.34 0-.2.02-.38-.07-.55-.38-.7-1.24-.93-1.98-.8-.18.04-.28.14-.44.22-.16.08-.13.16-.3.22-.1.02-.22.1-.22.2 0 .13 0 .07 0 .18 0 0 0 0-.02-.02M15.82-41.04c0 .07 0 .12-.03.2-.06.1-.12.05-.17.12-.05.06-.1.27-.08.36-.17.06 0 .22-.02.35 0 .04-.04.1-.04.15-.02.12 0 .27.05.37.1.2.27.4.44.54.18.15.35.57.6.63.17.04.38-.1.54-.15.18-.04.4 0 .57-.05.23-.08.14-.34.3-.45.1-.08.3 0 .4-.05.2-.07.34-.27.38-.46.02-.1 0-.15.04-.22.04-.1.1-.16.1-.3-.02-.06-.06-.12-.07-.18-.03-.12 0-.23 0-.34 0-.2 0-.38-.08-.55-.38-.7-1.24-.93-1.98-.8-.2.04-.3.14-.45.22-.17.08-.14.16-.32.22-.08.02-.2.1-.2.2 0 .13 0 .07 0 .18-.02 0-.02 0-.03-.02M8.16-41.04c0 .07 0 .12-.03.2-.05.1-.1.05-.17.12-.04.06-.1.27-.07.36-.18.06-.02.22-.03.35 0 .04-.04.1-.04.15 0 .12 0 .27.06.37.1.2.26.4.43.54.2.15.36.57.6.63.18.04.4-.1.55-.15.18-.04.4 0 .57-.05.22-.08.13-.34.3-.45.1-.08.28 0 .4-.05.2-.07.33-.27.37-.46.02-.1 0-.15.04-.22.04-.1.1-.16.1-.3-.02-.06-.06-.12-.07-.18-.04-.12 0-.23 0-.34-.02-.2 0-.38-.1-.55-.37-.7-1.23-.93-1.97-.8-.18.04-.28.14-.44.22-.18.08-.15.16-.33.22-.08.02-.2.1-.2.2 0 .13 0 .07 0 .18-.02.02-.02 0-.03-.02M.5-41.04c0 .07 0 .12-.03.2-.05.1-.1.05-.17.12-.05.06-.1.27-.08.36-.16.06 0 .22 0 .35 0 .04-.05.1-.06.15 0 .12.02.27.07.37.1.2.27.4.44.54.2.15.36.57.6.63.18.04.4-.1.55-.15.18-.04.4 0 .57-.05.2-.08.12-.34.28-.45.1-.08.28 0 .4-.05.2-.07.34-.27.38-.46.02-.1 0-.15.04-.22.04-.1.1-.16.1-.3-.02-.06-.06-.12-.08-.18-.02-.12 0-.23 0-.34 0-.2.02-.38-.07-.55-.38-.7-1.24-.93-1.98-.8-.18.04-.3.14-.44.22-.17.08-.14.16-.32.22-.07.02-.2.1-.2.2 0 .13 0 .07 0 .18 0 0 0 0-.02-.02M69.44-33.4c.02.08 0 .14-.03.2-.04.1-.1.06-.15.13-.05.06-.1.27-.08.36-.17.05 0 .22-.02.34 0 .05-.04.1-.04.16 0 .12.03.27.08.37.1.2.26.4.43.55.2.14.38.57.62.63.18.04.38-.1.54-.15.18-.04.4 0 .57-.05.23-.08.13-.34.3-.45.1-.07.28 0 .4-.05.2-.07.34-.26.37-.46.02-.1 0-.16.04-.23.04-.1.1-.16.1-.3-.02-.06-.06-.1-.07-.18-.02-.13 0-.24 0-.35 0-.2.02-.38-.08-.55-.4-.7-1.24-.93-1.98-.8-.18.05-.3.14-.45.22-.17.1-.13.17-.3.22-.1.03-.23.13-.23.23s0 .05 0 .17c0 0 0 0-.02-.03M61.78-33.4c.02.08 0 .14-.03.2-.05.1-.1.06-.16.13-.06.06-.1.27-.1.36-.16.05 0 .22 0 .34 0 .05-.05.1-.05.16 0 .12 0 .27.07.37.1.2.26.4.43.55.2.14.37.57.6.63.2.04.4-.1.55-.15.18-.04.4 0 .57-.05.22-.08.13-.34.3-.45.1-.07.28 0 .4-.05.2-.07.34-.26.37-.46.02-.1 0-.16.04-.23.04-.1.1-.16.1-.3-.02-.06-.06-.1-.07-.18 0-.13 0-.24 0-.35 0-.2.03-.38-.07-.55-.38-.7-1.24-.93-1.98-.8-.17.05-.28.14-.44.22-.16.1-.13.17-.3.22-.1.03-.22.13-.22.23s0 .05 0 .17c0 0 0 0-.02-.03M54.12-33.4c.02.08 0 .14-.03.2-.06.1-.12.06-.17.13-.05.06-.1.27-.08.36-.17.05 0 .22-.02.34 0 .05-.04.1-.04.16-.02.12 0 .27.06.37.1.2.26.4.43.55.18.14.36.57.6.63.18.04.38-.1.54-.15.18-.04.4 0 .57-.05.23-.08.14-.34.3-.45.1-.07.3 0 .4-.05.2-.07.35-.26.38-.46.02-.1 0-.16.04-.23.04-.1.1-.16.1-.3-.02-.06-.06-.1-.07-.18-.02-.13 0-.24 0-.35 0-.2 0-.38-.08-.55-.38-.7-1.24-.93-1.98-.8-.2.05-.3.14-.45.22-.17.1-.14.17-.32.22-.08.03-.2.13-.2.23s0 .05 0 .17c-.02 0-.02 0-.03-.03M46.46-33.4c.02.08 0 .14-.03.2-.05.1-.1.06-.16.13-.05.06-.1.27-.08.36-.18.05-.02.22-.03.34 0 .05-.04.1-.04.16 0 .12 0 .27.07.37.1.2.26.4.43.55.2.14.37.57.6.63.2.04.4-.1.55-.15.18-.04.4 0 .57-.05.22-.08.13-.34.3-.45.1-.07.28 0 .4-.05.2-.07.34-.26.37-.46.02-.1 0-.16.04-.23.04-.1.1-.16.1-.3-.02-.06-.06-.1-.07-.18-.03-.13 0-.24 0-.35-.02-.2 0-.38-.1-.55-.37-.7-1.23-.93-1.97-.8-.18.05-.28.14-.44.22-.18.1-.15.17-.33.22-.08.03-.2.13-.2.23s0 .05 0 .17c-.02 0-.02 0-.03-.03M38.8-33.4c0 .08 0 .14-.03.2-.05.1-.1.06-.16.13-.04.06-.1.27-.07.36-.17.05 0 .22-.02.34 0 .05-.03.1-.03.16 0 .12 0 .27.06.37.1.2.27.4.44.55.2.14.36.57.6.63.18.04.4-.1.55-.15.18-.04.4 0 .57-.05.2-.08.12-.34.28-.45.1-.07.3 0 .4-.05.2-.07.34-.26.38-.46.02-.1 0-.16.04-.23.04-.1.1-.16.1-.3-.02-.06-.06-.1-.07-.18-.03-.13 0-.24 0-.35 0-.2 0-.38-.08-.55-.38-.7-1.24-.93-1.98-.8-.18.05-.28.14-.44.22-.17.1-.14.17-.32.22-.07.03-.2.13-.2.23s0 .05 0 .17c0 0 0 0-.02-.03M31.14-33.4c0 .08 0 .14-.03.2-.04.1-.1.06-.15.13-.05.06-.1.27-.08.36-.17.05 0 .22-.02.34 0 .05-.04.1-.04.16 0 .12.02.27.07.37.1.2.27.4.44.55.2.14.37.57.62.63.17.04.38-.1.54-.15.18-.04.4 0 .57-.05.22-.08.13-.34.3-.45.1-.07.28 0 .4-.05.2-.07.33-.26.37-.46.02-.1 0-.16.04-.23.04-.1.1-.16.1-.3-.02-.06-.06-.1-.07-.18-.03-.13 0-.24 0-.35 0-.2 0-.38-.08-.55-.4-.7-1.25-.93-2-.8-.17.05-.27.14-.43.22-.17.1-.14.17-.32.22-.08.03-.2.13-.2.23s0 .05 0 .17c-.02 0-.02 0-.03-.03M23.48-33.4c0 .08 0 .14-.03.2-.05.1-.1.06-.16.13-.06.06-.1.27-.1.36-.16.05 0 .22 0 .34 0 .05-.05.1-.05.16 0 .12 0 .27.06.37.1.2.28.4.45.55.2.14.36.57.6.63.18.04.4-.1.55-.15.18-.04.4 0 .57-.05.22-.08.13-.34.3-.45.1-.07.28 0 .4-.05.2-.07.33-.26.37-.46.02-.1 0-.16.04-.23.04-.1.1-.16.1-.3-.02-.06-.06-.1-.07-.18 0-.13 0-.24 0-.35 0-.2.02-.38-.07-.55-.38-.7-1.24-.93-1.98-.8-.18.05-.28.14-.44.22-.16.1-.13.17-.3.22-.1.03-.22.13-.22.23s0 .05 0 .17c0 0 0 0-.02-.03M15.82-33.4c0 .08 0 .14-.03.2-.06.1-.12.06-.17.13-.05.06-.1.27-.08.36-.17.05 0 .22-.02.34 0 .05-.04.1-.04.16-.02.12 0 .27.05.37.1.2.27.4.44.55.18.14.35.57.6.63.17.04.38-.1.54-.15.18-.04.4 0 .57-.05.23-.08.14-.34.3-.45.1-.07.3 0 .4-.05.2-.07.34-.26.38-.46.02-.1 0-.16.04-.23.04-.1.1-.16.1-.3-.02-.06-.06-.1-.07-.18-.03-.13 0-.24 0-.35 0-.2 0-.38-.08-.55-.38-.7-1.24-.93-1.98-.8-.2.05-.3.14-.45.22-.17.1-.14.17-.32.22-.08.03-.2.13-.2.23s0 .05 0 .17c-.02 0-.02 0-.03-.03M8.16-33.4c0 .08 0 .14-.03.2-.05.1-.1.06-.17.13-.04.06-.1.27-.07.36-.18.05-.02.22-.03.34 0 .05-.04.1-.04.16 0 .12 0 .27.06.37.1.2.26.4.43.55.2.14.36.57.6.63.18.04.4-.1.55-.15.18-.04.4 0 .57-.05.22-.08.13-.34.3-.45.1-.07.28 0 .4-.05.2-.07.33-.26.37-.46.02-.1 0-.16.04-.23.04-.1.1-.16.1-.3-.02-.06-.06-.1-.07-.18-.04-.13 0-.24 0-.35-.02-.2 0-.38-.1-.55-.37-.7-1.23-.93-1.97-.8-.18.05-.28.14-.44.22-.18.1-.15.17-.33.22-.08.03-.2.13-.2.23s0 .05 0 .17c-.02 0-.02 0-.03-.03M.5-33.4c0 .08 0 .14-.03.2-.05.1-.1.06-.17.13-.05.06-.1.27-.08.36-.16.05 0 .22 0 .34 0 .05-.05.1-.06.16 0 .12.02.27.07.37.1.2.27.4.44.55.2.14.36.57.6.63.18.04.4-.1.55-.15.18-.04.4 0 .57-.05.2-.08.12-.34.28-.45.1-.07.28 0 .4-.05.2-.07.34-.26.38-.46.02-.1 0-.16.04-.23.04-.1.1-.16.1-.3-.02-.06-.06-.1-.08-.18-.02-.13 0-.24 0-.35 0-.2.02-.38-.07-.55-.38-.7-1.24-.93-1.98-.8-.18.05-.3.14-.44.22-.17.1-.14.17-.32.22-.07.03-.2.13-.2.23s0 .05 0 .17c0 0 0 0-.02-.03M69.44-25.74c.02.08 0 .13-.03.2-.04.1-.1.06-.15.12-.05.07-.1.28-.08.36-.17.06 0 .23-.02.35 0 .04-.04.1-.04.15 0 .12.03.27.08.38.1.2.26.4.43.54.2.15.38.57.62.63.18.04.38-.1.54-.14.18-.05.4 0 .57-.06.23-.07.13-.33.3-.45.1-.07.28 0 .4-.05.2-.07.34-.26.37-.46.02-.08 0-.14.04-.22.04-.1.1-.16.1-.3-.02-.05-.06-.1-.07-.18-.02-.1 0-.22 0-.33 0-.2.02-.37-.08-.54-.4-.7-1.24-.93-1.98-.8-.18.04-.3.13-.45.2-.17.1-.13.18-.3.24-.1.02-.23.12-.23.22 0 .12 0 .05 0 .17 0 0 0 0-.02-.03M61.78-25.74c.02.08 0 .13-.03.2-.05.1-.1.06-.16.12-.06.07-.1.28-.1.36-.16.06 0 .23 0 .35 0 .04-.05.1-.05.15 0 .12 0 .27.07.38.1.2.26.4.43.54.2.15.37.57.6.63.2.04.4-.1.55-.14.18-.05.4 0 .57-.06.22-.07.13-.33.3-.45.1-.07.28 0 .4-.05.2-.07.34-.26.37-.46.02-.08 0-.14.04-.22.04-.1.1-.16.1-.3-.02-.05-.06-.1-.07-.18 0-.1 0-.22 0-.33 0-.2.03-.37-.07-.54-.38-.7-1.24-.93-1.98-.8-.17.04-.28.13-.44.2-.16.1-.13.18-.3.24-.1.02-.22.12-.22.22 0 .12 0 .05 0 .17 0 0 0 0-.02-.03M54.12-25.74c.02.08 0 .13-.03.2-.06.1-.12.06-.17.12-.05.07-.1.28-.08.36-.17.06 0 .23-.02.35 0 .04-.04.1-.04.15-.02.12 0 .27.06.38.1.2.26.4.43.54.18.15.36.57.6.63.18.04.38-.1.54-.14.18-.05.4 0 .57-.06.23-.07.14-.33.3-.45.1-.07.3 0 .4-.05.2-.07.35-.26.38-.46.02-.08 0-.14.04-.22.04-.1.1-.16.1-.3-.02-.05-.06-.1-.07-.18-.02-.1 0-.22 0-.33 0-.2 0-.37-.08-.54-.38-.7-1.24-.93-1.98-.8-.2.04-.3.13-.45.2-.17.1-.14.18-.32.24-.08.02-.2.12-.2.22 0 .12 0 .05 0 .17-.02 0-.02 0-.03-.03M46.46-25.74c.02.08 0 .13-.03.2-.05.1-.1.06-.16.12-.05.07-.1.28-.08.36-.18.06-.02.23-.03.35 0 .04-.04.1-.04.15 0 .12 0 .27.07.38.1.2.26.4.43.54.2.15.37.57.6.63.2.04.4-.1.55-.14.18-.05.4 0 .57-.06.22-.07.13-.33.3-.45.1-.07.28 0 .4-.05.2-.07.34-.26.37-.46.02-.08 0-.14.04-.22.04-.1.1-.16.1-.3-.02-.05-.06-.1-.07-.18-.03-.1 0-.22 0-.33-.02-.2 0-.37-.1-.54-.37-.7-1.23-.93-1.97-.8-.18.04-.28.13-.44.2-.18.1-.15.18-.33.24-.08.02-.2.12-.2.22 0 .12 0 .05 0 .17-.02 0-.02 0-.03-.03M38.8-25.74c0 .08 0 .13-.03.2-.05.1-.1.06-.16.12-.04.07-.1.28-.07.36-.17.06 0 .23-.02.35 0 .04-.03.1-.03.15 0 .12 0 .27.06.38.1.2.27.4.44.54.2.15.36.57.6.63.18.04.4-.1.55-.14.18-.05.4 0 .57-.06.2-.07.12-.33.28-.45.1-.07.3 0 .4-.05.2-.07.34-.26.38-.46.02-.08 0-.14.04-.22.04-.1.1-.16.1-.3-.02-.05-.06-.1-.07-.18-.03-.1 0-.22 0-.33 0-.2 0-.37-.08-.54-.38-.7-1.24-.93-1.98-.8-.18.04-.28.13-.44.2-.17.1-.14.18-.32.24-.07.02-.2.12-.2.22 0 .12 0 .05 0 .17 0 0 0 0-.02-.03M31.14-25.74c0 .08 0 .13-.03.2-.04.1-.1.06-.15.12-.05.07-.1.28-.08.36-.17.06 0 .23-.02.35 0 .04-.04.1-.04.15 0 .12.02.27.07.38.1.2.27.4.44.54.2.15.37.57.62.63.17.04.38-.1.54-.14.18-.05.4 0 .57-.06.22-.07.13-.33.3-.45.1-.07.28 0 .4-.05.2-.07.33-.26.37-.46.02-.08 0-.14.04-.22.04-.1.1-.16.1-.3-.02-.05-.06-.1-.07-.18-.03-.1 0-.22 0-.33 0-.2 0-.37-.08-.54-.4-.7-1.25-.93-2-.8-.17.04-.27.13-.43.2-.17.1-.14.18-.32.24-.08.02-.2.12-.2.22 0 .12 0 .05 0 .17-.02 0-.02 0-.03-.03M23.48-25.74c0 .08 0 .13-.03.2-.05.1-.1.06-.16.12-.06.07-.1.28-.1.36-.16.06 0 .23 0 .35 0 .04-.05.1-.05.15 0 .12 0 .27.06.38.1.2.28.4.45.54.2.15.36.57.6.63.18.04.4-.1.55-.14.18-.05.4 0 .57-.06.22-.07.13-.33.3-.45.1-.07.28 0 .4-.05.2-.07.33-.26.37-.46.02-.08 0-.14.04-.22.04-.1.1-.16.1-.3-.02-.05-.06-.1-.07-.18 0-.1 0-.22 0-.33 0-.2.02-.37-.07-.54-.38-.7-1.24-.93-1.98-.8-.18.04-.28.13-.44.2-.16.1-.13.18-.3.24-.1.02-.22.12-.22.22 0 .12 0 .05 0 .17 0 0 0 0-.02-.03M15.82-25.74c0 .08 0 .13-.03.2-.06.1-.12.06-.17.12-.05.07-.1.28-.08.36-.17.06 0 .23-.02.35 0 .04-.04.1-.04.15-.02.12 0 .27.05.38.1.2.27.4.44.54.18.15.35.57.6.63.17.04.38-.1.54-.14.18-.05.4 0 .57-.06.23-.07.14-.33.3-.45.1-.07.3 0 .4-.05.2-.07.34-.26.38-.46.02-.08 0-.14.04-.22.04-.1.1-.16.1-.3-.02-.05-.06-.1-.07-.18-.03-.1 0-.22 0-.33 0-.2 0-.37-.08-.54-.38-.7-1.24-.93-1.98-.8-.2.04-.3.13-.45.2-.17.1-.14.18-.32.24-.08.02-.2.12-.2.22 0 .12 0 .05 0 .17-.02 0-.02 0-.03-.03M8.16-25.74c0 .08 0 .13-.03.2-.05.1-.1.06-.17.12-.04.07-.1.28-.07.36-.18.06-.02.23-.03.35 0 .04-.04.1-.04.15 0 .12 0 .27.06.38.1.2.26.4.43.54.2.15.36.57.6.63.18.04.4-.1.55-.14.18-.05.4 0 .57-.06.22-.07.13-.33.3-.45.1-.07.28 0 .4-.05.2-.07.33-.26.37-.46.02-.08 0-.14.04-.22.04-.1.1-.16.1-.3-.02-.05-.06-.1-.07-.18-.04-.1 0-.22 0-.33-.02-.2 0-.37-.1-.54-.37-.7-1.23-.93-1.97-.8-.18.04-.28.13-.44.2-.18.1-.15.18-.33.24-.08.02-.2.12-.2.22 0 .12 0 .05 0 .17-.02 0-.02 0-.03-.03M.5-25.74c0 .08 0 .13-.03.2-.05.1-.1.06-.17.12-.05.07-.1.28-.08.36-.16.06 0 .23 0 .35 0 .04-.05.1-.06.15 0 .12.02.27.07.38.1.2.27.4.44.54.2.15.36.57.6.63.18.04.4-.1.55-.14.18-.05.4 0 .57-.06.2-.07.12-.33.28-.45.1-.07.28 0 .4-.05.2-.07.34-.26.38-.46.02-.08 0-.14.04-.22.04-.1.1-.16.1-.3-.02-.05-.06-.1-.08-.18-.02-.1 0-.22 0-.33 0-.2.02-.37-.07-.54-.38-.7-1.24-.93-1.98-.8-.18.04-.3.13-.44.2-.17.1-.14.18-.32.24-.07.02-.2.12-.2.22 0 .12 0 .05 0 .17 0 0 0 0-.02-.03M69.44-18.08c.02.07 0 .12-.03.2-.04.1-.1.05-.15.1-.05.08-.1.3-.08.38-.17.05 0 .22-.02.35 0 .05-.04.1-.04.16 0 .13.03.27.08.38.1.2.26.4.43.54.2.15.38.57.62.63.18.04.38-.1.54-.14.18-.03.4.02.57-.04.23-.08.13-.34.3-.45.1-.07.28 0 .4-.04.2-.07.34-.27.37-.46.02-.1 0-.15.04-.23.04-.1.1-.16.1-.3-.02-.05-.06-.1-.07-.18-.02-.12 0-.23 0-.34 0-.2.02-.38-.08-.55-.4-.68-1.24-.92-1.98-.78-.18.03-.3.12-.45.2-.17.1-.13.17-.3.23-.1.03-.23.12-.23.22 0 .12 0 .05 0 .17 0 0 0 0-.02-.02M61.78-18.08c.02.07 0 .12-.03.2-.05.1-.1.05-.16.1-.06.08-.1.3-.1.38-.16.05 0 .22 0 .35 0 .05-.05.1-.05.16 0 .13 0 .27.07.38.1.2.26.4.43.54.2.15.37.57.6.63.2.04.4-.1.55-.14.18-.03.4.02.57-.04.22-.08.13-.34.3-.45.1-.07.28 0 .4-.04.2-.07.34-.27.37-.46.02-.1 0-.15.04-.23.04-.1.1-.16.1-.3-.02-.05-.06-.1-.07-.18 0-.12 0-.23 0-.34 0-.2.03-.38-.07-.55-.38-.68-1.24-.92-1.98-.78-.17.03-.28.12-.44.2-.16.1-.13.17-.3.23-.1.03-.22.12-.22.22 0 .12 0 .05 0 .17 0 0 0 0-.02-.02M54.12-18.08c.02.07 0 .12-.03.2-.06.1-.12.05-.17.1-.05.08-.1.3-.08.38-.17.05 0 .22-.02.35 0 .05-.04.1-.04.16-.02.13 0 .27.06.38.1.2.26.4.43.54.18.15.36.57.6.63.18.04.38-.1.54-.14.18-.03.4.02.57-.04.23-.08.14-.34.3-.45.1-.07.3 0 .4-.04.2-.07.35-.27.38-.46.02-.1 0-.15.04-.23.04-.1.1-.16.1-.3-.02-.05-.06-.1-.07-.18-.02-.12 0-.23 0-.34 0-.2 0-.38-.08-.55-.38-.68-1.24-.92-1.98-.78-.2.03-.3.12-.45.2-.17.1-.14.17-.32.23-.08.03-.2.12-.2.22 0 .12 0 .05 0 .17-.02 0-.02 0-.03-.02M46.46-18.08c.02.07 0 .12-.03.2-.05.1-.1.05-.16.1-.05.08-.1.3-.08.38-.18.05-.02.22-.03.35 0 .05-.04.1-.04.16 0 .13 0 .27.07.38.1.2.26.4.43.54.2.15.37.57.6.63.2.04.4-.1.55-.14.18-.03.4.02.57-.04.22-.08.13-.34.3-.45.1-.07.28 0 .4-.04.2-.07.34-.27.37-.46.02-.1 0-.15.04-.23.04-.1.1-.16.1-.3-.02-.05-.06-.1-.07-.18-.03-.12 0-.23 0-.34-.02-.2 0-.38-.1-.55-.37-.68-1.23-.92-1.97-.78-.18.03-.28.12-.44.2-.18.1-.15.17-.33.23-.08.03-.2.12-.2.22 0 .12 0 .05 0 .17-.02 0-.02 0-.03-.02M38.8-18.08c0 .07 0 .12-.03.2-.05.1-.1.05-.16.1-.04.08-.1.3-.07.38-.17.05 0 .22-.02.35 0 .05-.03.1-.03.16 0 .13 0 .27.06.38.1.2.27.4.44.54.2.15.36.57.6.63.18.04.4-.1.55-.14.18-.03.4.02.57-.04.2-.08.12-.34.28-.45.1-.07.3 0 .4-.04.2-.07.34-.27.38-.46.02-.1 0-.15.04-.23.04-.1.1-.16.1-.3-.02-.05-.06-.1-.07-.18-.03-.12 0-.23 0-.34 0-.2 0-.38-.08-.55-.38-.68-1.24-.92-1.98-.78-.18.03-.28.12-.44.2-.17.1-.14.17-.32.23-.07.03-.2.12-.2.22 0 .12 0 .05 0 .17 0 0 0 0-.02-.02M31.14-18.08c0 .07 0 .12-.03.2-.04.1-.1.05-.15.1-.05.08-.1.3-.08.38-.17.05 0 .22-.02.35 0 .05-.04.1-.04.16 0 .13.02.27.07.38.1.2.27.4.44.54.2.15.37.57.62.63.17.04.38-.1.54-.14.18-.03.4.02.57-.04.22-.08.13-.34.3-.45.1-.07.28 0 .4-.04.2-.07.33-.27.37-.46.02-.1 0-.15.04-.23.04-.1.1-.16.1-.3-.02-.05-.06-.1-.07-.18-.03-.12 0-.23 0-.34 0-.2 0-.38-.08-.55-.4-.68-1.25-.92-2-.78-.17.03-.27.12-.43.2-.17.1-.14.17-.32.23-.08.03-.2.12-.2.22 0 .12 0 .05 0 .17-.02 0-.02 0-.03-.02M23.48-18.08c0 .07 0 .12-.03.2-.05.1-.1.05-.16.1-.06.08-.1.3-.1.38-.16.05 0 .22 0 .35 0 .05-.05.1-.05.16 0 .13 0 .27.06.38.1.2.28.4.45.54.2.15.36.57.6.63.18.04.4-.1.55-.14.18-.03.4.02.57-.04.22-.08.13-.34.3-.45.1-.07.28 0 .4-.04.2-.07.33-.27.37-.46.02-.1 0-.15.04-.23.04-.1.1-.16.1-.3-.02-.05-.06-.1-.07-.18 0-.12 0-.23 0-.34 0-.2.02-.38-.07-.55-.38-.68-1.24-.92-1.98-.78-.18.03-.28.12-.44.2-.16.1-.13.17-.3.23-.1.03-.22.12-.22.22 0 .12 0 .05 0 .17 0 0 0 0-.02-.02M15.82-18.08c0 .07 0 .12-.03.2-.06.1-.12.05-.17.1-.05.08-.1.3-.08.38-.17.05 0 .22-.02.35 0 .05-.04.1-.04.16-.02.13 0 .27.05.38.1.2.27.4.44.54.18.15.35.57.6.63.17.04.38-.1.54-.14.18-.03.4.02.57-.04.23-.08.14-.34.3-.45.1-.07.3 0 .4-.04.2-.07.34-.27.38-.46.02-.1 0-.15.04-.23.04-.1.1-.16.1-.3-.02-.05-.06-.1-.07-.18-.03-.12 0-.23 0-.34 0-.2 0-.38-.08-.55-.38-.68-1.24-.92-1.98-.78-.2.03-.3.12-.45.2-.17.1-.14.17-.32.23-.08.03-.2.12-.2.22 0 .12 0 .05 0 .17-.02 0-.02 0-.03-.02M8.16-18.08c0 .07 0 .12-.03.2-.05.1-.1.05-.17.1-.04.08-.1.3-.07.38-.18.05-.02.22-.03.35 0 .05-.04.1-.04.16 0 .13 0 .27.06.38.1.2.26.4.43.54.2.15.36.57.6.63.18.04.4-.1.55-.14.18-.03.4.02.57-.04.22-.08.13-.34.3-.45.1-.07.28 0 .4-.04.2-.07.33-.27.37-.46.02-.1 0-.15.04-.23.04-.1.1-.16.1-.3-.02-.05-.06-.1-.07-.18-.04-.12 0-.23 0-.34-.02-.2 0-.38-.1-.55-.37-.68-1.23-.92-1.97-.78-.18.03-.28.12-.44.2-.18.1-.15.17-.33.23-.08.03-.2.12-.2.22 0 .12 0 .05 0 .17-.02 0-.02 0-.03-.02M.5-18.08c0 .07 0 .12-.03.2-.05.1-.1.05-.17.1-.05.08-.1.3-.08.38-.16.05 0 .22 0 .35 0 .05-.05.1-.06.16 0 .13.02.27.07.38.1.2.27.4.44.54.2.15.36.57.6.63.18.04.4-.1.55-.14.18-.03.4.02.57-.04.2-.08.12-.34.28-.45.1-.07.28 0 .4-.04.2-.07.34-.27.38-.46.02-.1 0-.15.04-.23.04-.1.1-.16.1-.3-.02-.05-.06-.1-.08-.18-.02-.12 0-.23 0-.34 0-.2.02-.38-.07-.55-.38-.68-1.24-.92-1.98-.78-.18.03-.3.12-.44.2-.17.1-.14.17-.32.23-.07.03-.2.12-.2.22 0 .12 0 .05 0 .17 0 0 0 0-.02-.02M69.44-10.43c.02.07 0 .13-.03.2-.04.1-.1.05-.15.12-.05.05-.1.26-.08.35-.17.06 0 .23-.02.35 0 .05-.04.1-.04.16 0 .12.03.27.08.37.1.2.26.4.43.54.2.15.38.58.62.64.18.05.38-.1.54-.14.18-.04.4 0 .57-.05.23-.07.13-.33.3-.44.1-.07.28 0 .4-.05.2-.06.34-.25.37-.45.02-.08 0-.15.04-.22.04-.1.1-.16.1-.3-.02-.06-.06-.12-.07-.18-.02-.12 0-.23 0-.34 0-.2.02-.37-.08-.54-.4-.7-1.24-.93-1.98-.8-.18.05-.3.14-.45.22-.17.1-.13.17-.3.22-.1.03-.23.13-.23.23s0 .05 0 .17c0 0 0 0-.02-.03M61.78-10.43c.02.07 0 .13-.03.2-.05.1-.1.05-.16.12-.06.05-.1.26-.1.35-.16.06 0 .23 0 .35 0 .05-.05.1-.05.16 0 .12 0 .27.07.37.1.2.26.4.43.54.2.15.37.58.6.63.2.05.4-.1.55-.14.18-.04.4 0 .57-.05.22-.07.13-.33.3-.44.1-.07.28 0 .4-.05.2-.06.34-.25.37-.45.02-.08 0-.15.04-.22.04-.1.1-.16.1-.3-.02-.06-.06-.12-.07-.18 0-.12 0-.23 0-.34 0-.2.03-.37-.07-.54-.38-.7-1.24-.93-1.98-.8-.17.05-.28.14-.44.22-.16.1-.13.16-.3.22-.1.03-.22.13-.22.23s0 .05 0 .17c0 0 0 0-.02-.03M54.12-10.43c.02.07 0 .13-.03.2-.06.1-.12.05-.17.12-.05.05-.1.26-.08.35-.17.06 0 .23-.02.35 0 .05-.04.1-.04.16-.02.12 0 .27.06.37.1.2.26.4.43.54.18.15.36.58.6.63.18.05.38-.1.54-.14.18-.04.4 0 .57-.05.23-.07.14-.33.3-.44.1-.07.3 0 .4-.05.2-.06.35-.25.38-.45.02-.08 0-.15.04-.22.04-.1.1-.16.1-.3-.02-.06-.06-.12-.07-.18-.02-.12 0-.23 0-.34 0-.2 0-.37-.08-.54-.38-.7-1.24-.93-1.98-.8-.2.05-.3.14-.45.22-.17.1-.14.16-.32.22-.08.03-.2.13-.2.23s0 .05 0 .17c-.02 0-.02 0-.03-.03M46.46-10.43c.02.07 0 .13-.03.2-.05.1-.1.05-.16.12-.05.05-.1.26-.08.35-.18.06-.02.23-.03.35 0 .05-.04.1-.04.16 0 .12 0 .27.07.37.1.2.26.4.43.54.2.15.37.58.6.63.2.05.4-.1.55-.14.18-.04.4 0 .57-.05.22-.07.13-.33.3-.44.1-.07.28 0 .4-.05.2-.06.34-.25.37-.45.02-.08 0-.15.04-.22.04-.1.1-.16.1-.3-.02-.06-.06-.12-.07-.18-.03-.12 0-.23 0-.34-.02-.2 0-.37-.1-.54-.37-.7-1.23-.93-1.97-.8-.18.05-.28.14-.44.22-.18.1-.15.16-.33.22-.08.03-.2.13-.2.23s0 .05 0 .17c-.02 0-.02 0-.03-.03M38.8-10.43c0 .07 0 .13-.03.2-.05.1-.1.05-.16.12-.04.05-.1.26-.07.35-.17.06 0 .23-.02.35 0 .05-.03.1-.03.16 0 .12 0 .27.06.37.1.2.27.4.44.54.2.15.36.58.6.63.18.05.4-.1.55-.14.18-.04.4 0 .57-.05.2-.07.12-.33.28-.44.1-.07.3 0 .4-.05.2-.06.34-.25.38-.45.02-.08 0-.15.04-.22.04-.1.1-.16.1-.3-.02-.06-.06-.12-.07-.18-.03-.12 0-.23 0-.34 0-.2 0-.37-.08-.54-.38-.7-1.24-.93-1.98-.8-.18.05-.28.14-.44.22-.17.1-.14.16-.32.22-.07.03-.2.13-.2.23s0 .05 0 .17c0 0 0 0-.02-.03M31.14-10.43c0 .07 0 .13-.03.2-.04.1-.1.05-.15.12-.05.05-.1.26-.08.35-.17.06 0 .23-.02.35 0 .05-.04.1-.04.16 0 .12.02.27.07.37.1.2.27.4.44.54.2.15.37.58.62.63.17.05.38-.1.54-.14.18-.04.4 0 .57-.05.22-.07.13-.33.3-.44.1-.07.28 0 .4-.05.2-.06.33-.25.37-.45.02-.08 0-.15.04-.22.04-.1.1-.16.1-.3-.02-.06-.06-.12-.07-.18-.03-.12 0-.23 0-.34 0-.2 0-.37-.08-.54-.4-.7-1.25-.93-2-.8-.17.05-.27.14-.43.22-.17.1-.14.16-.32.22-.08.03-.2.13-.2.23s0 .05 0 .17c-.02 0-.02 0-.03-.03M23.48-10.43c0 .07 0 .13-.03.2-.05.1-.1.05-.16.12-.06.05-.1.26-.1.35-.16.06 0 .23 0 .35 0 .05-.05.1-.05.16 0 .12 0 .27.06.37.1.2.28.4.45.54.2.15.36.58.6.63.18.05.4-.1.55-.14.18-.04.4 0 .57-.05.22-.07.13-.33.3-.44.1-.07.28 0 .4-.05.2-.06.33-.25.37-.45.02-.08 0-.15.04-.22.04-.1.1-.16.1-.3-.02-.06-.06-.12-.07-.18 0-.12 0-.23 0-.34 0-.2.02-.37-.07-.54-.38-.7-1.24-.93-1.98-.8-.18.05-.28.14-.44.22-.16.1-.13.16-.3.22-.1.03-.22.13-.22.23s0 .05 0 .17c0 0 0 0-.02-.03M15.82-10.43c0 .07 0 .13-.03.2-.06.1-.12.05-.17.12-.05.05-.1.26-.08.35-.17.06 0 .23-.02.35 0 .05-.04.1-.04.16-.02.12 0 .27.05.37.1.2.27.4.44.54.18.15.35.58.6.63.17.05.38-.1.54-.14.18-.04.4 0 .57-.05.23-.07.14-.33.3-.44.1-.07.3 0 .4-.05.2-.06.35-.25.38-.45.02-.08 0-.15.04-.22.04-.1.1-.16.1-.3-.02-.06-.06-.12-.07-.18-.03-.12 0-.23 0-.34 0-.2 0-.37-.08-.54-.38-.7-1.24-.93-1.98-.8-.2.05-.3.14-.45.22-.17.1-.14.17-.32.22-.08.03-.2.13-.2.23s0 .05 0 .17c-.02 0-.02 0-.03-.03M8.16-10.43c0 .07 0 .13-.03.2-.05.1-.1.05-.17.12-.04.05-.1.26-.07.35-.18.06-.02.23-.03.35 0 .05-.04.1-.04.16 0 .12 0 .27.06.37.1.2.26.4.43.54.2.15.36.58.6.64.18.05.4-.1.55-.14.18-.04.4 0 .57-.05.22-.07.13-.33.3-.44.1-.07.28 0 .4-.05.2-.06.33-.25.37-.45.02-.08 0-.15.04-.22.04-.1.1-.16.1-.3-.02-.06-.06-.12-.07-.18-.04-.12 0-.23 0-.34-.02-.2 0-.37-.1-.54-.37-.7-1.23-.93-1.97-.8-.18.05-.28.14-.44.22-.18.1-.15.17-.33.22-.08.03-.2.13-.2.23s0 .05 0 .17c-.02 0-.02 0-.03-.03M.5-10.43c0 .07 0 .13-.03.2-.05.1-.1.05-.17.12-.05.05-.1.26-.07.35-.17.06-.02.23-.02.35 0 .05-.03.1-.04.16 0 .12.02.27.07.37.1.2.27.4.44.54.2.15.36.58.6.64.18.05.4-.1.55-.14.18-.04.4 0 .57-.05.2-.07.12-.33.28-.44.1-.07.3 0 .4-.05.2-.06.34-.25.38-.45.02-.08 0-.14.04-.22.04-.1.1-.16.1-.3-.02-.06-.06-.1-.07-.18-.03-.1 0-.22 0-.34 0-.2 0-.37-.08-.54-.38-.7-1.24-.93-1.98-.8-.18.05-.28.14-.44.22-.17.1-.14.17-.32.22-.07.03-.2.13-.2.23s0 .05 0 .17c0 0 0 0-.02-.03"/></g><g fill="#fff"><path d="M69.44-2.78c.02.07 0 .13-.03.2-.04.1-.1.06-.15.12-.05.06-.1.28-.08.36-.17.06 0 .23-.02.35 0 .05-.04.1-.04.16 0 .13.03.28.08.38.1.2.26.42.43.55.2.14.38.57.62.63.18.04.38-.1.54-.14.18-.05.4 0 .57-.06.23-.08.13-.34.3-.45.1-.06.28 0 .4-.04.2-.07.34-.26.37-.46.02-.08 0-.14.04-.22.04-.1.1-.16.1-.3-.02-.06-.06-.1-.07-.18-.02-.1 0-.22 0-.34 0-.2.02-.38-.08-.55-.4-.68-1.24-.92-1.98-.78-.18.04-.3.13-.45.2-.17.1-.13.18-.3.23-.1.03-.23.13-.23.23s0 .05 0 .17c0 0 0 0-.02-.03M61.78-2.78c.02.07 0 .13-.03.2-.05.1-.1.06-.16.12s-.1.28-.1.36c-.16.06 0 .23 0 .35 0 .05-.05.1-.05.16 0 .13 0 .28.07.38.1.2.26.42.43.55.2.15.37.57.6.63.2.04.4-.1.55-.14.18-.05.4 0 .57-.06.23-.08.13-.34.3-.45.1-.06.28 0 .4-.04.2-.07.34-.26.37-.46.02-.08 0-.14.04-.22.04-.1.1-.16.1-.3-.02-.06-.06-.1-.07-.18 0-.1 0-.22 0-.34 0-.2.03-.38-.07-.55-.38-.68-1.23-.92-1.97-.78-.18.04-.3.13-.45.2-.16.1-.12.18-.3.23-.1.03-.22.13-.22.23s0 .05 0 .17c0 0 0 0-.02-.03M54.12-2.78c.02.07 0 .13-.03.2-.06.1-.12.06-.17.12-.05.06-.1.28-.08.36-.17.06 0 .23-.02.35 0 .05-.04.1-.04.16-.02.13 0 .28.06.38.1.2.26.42.43.55.18.15.36.57.6.63.18.04.38-.1.54-.14.18-.05.4 0 .57-.06.23-.08.14-.34.3-.45.1-.06.3 0 .4-.04.2-.07.35-.26.38-.46.02-.08 0-.14.04-.22.04-.1.1-.16.1-.3-.02-.06-.06-.1-.07-.18-.02-.1 0-.22 0-.34 0-.2 0-.38-.08-.55-.38-.68-1.24-.92-1.98-.78-.2.04-.3.13-.45.2-.17.1-.14.18-.32.23-.07.03-.2.13-.2.23s0 .05 0 .17c-.02 0-.02 0-.03-.03M46.46-2.78c.02.07 0 .13-.03.2-.05.1-.1.05-.16.12-.05.06-.1.28-.08.36-.18.06-.02.23-.03.35 0 .05-.04.1-.04.16 0 .13 0 .28.07.38.1.2.26.42.43.55.2.15.37.57.6.63.2.04.4-.1.55-.14.18-.05.4 0 .57-.06.22-.08.13-.34.3-.45.1-.06.28 0 .4-.04.2-.07.34-.26.37-.46.02-.08 0-.14.04-.22.04-.1.1-.16.1-.3-.02-.06-.06-.1-.07-.18-.03-.1 0-.22 0-.34-.02-.2 0-.38-.1-.55-.37-.68-1.23-.92-1.97-.78-.18.04-.28.13-.44.2-.18.1-.15.18-.33.23-.08.03-.2.13-.2.23s0 .05 0 .17c-.02 0-.02 0-.03-.03M38.8-2.78c0 .07 0 .13-.03.2-.05.1-.1.05-.16.12-.04.06-.1.28-.07.36-.17.06 0 .23-.02.35 0 .05-.03.1-.03.16 0 .13 0 .28.06.38.1.2.27.42.44.55.2.15.36.57.6.63.2.04.4-.1.55-.14.18-.05.4 0 .57-.06.2-.08.12-.34.28-.45.1-.06.3 0 .4-.04.2-.07.35-.26.38-.46.02-.08 0-.14.04-.22.04-.1.1-.16.1-.3-.02-.06-.06-.1-.07-.18-.02-.1 0-.22 0-.34 0-.2 0-.38-.08-.55-.38-.68-1.24-.92-1.98-.78-.18.04-.28.13-.44.2-.17.1-.14.18-.32.23-.07.03-.2.13-.2.23s0 .05 0 .17c0 0 0 0-.02-.03M31.14-2.78c0 .07 0 .13-.03.2-.04.1-.1.05-.15.12-.05.06-.1.28-.08.36-.17.06 0 .23-.02.35 0 .05-.04.1-.04.16 0 .13.02.28.07.38.1.2.27.42.44.55.2.15.37.57.62.63.17.04.38-.1.54-.14.18-.05.4 0 .57-.06.22-.08.13-.34.3-.45.1-.06.28 0 .4-.04.2-.07.33-.26.37-.46.02-.08 0-.14.04-.22.04-.1.1-.16.1-.3-.02-.06-.06-.1-.07-.18-.03-.1 0-.22 0-.34 0-.2 0-.38-.08-.55-.4-.68-1.25-.92-2-.78-.17.04-.27.13-.43.2-.17.1-.14.18-.32.23-.08.03-.2.13-.2.23s0 .05 0 .17c-.02 0-.02 0-.03-.03M23.48-2.78c0 .07 0 .13-.03.2-.05.1-.1.05-.16.12-.06.06-.1.28-.1.36-.16.06 0 .23 0 .35 0 .05-.05.1-.05.16 0 .13 0 .28.06.38.1.2.28.42.45.55.2.15.36.57.6.63.18.04.4-.1.55-.14.18-.05.4 0 .57-.06.22-.08.13-.34.3-.45.1-.06.28 0 .4-.04.2-.07.33-.26.37-.46.02-.08 0-.14.04-.22.04-.1.1-.16.1-.3-.02-.06-.06-.1-.07-.18 0-.1 0-.22 0-.34 0-.2.02-.38-.07-.55-.38-.68-1.24-.92-1.98-.78-.18.04-.28.13-.44.2-.16.1-.13.18-.3.23-.1.03-.22.13-.22.23s0 .05 0 .17c0 0 0 0-.02-.03M15.82-2.78c0 .07 0 .13-.03.2-.06.1-.12.05-.17.12-.05.06-.1.28-.08.36-.17.06 0 .23-.02.35 0 .05-.04.1-.04.16-.02.13 0 .28.05.38.1.2.27.42.44.55.18.15.35.57.6.63.17.04.38-.1.54-.14.18-.05.4 0 .57-.06.23-.08.14-.34.3-.45.1-.06.3 0 .4-.04.2-.07.34-.26.38-.46.02-.08 0-.14.04-.22.04-.1.1-.16.1-.3-.02-.06-.06-.1-.07-.18-.03-.1 0-.22 0-.34 0-.2 0-.38-.08-.55-.38-.68-1.24-.92-1.98-.78-.2.04-.3.13-.45.2-.17.1-.14.18-.32.23-.08.03-.2.13-.2.23s0 .05 0 .17c-.02 0-.02 0-.03-.03M8.16-2.78c0 .07 0 .13-.03.2-.05.1-.1.06-.17.12-.05.06-.1.28-.07.36-.18.06-.02.23-.03.35 0 .05-.04.1-.04.16 0 .13 0 .28.06.38.1.2.26.42.43.55.2.14.36.57.6.63.18.04.4-.1.55-.14.18-.05.4 0 .57-.06.22-.08.13-.34.3-.45.1-.06.28 0 .4-.04.2-.07.33-.26.37-.46.02-.08 0-.14.04-.22.04-.1.1-.16.1-.3-.02-.06-.06-.1-.07-.18-.04-.1 0-.22 0-.34-.02-.2 0-.38-.1-.55-.37-.68-1.23-.92-1.97-.78-.18.04-.28.13-.44.2-.18.1-.15.18-.33.24-.08.02-.2.12-.2.22s0 .05 0 .17c-.02 0-.02 0-.03-.03M.5-2.78c0 .07 0 .13-.03.2-.05.1-.1.06-.17.12-.05.06-.1.28-.07.36-.17.06-.02.23-.02.35 0 .05-.03.1-.04.16 0 .13.02.28.07.38.1.2.27.42.44.55.2.14.36.57.6.63.18.04.4-.1.55-.14.18-.05.4 0 .57-.06.2-.08.12-.33.28-.45.1-.06.3 0 .4-.04.2-.07.34-.26.38-.46.02-.08 0-.14.04-.22.04-.1.1-.16.1-.3-.02-.05-.06-.1-.07-.18-.03-.1 0-.22 0-.34 0-.2 0-.38-.08-.55-.38-.67-1.24-.92-1.98-.78-.18.04-.28.13-.44.2-.17.1-.14.18-.32.24-.07.02-.2.12-.2.22s0 .05 0 .17c0 0 0 0-.02-.03"/></g></pattern><defs><path id="a" d="M0 0h461.02v540.34H0z"/></defs><clipPath id="b"><use xlink:href="#a" overflow="visible"/></clipPath><g clip-path="url(#b)"><defs><path id="c" d="M.07 0h460.95v540.26H.08z"/></defs><clipPath id="d"><use xlink:href="#c" overflow="visible"/></clipPath><path fill="#fff" fill-rule="evenodd" d="M453.08 369.23l-.16-.17-22.27-19.5-4.75-4.32c-4.5-4.5-11.42-10-23.33-9.6-1.96-.04-3.92.16-5.85.5 2.04-9.44 3.57-19.43 4.5-29.96.64-7.3.98-14.52 1-21.5.02-.13.03-2.77.03-2.77l-.15-5.7v.5V0H58.65v276.7l.02-.5-.15 5.7.02 2.8c.04 6.96.38 14.2 1.02 21.48.93 10.5 2.45 20.48 4.5 29.92-1.86-.32-3.72-.5-5.6-.47-11.9-.4-18.8 5.1-23.3 9.6l-4.76 4.34-22.27 19.5-.15.16C.25 376.9-.5 384.37.2 389.3c2.05 13.98 19.84 24.33 21.63 25.3l10.43-8.2c7.37-2.85 11.63 1.18 11.63 1.18.7.42 3.2 2.45 4.74 10.62l.9 4.73c-5.8 5-9.9 8.56-9.9 8.56l3.5 5.12c10.26 14.96 14.22 19.57 20.9 27.08 44.52 50.14 101.86 76.64 165.82 76.64h1.03c63.95 0 121.3-26.5 165.82-76.64 6.67-7.5 10.63-12.1 20.9-27.08l3.5-5.13s-4-3.47-9.67-8.37l.93-4.93c1.54-8.17 4.03-10.2 4.75-10.62 0 0 4.27-4.03 11.63-1.17l10.44 8.2c1.8-.97 19.57-11.32 21.6-25.3.73-4.93-.03-12.4-7.72-20.07" clip-path="url(#d)" clip-rule="evenodd"/><path fill="#224694" fill-rule="evenodd" d="M426.3 353.42s11.28 24.14-22.9 26.67l35.22 27.6s28.25-16.5 10.48-34.24l-22.8-20.04" clip-path="url(#d)" clip-rule="evenodd"/></g><path fill="#E1393E" fill-rule="evenodd" d="M419.23 369.1c6.25-6.57.26-17.63.26-17.63s-5.43-10.17-16.35-9.67c-2.68-.06-5.38.42-8.07 1.3-2.25 8.9-5 17.28-8.26 25.04h.02c-.46 1.15-4.3 10.52-12 23.3.93.8 2.35 2.03 4.12 3.57l26.48 22.87c3.27-22.43 15.86-16.95 15.86-16.95l-29.7-23.66c22.6-.86 27.63-8.16 27.63-8.16" clip-path="url(#b)" clip-rule="evenodd"/><g clip-path="url(#b)"><defs><path id="e" d="M.07 0h460.95v540.26H.08z"/></defs><clipPath id="f"><use xlink:href="#e" overflow="visible"/></clipPath><path fill="#224694" fill-rule="evenodd" d="M34.46 353.7s-11.3 24.13 22.9 26.67l-35.23 27.6s-28.25-16.5-10.47-34.24l22.8-20.04" clip-path="url(#f)" clip-rule="evenodd"/></g><path fill="#E1393E" fill-rule="evenodd" d="M41.52 369.37c-6.25-6.57-.25-17.63-.25-17.63s5.42-10.16 16.33-9.67c2.68-.06 5.38.42 8.07 1.3 2.25 8.9 5 17.28 8.27 25.04l-.03.02c.47 1.15 4.3 10.5 12 23.3-.92.8-2.34 2.02-4.1 3.56l-26.5 22.87c-3.26-22.44-15.84-16.96-15.84-16.96l29.7-23.67c-22.6-.86-27.64-8.16-27.64-8.16" clip-path="url(#b)" clip-rule="evenodd"/><path fill="#224694" fill-rule="evenodd" d="M365.8 392.83c9.7-15.13 14.3-26.54 14.57-27.27l-.14.34c7.3-17.2 12.04-37.5 14.05-60.33.62-7.05.95-14.1 1-20.9 0-.98 0-1.9 0-2.76 0-1.97-.03-3.7-.13-5.2 0-.52 0-269.74 0-269.74H65.6s0 269.23 0 269.73c-.1 1.5-.13 3.23-.13 5.2 0 .87 0 1.8 0 2.76.04 6.82.38 13.85 1 20.9 2 22.74 6.7 42.94 13.94 60.08.6 1.44 5.16 12.63 14.46 27.27L48.9 432.68c10.2 14.92 14.03 19.3 20.33 26.4 43.17 48.6 98.72 74.3 160.63 74.3h1.03c61.9 0 117.45-25.7 160.62-74.3 6.3-7.1 10.13-11.48 20.35-26.4l-46.06-39.85" clip-path="url(#b)" clip-rule="evenodd"/><path fill="#fff" fill-rule="evenodd" d="M230.38 22.08H80.72v254.86S78.3 322.06 94.42 360c0 0 38.34 97.8 135.44 97.8h.52c97.1 0 135.95-97.8 135.95-97.8 16.12-37.94 13.7-83.06 13.7-83.06V22.08H230.38" clip-path="url(#b)" clip-rule="evenodd"/><path fill="#E1393E" d="M202.62 166.95h55.23V382.9h-55.23z" clip-path="url(#b)"/><path fill="#E1393E" fill-rule="evenodd" d="M157.25 85.32v-36.4c-7.5.4-14.4 2.16-21.13 5.2l4.33-13.5h53.6l-5.78 11.98c-4.6-2.32-9.7-3.52-15.84-3.67v36.4c0 5.74.76 10.85 3.07 15.72h-21.32c2.3-4.88 3.07-9.98 3.07-15.73M260.53 85.32V56.35c0-5.75-.76-10.85-3.06-15.72h21.3c-2.3 4.87-3.07 9.97-3.07 15.72V68l18.45-20.9c1.82-2.08 2.78-3.92 2.78-5.76 0-.23-.1-.48-.1-.7h23.82c-5.66 3.5-10.08 6.7-12.96 9.8L291.83 67.6l21.5 25.38c2.03 2.4 4.82 5.03 8.37 8.07h-23.8c.1-.73.2-1.44.2-2.08 0-2.4-1.08-4.32-3-6.62l-19.4-23.3V85.3c0 5.75.78 10.85 3.08 15.73h-21.32c2.3-4.88 3.07-9.98 3.07-15.73M327.57 85.32V56.35c0-5.75-.77-10.85-3.07-15.72h41.2l-6.82 11.8c-4.32-1.67-9.6-2.55-16.14-2.7V66.4h20.85l-7.8 10.94c-2.97-1.83-6.9-2.63-11.7-2.63-.5 0-.88 0-1.36 0v17.33c2.02.08 4.04.16 5.96.16 8.65 0 15.85-.97 21.9-3.2l-5.76 12.05H324.5c2.3-4.88 3.07-9.98 3.07-15.73M185.13 120.63c-8.27 0-14.13 5.47-14.13 14.07 0 8.7 6.1 14.27 15.24 14.27 5.12 0 8.95-1.7 12.4-5.42l-1.35 9.2c-4.4 1.63-9.03 2.48-14.02 2.48-5.56 0-10.3-1.28-14.26-3.88-5.74-3.76-8.58-8.86-8.58-15.22 0-6.7 3.15-12.53 8.83-16.56 5-3.5 11.04-5.36 17.77-5.36 3.33 0 6.97.54 10.8 1.6v10.03c-4-3.44-8.2-5.2-12.7-5.2" clip-path="url(#b)" clip-rule="evenodd"/><path fill="none" stroke="#E1393E" stroke-width=".657" d="M185.13 120.63c-8.27 0-14.13 5.47-14.13 14.07 0 8.7 6.1 14.27 15.24 14.27 5.12 0 8.95-1.7 12.4-5.42l-1.35 9.2c-4.4 1.63-9.03 2.48-14.02 2.48-5.56 0-10.3-1.28-14.26-3.88-5.74-3.76-8.58-8.86-8.58-15.22 0-6.7 3.15-12.53 8.83-16.56 5-3.5 11.04-5.36 17.77-5.36 3.33 0 6.97.54 10.8 1.6v10.03c-4-3.44-8.2-5.2-12.7-5.2z" clip-path="url(#b)"/><path fill="#E1393E" fill-rule="evenodd" d="M206.3 144.3v-19.26c0-3.83-.48-7.22-1.96-10.46h13.7c-1.48 3.24-1.98 6.63-1.98 10.46v19.26c0 3.82.5 7.22 1.98 10.45h-13.7c1.48-3.23 1.97-6.63 1.97-10.45" clip-path="url(#b)" clip-rule="evenodd"/><path fill="none" stroke="#E1393E" stroke-width=".657" d="M206.3 144.3v-19.26c0-3.83-.48-7.22-1.96-10.46h13.7c-1.48 3.24-1.98 6.63-1.98 10.46v19.26c0 3.82.5 7.22 1.98 10.45h-13.7c1.48-3.23 1.97-6.63 1.97-10.45z" clip-path="url(#b)"/><path fill="#E1393E" fill-rule="evenodd" d="M235.2 144.3v-24.2c-4.8.27-9.26 1.43-13.58 3.45l2.78-8.97h34.44l-3.7 7.96c-2.97-1.54-6.24-2.33-10.2-2.44v24.2c0 3.82.5 7.22 1.98 10.45h-13.7c1.5-3.23 1.98-6.63 1.98-10.45" clip-path="url(#b)" clip-rule="evenodd"/><path fill="none" stroke="#E1393E" stroke-width=".657" d="M235.2 144.3v-24.2c-4.8.27-9.26 1.43-13.58 3.45l2.78-8.97h34.44l-3.7 7.96c-2.97-1.54-6.24-2.33-10.2-2.44v24.2c0 3.82.5 7.22 1.98 10.45h-13.7c1.5-3.23 1.98-6.63 1.98-10.45z" clip-path="url(#b)"/><path fill="#E1393E" fill-rule="evenodd" d="M288.96 154.75h-13.7c1.48-3.23 1.98-6.63 1.98-10.45v-8.33l-10.3-14.7c-1.68-2.33-3.53-4.57-5.56-6.7h13.64c-.07.33-.07.65-.07.92 0 1 .25 1.9.68 2.54l6.98 10.34 5.8-9.6c.57-.96.87-1.97.87-2.98 0-.42-.06-.8-.12-1.22h12.47c-2.35 2.07-4.32 4.36-6 6.85l-8.63 12.9v9.97c-.02 3.82.48 7.22 1.96 10.45" clip-path="url(#b)" clip-rule="evenodd"/><path fill="none" stroke="#E1393E" stroke-width=".657" d="M288.96 154.75h-13.7c1.48-3.23 1.98-6.63 1.98-10.45v-8.33l-10.3-14.7c-1.68-2.33-3.53-4.57-5.56-6.7h13.64c-.07.33-.07.65-.07.92 0 1 .25 1.9.68 2.54l6.98 10.34 5.8-9.6c.57-.96.87-1.97.87-2.98 0-.42-.06-.8-.12-1.22h12.47c-2.35 2.07-4.32 4.36-6 6.85l-8.63 12.9v9.97c-.02 3.82.48 7.22 1.96 10.45z" clip-path="url(#b)"/><path fill="#E1393E" fill-rule="evenodd" d="M221.9 47.44c-9.76 0-14.28 11.32-14.28 23.2 0 11.85 4.52 23.17 14.3 23.17 9.75 0 14.27-11.3 14.27-23.17 0-11.87-4.53-23.2-14.3-23.2m31.54 23.5c0 19.93-14.1 30.7-31.48 30.7-17.4 0-31.48-10.2-31.48-30.7 0-16.98 14.1-30.73 31.48-30.73 17.4 0 31.48 13.75 31.48 30.72z" clip-path="url(#b)" clip-rule="evenodd"/><path fill="#224694" fill-rule="evenodd" d="M206.6 426.9c0-6.93 1.54-10.38 4.87-10.38 3.3 0 4.9 3.45 4.9 10.36 0 6.84-1.73 10.3-4.9 10.3-3.5 0-4.88-3.32-4.88-10.3m10.74-12.7c4.43-1.4 6.73-5 6.73-9.93 0-7.1-4.3-11.06-12.2-11.06-8.22 0-13.05 4.43-13.05 11.05 0 5 2.42 8.6 6.8 9.88v.5c-5.54 1.47-8.35 5.84-8.35 12.68 0 8.46 5.1 12.13 14.2 13.9 9.13 1.76 14.2-2.6 14.2-11.2 0-6.2-2.98-14.04-8.33-15.38v-.43zm-10.47-9.3c0-5.28 1.56-8.03 4.6-8.03 3.3 0 4.55 2.54 4.55 8.04 0 5.34-1.5 7.95-4.55 7.95-3.1 0-4.6-2.6-4.6-7.96z" clip-path="url(#b)" clip-rule="evenodd"/><path fill="none" stroke="#224694" stroke-width=".749" d="M206.87 404.9c0-5.3 1.56-8.05 4.6-8.05 3.3 0 4.55 2.54 4.55 8.04 0 5.34-1.5 7.95-4.55 7.95-3.1 0-4.6-2.6-4.6-7.96zM217.34 414.2c4.43-1.4 6.73-5 6.73-9.95 0-7.1-4.3-11.06-12.2-11.06-8.22 0-13.05 4.43-13.05 11.05 0 5 2.42 8.6 6.8 9.88v.5c-5.54 1.47-8.35 5.84-8.35 12.68 0 8.46 5.1 12.13 14.2 13.9 9.13 1.76 14.2-2.6 14.2-11.2 0-6.2-2.98-14.04-8.33-15.38v-.43zM206.6 426.9c0-6.93 1.54-10.38 4.87-10.38 3.3 0 4.9 3.45 4.9 10.36 0 6.84-1.73 10.3-4.9 10.3-3.5 0-4.88-3.32-4.88-10.3z" clip-path="url(#b)"/><path fill="#224694" fill-rule="evenodd" d="M239.62 416.07c0-.07 0-.15 0-.22 0-11.53 2.4-18.23 7.62-18.23 2.47 0 4.37 1.36 6.1 4.18l.34-.15c.12-2.16.4-4.4.8-6.85-2.35-1.08-7.2-1.66-9.63-1.66-11.4 0-15.25 13-15.25 30.65 0 13.47 5.1 20 14.62 18.5 8.63-1.35 13.92-6.2 13.92-16.5 0-8.43-4.14-13.4-10.64-13.4-3.5 0-6.4 1.43-7.88 3.67m8.9 11.6c0 7.3-1.43 10.9-4.3 10.9-3 0-4.5-3.7-4.5-11.18 0-6.65 1.45-9.9 4.38-9.9 3.22 0 4.43 3.25 4.43 10.18z" clip-path="url(#b)" clip-rule="evenodd"/><path fill="none" stroke="#224694" stroke-width=".757" d="M248.53 427.68c0 7.28-1.44 10.88-4.3 10.88-3 0-4.5-3.68-4.5-11.17 0-6.65 1.44-9.9 4.37-9.9 3.22 0 4.43 3.25 4.43 10.18zM239.62 416.07v-.22c0-11.53 2.4-18.23 7.62-18.23 2.47 0 4.37 1.36 6.1 4.18l.34-.15c.12-2.16.4-4.4.8-6.85-2.35-1.08-7.2-1.66-9.63-1.66-11.4 0-15.25 13-15.25 30.65 0 13.47 5.1 20 14.62 18.5 8.63-1.35 13.92-6.2 13.92-16.5 0-8.43-4.14-13.4-10.64-13.4-3.5 0-6.4 1.43-7.88 3.67z" clip-path="url(#b)"/><path fill="#224694" fill-rule="evenodd" d="M263.95 429.5c1.55 2.93 5.56 3.2 5.56 3.2 8.4-.36 7.4-13.55 7.4-13.55-.9-6.8-6-5.97-10.12-5.6-.68.06-1.68.15-2.3.26l.14-4.94c.43 0 .9.03 1.4-.02 4.4-.4 7.42-1.72 8.27-6.1.5-2.67-.04-6.83-4.56-6.7-5.08.12-5.9 3.88-7.34 5.85l-.6-.33-.54-5.86c2.63-3.14 9.3-3.58 9.3-3.58 6.84-.63 12.14 3.17 12.63 8.58.36 3.96-1.1 5.58-5.93 7.85l.04.38c5.7-.32 7.92 1.56 9.24 5.54 2.13 6.43 1.45 22.94-26.6 24.2 0 0 2.24-2.52 3.05-8.82l.95-.34" clip-path="url(#b)" clip-rule="evenodd"/><path fill="none" stroke="#224694" stroke-width=".627" d="M263.95 429.5c1.55 2.93 5.56 3.2 5.56 3.2 8.4-.36 7.4-13.55 7.4-13.55-.9-6.8-6-5.97-10.12-5.6-.68.06-1.68.15-2.3.26l.14-4.94c.43 0 .9.03 1.4-.02 4.4-.4 7.42-1.72 8.27-6.1.5-2.67-.04-6.83-4.56-6.7-5.08.12-5.9 3.88-7.34 5.85l-.6-.33-.54-5.86c2.63-3.14 9.3-3.58 9.3-3.58 6.84-.63 12.14 3.17 12.63 8.58.36 3.96-1.1 5.58-5.93 7.85l.04.38c5.7-.32 7.92 1.56 9.24 5.54 2.13 6.43 1.45 22.94-26.6 24.2 0 0 2.24-2.52 3.05-8.82l.95-.34z" clip-path="url(#b)"/><path fill="#224694" fill-rule="evenodd" d="M192.6 436.2c-4.67-1.75-11.75-5.55-11.75-5.55.4-3.78 1.24-11.86 1.24-25.3 0-1.5-.13-2.53-.24-4.65-2.25.9-1.33.13-3.57 1.45l-2.48-3.78c5.98-2 8.47-2.24 14.34-5.4l1.15.64c-.16 12.1-.06 18.83-.06 22.73 0 4.98.64 12.98 1.1 17.9.1 1.03.27 1.98.27 1.98" clip-path="url(#b)" clip-rule="evenodd"/><path fill="none" stroke="#224694" stroke-width=".675" d="M192.6 436.2c-4.67-1.75-11.75-5.55-11.75-5.55.4-3.78 1.24-11.86 1.24-25.3 0-1.5-.13-2.53-.24-4.65-2.25.9-1.33.13-3.57 1.45l-2.48-3.78c5.98-2 8.47-2.24 14.34-5.4l1.15.64c-.16 12.1-.06 18.83-.06 22.73 0 4.98.64 12.98 1.1 17.9.1 1.03.27 1.98.27 1.98z" clip-path="url(#b)"/><path fill="#E1393E" fill-rule="evenodd" d="M150.2 412.03c-4.3-3.8-8.48-7.95-12.53-12.46-19.94-22.18-29.1-44.9-29.18-45.13l-.1-.2-.06-.17c-11.37-26.75-12.62-58.25-12.62-70.8 0-3.44.1-5.45.1-5.55v-.4s0-46.77 0-163.53h54.24l.14 298.23M310.56 412.03c4.3-3.8 8.48-7.95 12.52-12.46 19.94-22.18 29.1-44.9 29.2-45.13l.07-.2.07-.17c11.37-26.75 12.62-58.25 12.62-70.8 0-3.44-.1-5.45-.1-5.55l-.02-.4s0-46.77 0-163.53H310.7l-.14 298.23" clip-path="url(#b)" clip-rule="evenodd"/><path fill="#fff" fill-rule="evenodd" d="M184.46 495.1c.56.2 1.08.33 1.6.47 8.1 2.1 13.08-.4 14.93-7.54 1.64-6.36-1-9.9-7.8-11.66-2.84-.74-5.6-1.13-8.12-1.8-.92-.23-2.03-.62-3.35-1.12-1.17 6.32-2.56 12-3.85 17-1.17 4.47-2.6 10.04-4.9 16.66 1.75.3 3.18.57 4.23.85 1.14.3 2.47.74 4.1 1.32.7-4.18 1.2-6.68 1.42-7.47l1.74-6.7m.87-3.5l1.96-7.56c.32-1.28.56-2.2.72-2.8.06-.25.25-1 .63-2.26.8.1 1.34.2 1.6.26 3.24.84 4.38 3.3 3.35 7.24-1.28 4.93-3.64 6.3-8.27 5.1zM206.96 498.43c0 11.34 6.08 17.56 17 17.55 11.27 0 17.74-6.9 17.73-18.86-.02-11.08-6.27-17.3-16.96-17.3-11.05 0-17.8 6.76-17.78 18.6m8.2-.46c-.02-9.44 3.6-14.8 9.17-14.82 5.52 0 9.15 5.25 9.16 14.8 0 9.45-3.7 14.72-9.14 14.72-5.57 0-9.2-5.2-9.2-14.7zM261.42 482.18c.3 2.83.72 5.25 1.04 7.1.14.75.26 1.46.35 2.06 1.28 7.33 2.47 14.25 4.16 20.84-2 .18-3.43.33-4.28.48-1.1.2-2.47.52-4.18.97-.58-6.3-1.43-12-2.32-17.22-.48-2.75-1.36-7.1-2.5-12.9-2.72.48-5.4 1.15-7.95 2-.08-.97-.14-1.9-.27-2.64-.08-.45-.3-1.13-.56-2.18 4.88-.63 8.9-1.17 11.98-1.7 2.94-.5 6.87-1.34 11.82-2.4.1 1.07.17 1.78.25 2.23.13.76.33 1.66.58 2.6-2.7.05-5.4.3-8.1.78M290.34 473.7c.77 2.75 1.57 5.06 2.2 6.84.25.72.48 1.4.7 1.97 2.43 7.03 4.75 13.66 7.5 19.87-1.92.52-3.32.9-4.14 1.18-1.06.37-2.35.93-3.96 1.66-1.6-6.12-3.38-11.6-5.13-16.6-.9-2.64-2.5-6.78-4.58-12.3-2.6.9-5.14 2-7.52 3.27-.23-.95-.44-1.84-.7-2.56-.14-.43-.47-1.07-.9-2.05 4.7-1.44 8.6-2.63 11.53-3.65 2.82-.98 6.56-2.45 11.26-4.32.26 1.04.46 1.73.6 2.16.26.72.6 1.57 1 2.45-2.64.5-5.26 1.2-7.86 2.1M312.76 481.08c-.56-1.02-1.13-2.05-1.7-3.08-.34-.62-.67-1.25-1.02-1.87-2.44-4.47-4.9-8.87-7.85-13.12 3.82-1.92 6.44-3.23 7.83-4 2.13-1.17 4.9-2.8 8.23-4.8.38.9.67 1.6.94 2.1.27.5.7 1.07 1.24 1.88-2.3.97-4.4 2-6.43 3.1-.86.5-1.73.97-2.54 1.47 1.15 2.27 2.3 4.48 3.48 6.63l1.3 2.37c2.13-1.3 4.94-3 8.45-5.16.38 1 .74 1.73.98 2.18.22.4.66 1.02 1.28 1.97-3.1 1.4-6.05 2.85-8.9 4.34l2.67 4.87c1.23 2.23 2.35 4.17 3.46 5.83 2.72-1.5 5.46-3.17 8.32-5.2.38.9.72 1.57 1.03 2.15.22.4.7 1.08 1.3 2.02-4.62 2.36-8 4.1-10.06 5.22-1.55.84-3.55 1.98-5.9 3.52-1.85-4.5-4-8.55-6.14-12.44" clip-path="url(#b)" clip-rule="evenodd"/><path fill="#fff" fill-rule="evenodd" d="M345.35 476.68c1.23-1.15 2.23-2.06 3.06-2.7.8-.6 1.92-1.36 3.33-2.27-2.2-2.35-4.24-4.83-6.24-7.4l-4.1-5.26c8 3.18 13.57 5.75 16.74 7.67 1.26-1.17 2.37-2.16 3.36-2.94.86-.66 2.24-1.6 4.04-2.82-5.14-1.8-11.3-4.23-18.55-7.56 3.16-2.98 3.3-7.22.28-11.07-3.9-5-8.14-5.08-13.52-.88-2.6 2.03-4.76 4.17-6.96 5.9-.82.63-1.78 1.24-2.84 1.94 4.44 4.8 8.07 9.4 11.18 13.37.34.44.72.93 1.1 1.4 2.66 3.42 5.78 7.5 9.1 12.65m-5.55-19.7l-4.33-5.53c-.88-1.12-2.07-2.64-3.44-4.6.5-.4.82-.58.93-.67 3.27-2.55 5.83-2.35 8.46 1 2.9 3.75 2.4 6.68-1.5 9.7-.03.03-.1.1-.13.12zM365.6 446.05l.5-.57c3.8 2.3 6.83 2.1 9.36-.78 2.3-2.62 2.22-5.45-.12-7.5-2.25-2-4.47-1.17-8.47.37-5.74 2.22-9.4 3.07-13.62-.62-4.9-4.3-5.3-10.3-.38-15.9 2-2.28 4.25-3.85 6.94-4.67 1.2 2.05 2.44 3.94 3.83 5.76l-.36.4c-3.63-1.5-6.2-1.18-8.26 1.15-2.1 2.4-1.85 5.1.03 6.76 2.26 1.97 4.52.72 9.1-1.02 5.33-1.98 8.82-3 13.25.9 5.36 4.7 5.55 11.2.13 17.36-2.03 2.3-4.3 3.97-6.56 4.92-1.9-2.4-3.7-4.57-5.35-6.57" clip-path="url(#b)" clip-rule="evenodd"/><path fill="#E1393E" fill-rule="evenodd" d="M129.56 70.16c-2.1-1.5-7.17-3.92-13.1-7.3-4.7-2.72-8.28-5-8.16-8.27.12-3.52 3.3-6.6 8.78-6.4 5.57.18 11.3 3.87 15.53 9.05l-.2-15.1c-3.82-1.17-7.64-1.78-11.67-1.9-16.4-.57-26.56 6.28-26.95 17.05-.25 6.94 4.2 11.4 12.77 16.16 7.7 4.34 14.25 6.26 14.46 11.66-.14 3.96-3.8 7.35-9.52 7.16-5.8-.2-11.75-4.2-16.16-10.02l.2 17c3.96 1.3 9 2 13.22 2.15 17.14.58 27.54-7.08 27.98-19.2-.02-4.8-2.3-8.6-7.16-12.04" clip-path="url(#b)" clip-rule="evenodd"/><path fill="#fff" fill-rule="evenodd" d="M105.08 426.38c-2.17 1.85-3.92 3.56-5.27 4.87-.53.53-1.04 1.02-1.48 1.46-5.33 5.2-10.37 10.1-14.84 15.2-1.28-1.52-2.2-2.63-2.8-3.24-.8-.82-1.85-1.75-3.18-2.9 4.87-4.04 9.08-7.96 12.87-11.66 2-1.95 5.1-5.15 9.23-9.35-1.92-1.98-4-3.8-6.13-5.44.75-.6 1.47-1.17 2-1.7.35-.32.8-.9 1.5-1.7 3.3 3.67 6 6.7 8.18 8.92 2.08 2.14 5 4.9 8.67 8.4-.83.67-1.38 1.14-1.7 1.46-.55.54-1.17 1.2-1.8 1.95-1.57-2.2-3.32-4.28-5.24-6.25M106.62 450c.44-.55.87-1.06 1.26-1.53 3.2-3.9 6.85-8.4 10.68-13.76 1.3 1.35 2.28 2.35 2.98 2.92.9.74 2.08 1.52 3.54 2.45-1.92 1.98-3.7 4-5.42 6.1l-3.53 4.28c2.2 1.94 3.67 3.28 4.48 3.94 1.44 1.17 3.17 2.46 5.12 3.93l3.53-4.28c1.7-2.1 3.32-4.26 4.9-6.53 1.36 1.4 2.4 2.43 3.1 3 .7.6 1.85 1.35 3.42 2.37-4.46 4.7-8.2 9.15-11.45 13.13-.4.47-.8.98-1.26 1.53-2.62 3.2-5.82 7.15-9.4 12.2-1.2-1.22-2.2-2.16-3.03-2.85-.88-.7-2.02-1.5-3.48-2.5 1.8-1.84 3.48-3.68 5.1-5.64l5.76-7c-1.88-1.7-3.52-3.1-4.88-4.22-.94-.78-2.5-2-4.7-3.67l-5.76 7c-1.62 1.97-3.13 3.95-4.57 6.06-1.28-1.24-2.3-2.2-3.17-2.93-.83-.68-1.98-1.5-3.36-2.44 4.26-4.47 7.52-8.37 10.15-11.55M138.2 476.03c.55-1.03 1.1-2.05 1.67-3.1.34-.62.68-1.24 1-1.87 2.43-4.48 4.8-8.94 6.76-13.72 3.7 2.17 6.23 3.66 7.63 4.42 2.14 1.15 5 2.6 8.5 4.3-.54.8-1 1.44-1.25 1.94-.26.48-.52 1.15-.9 2.05-2.06-1.4-4.08-2.6-6.1-3.7-.88-.48-1.75-.95-2.6-1.36-1.3 2.2-2.53 4.36-3.7 6.5l-1.27 2.4c2.23 1.08 5.2 2.5 8.9 4.3-.6.86-1.05 1.56-1.28 2-.23.4-.5 1.12-.96 2.15-2.87-1.83-5.7-3.53-8.5-5.1l-2.63 4.88c-1.2 2.24-2.24 4.23-3.02 6.07 2.74 1.47 5.64 2.87 8.88 4.16-.54.8-.94 1.45-1.25 2.04-.22.4-.53 1.16-.98 2.2-4.5-2.6-7.78-4.5-9.85-5.62-1.55-.84-3.6-1.9-6.15-3.04 2.77-4 5-8 7.1-11.9" clip-path="url(#b)" clip-rule="evenodd"/></svg>