<?xml version="1.0" encoding="UTF-8"?>
<!DOCTYPE svg  PUBLIC '-//W3C//DTD SVG 1.0//EN'  'http://www.w3.org/TR/2001/REC-SVG-20010904/DTD/svg10.dtd'>
<svg width="390.95px" height="396.2px" enable-background="new 0 0 390.951 396.2" version="1.0" viewBox="0 0 390.951 396.2" xml:space="preserve" xmlns="http://www.w3.org/2000/svg">
<path d="m334.14 223.04c-10.038-18.247-13.649-36.761-13.657-54.223-0.012-22.491 6.094-43.173 12.253-58.165 3.074-7.494 6.151-13.563 8.44-17.722 1.145-2.08 2.091-3.682 2.741-4.75 0.325-0.533 0.576-0.931 0.74-1.189 0.083-0.128 0.142-0.222 0.18-0.279 0.037-0.058 0.04-0.063 0.04-0.063l4.279-6.452-7.032-3.239c-7.029-3.241-12.679-8.156-17.276-13.91-6.892-8.609-11.256-19.092-13.78-27.388-1.268-4.146-2.086-7.735-2.581-10.255-0.246-1.259-0.415-2.25-0.517-2.91-0.051-0.331-0.086-0.578-0.108-0.732-0.021-0.157-0.024-0.186-0.024-0.186l-0.868-7.127-7.034 1.425c-15.665 3.167-29.226 4.398-40.854 4.398-21.617-5e-3 -36.559-4.238-46.024-8.315-4.731-2.042-8.093-4.051-10.218-5.495-1.062-0.722-1.816-1.304-2.275-1.676-0.229-0.187-0.384-0.322-0.468-0.396-0.043-0.038-0.066-0.059-0.072-0.065v1e-3l-4.535-4.322-4.559 4.322c-0.253 0.164-17.216 15.901-59.06 15.947-11.627 0-25.188-1.231-40.855-4.398l-7.035-1.423-0.865 7.125-7e-3 0.061c-0.12 0.97-1.696 11.962-6.874 24.064-2.58 6.054-6.049 12.369-10.563 17.883-4.52 5.523-10.033 10.235-16.842 13.374l-7.032 3.239 4.279 6.452s3e-3 4e-3 0.04 0.063c1.212 1.748 24.45 38.523 24.352 82.105-7e-3 17.462-3.619 35.976-13.655 54.223-8.952 16.26-13 31.859-13.001 45.871-0.014 16.058 5.375 30.033 14.599 39.96 9.193 9.941 22.208 15.695 36.502 15.67 5.922 0 12.054-0.972 18.236-2.959 10.926-3.52 18.615-6.827 24.488-9.092 5.92-2.292 9.703-3.384 13.539-3.378 3.515 2e-3 7.674 0.892 14.159 3.641 6.452 2.734 15.02 7.276 26.846 14.048l3.295 1.886 3.295-1.885c11.826-6.772 20.393-11.315 26.845-14.05 6.484-2.748 10.643-3.639 14.159-3.641 3.836-5e-3 7.617 1.086 13.54 3.377 5.873 2.265 13.563 5.573 24.485 9.092 6.185 1.992 12.318 2.962 18.237 2.962 14.293 0.024 27.309-5.73 36.502-15.671 9.223-9.927 14.613-23.904 14.6-39.961-2e-3 -14.01-4.048-29.611-12.999-45.868v-4e-3z" fill="#fff"/>
<path d="m331.99 224.22c-10.262-18.649-13.957-37.608-13.962-55.406-6e-3 -22.936 6.198-43.904 12.437-59.098 3.117-7.595 6.235-13.745 8.561-17.973 1.164-2.113 2.128-3.748 2.795-4.843 0.333-0.548 0.593-0.961 0.766-1.232 0.173-0.27 0.245-0.377 0.243-0.379l2.696-4.064-4.428-2.039c-14.844-6.799-23.899-20.938-29.139-33.721-2.616-6.364-4.271-12.324-5.257-16.66-0.494-2.167-0.825-3.931-1.027-5.136-0.103-0.604-0.172-1.068-0.216-1.374-0.044-0.307-0.057-0.425-0.057-0.425l-0.546-4.489-4.43 0.897c-15.815 3.198-29.541 4.446-41.342 4.447-21.967-2e-3 -37.27-4.319-47.033-8.533-4.881-2.109-8.377-4.195-10.617-5.719-1.119-0.763-1.924-1.384-2.432-1.797-0.253-0.205-0.433-0.36-0.538-0.453-0.052-0.047-0.087-0.078-0.104-0.094l-2.883-2.753-2.881 2.753c-0.552 0.465-18.189 16.569-60.725 16.597-11.801 0-25.527-1.25-41.34-4.447l-4.431-0.896-0.546 4.487s-0.013 0.118-0.058 0.425c-0.325 2.293-2.159 13.483-7.526 25.574-5.373 12.133-14.194 24.932-28.113 31.317l-4.428 2.039 2.693 4.064c2e-3 1e-3 0.072 0.109 0.245 0.379 2.622 4.05 24.613 40.142 24.559 83.146-6e-3 17.798-3.699 36.757-13.961 55.407-8.782 15.955-12.695 31.151-12.697 44.686-8e-3 15.517 5.179 28.854 13.942 38.289 8.745 9.445 21.057 14.9 34.703 14.885 5.653 0 11.53-0.926 17.483-2.84 10.82-3.486 18.412-6.753 24.355-9.047 5.973-2.309 10.091-3.545 14.425-3.54 3.959 0 8.474 1.016 15.119 3.834 6.625 2.81 15.247 7.388 27.107 14.179l2.074 1.188 2.076-1.188c11.86-6.79 20.482-11.368 27.107-14.177 6.645-2.818 11.159-3.834 15.119-3.835 4.332-3e-3 8.452 1.232 14.423 3.54 5.943 2.293 13.535 5.559 24.355 9.045 5.955 1.919 11.833 2.843 17.483 2.842 13.645 0.017 25.956-5.44 34.702-14.885 8.763-9.435 13.949-22.771 13.942-38.29 0-13.535-3.912-28.733-12.693-44.687z" fill="#B48D00"/>
<path d="m56.424 283.15c-1.166-4.365-1.798-9.127-1.801-14.241 0-11.917 3.451-25.741 11.661-40.657 4.612-8.377 7.988-16.831 10.357-25.219h79.879c0.019 0.218 0.032 0.438 0.054 0.654l-100.15 79.463z" fill="#fff"/>
<path d="m192.16 314.36c-9.293-5.221-16.519-8.977-22.599-11.561-7.19-3.055-12.911-4.501-18.384-4.5-6.019 2e-3 -11.287 1.732-17.435 4.103-6.178 2.387-13.441 5.513-23.905 8.885-5.176 1.664-10.183 2.44-14.923 2.44-3.411-5e-3 -6.682-0.412-9.791-1.174l96.382-76.419c3.354 1.285 6.93 2.117 10.655 2.43v75.796z" fill="#fff"/>
<path d="m192.16 160.63c-18.916 1.591-33.992 16.633-35.638 35.531h-78.153c2.048-9.314 2.916-18.497 2.914-27.348-0.046-33.49-12.239-62.295-19.971-77.23h130.85v69.047z" fill="#DC161B"/>
<path d="m58.68 83.912c14.42-8.732 22.97-22.952 28.044-35.272 3.594-8.76 5.48-16.67 6.388-21.35 14.566 2.699 27.451 3.791 38.757 3.791 36.603 0.023 56.607-11.506 63.607-16.577 7 5.071 27.004 16.601 63.606 16.577 11.306 0 24.189-1.092 38.758-3.791 0.909 4.679 2.794 12.59 6.388 21.35 5.074 12.321 13.625 26.54 28.044 35.272h-273.59z" fill="#fff"/>
<path d="m312.58 196.16h-78.151c-0.054-0.616-0.123-1.227-0.204-1.834l80.515-63.838c-2.976 11.556-5.054 24.542-5.072 38.324-3e-3 8.851 0.864 18.034 2.912 27.348z" fill="#fff"/>
<path d="M208.3,162.644c-3.018-1.048-6.203-1.735-9.506-2.013V91.583h99.068L208.3,162.644z" fill="#fff"/>
<path d="m324.62 301.51c-7.217 7.754-17.139 12.198-28.577 12.213-4.741 0-9.748-0.773-14.922-2.44-10.466-3.372-17.728-6.5-23.906-8.885-6.149-2.371-11.417-4.101-17.434-4.103-5.475-1e-3 -11.195 1.446-18.384 4.5-6.08 2.583-13.306 6.34-22.6 11.561v-75.795c18.915-1.594 33.991-16.636 35.639-35.531h79.878c2.369 8.389 5.745 16.844 10.357 25.221l1e-3 -1e-3c8.209 14.915 11.659 28.738 11.658 40.655-6e-3 13.678-4.511 24.841-11.71 32.605z" fill="#DC161B"/>
<path d="m218.82 63.425h-4.934v-6.936c0-2.48 2.5-3.615 2.5-3.615v-10.672h-1.906v3.455h-7.54c-3.204 0-2.939-3.11-2.939-3.11v-4.365h-23.002v4.021h-17.605c-0.997 0-0.879 1.045-0.879 1.045h-3.76c-1.418 0-1.418-1.188-1.418-1.188v-1.803h0.328v-0.684h-3.865v0.706h0.368v1.771c0 1.564-1.359 1.654-1.359 1.654l-12.858 1.436h-13.142c-1.979 0-1.886-1.892-1.886-1.892v-3.386h0.271v-0.922h-4.502v0.921h0.302v3.373c0 2.314-2.032 2.015-2.032 2.015h-4.449v0.324s-1.542 1.658-1.542 6.31 1.542 6.209 1.542 6.209v0.438h3.308v1.211h-3.308c0 3.812-2.922 3.673-2.922 3.673h-6.716v0.587h-4.155v-0.577h-0.772v3.597h0.796v-0.619h4.138v0.619h2.974v1.963h0.556c-0.191 0.494-0.301 1.03-0.301 1.591 0 2.43 1.966 4.396 4.396 4.396 2.424 0 4.394-1.966 4.394-4.396 0-0.562-0.109-1.097-0.301-1.591h12.279c1.218 3.43 4.481 5.892 8.326 5.892 3.846 0 7.11-2.462 8.329-5.892h3.644c1.218 3.43 4.482 5.892 8.325 5.892 3.848 0 7.111-2.462 8.329-5.892h3.946c1.217 3.43 4.479 5.892 8.326 5.892 3.846 0 7.111-2.462 8.329-5.892h6.703c0 0.959-0.915 1.625-0.915 1.625v0.626h6.323v-0.625c-0.719-0.506-0.876-1.625-0.876-1.625h2.814c-0.186 0.487-0.293 1.015-0.293 1.567 0 2.428 1.968 4.395 4.398 4.395 2.429 0 4.391-1.966 4.391-4.395 0-0.553-0.106-1.08-0.292-1.567h4.391c0.825 0 0.719-0.729 0.719-0.729v-1.693c0.829 0 0.693-0.94 0.693-0.94h4.343v0.329h0.583v-2.895h-0.593v0.368zm-30.788-3.676s-1.859-6.003-10.042-6.045c-8.189 0.042-10.043 6.045-10.043 6.045h-0.265s-1.863-6.003-10.048-6.045c-8.186 0.042-10.046 6.045-10.046 6.045h-0.27s-1.863-6.003-10.045-6.045c-8.189 0.042-10.046 6.045-10.046 6.045l-6.677 3e-3v-1.261h5.742c0.272-0.709 0.477-1.071 0.477-1.071s2.311-5.104 10.504-5.139c8.182 0.035 10.045 4.91 10.045 4.91h0.27s1.86-4.872 10.049-4.91c8.183 0.039 10.045 4.851 10.045 4.851h0.265s1.854-4.812 10.043-4.851c8.186 0.039 10.442 5.139 10.442 5.139s0.444 0.765 0.787 2.321l-1.187 8e-3zm8.936 8.91h-3.126v-2.343h3.126v2.343zm0-3.322h-3.126v-2.337h3.126v2.337zm0-3.392h-3.126v-2.336h3.126v2.336zm1.638-12.79h-1.384v9.461h-3.669v-9.451h-3.213s-2.21 0.142-2.21-2.057v-2.537s0.108-1.873 2.21-1.873c2.099 0 8.267 0.027 8.267 0.027s2.22 0 2.22 1.873v2.509c-1e-3 2e-3 -0.028 2.048-2.221 2.048z" fill="#DC161B"/>
<path d="m281.76 63.046v0.365h-4.938l-2e-3 0.125v-13.411c-3.879 0-3.893-3.865-3.893-3.865h-43.303c0 3.878-3.873 3.865-3.873 3.865v13.286h-4.801v-0.365h-0.594v2.895h0.583v-0.334h4.343s-0.103 0.75 0.468 0.908v2.45h4.229c-1e-3 0.054-8e-3 0.105-8e-3 0.16 0 3.217 2.606 5.823 5.823 5.823 3.216 0 5.829-2.606 5.829-5.823 0-0.054-7e-3 -0.106-8e-3 -0.16h3.905c-1e-3 0.054-8e-3 0.105-8e-3 0.16 0 3.217 2.606 5.823 5.823 5.823s5.826-2.606 5.826-5.823c0-0.054-7e-3 -0.106-8e-3 -0.16h3.922c-1e-3 0.054-8e-3 0.105-8e-3 0.16 0 3.217 2.606 5.823 5.822 5.823 3.217 0 5.823-2.606 5.823-5.823 0-0.054-7e-3 -0.106-8e-3 -0.16h4.115v-2.428c0.727-0.067 0.607-0.929 0.607-0.929h4.344v0.334h0.583v-2.895h-0.593z" fill="#DC161B"/>
<path d="m240.96 253.67l3.071-11.911-1.465 0.016-0.126 0.113c-0.87 0.776-1.704 1.44-2.501 1.995-0.75 0.527-2.992 1.687-6.63 3.417l-0.376 0.179 0.746 1.892 0.428-0.192c1.253-0.561 2.23-0.98 2.924-1.257 0.348-0.138 0.625-0.241 0.824-0.306 0.099-0.034 0.181-0.058 0.236-0.07 0.054-0.015 0.06-9e-3 0.062-0.015 0.118 6e-3 0.106 0.022 0.112 0.023 7e-3 4e-3 0.05 0.079 0.049 0.265 0.01 0.302-0.362 2.227-1.104 5.504l-2.267 8.671c-0.488 1.826-0.998 2.976-1.345 3.324-0.228 0.262-0.774 0.536-1.653 0.702-0.956 0.199-1.798 0.393-2.54 0.595l-0.231 0.061-0.667 1.996 0.728-0.112c2.018-0.316 3.875-0.473 5.591-0.473 1.155-1e-3 3.259 0.157 6.264 0.477l0.339 0.036 0.739-1.894-0.53-0.099c-0.618-0.113-1.25-0.198-1.895-0.253-0.805-0.071-1.339-0.215-1.415-0.28-0.156-0.106-0.143-0.118-0.153-0.195-5e-3 -0.204 0.104-0.792 0.346-1.647l2.439-10.562z" fill="#fff"/>
<path d="m264.3 243.32c-1.023-0.894-2.36-1.333-3.925-1.331-2.119-3e-3 -3.955 0.703-5.423 2.083-1.472 1.377-2.23 3.081-2.226 5.003-1e-3 1.759 0.688 3.47 2.021 5.098-2.322 1.435-3.819 2.457-4.547 3.139-0.957 0.881-1.674 1.8-2.139 2.765-0.458 0.954-0.696 1.911-0.696 2.856-3e-3 1.417 0.58 2.75 1.692 3.906 1.143 1.205 2.811 1.79 4.895 1.79h0.023c2.565 4e-3 4.792-0.864 6.586-2.57 1.784-1.689 2.723-3.654 2.718-5.818-4e-3 -2.144-1.134-4.334-3.286-6.602 1.906-1.047 3.404-2.232 4.478-3.573 0.905-1.119 1.386-2.312 1.384-3.537 6e-3 -1.232-0.54-2.339-1.555-3.209zm-5.921 8.499c-1.351-1.522-1.976-2.906-1.973-4.128 4e-3 -0.954 0.327-1.726 1.004-2.413 0.686-0.674 1.464-0.996 2.435-1 0.813 2e-3 1.437 0.251 1.97 0.764 0.531 0.528 0.768 1.096 0.773 1.807 0 0.586-0.243 1.269-0.802 2.037-0.495 0.691-1.645 1.698-3.407 2.933zm-1.291 14.025c-0.743 0.433-1.479 0.644-2.25 0.644-1.07-4e-3 -1.918-0.345-2.643-1.061-0.714-0.717-1.058-1.544-1.063-2.59 1e-3 -1.113 0.347-2.192 1.069-3.29 0.667-1.008 2.027-2.275 4.065-3.73 1.315 1.46 2.182 2.617 2.587 3.428 0.448 0.886 0.659 1.684 0.659 2.391-1e-3 0.785-0.219 1.574-0.668 2.38-0.447 0.799-1.032 1.401-1.756 1.828z" fill="#fff"/>
<path d="m287.26 242.5l-0.956 0.026c-2.188 0.058-4.436 0.088-6.747 0.088-3.395 1e-3 -5.838-0.123-7.291-0.35l-0.415-0.065-0.091 0.411c-0.202 0.917-0.573 2.232-1.101 3.929-0.277 0.866-0.446 1.402-0.508 1.601l-0.183 0.583h1.989l0.112-0.287c0.449-1.195 0.888-1.921 1.046-2.016 0.143-0.131 0.705-0.285 1.61-0.276h6.977l-2.148 2.656c-4.959 6.094-8.145 10.417-9.579 13.043-0.998 1.816-1.525 3.426-1.528 4.857-3e-3 0.625 0.197 1.199 0.593 1.647 0.388 0.443 0.911 0.703 1.474 0.697h0.027c0.605 0 1.168-0.289 1.531-0.796 0.415-0.561 0.632-1.519 0.844-3.023 0.191-1.434 0.463-2.538 0.788-3.288 0.705-1.649 2.095-4.032 4.168-7.1 1.169-1.759 4.113-5.632 8.796-11.585l0.592-0.752z" fill="#fff"/>
<path d="m300.89 244.35c-1.309-1.564-3.056-2.371-5.103-2.364-2.398-6e-3 -4.436 0.916-5.975 2.714-1.774 2.042-2.658 4.58-2.654 7.534-1e-3 2.163 0.504 3.891 1.582 5.13 1.062 1.222 2.511 1.85 4.22 1.844 0.889 0 1.76-0.173 2.611-0.512 0.448-0.179 0.891-0.404 1.327-0.673-0.617 1.665-1.368 3.023-2.242 4.082-1.1 1.324-2.432 2.359-3.998 3.096-1.561 0.739-3.473 1.164-5.758 1.253l-0.352 0.013-0.434 2.168 0.557-9e-3c0.069-1e-3 0.148 0 0.234 0 3.333 0 6.335-0.743 8.971-2.236 2.7-1.529 4.878-3.731 6.519-6.576s2.466-5.864 2.466-9.039c2e-3 -2.687-0.635-4.848-1.971-6.425zm-2.599 5.479c0 1.341-0.174 3.064-0.537 5.16-0.664 0.55-1.277 0.959-1.833 1.233-0.592 0.297-1.113 0.429-1.581 0.429-0.69-7e-3 -1.253-0.331-1.805-1.146-0.508-0.75-0.816-2.225-0.81-4.349-3e-3 -2.591 0.425-4.511 1.22-5.771 0.6-0.936 1.291-1.333 2.24-1.345 0.867 9e-3 1.542 0.381 2.171 1.256 0.592 0.831 0.939 2.352 0.935 4.533z" fill="#fff"/>
<path d="m71.361 301.58c1.366 0.876 4.347 2.274 6.266 0.76 1.017-0.811 1.24-2.135 0.173-3.492-0.972-1.225-2.282-1.303-3.936-0.947l-0.408 0.089c-2.234 0.478-4.913 0.834-6.674-1.396-1.86-2.348-1.765-5.537 1.306-7.97 0.607-0.476 1.3-0.89 1.999-1.171 0.551-0.228 0.93-0.4 1.254-0.519 0.719 0.753 1.664 1.666 2.995 2.911l-0.747 0.828c-1.515-1.035-3.366-1.968-4.917-0.747-1.001 0.794-1.064 2.166-0.275 3.16 0.832 1.038 2.068 1.038 3.802 0.655l0.59-0.129c2.494-0.556 4.881-0.719 6.81 1.717 2.022 2.559 1.571 5.965-1.466 8.374-0.786 0.617-1.72 1.083-2.394 1.316-0.755 0.254-1.3 0.408-1.637 0.468-0.91-0.821-2.053-1.75-3.392-2.956l0.651-0.951z" fill="#fff"/>
<path d="m79.238 281.63l-0.56 0.583c-0.638 0.675-0.583 0.865 0.328 1.537l7.39 5.525 0.042-0.034-4.452-10.902 1.372-1.083 9.993 6.515 0.036-0.026c-1.238-2.976-2.833-6.488-3.517-7.913-0.686-1.392-0.921-1.575-1.849-1.012l-0.81 0.509-0.643-0.815 4.684-3.705 0.64 0.814c-0.962 1.035-1.091 1.234-0.305 3.59 0.11 0.352 2.394 6.328 5.375 13.321l-1.512 1.194-9.565-6.172-0.042 0.024 4.065 10.532-1.507 1.194-11.958-8.31c-1.893-1.317-2.313-1.117-3.313-0.53l-0.643-0.818 6.111-4.828 0.64 0.81z" fill="#fff"/>
<path d="m104.66 276.78c1.78 2.252 2.055 2.27 3.507 1.33l0.636 0.807-6.342 5.019-0.643-0.812c1.25-1.187 1.292-1.459-0.487-3.705l-5.434-6.875c-1.778-2.247-2.046-2.267-3.501-1.324l-0.64-0.815 6.346-5.021 0.639 0.815c-1.252 1.194-1.292 1.465 0.489 3.712l5.43 6.869z" fill="#fff"/>
<path d="m121.79 268.89l-1.681 1.333-15.021-4.095-0.041 0.031 3.034 3.831c1.726 2.192 2.71 3.271 3.303 3.852 0.673 0.654 1.415 0.499 2.759-0.451l0.643 0.807-4.881 3.858-0.64-0.805c0.83-0.733 1.105-1.421 0.626-2.229-0.428-0.709-1.255-1.914-2.986-4.098l-3.031-3.832c-1.214-1.547-1.469-1.778-2.324-2.053-0.643-0.207-1.244 0.03-2 0.53l-0.64-0.812 4.327-3.427 13.355 3.488 0.042-0.034-2.211-2.796c-1.73-2.182-2.709-3.264-3.3-3.848-0.678-0.655-1.418-0.506-2.764 0.461l-0.634-0.817 4.99-3.95 0.642 0.818c-0.945 0.808-1.222 1.506-0.747 2.307 0.437 0.712 1.262 1.914 2.987 4.106l6.193 7.825z" fill="#fff"/>
<path d="m119.34 248.6c2.411-1.907 4.801-2.986 7.182-2.673 1.664 0.217 3.646 1.144 5.063 2.945 4.101 5.174 2.162 10.328-2.361 13.905l-5.056 4.004-0.64-0.814c1.327-1.259 1.37-1.531-0.407-3.773l-5.431-6.868c-1.781-2.253-2.053-2.273-3.425-1.392l-0.643-0.808 5.718-4.526zm7.122 10.98c1.468 1.859 2.18 1.859 3.122 1.12 1.682-1.33 1.817-4.663-1.096-8.334-3.539-4.485-6.661-4.041-8.325-2.722-0.451 0.354-0.657 0.615-0.729 0.809-0.066 0.115 0.298 0.611 0.705 1.129l6.323 7.998z" fill="#fff"/>
<path d="m146.61 237.75c3.522 4.452 2.872 9.508-0.894 12.484-3.95 3.132-8.939 2.1-11.969-1.734-2.666-3.373-3.631-8.941 1.05-12.642 3.588-2.834 8.55-2.231 11.813 1.892m-9.781 7.16c2.981 3.771 6.482 5.463 8.408 3.943 1.681-1.333 1.233-3.787-1.744-7.56-3.308-4.18-6.547-5.378-8.232-4.038-1.504 1.188-1.316 4.01 1.568 7.655" fill="#fff"/>
<path d="m165.1 234.64l-1.688 1.331-15.021-4.096-0.034 0.03 3.027 3.832c1.733 2.188 2.716 3.274 3.3 3.851 0.678 0.656 1.421 0.509 2.765-0.454l0.64 0.811-4.878 3.857-0.636-0.811c0.824-0.723 1.101-1.412 0.622-2.229-0.431-0.699-1.259-1.907-2.98-4.092l-3.034-3.834c-1.22-1.541-1.474-1.778-2.324-2.057-0.64-0.2-1.245 0.041-2.002 0.533l-0.643-0.811 4.33-3.421 13.352 3.478 0.042-0.023-2.21-2.797c-1.727-2.185-2.71-3.271-3.296-3.844-0.67-0.655-1.418-0.513-2.762 0.451l-0.64-0.815 4.997-3.946 0.639 0.808c-0.948 0.811-1.227 1.513-0.748 2.314 0.435 0.709 1.259 1.921 2.989 4.102l6.193 7.832z" fill="#fff"/>
<path d="m238.5 170.5c1.778 2.25 2.057 2.267 3.801 1.096l0.635 0.813-6.851 5.417-0.648-0.808c1.469-1.367 1.517-1.635-0.261-3.886l-7.207-9.118-0.339 0.263c-1.313 1.037-1.643 1.707-1.663 2.33 0.014 0.497 0.204 1.226 0.869 2.59l-0.811 0.653c-1.313-1.811-2.334-3.342-3.125-4.437l0.597-0.475c0.675 0.243 0.896 0.131 1.438-0.285l7.805-6.186c0.516-0.402 0.509-0.604 0.509-1.247l0.61-0.48c0.716 0.855 2.206 2.555 3.53 4.014l-0.815 0.746c-1.283-1.015-1.92-1.389-2.504-1.512-0.628-0.11-1.368 0.275-2.308 1.015l-0.474 0.375 7.212 9.122z" fill="#fff"/>
<path d="m253.15 153.06c3.522 4.453 2.864 9.509-0.892 12.483-3.956 3.13-8.941 2.099-11.975-1.734-2.664-3.378-3.623-8.94 1.052-12.645 3.583-2.831 8.551-2.227 11.815 1.896m-9.778 7.156c2.972 3.773 6.48 5.466 8.401 3.948 1.689-1.332 1.242-3.783-1.741-7.559-3.311-4.182-6.545-5.381-8.238-4.047-1.504 1.195-1.307 4.02 1.578 7.658" fill="#fff"/>
<path d="m254.56 142.53l-0.567 0.573c-0.638 0.677-0.576 0.875 0.326 1.539l7.39 5.526 0.044-0.032-4.445-10.896 1.368-1.084 9.989 6.515 0.044-0.032c-1.239-2.977-2.84-6.482-3.519-7.911-0.686-1.389-0.93-1.571-1.853-1.011l-0.807 0.507-0.645-0.813 4.689-3.7 0.638 0.812c-0.97 1.029-1.089 1.234-0.313 3.594 0.119 0.35 2.402 6.327 5.375 13.313l-1.507 1.192-9.568-6.174-0.041 0.031 4.068 10.527-1.509 1.192-11.964-8.312c-1.887-1.31-2.307-1.111-3.302-0.524l-0.641-0.813 6.1-4.83 0.65 0.811z" fill="#fff"/>
<path d="m289.56 135.77l-1.683 1.33-15.021-4.097-0.034 0.036 3.027 3.829c1.731 2.188 2.71 3.269 3.298 3.846 0.678 0.657 1.424 0.511 2.769-0.451l0.638 0.813-4.873 3.856-0.651-0.813c0.834-0.72 1.113-1.418 0.631-2.224-0.435-0.704-1.259-1.911-2.983-4.099l-3.033-3.833c-1.218-1.541-1.466-1.776-2.329-2.055-0.634-0.202-1.245 0.039-1.995 0.536l-0.642-0.813 4.323-3.423 13.359 3.484 0.041-0.034-2.209-2.791c-1.731-2.188-2.719-3.269-3.302-3.853-0.669-0.65-1.415-0.507-2.759 0.451l-0.645-0.806 4.995-3.953 0.651 0.813c-0.953 0.816-1.235 1.511-0.76 2.321 0.442 0.703 1.259 1.91 2.996 4.096l6.191 7.834z" fill="#fff"/>
<path d="m294.85 119.2l1.331-1.054c1.686-1.333 1.645-1.505 0.668-3.137l0.862-0.683 3.662 4.622-0.862 0.679c-1.5-1.488-1.652-1.564-3.345-0.234l-1.331 1.053 2.291 2.898c1.771 2.248 2.042 2.264 3.76 1.118l0.641 0.818-6.549 5.172-0.645-0.813c1.194-1.144 1.249-1.415-0.533-3.663l-5.432-6.875c-1.782-2.249-2.056-2.269-3.454-1.37l-0.638-0.813 9.46-7.484c0.298 0.337 1.595 1.787 2.969 3.303l-0.818 0.749c-1.031-0.908-1.709-1.318-2.287-1.401-0.59-0.111-1.344 0.274-2.379 1.099l-0.913 0.729c-0.353 0.277-0.397 0.306 0.211 1.078l3.331 4.209z" fill="#fff"/>
<path d="m309.68 104.08c-2.64-2.042-4.385-1.748-5.771-0.65-2.353 1.859-1.66 5.709 0.716 8.71 3.019 3.826 6.732 4.893 8.747 3.295 1.7-1.349 1.765-3.285 0.946-6.369l0.974-0.537c0.72 1.429 1.676 3.593 1.964 4.647-0.383 0.535-1.795 2.369-3.104 3.405-5.267 4.168-10.152 2.272-12.802-1.084-3.404-4.309-2.569-9.774 1.95-13.354 1.633-1.282 3.271-1.906 3.926-2.212 1.052 1.018 1.856 1.876 3.206 3.342l-0.752 0.807z" fill="#fff"/>
<circle cx="195.48" cy="199.6" r="35.49" fill="#fff"/>
<path d="m215.49 176.22c0.926 1.895 1.917 4.151 2.595 6.206-4.507-1.501-9.004-2.378-13.332-2.85-0.03-2.115-0.188-7.332-1.12-11.896 3.435 0.875 6.649 2.296 9.557 4.156 0.3 0.529 1.249 2.223 2.3 4.384z" fill="#B48D00"/>
<path d="m213.44 227.19c-2.991 1.951-6.312 3.431-9.868 4.33 0.953-4.476 1.191-9.597 1.252-11.775 4.317-0.475 8.8-1.354 13.294-2.853-0.665 2.032-1.619 4.236-2.508 6.088-0.963 2.012-1.834 3.606-2.17 4.21z" fill="#B48D00"/>
<path d="m220.91 209.79c-0.497 1.389-0.995 2.505-1.364 3.268-0.157 0.324-0.285 0.57-0.386 0.76-8.109 3.039-16.345 3.864-23.681 3.863-7.335 1e-3 -15.574-0.824-23.683-3.865-0.524-0.983-1.902-3.819-2.833-7.665 9.134 2.019 18.335 2.544 26.515 2.545 8.181-1e-3 17.383-0.526 26.518-2.546-0.324 1.349-0.703 2.576-1.086 3.64z" fill="#B48D00"/>
<path d="m175.35 222.98c-0.889-1.853-1.842-4.057-2.507-6.089 4.495 1.499 8.978 2.379 13.295 2.854 0.062 2.178 0.299 7.299 1.252 11.774-3.557-0.898-6.879-2.379-9.869-4.33-0.337-0.605-1.207-2.197-2.171-4.209z" fill="#B48D00"/>
<path d="m222.89 198.84c0 1.589-0.136 3.117-0.357 4.555-9.223 2.168-18.657 2.739-27.061 2.738-8.403 1e-3 -17.836-0.57-27.058-2.738-0.222-1.439-0.362-2.964-0.361-4.554 0-0.933 0.051-1.886 0.153-2.853 9.274-2.183 18.792-2.772 27.266-2.772s17.991 0.589 27.265 2.771c0.102 0.966 0.152 1.92 0.153 2.853z" fill="#B48D00"/>
<path d="m195.48 190.66c-8.286 2e-3 -17.607 0.547-26.829 2.602 0.551-2.544 1.534-5.152 3.118-7.735 8.12-3.047 16.366-3.875 23.711-3.874 7.344-1e-3 15.592 0.827 23.712 3.875 1.583 2.584 2.565 5.191 3.116 7.735-9.223-2.057-18.544-2.601-26.828-2.603z" fill="#B48D00"/>
<path d="m177.77 171.84c2.907-1.859 6.12-3.279 9.554-4.154-0.931 4.564-1.089 9.78-1.119 11.896-4.328 0.471-8.824 1.349-13.332 2.85 0.677-2.055 1.669-4.311 2.596-6.207 1.052-2.164 2.003-3.86 2.301-4.385z" fill="#B48D00"/>
<path d="m200.89 167.11c1.033 4.235 1.261 9.838 1.304 12.23-2.305-0.174-4.553-0.246-6.713-0.246-2.161 0-4.41 0.072-6.716 0.246 0.043-2.393 0.271-7.995 1.307-12.23 1.76-0.291 3.565-0.45 5.409-0.45 1.843 0 3.648 0.159 5.409 0.45z" fill="#B48D00"/>
<path d="m162.54 199.6c0-9.098 3.685-17.322 9.645-23.286 0.235-0.235 0.481-0.461 0.723-0.689-1.201 2.513-2.472 5.542-3.088 8.179h-1e-3v-1e-3c-3.24 5.095-4.326 10.358-4.324 15.048 0.013 9.059 3.956 16.039 4.279 16.614 0.592 2.561 1.779 5.465 2.916 7.905-0.168-0.161-0.341-0.317-0.505-0.482-5.961-5.965-9.645-14.19-9.645-23.288z" fill="#B48D00"/>
<path d="m190.14 232.09c-0.668-2.647-1.049-5.852-1.246-8.459-0.113-1.478-0.17-2.755-0.2-3.646 2.327 0.178 4.597 0.251 6.777 0.252 2.18 0 4.451-0.075 6.777-0.253-0.029 0.892-0.086 2.169-0.199 3.648-0.198 2.606-0.578 5.812-1.246 8.458-1.736 0.283-3.516 0.436-5.332 0.436s-3.595-0.152-5.331-0.436z" fill="#B48D00"/>
<path d="m218.76 222.88c-0.164 0.164-0.337 0.32-0.504 0.48 1.136-2.439 2.323-5.341 2.915-7.902 0.32-0.568 4.266-7.552 4.278-16.615 3e-3 -4.69-1.083-9.953-4.323-15.046-0.617-2.638-1.889-5.666-3.09-8.179 0.243 0.229 0.488 0.454 0.724 0.689 5.962 5.963 9.645 14.188 9.645 23.286-1e-3 9.098-3.683 17.323-9.645 23.287z" fill="#B48D00"/>
<path d="m177.18 113.98l-4.068 0.052c-2.481 2e-3 -10.027 2.403-10.033 2.404-5.737 1.719-15.693 6.056-17.348 6.782 2.64 0.459 5.62 2.078 5.653 2.084 2e-3 0 0.369 0.197 0.532 0.29 0.21 0.124 1.266 0.708 1.641 1.988 0.773 0.417 1.393 0.779 1.892 1.099l5.728-6.589c2.36-1.228 10.385-3.781 10.394-3.786 2.332-0.193 2.825-0.807 2.832-1.295-1e-3 -0.22-0.102-0.384-0.143-0.444 0.01-0.714 0.898-0.862 0.9-0.864 2.464-0.529 2.742-1.047 2.767-1.088-0.01-0.648-0.745-0.632-0.747-0.633z" fill="#fff"/>
<path d="m104.09 120.59c0.388-0.366 1.099-0.771 1.736-1.085-1.253-0.044-1.734-0.419-1.79-0.469-0.46-0.46-0.893-0.517-1.117-0.52-0.101 0-0.142 0.011-0.152 0.013l-1.234 0.234c-2.987 0.412-3.889 1.505-4.18 2.113l3.459 0.302c0.197 0.034 0.403 0.048 0.613 0.048 1.148 7e-3 2.404-0.491 2.656-0.627l9e-3 -9e-3z" fill="#fff"/>
<path d="m147.75 136.72c-0.486-6e-3 -0.807-0.033-0.972-0.052-0.887 0.312-2.23 0.371-3.579 0.377-1.762-1e-3 -3.446-0.137-3.751-0.171-0.28 0.01-0.556 0.016-0.83 0.016-7.019-6e-3 -12.058-3.385-12.108-3.415-0.026-0.038-2.675-1.804-2.709-4.72h0.962c-0.014 1.694 1.278 3.079 1.945 3.649 0.21 0.182 0.34 0.272 0.344 0.276 0.013 0 1.201 0.803 3.253 1.617 2.06 0.816 4.96 1.63 8.313 1.63 0.263 0 0.528-4e-3 0.797-0.015 0.017-2e-3 0.034-3e-3 0.051-3e-3 0.021 0 0.041 2e-3 0.061 4e-3 2e-3 0 0.01 0 0.034 5e-3 9e-3 1e-3 0.021 2e-3 0.036 4e-3 0.049 4e-3 0.126 0.011 0.226 0.02 0.199 0.017 0.484 0.037 0.829 0.059 0.69 0.042 1.616 0.083 2.547 0.083 1.357 6e-3 2.771-0.104 3.341-0.352l0.126-0.053 0.134 0.021c1e-3 -2e-3 0.286 0.049 0.959 0.057 0.159 1e-3 0.329 3e-3 0.512 3e-3 2.088 4e-3 5.854-0.162 7.682-0.762l0.109-0.034 0.113 0.017c1e-3 -1e-3 1.042 0.157 2.299 0.314 0.669 0.084 1.4 0.168 2.069 0.229-0.168-0.152-0.341-0.311-0.512-0.471-0.749-0.7-1.446-1.398-1.482-1.438-1e-3 0-0.737-0.898-1.055-1.148-0.175-0.023-0.252-0.067-0.452-0.125-0.145-0.048-0.314-0.108-0.485-0.17l-0.173 0.561c-1.623-0.505-5.446-0.961-8.808-1.27-1.922-0.177-3.703-0.313-4.879-0.396 0.111 0.107 0.226 0.221 0.341 0.34 0.718 0.768 1.505 1.715 1.532 2.801 0.017 0.787-0.554 1.517-1.58 1.871l-0.335-0.902c0.821-0.332 0.934-0.62 0.951-0.968 0.027-0.538-0.583-1.448-1.262-2.133-0.668-0.695-1.338-1.198-1.34-1.199l-1.281-0.961 1.598 0.096c0.023 6e-3 8.799 0.531 13.491 1.381-0.066-0.048-0.149-0.123-0.194-0.412-7e-3 -0.285 0.257-0.473 0.353-0.486 0.114-0.038 0.185-0.038 0.263-0.039 0.159 1e-3 0.445-0.039 0.756-0.041 0.058 1e-3 0.118 3e-3 0.181 7e-3 -0.06-0.057-0.128-0.118-0.208-0.184-0.516-0.432-1.457-1.058-3.055-1.907l-0.199-0.106-0.046-0.22c-0.195-0.967-1.05-1.474-1.233-1.574-0.139-0.079-0.51-0.279-0.509-0.279-1e-3 0-0.987-0.525-2.297-1.052-1.307-0.53-2.945-1.045-4.127-1.041-0.179 0-0.348 0.013-0.5 0.036l-0.145-0.952c0.209-0.032 0.425-0.046 0.645-0.046 0.137 1e-3 0.279 0.011 0.421 0.022l-0.039-0.026c-3.97-2.635-13.686-5.897-13.915-5.907h-2e-3c-2.744-0.627-7.155-2.93-7.162-2.932-4.907-2.644-9.04-3.208-9.045-3.208-0.418-0.081-0.864-0.115-1.318-0.115-2.79 1e-3 -5.92 1.286-5.925 1.288-2.897 1.177-4.389 3.328-4.395 3.335-0.46 0.665-0.86 2.189-0.963 2.598l0.509-0.097c0.015-2e-3 0.105-0.022 0.251-0.024 0.315-1e-3 0.902 0.101 1.444 0.648 1e-3 -1e-3 5e-3 7e-3 0.06 0.037 0.053 0.031 0.142 0.075 0.275 0.121 0.265 0.091 0.707 0.189 1.382 0.189 0.292 0 0.63-0.02 1.017-0.064v1e-3c1e-3 0 2e-3 -1e-3 4e-3 -1e-3l0.051 0.476 2e-3 6e-3c-0.017 4e-3 -0.044 0.014-0.077 0.027-0.067 0.026-0.16 0.063-0.27 0.112-0.221 0.095-0.513 0.229-0.817 0.38-0.585 0.289-1.236 0.663-1.527 0.937-0.039 0.083-0.066 0.044-0.079 0.078-0.023 0.017-0.044 0.028-0.069 0.042-0.051 0.027-0.118 0.058-0.2 0.093-0.166 0.072-0.396 0.162-0.672 0.249-0.313 0.1-0.688 0.194-1.086 0.26 0.072 0.09 0.145 0.165 0.216 0.21 0.208 0.121 0.854 0.911 1.429 1.652 0.29 0.373 0.567 0.736 0.778 1.007 0.207 0.243 0.276 0.388 0.384 0.454 1.657 1.988 1.825 3.616 1.825 4.202 0 0.155-0.011 0.233-0.01 0.233-0.138 0.472-0.195 1.002-0.195 1.553 0 2.904 1.607 6.387 1.608 6.393 4.474 9.535 12.861 11.769 19.7 11.766 2.032 0 3.921-0.197 5.542-0.457l-4.389 11.83-0.118-0.114v-1e-3c-4e-3 0.021-0.646 0.622-0.672 1.167 0 0.061 0.01 0.125 0.036 0.186l-0.197 0.284c0.021-0.015-0.339 0.263-0.378 0.686-0.081 0.07-0.229 0.203-0.292 0.351-0.027 0.07-0.139 0.352-0.14 0.66 0 0.087 9e-3 0.179 0.037 0.27l-1.027 1.325c-1e-3 -1e-3 -4e-3 -6e-3 -5e-3 -8e-3 -0.075-0.11-0.242-0.103-0.248-0.11l-0.262 0.033-0.543 0.073-0.171 0.09-0.069 0.196-0.175 0.079-0.325 0.06-0.696 0.065-1.18 0.125c7e-3 -1e-3 -0.65-0.024-1.171-0.024-0.319 3e-3 -0.556 0-0.645 0.044-0.767 0.101-1.04 0.602-1.044 0.612 4e-3 5e-3 -0.446 0.45-0.532 0.623-0.503 0.389-0.643 0.916-0.641 1.369 0 0.535 0.188 0.976 0.208 1.02 1e-3 1e-3 1e-3 3e-3 1e-3 3e-3l0.104-0.046c-0.036-0.089-0.05-0.174-0.05-0.262-5e-3 -0.413 0.375-0.834 0.777-1.142 0.358-0.281 0.761-0.473 0.83-0.498 0.114 0.063 0.238 0.087 0.359 0.087 0.057 0 0.113-8e-3 0.168-0.018-0.012 0.02-0.4 0.528-0.453 0.692-0.357 0.359-0.473 0.779-0.472 1.162 0 0.683 0.356 1.253 0.358 1.259l0.098-0.059c-0.063-0.114-0.09-0.23-0.09-0.349-2e-3 -0.405 0.328-0.85 0.675-1.185 0.173-0.167 0.351-0.309 0.488-0.408 0.069-0.05 0.127-0.089 0.172-0.115 0.032-0.021 0.048-0.025 0.054-0.03 0.088 0.033 0.174 0.046 0.258 0.046 0.554-4e-3 1.014-0.571 1.02-0.574l2.441-0.798c0.02 0.048 0.049 0.092 0.092 0.126l-0.463 0.204c-4e-3 5e-3 -1.581 0.437-1.719 0.57-0.703 0.335-0.806 0.899-0.806 0.907-1e-3 1e-3 -0.306 0.625-0.323 0.771-0.205 0.302-0.281 0.612-0.281 0.902 2e-3 0.736 0.481 1.339 0.59 1.467 6e-3 8e-3 0.012 0.016 0.019 0.023h1e-3c1e-3 1e-3 1e-3 2e-3 1e-3 2e-3l0.086-0.074c-0.118-0.144-0.166-0.305-0.166-0.481-1e-3 -0.394 0.253-0.854 0.521-1.21 0.133-0.179 0.27-0.332 0.375-0.44 0.053-0.053 0.098-0.096 0.131-0.125 0.017-0.015 0.03-0.026 0.039-0.033 0.033 8e-3 0.08 0.013 0.128 0.013 0.619-8e-3 1.026-0.757 1.031-0.758l0.515-0.281c0.035 0.425 0.165 0.766 0.193 0.828l3e-3 9e-3h1e-3v1e-3l0.104-0.044c-0.036-0.09-0.052-0.176-0.052-0.263-2e-3 -0.36 0.286-0.719 0.625-1.008l1.08-0.589c0.083 0.029 0.169 0.049 0.256 0.049 0.058 0 0.116-8e-3 0.172-0.018-7e-3 0.016-0.397 0.528-0.449 0.691-0.359 0.361-0.475 0.783-0.474 1.166 0 0.635 0.307 1.171 0.351 1.245 1e-3 2e-3 3e-3 5e-3 4e-3 7e-3v1e-3l0.099-0.057c0-1e-3 -1e-3 -2e-3 -1e-3 -3e-3 -0.062-0.113-0.087-0.227-0.088-0.343-1e-3 -0.405 0.329-0.85 0.679-1.187 0.173-0.169 0.351-0.311 0.488-0.411 0.069-0.049 0.129-0.088 0.172-0.115 0.021-0.013 0.039-0.023 0.05-0.028l4e-3 -4e-3v-1e-3c0.095 0.038 0.178 0.051 0.259 0.051 0.554-6e-3 1.011-0.568 1.016-0.571l2.361-0.774c0.044 0.03 0.092 0.045 0.142 0.058 0.012 0.014 0.019 0.03 0.034 0.042l-0.464 0.207c-4e-3 6e-3 -1.58 0.431-1.722 0.571-0.702 0.33-0.807 0.894-0.809 0.904 3e-3 -4e-3 -0.301 0.621-0.32 0.764-0.206 0.302-0.282 0.614-0.28 0.905 1e-3 0.792 0.554 1.431 0.605 1.491l3e-3 3e-3c0 1e-3 1e-3 1e-3 1e-3 2e-3l0.087-0.075-2e-3 -2e-3 -5e-3 -5e-3c-0.113-0.142-0.159-0.301-0.159-0.474-2e-3 -0.394 0.253-0.854 0.52-1.21 0.134-0.179 0.269-0.331 0.375-0.438 0.053-0.054 0.099-0.096 0.132-0.124 0.017-0.015 0.03-0.025 0.038-0.03l-1e-3 -1e-3c0.036 8e-3 0.08 0.011 0.125 0.011 0.621-8e-3 1.029-0.758 1.035-0.76l1.782-0.97c0.104 0.215 0.181 0.456 0.181 0.715 0 0.058-2e-3 0.117-0.01 0.178-1e-3 7e-3 -2e-3 0.011-2e-3 0.011v3e-3l0.083 0.011c0-1e-3 0.05-0.32 0.05-0.738 0-0.106-5e-3 -0.222-0.014-0.338l0.811-0.442c0.34 0.011 0.594 0.018 0.598 0.019l0.045 1e-3 0.042-0.022c3e-3 -8e-3 0.092-0.058 0.223-0.136h0.054c0.144-0.013 0.396-0.166 0.402-0.167l0.156-0.167 0.077-0.116c0.043-0.032 0.083-0.065 0.125-0.098l0.041 0.064 0.109 0.099c0.019 0.01 0.09 0.03 0.16 0.032 0.032-2e-3 0.065-4e-3 0.093-0.025 0.056-0.04 0.182-0.155 0.213-0.181 0.036-0.023 0.122-0.08 0.122-0.08l1.763 0.417c-1e-3 0.011 0.216 0.355 0.475 0.363 0.074 0 0.147-0.034 0.21-0.107 0.106 0.083 0.876 0.763 0.878 1.604 0 0.062-4e-3 0.125-0.012 0.189 0 3e-3 -1e-3 5e-3 -1e-3 5e-3v1e-3l0.083 0.013c0-1e-3 0.053-0.323 0.053-0.747-1e-3 -0.499-0.072-1.141-0.399-1.566-0.033-0.122-0.306-0.594-0.308-0.603 0 6e-3 -0.154-0.474-0.578-0.535-9e-3 -0.014-0.036-0.01-0.075-0.013-0.226 1e-3 -0.831 0.14-0.833 0.14l-0.578-0.044-0.353-0.016-0.174-0.037-0.084-0.091-0.014-0.133-0.092-0.099-0.183-0.023 0.048-0.733-7e-3 -0.026s-0.119-0.445-0.119-1.063c0-0.401 0.05-0.868 0.214-1.322-7e-3 0.017 0.417-0.791 0.617-1.333l0.639-2.307 3.492-8.756c-1e-3 5e-3 0.185-0.419 0.388-0.851 0.102-0.214 0.208-0.433 0.295-0.598 0.043-0.081 0.082-0.151 0.111-0.197 0.013-0.021 0.025-0.039 0.033-0.046v-1e-3s1e-3 0 1e-3 -1e-3h-1e-3c0.147-0.089 0.215-0.221 0.247-0.292l2.902-0.815 2.051-3.862c1.412-1.408 1.594-2.9 1.592-3.558 0-0.219-0.02-0.347-0.02-0.35 0.31-0.839 0.799-1.864 1.361-2.939-0.882 0.039-1.715 0.056-2.386 0.057-0.181-1e-3 -0.354-2e-3 -0.514-3e-3zm-35.075-18.508c-1.015 0-1.841-0.702-1.841-1.571 0-0.872 0.826-1.578 1.841-1.578 1.014 0 1.837 0.706 1.837 1.578 0 0.869-0.823 1.571-1.837 1.571zm23.131 42.358c-0.122 0.133-0.626 0.66-0.647 1.139-1e-3 0.059 0.01 0.123 0.035 0.183l-0.198 0.283c0.02-0.014-0.337 0.266-0.376 0.687-0.082 0.071-0.231 0.204-0.295 0.349-0.025 0.073-0.139 0.353-0.139 0.658 0 0.089 9e-3 0.182 0.037 0.274l-1.026 1.326c-1e-3 -2e-3 -3e-3 -6e-3 -5e-3 -8e-3 -0.079-0.109-0.244-0.1-0.249-0.107l-0.258 0.031-0.546 0.066-0.176 0.098-0.064 0.192-0.176 0.077-0.325 0.06-0.476 0.047-0.273-0.013-0.16-0.042-0.091-0.09-0.017-0.139-0.093-0.096-0.181-0.021 0.047-0.73-5e-3 -0.027c-1e-3 -2e-3 -0.119-0.444-0.119-1.058 0-0.402 0.051-0.872 0.216-1.327-7e-3 0.017 0.415-0.789 0.614-1.335l0.64-2.303 3.493-8.759c-1e-3 4e-3 0.185-0.418 0.388-0.848 0.1-0.215 0.208-0.432 0.294-0.597 0.043-0.081 0.082-0.151 0.112-0.197 0.012-0.02 0.023-0.035 0.031-0.044l3e-3 -3e-3v-1e-3c0.047-0.029 0.084-0.063 0.117-0.098 1.844-0.413 2.98-0.813 2.982-0.814l0.854-0.254 0.269 0.544 0.112 0.234 0.194 0.412-4.543 12.251z" fill="#fff"/>
<path d="m337.7 343.53l22.197-35.524-15.282 7.837s-0.122 0.062-0.424 0.211c-2.122 1.046-12.116 5.84-29.177 11.876-3.821 1.359-12.041 3.628-19.228 5.879-3.617 1.136-6.989 2.266-9.665 3.392-1.349 0.573-2.51 1.118-3.616 1.836-0.483 0.321-0.968 0.676-1.489 1.208l-0.241-0.279c-0.01 9e-3 -0.02 0.017-0.029 0.026h-1e-3c-0.106 0.091-0.208 0.186-0.307 0.283-0.146 0.143-0.298 0.305-0.459 0.502-0.545 0.662-0.944 1.403-1.189 2.106-0.354 1.009-0.453 1.943-0.455 2.783 0.019 1.023 0.151 1.956 0.349 2.83-20.438 3.566-49.2 6.348-75.443 6.818 0.921-1.242 1.98-2.533 3.201-3.823 1.615-1.695 3.495-3.387 5.672-4.967 0.125 0.139 0.255 0.279 0.392 0.419 2.028 2.101 5.465 4.216 10.399 4.216h0.062c1.404 0 2.921-0.163 4.557-0.524l2.68-0.591-1.501-2.296c-0.033-0.048-0.489-0.745-1.306-1.726 2.274 1.438 5.28 2.511 9.088 2.511h0.067c1.415 0 2.936-0.141 4.566-0.449l2.697-0.513-1.436-2.341c-0.02-0.031-0.234-0.379-0.624-0.929 2.073 1.204 4.753 2.054 8.107 2.054h0.086c0.75 0 1.526-0.04 2.335-0.121l2.736-0.275-0.773-1.548c2.177 1.507 5.157 2.642 9.034 2.642h0.091c0.745 0 1.52-0.041 2.322-0.121l2.737-0.274-1.229-2.458c-0.021-0.039-0.241-0.479-0.649-1.153 0.375 0.033 0.76 0.054 1.157 0.056h0.033c2.958-1e-3 6.431-0.997 10.071-3.674l2.213-1.622-2.3-1.495c-0.147-0.063-4.979-3.316-10.75-3.388 0.711-0.89 1.393-1.895 2.023-3.052l1.325-2.399-2.712-0.393c-0.066-9e-3 -1.193-0.171-2.873-0.171-2.087 5e-3 -5.032 0.234-7.89 1.427-0.868 0.356-1.728 0.834-2.544 1.417 0.628-1.321 1.152-2.828 1.516-4.55l0.58-2.68-2.712 0.406c-0.087 0.015-1.984 0.3-4.406 1.204-1.599 0.604-3.443 1.481-5.133 2.783 0.464-1.193 0.859-2.5 1.152-3.948l0.555-2.688-2.709 0.433c-0.087 0.014-2.235 0.359-4.968 1.407-2.724 1.058-6.076 2.8-8.458 5.842-0.263 0.335-0.506 0.694-0.739 1.063 0.192-1.116 0.299-2.314 0.294-3.603 0-0.846-0.044-1.729-0.139-2.652l-0.28-2.728-2.452 1.226c-0.093 0.05-2.813 1.404-5.616 3.94-1.292 1.176-2.634 2.637-3.704 4.368-0.214-0.891-0.5-1.814-0.866-2.771l-0.979-2.561-2.051 1.822c-0.068 0.063-1.647 1.468-3.266 3.738-1.603 2.274-3.314 5.438-3.331 9.146-4e-3 1.307 0.236 2.673 0.764 4.023-1.902 1.49-3.583 3.048-5.049 4.608-2.578 2.729-4.533 5.444-5.981 7.8-0.287 0-0.575 2e-3 -0.86 2e-3 -0.281 0-0.568-4e-3 -0.851-4e-3 -1.448-2.355-3.402-5.07-5.979-7.798-1.467-1.56-3.147-3.118-5.049-4.608 0.528-1.35 0.767-2.716 0.763-4.023-0.016-3.708-1.727-6.873-3.331-9.146-1.618-2.271-3.198-3.675-3.266-3.738l-2.051-1.822-0.979 2.561c-0.366 0.957-0.651 1.88-0.866 2.771-1.07-1.731-2.412-3.192-3.704-4.368-2.804-2.536-5.523-3.89-5.616-3.94l-2.453-1.226-0.28 2.728c-0.095 0.923-0.139 1.806-0.139 2.652-5e-3 1.289 0.103 2.487 0.295 3.603-0.233-0.369-0.476-0.729-0.739-1.063-2.382-3.042-5.734-4.785-8.458-5.842-2.732-1.048-4.881-1.393-4.968-1.407l-2.708-0.433 0.554 2.688c0.294 1.448 0.688 2.755 1.152 3.948-1.689-1.301-3.534-2.179-5.133-2.783-2.421-0.904-4.319-1.189-4.406-1.204l-2.713-0.406 0.58 2.68c0.365 1.723 0.888 3.229 1.516 4.55-0.817-0.583-1.677-1.061-2.544-1.417-2.858-1.193-5.802-1.422-7.89-1.427-1.679 0-2.807 0.162-2.873 0.171l-2.712 0.393 1.326 2.399c0.629 1.158 1.311 2.162 2.023 3.052-5.771 0.072-10.603 3.325-10.75 3.388l-2.3 1.495 2.213 1.622c3.641 2.677 7.115 3.673 10.072 3.674h0.033c0.397-2e-3 0.782-0.023 1.157-0.056-0.408 0.674-0.629 1.114-0.649 1.153l-1.229 2.458 2.737 0.274c0.802 0.081 1.577 0.121 2.322 0.121h0.091c3.877 0 6.857-1.135 9.035-2.642l-0.773 1.548 2.736 0.275c0.808 0.081 1.586 0.121 2.335 0.121h0.086c3.354 0 6.034-0.85 8.107-2.054-0.389 0.55-0.604 0.898-0.624 0.929l-1.436 2.341 2.697 0.513c1.63 0.308 3.152 0.449 4.567 0.449h0.067c3.809 0 6.815-1.073 9.089-2.511-0.817 0.981-1.273 1.678-1.306 1.726l-1.501 2.296 2.679 0.591c1.636 0.361 3.153 0.524 4.557 0.524h0.062c4.935 0 8.372-2.115 10.399-4.216 0.137-0.14 0.267-0.28 0.392-0.419 2.177 1.58 4.058 3.272 5.672 4.967 1.219 1.289 2.276 2.577 3.197 3.817-22.705-0.407-47.283-2.532-66.748-5.414-3.036-0.449-5.944-0.917-8.705-1.399 0.199-0.874 0.332-1.807 0.35-2.83-2e-3 -0.838-0.1-1.771-0.455-2.78-0.263-0.759-0.707-1.563-1.321-2.264-0.076-0.088-0.15-0.167-0.223-0.242-0.13-0.134-0.267-0.264-0.41-0.387-1e-3 -1e-3 -2e-3 -2e-3 -4e-3 -3e-3l-0.245 0.282c-1.058-1.069-1.965-1.528-3.006-2.094-1.918-0.976-4.272-1.864-6.986-2.802-4.051-1.39-8.833-2.814-13.245-4.121-4.394-1.301-8.458-2.5-10.781-3.326-9.751-3.449-17.193-6.492-22.177-8.662-2.492-1.087-4.369-1.954-5.612-2.543-0.623-0.296-1.087-0.521-1.39-0.671s-0.423-0.212-0.425-0.212l-15.278-7.832 9.098 14.562 13.096 20.959-53.234 3.189 21.743 7.811c0.012 3e-3 4.71 1.691 10.912 3.948 6.203 2.256 13.897 5.077 19.834 7.323 3.405 1.289 7.211 2.762 11.093 4.281 0.017 1.167 0.104 2.324 0.28 3.462-2e-3 0.021-5e-3 0.041-7e-3 0.062l-0.347 3.965 2.814 0.75c0.127 0.107 0.251 0.209 0.368 0.309 1.673 1.232 3.514 2.02 5.998 2.953 8.552 3.112 24.485 6.673 45.819 9.579 21.295 2.886 47.829 5.037 76.963 5.037 35.518-1e-3 67.163-3.194 90.178-7.025 11.516-1.919 20.857-3.992 27.556-5.951 3.36-0.988 6.042-1.929 8.156-2.916 1.065-0.502 1.986-0.998 2.889-1.676 0.116-0.099 0.239-0.201 0.365-0.306l2.818-0.75-0.347-3.968c-1e-3 -0.021-5e-3 -0.042-7e-3 -0.063 0.174-1.136 0.261-2.292 0.277-3.459 3.883-1.521 7.69-2.993 11.095-4.282 5.937-2.246 13.632-5.067 19.834-7.322 6.203-2.258 10.901-3.946 10.911-3.949l21.755-7.812-53.251-3.189zm-101.35-4.998c0.021 0.04 0.038 0.077 0.059 0.118-0.049-0.039-0.098-0.078-0.147-0.116 0.028-1e-3 0.059 0 0.088-2e-3zm-13.836 2.578c0.174 0.276 0.369 0.564 0.586 0.862-0.334-0.24-0.682-0.473-1.042-0.696 0.152-0.055 0.301-0.112 0.456-0.166zm-67.967-2.46c0.021-0.041 0.039-0.078 0.059-0.118 0.029 1e-3 0.06 0 0.089 2e-3 -0.049 0.038-0.098 0.077-0.148 0.116zm13.31 3.322c0.216-0.298 0.412-0.586 0.586-0.862 0.154 0.054 0.304 0.111 0.456 0.166-0.362 0.223-0.709 0.456-1.042 0.696z" fill="#fff"/>
<path d="m187.58 348.59c-1.741-1.847-3.785-3.692-6.154-5.417 3.988-7.749-4.931-15.684-4.931-15.684-2.33 6.102-1.011 10.343 0.778 13.005-1.088-0.619-2.228-1.21-3.427-1.762 1.978-9.692-10.152-15.763-10.152-15.763-0.689 6.762 1.493 10.929 3.976 13.444-1.799-0.537-3.7-0.986-5.704-1.337-0.614-10.269-14.463-12.486-14.463-12.486 1.412 6.832 4.888 10.145 8.082 11.752-1.183-0.069-2.393-0.108-3.638-0.107-0.795 0-1.604 0.016-2.424 0.046-1.636-7.834-12.544-9.472-12.544-9.472 1.212 5.606 4 8.471 6.662 9.935-1.562 0.183-3.164 0.416-4.81 0.708-3.268-8.211-15.223-6.489-15.223-6.489 2.888 5.227 6.557 7.117 9.601 7.671-0.838 0.202-1.689 0.423-2.547 0.652-6.417-5.872-16.407 0.622-16.407 0.622 7.292 5.346 12.999 3.003 15.595 1.302l0.018 0.064c-2.832 2.594-4.426 5.78-4.426 5.78 9.143 0.928 12.851-4.161 14.174-6.917 1.75-0.304 3.449-0.546 5.093-0.722-3.72 2.676-5.855 6.939-5.855 6.939 9.608 0.981 13.216-4.687 14.358-7.309 2.49 0.053 4.844 0.248 7.055 0.578-6.05 2.033-10.082 8.604-10.082 8.604 10.974 2.085 15.641-4.152 17.164-6.998 2.068 0.641 3.993 1.392 5.773 2.237-5.474 1.502-9.288 7.326-9.288 7.326 8.161 1.803 12.431-1.857 14.366-4.476 2.908 1.918 5.341 4.049 7.365 6.181 1.559 1.648 2.867 3.297 3.959 4.848 1.129 0.016 2.25 0.025 3.367 0.032-1.347-2.095-3.091-4.437-5.311-6.787z" fill="#B48D00"/>
<path d="m205.38 350.49c2.024-2.131 4.457-4.262 7.365-6.181 1.935 2.619 6.206 6.279 14.366 4.476 0 0-3.814-5.824-9.289-7.326 1.781-0.845 3.705-1.596 5.774-2.237 1.522 2.846 6.19 9.083 17.164 6.998 0 0-4.033-6.571-10.082-8.604 2.21-0.33 4.563-0.524 7.054-0.578 1.143 2.623 4.75 8.291 14.359 7.309 0 0-2.136-4.263-5.856-6.939 1.644 0.175 3.344 0.418 5.093 0.722 1.324 2.755 5.033 7.845 14.175 6.917 0 0-1.594-3.186-4.426-5.78l0.018-0.064c2.597 1.701 8.303 4.043 15.596-1.302 0 0-9.991-6.494-16.407-0.622-0.858-0.229-1.709-0.451-2.547-0.652 3.044-0.554 6.713-2.444 9.602-7.671 0 0-11.955-1.722-15.223 6.489-1.646-0.292-3.248-0.525-4.81-0.708 2.662-1.464 5.45-4.328 6.662-9.935 0 0-10.908 1.638-12.544 9.472-0.82-0.03-1.63-0.046-2.425-0.046-1.246-1e-3 -2.454 0.038-3.637 0.107 3.194-1.607 6.67-4.92 8.082-11.752 0 0-13.85 2.217-14.463 12.486-2.004 0.352-3.905 0.801-5.705 1.337 2.483-2.515 4.666-6.682 3.977-13.444 0 0-12.13 6.071-10.153 15.763-1.199 0.552-2.34 1.143-3.427 1.762 1.788-2.662 3.107-6.903 0.777-13.005 0 0-8.918 7.935-4.93 15.684-2.37 1.725-4.413 3.57-6.155 5.417-2.223 2.352-3.968 4.696-5.314 6.793 1.117-7e-3 2.24-0.02 3.369-0.036 1.091-1.551 2.4-3.2 3.96-4.85z" fill="#B48D00"/>
<path d="m333 345.96l19.424-31.086-6.582 3.378c-1e-3 0-0.617 0.316-1.886 0.918-3.809 1.807-13.327 6.104-28.044 11.311-4.011 1.422-12.184 3.673-19.321 5.91-3.578 1.124-6.903 2.243-9.424 3.304-1.264 0.535-2.323 1.044-3.185 1.606-0.433 0.288-0.825 0.582-1.193 0.993-0.185 0.212-0.385 0.484-0.541 0.826-0.526 0.785-0.714 1.712-0.706 2.556 0.012 1.444 0.43 2.921 0.965 4.36-6.902 1.295-14.917 2.511-23.528 3.552-19.736 2.406-42.764 3.994-63.512 3.994-24.866 1e-3 -53.007-2.285-74.832-5.516-4.348-0.643-8.441-1.324-12.21-2.03 0.536-1.438 0.954-2.916 0.966-4.36 7e-3 -0.842-0.18-1.765-0.704-2.549-0.155-0.345-0.357-0.619-0.542-0.833-0.689-0.749-1.463-1.191-2.438-1.705-3.353-1.704-9.244-3.571-15.283-5.4-6.01-1.812-12.118-3.542-15.398-4.705-9.813-3.472-17.315-6.54-22.354-8.733-2.519-1.098-4.422-1.977-5.692-2.579-1.269-0.602-1.884-0.919-1.886-0.919l-6.577-3.37 3.914 6.267 15.505 24.811-44.633 2.673 9.353 3.365c0.01 5e-3 4.713 1.693 10.922 3.953 6.207 2.258 13.908 5.081 19.866 7.335 3.785 1.432 8.057 3.088 12.376 4.784-0.037 0.551-0.059 1.099-0.061 1.643 0 1.599 0.156 3.164 0.477 4.672 0.353 1.381 1.104 1.958 1.775 2.512 1.314 0.977 3.049 1.756 5.429 2.641 8.25 3.012 24.141 6.582 45.36 9.465 21.2 2.875 47.642 5.017 76.668 5.019 35.386-1e-3 66.926-3.185 89.82-6.996 11.448-1.909 20.727-3.969 27.3-5.893 3.291-0.967 5.899-1.889 7.844-2.797 0.976-0.459 1.787-0.905 2.493-1.438 0.675-0.553 1.424-1.131 1.776-2.513 0.321-1.506 0.476-3.071 0.476-4.67-1e-3 -0.543-0.024-1.091-0.061-1.642 4.32-1.696 8.593-3.353 12.378-4.785 5.959-2.253 13.659-5.077 19.866-7.334 6.208-2.26 10.912-3.948 10.923-3.953l9.371-3.366-44.654-2.676z" fill="#B48D00"/>
<path d="m80.882 341.38c0.04-0.04 0.079-0.089 0.12-0.12 0.383-0.314 0.744-0.445 1.094-0.547 0.7-0.189 1.435-0.232 2.312-0.236 2.881 5e-3 7.238 0.622 11.465 1.227 0.93 0.134 1.853 0.269 2.75 0.396-1.673-0.59-3.542-1.203-5.5-1.817-7.062-2.216-15.164-4.437-19.458-5.956-10.921-3.864-19.026-7.238-24.114-9.494l15.49 24.788-31.691 1.898c6.451 2.343 15.018 5.478 21.54 7.945 3.543 1.34 7.502 2.874 11.526 4.45 1.669-7.748 6.556-15.851 14.466-22.534z" fill="#DC161B"/>
<path d="m357.59 351.52l-31.691-1.898 15.491-24.79c-5.088 2.257-13.193 5.631-24.114 9.495-3.533 1.25-9.601 2.961-15.584 4.767-3.319 0.997-6.627 2.037-9.378 3.007 0.897-0.128 1.821-0.262 2.751-0.396 4.227-0.605 8.583-1.222 11.464-1.227 0.654 1e-3 1.238 0.031 1.779 0.12 0.538 0.103 1.049 0.205 1.626 0.661 0.034 0.026 0.065 0.067 0.099 0.099 7.923 6.686 12.818 14.798 14.49 22.557 4.023-1.577 7.983-3.11 11.527-4.451 6.523-2.468 15.088-5.602 21.54-7.944z" fill="#DC161B"/>
<path d="m93.901 346.71c3.187 0.926 7.067 1.845 11.48 2.732 0.51-1.295 0.883-2.587 0.943-3.487-0.108 3e-3 -0.221 5e-3 -0.337 5e-3 -2.313-7e-3 -6.327-0.623-10.552-1.227-3.421-0.496-6.957-0.981-9.485-1.141 0.193 0.124 0.403 0.252 0.653 0.386 1.536 0.837 4.064 1.798 7.298 2.732z" fill="#DC161B"/>
<path d="m304.98 343.59c-2.527 0.161-6.06 0.646-9.478 1.14-4.225 0.604-8.238 1.22-10.552 1.227-0.116 0-0.227-1e-3 -0.336-4e-3 0.06 0.899 0.433 2.189 0.942 3.484 7.454-1.498 13.368-3.082 16.979-4.614 1.042-0.418 1.87-0.866 2.445-1.233z" fill="#DC161B"/>
<path d="m319.8 372.86c-0.446 0.318-1.644 0.973-3.313 1.599-7.083 2.753-22.83 6.428-43.957 9.333-21.152 2.918-47.792 5.119-77.06 5.119-35.077 0-66.38-3.162-88.981-6.928-11.295-1.88-20.425-3.915-26.704-5.756-3.135-0.916-5.564-1.792-7.114-2.521-0.732-0.34-1.266-0.655-1.534-0.853-0.181-0.998-0.273-2.049-0.273-3.146-0.023-6.826 3.668-15.395 11.254-22.596 1.332 1.104 3.033 1.917 5.19 2.778 8.744 3.392 25.301 6.506 45.042 8.883 19.71 2.36 42.466 3.908 63.118 3.91 25.174-1e-3 53.474-2.302 75.578-5.571 11.057-1.639 20.55-3.511 27.412-5.501 3.438-1.002 6.21-2.015 8.306-3.146 0.767-0.42 1.451-0.85 2.057-1.352 7.584 7.2 11.276 15.77 11.252 22.595 1e-3 1.1-0.093 2.155-0.273 3.153z" fill="#DC161B"/>
<path d="m93.993 360.36c0.132 0.233 0.202 0.503 0.202 0.822 0 0.188-0.023 0.392-0.075 0.612-0.104 0.435-0.307 1.094-0.61 1.958l-0.123 0.351 1.318 0.309 0.101-0.278c0.519-1.406 0.889-2.339 1.098-2.787 0.208-0.451 0.471-0.924 0.78-1.424l0.217-0.35-0.386-0.142c-0.301-0.11-0.663-0.263-1.079-0.451-0.743-0.347-1.395-0.593-1.958-0.721-0.529-0.127-1.052-0.191-1.562-0.191-0.546 0-1.077 0.075-1.591 0.224-0.985 0.276-1.855 0.767-2.596 1.464-0.737 0.695-1.225 1.467-1.424 2.315-0.071 0.298-0.107 0.611-0.107 0.93 0 0.125 6e-3 0.249 0.017 0.374 0.04 0.456 0.154 0.917 0.338 1.387 0.144 0.356 0.486 0.95 1.042 1.84 0.555 0.897 0.904 1.52 1.032 1.822 0.195 0.473 0.301 0.872 0.333 1.189 0.011 0.101 0.015 0.2 0.015 0.299 0 0.219-0.025 0.434-0.074 0.644-0.211 0.891-0.795 1.604-1.84 2.181-0.706 0.387-1.419 0.573-2.161 0.573-0.353 0-0.712-0.041-1.08-0.127-0.357-0.085-0.669-0.239-0.94-0.45-0.263-0.22-0.445-0.454-0.558-0.704-0.104-0.229-0.173-0.649-0.172-1.235-0.013-0.532-0.037-0.876-0.176-1.158-0.159-0.343-0.475-0.598-0.849-0.685-0.1-0.023-0.197-0.034-0.291-0.034-0.29-1e-3 -0.57 0.103-0.818 0.279-0.345 0.247-0.575 0.617-0.674 1.053-0.039 0.159-0.058 0.326-0.058 0.494 1e-3 0.688 0.32 1.381 0.896 2.075 0.731 0.886 1.749 1.483 3.013 1.776 0.625 0.148 1.258 0.224 1.891 0.224 0.646 0 1.295-0.077 1.943-0.229 1.277-0.311 2.335-0.849 3.152-1.617 0.809-0.763 1.342-1.647 1.577-2.644 0.065-0.285 0.099-0.576 0.099-0.876 0-0.438-0.07-0.892-0.208-1.365-0.236-0.814-0.817-1.923-1.746-3.394-0.491-0.789-0.78-1.388-0.863-1.73-0.046-0.179-0.068-0.358-0.068-0.544 0-0.188 0.023-0.384 0.072-0.588 0.179-0.746 0.632-1.336 1.427-1.817 0.554-0.331 1.108-0.489 1.684-0.491 0.245 0 0.495 0.031 0.752 0.092 0.54 0.13 0.869 0.37 1.088 0.745z" fill="#fff"/>
<path d="m103.76 373.47c-0.56 0.362-1.124 0.649-1.688 0.849-0.257 0.095-0.446 0.132-0.512 0.129-3e-3 0-6e-3 0-9e-3 -1e-3 1e-3 -0.014 4e-3 -0.037 0.01-0.063 0.036-0.207 0.246-0.792 0.608-1.657 0.672-1.615 1.322-3.024 1.956-4.231l1.859-3.557-1.592 0.025-0.097 0.107-0.261 0.283c-0.219-0.065-0.439-0.119-0.659-0.163-0.592-0.116-1.141-0.172-1.647-0.172-0.454 0-0.875 0.048-1.262 0.142-1.036 0.269-2.063 0.791-3.085 1.559-1.018 0.767-1.891 1.684-2.611 2.731-0.718 1.045-1.184 2.047-1.372 3.009-0.058 0.288-0.086 0.567-0.086 0.835 0 0.487 0.098 0.937 0.296 1.336 0.231 0.5 0.702 0.826 1.276 0.93 0.164 0.032 0.337 0.048 0.517 0.048 0.468 0 0.968-0.109 1.503-0.315 0.716-0.273 1.39-0.606 2.02-0.997l-0.218 0.418c-0.117 0.216-0.2 0.41-0.237 0.598-0.015 0.073-0.022 0.152-0.022 0.227-1e-3 0.18 0.051 0.366 0.165 0.517 0.159 0.213 0.402 0.326 0.672 0.379 0.182 0.034 0.366 0.052 0.556 0.052 0.176 0 0.359-0.014 0.544-0.043 0.568-0.09 1.172-0.272 1.813-0.549 0.354-0.156 1.079-0.576 2.23-1.278l0.271-0.166-0.635-1.179-0.303 0.197zm-1.654-6.343l-1.689 3.472c-0.536 1.103-1.172 1.864-1.908 2.334-0.623 0.389-1.151 0.562-1.574 0.561-0.098 0-0.188-7e-3 -0.271-0.024-0.223-0.05-0.344-0.142-0.457-0.36-0.053-0.105-0.09-0.266-0.09-0.485 0-0.172 0.022-0.377 0.07-0.611 0.202-1.052 0.644-2.054 1.329-3.024 0.684-0.979 1.341-1.592 1.914-1.866 0.395-0.19 0.81-0.281 1.258-0.281 0.217 0 0.441 0.021 0.674 0.067 0.208 0.038 0.457 0.11 0.744 0.217z" fill="#fff"/>
<path d="m110.9 374.29c-0.816 0.562-1.608 1.006-2.368 1.316-0.309 0.125-0.545 0.18-0.65 0.177h-0.012c0-0.019 3e-3 -0.042 8e-3 -0.071h1e-3c0.065-0.214 0.626-1.584 1.653-4.015l2.195-5.19c0.784-1.87 1.337-3.123 1.641-3.735 0.3-0.602 0.594-0.954 0.767-1.045 0.071-0.043 0.172-0.073 0.331-0.073 0.081 0 0.175 9e-3 0.284 0.027 0.332 0.058 0.691 0.148 1.073 0.284 0.468 0.166 0.835 0.28 1.138 0.329 0.138 0.023 0.276 0.038 0.415 0.038 0.274 0 0.534-0.058 0.755-0.19 0.31-0.181 0.526-0.493 0.584-0.853 0.01-0.068 0.016-0.131 0.016-0.195 1e-3 -0.282-0.111-0.55-0.296-0.771-0.251-0.291-0.607-0.454-1.026-0.53-0.354-0.061-0.704-0.09-1.052-0.09-0.795 0-1.586 0.153-2.367 0.46-1.135 0.442-2.087 1.18-2.831 2.198-0.497 0.687-1.154 1.988-2.015 3.962l-2.355 5.426c-0.905 2.091-1.416 3.468-1.549 4.228-0.021 0.123-0.031 0.245-0.031 0.362-1e-3 0.267 0.061 0.521 0.191 0.74 0.175 0.303 0.482 0.52 0.84 0.574 0.122 0.02 0.251 0.03 0.385 0.03 0.629-1e-3 1.36-0.212 2.232-0.605 1.046-0.48 1.981-1.051 2.803-1.711l0.24-0.193-0.723-1.076-0.277 0.192z" fill="#fff"/>
<path d="m122.56 373.37l2.055-4.746-2.528-0.364-0.103 0.236-2.187 5.104c-0.398 0.915-1.065 1.687-2.023 2.324-0.885 0.594-1.558 0.861-1.902 0.853-0.041 0-0.075-2e-3 -0.103-6e-3 -0.025-6e-3 -0.058-0.014-0.122-0.104-0.042-0.067-0.057-0.119-0.058-0.195 0-0.018 1e-3 -0.038 6e-3 -0.065 0.018-0.177 0.472-1.387 1.33-3.383 0.963-2.255 1.489-3.652 1.595-4.335 0.016-0.113 0.025-0.219 0.025-0.323 0-0.235-0.047-0.453-0.163-0.64-0.151-0.247-0.418-0.419-0.714-0.453-0.084-0.015-0.18-0.019-0.275-0.019-0.407 1e-3 -0.87 0.11-1.422 0.308-0.708 0.251-1.699 0.813-3.017 1.687l-0.332 0.218 0.974 1.038 0.237-0.167c0.726-0.509 1.243-0.824 1.48-0.922 0.185-0.082 0.329-0.116 0.417-0.125 0 7e-3 -1e-3 0.015-3e-3 0.023-0.039 0.305-0.511 1.547-1.388 3.527-0.701 1.573-1.146 2.629-1.342 3.174-0.144 0.396-0.239 0.773-0.291 1.134-0.025 0.144-0.036 0.286-0.036 0.419 0 0.297 0.06 0.567 0.199 0.793 0.201 0.314 0.536 0.5 0.904 0.554 0.127 0.017 0.252 0.025 0.384 0.025 0.548 0 1.16-0.146 1.846-0.42 0.861-0.351 1.647-0.768 2.355-1.251-0.083 0.275-0.141 0.523-0.174 0.75-0.017 0.107-0.024 0.219-0.024 0.324-1e-3 0.313 0.074 0.607 0.238 0.851 0.205 0.309 0.527 0.52 0.894 0.566 0.073 9e-3 0.15 0.017 0.233 0.017 1.02-0.018 2.365-0.783 4.245-2.229l0.245-0.191-0.72-1.095-0.285 0.213c-0.904 0.678-1.527 1.106-1.784 1.224-0.15 0.073-0.26 0.095-0.322 0.095-9e-3 0-0.017 0-0.022-1e-3 -4e-3 -3e-3 -0.011-0.01-0.02-0.022-2e-3 -6e-3 -0.013-0.019-0.013-0.082 0-0.021 2e-3 -0.046 6e-3 -0.079 0.028-0.242 0.613-1.737 1.705-4.24z" fill="#fff"/>
<path d="m132.71 364.58c0.253-0.333 0.473-0.442 0.729-0.446 0.022 0 0.055 1e-3 0.093 8e-3 0.214 0.021 0.468 0.084 0.762 0.176 0.697 0.215 1.186 0.342 1.516 0.386 0.105 0.01 0.201 0.018 0.3 0.018 0.31 0 0.594-0.068 0.833-0.215 0.307-0.197 0.509-0.513 0.546-0.864 4e-3 -0.052 9e-3 -0.102 9e-3 -0.158 3e-3 -0.319-0.135-0.631-0.376-0.849-0.296-0.279-0.717-0.402-1.243-0.469-0.174-0.025-0.351-0.034-0.528-0.034-0.744 0-1.526 0.185-2.351 0.531-1.025 0.434-1.902 1.079-2.603 1.937-0.704 0.859-1.336 2.114-1.918 3.773l-2.359 6.689c-0.365 1.051-0.586 1.887-0.666 2.524-0.018 0.141-0.025 0.281-0.025 0.417-3e-3 0.649 0.196 1.248 0.594 1.738 0.479 0.599 1.188 0.953 2.048 1.053 0.162 0.018 0.325 0.028 0.491 0.028 0.875 0 1.783-0.27 2.717-0.787 1.129-0.624 2.115-1.606 2.967-2.919 0.855-1.322 1.376-2.725 1.553-4.195 0.033-0.282 0.049-0.545 0.049-0.793 0-0.661-0.114-1.223-0.375-1.675-0.346-0.61-0.922-0.992-1.619-1.071-0.11-0.015-0.223-0.019-0.331-0.019-0.509 0-1.072 0.122-1.692 0.361-0.474 0.183-0.954 0.444-1.441 0.782l1.212-3.338c0.517-1.429 0.914-2.327 1.108-2.589zm-0.38 6.422l-0.039 0.333c0.247 0.036 0.375 0.126 0.505 0.359 0.144 0.287 0.224 0.639 0.224 1.062 0 0.15-0.01 0.308-0.03 0.475-0.175 1.448-0.711 2.869-1.621 4.26-0.845 1.292-1.653 1.842-2.356 1.834-0.058 0-0.116-2e-3 -0.172-9e-3 -0.308-0.042-0.541-0.178-0.759-0.466-0.175-0.24-0.255-0.484-0.258-0.789 0-0.065 4e-3 -0.132 0.014-0.203 0.147-1.2 0.542-2.4 1.198-3.595 0.663-1.214 1.305-2.01 1.878-2.399 0.544-0.378 0.981-0.536 1.271-0.536h8e-3c0.031 0 0.063 1e-3 0.097 5e-3l0.04-0.331z" fill="#fff"/>
<path d="m149.97 379.23c-0.998 0.813-1.765 1.264-1.984 1.347-3e-3 -0.012-5e-3 -0.027-6e-3 -0.046 0-6e-3 1e-3 -0.015 1e-3 -0.025 0.039-0.529 0.655-2.382 1.841-5.374 0.729-1.861 1.099-2.839 1.144-3.228 1e-3 -0.036 3e-3 -0.063 3e-3 -0.1 4e-3 -0.251-0.095-0.504-0.276-0.68-0.22-0.214-0.512-0.307-0.834-0.334-0.063-9e-3 -0.131-0.01-0.195-0.01-0.547 1e-3 -1.16 0.172-1.857 0.49-0.352 0.162-0.721 0.383-1.104 0.647 0.192-0.19 0.32-0.438 0.344-0.712 3e-3 -0.042 6e-3 -0.079 6e-3 -0.12 2e-3 -0.273-0.108-0.535-0.283-0.745-0.211-0.255-0.519-0.407-0.848-0.438-0.042-9e-3 -0.089-6e-3 -0.117-7e-3 -0.471 5e-3 -0.952 0.238-1.513 0.637-0.783 0.57-1.528 1.227-2.232 1.968l0.213-0.614c0.165-0.49 0.252-0.764 0.278-0.954 3e-3 -0.034 3e-3 -0.049 3e-3 -0.076 2e-3 -0.184-0.081-0.369-0.215-0.497-0.142-0.146-0.349-0.225-0.562-0.241-0.055-8e-3 -0.12-0.01-0.182-0.01-0.519 2e-3 -1.151 0.183-1.953 0.517-0.914 0.38-1.841 0.989-2.788 1.818l-0.229 0.199 0.742 1.032 0.278-0.223c0.766-0.627 1.301-1.017 1.538-1.143 0.173-0.096 0.313-0.144 0.385-0.161-0.016 0.076-0.074 0.302-0.171 0.606-0.482 1.506-1.03 3.096-1.643 4.766l-1.412 3.813 2.634 0.269 0.086-0.252 0.842-2.465c0.554-1.653 0.956-2.706 1.171-3.103 0.214-0.405 0.591-0.9 1.12-1.464 0.532-0.561 1.005-0.964 1.4-1.2 0.394-0.242 0.91-0.439 1.549-0.589 0.574-0.132 0.971-0.249 1.258-0.398-0.396 0.294-0.806 0.632-1.238 1.03l-0.267 0.245 1.016 0.943 0.226-0.187c0.817-0.676 1.362-1.08 1.536-1.167 0.131-0.068 0.239-0.103 0.324-0.115-0.017 0.098-0.05 0.212-0.103 0.341-1.671 4.132-2.556 6.707-2.666 7.898-6e-3 0.057-7e-3 0.116-7e-3 0.172-1e-3 0.327 0.087 0.637 0.281 0.881 0.214 0.284 0.559 0.451 0.936 0.477 0.046 2e-3 0.091 5e-3 0.143 5e-3 0.413-2e-3 0.87-0.143 1.407-0.388 0.628-0.296 1.563-0.943 2.861-1.968l0.275-0.219-0.904-1.047-0.252 0.199z" fill="#fff"/>
<path d="m152.99 366.77c3e-3 -0.046 6e-3 -0.088 6e-3 -0.132 1e-3 -0.299-0.097-0.586-0.282-0.811-0.211-0.262-0.523-0.418-0.863-0.45-0.055-5e-3 -0.103-7e-3 -0.139-7e-3 -0.393-2e-3 -0.767 0.154-1.064 0.435-0.335 0.3-0.531 0.716-0.57 1.179-5e-3 0.049-6e-3 0.1-6e-3 0.143-1e-3 0.304 0.089 0.6 0.275 0.834 0.212 0.263 0.524 0.428 0.868 0.455 0.043 1e-3 0.073 5e-3 0.119 5e-3h5e-3c0.384 0 0.755-0.167 1.061-0.457 0.344-0.311 0.553-0.73 0.59-1.194zm-1.179-1.06z" fill="#fff"/>
<path d="m155.8 377.9l1.38-4.047 2.71 0.191 0.478-1.567-2.692-0.193 1.271-3.792-2.92 0.883-0.055 0.165-0.853 2.555-2.102-0.15-0.52 1.566 2.114 0.156-1.58 4.688c-0.425 1.278-0.669 2.235-0.719 2.917-9e-3 0.104-0.012 0.208-0.012 0.305 0 0.43 0.073 0.791 0.268 1.078 0.219 0.334 0.59 0.535 0.997 0.552 0.039 1e-3 0.079 5e-3 0.129 5e-3 0.45-2e-3 0.976-0.142 1.607-0.401 0.718-0.294 2.05-1.083 4.065-2.391l0.296-0.193-0.85-1.184-0.27 0.188c-0.689 0.48-1.404 0.902-2.149 1.271-0.516 0.253-0.908 0.364-1.071 0.359-0.021 0-0.03 0-0.03-1e-3 -0.117-0.013-0.139-0.034-0.16-0.058s-0.047-0.067-0.049-0.207c0-0.022 1e-3 -0.049 4e-3 -0.082 0.028-0.441 0.264-1.337 0.713-2.613z" fill="#fff"/>
<path d="m180.62 373.01c-0.487-0.377-1.149-0.553-1.966-0.583-0.079-5e-3 -0.152-5e-3 -0.22-5e-3 -1.04-2e-3 -1.957 0.313-2.686 0.948-0.77 0.661-1.199 1.499-1.23 2.447-1e-3 0.038-1e-3 0.082-1e-3 0.122 0 1.008 0.465 2.034 1.33 3.073 0.624 0.74 1.022 1.274 1.17 1.549 0.141 0.259 0.205 0.5 0.205 0.725v0.057c-9e-3 0.252-0.096 0.507-0.282 0.789-0.175 0.262-0.403 0.45-0.711 0.578-0.273 0.108-0.593 0.171-0.961 0.171-0.05 0-0.101-1e-3 -0.152-3e-3 -0.359-0.014-0.586-0.104-0.737-0.245-0.18-0.162-0.233-0.288-0.236-0.465v-0.015c3e-3 -0.079 9e-3 -0.162 0.022-0.263 0.021-0.138 0.036-0.257 0.041-0.375v-0.038c2e-3 -0.292-0.124-0.575-0.334-0.785-0.227-0.23-0.53-0.355-0.844-0.366-0.012-3e-3 -0.028-1e-3 -0.041-1e-3h-0.015c-0.343-3e-3 -0.67 0.132-0.914 0.371-0.167 0.162-0.281 0.366-0.348 0.591l-0.778-1.064-0.275 0.237c-0.508 0.437-1.026 0.795-1.561 1.076-0.247 0.134-0.441 0.196-0.494 0.203-1e-3 -0.012-2e-3 -0.026-2e-3 -0.045 0-5e-3 0-0.015 2e-3 -0.025 0.01-0.208 0.137-0.817 0.374-1.722 0.44-1.696 0.889-3.179 1.351-4.462l1.346-3.786-1.572 0.252-0.08 0.118-0.22 0.316c-0.23-0.034-0.453-0.055-0.668-0.071-0.198-0.01-0.383-0.015-0.563-0.015-0.899 0-1.679 0.124-2.334 0.39-0.987 0.41-1.93 1.069-2.833 1.969-0.9 0.904-1.639 1.928-2.211 3.065-0.566 1.137-0.887 2.193-0.938 3.173-7e-3 0.09-9e-3 0.183-9e-3 0.272 0 0.714 0.165 1.343 0.511 1.851 0.307 0.458 0.813 0.723 1.398 0.742 0.043 2e-3 0.081 3e-3 0.126 3e-3 0.58-1e-3 1.188-0.193 1.833-0.548 0.673-0.37 1.294-0.793 1.863-1.267l-0.156 0.441c-0.085 0.239-0.138 0.435-0.15 0.624-4e-3 0.022-3e-3 0.055-3e-3 0.076-3e-3 0.235 0.074 0.478 0.247 0.647 0.187 0.187 0.442 0.264 0.716 0.28 0.052 1e-3 0.1 3e-3 0.151 3e-3 0.309 0 0.625-0.051 0.942-0.146 0.548-0.167 1.123-0.434 1.72-0.803 0.33-0.196 0.983-0.71 2.032-1.566l0.223-0.182c-0.031 0.114-0.053 0.231-0.057 0.354-1e-3 0.023-1e-3 0.055-1e-3 0.083-5e-3 0.678 0.284 1.292 0.813 1.767 0.581 0.519 1.425 0.767 2.506 0.807 0.082 1e-3 0.161 3e-3 0.239 3e-3h8e-3c1.193 0 2.227-0.333 3.05-1.004 0.872-0.708 1.356-1.615 1.391-2.633 0-0.043 2e-3 -0.079 2e-3 -0.117-2e-3 -1.014-0.502-2.043-1.43-3.099-0.67-0.765-1.08-1.326-1.212-1.604-0.131-0.275-0.19-0.544-0.19-0.822 0-0.021 0-0.043 1e-3 -0.064 0.013-0.338 0.124-0.573 0.343-0.784 0.221-0.204 0.434-0.289 0.685-0.292 0 0 0.012 1e-3 0.039 3e-3 0.254 5e-3 0.592 0.208 0.974 0.754 0.23 0.326 0.401 0.529 0.593 0.661 0.175 0.121 0.386 0.177 0.6 0.186h0.025l0.021-1e-3 0.01 1e-3c0.311 3e-3 0.611-0.114 0.84-0.325 0.239-0.217 0.391-0.517 0.401-0.841v-0.054c4e-3 -0.504-0.277-0.952-0.729-1.292zm-17.496 8.141c-0.104-0.147-0.185-0.431-0.183-0.857 0-0.074 3e-3 -0.151 8e-3 -0.233 0.059-1.066 0.353-2.125 0.897-3.176 0.544-1.067 1.105-1.766 1.637-2.114 0.495-0.327 1.046-0.484 1.687-0.486 0.066 0 0.132 2e-3 0.2 4e-3 0.208 0.015 0.468 0.052 0.768 0.117l-1.194 3.677c-0.376 1.156-0.905 2.006-1.566 2.565-0.652 0.552-1.217 0.793-1.676 0.791-0.033 0-0.059 0-0.082-1e-3 -0.227-0.021-0.358-0.095-0.496-0.287zm5.452 0.584h-4e-3c3e-3 0 4e-3 -1e-3 5e-3 -1e-3 0-1e-3 0 0-1e-3 1e-3zm10.058-8.974z" fill="#fff"/>
<path d="m200.25 368.4c-0.056 0-0.11 1e-3 -0.158 1e-3l-4.494-0.021c-0.02-1e-3 -0.049-1e-3 -0.073-1e-3 -2.673-1e-3 -4.783 0.739-6.239 2.256-1.449 1.5-2.194 3.239-2.201 5.157-1e-3 0.018 0 0.043 0 0.058 0 0.868 0.15 1.585 0.481 2.146 0.229 0.409 0.633 0.685 1.095 0.682 0.306 3e-3 0.605-0.1 0.826-0.311 0.212-0.19 0.355-0.462 0.352-0.753-1e-3 -0.29-0.107-0.575-0.285-0.908-0.25-0.491-0.407-0.872-0.468-1.105-0.061-0.235-0.093-0.509-0.093-0.83 0-0.018 0-0.038 1e-3 -0.065 4e-3 -0.819 0.242-1.586 0.741-2.335 0.493-0.745 1.178-1.351 2.071-1.825 0.758-0.397 1.55-0.622 2.385-0.677-0.666 2.612-1.321 5.096-1.968 7.458-0.676 2.481-1.231 4.141-1.628 4.918-0.11 0.23-0.233 0.382-0.361 0.476-0.066 0.062-0.703 0.301-1.713 0.571l-0.181 0.048-0.409 1.381 0.504-0.057c1.664-0.191 3.119-0.286 4.367-0.286h0.121c0.967 7e-3 2.388 0.114 4.26 0.334 0.858 0.099 1.574 0.159 2.16 0.159h9e-3c1.111 0 2.059-0.289 2.78-0.906 0.713-0.597 1.101-1.356 1.101-2.197v-0.039c-2e-3 -0.389-0.106-0.749-0.345-1.024-0.223-0.271-0.564-0.438-0.925-0.434-0.303-3e-3 -0.596 0.116-0.814 0.326-0.216 0.197-0.342 0.475-0.346 0.755-4e-3 0.039 1e-3 0.05-1e-3 0.05 0 0.226 0.043 0.455 0.114 0.691 0.116 0.309 0.159 0.523 0.156 0.579-6e-3 0.133-0.049 0.235-0.234 0.39-0.167 0.132-0.377 0.205-0.7 0.207-0.014 0-0.025 0-0.032 1e-3 -0.232-1e-3 -0.773-0.091-1.548-0.272-1.535-0.343-2.836-0.52-3.917-0.529-0.476 0-0.992 0.065-1.548 0.194 0.724-1.586 1.42-3.621 2.097-6.114l2.424 0.012c0.487 3e-3 0.841 0.025 1.039 0.066 0.074 0.011 0.12 0.025 0.143 0.035l2e-3 -5e-3c0.051 0.06 0.083 0.107 0.098 0.136l9e-3 3e-3c-2e-3 0.205-0.029 0.52-0.07 0.922l-0.037 0.367 1.318 8e-3 0.049-0.279c0.222-1.255 0.477-2.404 0.756-3.451l0.111-0.419-1.464-7e-3 -0.048 0.28c-0.07 0.468-0.234 0.709-0.275 0.716-0.029 0.042-0.521 0.145-1.276 0.133h-0.126l-2.276-0.012 1.311-5.113h1.655c1.881 5e-3 3.043 0.089 3.181 0.161 0.167 0.079 0.204 0.116 0.222 0.373-2e-3 0.233-0.038 0.576-0.107 1.008l-0.063 0.386 1.377 7e-3 0.044-0.286c0.092-0.588 0.318-1.611 0.672-3.059l0.134-0.551-0.547 0.148c-0.662 0.179-1.74 0.273-3.196 0.272z" fill="#fff"/>
<path d="m208.72 379.19l1.021-4.158 2.714-0.047 0.333-1.606-2.691 0.046 0.928-3.89-2.831 1.14-0.041 0.169-0.622 2.625-2.107 0.034-0.381 1.609 2.119-0.034-1.161 4.809c-0.309 1.281-0.463 2.249-0.465 2.927 0 0.014 0 0.033 1e-3 0.058 0.017 0.562 0.116 1.01 0.38 1.34 0.244 0.303 0.62 0.469 1.017 0.464l0.015 1e-3c0.489-0.01 1.041-0.202 1.704-0.547 0.687-0.363 1.946-1.266 3.84-2.74l0.277-0.215-0.949-1.12-0.254 0.219c-0.641 0.543-1.319 1.026-2.028 1.458-0.53 0.323-0.924 0.462-1.059 0.453-0.013-1e-3 -0.021-1e-3 -0.027 0-4e-3 0-7e-3 1e-3 -7e-3 0-0.099-4e-3 -0.106-0.016-0.137-0.043-0.019-0.014-0.068-0.089-0.072-0.291l-0.067-0.022 0.066 1e-3c-1e-3 -0.452 0.156-1.36 0.484-2.64z" fill="#fff"/>
<path d="m230.25 368.7l0.396-1.464-0.532 0.11c-0.638 0.13-1.594 0.244-2.855 0.337-1.35 0.088-2.212 0.162-2.616 0.224-0.401 0.059-0.788 0.148-1.167 0.266l-0.172 0.052-0.432 1.467 0.572-0.146c0.649-0.167 1.219-0.269 1.704-0.31-0.61 3.113-1.021 5.15-1.224 6.102-0.739 3.442-1.177 5.418-1.3 5.872-0.126 0.463-0.26 0.773-0.328 0.853-0.042 0.055-0.088 0.096-0.169 0.141-0.44 0.233-1.135 0.456-2.066 0.644l-0.225 0.044-0.255 1.42 0.493-0.111c0.89-0.202 1.889-0.326 2.979-0.376 0.46-0.021 0.89-0.031 1.284-0.031 0.28 0 0.545 7e-3 0.789 0.018 0.54 0.025 0.969 0.037 1.287 0.037 0.179 0 0.321-3e-3 0.434-0.01l0.238-0.017 0.367-1.321-0.474 0.034c-0.256 0.018-0.495 0.028-0.721 0.028-0.446 0-0.841-0.037-1.186-0.105 0.839-4.296 1.361-6.94 1.576-7.912 0.66-3.03 1.091-4.772 1.201-4.989 0.104-0.196 0.231-0.335 0.381-0.433 0.206-0.134 0.841-0.301 1.798-0.4l0.223-0.024z" fill="#fff"/>
<path d="m241.69 379.35c-0.37 0.325-0.741 0.677-1.106 1.059-0.395 0.428-0.739 0.648-0.868 0.696-0.011-0.036-0.023-0.097-0.029-0.182-5e-3 -0.037-5e-3 -0.079-5e-3 -0.133-2e-3 -0.565 0.196-1.708 0.6-3.358 0.47-1.941 0.755-3.195 0.86-3.792 0.045-0.296 0.068-0.563 0.068-0.811 0-0.06 0-0.12-3e-3 -0.188-0.033-0.46-0.164-0.855-0.45-1.142-0.251-0.25-0.593-0.377-0.955-0.375-0.045 0-0.087 2e-3 -0.124 6e-3 -0.569 0.036-1.182 0.337-1.893 0.846-0.935 0.685-1.755 1.397-2.456 2.143l0.234-1.51c0.028-0.18 0.044-0.314 0.046-0.433 0-0.017 0-0.034-1e-3 -0.061-0.017-0.229-0.154-0.417-0.333-0.528-0.152-0.106-0.346-0.144-0.53-0.144-0.041 0-0.08 3e-3 -0.119 6e-3 -0.543 0.038-1.136 0.275-1.807 0.683-0.688 0.423-1.54 1.198-2.597 2.347l-0.229 0.248 0.989 0.897 0.223-0.278c0.423-0.527 0.877-0.979 1.366-1.35 0.144-0.12 0.262-0.185 0.331-0.217v0.021c0 0.063-0.011 0.181-0.031 0.343l-0.839 5.03c-0.19 1.204-0.427 2.469-0.702 3.795l-0.09 0.431 2.647-0.175 0.807-4.884c0.165-1.025 0.408-1.756 0.679-2.182 0.478-0.731 1.094-1.379 1.849-1.955 0.494-0.385 0.9-0.56 1.126-0.567 0.022-1e-3 0.031-3e-3 0.047-3e-3 0.073 0 0.092 0.013 0.099 0.015 2e-3 6e-3 5e-3 0.017 7e-3 0.034 0 0.018 1e-3 0.023 0 0.026 4e-3 0.147-0.101 0.808-0.312 1.85-0.719 2.96-1.08 4.863-1.083 5.798 0 0.058 1e-3 0.116 5e-3 0.173 0.043 0.575 0.156 1.025 0.437 1.349 0.236 0.275 0.591 0.43 0.967 0.425 0.025 0 0.057 0 0.095-1e-3 0.471-0.035 0.952-0.274 1.505-0.679 0.855-0.618 1.661-1.407 2.42-2.371l0.167-0.212-0.75-0.917-0.262 0.227z" fill="#fff"/>
<path d="m253.46 378.35c-0.783 0.727-1.33 1.191-1.573 1.364-0.161 0.104-0.302 0.151-0.37 0.156-5e-3 -1e-3 -0.011-1e-3 -0.015 0h-6e-3v8e-3c-6e-3 -9e-3 -0.031-0.062-0.041-0.166-4e-3 -0.038-5e-3 -0.083-5e-3 -0.144 0-0.308 0.056-0.872 0.164-1.661l1.146-8.039c0.313-2.14 0.519-3.427 0.612-3.793 0.145-0.613 0.336-0.996 0.462-1.105 0.162-0.156 0.333-0.234 0.572-0.257 0.063-8e-3 0.165-0.012 0.294-0.012 0.214 0 0.509 0.01 0.877 0.033 0.38 0.019 0.685 0.032 0.926 0.032 0.139 0 0.255-3e-3 0.359-0.015 0.377-0.026 0.721-0.169 0.965-0.426 0.205-0.22 0.324-0.507 0.323-0.81 0-0.043-2e-3 -0.087-6e-3 -0.134-0.026-0.361-0.215-0.693-0.509-0.903-0.254-0.188-0.567-0.274-0.895-0.273-0.065 0-0.129 3e-3 -0.196 9e-3 -0.71 0.064-1.45 0.297-2.212 0.688-0.771 0.4-1.44 0.926-2.01 1.574-0.567 0.647-1.01 1.4-1.329 2.248-0.301 0.801-0.564 1.986-0.812 3.578-0.134-6e-3 -0.253-0.01-0.358-0.01-0.096 0-0.18 5e-3 -0.25 9e-3 -0.969 0.092-1.937 0.606-2.945 1.497-1.02 0.907-1.879 2.223-2.599 3.933-0.623 1.484-0.937 2.812-0.937 3.99 0 0.184 7e-3 0.364 0.024 0.542 0.071 0.829 0.297 1.483 0.719 1.938 0.357 0.395 0.826 0.615 1.326 0.615h0.015c0.038 0 0.086 0 0.142-3e-3 0.646-0.063 1.298-0.352 1.993-0.831 0.488-0.345 1.028-0.861 1.629-1.551l-0.063 0.33c-0.057 0.295-0.088 0.528-0.088 0.72 0 0.047 2e-3 0.088 6e-3 0.123 0.019 0.237 0.163 0.469 0.37 0.612 0.169 0.133 0.398 0.202 0.632 0.2 0.026 0 0.063 0 0.109-2e-3 0.569-0.056 1.191-0.365 1.959-0.893 0.572-0.394 1.381-1.133 2.467-2.225l0.223-0.224-0.846-0.952-0.249 0.23zm-3.519-5.946l-0.318 2.339c-0.244 1.714-0.474 2.816-0.644 3.188-0.307 0.675-0.75 1.26-1.342 1.771-0.407 0.336-0.756 0.495-1.02 0.516-0.026 0-0.053 2e-3 -0.069 2e-3 -0.162-2e-3 -0.322-0.066-0.52-0.258-0.201-0.198-0.321-0.461-0.358-0.846-0.017-0.166-0.024-0.338-0.024-0.517 0-0.814 0.158-1.769 0.48-2.859 0.39-1.331 0.847-2.219 1.289-2.652 0.473-0.467 0.952-0.699 1.44-0.743 0.045-6e-3 0.108-7e-3 0.184-7e-3 0.214-2e-3 0.517 0.019 0.902 0.066z" fill="#fff"/>
<path d="m266.36 376.84c-0.698 0.889-1.19 1.458-1.412 1.649-0.132 0.113-0.238 0.16-0.299 0.174l-1e-3 -1e-3c-1e-3 1e-3 -7e-3 1e-3 -0.033-0.022-3e-3 -2e-3 -0.029-0.024-0.042-0.144-4e-3 -0.02-6e-3 -0.053-6e-3 -0.103-2e-3 -0.475 0.186-1.988 0.563-4.433l0.763-5.116-2.538 0.296-0.036 0.255-0.804 5.496c-0.15 0.981-0.594 1.895-1.355 2.767-0.758 0.86-1.376 1.282-1.695 1.324-0.029 0-0.034 2e-3 -0.034 0-0.028-1e-3 -0.065-5e-3 -0.144-0.07-0.064-0.062-0.094-0.115-0.116-0.242 0-1e-3 -1e-3 -0.013-1e-3 -0.046-1e-3 -0.364 0.137-1.576 0.422-3.557 0.295-2.028 0.449-3.407 0.449-4.195 0-0.156-5e-3 -0.29-0.02-0.407-0.043-0.363-0.147-0.673-0.385-0.894-0.175-0.174-0.426-0.266-0.667-0.263-0.044 0-0.089 3e-3 -0.134 9e-3 -0.466 0.053-0.969 0.303-1.567 0.71-0.619 0.431-1.432 1.225-2.487 2.409l-0.263 0.294 1.206 0.762 0.189-0.223c0.575-0.684 0.993-1.123 1.194-1.271 0.156-0.125 0.288-0.197 0.372-0.231 1e-3 6e-3 1e-3 0.013 2e-3 0.021 4e-3 0.033 8e-3 0.089 8e-3 0.162 1e-3 0.506-0.147 1.731-0.439 3.604-0.271 1.706-0.436 2.831-0.484 3.417-0.02 0.19-0.027 0.38-0.027 0.562 0 0.211 0.013 0.413 0.034 0.607 0.062 0.477 0.194 0.858 0.468 1.124 0.227 0.211 0.525 0.316 0.828 0.316h0.012c0.055 0 0.116-1e-3 0.185-9e-3 0.645-0.081 1.317-0.405 2.047-0.955 0.743-0.562 1.396-1.165 1.957-1.814-2e-3 0.075-3e-3 0.148-3e-3 0.218 0 0.2 0.01 0.384 0.031 0.551 0.044 0.442 0.208 0.827 0.508 1.083 0.237 0.208 0.538 0.329 0.849 0.327 0.042 0 0.092-1e-3 0.15-8e-3 1.054-0.156 2.202-1.267 3.768-3.292l0.187-0.248-0.979-0.873-0.221 0.28z" fill="#fff"/>
<path d="m275 367.68c-0.378-0.195-0.825-0.286-1.328-0.286-0.228 0-0.466 0.019-0.716 0.055-1.119 0.153-2.038 0.634-2.688 1.437-0.536 0.658-0.818 1.394-0.817 2.167 0 0.151 0.011 0.304 0.033 0.457 0.145 1.036 0.792 2.006 1.874 2.916 0.739 0.621 1.223 1.076 1.42 1.321 0.196 0.248 0.303 0.487 0.334 0.729 9e-3 0.062 0.013 0.123 0.013 0.181 0 0.194-0.046 0.409-0.149 0.646-0.132 0.295-0.319 0.516-0.597 0.69-0.285 0.181-0.643 0.304-1.072 0.366-0.086 0.012-0.169 0.017-0.245 0.017-0.229 0-0.395-0.048-0.532-0.132-0.2-0.13-0.278-0.253-0.309-0.441-9e-3 -0.068-0.018-0.154-0.024-0.258 1e-3 -0.132-6e-3 -0.262-0.024-0.375-0.034-0.301-0.222-0.576-0.48-0.749-0.21-0.148-0.46-0.226-0.711-0.225-0.061 0-0.121 4e-3 -0.179 0.013-0.354 0.046-0.678 0.234-0.887 0.533-0.172 0.233-0.257 0.518-0.255 0.806 0 0.076 6e-3 0.153 0.018 0.228 0.095 0.706 0.49 1.299 1.127 1.683 0.458 0.29 1.04 0.424 1.719 0.424 0.275 0 0.571-0.022 0.883-0.066 1.29-0.176 2.334-0.703 3.073-1.564 0.611-0.721 0.94-1.521 0.939-2.363 0-0.157-0.013-0.314-0.033-0.473-0.141-1.04-0.827-2-1.965-2.917-0.794-0.634-1.303-1.113-1.472-1.362-0.19-0.272-0.303-0.551-0.342-0.85-0.012-0.073-0.017-0.133-0.017-0.198 3e-3 -0.242 0.067-0.433 0.214-0.626 0.194-0.252 0.396-0.37 0.662-0.409 0.028-6e-3 0.052-9e-3 0.089-9e-3 0.236-4e-3 0.588 0.16 1.006 0.579 0.28 0.273 0.477 0.449 0.703 0.548 0.138 0.055 0.289 0.086 0.449 0.086 0.05 0 0.105-3e-3 0.161-9e-3 0.343-0.044 0.635-0.224 0.831-0.48 0.167-0.221 0.26-0.48 0.258-0.742 0-0.044-1e-3 -0.093-7e-3 -0.147-0.073-0.523-0.434-0.938-0.957-1.201z" fill="#fff"/>
<path d="m283.7 373.55c-0.554 0.631-1.153 1.204-1.796 1.733-0.475 0.394-0.852 0.591-0.991 0.603-0.034 5e-3 -0.06 8e-3 -0.075 8e-3 -0.052-2e-3 -0.075-0.011-0.105-0.032-0.01-6e-3 -0.068-0.08-0.097-0.264-0.028-0.164-0.043-0.396-0.043-0.692 0-0.5 0.043-1.177 0.134-2.02l0.416-4.262 2.683-0.432 0.104-1.64-2.665 0.429 0.361-3.982-2.637 1.531-0.015 0.173-0.242 2.689-2.085 0.333-0.14 1.645 2.086-0.335-0.455 4.932c-0.07 0.729-0.103 1.358-0.103 1.888 0 0.441 0.024 0.811 0.076 1.12 0.093 0.553 0.246 0.991 0.568 1.287 0.223 0.205 0.519 0.325 0.831 0.325h0.011c0.079 0 0.162-6e-3 0.247-0.02 0.478-0.079 0.995-0.35 1.604-0.785 0.632-0.456 1.746-1.53 3.41-3.264l0.241-0.253-1.103-0.967-0.22 0.252z" fill="#fff"/>
<path d="m296.37 360.22c0.203 0.138 0.441 0.215 0.683 0.215h7e-3c0.086 0 0.173-9e-3 0.263-0.025 0.431-0.087 0.78-0.373 1.013-0.771 0.168-0.295 0.262-0.613 0.262-0.939 0-0.123-0.012-0.248-0.038-0.374-0.07-0.341-0.254-0.644-0.539-0.83-0.198-0.137-0.437-0.209-0.676-0.208-0.096 0-0.19 0.012-0.283 0.03-0.432 0.082-0.798 0.354-1.027 0.743-0.165 0.272-0.25 0.58-0.248 0.896 0 0.135 0.017 0.273 0.044 0.408 0.066 0.349 0.255 0.66 0.539 0.855zm0.76-2.572z" fill="#fff"/>
<path d="m299.23 371.14c-0.447 0.641-0.816 1.124-1.098 1.446-0.141 0.162-0.26 0.282-0.349 0.357-0.023 0.02-0.044 0.036-0.063 0.049-9e-3 -0.017-0.018-0.039-0.027-0.076-0.032-0.142-0.055-0.462-0.053-0.91 0-0.969 0.094-2.56 0.281-4.753 0.13-1.516 0.197-2.519 0.198-3.041-1e-3 -0.162-2e-3 -0.269-0.023-0.38-0.054-0.286-0.239-0.547-0.499-0.672-0.155-0.084-0.338-0.118-0.518-0.118-0.119 0-0.241 0.017-0.364 0.041-0.586 0.12-1.187 0.475-1.832 1.048-0.227 0.198-0.452 0.439-0.677 0.702 0.031-0.104 0.051-0.211 0.05-0.321 0-0.067-3e-3 -0.14-0.018-0.219-0.06-0.313-0.247-0.581-0.509-0.753-0.202-0.14-0.444-0.213-0.688-0.213-0.086 0-0.169 0.01-0.251 0.025-0.496 0.104-0.923 0.475-1.389 1.063-0.594 0.766-1.124 1.604-1.593 2.512l0.035-0.648c0.01-0.26 0.015-0.465 0.015-0.625 0-0.162-2e-3 -0.269-0.02-0.373-0.028-0.198-0.175-0.41-0.379-0.494-0.092-0.063-0.243-0.092-0.38-0.09-0.068 0-0.135 7e-3 -0.2 0.019-0.55 0.109-1.153 0.477-1.916 1.079-0.772 0.627-1.497 1.471-2.17 2.529l-0.163 0.255 1.001 0.787 0.204-0.295c0.559-0.815 0.963-1.337 1.157-1.524 0.142-0.142 0.262-0.222 0.324-0.259 3e-3 0.047 8e-3 0.145 7e-3 0.268 0 0.101-1e-3 0.221-3e-3 0.36-0.042 1.579-0.122 3.254-0.246 5.035l-0.296 4.061 2.612-0.478 0.012-0.267 0.116-2.607c0.073-1.74 0.171-2.858 0.267-3.304 0.089-0.45 0.313-1.025 0.667-1.724 0.349-0.682 0.694-1.203 1.004-1.539 0.318-0.345 0.75-0.68 1.325-0.995 0.361-0.203 0.637-0.372 0.855-0.533-0.247 0.344-0.494 0.714-0.745 1.137l-0.186 0.312 1.245 0.607 0.164-0.242c0.592-0.886 0.998-1.426 1.142-1.565 0.099-0.091 0.193-0.155 0.271-0.194 6e-3 0.057 9e-3 0.121 9e-3 0.191 0 0.055-1e-3 0.114-4e-3 0.173-0.278 2.887-0.417 5.071-0.417 6.548 1e-3 0.778 0.038 1.36 0.125 1.772 0.076 0.39 0.261 0.724 0.561 0.932 0.208 0.145 0.457 0.222 0.718 0.222 0.099 0 0.203-0.011 0.31-0.032 0.444-0.096 0.885-0.376 1.38-0.81 0.518-0.462 1.226-1.353 2.174-2.71l0.2-0.288-1.17-0.742-0.183 0.264z" fill="#fff"/>
<path d="m310.79 368.1l-0.194 0.309c-0.356 0.563-0.753 1.054-1.188 1.471-0.198 0.205-0.368 0.313-0.418 0.337-5e-3 -0.015-0.013-0.037-0.021-0.068-0.048-0.199-0.098-0.815-0.126-1.758-0.028-0.75-0.04-1.462-0.04-2.14 0-0.903 0.024-1.743 0.07-2.519l0.217-4.015-1.439 0.682-0.046 0.138-0.12 0.366c-0.226 0.032-0.447 0.075-0.66 0.124-1.116 0.267-2.004 0.655-2.669 1.18-0.833 0.67-1.552 1.575-2.16 2.691-0.606 1.125-1.026 2.319-1.25 3.566-0.118 0.627-0.175 1.222-0.175 1.78 0 0.549 0.058 1.062 0.174 1.537 0.185 0.802 0.546 1.449 1.083 1.888 0.296 0.244 0.661 0.378 1.05 0.378h0.013c0.156 0 0.316-0.019 0.48-0.057 0.603-0.149 1.176-0.516 1.731-1.082 0.542-0.545 1.019-1.128 1.432-1.746l-0.024 0.468c-9e-3 0.082-0.011 0.172-0.011 0.251 0 0.146 0.011 0.274 0.039 0.395 0.061 0.248 0.199 0.484 0.433 0.616 0.135 0.082 0.292 0.113 0.446 0.113 0.107 0 0.213-0.015 0.322-0.038 0.356-0.09 0.691-0.24 1.016-0.455 0.479-0.311 0.951-0.731 1.42-1.249 0.263-0.289 0.742-0.966 1.508-2.086l0.179-0.264-1.072-0.813zm-4.325-4.784l-0.105 3.866c-0.027 1.219-0.294 2.177-0.767 2.907-0.497 0.755-0.994 1.146-1.458 1.253-0.06 0.012-0.117 0.02-0.165 0.02-0.143-2e-3 -0.266-0.043-0.406-0.153-0.161-0.125-0.347-0.45-0.472-0.997-0.133-0.553-0.198-1.12-0.198-1.707 0-0.516 0.052-1.047 0.153-1.593 0.224-1.175 0.568-2.008 0.978-2.493 0.422-0.497 0.968-0.821 1.671-0.995 0.21-0.047 0.466-0.086 0.769-0.108z" fill="#fff"/>
</svg>
