<svg xmlns="http://www.w3.org/2000/svg" viewBox="0 0 170 134" xmlns:v="https://vecta.io/nano"><path d="M112.9 71.28L81.57 36l8.483-.32c8.867 0 17.68 1.06 25.663 3.083-1.918 9.14-2.892 18.62-2.892 28.228l.065 4.285M98.53 97.98a111.93 111.93 0 0 1-8.482.323c-8.868 0-17.682-1.06-25.665-3.082 1.922-9.136 2.894-18.62 2.894-28.228 0-1.428-.02-2.857-.065-4.285L98.53 97.98zm-60.7-15.9c-3.988-3.73-7.567-8.824-7.567-15.087s3.58-11.357 7.567-15.086c.646 4.938.973 9.992.973 15.086s-.327 10.15-.973 15.087m113.56-6.15c-.538-.536-1.265-.833-2.014-.833-.108 0-.218.007-.328.02-.862.1-1.634.59-2.09 1.328-1.21 1.95-2.786 3.835-4.7 5.636-.645-4.936-.97-10-.97-15.083s.326-10.145.97-15.083c1.924 1.8 3.5 3.686 4.7 5.636.457.74 1.23 1.228 2.09 1.328a2.8 2.8 0 0 0 .327.02c.75 0 1.477-.3 2.015-.834L167.34 42.12c1.03-1.027 1.117-2.666.205-3.797-4.51-5.603-10.287-10.643-17.192-15.01 1.222-2.602 2.555-5.067 3.972-7.35a2.84 2.84 0 0 0-.976-3.953c-6.434-3.78-13.516-6.972-21.053-9.488a2.84 2.84 0 0 0-.901-.147c-.99 0-1.934.517-2.455 1.406-1.53 2.608-2.975 5.356-4.318 8.192-10.943-3.152-22.56-4.748-34.575-4.748-10.585 0-20.918 1.247-30.744 3.713l-7.13-8.04c-.544-.62-1.324-.957-2.123-.957-.29 0-.585.044-.87.137-8.044 2.58-15.6 5.927-22.425 9.94a2.85 2.85 0 0 0-.848 4.145c1.37 2.226 2.662 4.622 3.85 7.15C11.97 34.576 1.825 50.388 1.825 67.003s10.144 32.426 27.932 43.7a72.34 72.34 0 0 1-3.97 7.345c-.404.653-.527 1.44-.344 2.184a2.85 2.85 0 0 0 1.322 1.772c6.43 3.777 13.515 6.97 21.05 9.486a2.83 2.83 0 0 0 .901.146c.99 0 1.935-.516 2.46-1.406 1.528-2.61 2.975-5.356 4.315-8.188 10.937 3.15 22.554 4.744 34.576 4.744 10.59 0 20.925-1.248 30.744-3.71l7.142 8.045c.55.62 1.328.956 2.128.956a2.84 2.84 0 0 0 .872-.136c8.044-2.582 15.588-5.927 22.423-9.942.732-.432 1.234-1.168 1.37-2.008.118-.754-.07-1.523-.52-2.133-1.373-2.228-2.662-4.63-3.852-7.16 6.905-4.367 12.68-9.408 17.192-15 .912-1.132.825-2.77-.205-3.797l-15.95-15.93z" fill="#13294b"/><path fill="#7bafd4" d="M140.2 87.45c-1.147-6.496-1.762-13.356-1.762-20.45s.615-13.956 1.762-20.452c3.922 2.856 7.046 6.056 9.184 9.505L165.33 40.11c-4.783-5.94-11.104-11.24-18.603-15.68 1.547-3.565 3.28-6.903 5.182-9.967-6.225-3.657-13.11-6.77-20.512-9.242-1.9 3.225-3.634 6.63-5.22 10.19-10.973-3.42-23.214-5.34-36.128-5.34-11.208 0-21.9 1.443-31.714 4.06l-8.3-9.347C42.15 7.32 34.8 10.6 28.2 14.468l.036.04c1.89 3.05 3.61 6.37 5.148 9.915C15.783 34.85 4.68 50.06 4.68 67s11.102 32.145 28.713 42.572c-1.544 3.566-3.278 6.9-5.177 9.963 6.225 3.657 13.11 6.77 20.51 9.243a103.25 103.25 0 0 0 5.221-10.187c10.973 3.42 23.215 5.335 36.13 5.335 11.208 0 21.912-1.44 31.717-4.056l8.297 9.346c7.912-2.54 15.254-5.807 21.852-9.685l-.036-.04c-1.9-3.05-3.612-6.373-5.152-9.922 7.5-4.44 13.82-9.74 18.603-15.68l-15.94-15.954c-2.138 3.45-5.262 6.65-9.184 9.505m-100.3 0c-7.83-5.714-12.47-12.795-12.47-20.467s4.638-14.754 12.468-20.458c1.15 6.497 1.764 13.36 1.764 20.458s-.615 13.96-1.764 20.456m50.15 13.7c-10.48 0-20.352-1.406-29.03-3.888 2.212-9.522 3.412-19.697 3.412-30.268a137.6 137.6 0 0 0-.548-12.324l40.467 45.58c-4.593.586-9.38.9-14.3.9m26.17-21.83L75.78 33.714a113.42 113.42 0 0 1 14.305-.896c10.48 0 20.352 1.406 29.03 3.887-2.21 9.524-3.412 19.698-3.412 30.27a137.97 137.97 0 0 0 .548 12.323"/></svg>