<?xml version="1.0" encoding="UTF-8"?>
<svg version="1.1" viewBox="0 0 35.391 37.95" xml:space="preserve" xmlns="http://www.w3.org/2000/svg" xmlns:cc="http://creativecommons.org/ns#" xmlns:dc="http://purl.org/dc/elements/1.1/" xmlns:rdf="http://www.w3.org/1999/02/22-rdf-syntax-ns#"><metadata><rdf:RDF><cc:Work rdf:about=""><dc:format>image/svg+xml</dc:format><dc:type rdf:resource="http://purl.org/dc/dcmitype/StillImage"/><dc:title/></cc:Work></rdf:RDF></metadata><defs><clipPath id="b"><path d="m0 0h952.44v657.64h-952.44v-657.64z"/></clipPath><clipPath id="a"><path d="m646.38 141.83h27.513v29.564h-27.513v-29.564z"/></clipPath></defs><g transform="matrix(1.25 0 0 -1.25 -807.47 214.76)"><g clip-path="url(#b)"><g transform="translate(649.41 171.31)"><path d="m0 0h21.297v-17.986l-10.574-5.255-10.723 5.127v18.114z" fill="#004494"/></g><g transform="translate(649.41 171.31)"><path d="m0 0h21.297v-17.986l-10.574-5.255-10.723 5.127v18.114z" fill="none" stroke="#fff" stroke-width=".171"/></g></g><g clip-path="url(#a)"><g transform="translate(653.7 160.65)"><path d="m0 0c-0.622-0.138-2.027-0.063-1.633 0.569 0.136 0.218 0.402 0.148 0.402 0.433 0 0.147-0.196 0.241-0.321 0.241-0.405 2e-3 -0.939-0.777-0.649-1.15 0.636-0.815 2.441-0.826 3.183-0.01 0.377 0.415-0.098 1.141-0.576 1.142-0.227 0-0.339-0.081-0.338-0.223 1e-3 -0.275 0.269-0.212 0.396-0.442 0.174-0.319-0.156-0.492-0.464-0.56" fill="#fff"/></g><g transform="translate(667.22 165.63)"><path d="m0 0c-0.144 0.037-0.246-0.037-0.176-0.085 0.261-0.016 0.277-0.139 0.491-0.088 0.182 0.044 0.111 0.177 0.115 0.358 3e-3 0.103-0.126 0.194-0.17 0.045-0.049-0.165-0.329 0-0.26-0.23" fill="#fff"/></g><g transform="translate(664.21 159.67)"><path d="m0 0h6.024v-5.896l-8.673-4.358v7.456s2.179 0.555 2.649 2.798" fill="#fff"/></g><g transform="translate(656.12 162.38)"><path d="m0 0h-5.96v8.224h8.331v-5.746s-1.709-0.449-2.371-2.478" fill="#fff"/></g><g transform="translate(655.97 159.54)"><path d="m0 0h-6.067v-5.896l8.481-4.08v7.327s-2.094 0.727-2.414 2.649" fill="#004494"/></g><g transform="translate(655.97 159.54)"><path d="m0 0h-6.067v-5.896l8.481-4.08v7.327s-2.094 0.727-2.414 2.649z" fill="none" stroke="#fff" stroke-width=".342"/></g><g transform="translate(664.23 162.51)"><path d="m0 0h5.96v8.288h-8.481v-5.853s1.901-0.577 2.521-2.435" fill="#004494"/></g><g transform="translate(664.23 162.51)"><path d="m0 0h5.96v8.288h-8.481v-5.853s1.901-0.577 2.521-2.435z" fill="none" stroke="#fff" stroke-width=".342"/></g><g transform="translate(665.81 166.09)"><path d="m0 0c-0.111 0.188-0.666 0.115-0.548 0.37 0.161 0.35 0.211-0.254 0.308-0.156 0.163 0.164 0.218 0.144 0.294 3e-3 0.189-0.352 0.807-0.545 1.35-0.356 0.244 0.084 0.292 0.111 0.258 0.486-5e-3 0.057 0.215 0.202 0.256 0.109 0.051-0.117-0.16-0.172-0.078-0.482 5e-3 -0.018 0.551-0.064 0.58 0.07 0.13 0.606-0.377 0.537-0.409 0.665 0.016 0.182 0.235 0.075 0.444 0.252 0.138 0.117 0.029 0.454-0.046 0.465-0.355 0.052-0.868 0.239-0.74 0.511 0.155 0.086 0.347-0.459 0.764-0.354 0.155 0.039-0.419 0.664-0.414 1.037 2e-3 0.161-0.486 0.129-0.697 0.076 0.155 0.416-0.217 0.55-0.474 0.611-0.322 0.078-0.741-0.13-0.732-0.198 0.042-0.307 0.464-0.082 0.432-0.408-0.212 0.055-0.524-0.107-0.684-0.08 0.39 0.246-0.035 0.658-0.162 0.599-0.506-0.236-0.58 0.362-1.14-0.319-0.215-0.262-0.295-0.665-0.071-0.707-0.01-0.262-0.437 6e-3 -0.585-0.446-0.189-0.574 0.169-0.702 0.674-0.682l-0.094-0.234c-0.032-0.054 0.513-0.198 0.534-0.342-0.657-0.048-0.619 0.449-1.019 0.225-0.371-0.207 0.149-0.776 0.229-0.834 0.443-0.326 0.555 0.011 0.614 0.166 0.192-0.016 0.088-0.377 0.261-0.442 0.101-0.037 0.216 0.074 0.355-0.013 0.126-0.079 0.214-0.301 0.297-0.156 0.112 0.2 0.551-0.062 0.546 0.321-1e-3 0.13-0.204 0.076-0.303 0.243" fill="#fff"/></g><g transform="translate(664.66 168.37)"><path d="m0 0c0.012 8e-3 0.024-0.139-0.163-0.075l5e-3 0.236c0.033 0.037 0.434 0.021 0.158-0.161" fill="#004494"/></g><g transform="translate(665.24 168.84)"><path d="m0 0c0.017 0.085 0.247 0.021 0.274-0.074 0.1-0.354-0.572-0.012-0.679-0.226l0.016 0.25c0.156 0.052 0.356-0.12 0.389 0.05" fill="#004494"/></g><g transform="translate(667.31 167.92)"><path d="m0 0c0.017-0.081 0.03-0.17-0.098-0.159-5e-3 -0.139 0.326-0.155 0.283-0.614-0.283-0.037-0.145 0.185-0.379 0.333-0.572 0.361 0.123 0.772 0.194 0.44" fill="#004494"/></g><g transform="translate(667.12 166.71)"><path d="m0 0c0.089 0.154 0.253 0.232 0.397 0.199l0.103-0.243-0.279-0.023c-0.303-0.157-0.035-0.366-0.623-0.308-0.054 5e-3 -0.064 0.391 0.128 0.412 6e-3 -0.093-9e-3 -0.281 0.103-0.264 0.099 0.015 0.111 0.123 0.171 0.227" fill="#004494"/></g><g transform="translate(666.64 165.65)"><path d="M 0,0 C -0.096,0.179 -0.365,0.211 -0.439,0.143 -0.53,0.058 0.1,-0.499 0.258,-0.138 0.293,-0.056 0.079,-0.147 0,0" fill="#fff"/></g><g transform="translate(660.1 149.23)"><path d="m0 0c0.459 0.78 0.384 1.538 0.384 1.538v5.896h-0.384v-5.896-1.538z" fill="#fff"/></g><g transform="translate(660.1 149.23)"><path d="m0 0c-0.459 0.78-0.385 1.538-0.385 1.538v5.896h0.385v-5.896-1.538z" fill="#fff"/></g><path d="m660.46 168.3h-0.684v-3.258h0.684v3.258z" fill="#fff"/><g transform="translate(659.78 167.91)"><path d="m0 0s-0.897 0.417-0.918 1.228c-0.022 0.801 0.416 1.068 0.501 1.122 0.086 0.053 0.3 0.224 0.716 0.224 0.417 0 0.993-0.246 0.993-0.833 0-0.278-0.085-0.385-0.085-0.385s-0.139-0.299 0.021-0.491c0 0-0.497 0.129-0.395 0.502 0.064 0.235 0.032 0.481-0.16 0.555 0 0-0.31 0.176-0.662-0.042-0.31-0.192-0.278-0.545-0.278-0.588 0-0.042-0.032-0.544 0.539-0.742l0.412-0.165-0.684-0.385z" fill="#fff"/></g><g transform="translate(667.36 160.65)"><path d="m0 0c-0.622-0.138-2.027-0.063-1.633 0.569 0.136 0.218 0.402 0.148 0.402 0.433 0 0.147-0.196 0.241-0.321 0.241-0.405 2e-3 -0.939-0.777-0.649-1.15 0.636-0.815 2.441-0.826 3.183-0.01 0.377 0.415-0.098 1.141-0.576 1.142-0.227 0-0.339-0.081-0.339-0.223 2e-3 -0.275 0.27-0.212 0.397-0.442 0.174-0.319-0.156-0.492-0.464-0.56" fill="#fff"/></g><g transform="translate(652.51 157.55)"><path d="m0 0c-0.094-0.5 0.171-1.066-0.171-1.444-0.235-0.261-0.865-0.175-1.015 0.316-0.032-0.096-0.096-0.265-0.097-0.319-0.02-1.08 0.994-0.914 1.396-1.658 0.143-0.266-0.209-0.789-0.701-0.789 0.983-0.78 1.5-0.179 2.183 0.129 0.637 0.287 1.022-0.193 1.05-0.561 0.021-0.266-0.028-0.476-0.255-0.702 0 0 0.574 0 0.853 0.354 0.42 0.534 0.345 0.887 0.168 1.792-0.07 0.351 0.274 0.697 0.561 0.711 0.451 0.023 0.695-0.349 0.695-0.349 0.241 0.545-0.352 1.178-1.017 1.248-0.386 0.04-0.687 0.422-0.628 0.847 0.064 0.472 0.342 0.654 0.887 0.686-0.716 0.651-1.645 0.17-2.084-0.386-0.182-0.23-0.657-0.084-0.758 0.118-0.141 0.286-0.17 0.545-7e-3 0.946l0.076 0.169c-0.613-0.228-1.019-0.484-1.136-1.108" fill="#fff"/></g><g transform="translate(665.42 164.18)"><path d="m0 0h1.031l-6e-3 0.256-0.085 0.054c-0.037 0.069 0.037 0.747 5e-3 0.854s-0.139 0.144-0.176 0.198l-0.176 5e-3c-0.15-0.117-0.14-0.374-0.155-0.513l-0.256 0.054c-0.049 0.064-0.091 0.101-0.097-0.112-5e-3 -0.214 0.048-0.556-0.01-0.513l-0.08-0.048 5e-3 -0.235" fill="#fff"/></g><g transform="translate(653.38 164.95)"><path d="m0 0-0.262-5e-3c-0.042 0.042-0.085 0.24-0.251 0.256 0 0-0.03 0.173-0.138 0.176-0.155 6e-3 -0.134-0.058-0.161-0.091-0.026-0.032-0.117 0.011-0.144-0.085l0.096-0.053 0.048-0.091-0.096-0.038c-0.069 0.011-0.181-0.01-0.208-0.122 0 0-0.107-0.011-0.102-0.129l0.097-0.021c-0.022-0.091 0.058-0.219 0.208-0.091l0.043-0.149c-0.043-0.075-0.134-0.07-0.129-0.171l-0.026-0.134 0.112 6e-3 0.304-0.016c0.07 0.064 0.23 0.235 0.721 0.155 0.491-0.081 0.903-0.177 0.844 0.032-0.027 0.096-0.202 0.351-0.198 0.432 6e-3 0.112 0.042 0.14 0.086 0.139 0.181-5e-3 0.213-0.283 0.251-0.459 0 0-0.013-0.114 0.304-0.235 0 0 0.438-0.422-0.331-0.166-0.08 0.027-0.352 0.102-0.395-0.085 0 0-0.214-0.011-0.192-0.171 0 0 0.165 0.101 0.187-0.011 0.021-0.112 0.01-0.075 0.085-0.101 0 0-0.278 0.016-0.208-0.23 0 0-0.144-0.101-0.032-0.203 0 0 0.053 0.128 0.149 0.038 0.096-0.091 0.198-0.118 0.321 0.09 0 0-0.07-0.24 0.117-0.267 0 0-0.027-0.149 0.118-0.171 0 0-0.043 0.145 0.08 0.171 0.123 0.027 0.237 0.222 0.267 0.326 0.042 0.15 0.331 0.278 0.438-0.043 0 0 0.084 0.155 0.042 0.363-0.01 0.054-5e-3 0.209 0.166 0.236l0.037-0.113s0.289 0.486-0.123 0.695c0 0 0.07 0.128 0.177-6e-3 0 0 0.125 0.339-0.385 0.246-0.059-0.011-0.085 0.203 0.043 0.256 0 0 0.123-0.197 0.513-0.171 0.389 0.027 0.485 0.219 0.518 0.497 0.032 0.278-0.107 0.903 0.17 1.372 0 0-0.208-0.149-0.24-0.058-0.032 0.09 0.022 0.213 0.15 0.16 0 0-0.155 0.342-0.486 0.144 0 0-0.196 0.588 0.235 0.636 0.144 0.016 0.319-0.057 0.336-0.166 0.022-0.133-0.064-0.187-0.208 0.027 0 0-0.176-0.273 0.053-0.427 0.078-0.053 0.206-0.138 0.444-0.049 0.213 0.081 0.405 0.438-0.033 0.764 0 0 0.508 0.112 0.241 0.78 0 0-0.155-0.267-0.406-0.166 0 0 0.053 0.155-0.08 0.379-0.134 0.225-0.118 0.641 0.043 0.903l-0.139-0.086s-0.016 0.145 0.053 0.257c0 0-0.539-0.299-0.358-0.78 0 0-0.181 0.086-0.213 0.246 0 0-0.102-0.294-0.011-0.513s0.144-0.294 0.086-0.454c0 0-0.321 0.182-0.417-0.069 0 0 0.278-0.096 0.176-0.283-0.101-0.187-0.374-0.438-0.262-1.063 0.078-0.432 0.437-0.764 0.428-1.26-6e-3 -0.278-0.091-0.465-0.246-0.251-0.155 0.213-0.176 0.171-0.176 0.171s0.091 0.261-0.182 0.491c-0.272 0.23-0.737 0.71-0.384 0.817 0.058 0.018-0.016-0.096 0.149-0.171 0 0-0.072 0.166 0.016 0.342 0.027 0.053 0.096 0.235-0.021 0.363 0 0 0.16-0.101 0.315 0.069 0 0 0.032 0.097-0.059 0.193 0 0 0.07 0.224-0.091 0.341 0 0 0.187-0.08 0.289 0.091 0 0-0.086 0.011-0.112 0.171-0.027 0.16-0.048 0.358-0.193 0.449 0 0 0.123-0.08 0.171 0.042 0 0-0.187 0.038-0.176 0.15 0 0-0.016 0.096-0.144 0.139 0 0 0.176-0.038 0.224 0.133 0 0-0.219 6e-3 -0.267 0.118 0 0 0.079 0.151-0.117 0.288-0.054 0.038-0.187 0.07-0.187 0.251 0 0-0.331 0-0.353-0.347 0 0-0.101-0.048-0.213-0.032s-0.35 0.08-0.502-0.123c-0.064-0.085-0.326-0.165-0.476-0.213 0 0-0.021-0.177 6e-3 -0.278 0.027-0.102 0.037-0.16 0.085-0.08l0.102-0.139s-0.315-0.069-0.363 0.085c-0.047 0.152 0.096 0.326 0.096 0.326s-0.241-0.085-0.235-0.315c2e-3 -0.084 0.11-0.283 0.304-0.24 0 0 0.07 0.064 0.219 0.048l0.032-0.091-0.149-0.043c-0.022-0.058-0.032-0.149 0.074-0.107 0.107 0.043 0.23 0.075 0.262 0.033 0.032-0.043 0.011-0.187-0.182-0.203-0.192-0.016-0.331-0.091-0.432 0.144 0 0-0.027 0.165-0.15 0.181 0 0-0.101 0.048-0.085 0.166l-0.16 0.128c-0.027 0-0.182 0.102-0.027 0.342s0.128 0.523-5e-3 0.566l-0.134 0.059 0.021-0.07-0.128-0.021c-0.058-0.054-0.058-0.171 0.016-0.31 0 0-0.123-0.026-0.176 0.08-0.053 0.107-0.181 0.299-0.32 0.107 0 0-0.15-0.059-0.123-0.176h0.128c-0.027-0.091-0.08-0.166 0.091-0.214 0 0-0.011-0.075-0.128-0.064-0.118 0.011-0.257-0.053-0.225-0.176 0 0-0.122-0.112-0.026-0.192l0.106 0.032c0.075-0.048 0.065-0.171 0.337-0.064l0.075-0.027c0.01-0.053 0.117-0.326 0.074-0.577-0.042-0.251 6e-3 -0.181 6e-3 -0.181s0.021 0.08 0.117 0.122c0 0-0.053-0.229 0.054-0.373l0.08 0.112s0.032-0.214 0.128-0.289l0.053 0.123s6e-3 -0.245 0.155-0.288c0 0-0.3-0.468-0.48-0.449 0 0-0.123 6e-3 -0.198 0.139-0.075 0.134-0.379 0.262-0.443 0.048 0 0-0.15-0.037-0.118-0.155 0 0 0.123 0.086 0.118-0.016-6e-3 -0.101 0.058-0.208 0.197-0.171 0 0 0.107 0.022 0.08-0.069 0 0-0.491 0.075-0.389-0.262 0 0-0.139-0.069-0.07-0.171l0.134 0.032c0.069-0.09 0.219-0.138 0.384 0.049 0 0-0.165-0.353 0.096-0.396l0.064-0.128 0.054 0.102c0.069 0.021 0.219 0.069 0.16 0.331 0 0 0.198 0.048 0.32-0.155 0 0 0.343 0.493 0.652 0.4 0 0 0.064-0.01 0.075-0.149 0.01-0.139 0.224-0.363 0.459-0.433 0 0-0.662 0.091-0.7-0.256-0.032-0.304 0.048-0.411 0.203-0.545l0.043-0.123-0.032-0.021" fill="#004494"/></g><g transform="translate(662.91 154.86)"><path d="m0 0s-0.155-5e-3 -0.128-0.24c0.011-0.098 0.099-0.175 0.213-0.118 0.097 0.048 0.118 0.059 0.214 0.022l-0.048-0.129-0.128 0.054s-0.091-0.187 0.032-0.176c0.123 0.01 0.176-6e-3 0.213-0.049 0 0-0.149 6e-3 -0.186-0.09l0.138-0.07-0.192-0.058s0.021-0.065 0.123-0.07c0 0-0.15-0.101-0.256-0.037-0.107 0.064-0.219 0.293-0.219 0.293s0.144 0.016 0.106 0.113l0.032 0.101-0.074-0.021c-0.048 0.032-0.077 0.139-0.171 0.064l-0.07-0.096s-0.037 0.176-0.181 0.101c0 0-0.091 0.091-0.192 0l0.08-0.091c-0.12-0.042-0.091-0.128 0.064-0.203l-0.203-0.064s-0.144-5e-3 -0.086-0.149l0.097 0.032c0.01-0.08 0.032-0.171 0.165-0.139l0.043-0.182 0.053 0.102s-0.032-0.171 0.038-0.305l0.053 0.097s0.027-0.401 0.155-0.492c0 0 0.091 0.064 0.107 0.251 0 0 8e-3 -0.237 0.155-0.283 0.154-0.048 0.244 0.063 0.272-0.075 0.011-0.053-0.096-0.372-0.262-0.491l-0.107 6e-3c-0.026 0.064-0.053 0.138-0.16 0.112 0 0-0.037 0.106-0.133 0.074l0.032-0.106s-0.171-0.065-0.011-0.187c0 0-0.213 0.01-0.198-0.123l-0.058-0.102 0.107 6e-3c0.037-0.054 0.016-0.123 0.133-0.096 0 0-0.08-0.118 0.043-0.171l0.032-0.064 0.053 0.064s0.176-6e-3 0.086 0.181c0 0 0.171-0.16 0.363-0.09 0 0-0.07 0-0.086 0.096 0 0 0.145-0.075 0.241-0.027l-0.075 0.08s0.112-0.064 0.203 0.027l-0.118 0.069s0.262-0.101 0.422 0.112c0 0-0.165 0.022-0.075 0.166 0.091 0.144 0.289 0.331 0.113 0.496 0 0 0.064-0.08 0.16-0.09 0.096-0.011 0.096-0.102 0.096-0.102l0.085 0.08 0.161 0.054 0.064-0.16 0.069 0.122 0.032-0.181 0.059 0.128s-0.037-0.118 0.075-0.182c0 0 0.085-0.224-0.059-0.245-0.144-0.022-0.304-0.054-0.347-0.011s-0.022 0.134-0.118 0.112l-0.069 0.08 5e-3 -0.09s-0.16-6e-3 -0.032-0.171c0 0-0.197-0.032-0.139-0.145l-0.09-0.101 0.096-0.011c7e-3 -0.018 0.048-0.149 0.229-0.021 0 0-0.144-0.118-0.048-0.198l0.054-0.128 0.058 0.091s0.166 0.032 0.107 0.171c0 0 0.091-0.07 0.23-0.016 0.139 0.053 0.128 0.027 0.198-5e-3 0 0 0.021 0.096-0.091 0.122 0 0 0.24 0.043 0.357-0.048l-0.069 0.155 0.24-0.037s0.054 0.128-0.085 0.192c0 0 0.187 0.101 0.272-0.016 0 0 0.049 0.148-0.08 0.24-0.037 0.027-0.091 0.129-0.016 0.219 0 0 0.064-0.187 0.497-0.187 0.128 0 0.203-0.171 0.101-0.213-0.101-0.043-0.181-0.064-0.224-6e-3 -0.043 0.059 0.011 0.118-0.112 0.059l-0.08 0.043 0.037-0.096s-0.128-0.075 0.048-0.134l-0.117-0.08c-0.08 5e-3 -0.193-5e-3 -0.15-0.128l-0.069-0.102 0.096 0.027c0.053-0.043 0.032-0.091 0.16-0.021 0 0-0.048-0.123 0.08-0.176l0.054-0.086 0.032 0.096s0.122 0.038 0.074 0.16c0 0 0.257-0.048 0.46 0.032l-0.134 0.07s0.225-0.064 0.305 0.043l-0.161 0.064 0.209 0.048-0.118 0.107s0.086 0.09 0.208-6e-3c0 0 0.048 0.262-0.112 0.294 0 0-0.037 0.139 0.054 0.117 0 0 0.069 0.177-0.353 0.182 0 0-0.101 0.144-0.262 0.182 0 0 0.113 0.299-0.149 0.528 0 0 0.519-0.153 0.758 0.155 0.075 0.096 0.022 0.273 0.193 0.379l-0.118 0.112s-0.085 0.182-0.267 0.187c-0.219 7e-3 -0.924-0.096-1.186 0.011-0.261 0.107-0.255 0.384-0.106 0.497 0.112 0.085 0.224 0.149 0.459 0.042 0 0 0.112-0.069 0.085-0.197-0.026-0.128-0.213-0.086-0.197 0.032 0.016 0.117 0.043 0.101 0.043 0.101l-0.182-0.096c-0.027-0.069-0.056-0.18 0.069-0.245 0.134-0.07 0.251-0.054 0.342-0.016 0.188 0.077 0.176 0.32 0.043 0.379 0 0 0.609-0.54 0.838-6e-3 0 0 0.203 0.39-0.347 0.46 0 0 0.337-0.593-0.235-0.363 0 0 0.16 0.315-5e-3 0.459-0.131 0.114-0.374 0.123-0.507-0.112l0.299 0.01c0.117-0.064 0.085-0.192-0.038-0.256 0 0-0.22 0.151-0.491 0.075-0.171-0.048-0.331-0.134-0.39-0.257-0.059-0.122-0.098-0.301 0.027-0.496 0.112-0.176 0.368-0.262 0.86-0.23 0 0-0.102-0.096-0.059-0.208s0.208-0.128 0.283-0.128c0 0 0.315-6e-3 0.213 0.197 0 0-0.165-0.133-0.293 0.016-0.078 0.091 0.106 0.152 0.171 0.155 0.112 6e-3 0.288 0.048 0.379-0.101 0 0 0.021-0.155-0.054-0.262-0.074-0.107-0.181-0.128-0.261-0.144s-0.294 0.021-0.444 0.091l-0.149 0.069s-0.208 0.176-0.497 0.048c0 0-0.16-0.064-0.235 0.064 0 0 0.155-0.069 0.23 0.043l-0.155 0.064-0.149 0.032s5e-3 0.102 0.117 0.112c0 0-0.037 0.107-0.23 0.08 0 0 0.032 0.128 0.134 0.086 0 0-0.091 0.192-0.342 0.101 0 0 0.064 0.214 0.246 0.15 0 0 0.026 0.112-0.118 0.112 0 0 0.161 0.128 0.15 0.336 0 0-0.203 0.102-0.39-0.106 0 0-0.283 0.085-0.513-0.075l-0.395-0.032v-0.235h0.171l-5e-3 -0.08s-0.106 0.034-0.198-6e-3c0 0-0.16-0.064-0.133 0.091 0.021 0.127 0.037 0.155 0.037 0.155" fill="#004494"/></g><g transform="translate(665.64 158.81)"><path d="m0 0s-0.155-5e-3 -0.128-0.24c0.011-0.098 0.099-0.175 0.213-0.118 0.097 0.048 0.118 0.059 0.214 0.022l-0.048-0.129-0.128 0.054s-0.091-0.187 0.032-0.176c0.123 0.01 0.176-6e-3 0.213-0.049 0 0-0.149 6e-3 -0.186-0.09l0.138-0.07-0.192-0.058s0.021-0.065 0.123-0.07c0 0-0.15-0.101-0.256-0.037-0.107 0.064-0.219 0.293-0.219 0.293s0.144 0.016 0.107 0.113l0.031 0.101-0.074-0.021c-0.048 0.032-0.077 0.139-0.171 0.064l-0.07-0.096s-0.037 0.176-0.181 0.101c0 0-0.091 0.091-0.192 0l0.08-0.091c-0.12-0.042-0.091-0.128 0.064-0.203l-0.203-0.064s-0.144-5e-3 -0.086-0.149l0.097 0.032c0.01-0.08 0.032-0.171 0.165-0.139l0.043-0.182 0.053 0.102s-0.032-0.171 0.038-0.305l0.053 0.097s0.027-0.401 0.155-0.492c0 0 0.091 0.064 0.107 0.251 0 0 8e-3 -0.237 0.155-0.283 0.154-0.048 0.244 0.063 0.272-0.075 0.011-0.053-0.096-0.372-0.262-0.491l-0.106 6e-3c-0.027 0.064-0.054 0.138-0.161 0.112 0 0-0.037 0.106-0.133 0.074l0.032-0.106s-0.171-0.065-0.011-0.187c0 0-0.214 0.01-0.198-0.123l-0.058-0.102 0.107 6e-3c0.037-0.054 0.016-0.123 0.133-0.096 0 0-0.08-0.118 0.043-0.171l0.032-0.064 0.053 0.064s0.176-6e-3 0.086 0.181c0 0 0.171-0.16 0.363-0.09 0 0-0.07 0-0.086 0.096 0 0 0.145-0.075 0.241-0.027l-0.075 0.08s0.112-0.064 0.203 0.027l-0.118 0.069s0.262-0.101 0.422 0.112c0 0-0.165 0.022-0.075 0.166 0.091 0.144 0.289 0.331 0.113 0.496 0 0 0.064-0.08 0.16-0.09 0.096-0.011 0.096-0.102 0.096-0.102l0.085 0.08 0.161 0.054 0.064-0.16 0.069 0.122 0.032-0.181 0.059 0.128s-0.037-0.118 0.075-0.182c0 0 0.085-0.224-0.059-0.245-0.144-0.022-0.304-0.054-0.347-0.011s-0.022 0.134-0.118 0.112l-0.069 0.08 5e-3 -0.09s-0.16-6e-3 -0.032-0.171c0 0-0.197-0.032-0.139-0.145l-0.09-0.101 0.096-0.011c7e-3 -0.018 0.048-0.149 0.229-0.021 0 0-0.144-0.118-0.048-0.198l0.054-0.128 0.058 0.091s0.166 0.032 0.107 0.171c0 0 0.091-0.07 0.23-0.016 0.139 0.053 0.128 0.027 0.197-5e-3 0 0 0.022 0.096-0.09 0.122 0 0 0.24 0.043 0.357-0.048l-0.069 0.155 0.24-0.037s0.054 0.128-0.085 0.192c0 0 0.187 0.101 0.272-0.016 0 0 0.049 0.148-0.08 0.24-0.037 0.027-0.091 0.128-0.016 0.219 0 0 0.064-0.187 0.497-0.187 0.128 0 0.203-0.171 0.101-0.213-0.101-0.043-0.181-0.064-0.224-6e-3 -0.043 0.059 0.011 0.118-0.112 0.059l-0.08 0.043 0.037-0.096s-0.128-0.075 0.048-0.134l-0.117-0.08c-0.08 5e-3 -0.193-5e-3 -0.15-0.128l-0.069-0.102 0.096 0.027c0.053-0.043 0.032-0.091 0.16-0.021 0 0-0.048-0.123 0.08-0.176l0.054-0.086 0.032 0.096s0.122 0.038 0.074 0.16c0 0 0.257-0.048 0.46 0.032l-0.134 0.07s0.224-0.064 0.305 0.043l-0.161 0.064 0.209 0.048-0.118 0.107s0.086 0.09 0.208-6e-3c0 0 0.048 0.262-0.112 0.294 0 0-0.037 0.139 0.054 0.117 0 0 0.069 0.177-0.353 0.182 0 0-0.101 0.144-0.262 0.182 0 0 0.113 0.299-0.149 0.528 0 0 0.519-0.153 0.758 0.155 0.075 0.096 0.022 0.273 0.193 0.379l-0.118 0.112s-0.085 0.182-0.267 0.187c-0.219 7e-3 -0.924-0.096-1.186 0.011-0.261 0.107-0.254 0.384-0.106 0.497 0.112 0.085 0.224 0.149 0.459 0.042 0 0 0.112-0.069 0.085-0.197-0.026-0.128-0.213-0.086-0.197 0.032 0.016 0.117 0.043 0.101 0.043 0.101l-0.182-0.096c-0.027-0.069-0.056-0.18 0.069-0.245 0.134-0.07 0.251-0.054 0.342-0.016 0.188 0.077 0.176 0.32 0.043 0.379 0 0 0.609-0.54 0.838-6e-3 0 0 0.203 0.39-0.347 0.46 0 0 0.337-0.593-0.235-0.363 0 0 0.16 0.315-5e-3 0.459-0.131 0.114-0.374 0.123-0.508-0.112l0.3 0.01c0.117-0.064 0.085-0.192-0.038-0.256 0 0-0.22 0.151-0.491 0.075-0.171-0.048-0.331-0.134-0.39-0.257-0.059-0.122-0.098-0.301 0.027-0.496 0.112-0.176 0.368-0.262 0.86-0.23 0 0-0.102-0.096-0.059-0.208s0.208-0.128 0.283-0.128c0 0 0.315-6e-3 0.213 0.197 0 0-0.165-0.133-0.293 0.016-0.078 0.091 0.106 0.152 0.171 0.155 0.112 6e-3 0.288 0.048 0.379-0.101 0 0 0.021-0.155-0.054-0.262-0.074-0.107-0.181-0.128-0.261-0.144s-0.294 0.021-0.444 0.091l-0.149 0.069s-0.208 0.176-0.497 0.048c0 0-0.16-0.064-0.235 0.064 0 0 0.155-0.069 0.23 0.043l-0.155 0.064-0.149 0.032s5e-3 0.102 0.117 0.112c0 0-0.037 0.107-0.23 0.08 0 0 0.032 0.128 0.134 0.086 0 0-0.091 0.192-0.342 0.101 0 0 0.064 0.214 0.246 0.15 0 0 0.026 0.112-0.118 0.112 0 0 0.161 0.128 0.15 0.336 0 0-0.203 0.102-0.39-0.106 0 0-0.283 0.085-0.513-0.075l-0.395-0.032v-0.235h0.171l-5e-3 -0.08s-0.106 0.034-0.198-6e-3c0 0-0.16-0.064-0.133 0.091 0.022 0.127 0.037 0.155 0.037 0.155" fill="#004494"/></g><g transform="translate(660.15 157.02)"><path d="m0 0c2.148 0 3.89 1.741 3.89 3.89 0 2.148-1.742 3.889-3.89 3.889s-3.889-1.741-3.889-3.889c0-2.149 1.741-3.89 3.889-3.89" fill="#fff"/></g><g transform="translate(660.12 157.4)"><path d="m0 0c1.944 0 3.519 1.576 3.519 3.519 0 1.944-1.575 3.52-3.519 3.52s-3.519-1.576-3.519-3.52c0-1.943 1.575-3.519 3.519-3.519zm-3.3 4.705s0.235-0.47 1.068-0.15c0 0 0.213-0.598 1.111-0.576m1.602 3.012s-1.197-0.235-2.372-1.966m1.197 1.795s0.363-0.086 0.79-0.406m-1.388-0.043s0.427-0.021 0.94-0.384m-1.368-0.064s0.449-0.043 0.833-0.428m-2.477-3.033s0.128-1.089 2.819-0.748c0 0 0.257-0.32 0.193-1.26m1.473 3.824s0.257 0.299 1.047 0.235c0 0 0.086 0.598 0.812 0.854m-0.449-4.293s0.385 2.67-0.363 3.439" fill="none" stroke="#004494" stroke-width=".214"/></g><g transform="translate(660.14 145.72)"><path d="m0 0c0.964-0.027 1.848 1.346 3.108 1.88 1.073 0.454 0.449 0.171 3.738 1.217 3.29 1.047 4.273 3.226 4.273 3.226s1.004-0.769 0.918-2.158c0 0 0.62-0.213 1.581-0.149 0 0-0.983-2.542-4.294-3.717s-3.728-1.342-4.913-1.922c-2.221-1.09-2.83-2.179-4.411-2.179-1.602 0-2.211 1.089-4.432 2.179-1.185 0.58-1.603 0.747-4.914 1.922s-4.293 3.717-4.293 3.717c0.961-0.064 1.581 0.149 1.581 0.149-0.086 1.389 0.918 2.158 0.918 2.158s0.983-2.179 4.272-3.226c3.29-1.046 2.665-0.763 3.739-1.217 1.26-0.534 2.143-1.852 3.129-1.88" fill="#004494"/></g><g transform="translate(660.14 145.72)"><path d="m0 0c0.964-0.027 1.848 1.346 3.108 1.88 1.073 0.454 0.449 0.171 3.738 1.217 3.29 1.047 4.273 3.226 4.273 3.226s1.004-0.769 0.918-2.158c0 0 0.62-0.213 1.581-0.149 0 0-0.983-2.542-4.294-3.717s-3.728-1.342-4.913-1.922c-2.221-1.09-2.83-2.179-4.411-2.179-1.602 0-2.211 1.089-4.432 2.179-1.185 0.58-1.603 0.747-4.914 1.922s-4.293 3.717-4.293 3.717c0.961-0.064 1.581 0.149 1.581 0.149-0.086 1.389 0.918 2.158 0.918 2.158s0.983-2.179 4.272-3.226c3.29-1.046 2.665-0.763 3.739-1.217 1.26-0.534 2.143-1.852 3.129-1.88z" fill="none" stroke="#fff" stroke-width=".171"/></g><g transform="translate(660.14 145.2)"><path d="m0 0c0.964-0.027 2.067 1.279 3.108 1.826 0.833 0.438 1.45 0.632 3.738 1.282 3.044 0.865 4.305 3.065 4.305 3.065s0.544-0.448 0.459-1.837c0 0 0.31-0.181 1.271-0.192 0 0-0.577-1.591-3.429-2.798-2.31-0.978-3.856-1.342-5.041-1.923-2.221-1.089-2.83-2.179-4.411-2.179-1.602 0-2.008 1.015-4.432 2.179-1.19 0.571-1.613 0.719-4.914 1.923-2.488 0.908-3.615 2.793-3.615 2.793 1.004-0.059 1.33 0.245 1.33 0.245-0.086 1.389 0.48 1.757 0.48 1.757s0.812-1.944 4.262-3.001c2.711-0.831 2.873-0.897 3.76-1.324 1.233-0.595 2.143-1.788 3.129-1.816" fill="#fff"/></g><g transform="translate(648.2 148.78)"><path d="M 0,0 0.026,0.029 0.127,0.016 0.942,0.917 0.561,1.261 0.46,1.23 0.434,1.254 0.822,1.682 0.848,1.658 0.827,1.555 1.921,0.565 2.022,0.596 2.049,0.572 1.661,0.144 1.634,0.168 1.655,0.271 1.274,0.616 0.46,-0.284 0.482,-0.384 0.456,-0.413 0,0 z" fill="#004494"/></g><g transform="translate(649.83 147.63)"><path d="m0 0 0.04-0.094-0.02-0.033-0.523 0.324 0.02 0.033 0.102 6e-3 0.796 1.286-0.04 0.094 0.02 0.033 0.93-0.575c0.376-0.233 0.447-0.476 0.252-0.79-0.157-0.254-0.393-0.295-0.643-0.228l0.016-0.644 0.043-0.095-0.021-0.034-0.528 0.327 0.02 0.034 0.087 0.015-0.015 0.651-0.249 0.154-0.287-0.464zm0.468 0.756 0.427-0.264c0.15-0.093 0.24-0.049 0.289 0.031 0.05 0.08 0.049 0.18-0.101 0.273l-0.427 0.264-0.188-0.304z" fill="#004494"/></g><g transform="translate(651.48 147.04)"><path d="m0 0c-0.156-0.195-0.187-0.228-0.194-0.246l0.039-0.05-0.014-0.036-0.495 0.185 0.014 0.037 0.098 0.042 1.031 1.241-0.044 0.051 0.013 0.037 0.731-0.273-0.014-0.037-0.065-0.021c-9e-3 -0.024-5e-3 -1.062-4e-3 -1.589l0.044-0.121-0.013-0.036-0.552 0.206 0.014 0.036 0.067 0.017 7e-3 0.309-0.663 0.248zm0.161 0.217 0.52-0.194-1e-3 0.825-0.519-0.631z" fill="#004494"/></g><g transform="translate(653.24 147.72)"><path d="m0 0-0.06 0.082 0.012 0.037 0.682-0.232-0.013-0.037-0.093-0.013c-0.011-0.034 0.285-0.766 0.402-1.07l0.28 0.821-0.041 0.075 0.013 0.037 0.517-0.176-0.012-0.037-0.098-0.029-0.488-1.432 0.06-0.082-0.013-0.037-0.537 0.183 0.013 0.037 0.076 0.012c0.014 0.04-0.043 0.104-0.481 1.265l-0.328-0.965 0.06-0.082-0.013-0.037-0.537 0.183 0.013 0.037 0.098 0.028 0.488 1.432z" fill="#004494"/></g><g transform="translate(655.71 145.01)"><path d="m0 0 0.016 0.035 0.101 0.018 0.504 1.083-3e-3 9e-3 -1.013-0.918 0.06 1.376-6e-3 2e-3 -0.512-1.101 0.051-0.088-0.016-0.036-0.477 0.222 0.017 0.035 0.1 0.018 0.638 1.372-0.051 0.088 0.016 0.036 0.707-0.329-0.016-0.035-0.09-0.023c-9e-3 -0.021-0.03-0.659-0.039-0.752 0.26 0.234 0.547 0.469 0.565 0.507l-0.041 0.084 0.017 0.035 0.734-0.341-0.017-0.036-0.1-0.017-0.638-1.372 0.051-0.089-0.016-0.035-0.542 0.252z" fill="#004494"/></g><g transform="translate(657.62 144.67)"><path d="m0 0-0.031 0.018-0.039 0.11-0.479 0.281-0.153-0.26 0.826-0.486 0.096 0.057 0.031-0.018-0.286-0.487-0.031 0.018-0.01 0.089-1.285 0.755 0.019 0.033 0.102 8e-3 0.766 1.305-0.042 0.093 0.02 0.034 1.285-0.756 0.092 0.052 0.031-0.019-0.286-0.487-0.031 0.018v0.106l-0.827 0.486-0.137-0.233 0.48-0.281 0.115 0.019 0.031-0.018-0.257-0.437z" fill="#004494"/></g><g transform="translate(658.22 143.72)"><path d="m0 0 0.046-0.091-0.019-0.035-0.541 0.293 0.018 0.034 0.102 0.012 0.719 1.331-0.046 0.091 0.018 0.035 0.962-0.52c0.389-0.21 0.475-0.448 0.299-0.774-0.142-0.263-0.375-0.317-0.629-0.265l0.054-0.642 0.048-0.093-0.018-0.034-0.547 0.295 0.019 0.035 0.085 0.02-0.053 0.649-0.258 0.139-0.259-0.48zm0.423 0.783 0.441-0.239c0.155-0.084 0.243-0.035 0.288 0.048 0.044 0.083 0.037 0.183-0.118 0.266l-0.441 0.239-0.17-0.314z" fill="#004494"/></g><g transform="translate(661.11 143.69)"><path d="m0 0-0.036-2e-3 -0.094 0.069-0.554-0.031 0.017-0.302 0.957 0.055 0.049 0.1 0.035 2e-3 0.033-0.564-0.036-2e-3 -0.058 0.069-1.488-0.086-2e-3 0.039 0.08 0.063-0.087 1.511-0.087 0.053-2e-3 0.039 1.488 0.086 0.049 0.094 0.035 2e-3 0.033-0.564-0.036-2e-3 -0.059 0.087-0.957-0.055 0.015-0.269 0.555 0.032 0.085 0.08 0.036 2e-3 0.029-0.506z" fill="#004494"/></g><g transform="translate(663.01 144.36)"><path d="m0 0 0.104-1e-3 0.021-0.032-0.521-0.351-0.022 0.032 0.038 0.096-0.845 1.255h-0.104l-0.022 0.033 0.927 0.624c0.374 0.253 0.628 0.22 0.835-0.087 0.167-0.248 0.104-0.482-0.065-0.685l0.6-0.246 0.106 1e-3 0.022-0.032-0.526-0.355-0.022 0.032 0.023 0.086-0.606 0.249-0.248-0.167 0.305-0.452zm-0.497 0.738 0.425 0.286c0.149 0.101 0.148 0.202 0.095 0.28s-0.145 0.117-0.295 0.016l-0.425-0.286 0.2-0.296z" fill="#004494"/></g><g transform="translate(665.37 146.48)"><path d="m0 0c0.236-0.517-0.032-0.974-0.504-1.19-0.473-0.215-0.994-0.117-1.229 0.4-0.236 0.517 0.032 0.975 0.504 1.19s0.994 0.117 1.229-0.4m-1.322-0.602c0.126-0.278 0.412-0.337 0.653-0.227 0.242 0.11 0.384 0.364 0.258 0.642-0.127 0.277-0.412 0.337-0.653 0.227-0.242-0.111-0.385-0.365-0.258-0.642" fill="#004494"/></g><g transform="translate(666.11 145.78)"><path d="m0 0-0.013 0.037 0.032 0.043c-0.01 0.027-0.975 1.07-1.096 1.205l-0.098 0.061-0.013 0.037 0.587 0.216 0.013-0.037-0.043-0.057c9e-3 -0.025 0.079-0.082 0.741-0.779 0.045 0.93 0.059 1.035 0.045 1.071l-0.055 0.018-0.013 0.037 0.492 0.181 0.014-0.037-0.029-0.055c8e-3 -0.108-0.054-1.629-0.039-1.672l0.051-0.012 0.014-0.04-0.59-0.217z" fill="#004494"/></g><g transform="translate(668.26 147.24)"><path d="m0 0-0.034-0.013-0.112 0.037-0.531-0.202 0.108-0.282 0.915 0.349 0.017 0.11 0.034 0.013 0.201-0.528-0.034-0.013-0.077 0.048-1.423-0.543-0.014 0.037 0.059 0.085-0.539 1.414-0.1 0.024-0.014 0.036 1.423 0.542 0.019 0.105 0.034 0.013 0.201-0.528-0.034-0.013-0.083 0.065-0.916-0.348 0.096-0.252 0.531 0.202 0.058 0.102 0.035 0.013 0.18-0.473z" fill="#004494"/></g><g transform="translate(669.44 147.22)"><path d="m0 0 0.103-0.012 0.018-0.034-0.556-0.294-0.018 0.034 0.048 0.092-0.707 1.338-0.102 0.012-0.019 0.034 0.988 0.522c0.399 0.211 0.648 0.152 0.821-0.175 0.14-0.265 0.052-0.491-0.137-0.675l0.57-0.309 0.106-0.01 0.018-0.034-0.561-0.297-0.019 0.034 0.032 0.084-0.575 0.312-0.265-0.14 0.255-0.482zm-0.416 0.787 0.454 0.239c0.159 0.084 0.168 0.185 0.124 0.268s-0.132 0.132-0.291 0.048l-0.453-0.24 0.166-0.315z" fill="#004494"/></g><g transform="translate(670.47 148.49)"><path d="m0 0 0.034 6e-3 0.037-0.057c0.054-0.069 0.402 0.017 0.651 0.213 0.24 0.189 0.3 0.335 0.212 0.447-0.148 0.189-0.973-0.797-1.36-0.303-0.2 0.255-0.108 0.612 0.245 0.889 0.329 0.258 0.651 0.337 0.716 0.388l0.035 0.089 0.034 0.011 0.113-0.485-0.041-7e-3 -0.022 0.028c-0.05 0.064-0.38-0.08-0.606-0.257-0.209-0.164-0.233-0.282-0.187-0.34 0.179-0.228 0.955 0.831 1.415 0.243 0.173-0.22 0.207-0.585-0.314-0.994-0.401-0.314-0.671-0.336-0.726-0.379l-0.022-0.071-0.035-0.015-0.179 0.594z" fill="#004494"/></g></g></g></svg>
