<?xml version="1.0" encoding="UTF-8"?>
<svg version="1.0" viewBox="0 0 197.64 219.69" xml:space="preserve" xmlns="http://www.w3.org/2000/svg"><g transform="matrix(1.25 0 0 -1.25 -21.651 230.32)"><path d="m144.14 35.304 1.6284-1.6632-1.3507-1.9397c-4.2274-6.1322-15.037-8.4188-21.134-8.731-3.4997-0.13874-6.929 0.51938-9.5278 2.0784-1.9051-0.62352-3.8458-0.9-5.6822-0.72744l-0.45-0.24192c1.4897-0.9703 2.8752-1.9406 4.0538-2.9447 1.9742-1.5937 4.573-4.1231 4.3303-7.1372l-0.06936-1.005-0.69288-0.72749c-1.7316-1.8703-7.5526-6.0628-12.299-2.1478l-0.65808 0.55404-0.27768 0.7969c-0.58872 1.8019-2.563 3.8803-5.6119 6.0975-3.0833-2.2172-5.0933-4.2956-5.682-6.0975l-0.24192-0.7969-0.65904-0.55404c-4.7813-3.915-10.567 0.27749-12.334 2.1478l-0.69288 0.72749-0.06936 1.005c-0.20808 3.0141 2.3561 5.5434 4.3303 7.1372 1.1784 1.0041 2.5987 1.9744 4.0884 2.9447l-0.48456 0.24192c-1.8019-0.17256-3.7416 0.10392-5.6129 0.6936-2.5987-1.5252-6.0281-2.1833-9.493-2.0446-6.0977 0.31219-16.942 2.5987-21.168 8.731l-1.3517 1.9397 1.6284 1.6284c-5.5087 2.2865-12.091 6.3403-14.065 11.78l-0.7968 2.2171 1.5235 0.93576c-4.607 3.3955-9.5964 8.4881-10.185 13.962l-0.27744 2.321 1.663 0.55416c-3.7068 4.1232-7.2411 9.7697-6.7555 15.036l0.24187 2.3213 1.3519 0.20736c-2.7722 4.8158-5.1628 11.226-3.465 16.353l0.72749 2.2174 1.2825-0.0696c-1.6284 5.0242-2.4947 11.191-0.03564 15.73l1.1091 2.0446 1.6978-0.3816c-0.69281 5.3354-0.4153 11.918 3.0487 16.075l1.4897 1.8019 1.8019-0.76224c0.45 5.5433 2.2865 12.438 6.8945 15.936l1.8703 1.4213 1.421-1.0051c1.7326 5.2313 5.0232 11.329 10.15 13.789l2.149 1.0397 1.4549-1.5938c2.9794 4.919 7.9342 10.566 13.824 11.849l2.3558 0.51936 1.1081-2.0446c0.24288-0.45 0.45096-0.9 0.62448-1.3858 4.261 4.019 10.601 8.3148 16.664 8.1067l2.4254-0.06864 0.52032-2.2865c0.20712-0.90096 0.27648-1.8713 0.27648-2.8406 1.8713 0.13776 3.7416 0.20712 5.6474 0.20712 1.8703 0 3.7416-0.06936 5.6119-0.20712 0 0.96936 0.06936 1.9397 0.27768 2.8406l0.51936 2.2865 2.4252 0.06864c6.0629 0.20808 12.403-4.0877 16.63-8.0719 0.20712 0.45096 0.4152 0.90096 0.62352 1.351l1.109 2.0446 2.3897-0.51936c5.9249-1.2826 10.879-6.9984 13.858-11.918l1.5252 1.6632 2.1826-1.0397c5.0926-2.46 8.3148-8.4535 10.082-13.685l1.2816 0.90096 1.8703-1.4213c4.6087-3.4987 6.4442-10.393 6.8942-15.936l1.8019 0.76224 1.4897-1.8019c3.4651-4.157 3.7416-10.74 3.0497-16.075l1.7664 0.3816 1.109-2.0446c2.459-4.5386 1.5926-10.705-0.0348-15.73l1.2816 0.0696 0.72744-2.2174c1.698-5.1271-0.69264-11.537-3.4639-16.353l1.351-0.20736 0.24264-2.3213c0.4848-5.2668-3.0842-10.948-6.7913-15.071l1.5938-0.5196-0.27648-2.321c-0.58968-5.4394-5.5435-10.532-10.151-13.928l1.5936-0.97032-0.7968-2.2171c-1.9752-5.4394-8.5229-9.4584-14.032-11.745" fill="#231f20"/><path d="m95.286 173.75-41.297-15.105-23.214-76.082 39.358-47.43 25.533-14.412 28.271 14.066 38.873 48.816-27.82 77.572-39.704 12.576" fill="#ed1c24"/><path d="m41.794 118.7 97.527 30.419 22.138-61.808-107.19-33.017-23.49 28.27 11.018 36.135" fill="#fff"/><path d="m41.378 117.35 98.394 30.488-1.4561 4.0884-95.413-29.587-1.5245-4.9894" fill="#231f20"/><path d="m55.895 52.281 106.33 32.948-1.4897 4.0884-107.82-33.433 2.9796-3.6038" fill="#231f20"/><path d="m85.62 112.6 0.41616 14.24-30.037-9.3542-0.41616-14.101 7.9339 2.4946-1.212-42.371 14.135 4.3303 1.2826 42.338 7.8984 2.4242" fill="#231f20"/><path d="m103.08 76.047 1.6978 56.577-14.17-4.4006-1.6978-56.542 14.17 4.3649" fill="#231f20"/><path d="m137.21 86.615 0.45 14.412-10.428-3.2558 1.2816 42.198-13.754-4.2619-1.6978-56.575 24.148 7.4832" fill="#231f20"/><path d="m81.428 20.269c2.2519 1.8703 5.2661 3.7416 8.3148 5.4393 6.0974 3.4294 17.842 8.8687 20.095 9.9778l1.0387 0.51936 1.0735-0.45c0.31224-0.13872 0.8316-0.3468 1.3865-0.58968 0.55416-0.27648 1.247-0.65808 1.8703-1.1081 1.0745-0.7968 3.4651-3.7068-0.17328-5.7862-3.048-1.7662-12.784-6.5128-16.942-9.2157-4.157-2.7019-7.1364-5.37-7.9332-7.83l-0.20808-0.62342-0.51936-0.45c-4.3313-3.5691-9.7706 0.24281-11.502 2.0784l-0.55488 0.58877-0.0696 0.79687c-0.17232 2.6681 2.149 4.9894 4.1232 6.6525" fill="#231f20"/><path d="m79.626 13.963c1.8019-1.9059 5.5783-3.915 8.0729-1.8713 2.1132 6.6178 19.783 14.794 25.949 18.327 2.3213 1.3519-1.6622 2.9458-2.7713 3.4303-4.5384-2.2171-31.631-14.308-31.251-19.886" fill="#fbbf08"/><path d="m111.29 20.269c-2.2174 1.8703-5.2313 3.7416-8.3148 5.4393-6.0626 3.4294-17.808 8.8687-20.094 9.9778l-1.0397 0.51936-1.0387-0.45c-0.34704-0.13872-0.8316-0.3468-1.3858-0.58968-0.55488-0.27648-1.2478-0.65808-1.8713-1.1081-1.0742-0.7968-3.4649-3.7068 0.13872-5.7862 3.0487-1.7662 12.785-6.5128 16.942-9.2157 4.1926-2.7019 7.1719-5.37 7.9687-7.83l0.17256-0.62342 0.55512-0.45c4.3303-3.5691 9.7349 0.24281 11.502 2.0784l0.55416 0.58877 0.03456 0.79687c0.20832 2.6681-2.113 4.9894-4.123 6.6525" fill="#231f20"/><path d="m113.09 13.963c-1.8019-1.9059-5.5435-3.915-8.0374-1.8713-2.1487 6.6178-19.818 14.794-25.95 18.327-2.3213 1.3519 1.6284 2.9458 2.7722 3.4303 4.5374-2.2171 31.596-14.308 31.215-19.886" fill="#fbbf08"/><path d="m150.58 146.07c-1.8365-1.4203-4.92-1.7323-6.9984 0.65832-11.814 13.72-28.652 22.173-47.187 22.173-18.57 0-35.443-8.4523-47.256-22.173-2.0784-2.3906-5.1629-2.0786-6.9984-0.65832-1.8019 1.3858-2.8058 4.158-0.72744 6.5486 13.476 15.659 33.052 25.637 54.982 25.637 21.861 0 41.436-9.9778 54.912-25.637 2.0794-2.3906 1.109-5.1629-0.72648-6.5486" fill="#231f20"/><path d="m43.076 151.37c13.131 15.21 32.116 24.876 53.319 24.876 21.168 0 40.154-9.6658 53.285-24.876 2.3558-2.7713-2.0448-6.132-4.4345-3.36-12.161 14.135-29.622 23.108-48.85 23.108-19.297 0-36.725-8.9729-48.92-23.108-2.3558-2.772-6.791 0.58872-4.3997 3.36" fill="#fbbf08"/><path d="m124.63 172.29c3.6732-4.4345 4.9546-10.151 1.6978-13.858l-0.06936-0.0696-2.4252-1.7671-0.06936-0.06936c-4.608-2.0436-10.221 0.52032-13.893 4.92-3.8803 4.6771-8.28 13.72-6.8597 20.06l0.41616 1.8367 1.9745 0.03456c7.4484 0.27648 15.452-6.5832 19.228-11.087" fill="#231f20"/><path d="m111.88 162.9c-3.7426 4.5036-7.5871 12.819-6.3751 18.12 6.0629 0.20712 13.407-5.717 17.115-10.221 3.3946-4.0538 3.8803-8.4187 1.7662-10.844-0.93456 1.2132-3.2213 4.0884-4.9884 5.9597-2.2865 2.4245-9.0432 9.2503-9.0432 9.2503s5.4058-7.83 7.38-10.498c1.4897-2.0438 3.9151-4.8158 4.92-5.9935-3.0139-1.3171-7.4146 0.17256-10.775 4.2264" fill="#fbbf08"/><path d="m141.5 162.77c2.3213-5.1619 1.9752-10.982-2.1826-13.789l-0.06936-0.06936-2.8406-1.1081-0.10416-0.03456c-5.0239-0.8664-9.7013 2.9794-12.056 8.1065-2.46 5.4742-4.2271 15.279-1.0745 21.065l0.8664 1.6632 1.9397-0.4152c7.2413-1.5948 13.131-10.151 15.521-15.418" fill="#231f20"/><path d="m126.61 156.81c-2.3897 5.2661-3.8107 14.205-1.1774 19.056 5.9251-1.2826 11.364-8.7658 13.719-14.032 2.1487-4.7465 1.4213-9.1126-1.2816-10.914-0.58872 1.3858-2.009 4.7119-3.1874 6.9638-1.5242 2.8752-6.1668 11.121-6.1668 11.121s3.0487-8.8687 4.2271-11.917c0.86544-2.3561 2.459-5.6129 3.1181-6.9638-3.2916-0.58968-7.1371 1.9397-9.2513 6.6862" fill="#fbbf08"/><path d="m116.8 154.97c5.5435-2.01 11.745-1.4897 14.552 2.4946l0.06936 0.1032 1.1081 2.7029v0.10392c0.76224 4.7467-3.4642 9.0077-9.0432 11.017-5.8546 2.1478-16.352 3.4649-22.38 0.31224l-1.7323-0.90096 0.51936-1.7664c1.9058-6.7913 11.191-11.988 16.907-14.066" fill="#231f20"/><path d="m122.59 169.17c-5.6474 2.0446-15.21 3.0833-20.268 0.45072 1.559-5.5087 9.7003-10.394 15.383-12.438 5.0926-1.8365 9.7003-1.0049 11.537 1.5938-1.4897 0.51936-5.0587 1.7316-7.4832 2.7365-3.1526 1.351-12.057 5.4394-12.057 5.4394s9.5278-2.5639 12.819-3.5681c2.5284-0.7284 6.0629-2.1142 7.5178-2.6681 0.4848 3.0835-2.321 6.6178-7.4484 8.4535" fill="#fbbf08"/><path d="m154.5 148.49c0.93576-5.5435-0.9-11.122-5.6465-12.888l-0.06936-0.0348-3.0835-0.45096h-0.06936c-5.0923 0.31224-8.6962 5.0935-9.6317 10.601-0.9696 5.8558-0.17256 15.799 4.3658 20.684l1.2816 1.4203 1.7671-0.8664c6.6178-3.1526 10.116-12.818 11.086-18.466" fill="#231f20"/><path d="m138.52 146.1c-0.97032 5.6465-0.0348 14.655 3.7414 18.744 5.4048-2.599 8.7658-11.087 9.7351-16.734 0.86616-5.0935-0.96936-9.1471-4.0874-10.291-0.20808 1.4558-0.69288 5.0242-1.2816 7.4494-0.72744 3.1874-3.1181 12.23-3.1181 12.23s0.69264-9.2849 1.0397-12.542c0.24192-2.459 0.93456-5.9933 1.212-7.483-3.3262 0.20808-6.4097 3.5342-7.241 8.6268" fill="#fbbf08"/><path d="m127.71 143.64c4.47-3.6722 10.498-5.1619 14.586-2.3213l0.10416 0.0348 2.01 2.2171 0.06936 0.06936c2.4242 4.2271 0 9.6319-4.5048 13.304-4.7455 3.8801-14.1 8.4881-20.926 7.483l-1.9397-0.27648-0.17352-1.8713c-0.65808-6.9638 6.1668-14.863 10.775-18.639" fill="#231f20"/><path d="m138.32 155.14c-4.573 3.7416-13.165 7.7952-18.881 6.929-0.52032-5.6813 5.37-12.888 9.943-16.629 4.1232-3.3958 8.7658-4.0538 11.433-2.2174-1.2122 0.9696-4.1568 3.2561-6.0629 4.9886-2.46 2.2865-9.3542 8.9736-9.3542 8.9736s8.0381-5.4739 10.775-7.4494c2.0784-1.5242 4.92-3.9487 6.0629-4.9536 1.5938 2.7365 0.24288 6.9626-3.9151 10.358" fill="#fbbf08"/><path d="m163.43 132.62c-0.31224-5.5793-3.361-10.706-8.3842-11.503h-0.10416l-3.0833 0.13872-0.06936 0.0348c-4.92 1.2814-7.379 6.6514-7.068 12.264 0.34704 5.9251 3.3264 15.452 8.8351 19.367l1.559 1.1093 1.559-1.1438c5.7506-4.3997 7.0678-14.516 6.7558-20.267" fill="#231f20"/><path d="m147.26 133.42c0.31104 5.7168 3.222 14.344 7.83 17.601 4.7117-3.6038 6.132-12.576 5.82-18.259-0.31128-5.1619-2.9796-8.7648-6.271-9.2851 0.13872 1.4897 0.41616 5.0587 0.38136 7.5526 0 3.2568-0.3468 12.576-0.3468 12.576s-1.3855-9.2503-1.7671-12.472c-0.31128-2.46-0.41544-6.0629-0.45-7.5526-3.2222 0.8316-5.4742 4.7119-5.1965 9.839" fill="#fbbf08"/><path d="m168.42 114.82c-1.6294-5.4046-5.7864-9.7349-10.914-9.4574l-0.06936 0.0348-2.9794 0.7968-0.10416 0.03384c-4.469 2.2874-5.5433 8.0726-3.9149 13.443 1.7326 5.6822 6.929 14.378 13.234 17.011l1.8019 0.76224 1.2132-1.4897c4.5732-5.4742 3.4294-15.625 1.7326-21.134" fill="#231f20"/><path d="m152.87 119.01c1.6632 5.4742 6.5484 13.269 11.814 15.487 3.7426-4.5038 2.9794-13.547 1.3171-19.02-1.5242-4.9548-4.9894-7.8996-8.3155-7.7261 0.48552 1.4203 1.5936 4.8497 2.1833 7.2751 0.76224 3.1874 2.6326 12.334 2.6326 12.334s-3.5335-8.6962-4.6771-11.78c-0.8664-2.3558-1.8365-5.82-2.2519-7.2749-2.91 1.5242-4.1926 5.7506-2.7029 10.705" fill="#fbbf08"/><path d="m136.93 128.36c3.4997-4.5384 8.9738-7.2761 13.651-5.37l0.1032 0.03456 2.4946 1.698 0.06936 0.06936c3.361 3.6026 2.2867 9.3881-1.1774 13.893-3.7068 4.8151-11.745 11.294-18.605 11.744l-1.9752 0.13872-0.62352-1.7662c-2.2865-6.6526 2.46-15.799 6.0629-20.441" fill="#231f20"/><path d="m150.03 137.3c-3.569 4.6078-11.018 10.394-16.769 10.775-1.8713-5.4394 2.1478-13.719 5.7161-18.327 3.1874-4.1578 7.5533-5.82 10.602-4.573-0.97032 1.1774-3.2568 4.0536-4.7117 6.132-1.8367 2.7367-6.9638 10.74-6.9638 10.74s6.5138-7.033 8.6962-9.5616c1.697-1.9058 3.8458-4.8852 4.7467-6.0974 2.2171 2.3561 1.8703 6.7558-1.3164 10.913" fill="#fbbf08"/><path d="m169.91 97.285c-2.7019-4.9546-7.6558-8.4881-12.61-7.2749h-0.10416l-2.7365 1.351-0.06936 0.03456c-3.9497 3.0835-3.8467 8.869-1.1438 13.858 2.8754 5.3006 9.7013 12.888 16.422 14.343l1.9406 0.4164 0.9-1.6632c3.361-6.2362 0.17352-15.971-2.5987-21.065" fill="#231f20"/><path d="m155.5 104.18c2.7374 5.0935 9.1462 11.884 14.759 13.096 2.7713-5.0923 0.17352-13.823-2.5987-18.916-2.459-4.5732-6.5129-6.8249-9.7351-6.0629 0.76224 1.3164 2.5642 4.4345 3.6377 6.721 1.3865 2.9794 5.0933 11.641 5.0933 11.641s-5.2313-7.9339-6.9984-10.705c-1.3171-2.1487-2.9794-5.37-3.673-6.7219-2.5632 2.01-2.9796 6.3749-0.4848 10.948" fill="#fbbf08"/><path d="m143.44 110.69c2.5987-5.0242 7.5178-8.5922 12.472-7.4842h0.1032l2.7722 1.2826 0.06936 0.06936c3.9842 2.9794 3.9842 8.8339 1.3855 13.858-2.7365 5.3354-9.4574 13.026-16.145 14.586l-1.9061 0.48456-0.93456-1.6632c-3.4997-6.1668-0.48576-15.971 2.1826-21.133" fill="#231f20"/><path d="m158 117.38c-2.6683 5.1281-8.9383 12.023-14.516 13.339-2.8416-5.0587-0.41616-13.823 2.2171-18.985 2.4245-4.6087 6.3751-6.9648 9.631-6.2364-0.72744 1.351-2.4936 4.5384-3.4987 6.8251-1.3162 3.0139-4.8852 11.71-4.8852 11.71s5.0933-8.0035 6.7903-10.844c1.3171-2.1478 2.911-5.4046 3.5342-6.7913 2.6326 1.9754 3.1181 6.3403 0.72768 10.983" fill="#fbbf08"/><path d="m167.94 80.24c-3.569-4.469-9.1116-7.1371-13.789-5.1271l-0.06936 0.03456-2.46 1.7326-0.06936 0.0684c-3.3254 3.6722-2.1478 9.389 1.4549 13.859 3.7764 4.7458 11.919 11.051 18.813 11.398l1.9745 0.10416 0.58968-1.7671c2.1826-6.6516-2.7713-15.729-6.4445-20.303" fill="#231f20"/><path d="m155.02 89.386c3.6377 4.5732 11.19 10.151 16.942 10.464 1.7664-5.4394-2.3906-13.65-6.0281-18.188-3.2916-4.1232-7.6913-5.6822-10.706-4.4006 0.97032 1.1784 3.361 3.9845 4.8158 6.0629 1.9061 2.7026 7.1719 10.602 7.1719 10.602s-6.6516-6.93-8.8697-9.389c-1.7316-1.9058-3.9487-4.8158-4.8845-6.029-2.1487 2.3906-1.7323 6.7567 1.559 10.879" fill="#fbbf08"/><path d="m144.97 93.786c1.1081-5.4739 4.8506-10.151 9.9778-10.29h0.06936l3.049 0.55416 0.10392 0.03456c4.6426 1.9061 6.271 7.5526 5.1619 13.027-1.2122 5.821-5.5781 14.898-11.606 18.051l-1.7326 0.90096-1.351-1.3858c-5.0578-5.0933-4.8506-15.279-3.6722-20.891" fill="#231f20"/><path d="m160.84 96.662c-1.1426 5.6129-5.3004 13.789-10.324 16.422-4.1578-4.1926-4.2271-13.269-3.0845-18.848 1.0397-5.0578 4.2274-8.28 7.5881-8.3494-0.3468 1.4551-1.1784 4.9538-1.5242 7.4138-0.45096 3.1874-1.4906 12.473-1.4906 12.473s2.7374-8.9729 3.569-12.091c0.65808-2.3906 1.3162-5.9597 1.559-7.4148 3.0487 1.2478 4.7465 5.37 3.7068 10.394" fill="#fbbf08"/><path d="m161.77 63.09c-4.469-3.6374-10.497-5.1619-14.586-2.3213l-0.10392 0.06936-2.009 2.1826-0.06936 0.10416c-2.4254 4.1923 0 9.5971 4.5036 13.269 4.7467 3.8803 14.101 8.4881 20.926 7.483l1.9406-0.27648 0.20712-1.8365c0.62352-6.9986-6.2016-14.898-10.809-18.674" fill="#231f20"/><path d="m151.17 74.592c4.5732 3.7426 13.199 7.7952 18.881 6.929 0.52032-5.6813-5.37-12.888-9.9432-16.629-4.123-3.361-8.7646-4.0538-11.433-2.1826 1.2132 0.93576 4.158 3.2222 6.0629 4.9884 2.46 2.2529 9.3545 8.9738 9.3545 8.9738s-8.0374-5.5087-10.775-7.4832c-2.0794-1.5252-4.92-3.9497-6.0626-4.9546-1.5938 2.7713-0.24288 6.9984 3.9149 10.358" fill="#fbbf08"/><path d="m141.3 77.988c-0.62424-5.5433 1.5245-11.052 6.3742-12.576l0.06936-0.0348 3.0835-0.31128 0.10392 0.0348c5.058 0.55416 8.3494 5.5087 8.9729 11.051 0.69384 5.8903-0.69288 15.764-5.4742 20.406l-1.3507 1.3519-1.7316-0.93552c-6.4445-3.4651-9.389-13.269-10.047-18.986" fill="#231f20"/><path d="m157.41 76.394c0.62352 5.682-0.7968 14.655-4.781 18.57-5.2661-2.8754-8.177-11.537-8.8003-17.219-0.58896-5.0926 1.4904-9.077 4.6423-10.082 0.10416 1.4897 0.4164 5.0587 0.8664 7.5187 0.55488 3.2213 2.46 12.368 2.46 12.368s-0.20832-9.3197-0.34704-12.576c-0.10296-2.4948-0.62328-6.0283-0.83064-7.518 3.3254 0.34608 6.2016 3.8458 6.7903 8.9383" fill="#fbbf08"/><path d="m152.76 47.673c-5.1283-2.7713-11.33-3.1867-14.794 0.3468l-0.06936 0.06936-1.5245 2.5294-0.03456 0.0684c-1.5245 4.5732 1.9397 9.4584 7.0678 12.23 5.4742 2.9803 15.591 5.821 22.104 3.6038l1.8365-0.62352-0.20808-1.8365c-0.76224-6.9638-9.0768-13.512-14.377-16.387" fill="#231f20"/><path d="m144.69 60.873c5.2322 2.8416 14.516 5.2658 19.956 3.4303-0.65808-5.717-7.8646-11.71-13.131-14.551-4.7455-2.5987-9.4236-2.4264-11.676-0.10416 1.3865 0.69288 4.7465 2.4254 6.9648 3.7764 2.8752 1.8007 10.982 7.1362 10.982 7.1362s-8.9726-3.9487-12.056-5.4038c-2.3906-1.109-5.6474-2.9794-6.9984-3.7423-0.97032 2.9803 1.2122 6.8952 5.9587 9.4584" fill="#fbbf08"/><path d="m132.98 62.536c-2.0438-5.2658-1.3855-11.087 2.911-13.685l0.0684-0.0348 2.911-1.0049h0.1032c5.0587-0.62352 9.5278 3.4303 11.571 8.6962 2.149 5.5781 3.3958 15.452-0.0684 21.065l-0.97032 1.6284-1.9049-0.52032c-7.1371-1.9397-12.543-10.775-14.621-16.145" fill="#231f20"/><path d="m148.16 57.305c2.0786 5.37 3.0142 14.377 0.138 19.089-5.8548-1.559-10.878-9.3197-12.957-14.69-1.8703-4.8161-0.90096-9.1464 1.9061-10.844 0.51936 1.4203 1.7316 4.8158 2.7713 7.1026 1.3855 2.9794 5.5781 11.433 5.5781 11.433s-2.5642-9.0074-3.5681-12.091c-0.76224-2.4254-2.1487-5.7516-2.7377-7.1374 3.3264-0.4152 6.9986 2.3213 8.8697 7.1374" fill="#fbbf08"/><path d="m139.81 33.988c-5.682-1.6284-11.814-0.69288-14.344 3.4642l-0.0348 0.10392-0.93552 2.7722v0.06936c-0.38064 4.8151 4.1578 8.7994 9.84 10.428 6.0281 1.7326 16.595 2.3906 22.38-1.1426l1.663-1.0397-0.65808-1.7326c-2.4242-6.6168-12.056-11.225-17.911-12.923" fill="#231f20"/><path d="m135.06 48.574c5.821 1.663 15.453 2.0446 20.268-0.90096-1.9742-5.4048-10.462-9.7351-16.249-11.398-5.2313-1.4897-9.7697-0.34704-11.433 2.3558 1.5593 0.4152 5.2313 1.3855 7.6913 2.2519 3.257 1.1436 12.438 4.6078 12.438 4.6078s-9.7003-1.9406-13.061-2.7029c-2.5642-0.58872-6.2016-1.6968-7.6913-2.1823-0.24192 3.1181 2.8058 6.4442 8.0371 7.9687" fill="#fbbf08"/><path d="m121.27 49.614c-3.3948-4.608-4.3651-10.359-0.9348-13.928l0.0696-0.06936 2.5284-1.663 0.10392-0.0348c4.7119-1.8365 10.151 1.0051 13.547 5.5781 3.6374 4.8506 7.5178 14.101 5.7506 20.371l-0.5196 1.8019-1.9752-0.03456c-7.4138-0.10416-15.07-7.3445-18.57-12.022" fill="#231f20"/><path d="m134.54 40.883c3.4642 4.6771 6.8249 13.131 5.369 18.396-6.0974-0.10392-13.096-6.3749-16.56-11.051-3.1529-4.1926-3.3955-8.5922-1.1438-10.914 0.8664 1.2478 2.9803 4.2271 4.6426 6.1678 2.1487 2.5632 8.5229 9.7003 8.5229 9.7003s-4.9884-8.0719-6.7903-10.844c-1.3858-2.113-3.6384-5.0239-4.6078-6.2016 3.0833-1.212 7.4136 0.52032 10.567 4.7467" fill="#fbbf08"/><path d="m123.42 23.352c-5.9587-0.31219-11.675 2.0091-13.061 6.6168v0.10416l-0.17232 2.91v0.06936c0.86616 4.7465 6.3055 7.5871 12.23 7.8646 6.3055 0.31224 16.699-1.4549 21.411-6.2016l1.3517-1.3507-1.0742-1.5593c-4.0538-5.8903-14.62-8.1411-20.684-8.4533" fill="#231f20"/><path d="m122.55 38.561c6.0626 0.27744 15.486-1.5245 19.436-5.4742-3.3262-4.8158-12.646-7.0678-18.709-7.3442-5.4742-0.27768-9.5626 1.8355-10.464 4.8842 1.5938 0.0348 5.4048 0.13872 8.0383 0.4164 3.4301 0.34584 13.235 1.663 13.235 1.663s-9.9094 0.31128-13.374 0.31128c-2.6323 0.0348-6.4442-0.24192-8.0381-0.34584 0.55512 3.0833 4.4006 5.6119 9.8748 5.8894" fill="#fbbf08"/><path d="m107.45 41.853c-4.8497-3.1877-7.8636-8.3148-5.9239-12.75l0.03456-0.1032 1.7674-2.3558 0.06936-0.06936c3.7762-3.257 9.9084-2.3561 14.793 0.8652 5.1629 3.3955 12.196 10.844 12.785 17.288l0.17352 1.8713-1.8367 0.58872c-7.0332 2.2867-16.837-2.0436-21.862-5.3352" fill="#231f20"/><path d="m116.73 29.38c4.9894 3.2916 11.226 10.186 11.745 15.556-5.7506 1.8703-14.586-1.7671-19.575-5.0239-4.469-2.9448-6.3394-7.6219-5.0578-10.532 1.2814 0.90096 3.9149 3.1529 6.6168 4.9538 4.2619 2.8068 11.538 6.3403 11.538 6.3403s-6.271-4.9193-10.325-8.0026c-2.5642-1.9406-5.2661-4.1578-6.5832-4.9548 2.46-2.113 7.1719-1.2816 11.641 1.6632" fill="#fbbf08"/><path d="m68.436 172.29c-3.673-4.4345-4.9546-10.151-1.7323-13.858l0.06936-0.0696 2.46-1.7671 0.06936-0.06936c4.6078-2.0436 10.221 0.52032 13.858 4.92 3.8803 4.6771 8.3146 13.72 6.8597 20.06l-0.41544 1.8367-1.9752 0.03456c-7.4138 0.27648-15.452-6.5832-19.194-11.087" fill="#231f20"/><path d="m81.186 162.9c3.7426 4.5036 7.5526 12.819 6.3751 18.12-6.0974 0.20712-13.408-5.717-17.15-10.221-3.361-4.0538-3.8458-8.4187-1.7316-10.844 0.9348 1.2132 3.2213 4.0884 4.9538 5.9597 2.2865 2.4245 9.042 9.2503 9.042 9.2503s-5.4046-7.83-7.3442-10.498c-1.5245-2.0438-3.9151-4.8158-4.9548-5.9935 3.0142-1.3171 7.4494 0.17256 10.809 4.2264" fill="#fbbf08"/><path d="m51.564 162.77c-2.3222-5.1619-1.9754-10.982 2.1478-13.789l0.10392-0.06936 2.8406-1.1081 0.10416-0.03456c4.9894-0.8664 9.7003 2.9794 12.022 8.1065 2.46 5.4742 4.2271 15.279 1.109 21.065l-0.90096 1.6632-1.9051-0.4152c-7.241-1.5948-13.13-10.151-15.521-15.418" fill="#231f20"/><path d="m66.461 156.81c2.3558 5.2661 3.7762 14.205 1.1784 19.056-5.9249-1.2826-11.364-8.7658-13.754-14.032-2.1487-4.7465-1.3865-9.1126 1.3164-10.914 0.58872 1.3858 1.9742 4.7119 3.1529 6.9638 1.559 2.8752 6.2014 11.121 6.2014 11.121s-3.0833-8.8687-4.2271-11.917c-0.9-2.3561-2.459-5.6129-3.1181-6.9638 3.2568-0.58968 7.1026 1.9397 9.2503 6.6862" fill="#fbbf08"/><path d="m76.266 154.97c-5.5433-2.01-11.745-1.4897-14.586 2.4946l-0.0348 0.1032-1.109 2.7029-0.03456 0.10392c-0.72744 4.7467 3.4997 9.0077 9.0422 11.017 5.8903 2.1478 16.387 3.4649 22.416 0.31224l1.7326-0.90096-0.51936-1.7664c-1.9061-6.7913-11.226-11.988-16.907-14.066" fill="#231f20"/><path d="m70.446 169.17c5.6822 2.0446 15.245 3.0833 20.303 0.45072-1.5936-5.5087-9.7349-10.394-15.383-12.438-5.1281-1.8365-9.7358-1.0049-11.571 1.5938 1.4897 0.51936 5.0923 1.7316 7.5178 2.7365 3.1181 1.351 12.057 5.4394 12.057 5.4394s-9.5278-2.5639-12.819-3.5681c-2.5294-0.7284-6.0629-2.1142-7.5178-2.6681-0.4848 3.0835 2.3213 6.6178 7.4136 8.4535" fill="#fbbf08"/><path d="m38.573 148.49c-0.93576-5.5435 0.9-11.122 5.6119-12.888l0.10392-0.0348 3.0487-0.45096h0.10416c5.0926 0.31224 8.6616 5.0935 9.5971 10.601 1.0042 5.8558 0.17256 15.799-4.3313 20.684l-1.3162 1.4203-1.7326-0.8664c-6.6516-3.1526-10.151-12.818-11.086-18.466" fill="#231f20"/><path d="m54.544 146.1c0.93456 5.6465 0.03456 14.655-3.7416 18.744-5.4394-2.599-8.8003-11.087-9.7361-16.734-0.86616-5.0935 0.97032-9.1471 4.0538-10.291 0.20808 1.4558 0.72744 5.0242 1.2816 7.4494 0.7632 3.1874 3.1529 12.23 3.1529 12.23s-0.69288-9.2849-1.0397-12.542c-0.24192-2.459-0.9348-5.9933-1.247-7.483 3.3264 0.20808 6.4097 3.5342 7.2761 8.6268" fill="#fbbf08"/><path d="m65.353 143.64c-4.5038-3.6722-10.498-5.1619-14.62-2.3213l-0.06936 0.0348-2.0438 2.2171-0.03552 0.06936c-2.4254 4.2271 0 9.6319 4.47 13.304 4.7803 3.8801 14.135 8.4881 20.961 7.483l1.9397-0.27648 0.17328-1.8713c0.65808-6.9638-6.1668-14.863-10.775-18.639" fill="#231f20"/><path d="m54.717 155.14c4.5732 3.7416 13.199 7.7952 18.881 6.929 0.55416-5.6813-5.3352-12.888-9.9084-16.629-4.1232-3.3958-8.7655-4.0538-11.467-2.2174 1.2468 0.9696 4.1916 3.2561 6.0626 4.9886 2.46 2.2865 9.3545 8.9736 9.3545 8.9736s-8.0035-5.4739-10.74-7.4494c-2.1142-1.5242-4.92-3.9487-6.0974-4.9536-1.56 2.7365-0.20808 6.9626 3.9149 10.358" fill="#fbbf08"/><path d="m29.634 132.62c0.312-5.5793 3.3262-10.706 8.3839-11.503h0.06936l3.0835 0.13872 0.10416 0.0348c4.92 1.2814 7.3452 6.6514 7.033 12.264-0.31224 5.9251-3.2916 15.452-8.8003 19.367l-1.5936 1.1093-1.5245-1.1438c-5.7852-4.3997-7.0678-14.516-6.7555-20.267" fill="#231f20"/><path d="m45.813 133.42c-0.34704 5.7168-3.2222 14.344-7.83 17.601-4.7467-3.6038-6.1322-12.576-5.82-18.259 0.27648-5.1619 2.9794-8.7648 6.27-9.2851-0.13776 1.4897-0.41544 5.0587-0.41544 7.5526 0.0348 3.2568 0.3816 12.576 0.3816 12.576s1.351-9.2503 1.7671-12.472c0.27672-2.46 0.38064-6.0629 0.41544-7.5526 3.2213 0.8316 5.5087 4.7119 5.2313 9.839" fill="#fbbf08"/><path d="m24.609 114.82c1.6632-5.4046 5.821-9.7349 10.914-9.4574l0.10392 0.0348 2.9794 0.7968 0.06936 0.03384c4.4693 2.2874 5.5783 8.0726 3.9497 13.443-1.7323 5.6822-6.929 14.378-13.235 17.011l-1.801 0.76224-1.2132-1.4897c-4.573-5.4742-3.4293-15.625-1.7671-21.134" fill="#231f20"/><path d="m40.2 119.01c-1.6968 5.4742-6.5822 13.269-11.848 15.487-3.7426-4.5038-2.9794-13.547-1.2826-19.02 1.4897-4.9548 4.9894-7.8996 8.3158-7.7261-0.48576 1.4203-1.6296 4.8497-2.2183 7.2751-0.72744 3.1874-2.6323 12.334-2.6323 12.334s3.5333-8.6962 4.7117-11.78c0.86544-2.3558 1.8358-5.82 2.2174-7.2749 2.9446 1.5242 4.2271 5.7506 2.7365 10.705" fill="#fbbf08"/><path d="m56.137 128.36c-3.4997-4.5384-8.9726-7.2761-13.685-5.37l-0.06936 0.03456-2.4948 1.698-0.06936 0.06936c-3.3955 3.6026-2.3213 9.3881 1.1774 13.893 3.707 4.8151 11.71 11.294 18.605 11.744l1.9752 0.13872 0.62352-1.7662c2.2865-6.6526-2.4948-15.799-6.0629-20.441" fill="#231f20"/><path d="m43.041 137.3c3.569 4.6078 10.983 10.394 16.734 10.775 1.9058-5.4394-2.1132-13.719-5.6822-18.327-3.2222-4.1578-7.5526-5.82-10.636-4.573 0.97032 1.1774 3.2916 4.0536 4.7119 6.132 1.8713 2.7367 6.9638 10.74 6.9638 10.74s-6.479-7.033-8.6616-9.5616c-1.6978-1.9058-3.8803-4.8852-4.7803-6.0974-2.1835 2.3561-1.8713 6.7558 1.35 10.913" fill="#fbbf08"/><path d="m23.12 97.285c2.7029-4.9546 7.6913-8.4881 12.611-7.2749h0.10416l2.771 1.351 0.06936 0.03456c3.9151 3.0835 3.8458 8.869 1.1438 13.858-2.8752 5.3006-9.7358 12.888-16.457 14.343l-1.906 0.4164-0.9-1.6632c-3.3956-6.2362-0.2081-15.971 2.5631-21.065" fill="#231f20"/><path d="m37.566 104.18c-2.7713 5.0935-9.1462 11.884-14.758 13.096-2.7722-5.0923-0.17345-13.823 2.5641-18.916 2.4936-4.5732 6.5126-6.8249 9.7349-6.0629-0.76224 1.3164-2.5639 4.4345-3.6026 6.721-1.3867 2.9794-5.1283 11.641-5.1283 11.641s5.2661-7.9339 6.9986-10.705c1.3507-2.1487 3.0139-5.37 3.673-6.7219 2.5632 2.01 2.9794 6.3749 0.5184 10.948" fill="#fbbf08"/><path d="m49.624 110.69c-2.5987-5.0242-7.518-8.5922-12.473-7.4842h-0.1032l-2.7722 1.2826-0.06936 0.06936c-3.9842 2.9794-4.019 8.8339-1.4203 13.858 2.7713 5.3354 9.4922 13.026 16.179 14.586l1.9051 0.48456 0.93552-1.6632c3.4997-6.1668 0.48576-15.971-2.1823-21.133" fill="#231f20"/><path d="m35.073 117.38c2.6681 5.1281 8.9033 12.023 14.482 13.339 2.8762-5.0587 0.45072-13.823-2.2174-18.985-2.3906-4.6087-6.3749-6.9648-9.5962-6.2364 0.72744 1.351 2.459 4.5384 3.4987 6.8251 1.3162 3.0139 4.8854 11.71 4.8854 11.71s-5.0935-8.0035-6.7903-10.844c-1.3174-2.1478-2.911-5.4046-3.5693-6.7913-2.5987 1.9754-3.0833 6.3403-0.69264 10.983" fill="#fbbf08"/><path d="m25.13 80.24c3.5681-4.469 9.1116-7.1371 13.754-5.1271l0.10392 0.03456 2.459 1.7326 0.07032 0.0684c3.2916 3.6722 2.1132 9.389-1.4549 13.859-3.7771 4.7458-11.918 11.051-18.813 11.398l-1.9753 0.10416-0.58874-1.7671c-2.1825-6.6516 2.7712-15.729 6.4444-20.303" fill="#231f20"/><path d="m38.052 89.386c-3.6722 4.5732-11.191 10.151-16.942 10.464-1.8019-5.4394 2.3906-13.65 6.0281-18.188 3.2916-4.1232 7.6565-5.6822 10.705-4.4006-1.0042 1.1784-3.36 3.9845-4.8151 6.0629-1.9058 2.7026-7.1719 10.602-7.1719 10.602s6.617-6.93 8.8687-9.389c1.698-1.9058 3.9497-4.8158 4.8506-6.029 2.1826 2.3906 1.7674 6.7567-1.5242 10.879" fill="#fbbf08"/><path d="m48.099 93.786c-1.1429-5.4739-4.8852-10.151-9.9778-10.29h-0.10416l-3.0139 0.55416-0.10416 0.03456c-4.6771 1.9061-6.3055 7.5526-5.1619 13.027 1.2122 5.821 5.5774 14.898 11.606 18.051l1.6968 0.90096 1.3519-1.3858c5.0926-5.0933 4.8842-15.279 3.7068-20.891" fill="#231f20"/><path d="m32.232 96.662c1.1429 5.6129 5.3006 13.789 10.324 16.422 4.158-4.1926 4.2274-13.269 3.049-18.848-1.0397-5.0578-4.2264-8.28-7.5526-8.3494 0.3468 1.4551 1.1436 4.9538 1.4897 7.4138 0.48552 3.1874 1.5242 12.473 1.5242 12.473s-2.7365-8.9729-3.6026-12.091c-0.65904-2.3906-1.2816-5.9597-1.559-7.4148-3.049 1.2478-4.7119 5.37-3.6722 10.394" fill="#fbbf08"/><path d="m31.262 63.09c4.5036-3.6374 10.497-5.1619 14.62-2.3213l0.06936 0.06936 2.0436 2.1826 0.0348 0.10416c2.4252 4.1923 0 9.5971-4.469 13.269-4.7465 3.8803-14.136 8.4881-20.961 7.483l-1.9397-0.27648-0.17342-1.8365c-0.65813-6.9986 6.2015-14.898 10.775-18.674" fill="#231f20"/><path d="m41.898 74.592c-4.573 3.7426-13.2 7.7952-18.881 6.929-0.555-5.6813 5.3354-12.888 9.9086-16.629 4.1568-3.361 8.7655-4.0538 11.467-2.1826-1.2478 0.93576-4.1578 3.2222-6.0629 4.9884-2.46 2.2529-9.3545 8.9738-9.3545 8.9738s8.0035-5.5087 10.74-7.4832c2.1132-1.5252 4.92-3.9497 6.0977-4.9546 1.5936 2.7713 0.20808 6.9984-3.9151 10.358" fill="#fbbf08"/><path d="m51.737 77.988c0.62352-5.5433-1.4897-11.052-6.3403-12.576l-0.10296-0.0348-3.0487-0.31128-0.10416 0.0348c-5.0587 0.55416-8.3851 5.5087-9.0084 11.051-0.65808 5.8903 0.6936 15.764 5.4739 20.406l1.3858 1.3519 1.6987-0.93552c6.4435-3.4651 9.4229-13.269 10.046-18.986" fill="#231f20"/><path d="m35.662 76.394c-0.65808 5.682 0.76224 14.655 4.7813 18.57 5.2658-2.8754 8.1413-11.537 8.7994-17.219 0.55488-5.0926-1.4897-9.077-4.6416-10.082-0.13872 1.4897-0.45096 5.0587-0.86616 7.5187-0.58968 3.2213-2.46 12.368-2.46 12.368s0.17232-9.3197 0.3468-12.576c0.1032-2.4948 0.58872-6.0283 0.79584-7.518-3.2906 0.34608-6.2006 3.8458-6.7555 8.9383" fill="#fbbf08"/><path d="m40.269 47.673c5.1629-2.7713 11.364-3.1867 14.828 0.3468l0.0348 0.06936 1.559 2.5294 0.03456 0.0684c1.5245 4.5732-1.9406 9.4584-7.1023 12.23-5.4394 2.9803-15.591 5.821-22.069 3.6038l-1.8713-0.62352 0.20808-1.8365c0.7968-6.9638 9.1116-13.512 14.377-16.387" fill="#231f20"/><path d="m48.377 60.873c-5.2668 2.8416-14.551 5.2658-19.956 3.4303 0.62448-5.717 7.8648-11.71 13.131-14.551 4.7119-2.5987 9.4238-2.4264 11.676-0.10416-1.4203 0.69288-4.7455 2.4254-6.9636 3.7764-2.8754 1.8007-10.982 7.1362-10.982 7.1362s8.9729-3.9487 12.056-5.4038c2.3561-1.109 5.6129-2.9794 6.9638-3.7423 1.0049 2.9803-1.2122 6.8952-5.9242 9.4584" fill="#fbbf08"/><path d="m60.087 62.536c2.0438-5.2658 1.3858-11.087-2.911-13.685l-0.10296-0.0348-2.8764-1.0049h-0.10392c-5.0578-0.62352-9.5616 3.4303-11.572 8.6962-2.1826 5.5781-3.3948 15.452 0.03456 21.065l1.0051 1.6284 1.9049-0.52032c7.1374-1.9397 12.542-10.775 14.621-16.145" fill="#231f20"/><path d="m44.877 57.305c-2.0784 5.37-2.9794 14.377-0.10392 19.089 5.821-1.559 10.844-9.3197 12.923-14.69 1.8703-4.8161 0.9-9.1464-1.9058-10.844-0.4848 1.4203-1.6978 4.8158-2.7713 7.1026-1.3865 2.9794-5.5435 11.433-5.5435 11.433s2.5642-9.0074 3.5335-12.091c0.76224-2.4254 2.1487-5.7516 2.7374-7.1374-3.2916-0.4152-6.9984 2.3213-8.8697 7.1374" fill="#fbbf08"/><path d="m53.261 33.988c5.6822-1.6284 11.814-0.69288 14.344 3.4642l0.03456 0.10392 0.90096 2.7722v0.06936c0.4152 4.8151-4.1232 8.7994-9.8054 10.428-6.0281 1.7326-16.595 2.3906-22.381-1.1426l-1.6632-1.0397 0.65904-1.7326c2.3906-6.6168 12.056-11.225 17.911-12.923" fill="#231f20"/><path d="m57.973 48.574c-5.7854 1.663-15.417 2.0446-20.232-0.90096 1.9742-5.4048 10.463-9.7351 16.249-11.398 5.2313-1.4897 9.7697-0.34704 11.397 2.3558-1.5233 0.4152-5.1955 1.3855-7.6903 2.2519-3.222 1.1436-12.403 4.6078-12.403 4.6078s9.6655-1.9406 13.026-2.7029c2.5987-0.58872 6.2016-1.6968 7.7258-2.1823 0.24192 3.1181-2.8406 6.4442-8.0726 7.9687" fill="#fbbf08"/><path d="m71.797 49.614c3.3948-4.608 4.3651-10.359 0.9348-13.928l-0.06936-0.06936-2.5284-1.663-0.10416-0.0348c-4.7119-1.8365-10.151 1.0051-13.582 5.5781-3.6029 4.8506-7.5178 14.101-5.7158 20.371l0.48456 1.8019 1.9754-0.03456c7.4484-0.10416 15.07-7.3445 18.605-12.022" fill="#231f20"/><path d="m58.528 40.883c-3.4649 4.6771-6.8606 13.131-5.37 18.396 6.0974-0.10392 13.061-6.3749 16.56-11.051 3.1181-4.1926 3.3958-8.5922 1.1438-10.914-0.90096 1.2478-3.0151 4.2271-4.6426 6.1678-2.1487 2.5632-8.5229 9.7003-8.5229 9.7003s4.9538-8.0719 6.7558-10.844c1.4203-2.113 3.6722-5.0239 4.6078-6.2016-3.0835-1.212-7.379 0.52032-10.532 4.7467" fill="#fbbf08"/><path d="m69.65 23.352c5.9578-0.31219 11.675 2.0091 13.026 6.6168l0.0348 0.10416 0.17352 2.91-0.0348 0.06936c-0.8316 4.7465-6.271 7.5871-12.23 7.8646-6.271 0.31224-16.699-1.4549-21.377-6.2016l-1.351-1.3507 1.0742-1.5593c4.0193-5.8903 14.586-8.1411 20.684-8.4533" fill="#231f20"/><path d="m70.515 38.561c-6.0629 0.27744-15.521-1.5245-19.436-5.4742 3.2916-4.8158 12.646-7.0678 18.709-7.3442 5.4742-0.27768 9.5626 1.8355 10.464 4.8842-1.5938 0.0348-5.4058 0.13872-8.0381 0.4164-3.4303 0.34584-13.235 1.663-13.235 1.663s9.9084 0.31128 13.339 0.31128c2.6674 0.0348 6.479-0.24192 8.0383-0.34584-0.55512 3.0833-4.4006 5.6119-9.84 5.8894" fill="#fbbf08"/><path d="m85.585 41.853c4.8864-3.1877 7.8996-8.3148 5.9599-12.75l-0.0348-0.1032-1.7671-2.3558-0.10416-0.06936c-3.7416-3.257-9.9084-2.3561-14.759 0.8652-5.1619 3.3955-12.195 10.844-12.818 17.288l-0.17352 1.8713 1.8713 0.58872c7.0332 2.2867 16.837-2.0436 21.826-5.3352" fill="#231f20"/><path d="m76.336 29.38c-4.9894 3.2916-11.226 10.186-11.745 15.556 5.7506 1.8703 14.586-1.7671 19.574-5.0239 4.47-2.9448 6.029-7.6567 4.781-10.567-1.2814 0.90096-3.7762 3.1877-6.3739 4.9886-4.1926 2.8762-11.503 6.3403-11.503 6.3403s6.3058-4.8497 10.29-8.0026c2.4948-1.9406 4.9884-4.1926 6.3058-4.9894-2.46-2.1132-6.8597-1.247-11.329 1.6978" fill="#fbbf08"/></g></svg>
