<?xml version="1.0" encoding="UTF-8"?>
<svg width="250pt" height="200pt" version="1.1" viewBox="0 0 250 200" xmlns="http://www.w3.org/2000/svg">
<g>
<path d="m124.21 188.79c64.887 0 114.48-41.895 114.48-87.934 0-46.039-49.555-86.199-114.45-86.199-64.895 0-114.45 40.168-114.45 86.199 0 46.039 49.523 87.934 114.41 87.934z" fill="#034da2"/>
<path d="m124.21 183.48c60.371 0 110.42-39.66 110.42-82.68 0-45.219-51.754-80.77-110.39-80.797-60.848-0.03125-110.03 36.359-110.43 80.844-0.37891 42.004 49.582 82.633 110.39 82.633z" fill="#fff"/>
<path d="m230.66 100.85c0-41.691-47.641-75.492-106.41-75.492-58.773 0-106.41 33.801-106.41 75.492 0 41.695 47.641 75.492 106.41 75.492 58.77 0 106.41-33.797 106.41-75.492z" fill="#034da2"/>
<path d="m205.76 100.85c0-26.316-36.496-47.648-81.516-47.648-45.02 0-81.516 21.332-81.516 47.648 0 26.316 36.496 47.652 81.516 47.652 45.02 0 81.516-21.336 81.516-47.652z" fill="#fff"/>
<path d="m202.01 100.85c0-23.461-34.816-42.477-77.766-42.477-42.953 0-77.77 19.016-77.77 42.477 0 23.461 34.816 42.48 77.77 42.48 42.949 0 77.766-19.02 77.766-42.48z" fill="#034da2"/>
<path d="m200.68 100.85c0-22.668-34.223-41.047-76.434-41.047-42.215 0-76.434 18.379-76.434 41.047 0 22.672 34.219 41.047 76.434 41.047 42.211 0 76.434-18.375 76.434-41.047z" fill="#fff"/>
<path d="m114.54 100.85c0 3.2539-1.9766 5.8906-4.418 5.8906s-4.418-2.6367-4.418-5.8906c0-3.2539 1.9766-5.8906 4.418-5.8906s4.418 2.6367 4.418 5.8906z" fill="#ec1b23"/>
<path d="m142.88 99.961c-0.39062-3.2148-2.6602-5.3945-5.0664-4.8711-2.4102 0.51953-4.0469 3.5469-3.6562 6.7578 0.39062 3.2109 2.6602 5.3906 5.0703 4.8711 2.4102-0.52344 4.043-3.5469 3.6523-6.7578z" fill="#ec1b23"/>
<path d="m112.54 69.027c-1.332 1.9844-6.0859 16.18-7.2109 19.945-3.5 13.082-6.8711 26.023-9.8086 39.359-0.73828 2.0039-1.6914 5.2227-3.4688 5.0781-1.9102-0.37891-7.8086-2.293-8.8711-2.6797s-1.2109-1.3477-1.2109-1.3477c-1.9844-6.0117-2.3477-8.9648-4.2852-15.539-2.7422-9.457-7.2852-19.812-13.352-29.438-0.52734-1.3555-0.67188-3.1602 0.44922-4.0156 4.2734-3.0664 8.1836-5.1914 12.09-6.9258 1.4531-0.62891 2.4922-0.046875 2.8438 1.4844 0.66016 2.9141 1.2344 5.4492 1.8516 10.312 1.3711 7.1562 2.2656 12.934 6.082 19.93 0.60156 0.78516 1.3125 0.14453 1.6719-1.0703 1.8008-5.168 6.1484-25.613 7.2383-34.625 0.39453-3.1562 5.7031-3.2773 8.8438-3.8008 1.8672-0.29687 4.6445-0.56641 5.6797-0.65234 1.7383-0.14453 2.6211 2.2578 1.457 3.9844z" fill="#ec1b23"/>
<path d="m116.51 64.629c3.0234-0.14453 4.8242-0.15234 7.7344-0.21484 3.1211 0.070313 5.6758 0.14453 8.125 0.29688 3.1562 0.17969 1.2773 6.2305 0.89062 8.9805-3.543 16.793-2.668 35.953-0.94531 53.465 0.41797 3.2773 1.5078 9.7852-0.76172 9.918 0 0-4.6172 0.16016-7.3164 0.17578l-7.457-0.21094c-2.7305-0.13672-1.0312-7.9961-0.67578-10.633 2.1641-17.324 3.7266-33.883-0.10547-52.723-0.41406-3.1211-2.5508-8.9141 0.51172-9.0547z" fill="#ec1b23"/>
<path d="m177.47 76.387c2.1836 1.2734 4.2773 2.1367 4.3164 7.7148-0.14844 5.1406 0.027344 13.918-1.1055 15.715-1.3242 1.7383-4.1602 1.5195-6.25 1.0352-1.2773-0.94531-1.7656-1.832-2.1914-2.9141-1.6328-4.3984-3.6602-11.168-8.1406-11.473-1.457-0.1875-4.4766-0.53125-5.1367 2.6211-0.63672 2.3906 0.10156 4.3242 1.4258 5.8281 2.2422 2.9922 5.5078-1.7695 7.3281 2.1133 0.66797 4.3555 0.45703 10.359 0.28125 13.957-0.32812 1.4961 0.035156 3.3086-1.8047 3.6172-3.0625-0.22656-6.8711-4.2109-9.1602 0.29688-0.90234 5.6875 0.22266 11.207-0.17578 16.766-0.027344 0.39063 0.066406 1.6172-1.3789 1.9805-1.1445 0.47266-6.0039 1.3047-9.0195 1.832-1.1016 0.17578-1.8516 0.23828-2.5781-0.33203-1.6875-2.3984-0.51172-6.1562 0.375-13.098 2.5547-22.246 0.92578-34.832-1.5391-51.293-0.16406-1.9023-0.66016-4.5898 1.1133-4.9531 7.2461 0.88672 22.652 4.4844 33.641 10.586z" fill="#ec1b23"/>
<path d="m131.91 69.527c-1.418 8.4883-2.2695 15.301-2.7422 22.746-0.94922 13.879 0 24.738 1.7422 39.086 0.082032 1.9609-0.5625 2.8789-1.4766 3.1328-3.2656 0.24609-6.5273 0.34375-10.578-0.003907-1.2773-0.054687-1.3125-1.7734-1.4414-3 1.6328-10.562 3.4297-29.492 2.6172-39.777-0.69922-7.3828-1.3594-15.379-3.0898-22.281-0.074218-1.0469-0.35156-2.1055 1.1367-2.1836 2.0547-0.37891 11-0.37891 12.637 0.015625 1.6016 0.38672 1.1953 2.2656 1.1953 2.2656z" fill="#fff"/>
<path d="m177.09 78.789c1.6016 0.92188 2.6719 2.4727 2.9648 4.4648-0.003906 5.0117-0.003906 10.883-0.67969 14.062-0.55078 1.4062-1.1719 1.2695-2.4492 1.3633-0.90625-0.12109-1.6328-0.19141-2.4961-1.3125-1.6953-4.3672-4.0547-11.266-8.4961-13.082-2.4844-0.66016-5.0508-1.3164-7.2539 1.2266-1.3633 1.8984-2.4141 3.6055-1.9062 7.2539 0.84375 2.3164 1.9805 4.4883 4.2539 5.4375 3.6211 0.85547 4.4492-1.7422 5.2109 1.3242 0.32422 4.2539 0.60938 9.7461-0.37891 11.5-1.3516 1.5977-3.3516-0.16406-4.9297-0.47656-1.8125-0.31641-3.75-0.11328-4.8828 1.8789-2.8281 6.0273-0.23438 18.363-1.9023 18.922l-0.53516 0.28125c-3.0898 0.67188-4.0039 0.82422-7.6094 1.2852-0.82812-0.38672-1.0391-2.7461-0.64453-5.1875 2.2109-13.832 2.7969-27.113 1.2578-40.984-0.42578-5.1133-0.78516-8.8984-1.5625-14.008-0.28516-1.9922-0.71094-4.2031 1.5625-3.8555l2.2773 0.39453c11.137 2.043 22.211 5.8281 28.199 9.5117z" fill="#fff"/>
<path d="m109.27 69.715c-0.45312 1.1289-1.9648 6.5352-3.4688 10.715-3.9766 13.895-7.2773 28.121-10.574 42.281-0.37109 1.2422-0.51172 2.0898-0.95703 3.5156-0.84375 1.7031-1.3672 4.7852-3.8867 4.1406-2.207-0.58984-2.9766-0.64453-5.8164-1.7422-1.2227-0.96875-1.6367-2.1211-2.0742-3.9727-1.0898-3.6211-1.6914-6-2.8789-10.68-2.3164-7.1836-6.7617-19.043-11.59-26.934-1.0234-2.0977-3.2656-4.1641-0.8125-5.668 3.082-2.2812 5.8945-3.2734 9.3008-5.1445 1.0898-0.39844 1.8828 0.74219 2.0234 1.9336 2.3633 16.891 5.8086 25.59 7.5703 29.637 0.53906 1.0898 1.1875 2.0898 2.3203 2.2188 1.2812-0.32812 2.2109-2.8203 2.6016-4.6211 1.4141-4.4219 6.5312-26.75 7.418-34.051 0.32422-2.3945 3.0898-2.3984 4.082-2.5586 1.4961-0.22656 2.4883-0.38672 3.7656-0.53906 2.9062-0.33984 3.7539-0.46094 2.9766 1.4688z" fill="#fff"/>
<path d="m127.58 82.398c-0.70703 8.8984-1.5586 21.203-0.85156 29.25 0.5 7.3828 0.6875 15.223 1.0703 16 0.21484 1.7031 0.28125 2.6523-0.71094 2.9375-2.3672 0.69922-3.6914 0.69922-6.0352-0.007813 0 0-1.207 0.10547-0.85156-2.9219 0.35156-3.0273 1.0078-9.668 1.582-15.93 0.96484-9.6094 0.47266-20.129-0.37891-29.312-0.34766-3.8086-1.3086-6.3828-1.1367-10.32 0.28516-2.4023 8.2461-2.0664 8.4492 0 0.42578 4.3398-0.78906 5.9219-1.1367 10.305z" fill="#ec1b23"/>
<path d="m176.17 81.59c3.0156 2.0352 1.8125 9.3281 1.6719 11.031-0.019531 1.4023-0.21484 2.5586-1.0859 2.5156l-0.73047-0.19141c-1.6602-3.7461-3.5977-9.5039-7.332-12.039-3.1133-2.5078-7.0391-3.2578-10.707-1.2188-2.5039 2.2266-4.2031 6.0039-3.9297 10.41 0.53906 5.0273 3.2266 8.5742 6.9453 9.6719l2.2891 0.40625c1.3516 0.28906 1.1367 4.6445 0.17578 4.7852-1.2422 0.13672-2.3672-0.57422-3.5586-0.71094-3.5039-0.19531-5.2773 2.4531-6.7188 6.4062-1.3281 5.3242-0.86328 9.5781-0.83594 14.734-0.5625 1.3789-2.6445 1.4766-4.1914 1.5312-0.62891-0.5625-0.53516-1.4453-0.37891-2.6719 1.5195-11.672 2.5391-22.605 1.6172-34.395-0.33984-6.0781-1.5039-11.363-1.7305-17.512 0.26172-0.80469-0.53906-2.0156 1.6289-1.6289 6.5352 0.87891 19.172 4.7617 26.871 8.875z" fill="#ec1b23"/>
<path d="m105.36 73.125c-1.0273 4.1914-2.2266 7.668-3.3281 11.668-2.1211 7.2305-3.4414 12.91-5.4766 20.793-1.6055 6.5117-2.9336 12.137-4.5859 18.496-0.64844 2.5156-1.8359 2.6211-3.1523 2.2578-1.5234-0.44141-3.1914-0.39453-3.8281-2.4766-3.4297-13.41-7.0703-24.328-13.227-35.551-0.42188-1.1602-2.4492-3.293-1.5508-4.9961 1.0039-0.91016 2.8867-2.0977 5.0547-2.9023 0.85156-0.14453 0.98047 1.0898 1.1172 1.6953 0.95703 4.3789 2.2227 9.8516 3.4023 13.836 1.9883 6.0859 3.3984 12.523 6.5938 17.984 0.85938 1.1875 1.1406 2.0664 2.6172 1.9531 2.2148-1.8633 2.7891-4.4219 3.8008-7.8359 0.96094-3.8164 6.7812-26.633 8.1992-34.672 0.67188-2.0547 5.0039-2.4336 4.3633-0.25z" fill="#ec1b23"/>
<path d="m68.426 54.133c0.25 0.96094 1.0547 2.6484 3.4414 1.6367 1.2969-0.55469 2.6289-1.5781 2.1914-3.4219-0.32422-1.3633-1.3945-1.3047-2.8828-1.1523l-1.5078 0.16016c-2.2695 0.24219-4.457 0.48438-5.375-3.3555-0.46875-1.9375-0.5-5.7031 3.7344-7.5039 4.0039-1.7031 5.918 1.332 6.4453 3.4609l-2.6211 1.1133c-0.26172-0.74219-0.92187-2.5-3.3047-1.4844-1.0391 0.4375-2.1523 1.4766-1.7773 3.0586 0.32031 1.3633 1.2305 1.293 1.8164 1.2344l3.4336-0.3125c1.9258-0.17188 3.793 0.10156 4.543 3.2266 1.2578 5.2422-2.6406 7.4141-3.7852 7.8984-4.7734 2.0273-6.4688-1.2891-6.9883-3.4453z" fill="#fff"/>
<path d="m90.688 52.035l-2.8164 0.70312-2.0742-14.801-4.0781 1.0117-0.44141-3.1797 10.973-2.7305 0.44141 3.1797-4.0781 1.0117z" fill="#fff"/>
<path d="m105.98 49.309l-2.8516 0.37891-1.3516-18.211 2.8516-0.37891z" fill="#fff"/>
<path d="m118.67 48.316l-2.8672 0.078125-0.26953-18.297 9.7656-0.25391 0.042969 3.2305-6.8984 0.18359 0.0625 4.125 6.0352-0.16016 0.046876 3.2344-6.0391 0.16016z" fill="#fff"/>
<path d="m140.19 49.059l-2.8633-0.27344 0.80859-15.02-4.1406-0.39453 0.17578-3.2266 11.129 1.0664-0.17578 3.2266-4.1328-0.39453z" fill="#fff"/>
<path d="m164.79 38.414l-7.1719-1.6953-0.50391 3.7852 6.5859 1.5586-0.42578 3.1875-6.5859-1.5586-0.625 4.6641 7.4961 1.7734-0.42578 3.1875-10.258-2.4336 2.4023-18.02 9.9375 2.3555z" fill="#fff"/>
<path d="m176.43 58.629l-2.7305-1.1484 3.3945-14.355-3.9531-1.6602 0.73047-3.0898 10.641 4.4766-0.72656 3.0898-3.9531-1.6602z" fill="#fff"/>
<path d="m81.648 153.39c0.94531-5.7461 4.1836-5.3242 5.3594-4.9766 2.5391 0.74219 4.2266 3.3242 3.6328 6.9141-0.5 3.0352-2.2305 4.1484-3.7109 4.9375-2.0273 1.1289-3.0742 1.6562-3.5039 2.3906l5.7461 1.6914-0.51172 3.0898-9.0508-2.6602c0.42969-2.0352 0.90234-4.1719 4.2344-6.1172 2.7734-1.6133 3.875-2.2266 4.2031-4.2188 0.19141-1.1641-0.14844-2.6797-1.4141-3.0508-1.8281-0.53906-2.2188 1.4609-2.4492 2.75z" fill="#fff"/>
<path d="m97.18 165v0.023438c0.027343 1.2656 0.56641 1.9023 1.3789 2.0469 1.1016 0.1875 2.3242-0.85547 2.707-4.6211l-0.03125-0.058594c-0.72656 1.1055-1.8008 1.2266-2.7109 1.0664-2.5781-0.45312-3.8164-3.3164-3.5195-6.3242 0.42969-4.3984 2.582-6.1016 5.2188-5.6406 4.6641 0.82031 4.0781 7.5273 3.8281 10.055-0.68359 6.9531-3.3672 8.7695-5.793 8.3477-2.293-0.40234-3.7656-2.4609-3.7148-5.3555zm2.1914-4.2695c0.92969 0.16016 2.0391-0.54297 2.25-2.6641 0.19922-2.0469-0.33594-3.4297-1.707-3.6641-0.67969-0.12109-1.957 0.12109-2.2148 2.6953-0.25781 2.7109 0.67188 3.4609 1.6719 3.6328z" fill="#fff"/>
<path d="m114.76 165.9l-5.3203-0.42969 0.15234-3.3125 5.3203 0.43359z" fill="#fff"/>
<path d="m129.84 156.59c-1.293 1.8906-4.6055 7.2617-4.9062 15.066l-2.7539 0.015625c0.26562-7.2383 3.6523-13.016 4.793-14.66l-6.7461 0.039062 0.042969-3.1562 9.5586-0.054687z" fill="#fff"/>
<path d="m139.98 165.37l-5.3242 0.47266-0.16406-3.3125 5.3242-0.46875z" fill="#fff"/>
<path d="m145.06 155.23l0.38281-0.070313c2.5547-0.46094 3.0586-2.3516 2.9805-3.6992l2.1797-0.39453 1.8242 17.93-2.6523 0.47656-1.2539-12.352-3.2031 0.57812z" fill="#fff"/>
<path d="m159.88 156.64l0.41016-0.11328c0.78516-0.21875 2.2109-0.72656 1.8477-3.0195-0.10547-0.65234-0.58203-2.2031-2.0234-1.8008-1.793 0.50391-1.4375 2.7695-1.3398 3.3906l-2.4297 0.67969c-0.52344-3.3164 0.50391-6.0781 3.4961-6.9102 1.7773-0.5 4.3047 0.042968 4.8945 3.7852 0.28516 1.793-0.37891 3.1562-1.0547 3.8086l0.003906 0.050781c0.49609 0.046875 2.1758 0.53906 2.6523 3.5547 0.53125 3.3359-0.94531 6.2305-3.6211 6.9805-1.2539 0.34766-4.6797 0.92188-5.5547-4.6133l2.5625-0.71875-0.019531 0.03125c0.14844 0.94531 0.67578 3.0352 2.4336 2.543 1.043-0.29297 1.8086-1.5 1.5039-3.4688-0.38281-2.4141-2.1523-2.0195-3.375-1.6797z" fill="#fff"/>
</g>
</svg>
