<svg xmlns="http://www.w3.org/2000/svg" xmlns:xlink="http://www.w3.org/1999/xlink" height="352.886" viewBox="0 0 53 66" width="283.378" xmlns:v="https://vecta.io/nano"><style><![CDATA[.B{fill:none}.C{stroke-miterlimit:3.864}.D{clip-path:url(#B)}.E{fill:#ffe667}.F{stroke-width:.296}.G{fill:#e70005}.H{stroke-width:.153}.I{clip-path:url(#A)}.J{stroke:#000}.K{stroke:#e70005}.L{stroke:#005187}]]></style><clipPath id="A"><use xlink:href="#D"/></clipPath><clipPath id="B"><path d="m70.647 169.297 17 22.47-20.923 28.326-20.923-28.374 16.988-22.451s2.095-.274 3.872-.274c1.479 0 3.986.303 3.986.303"/></clipPath><use xlink:href="#E" fill-rule="evenodd" class="E"/><use xlink:href="#E" class="B C H L"/><circle cx="26.478" cy="37.405" fill="#fff" r="26.094"/><circle cx="26.478" cy="37.405" r="26.094" class="B H L"/><path d="M1.348 37.542c0-13.84 11.219-25.06 25.06-25.06s25.061 11.22 25.061 25.06-11.22 25.061-25.061 25.061-25.06-11.22-25.06-25.061" fill="#005187"/><path d="M30.486 14.197l5.597 7.312 5.999.024v4.237h-2.731l8.712 11.659-18.822 25.48-5.607.015L4.797 37.38l8.858-11.655h-3.027v-4.249l6.196-.012 5.538-7.297s2.165-.283 4.003-.283c1.529 0 4.121.313 4.121.313" fill="#fff"/><use xlink:href="#D" x="-40.256" y="-154.354" class="E"/><g transform="translate(-40.256 -154.354)"><circle cx="66.511" cy="194.4" r="25.633" class="I"/><circle cx="66.511" cy="194.4" r="25.633" class="B F I J"/><use xlink:href="#F" class="E I"/><use xlink:href="#F" stroke-width=".083" class="B C I J"/></g><use xlink:href="#D" x="-40.256" y="-154.354" class="B C H J"/><path d="M30.391 14.943l17 22.47-20.923 28.326L5.545 37.365l16.988-22.451s2.095-.274 3.872-.274c1.479 0 3.986.303 3.986.303" class="E"/><g transform="translate(-40.256 -154.354)"><path d="m54.892 181.628v20.373l-4.706-5.866v-8.531z" class="D G"/><path d="m54.892 181.628v20.373l-4.706-5.866v-8.531z" class="B C D F K"/><path d="m59.419 175.709v33.11l4.71 6.018-.002-45.363z" class="D G"/><path d="m59.419 175.709v33.11l4.71 6.018-.002-45.363z" class="B C D F K"/><path d="m78.532 181.694v20.148l4.626-5.767v-8.434z" class="D G"/><path d="m78.532 181.694v20.148l4.626-5.767v-8.434z" class="B C D F K"/><path d="m74.028 175.737v32.977l-4.674 6.172-.084-45.546z" class="D G"/><path d="m74.028 175.737v32.977l-4.674 6.172-.084-45.546z" class="B C D F K"/></g><path d="M30.391 14.943l17 22.47-20.923 28.326L5.545 37.365l16.988-22.451s2.095-.274 3.872-.274c1.479 0 3.986.303 3.986.303z" class="B C H L"/><g class="G"><path d="M25.463 4.334a1.01 1.01 0 1 1 1.01 1.01 1.01 1.01 0 0 1-1.01-1.01m-8.248 1.045a1.01 1.01 0 1 1 2.02 0 1.01 1.01 0 1 1-2.02 0"/><use xlink:href="#G"/><use xlink:href="#G" x="8.42" y="5.204"/><use xlink:href="#G" x="-25.161" y="5.204"/><path d="M26.4 11.822l-2.382.92 2.386 1.086 2.395-1.061z"/></g><path d="M15.769 13.88l-1.895 1.713 2.616.159 1.857-1.849zm21.211 0l1.895 1.713-2.617.159-1.856-1.849z" fill="#005187"/><path d="M18.738 31.582c-.797-.496-1.46-.689-2.345-.689-3.253 0-5.62 2.837-5.62 6.722 0 3.663 2.411 6.556 5.465 6.556.907 0 1.593-.193 2.5-.689v-3.746c-.575.551-1.151.826-1.792.826-1.483 0-2.478-1.239-2.478-3.058 0-1.708 1.04-2.975 2.433-2.975.642 0 1.151.221 1.837.799zm23.425 2.27v-2.793h-7.471v13.08h3.384v-5.386h3.715V35.96h-3.715v-2.108zM10.99 21.838l-.001 3.544 7.03-.009 8.335 28.901 8.051-28.901h7.292v-3.535h-9.916l-5.34 19.509-5.379-19.509z"/><path d="M17.526 16.419l.717 1.126-.051.973.768-.051 2.1-3.059z" class="E"/><path d="M17.526 16.419l.717 1.126-.051.973.768-.051 2.1-3.059z" stroke-width=".141" class="B C J"/><defs ><path id="D" d="M59.222 173.648c-2.534-.043-4.755-1.438-5.922-3.493-.105-.189-.142-.416-.142-.647 0-.513.285-.956.732-1.172a30.59 30.59 0 0 1 12.767-2.772 30.66 30.66 0 0 1 12.536 2.668l-.025.002c.436.208.764.663.764 1.193 0 .245-.105.552-.222.748-1.221 2.078-3.471 3.474-6.046 3.474l-.863.01z"/><path id="E" d="M26.439.609c.881 0 1.611.73 1.611 1.631 0 .266-.064.517-.177.739l.1-.003a1.63 1.63 0 0 1 0 3.261c-.334 0-.628-.107-.897-.278.011 1.857 1.495 3.352 3.339 3.352a3.34 3.34 0 0 0 3.246-2.555c-.246.076-.587.107-.869.042a1.63 1.63 0 1 1 .734-3.177l.055.013c-.06-.241-.066-.499-.006-.758a1.63 1.63 0 1 1 3.177.734 1.62 1.62 0 0 1-.338.681l.097.019a1.63 1.63 0 1 1-.733 3.177c-.282-.065-.529-.199-.729-.38l-.016.053c-.415 1.796.7 3.61 2.502 4.004 1.565.342 2.565-.105 3.09-.631a1.66 1.66 0 0 1-.768-.355 1.63 1.63 0 1 1 2.096-2.498l.419.387.945-1.608c.494-.753 1.249-.539 2.051-.028l1.249.862-2.347 2.441c.068.151.084.313.084.482 0 .794-.643 1.437-1.437 1.437-.23 0-.444-.011-.637-.108a5.88 5.88 0 0 1-5.102 1.215c-1.551-.358-2.816-1.297-3.62-2.533l.054-.069c-1.248.723-2.77.992-4.287.642-1.15-.265-2.143-.851-2.886-1.64a5.72 5.72 0 0 1-2.887 1.64c-1.517.35-3.017.16-4.265-.563l-.02.04c-.803 1.237-2.017 2.125-3.568 2.483a5.88 5.88 0 0 1-5.102-1.215c-.193.097-.406.108-.637.108-.793 0-1.436-.643-1.436-1.437 0-.169.015-.331.083-.482L6.261 7.293l1.249-.862c.801-.511 1.556-.725 2.051.028.29.442.373.608.944 1.608l.419-.387a1.63 1.63 0 1 1 2.096 2.498c-.23.193-.505.308-.768.355.526.526 1.526.973 3.091.631 1.801-.394 2.916-2.208 2.501-4.004l-.016-.053a1.62 1.62 0 0 1-.729.38 1.63 1.63 0 1 1-.733-3.177l.097-.019a1.63 1.63 0 0 1 .884-2.636 1.63 1.63 0 0 1 1.95 1.979l.054-.013a1.63 1.63 0 1 1 .734 3.177c-.282.065-.623.034-.869-.042a3.34 3.34 0 0 0 3.247 2.555c1.843 0 3.327-1.495 3.338-3.352-.269.171-.563.278-.896.278a1.63 1.63 0 1 1 0-3.261l.099.003c-.113-.222-.177-.473-.177-.739 0-.901.73-1.631 1.612-1.631z"/><path id="F" d="m52.776 168.505c.19.173-1.178 1.628.302 2.774 2.153 1.667 2.183-2.417 13.719-2.417 7.907 0 11.016 2.619 11.016 2.619l-1.324.334-1.194.096.287-.86-.382-.525-.525.621-.335.048-.286-.895-.382.799-.909.435 1.428 2c2.863-.155 6.119-2.824 6.119-4.076 0-2.181-7.231-4.174-13.663-4.174-6.097 0-14.061 3.047-13.871 3.221z"/><path id="G" d="M33.785 5.379a1.01 1.01 0 0 1 1.009-1.009 1.01 1.01 0 0 1 1.01 1.009 1.01 1.01 0 0 1-1.01 1.01 1.01 1.01 0 0 1-1.009-1.01"/></defs></svg>