<?xml version="1.0" encoding="utf-8"?>
<!-- Generator: Adobe Illustrator 13.0.2, SVG Export Plug-In . SVG Version: 6.00 Build 14948)  -->
<!DOCTYPE svg PUBLIC "-//W3C//DTD SVG 1.0//EN" "http://www.w3.org/TR/2001/REC-SVG-20010904/DTD/svg10.dtd">
<svg version="1.0" id="Ebene_1" xmlns="http://www.w3.org/2000/svg" xmlns:xlink="http://www.w3.org/1999/xlink" x="0px" y="0px"
	 width="531.974px" height="566.914px" viewBox="0 0 531.974 566.914" enable-background="new 0 0 531.974 566.914"
	 xml:space="preserve">
<path fill="#00722D" d="M523.91,311.544c-5.4-0.216-11.016-0.864-16.416-0.936c11.664-8.28,18.144-21.096,24.48-33.336
	c-6.696-2.088-13.464-4.464-20.52-4.968c1.944-8.136,2.088-16.56,2.448-24.912c-4.032,0.792-8.136,1.512-12.168,2.448
	c0.36-4.824-2.376-8.208-6.264-9.504c1.584-2.664,2.736-5.472,3.744-8.28c6.192-17.352,8.64-19.944,19.584-35.64
	c-7.488,1.872-15.408,3.6-22.824,5.832c-0.648-4.464-4.176-7.992-8.64-8.496c3.384-16.416-1.944-33.624-5.904-49.464
	c-10.584,20.808-9.648,20.664-23.616,35.712c-0.864-0.792-1.728-1.584-2.664-2.304c-17.352-14.328-20.232-17.784-33.408-36.648
	c-1.584,15.264-4.32,31.32-0.864,46.512c-12.384-1.8-22.968-6.768-34.2-11.808c-9.144-10.08-19.512-19.008-30.888-26.64l8.856-19.44
	c7.632-2.808,11.52-11.304,8.568-18.936l13.68-30.168l4.176,1.872l19.008-42.048L342.542,9.864l-13.176,29.16
	c-8.568-2.016-16.92-3.816-25.632-5.4V0h-83.808v33.624c-8.712,1.584-17.064,3.384-25.632,5.4l-13.248-29.16l-67.464,30.528
	L132.59,82.44l4.176-1.944l13.68,30.24c-2.952,7.632,0.936,16.128,8.568,18.936l8.856,19.512
	c-28.44,19.08-50.76,46.656-63.288,79.056C81.11,188.208,8.678,207.432,2.774,238.68c-4.68,24.552-7.344,60.696,25.56,66.96
	c6.192,94.176,59.544,170.424,151.776,205.488c-10.368,4.608-20.952,9.576-30.312,15.984c-29.592,20.088,2.232,33.984,24.408,27.288
	c19.584-5.904,4.968-20.448,38.736-31.248c-0.216,20.016,3.888,32.112,18.792,37.08c24.624,8.208,44.28,10.8,65.592-3.6
	c12.528-8.496,21.024-19.584,25.92-32.616c22.752,11.448,52.776-1.656,74.16-9.792l-13.464-4.752l-1.08-0.36
	c13.176-2.232,25.344-7.488,37.656-12.456c-3.6-1.296-6.984-2.664-10.224-3.96c5.112-2.52,7.92-7.416,4.824-14.112
	c14.76-2.232,27.648-9.648,40.32-17.064c-9.576-6.264-19.08-12.528-30.096-16.056l13.32-0.072
	c12.96,6.984,35.136-2.52,25.272-16.416c17.064-6.696,28.728-19.8,39.528-33.768c-7.056-2.232-14.04-4.464-21.313-5.544
	c15.192-8.496,23.832-22.68,31.824-37.296c-4.536-0.648-9.072-1.44-13.68-1.872C511.238,340.848,517.646,324.504,523.91,311.544
	L523.91,311.544z M317.63,458.856c-2.52-2.952-5.544-5.544-8.856-7.776c7.416-2.16,14.544-4.824,21.456-7.848
	C327.782,447.336,324.686,451.008,317.63,458.856L317.63,458.856z M346.574,447.912c-0.864-3.816-1.8-7.632-2.808-11.448
	c6.48-3.6,12.672-7.632,18.648-12.024C358.166,432.72,353.774,439.704,346.574,447.912L346.574,447.912z M373.574,431.64
	c-1.08-4.392-2.304-8.856-3.456-13.32c7.92-6.624,15.192-13.968,21.744-21.888C384.95,407.736,377.75,419.4,373.574,431.64
	L373.574,431.64z M408.782,389.448l-0.072,2.016c-3.168-1.584-7.056-1.44-10.296-0.216l-0.576-2.592
	c6.12-8.28,11.448-17.136,15.912-26.424C411.374,371.232,409.358,380.376,408.782,389.448L408.782,389.448z M417.566,224.352
	l-0.648-1.584l1.512,1.08L417.566,224.352L417.566,224.352z M425.486,354.096l-4.608-9c0.648-1.728,1.224-3.528,1.728-5.256
	c0.792,4.68,1.944,9.288,3.744,13.824L425.486,354.096L425.486,354.096z M430.022,277.056c-0.288-3.96-0.72-7.92-1.224-11.808
	c1.728,2.448,3.672,4.896,6.048,7.128C433.118,273.888,431.534,275.472,430.022,277.056L430.022,277.056z M463.358,303.696
	c-0.792-0.936-1.584-1.8-2.448-2.664c0.864-0.144,1.728-0.288,2.592-0.504L463.358,303.696z"/>
<path fill="#FFDE00" d="M161.894,112.176c-2.16,1.152-2.88,3.888-1.728,5.976c1.224,2.088,3.888,2.808,5.976,1.656
	c29.088-16.416,62.208-25.056,95.688-25.056s66.6,8.64,95.688,25.056c2.088,1.152,4.752,0.432,5.904-1.656
	c1.224-2.088,0.504-4.824-1.656-5.976c-30.384-17.136-64.944-26.208-99.936-26.208C226.838,85.968,192.206,95.04,161.894,112.176z"
	/>
<path fill="#FFDE00" d="M261.83,96.624c-34.632,0-67.104,9.072-95.256,25.056l7.704,16.92
	c25.704-14.904,55.656-23.544,87.552-23.544s61.776,8.64,87.552,23.544l7.704-16.92C328.934,105.696,296.462,96.624,261.83,96.624z"
	/>
<path fill="#FFDE00" d="M174.998,140.256l4.032,8.856c24.264-14.328,52.56-22.608,82.8-22.608c30.168,0,58.536,8.28,82.8,22.608
	l4.032-8.856c-25.56-14.904-55.224-23.4-86.832-23.4S200.558,125.352,174.998,140.256z"/>
<polygon fill="#FFDE00" points="279.11,10.224 279.11,20.88 269.318,20.88 269.318,10.224 254.342,10.224 254.342,20.88 
	244.55,20.88 244.55,10.224 230.078,10.224 230.078,36.432 293.582,36.432 293.582,10.224 "/>
<path fill="#FFDE00" d="M261.83,41.472c7.416,0,14.688,7.272,15.12,43.488c5.184,0.36,10.224,0.936,15.264,1.656l-8.28-48.096
	h-44.208l-8.28,48.096c5.04-0.72,10.08-1.296,15.192-1.656C247.142,48.744,254.414,41.472,261.83,41.472z"/>
<path fill="#FFFFFF" d="M261.83,130.824c-87.768,0-158.904,71.136-158.904,158.904s71.136,158.976,158.904,158.976
	s158.904-71.208,158.904-158.976S349.598,130.824,261.83,130.824z"/>
<path fill="#00722D" d="M261.83,438.336c-82.08,0-148.608-66.528-148.608-148.608c0-82.008,66.528-148.536,148.608-148.536
	c82.008,0,148.536,66.528,148.536,148.536C410.366,371.808,343.838,438.336,261.83,438.336z"/>
<path fill="#009036" d="M261.83,143.64c-80.712,0-146.16,65.448-146.16,146.088c0,80.712,65.448,146.16,146.16,146.16
	s146.16-65.448,146.16-146.16C407.99,209.088,342.542,143.64,261.83,143.64z"/>
<path fill="#00722D" d="M261.83,413.064c-68.112,0-123.336-55.224-123.336-123.336c0-68.04,55.224-123.264,123.336-123.264
	c68.112,0,123.336,55.224,123.336,123.264C385.166,357.84,329.942,413.064,261.83,413.064z"/>
<path fill="#FFFFFF" d="M261.83,168.984c-66.672,0-120.744,54.072-120.744,120.744s54.072,120.744,120.744,120.744
	S382.574,356.4,382.574,289.728S328.502,168.984,261.83,168.984z"/>
<path fill="#00722D" d="M261.83,399.672c-60.696,0-109.872-49.248-109.872-109.944c0-60.624,49.176-109.872,109.872-109.872
	c60.696,0,109.872,49.248,109.872,109.872C371.702,350.424,322.526,399.672,261.83,399.672z"/>
<path fill="#D0C900" d="M198.182,512.424c-21.96,8.64-37.152,16.92-46.8,23.4c-5.328,3.672-7.272,7.848-4.032,10.008
	c10.728,7.128,29.736,2.016,31.464-2.592c3.816-10.296,11.376-19.656,21.672-22.968c3.312-1.08,6.912-2.52,11.016-3.96
	C207.11,515.16,202.718,513.864,198.182,512.424z"/>
<path fill="#D0C900" d="M477.974,300.456c-0.144,3.312-0.36,6.552-0.648,9.864c19.368,3.312,32.76-6.696,43.776-27.792
	c-6.912-2.16-13.392-2.664-19.296-1.512C496.694,291.816,488.414,297.936,477.974,300.456z"/>
<path fill="#D0C900" d="M463.142,224.424c6.048-40.896-19.224-37.8-36-61.632C424.118,193.032,436.07,213.552,463.142,224.424z"/>
<path fill="#D0C900" d="M462.206,225.072c-14.832-5.184-27.288-16.704-31.32-27.864c-9.144-1.368-19.368-1.44-30.744-6.48
	C412.958,218.088,433.694,229.536,462.206,225.072z"/>
<path fill="#D0C900" d="M465.23,216.072c14.328-12.024,18.864-28.512,13.68-49.536c-5.76,11.376-14.328,16.992-19.872,24.336
	C464.798,200.16,465.59,207.432,465.23,216.072z"/>
<path fill="#D0C900" d="M470.774,233.496c1.224,4.608,2.376,9.288,3.312,14.04c21.888-6.984,15.624-22.176,26.784-38.16
	C485.462,213.336,475.382,221.328,470.774,233.496z"/>
<path fill="#D0C900" d="M426.926,244.584c6.984,22.608,21.456,34.2,43.344,34.776c-0.144-3.816-0.432-7.632-0.864-11.376
	C459.974,249.264,444.278,255.384,426.926,244.584z"/>
<path fill="#D0C900" d="M470.558,287.352c-0.072-2.304-0.072-4.536-0.36-7.272c-7.056,0.432-14.976-1.656-23.832-6.264
	c-4.968,3.024-10.152,7.776-15.408,14.184C452.918,296.496,465.302,296.64,470.558,287.352z"/>
<path fill="#D0C900" d="M477.902,278.208c0.36,7.056,0.36,14.256,0.072,21.456c17.424-4.752,26.928-19.152,27.864-42.336
	C491.87,259.92,482.438,267.048,477.902,278.208z"/>
<path fill="#D0C900" d="M430.67,230.832c-5.184-1.296-9.792-0.504-10.368,1.8c-0.576,2.232,3.168,5.112,8.352,6.408
	c5.112,1.296,9.792,0.504,10.368-1.728C439.598,235.008,435.854,232.128,430.67,230.832z"/>
<path fill="#D0C900" d="M478.262,207.36c-3.312,4.104-4.536,8.64-2.736,10.152c1.8,1.44,5.976-0.72,9.288-4.896
	c3.384-4.104,4.608-8.64,2.808-10.152C485.822,201.024,481.646,203.184,478.262,207.36z"/>
<path fill="#D0C900" d="M489.278,258.048c3.888-3.528,5.76-7.776,4.176-9.504c-1.656-1.8-6.048-0.432-9.936,3.096
	c-3.888,3.456-5.688,7.704-4.104,9.504C480.998,262.944,485.462,261.504,489.278,258.048z"/>
<path fill="#D0C900" d="M489.134,313.344c-4.32,2.88-6.768,6.84-5.4,8.856c1.296,1.944,5.904,1.152,10.224-1.728
	c4.32-2.88,6.696-6.84,5.4-8.856C497.99,309.672,493.454,310.392,489.134,313.344z"/>
<path fill="#D0C900" d="M466.598,335.736c-1.296-21.168-11.16-33.984-31.608-40.968c3.96,27,13.248,41.616,30.384,47.016
	C465.806,339.768,466.238,337.752,466.598,335.736z"/>
<path fill="#D0C900" d="M495.254,320.616l-0.864,0.576c-3.24,2.16-6.696,3.384-9.144,3.312c-4.32,2.52-7.992,6.048-11.088,10.512
	c-1.08,6.048-2.376,11.952-3.888,17.784c22.536,1.728,30.384-10.224,41.76-33.48C505.622,319.032,500.078,319.464,495.254,320.616z"
	/>
<path fill="#D0C900" d="M455.15,375.048c1.008-2.376,1.944-4.752,2.808-7.2c2.808-19.296-10.368-42.768-28.872-52.56
	C427.142,343.944,434.414,365.328,455.15,375.048z"/>
<path fill="#D0C900" d="M465.014,370.008c-2.232,6.192-4.752,12.24-7.488,18.072c13.968,1.728,32.616-7.2,44.568-29.088
	C486.686,356.688,474.014,359.928,465.014,370.008z"/>
<path fill="#D0C900" d="M429.446,361.44c-2.232,1.152-2.232,5.688,0.072,10.08c2.304,4.32,6.048,6.84,8.352,5.688
	c2.304-1.224,2.232-5.76-0.072-10.152C435.494,362.736,431.75,360.216,429.446,361.44z"/>
<path fill="#D0C900" d="M426.926,421.488c4.32-5.04,8.208-10.224,11.808-15.624c-0.864-11.808-9.072-26.496-17.208-42.192
	C414.542,389.88,412.67,409.824,426.926,421.488z"/>
<path fill="#D0C900" d="M450.902,400.896c-4.464,7.848-9.504,15.408-15.12,22.536c16.344,6.192,39.456-3.384,55.008-23.544
	C478.766,396.072,462.782,396,450.902,400.896z"/>
<path fill="#D0C900" d="M405.398,415.152c2.88-0.576,4.464-4.752,3.456-9.288c-0.936-4.536-4.032-7.704-6.912-7.128
	c-2.88,0.648-4.392,4.824-3.456,9.36C399.422,412.632,402.518,415.8,405.398,415.152z"/>
<path fill="#D0C900" d="M449.03,431.28c-5.04,0.072-9.144,2.304-9.072,4.968c0,2.736,4.176,4.824,9.216,4.752
	c5.112-0.072,9.144-2.376,9.072-5.04C458.246,433.296,454.07,431.136,449.03,431.28z"/>
<path fill="#D0C900" d="M397.694,449.352c2.664-9.792,0.144-24.192-3.456-40.968c-13.824,24.048-21.456,39.672-11.736,51.768
	C387.686,456.768,392.798,453.168,397.694,449.352z"/>
<path fill="#D0C900" d="M390.134,465.624c10.512,10.584,31.464,7.632,50.832-3.744c-9.432-6.12-21.096-10.584-31.464-11.016
	C403.454,456.048,397.046,460.944,390.134,465.624z"/>
<path fill="#D0C900" d="M400.358,477.864c-4.896-1.008-9.432,0.216-9.936,2.88c-0.576,2.592,2.952,5.616,7.92,6.624
	c4.968,1.08,9.432-0.216,10.008-2.808C408.926,481.896,405.326,478.944,400.358,477.864z"/>
<path fill="#D0C900" d="M345.422,489.384c7.56,15.768,31.176,17.424,54.216,8.208c-11.592-4.392-21.816-14.688-31.32-18.936
	C360.686,482.616,353.126,486.144,345.422,489.384z"/>
<path fill="#D0C900" d="M348.662,478.8c5.904-2.736,11.736-5.688,17.424-8.856c4.464-8.568,4.176-20.592,0.288-35.28
	C357.806,452.736,332.174,466.056,348.662,478.8z"/>
<path fill="#D0C900" d="M320.726,493.416c2.232-2.448,9.216-3.816,12.168-2.952c10.8-8.424,10.512-24.696,5.112-45
	c-4.896,10.44-16.056,18.936-20.88,27.072c2.16,4.608,3.384,9.792,3.6,15.624V493.416z"/>
<path fill="#D0C900" d="M320.87,495.216c-0.144,5.976-0.72,11.664-1.872,17.064c12.312,13.32,36.792,10.368,56.304,2.88
	c-12.528-4.392-27.864-19.872-40.968-23.328C327.35,490.896,322.886,492.48,320.87,495.216z"/>
<path fill="#FFDE00" d="M319.646,488.232c-0.864-19.584-12.888-32.328-35.784-37.584c-8.64,1.44-13.032,1.224-22.032,1.224
	c-89.496,0-162.144-72.576-162.144-162.144c0-11.16,1.152-22.104,3.312-32.688c-0.576-58.752-85.68-47.952-91.728-16.056
	c-1.512,7.848-2.016,16.488-2.376,25.776c-0.504,13.032,3.024,21.744,10.224,26.784c11.952-8.064,8.208-32.544,6.48-41.76
	c4.392-0.288,8.712-0.144,13.104-0.072c0.36-2.088,0.864-4.032,1.584-5.976c1.656-1.296,2.736-1.152,3.816,0.648
	c-4.536,20.232-7.416,36.36-7.272,57.384c6.048,102.816,69.696,183.456,180.36,210.384c22.608,5.256,44.208,5.688,62.496,4.176
	c1.512,0.504,1.728,0.792,1.944,1.08c0.216,1.728,0.072,2.304-0.072,2.952l-9.648,0.576l-0.072,20.088
	c-10.008-9.576-29.736-18.288-42.696-8.064c-8.208,6.48-3.672,14.688,5.328,17.64c23.76,7.992,40.104,9.576,57.96-2.52
	C312.878,536.256,320.87,515.088,319.646,488.232z"/>
<path fill="#FFDE00" d="M268.022,522.864c-12.888,0.36-28.584-0.144-45.576-3.168c-0.648,6.912-0.504,12.384,0.36,16.344
	c7.632-12.456,28.872-12.168,45.144-1.08C267.95,530.784,268.166,527.256,268.022,522.864z"/>
<path fill="#FFDE00" d="M30.278,255.888c1.08,10.296,1.152,19.152,0,26.28c-1.728,5.544-3.744,10.44-6.12,12.96
	c2.736,1.152,5.976,1.8,9.648,1.944c-0.36-10.872,1.656-24.408,4.464-41.4C35.606,255.528,32.942,255.6,30.278,255.888z"/>
<path fill="#00722D" d="M62.678,272.736c2.376,0.144,4.392-0.36,6.048-1.584c1.224-0.792,2.592-2.448,4.32-4.752
	c0.144-0.216,0.288-0.432,0.432-0.648c2.448-3.384,4.392-5.04,5.904-4.896c1.152,0.072,2.016,0.648,2.592,1.656
	c0.576,0.936,0.792,1.944,0.648,3.168c-0.144,2.16-1.296,4.464-3.528,6.84l4.896,0.288c1.584-2.088,2.376-4.392,2.592-6.696
	c0.144-2.448-0.432-4.608-1.656-6.336c-1.368-1.872-3.312-2.952-5.76-3.096c-2.088-0.144-4.032,0.576-5.832,2.088
	c-0.864,0.792-2.232,2.448-4.104,4.968c-1.296,1.656-2.088,2.736-2.52,3.168c-1.152,1.08-2.376,1.584-3.6,1.44
	c-1.296-0.072-2.304-0.648-2.88-1.656c-0.576-0.936-0.792-2.088-0.72-3.384c0.216-2.736,1.872-5.256,4.968-7.632l-5.688-0.36
	c-2.088,2.16-3.24,4.824-3.456,7.92c-0.144,2.52,0.432,4.608,1.656,6.408C58.358,271.512,60.302,272.52,62.678,272.736z"/>
<polygon fill="#00722D" points="58.574,282.168 68.006,281.952 68.294,295.416 72.182,295.344 71.966,281.88 81.11,281.736 
	81.326,295.56 85.142,295.488 84.854,277.416 54.614,277.92 54.974,296.496 58.862,296.424 "/>
<polygon fill="#00722D" points="83.126,324.936 87.014,324.72 85.142,298.224 81.254,298.512 82.046,309.6 55.838,311.4 
	56.126,315.72 82.334,313.848 "/>
<path fill="#00722D" d="M72.974,354.888l19.08-3.384l-0.72-4.176l-19.008,3.312c-2.376,0.432-4.32-0.144-5.976-1.656
	c-1.44-1.368-2.376-3.24-2.808-5.616c-0.576-3.096,0.072-5.688,1.8-7.776c0.936-1.152,2.88-1.944,5.832-2.448l17.136-3.024
	l-0.792-4.248l-17.208,3.096c-1.944,0.288-3.384,0.648-4.32,1.008c-1.512,0.576-2.664,1.44-3.672,2.52
	c-2.664,3.168-3.6,6.984-2.808,11.52c0.648,3.672,2.088,6.48,4.392,8.496C66.422,354.744,69.446,355.536,72.974,354.888z"/>
<polygon fill="#00722D" points="101.054,342.288 100.334,338.472 92.198,335.304 92.558,337.608 "/>
<path fill="#00722D" d="M80.39,381.528c1.944-0.648,3.312-1.872,4.176-3.6c0.792-1.584,1.08-3.384,0.792-5.544
	c2.088,2.448,4.608,3.096,7.488,2.088c2.52-0.936,4.104-2.52,4.752-4.68c0.576-1.944,0.36-4.248-0.576-6.912l-3.024-8.28
	L65.63,364.896l3.528,9.864c1.008,2.736,2.376,4.68,4.248,5.976C75.494,382.248,77.87,382.464,80.39,381.528L80.39,381.528z
	 M91.766,359.928l1.44,3.888c1.224,3.312,0.504,5.472-2.16,6.408c-3.024,1.152-5.256-0.36-6.768-4.464l-1.008-2.736L91.766,359.928
	L91.766,359.928z M70.742,367.632l8.856-3.24l1.728,4.752c1.512,4.248,0.792,6.912-2.232,7.992c-2.88,1.008-4.968-0.36-6.408-4.104
	L70.742,367.632z"/>
<path fill="#00722D" d="M105.806,384.192l-32.832,2.088l1.944,3.96l9.72-0.648l5.832,11.52l-6.192,7.488l2.088,3.96l20.88-25.56
	L105.806,384.192L105.806,384.192z M93.134,397.728l-4.248-8.352l11.808-0.864L93.134,397.728z"/>
<polygon fill="#00722D" points="116.894,402.624 114.446,399.024 89.462,415.944 99.902,431.424 103.07,429.264 95.078,417.312 "/>
<polygon fill="#00722D" points="119.342,433.8 111.782,425.376 109.118,427.752 116.678,436.176 "/>
<path fill="#00722D" d="M140.942,440.28c1.728-2.016,2.592-4.248,2.448-6.552c-0.072-2.376-1.152-4.464-3.24-6.192
	c-1.8-1.656-4.248-2.592-7.272-2.808l-3.384,3.888c3.384-0.288,5.904,0.216,7.56,1.656c1.224,1.08,1.8,2.304,1.872,3.672
	c0,1.368-0.504,2.592-1.584,3.816c-1.656,1.944-4.824,3.456-9.504,4.608c-1.44,0.36-3.744,0.864-6.984,1.512
	c-3.024,0.576-5.328,1.08-6.984,1.512l14.472,12.528l2.88-3.24l-8.568-7.488c4.248-0.648,7.488-1.296,9.792-2.016
	C136.262,444.024,139.142,442.368,140.942,440.28z"/>
<path fill="#00722D" d="M160.886,449.784c0.576-4.032-0.576-6.984-3.528-9c-2.952-1.944-6.192-1.944-9.648,0.144
	c-2.664,1.512-5.112,3.96-7.344,7.272s-3.528,6.48-4.032,9.504c-0.576,4.032,0.576,6.984,3.528,9
	c2.952,1.944,6.192,1.944,9.648-0.072c2.664-1.584,5.112-4.032,7.344-7.344S160.382,452.808,160.886,449.784L160.886,449.784z
	 M153.254,456.84c-1.584,2.376-3.168,4.176-4.68,5.4c-2.448,1.944-4.536,2.232-6.408,1.008c-1.8-1.224-2.304-3.312-1.368-6.264
	c0.504-1.872,1.584-4.032,3.168-6.336c1.584-2.376,3.168-4.176,4.68-5.4c2.448-1.944,4.608-2.304,6.408-1.08
	c1.872,1.224,2.304,3.312,1.44,6.336C155.918,452.376,154.838,454.536,153.254,456.84z"/>
<polygon fill="#00722D" points="156.782,466.344 166.862,471.528 168.518,468.288 158.438,463.176 "/>
<polygon fill="#00722D" points="174.494,483.768 178.454,485.28 189.254,457.056 185.294,455.544 "/>
<polygon fill="#00722D" points="197.03,491.112 201.134,492.264 208.982,463.032 204.806,461.952 "/>
<polygon fill="#00722D" points="214.31,486.576 225.47,488.592 226.118,485.064 214.958,483.048 "/>
<path fill="#00722D" d="M240.374,467.784c-2.808-0.216-5.112,0.432-7.056,2.016c-1.944,1.584-3.024,3.672-3.312,6.408
	c-0.216,2.52,0.432,4.752,1.872,6.624c1.44,1.8,3.456,2.88,5.976,3.096c1.368,0.072,3.024-0.216,5.04-1.008
	c-1.512,4.032-4.896,7.56-10.296,10.584l2.088,3.168c8.712-4.752,13.392-11.232,14.112-19.368c0.288-3.096-0.288-5.616-1.728-7.704
	C245.558,469.296,243.326,468.072,240.374,467.784L240.374,467.784z M244.478,478.584c-0.072,0.504-0.216,1.08-0.36,1.656
	l-0.072,0.144c-1.512,1.152-3.24,1.656-5.184,1.512c-1.44-0.144-2.592-0.72-3.456-1.8c-0.792-1.008-1.08-2.304-0.936-3.744
	c0.072-1.512,0.648-2.664,1.584-3.528c0.936-0.792,2.16-1.152,3.6-1.08c1.728,0.216,3.024,0.936,3.888,2.304
	C244.334,475.272,244.622,476.784,244.478,478.584z"/>
<rect x="259.67" y="469.44" fill="#00722D" width="4.248" height="30.24"/>
<path fill="#00722D" d="M293.438,482.832c-0.36-3.96-1.368-7.272-2.88-9.936c-2.088-3.456-4.824-5.04-8.424-4.752
	c-3.528,0.288-5.976,2.376-7.416,6.12c-1.08,2.88-1.44,6.336-1.08,10.296s1.296,7.272,2.88,9.936
	c2.016,3.456,4.824,5.04,8.352,4.752c3.6-0.288,6.048-2.376,7.416-6.12C293.366,490.248,293.726,486.792,293.438,482.832
	L293.438,482.832z M288.83,490.32c-0.648,3.024-2.088,4.608-4.32,4.824c-2.16,0.216-3.888-1.152-5.04-4.032
	c-0.72-1.8-1.224-4.104-1.512-6.912c-0.216-2.808-0.144-5.184,0.288-7.128c0.648-3.096,2.088-4.68,4.248-4.896
	c2.232-0.216,3.888,1.152,5.112,4.032c0.72,1.872,1.224,4.176,1.512,6.984C289.334,486,289.262,488.376,288.83,490.32z"/>
<path fill="#FFFFFF" d="M336.422,247.104c-1.584-1.944-17.136-20.592-19.152-23.04l-121.896,98.64
	c1.584,5.904,4.536,10.944,8.784,15.192c3.456,3.456,6.912,5.976,10.44,7.848l115.056-94.32
	C331.526,249.768,333.758,248.328,336.422,247.104z"/>
<path fill="#FFDE00" d="M241.238,327.168c6.048,3.456,13.104,5.472,20.592,5.472c7.488,0,14.544-2.016,20.592-5.472
	c-7.2-3.96-13.536-5.616-20.592-5.616S248.438,323.208,241.238,327.168z"/>
<path fill="#FFDE00" d="M286.742,290.88c0,11.52-2.736,22.464-7.488,32.184c1.296,0.576,2.592,1.152,3.888,1.872
	c7.272-9.432,11.664-21.24,11.664-34.056c0-2.592-0.216-5.112-0.576-7.488l-7.488,6.12
	C286.742,289.944,286.742,290.448,286.742,290.88z"/>
<path fill="#FFDE00" d="M244.406,258.84c-1.296-0.576-2.592-1.224-3.888-1.872c-7.272,9.36-11.664,21.168-11.664,33.912
	c0,0.648,0,1.224,0.072,1.8l8.136-6.624C237.71,276.408,240.302,267.192,244.406,258.84z"/>
<path fill="#FFDE00" d="M295.598,282.312c0.432,2.736,0.648,5.616,0.648,8.568c0,13.104-4.392,25.128-11.808,34.776
	c0.072,0.072,0.144,0.072,0.216,0.144c11.376-7.488,18.864-20.304,18.864-34.92c0-4.68-0.792-9.072-2.232-13.32L295.598,282.312z"/>
<path fill="#FFDE00" d="M227.414,290.88c0-12.96,4.392-25.056,11.808-34.632c-0.072-0.072-0.144-0.144-0.216-0.144
	c-11.376,7.416-18.864,20.304-18.864,34.776c0,2.808,0.288,5.544,0.792,8.208l6.552-5.256
	C227.414,292.896,227.414,291.888,227.414,290.88z"/>
<path fill="#FFDE00" d="M262.622,262.584v2.88l3.744-3.096C265.142,262.512,263.918,262.584,262.622,262.584z"/>
<path fill="#FFDE00" d="M262.622,319.32c2.664,0,5.112,0.288,7.632,0.792c1.512-6.336,2.52-12.888,3.024-19.584l-10.656,8.784
	V319.32z"/>
<path fill="#FFDE00" d="M253.406,320.112c2.52-0.504,5.04-0.792,7.704-0.792v-8.784l-8.352,6.84
	C252.974,318.312,253.19,319.176,253.406,320.112z"/>
<path fill="#FFDE00" d="M261.11,262.584c-2.664-0.072-5.184-0.288-7.704-0.792c-1.008,4.248-1.8,8.568-2.376,13.032l10.08-8.136
	V262.584z"/>
<path fill="#FFDE00" d="M271.694,320.472c2.088,0.432,4.104,1.152,6.192,2.016c4.752-9.576,7.344-20.232,7.344-31.608
	c0-0.072,0-0.144,0-0.216l-10.368,8.568C274.358,306.504,273.35,313.56,271.694,320.472z"/>
<path fill="#FFDE00" d="M251.966,320.472c-0.216-0.72-0.288-1.368-0.432-2.016l-4.176,3.384
	C248.87,321.264,250.382,320.832,251.966,320.472z"/>
<path fill="#FFDE00" d="M251.966,261.432c-2.088-0.504-4.104-1.152-6.192-2.016c-3.888,7.776-6.336,16.344-7.128,25.344
	l10.728-8.568C249.95,271.152,250.814,266.256,251.966,261.432z"/>
<path fill="#FFDE00" d="M261.83,249.264c-7.488,0-14.544,2.016-20.592,5.472c7.2,3.888,13.536,5.616,20.592,5.616
	c2.808,0,5.4-0.288,8.064-0.864l8.424-6.84C273.278,250.488,267.662,249.264,261.83,249.264z"/>
<path fill="#FFFFFF" d="M252.614,366.12c-1.8-1.8-3.672-3.312-5.544-4.608l-7.488,32.904c6.696,1.44,13.608,2.232,20.736,2.304
	v-19.872C257.942,372.384,255.71,369.216,252.614,366.12z"/>
<path fill="#FFFFFF" d="M232.238,354.888l-15.408,31.968c6.264,2.88,12.816,5.184,19.656,6.84l7.776-33.912
	C240.374,357.624,236.342,356.184,232.238,354.888z"/>
<path fill="#FFFFFF" d="M216.398,349.272l-20.016,25.056c5.472,4.248,11.376,7.992,17.64,11.16l15.192-31.536
	C224.966,352.584,220.718,351.288,216.398,349.272z"/>
<path fill="#FFFFFF" d="M193.502,324.36l-27.36,13.176c3.096,6.264,6.84,12.168,11.088,17.712l22.968-18.36
	C197.102,333.216,194.87,329.04,193.502,324.36z"/>
<path fill="#FFFFFF" d="M202.574,339.552c-0.072-0.144-0.216-0.216-0.288-0.36l-23.112,18.504c4.392,5.328,9.36,10.296,14.76,14.688
	l19.584-24.624C209.846,345.744,206.174,343.152,202.574,339.552z"/>
<path fill="#FFFFFF" d="M321.086,339.552c-3.672,3.6-7.344,6.192-11.016,8.208l19.656,24.624c5.4-4.392,10.296-9.36,14.76-14.688
	l-23.112-18.504C321.23,339.336,321.158,339.408,321.086,339.552z"/>
<path fill="#FFFFFF" d="M271.046,366.12c-3.096,3.096-5.256,6.264-7.632,10.728v19.872c7.056-0.072,13.968-0.864,20.664-2.304
	l-7.488-32.904C274.718,362.808,272.846,364.32,271.046,366.12z"/>
<path fill="#FFFFFF" d="M331.958,311.688c0,3.384-0.36,6.552-1.008,9.576l27.936,13.464c2.952-6.264,5.256-12.816,6.912-19.656
	l-33.984-7.776C331.886,308.736,331.958,310.176,331.958,311.688z"/>
<path fill="#FFFFFF" d="M328.502,291.312c1.152,3.888,2.304,7.992,2.952,12.672l34.992,7.992c1.44-6.696,2.232-13.608,2.376-20.664
	H328.502z"/>
<path fill="#FFFFFF" d="M323.462,336.888l22.968,18.36c4.248-5.544,7.992-11.448,11.088-17.712l-27.36-13.176
	C328.718,329.04,326.486,333.216,323.462,336.888z"/>
<path fill="#FFFFFF" d="M279.398,359.784l7.704,33.912c6.84-1.656,13.464-3.96,19.728-6.84l-15.408-31.968
	C287.246,356.184,283.286,357.624,279.398,359.784z"/>
<path fill="#FFFFFF" d="M294.446,353.952l15.192,31.536c6.264-3.168,12.168-6.912,17.64-11.16l-20.016-25.056
	C302.942,351.288,298.694,352.584,294.446,353.952z"/>
<path fill="#FFFFFF" d="M191.702,311.688c0-1.512,0.072-2.952,0.144-4.392l-33.984,7.776c1.656,6.84,3.96,13.392,6.912,19.656
	l27.936-13.464C191.99,318.24,191.702,315.072,191.702,311.688z"/>
<path fill="#FFFFFF" d="M205.526,221.616l-11.592-14.544c-5.4,4.464-10.368,9.36-14.76,14.76l15.696,12.528L205.526,221.616z"/>
<path fill="#FFFFFF" d="M340.022,247.896l-1.368,0.648c-3.384,1.368-7.416,3.528-10.296,7.488l29.16-14.112
	c-3.096-6.264-6.84-12.168-11.088-17.64l-15.696,12.528L340.022,247.896z"/>
<path fill="#FFFFFF" d="M324.254,270.144c0,1.296,0.072,2.52,0.144,3.744l41.4-9.432c-1.656-6.84-3.96-13.464-6.912-19.728
	l-33.048,15.984C324.83,263.304,324.254,266.4,324.254,270.144z"/>
<path fill="#FFFFFF" d="M327.566,288.144h41.256c-0.144-6.984-0.936-13.968-2.376-20.664l-41.688,9.504
	C325.406,280.944,326.414,284.472,327.566,288.144z"/>
<path fill="#FFFFFF" d="M288.614,230.544l18.216-37.872c-6.264-2.88-12.888-5.184-19.728-6.912l-10.656,46.728
	C280.55,231.984,284.582,231.336,288.614,230.544z"/>
<path fill="#FFFFFF" d="M260.318,233.28v-50.472c-7.128,0.072-14.04,0.864-20.736,2.304l10.872,47.664
	C253.694,233.064,257.006,233.208,260.318,233.28z"/>
<path fill="#FFFFFF" d="M312.95,223.056l14.328-17.928c-5.472-4.248-11.376-7.92-17.64-11.088l-17.136,35.568
	C299.198,228.024,306.038,225.864,312.95,223.056z"/>
<path fill="#FFFFFF" d="M328.79,234.36l15.696-12.528c-4.464-5.4-9.36-10.296-14.76-14.76l-11.592,14.544L328.79,234.36z"/>
<path fill="#FFFFFF" d="M198.83,276.984l-41.688-9.504c-1.368,6.696-2.16,13.68-2.304,20.664h41.256
	C197.246,284.472,198.254,280.944,198.83,276.984z"/>
<path fill="#FFFFFF" d="M199.406,270.144c0-3.744-0.576-6.84-1.584-9.432l-33.048-15.984c-2.952,6.264-5.256,12.888-6.912,19.728
	l41.328,9.432C199.334,272.664,199.406,271.44,199.406,270.144z"/>
<path fill="#FFFFFF" d="M185.006,248.544l-1.44-0.648l9.288-11.088L177.23,224.28c-4.248,5.472-7.992,11.376-11.088,17.64
	l29.16,14.112C192.35,252.072,188.39,249.912,185.006,248.544z"/>
<path fill="#FFFFFF" d="M195.158,291.312h-40.32c0.144,7.056,0.936,13.968,2.304,20.664l35.064-7.992
	C192.854,299.304,193.934,295.2,195.158,291.312z"/>
<path fill="#FFFFFF" d="M231.158,229.608l-17.136-35.568c-6.264,3.168-12.168,6.84-17.64,11.088l14.256,17.928
	C217.622,225.864,224.462,228.024,231.158,229.608z"/>
<path fill="#FFFFFF" d="M273.206,232.776l10.872-47.664c-6.696-1.44-13.608-2.232-20.664-2.304v50.472
	C266.654,233.208,269.966,233.064,273.206,232.776z"/>
<path fill="#FFFFFF" d="M247.142,232.488l-10.656-46.728c-6.84,1.728-13.392,4.032-19.656,6.912l18.216,37.872
	C239.078,231.336,243.11,231.984,247.142,232.488z"/>
<path fill="#009036" d="M216.83,346.896c4.392,2.16,8.856,3.6,13.248,4.896c8.136,2.52,16.56,5.184,24.12,12.744
	c2.376,2.304,4.32,4.824,6.12,7.776v-36.864c-7.92-0.288-15.336-2.592-21.672-6.48L216.83,346.896z"/>
<path fill="#FFFFFF" d="M325.694,289.944c-1.872-6.264-3.744-12.168-3.744-19.8c0-4.32,0.72-8.064,2.16-11.304l-20.448,16.776
	c1.728,4.824,2.736,9.864,2.736,15.264c0,24.12-19.152,43.776-42.984,44.568v36.864c1.8-2.952,3.672-5.472,6.048-7.776
	c7.488-7.56,15.912-10.224,24.048-12.744c8.64-2.592,17.496-5.4,25.992-13.896c6.768-6.768,10.224-15.552,10.224-26.208
	C329.726,302.904,327.638,296.28,325.694,289.944z"/>
<path fill="#009036" d="M260.318,246.456v-10.944c-18.072-0.216-35.208-3.888-53.712-11.664
	c-0.936,1.152-17.712,21.24-19.368,23.256c9.648,4.464,14.4,11.952,14.4,23.04c0,7.632-1.8,13.536-3.672,19.8
	c-2.016,6.336-4.032,12.96-4.032,21.744c0,3.024,0.288,5.904,0.864,8.568l23.688-19.152c-0.792-3.24-1.224-6.696-1.224-10.224
	C217.262,266.904,236.414,247.248,260.318,246.456z"/>
<path fill="#FFFFFF" d="M310.934,226.296c-16.272,6.12-31.536,9.072-47.52,9.216v10.944c6.192,0.216,12.096,1.656,17.424,4.176
	L310.934,226.296z"/>
<polygon fill="#00722D" points="237.134,297.216 239.87,307.512 230.51,302.616 227.054,305.424 243.542,313.776 244.982,312.624 
	240.662,294.336 "/>
<path fill="#00722D" d="M252.47,301.896c-0.648,0-1.152,0.144-1.584,0.504c-0.504,0.36-0.72,0.864-0.792,1.44
	c-0.072,0.576,0.072,1.152,0.432,1.584c0.432,0.432,0.864,0.72,1.44,0.792c0.576,0.072,1.08-0.072,1.584-0.504
	c0.432-0.36,0.72-0.864,0.792-1.44c0.072-0.576-0.072-1.08-0.432-1.512C253.478,302.256,253.046,301.968,252.47,301.896z"/>
<polygon fill="#00722D" points="259.022,288.072 254.198,292.032 251.894,289.224 257.078,285.048 255.134,282.744 246.71,289.44 
	257.294,302.472 260.534,299.808 256.214,294.48 261.038,290.52 "/>
<path fill="#00722D" d="M267.95,289.296c-0.576,0-1.152,0.144-1.584,0.504c-0.432,0.36-0.648,0.864-0.72,1.44
	c-0.072,0.576,0.072,1.152,0.36,1.584c0.432,0.432,0.864,0.72,1.44,0.792c0.576,0.072,1.152-0.072,1.584-0.504
	c0.504-0.36,0.72-0.864,0.792-1.44c0.072-0.576-0.072-1.08-0.432-1.512C268.958,289.656,268.526,289.368,267.95,289.296z"/>
<path fill="#00722D" d="M277.454,282.024c-1.224,1.008-2.52,1.44-3.816,1.296s-2.448-0.864-3.456-2.088
	c-1.008-1.296-1.44-2.592-1.224-3.888c0.216-1.296,0.936-2.52,2.232-3.528c1.44-1.224,3.312-1.872,5.472-2.16l-2.52-3.024
	c-2.016,0.432-3.816,1.368-5.4,2.592c-2.088,1.8-3.312,3.744-3.744,5.976c-0.432,2.376,0.216,4.68,1.872,6.696
	c1.584,1.944,3.6,3.024,5.976,3.24c2.304,0.144,4.464-0.576,6.48-2.232c1.8-1.44,3.096-3.168,3.96-5.256l-2.52-3.096
	C280.118,278.928,278.966,280.728,277.454,282.024z"/>
<path fill="#00722D" d="M287.822,275.256c-0.36-0.504-0.864-0.72-1.44-0.792c-0.576-0.072-1.08,0.072-1.584,0.432
	c-0.432,0.432-0.72,0.864-0.72,1.44c-0.072,0.648,0.072,1.152,0.432,1.584c0.36,0.504,0.864,0.72,1.44,0.792
	c0.576,0.072,1.08-0.072,1.584-0.432c0.432-0.432,0.72-0.864,0.792-1.44C288.398,276.192,288.254,275.688,287.822,275.256z"/>
<path fill="#FFDE00" d="M216.47,89.424c4.248-0.936,8.496-1.8,12.816-2.448l3.24-18.864c-9.648,1.296-19.224,3.168-28.512,5.616
	C208.262,79.056,212.438,84.312,216.47,89.424z"/>
<path fill="#FFDE00" d="M226.91,53.712c-2.448,0.36-4.896,0.72-7.344,1.152l-1.728-10.512c-4.248,0.792-8.496,1.656-12.672,2.592
	l2.592,10.368c-2.448,0.576-4.896,1.152-7.272,1.8l-2.592-10.368c-3.744,1.008-7.488,2.088-11.16,3.24
	c5.112,6.48,10.224,12.888,15.264,19.224c10.152-2.736,20.52-4.752,31.032-6.12l4.032-23.4c-4.032,0.432-7.92,0.936-11.88,1.512
	L226.91,53.712z"/>
<path fill="#FFDE00" d="M323.174,59.112c-2.448-0.648-4.824-1.224-7.272-1.8l2.592-10.368c-4.176-0.936-8.424-1.8-12.672-2.592
	l-1.728,10.512c-2.448-0.432-4.896-0.792-7.416-1.152l1.728-10.512c-3.888-0.576-7.848-1.08-11.808-1.512l4.032,23.4
	c10.512,1.368,20.88,3.384,30.96,6.12c5.112-6.336,10.224-12.744,15.336-19.224c-3.672-1.152-7.416-2.232-11.16-3.24L323.174,59.112
	z"/>
<path fill="#FFDE00" d="M294.374,86.976c4.32,0.72,8.568,1.512,12.816,2.448c4.032-5.112,8.208-10.368,12.456-15.696
	c-9.36-2.448-18.864-4.32-28.512-5.616L294.374,86.976z"/>
<path fill="#FFDE00" d="M164.342,28.584c1.44,3.168,2.88,6.408,4.392,9.792l-6.768,3.096c-1.512-3.384-3.024-6.624-4.464-9.792
	l-11.952,5.472l4.392,9.72l-6.768,3.096l-4.464-9.72l-11.664,5.256l10.656,23.4l48.888-22.176l-10.584-23.4L164.342,28.584z"/>
<path fill="#FFDE00" d="M380.486,49.968l-6.768-3.096l4.392-9.72l-11.952-5.472c-1.44,3.168-2.952,6.408-4.464,9.792l-6.84-3.096
	c1.512-3.384,3.024-6.624,4.464-9.792l-11.664-5.256l-10.584,23.4l48.888,22.176l10.584-23.4l-11.592-5.256L380.486,49.968z"/>
<path fill="#FFDE00" d="M380.99,68.904c-13.392-6.048-27.144-12.24-40.32-18.216l-31.248,39.24
	c11.592,2.808,22.824,6.552,33.624,11.16c12.672-21.96,23.544-31.248,32.616-27.792l-16.2,35.784c0.864,0.432,1.8,0.936,2.664,1.44
	L380.99,68.904z"/>
<path fill="#FFDE00" d="M182.99,50.688c-13.176,5.976-26.928,12.168-40.32,18.216l18.864,41.616c0.864-0.504,1.8-1.008,2.664-1.44
	l-16.2-35.784c9.072-3.456,19.944,5.832,32.616,27.792c10.8-4.608,22.032-8.352,33.624-11.16L182.99,50.688z"/>
<path fill="#D0C900" d="M425.198,433.944c25.992-28.368,42.12-63.288,48.528-104.04l9.288-7.416
	c-0.36-0.576-0.432-1.296-0.288-2.088l-8.28,4.536c1.512-11.304,2.304-23.04,2.376-35.208c0.072-7.848-0.36-15.696-1.152-23.4
	l3.168-4.536c-0.36-0.36-0.504-0.864-0.576-1.368l-3.024,2.232c-1.512-11.808-3.96-23.256-7.272-34.344l7.272-9.216
	c-0.648-0.144-1.08-0.648-1.368-1.44L466.958,225c-0.72-2.088-1.08-3.744-2.088-5.544c-0.144,2.16-0.504,4.392-0.792,6.552
	c-0.504-0.216-0.936-0.36-1.368-0.576c-0.288,0.072-0.576,0.144-0.792,0.216c2.16,6.84,3.888,13.392,5.4,20.52l-27.648-10.08
	c0.288,0.504,0.36,1.008-0.576,2.664l29.16,11.952c2.376,12.672,3.6,25.704,3.6,39.024c0,39.24-7.632,74.232-24.48,104.544
	l-9.144-16.2c-0.432,0.216-0.864,0.36-1.368,0.288l7.848,20.448c-8.496,14.328-19.152,27.504-32.112,39.528l-6.984-22.248
	c-0.504,0.072-1.08,0.072-1.584-0.072l4.032,26.496c-18.432,16.128-41.256,30.168-68.904,41.976
	c-1.728,2.664-2.592,4.32-4.896,6.048c0.72,0.216,1.728,0.504,2.592,0.72c11.592-4.32,21.312-8.64,31.464-14.04l21.528,5.112
	c-0.288-0.576-0.36-1.224,0.216-2.808l-16.848-4.968c18.576-10.44,34.56-22.68,48.168-36.576l18.216-0.216
	c-0.36-0.504-0.504-1.08-0.504-1.584c-0.072-0.576,0.072-1.08,0.36-1.512L425.198,433.944z"/>
</svg>
