<svg xmlns="http://www.w3.org/2000/svg" width="133.478" height="200.217" viewBox="0 0 35.316 52.974" shape-rendering="geometricPrecision" image-rendering="optimizeQuality" fill-rule="evenodd" xmlns:v="https://vecta.io/nano"><path d="M17.658 0L0 26.487l17.658 26.487 17.658-26.487z" fill="#1d9053"/><path d="M17.658 1.174L.783 26.487 17.658 51.8l16.875-25.312L17.658 1.174zM2.133 26.487L17.658 3.2l15.525 23.288-15.525 23.288-15.525-23.29zm19.17 15.92s5.292-10.275 5.292-18.212-4.2-13.317-8.6-13.317c-3.307 0-4.454 2.514-4.454 3.97s1.4 2.7 2.7 2.7c1.543 0 2.107-1.02 2.107-1.02 1.95 1.154 5.4 2.917 5.213 9.973-.123 4.937-.794 5.777-1.72 8.687-1.4-3.704-4.233-9.922-4.233-9.922L13.155 35s-1.835-4.2-1.94-10.098c-.012-.706-.012-1.017.265-3.574 1.984 0 3.13-.792 3.13-2.6 0-1.745-1.543-2.646-2.646-2.646s-3.88 1.102-3.88 6.35c0 9.128 5.865 19.844 5.865 19.844L17.61 35l3.704 7.408z" fill="#fff"/></svg>