<svg xmlns="http://www.w3.org/2000/svg" width="316" height="316" viewBox="0 0 56.692 56.691"><path d="M56.692 28.346c0 15.655-12.69 28.346-28.346 28.346S0 44.002 0 28.346 12.69 0 28.346 0s28.346 12.69 28.346 28.346" fill="#fff"/><path d="M28.345 44.408A16.12 16.12 0 0 1 12.23 28.293a16.12 16.12 0 0 1 16.116-16.116 16.12 16.12 0 0 1 16.117 16.116 16.12 16.12 0 0 1-16.117 16.116zm0-33.545c-9.626 0-17.43 7.803-17.43 17.43s7.803 17.43 17.43 17.43 17.43-7.803 17.43-17.43-7.803-17.43-17.43-17.43" fill="#d3d3d3"/><path d="M28.344.782c-15.197 0-27.5 12.304-27.5 27.5s12.303 27.53 27.5 27.53 27.53-12.335 27.53-27.53S43.54.782 28.344.782zm0 1.03c14.622 0 26.47 11.846 26.47 26.47s-11.847 26.5-26.47 26.5-26.47-11.877-26.47-26.5 11.846-26.47 26.47-26.47zm-.312 1.22c-2.26.087-3.936 1.373-3.844 3.78.074 1.935 1.727 3.116 3.938 3.03.847-.032 1.704-.262 2.53-.53-.025-.142-.048-.634-.062-1.03-.023-.607-.01-1.393.03-1.594-.124.024-.32.045-.78.063-.395.015-.593.015-.72 0 .016.18.087.6.125 1.625.01.275.023.504 0 .656-.15.1-.704.206-1.03.22-1.48.056-2.38-1.055-2.437-2.562-.076-1.992 1.12-3.018 2.313-3.062.875-.034 1.482.322 1.906.875h.156a7.08 7.08 0 0 1 .219-.969c-.706-.334-1.372-.537-2.344-.5zm-6.594 1.063c-.197.08-.415.187-.72.28s-.574.143-.78.188a35.36 35.36 0 0 1 .875 2.5l.375 1.22c.317 1.014.526 1.717.72 2.53.197-.08.416-.186.72-.28s.573-.142.78-.187c-.304-.78-.527-1.485-.844-2.5l-.406-1.22c-.317-1.014-.525-1.717-.72-2.53zm14.406.125a177.27 177.27 0 0 1-4.625 5.469c.18.037.353.047.5.094s.265.122.406.188a18.47 18.47 0 0 1 1.219-1.656l.938.28c.394.127.797.27 1.188.406a38.87 38.87 0 0 1 .031 2.063c.262.064.525.105.78.188s.525.2.813.313c-.225-1.696-.412-4.783-.53-7.094a2.7 2.7 0 0 1-.375-.094c-.12-.038-.23-.1-.344-.156zM17.156 5.25c-.107.114-.195.228-.312.313-.1.073-.25.13-.375.188.3.71 1.118 3.14 1.656 4.72-1.017-.81-3.426-2.387-4.062-2.97a2.51 2.51 0 0 1-.344.313c-.132.096-.287.177-.437.25.3.874 1.024 3.22 1.5 4.844l-.03.03-3.844-3.156c-.193.176-.383.347-.594.5a7.9 7.9 0 0 1-.687.438c.357.246 4.096 3.053 5.406 4.156a4.34 4.34 0 0 1 .375-.312c.132-.096.293-.17.438-.25-.46-1.32-1.015-3.44-1.406-4.75h.03c1.38.922 2.72 1.856 3.97 2.875.122-.112.242-.247.375-.344s.262-.17.406-.25c-.733-2.06-1.844-5.85-2.062-6.594zm18.125.72c.068.8.124 1.62.156 2.438l-1.687-.562c.5-.647.994-1.27 1.53-1.875zm6.5.813c-.272.365-.6.856-1.125 1.53-1.2 1.527-2.792 3.375-3 3.563.132.066.26.13.375.22s.21.195.313.313c.194-.295.505-.707 1.438-1.906l1.375-1.75c.224 2.125.374 4.195.47 6.22.11.048.238.105.344.188s.193.177.28.28a97.16 97.16 0 0 1 4.156-5.062c-.13-.067-.262-.13-.375-.22s-.215-.2-.312-.312c-.21.38-1.792 2.403-2.72 3.594l-.53-6.125c-.13-.067-.26-.13-.375-.22a2.23 2.23 0 0 1-.312-.312zm-13.437 3.844a17.66 17.66 0 0 0-17.656 17.656 17.66 17.66 0 0 0 17.656 17.656A17.66 17.66 0 0 0 46 28.282a17.66 17.66 0 0 0-17.656-17.656zm0 .78c4.56 0 8.7 1.783 11.75 4.72l.03 24.28a16.84 16.84 0 0 1-11.781 4.781c-4.532 0-8.654-1.784-11.687-4.687V16.095a16.86 16.86 0 0 1 11.688-4.687zM43.5 40.563c-.437.1-1.083.5-1.5.906-1.252 1.22-1.76 2.916-.156 4.563 1.095 1.126 2.742 1.22 4.125-.125.488-.477.815-.995.97-1.47-.144-.183-.28-.393-.375-.625l-.125.03a2.21 2.21 0 0 1-.625 1.5c-.685.667-1.9.883-3.094-.344-1.23-1.263-1.043-2.504-.406-3.125.424-.412.904-.548 1.563-.47l.063-.094a3.05 3.05 0 0 1-.437-.75zm-28.906.594c-1.877.762-4.888 1.862-5.844 2.188.12.106.222.184.313.28a3.03 3.03 0 0 1 .25.313 15.9 15.9 0 0 1 1.625-.719c.204.207.395.38.594.594.243.263.482.544.72.813-.275.535-.578 1.05-.875 1.563.17.16.373.328.53.5s.268.355.438.563c.566-1.386 1.776-3.817 2.688-5.625-.085-.068-.176-.107-.25-.187s-.126-.2-.187-.28zm-1.156 1.094c-.295.636-.637 1.27-.97 1.906l-1.03-1.125c.657-.28 1.332-.548 2-.78zm2.813.78c-.05.117-.087.2-.156.313s-.16.192-.25.28c.447.23 1.075.57 1.344.75-.045.11-.23.364-.406.625l-1.156 1.72c-.522.77-.893 1.296-1.344 1.875.16.09.366.2.594.344s.4.322.53.438c.37-.634.73-1.197 1.25-1.97l1.156-1.72c.177-.262.328-.506.406-.594.276.187.847.637 1.188.938.05-.117.086-.24.156-.344s.16-.192.25-.28a49.47 49.47 0 0 1-1.781-1.156l-1.78-1.22zm22.72 1.156c-.146.112-.33.26-.562.406s-.43.23-.594.313c.43.594.786 1.118 1.28 1.906l.594.97a31.55 31.55 0 0 1 1.156 2c.146-.112.33-.26.563-.406s.43-.26.594-.344c-.43-.595-.785-1.117-1.28-1.906l-.594-.937a30.82 30.82 0 0 1-1.156-2zm-1.812 1.22a46.26 46.26 0 0 1-1.937.781l-2.03.75a1.72 1.72 0 0 1 .156.313 1.99 1.99 0 0 1 .094.375 16.9 16.9 0 0 1 1.375-.656c.066.1.168.362.28.656l.75 1.938c.334.87.566 1.486.78 2.188.165-.082.37-.183.625-.28s.45-.168.625-.22c-.31-.665-.542-1.255-.875-2.125l-.75-1.937c-.113-.295-.224-.57-.25-.687a15.56 15.56 0 0 1 1.438-.437c-.068-.107-.142-.195-.187-.312s-.072-.22-.094-.344zm-17.062.22c-.187.71-.39 1.305-.687 2.188l-.344 1.063a32.16 32.16 0 0 1-.812 2.188c.18.044.396.068.656.156s.457.206.625.28c.186-.71.4-1.336.688-2.22l.156-.437a31.96 31.96 0 0 1 1.188.375l1.188.406-.125.47c-.296.884-.53 1.478-.812 2.156a7.39 7.39 0 0 1 .656.188c.26.088.456.176.625.25.186-.708.4-1.335.688-2.22l.344-1.062a31.06 31.06 0 0 1 .813-2.156c-.18-.044-.396-.1-.656-.187s-.456-.176-.625-.25c-.183.702-.393 1.313-.687 2.188-.302-.093-.628-.187-1.187-.375s-.922-.34-1.187-.437c.295-.875.503-1.454.78-2.125a7.67 7.67 0 0 1-.656-.187c-.26-.088-.457-.176-.625-.25zm12.813 1.313a20.76 20.76 0 0 1-1.719.313c-.486.07-.98.094-1.47.156.156.718.273 1.36.406 2.28l.156 1.125c.135.922.225 1.55.28 2.28.18-.043.378-.085 1.72-.28.758-.11 1.17-.153 1.47-.187-.03-.097-.068-.17-.094-.344s-.03-.257-.03-.375c-.623.167-1.226.284-1.844.375-.064-.327-.137-.685-.187-1.03l-.156-1.03c.625-.092 1.242-.177 1.875-.22-.05-.17-.05-.224-.062-.312-.016-.108-.037-.18-.03-.375-.62.126-1.13.192-1.844.313-.09-.6-.172-1.175-.22-1.78.247-.037 1.244-.138 1.875-.187-.034-.12-.07-.17-.094-.344a2.35 2.35 0 0 1-.031-.375zm-7.062.344c.002.733-.033 1.352-.094 2.28l-.062 1.125c-.06.93-.123 1.585-.22 2.313.182-.005.397-.024 1.75.063.763.05 1.172.097 1.47.125-.01-.1-.042-.17-.03-.344s.038-.26.063-.375c-.643.034-1.284.04-1.906 0l.156-2.812c.06-.93.12-1.586.22-2.312-.184.005-.414.017-.687 0s-.475-.034-.656-.062z" fill="#1d59af"/><path d="M50.5 25.313a2.94 2.94 0 0 0-.562.031c-.062.048.03.188.03.188.614.57.823 1.955.75 2.5-.033.243-.017.345.094.5s.596.426.75.47.373.062.438-.094.197-.507.156-1.406c-.044-.964-.504-1.653-.812-1.937-.193-.18-.538-.237-.844-.25zm-1.125.22c-.085.002-.182.033-.344.125-.32.185-1.75 1.14-1.656 2.938 0 0 .212-1.266 2.094-1.906 0 0 .515-.088.375-.47-.13-.36-.2-.467-.28-.594-.044-.065-.102-.095-.187-.094zm2.438.125c-.01.025 0 .063 0 .063s.606.726.688 1.72c.068.865-.07 1.353-.156 1.53-.09.172-.05.346.125.406.237.088.795.184.906-.28a3.22 3.22 0 0 0-1.5-3.437c-.042-.03-.054-.025-.062 0zm-1.906 1.313c-.06-.005-.116.003-.187.03-.284.11-1.236.433-1.812 1.188-.52.677-.466 1.453.125 2 0 0-.145-.834 1.97-1.844 0 0 .36-.084.375-.406.015-.285-.078-.565-.125-.72-.034-.115-.166-.234-.344-.25zm.375 1.75a.38.38 0 0 0-.156.031c-.24.1-.566.248-.72.47s-.04.436.156.563c.2.133 2.852 1.908 3.594-.094 0 0-.94.552-2.625-.906a.45.45 0 0 0-.25-.062zm-1.375 1.03c-.044-.007-.107.007-.156.03-.232.123-.406.438-.406.438s-.188.197.03.375c.143.118 1.613 1.642 3.72.28 0 0-1.204.446-2.97-1a.39.39 0 0 0-.219-.125z" fill="#9e8b4f" fill-rule="evenodd"/><path d="M27.368 31.61l-.497-.118s.62-.25.94.052c0 0-.054-.528.277-1.153v.32c-.27.696-.104 1.29-.104 1.29-1.273-.907-1.76.47-1.76.47-.43 1.67 1.2 1.823 1.2 1.823-.242-.473 0-1.026.406-1.026.397 0 .64.397.64 1.105 0 .72 0 1.584-.967 1.584-.96 0-1.44-.784-1.44-.784s-.08.946-1.366.946-1.522-1.825-1.04-2.06.64.715.64.715c.804-.476 1.202-2.06.322-2.615s-1.762.476-1.762.476c-.166-1.824-2.416-2.144-2.416-2.144l3.453 8.874s2.33-.708 5.215-.708a18.92 18.92 0 0 1 5.297.79l3.294-8.796c-2.086-.236-2.168 1.983-2.168 1.983s-.883-1.267-1.923-.556c-1.045.715-.146 2.43-.146 2.43.503-1.483 1.512-.375 1.428.42-.077.792-1.056 1.452-1.757 1.308-.784-.155-1.023-.703-1.023-.703s-.315.497-1.314.377c-.63-.076-.88-.982-.88-1.454s.078-1.275.565-1.27c.695.01.444 1.078.444 1.078s1.582-.616 1-1.892c-.56-1.226-1.766-.293-1.766-.293.045-.133.072-.266.083-.394h.3v-.24c.125-.058.312-.1.556-.028l-.567-3.3-.067-.406s.22-.542 1.88-1.63l.67-.385c.488.142 1.136-.055 1.136-.055 1.9.422 2.103-.59 2.103-.59.403.257 1.296-.092 1.296-.092 1.21-.607-.374-1.158-.374-1.158.806.073.517-.405.517-.405 1.932-.662-.287-1.544-.287-1.544 2.2-.35 1.125-1.453 1.125-1.453.49-.735-.952-.81-.952-.81.114-1.673-2.65-.975-2.65-.975.23-.22-.23-.404-.23-.404-1.572.06-.75-.938-.75-.938-.145-.827-1.296-.643-1.296-.643.317-.46-.606-.478-.606-.478.375-.423-1.105-.448-1.105-.448 0-.478-.134-.618-.134-.618-.144-.59-1.584-.625-1.584-.625-.46-.184-.75.1-.75.1-.663-.036-.893.368-.893.368-1.18.165-1.2.717-1.2.717-.69.11-.69.588-.69.588-3.284.313-2.16 2.15-2.16 2.15-.318-.35-.576 0-.576 0-2.304-.275-1.355 1.765-1.355 1.765-1.584-.055-1.9.956-1.9.956-.375.864.692 1.287.692 1.287-1.44.386-.404 1.14-.404 1.14-1.498.92.375 1.434.375 1.434.41 1.327 2.452.814 3.438.478l1.652.368.436.256 1.538.818-.02.8-.516 3.457c-.02-.004.393.114.496.452" fill="#d3d3d3"/><path d="M30.442 30.768l-.57-3.29-.066-.406s.22-.542 1.88-1.63l2.448-1.41-2.01.063-1.485.96-.524.256h-.612l.787-1.92-1.574-.19-.174 1.6-.525.512-.174-.256-.438-2.048-.874.063.35 1.73-.61.256-.437-.192.437.192s-2.534-1.024-3.41-1.087-.088.767-.088.767l2 .448.438.257 1.538.818.27.88-.512 3.506s.263-.023.456.143c0 0-.155-1.455 1.385-2.396 0 0 1.552.76 1.552 2.434 0 0 .193-.18.53-.06" fill="#9b5c0e"/><path d="M27.903 23.824s-.893.44-1.613-.1c0 0-.116.772-1.73.57 0 0 0 .534-.894.33 0 0-3.427 1.49-3.975-.276 0 0-1.872-.515-.374-1.433 0 0-1.037-.754.403-1.14 0 0-1.066-.424-.69-1.287 0 0 .317-1.012 1.9-.957 0 0-.95-2.04 1.354-1.765 0 0 .26-.35.576 0 0 0-1.124-1.838 2.16-2.15 0 0 0-.478.692-.588 0 0 .028-.55 1.21-.717 0 0 .23-.404.893-.368 0 0 .29-.294.75-.11 0 0 1.44.037 1.584.626 0 0 .836.02.836.497 0 0 .778.147.403.57 0 0 .922.018.605.478 0 0 1.152-.183 1.298.644 0 0 1.18.275.747.938 0 0 .462.183.23.404 0 0 2.765-.7 2.65.974 0 0 1.44.074.95.81 0 0 1.065 1.103-1.124 1.452 0 0 2.218.883.288 1.545 0 0 .288.478-.518.403 0 0 1.585.553.374 1.16 0 0-.892.35-1.296.092 0 0-.202 1.01-2.103.59 0 0-1.442.44-1.643-.46 0 0-1.24.478-1.844-.385 0 0-1.296.643-2.103-.332" fill="#006838"/><path d="M27.903 23.824s-.893.44-1.613-.1c0 0-.116.772-1.73.57 0 0 0 .534-.894.33 0 0-3.427 1.49-3.975-.276 0 0-1.872-.515-.374-1.433 0 0-1.037-.754.403-1.14 0 0-1.066-.424-.69-1.287 0 0 .317-1.012 1.9-.957 0 0-.95-2.04 1.354-1.765 0 0 .26-.35.576 0 0 0-1.124-1.838 2.16-2.15 0 0 0-.478.692-.588 0 0 .028-.55 1.21-.717 0 0 .23-.404.893-.368 0 0 .29-.294.75-.11 0 0 1.44.037 1.584.626 0 0 .836.02.836.497 0 0 .778.147.403.57 0 0 .922.018.605.478 0 0 1.152-.183 1.298.644 0 0 1.18.275.747.938 0 0 .462.183.23.404 0 0 2.765-.7 2.65.974 0 0 1.44.074.95.81 0 0 1.065 1.103-1.124 1.452 0 0 2.218.883.288 1.545 0 0 .288.478-.518.403 0 0 1.585.553.374 1.16 0 0-.892.35-1.296.092 0 0-.202 1.01-2.103.59 0 0-1.442.44-1.643-.46 0 0-1.24.478-1.844-.385 0 0-1.296.643-2.103-.332z" fill="none" stroke="#006838" stroke-width=".1"/><path d="M19.868 19.706s-1.5.788-.536 1.782a2.58 2.58 0 0 0 .391.278s-.786.2-.723.637a2.03 2.03 0 0 0 .32.503s-1.47.8.374 1.433c0 0 .474 1.786 3.975.24 0 0 .715.308.894-.295 0 0 1.03.074 1.4-.194 0 0-.994.063-1.625-.22 0 0-.22.442-1.12.237 0 0-2.854.142-2.744-.852 0 0-.725-.284-.22-1.167 0 0-.44-.695-.173-.836 0 0-1.215-.5-.22-1.546m4.995-1.006s-.6.63-.335 1.18c0 0 .078.648.6.785 0 0 1.003-.02 1.297.236 0 0 .216 0 .157.314 0 0-.252.956.037 1.122a.16.16 0 0 0 .04.017c.354.097.55.55 1.238.452 0 0-1.415-.727-.983-1.376 0 0-.197-.687-.06-.747 0 0-2.12-.373-1.965-.766 0 0-.472-.452-.02-1.22m6.413-1.233s.338.885-.357 1.243c0 0-.6.126-.715.337 0 0-.106.505-.485.674 0 0-.38.2-.38.274 0 0 .23-.168.463-.168 0 0 .4-.526.6-.695 0 0 .42-.147.6-.147 0 0 .653-.484.274-1.517m1.695 3.3s.506.2.548.42c0 0 .252.6.126.82 0 0-.484.484-.358.695 0 0 .126.463.864.358 0 0 .6-.2.63.064l.04.358s.17-.422.022-.632c0 0-.358-.126-.695-.042 0 0-.78 0-.36-.695 0 0 .295-.695.23-1 0 0-.2-.252-.484-.294 0 0-1.475-.57-1.37-.78a1.35 1.35 0 0 0 .799.715m-7.17-4.275s.66-.203.916-.026c0 0 .534.23.534.407 0 0-.1.33.026.56l.102.433-.23-.33s-.05-.534-.18-.662c0 0-.38-.255-.56-.255s-.025-.076-.025-.076-.585.05-.687.127c0 0-.764-.077-.84-.5 0 0 .586.382.94.33m-2.948 1.198s-.764-1.297 1.068-1.83c0 0 .925-.265 1.124-.234 0 0 .014-.368.692-.588 0 0 .01-.476 1.2-.717 0 0 .996-.012 1.225.394l.56.382h.788l-.813.102-.636-.407s-.8-.306-1.298-.102c0 0-.6.18-.865.433 0 0-.5.382-.6.56 0 0-1.272.356-1.272.534 0 0-1.068.127-.916 1.298l-.254.178m7.173 6.48s.483.842 1.844.385c0 0 .27.817 1.643.46 0 0 1.663.452 2.103-.6 0 0 1.568.16 1.738-.607 0 0 .022-.28-.817-.643 0 0 .486.058.56-.222l-.043-.182s.96-.303.73-.8c0 0-.46-.66-1.095-.737 0 0 .993.662.713 1.018 0 0-.406.254-.8.28 0 0 0 .178-.23.23 0 0-.355.6-.33.686 0 0 .152.6-.865.586 0 0-.306.636-1.502.66 0 0-1.46-.102-1.544-.573 0 0-.796.243-1.407.1 0 0-.15.167-.712-.03" fill="#123d0f"/><g fill="#7a4d15"><path d="M23.288 24.798l1.495.388 2.006 1.06.258.904-.4 2.84.73-2.745-.367-1.194-.5-.4h-.153l-1.425-.686-1.653-.178m2.98.26l.6-.256-.147-.82.24.013.04.417.054.35-.027.108-.773.2m3.675-.833l-.725 1.208.63.014.363.013.24-.095.45-.363.324-.294-.06.004-.48.314-.56.28-.452-.007-.147-.027h-.004l.018-.054.403-.993"/><path d="M29.275 25.338l-.79 1.046-.153.996.41-.97.46-.612.383-.383"/></g><g fill="#9e8b4f"><path d="M23.242 38.717l-3.453-8.873s2.25.318 2.416 2.142c0 0 .877-1.03 1.76-.476s.482 2.138-.32 2.615c0 0-.16-.953-.64-.715s-.246 2.06 1.04 2.06 1.366-1.1 1.366-1.1.482.947 1.442.947c.965 0 .965-.865.965-1.583 0-.7-.24-1.107-.637-1.107-.407 0-.65.554-.407 1.026 0 0-1.63-.153-1.2-1.822 0 0 .487-1.378 1.76-.472 0 0-.4-1.43 1.046-2.456 0 0 1.604 1.108 1.124 2.535 0 0 1.205-.933 1.766.293.58 1.277-1 1.893-1 1.893s.25-1.068-.444-1.078c-.487-.005-.565.794-.565 1.27s.25 1.378.882 1.454c1 .12 1.444-.82 1.444-.82s.108.99.892 1.145c.7.143 1.68-.515 1.757-1.308.084-.794-.925-1.904-1.427-.42 0 0-.9-1.717.145-2.43s1.923.555 1.923.555.083-2.218 2.17-1.983L33.754 38.8s-2.406-.8-5.296-.8c-2.885 0-5.216.71-5.216.71"/><path d="M6.22 25.313c-.306.013-.682.07-.875.25-.308.284-.768.973-.812 1.938-.04.9.1 1.254.156 1.406s.315.137.47.094.61-.314.72-.47.16-.257.125-.5c-.073-.545.136-1.93.75-2.5 0 0 .093-.14.03-.187 0 0-.257-.044-.562-.03zm.97.22c-.03.017-.04.06-.062.094-.092.127-.153.235-.28.594-.14.38.375.47.375.47 1.882.64 2.094 1.906 2.094 1.906.092-1.797-1.334-2.753-1.656-2.937-.242-.14-.38-.177-.47-.125zm-2.375.125c-1.805 1.164-1.587 2.956-1.47 3.438.11.466.638.37.875.28.175-.06.215-.234.125-.406-.086-.178-.224-.666-.156-1.53.08-.992.688-1.72.688-1.72s.023-.12-.062-.062zm1.97 1.313c-.178.016-.31.135-.344.25-.047.154-.14.433-.125.72.014.322.375.406.375.406 2.113 1 2 1.844 2 1.844.6-.547.644-1.323.125-2-.576-.755-1.56-1.08-1.844-1.187-.07-.028-.128-.037-.187-.03zm-.375 1.75c-.148-.006-.22.062-.22.063-1.685 1.458-2.656.906-2.656.906.742 2.002 3.394.227 3.594.094.197-.127.3-.342.156-.562s-.446-.36-.687-.47c-.06-.027-.138-.03-.187-.03zm1.406 1.03c-.132.02-.25.125-.25.125-1.766 1.446-2.97 1-2.97 1 2.105 1.36 3.575-.163 3.72-.28a.26.26 0 0 0 .063-.375s-.205-.314-.437-.437c-.05-.025-.08-.038-.125-.03z" fill-rule="evenodd"/><path d="M25.03 39.813a10.94 10.94 0 0 1-1.5.188c.042.056.12.175.156.28l.594-.094-.375 1.25-.406 1.22c.12.025.26.03.375.063s.23.082.344.125l.375-1.406.063-.25.438-1.312-.062-.062zm7.063 0c-.15-.01-.323.007-.53.063-.528.14-.758.463-.78.813l.406.188h.063c-.066-.23-.084-.693.25-.78.23-.06.496.046.625.53.156.587-.047 1.23-.75 2.313l.03.188.97-.28 1.03-.25-.094-.28-.062-.28-1.28.375v-.03c.812-1.16.948-1.608.844-2-.068-.257-.268-.536-.72-.562zm-5.187.375c-.66-.068-1.094.33-1.156.938-.06.58.312.92.78.97.343.035.525-.084.656-.22v.03c-.114.886-.544 1.226-.906 1.188-.213-.022-.34-.125-.437-.22l-.03.03.094.28a.73.73 0 0 0 .344.125c.878.09 1.536-.546 1.656-1.72.088-.856-.322-1.337-1-1.406zm2.344.063c-.517.04-.734.208-.875.5.115.093.247.182.344.28h.063c.01-.305.09-.572.375-.594.218-.017.406.132.438.53.03.41-.105.66-.47.688-.042.003-.08.001-.125 0l.03.22c.07-.01.144.005.22 0 .325-.026.532.225.563.625.03.4-.17.665-.47.688-.293.023-.468-.224-.53-.5h-.062c-.074.14-.184.297-.28.438.164.18.466.32.97.28.586-.045 1.14-.458 1.094-1.03-.04-.528-.31-.657-.812-.687l-.03-.03c.395-.17.622-.42.594-.78-.03-.395-.3-.68-1.03-.625zm-2.312.156c.237.025.37.24.313.813-.05.48-.265.646-.47.625-.223-.023-.367-.22-.312-.75.047-.454.218-.713.47-.687z"/></g></svg>